%TF.GenerationSoftware,KiCad,Pcbnew,9.0.1+1*%
%TF.CreationDate,2026-01-01T20:49:08+00:00*%
%TF.ProjectId,WALKIN_PIR_IF,57414c4b-494e-45f5-9049-525f49462e6b,A*%
%TF.SameCoordinates,Original*%
%TF.FileFunction,AssemblyDrawing,Top*%
%FSLAX46Y46*%
G04 Gerber Fmt 4.6, Leading zero omitted, Abs format (unit mm)*
G04 Created by KiCad (PCBNEW 9.0.1+1) date 2026-01-01 20:49:08*
%MOMM*%
%LPD*%
G01*
G04 APERTURE LIST*
%ADD10C,0.100000*%
%ADD11C,0.150000*%
%ADD12C,0.112500*%
%ADD13C,0.125000*%
%ADD14C,0.087500*%
G04 APERTURE END LIST*
D10*
X168671427Y-112054895D02*
X169204761Y-112854895D01*
X169204761Y-112054895D02*
X168671427Y-112854895D01*
X169433332Y-112054895D02*
X169623808Y-112854895D01*
X169623808Y-112854895D02*
X169776189Y-112283466D01*
X169776189Y-112283466D02*
X169928570Y-112854895D01*
X169928570Y-112854895D02*
X170119047Y-112054895D01*
X170385713Y-112626323D02*
X170766666Y-112626323D01*
X170309523Y-112854895D02*
X170576190Y-112054895D01*
X170576190Y-112054895D02*
X170842856Y-112854895D01*
X171528570Y-112854895D02*
X171071427Y-112854895D01*
X171299999Y-112854895D02*
X171299999Y-112054895D01*
X171299999Y-112054895D02*
X171223808Y-112169180D01*
X171223808Y-112169180D02*
X171147618Y-112245371D01*
X171147618Y-112245371D02*
X171071427Y-112283466D01*
X172290475Y-112854895D02*
X171833332Y-112854895D01*
X172061904Y-112854895D02*
X172061904Y-112054895D01*
X172061904Y-112054895D02*
X171985713Y-112169180D01*
X171985713Y-112169180D02*
X171909523Y-112245371D01*
X171909523Y-112245371D02*
X171833332Y-112283466D01*
X172519047Y-112054895D02*
X172785714Y-112854895D01*
X172785714Y-112854895D02*
X173052380Y-112054895D01*
X173814285Y-112054895D02*
X174271428Y-112054895D01*
X174042856Y-112854895D02*
X174042856Y-112054895D01*
X174842857Y-112816800D02*
X174766666Y-112854895D01*
X174766666Y-112854895D02*
X174614285Y-112854895D01*
X174614285Y-112854895D02*
X174538095Y-112816800D01*
X174538095Y-112816800D02*
X174499999Y-112740609D01*
X174499999Y-112740609D02*
X174499999Y-112435847D01*
X174499999Y-112435847D02*
X174538095Y-112359657D01*
X174538095Y-112359657D02*
X174614285Y-112321561D01*
X174614285Y-112321561D02*
X174766666Y-112321561D01*
X174766666Y-112321561D02*
X174842857Y-112359657D01*
X174842857Y-112359657D02*
X174880952Y-112435847D01*
X174880952Y-112435847D02*
X174880952Y-112512038D01*
X174880952Y-112512038D02*
X174499999Y-112588228D01*
X175223809Y-112854895D02*
X175223809Y-112321561D01*
X175223809Y-112473942D02*
X175261904Y-112397752D01*
X175261904Y-112397752D02*
X175299999Y-112359657D01*
X175299999Y-112359657D02*
X175376190Y-112321561D01*
X175376190Y-112321561D02*
X175452380Y-112321561D01*
X175719047Y-112854895D02*
X175719047Y-112321561D01*
X175719047Y-112397752D02*
X175757142Y-112359657D01*
X175757142Y-112359657D02*
X175833332Y-112321561D01*
X175833332Y-112321561D02*
X175947618Y-112321561D01*
X175947618Y-112321561D02*
X176023809Y-112359657D01*
X176023809Y-112359657D02*
X176061904Y-112435847D01*
X176061904Y-112435847D02*
X176061904Y-112854895D01*
X176061904Y-112435847D02*
X176099999Y-112359657D01*
X176099999Y-112359657D02*
X176176190Y-112321561D01*
X176176190Y-112321561D02*
X176290475Y-112321561D01*
X176290475Y-112321561D02*
X176366666Y-112359657D01*
X176366666Y-112359657D02*
X176404761Y-112435847D01*
X176404761Y-112435847D02*
X176404761Y-112854895D01*
X176785714Y-112854895D02*
X176785714Y-112321561D01*
X176785714Y-112054895D02*
X176747618Y-112092990D01*
X176747618Y-112092990D02*
X176785714Y-112131085D01*
X176785714Y-112131085D02*
X176823809Y-112092990D01*
X176823809Y-112092990D02*
X176785714Y-112054895D01*
X176785714Y-112054895D02*
X176785714Y-112131085D01*
X177166666Y-112321561D02*
X177166666Y-112854895D01*
X177166666Y-112397752D02*
X177204761Y-112359657D01*
X177204761Y-112359657D02*
X177280951Y-112321561D01*
X177280951Y-112321561D02*
X177395237Y-112321561D01*
X177395237Y-112321561D02*
X177471428Y-112359657D01*
X177471428Y-112359657D02*
X177509523Y-112435847D01*
X177509523Y-112435847D02*
X177509523Y-112854895D01*
X178233333Y-112854895D02*
X178233333Y-112435847D01*
X178233333Y-112435847D02*
X178195238Y-112359657D01*
X178195238Y-112359657D02*
X178119047Y-112321561D01*
X178119047Y-112321561D02*
X177966666Y-112321561D01*
X177966666Y-112321561D02*
X177890476Y-112359657D01*
X178233333Y-112816800D02*
X178157142Y-112854895D01*
X178157142Y-112854895D02*
X177966666Y-112854895D01*
X177966666Y-112854895D02*
X177890476Y-112816800D01*
X177890476Y-112816800D02*
X177852380Y-112740609D01*
X177852380Y-112740609D02*
X177852380Y-112664419D01*
X177852380Y-112664419D02*
X177890476Y-112588228D01*
X177890476Y-112588228D02*
X177966666Y-112550133D01*
X177966666Y-112550133D02*
X178157142Y-112550133D01*
X178157142Y-112550133D02*
X178233333Y-112512038D01*
X178728571Y-112854895D02*
X178652381Y-112816800D01*
X178652381Y-112816800D02*
X178614286Y-112740609D01*
X178614286Y-112740609D02*
X178614286Y-112054895D01*
D11*
X173306666Y-110484819D02*
X173306666Y-111199104D01*
X173306666Y-111199104D02*
X173259047Y-111341961D01*
X173259047Y-111341961D02*
X173163809Y-111437200D01*
X173163809Y-111437200D02*
X173020952Y-111484819D01*
X173020952Y-111484819D02*
X172925714Y-111484819D01*
X173735238Y-110580057D02*
X173782857Y-110532438D01*
X173782857Y-110532438D02*
X173878095Y-110484819D01*
X173878095Y-110484819D02*
X174116190Y-110484819D01*
X174116190Y-110484819D02*
X174211428Y-110532438D01*
X174211428Y-110532438D02*
X174259047Y-110580057D01*
X174259047Y-110580057D02*
X174306666Y-110675295D01*
X174306666Y-110675295D02*
X174306666Y-110770533D01*
X174306666Y-110770533D02*
X174259047Y-110913390D01*
X174259047Y-110913390D02*
X173687619Y-111484819D01*
X173687619Y-111484819D02*
X174306666Y-111484819D01*
D12*
X146094792Y-98566815D02*
X146137650Y-98523958D01*
X146137650Y-98523958D02*
X146180507Y-98566815D01*
X146180507Y-98566815D02*
X146137650Y-98609672D01*
X146137650Y-98609672D02*
X146094792Y-98566815D01*
X146094792Y-98566815D02*
X146180507Y-98566815D01*
X146180507Y-97666815D02*
X146180507Y-98181101D01*
X146180507Y-97923958D02*
X145280507Y-97923958D01*
X145280507Y-97923958D02*
X145409078Y-98009672D01*
X145409078Y-98009672D02*
X145494792Y-98095387D01*
X145494792Y-98095387D02*
X145537650Y-98181101D01*
X145580507Y-97281101D02*
X146480507Y-97281101D01*
X146051935Y-96852529D02*
X146137650Y-96809672D01*
X146137650Y-96809672D02*
X146180507Y-96723958D01*
X146051935Y-97281101D02*
X146137650Y-97238244D01*
X146137650Y-97238244D02*
X146180507Y-97152529D01*
X146180507Y-97152529D02*
X146180507Y-96981101D01*
X146180507Y-96981101D02*
X146137650Y-96895387D01*
X146137650Y-96895387D02*
X146051935Y-96852529D01*
X146051935Y-96852529D02*
X145580507Y-96852529D01*
X145709078Y-96038244D02*
X145709078Y-96338244D01*
X146180507Y-96338244D02*
X145280507Y-96338244D01*
X145280507Y-96338244D02*
X145280507Y-95909672D01*
D13*
X145643333Y-93010880D02*
X145595714Y-93058500D01*
X145595714Y-93058500D02*
X145452857Y-93106119D01*
X145452857Y-93106119D02*
X145357619Y-93106119D01*
X145357619Y-93106119D02*
X145214762Y-93058500D01*
X145214762Y-93058500D02*
X145119524Y-92963261D01*
X145119524Y-92963261D02*
X145071905Y-92868023D01*
X145071905Y-92868023D02*
X145024286Y-92677547D01*
X145024286Y-92677547D02*
X145024286Y-92534690D01*
X145024286Y-92534690D02*
X145071905Y-92344214D01*
X145071905Y-92344214D02*
X145119524Y-92248976D01*
X145119524Y-92248976D02*
X145214762Y-92153738D01*
X145214762Y-92153738D02*
X145357619Y-92106119D01*
X145357619Y-92106119D02*
X145452857Y-92106119D01*
X145452857Y-92106119D02*
X145595714Y-92153738D01*
X145595714Y-92153738D02*
X145643333Y-92201357D01*
X146595714Y-93106119D02*
X146024286Y-93106119D01*
X146310000Y-93106119D02*
X146310000Y-92106119D01*
X146310000Y-92106119D02*
X146214762Y-92248976D01*
X146214762Y-92248976D02*
X146119524Y-92344214D01*
X146119524Y-92344214D02*
X146024286Y-92391833D01*
D12*
X150200507Y-98409672D02*
X150200507Y-98923958D01*
X150200507Y-98666815D02*
X149300507Y-98666815D01*
X149300507Y-98666815D02*
X149429078Y-98752529D01*
X149429078Y-98752529D02*
X149514792Y-98838244D01*
X149514792Y-98838244D02*
X149557650Y-98923958D01*
X149300507Y-97852529D02*
X149300507Y-97766815D01*
X149300507Y-97766815D02*
X149343364Y-97681101D01*
X149343364Y-97681101D02*
X149386221Y-97638244D01*
X149386221Y-97638244D02*
X149471935Y-97595386D01*
X149471935Y-97595386D02*
X149643364Y-97552529D01*
X149643364Y-97552529D02*
X149857650Y-97552529D01*
X149857650Y-97552529D02*
X150029078Y-97595386D01*
X150029078Y-97595386D02*
X150114792Y-97638244D01*
X150114792Y-97638244D02*
X150157650Y-97681101D01*
X150157650Y-97681101D02*
X150200507Y-97766815D01*
X150200507Y-97766815D02*
X150200507Y-97852529D01*
X150200507Y-97852529D02*
X150157650Y-97938244D01*
X150157650Y-97938244D02*
X150114792Y-97981101D01*
X150114792Y-97981101D02*
X150029078Y-98023958D01*
X150029078Y-98023958D02*
X149857650Y-98066815D01*
X149857650Y-98066815D02*
X149643364Y-98066815D01*
X149643364Y-98066815D02*
X149471935Y-98023958D01*
X149471935Y-98023958D02*
X149386221Y-97981101D01*
X149386221Y-97981101D02*
X149343364Y-97938244D01*
X149343364Y-97938244D02*
X149300507Y-97852529D01*
X149600507Y-97166815D02*
X150500507Y-97166815D01*
X150071935Y-96738243D02*
X150157650Y-96695386D01*
X150157650Y-96695386D02*
X150200507Y-96609672D01*
X150071935Y-97166815D02*
X150157650Y-97123958D01*
X150157650Y-97123958D02*
X150200507Y-97038243D01*
X150200507Y-97038243D02*
X150200507Y-96866815D01*
X150200507Y-96866815D02*
X150157650Y-96781101D01*
X150157650Y-96781101D02*
X150071935Y-96738243D01*
X150071935Y-96738243D02*
X149600507Y-96738243D01*
X149729078Y-95923958D02*
X149729078Y-96223958D01*
X150200507Y-96223958D02*
X149300507Y-96223958D01*
X149300507Y-96223958D02*
X149300507Y-95795386D01*
D13*
X149543333Y-93010880D02*
X149495714Y-93058500D01*
X149495714Y-93058500D02*
X149352857Y-93106119D01*
X149352857Y-93106119D02*
X149257619Y-93106119D01*
X149257619Y-93106119D02*
X149114762Y-93058500D01*
X149114762Y-93058500D02*
X149019524Y-92963261D01*
X149019524Y-92963261D02*
X148971905Y-92868023D01*
X148971905Y-92868023D02*
X148924286Y-92677547D01*
X148924286Y-92677547D02*
X148924286Y-92534690D01*
X148924286Y-92534690D02*
X148971905Y-92344214D01*
X148971905Y-92344214D02*
X149019524Y-92248976D01*
X149019524Y-92248976D02*
X149114762Y-92153738D01*
X149114762Y-92153738D02*
X149257619Y-92106119D01*
X149257619Y-92106119D02*
X149352857Y-92106119D01*
X149352857Y-92106119D02*
X149495714Y-92153738D01*
X149495714Y-92153738D02*
X149543333Y-92201357D01*
X149924286Y-92201357D02*
X149971905Y-92153738D01*
X149971905Y-92153738D02*
X150067143Y-92106119D01*
X150067143Y-92106119D02*
X150305238Y-92106119D01*
X150305238Y-92106119D02*
X150400476Y-92153738D01*
X150400476Y-92153738D02*
X150448095Y-92201357D01*
X150448095Y-92201357D02*
X150495714Y-92296595D01*
X150495714Y-92296595D02*
X150495714Y-92391833D01*
X150495714Y-92391833D02*
X150448095Y-92534690D01*
X150448095Y-92534690D02*
X149876667Y-93106119D01*
X149876667Y-93106119D02*
X150495714Y-93106119D01*
D10*
X161803809Y-101056323D02*
X162184762Y-101056323D01*
X161727619Y-101284895D02*
X161994286Y-100484895D01*
X161994286Y-100484895D02*
X162260952Y-101284895D01*
X163060952Y-101361085D02*
X162984762Y-101322990D01*
X162984762Y-101322990D02*
X162908571Y-101246800D01*
X162908571Y-101246800D02*
X162794285Y-101132514D01*
X162794285Y-101132514D02*
X162718095Y-101094419D01*
X162718095Y-101094419D02*
X162641904Y-101094419D01*
X162680000Y-101284895D02*
X162603809Y-101246800D01*
X162603809Y-101246800D02*
X162527619Y-101170609D01*
X162527619Y-101170609D02*
X162489523Y-101018228D01*
X162489523Y-101018228D02*
X162489523Y-100751561D01*
X162489523Y-100751561D02*
X162527619Y-100599180D01*
X162527619Y-100599180D02*
X162603809Y-100522990D01*
X162603809Y-100522990D02*
X162680000Y-100484895D01*
X162680000Y-100484895D02*
X162832381Y-100484895D01*
X162832381Y-100484895D02*
X162908571Y-100522990D01*
X162908571Y-100522990D02*
X162984762Y-100599180D01*
X162984762Y-100599180D02*
X163022857Y-100751561D01*
X163022857Y-100751561D02*
X163022857Y-101018228D01*
X163022857Y-101018228D02*
X162984762Y-101170609D01*
X162984762Y-101170609D02*
X162908571Y-101246800D01*
X162908571Y-101246800D02*
X162832381Y-101284895D01*
X162832381Y-101284895D02*
X162680000Y-101284895D01*
X163518095Y-100903942D02*
X163518095Y-101284895D01*
X163251428Y-100484895D02*
X163518095Y-100903942D01*
X163518095Y-100903942D02*
X163784761Y-100484895D01*
X164013332Y-100561085D02*
X164051428Y-100522990D01*
X164051428Y-100522990D02*
X164127618Y-100484895D01*
X164127618Y-100484895D02*
X164318094Y-100484895D01*
X164318094Y-100484895D02*
X164394285Y-100522990D01*
X164394285Y-100522990D02*
X164432380Y-100561085D01*
X164432380Y-100561085D02*
X164470475Y-100637276D01*
X164470475Y-100637276D02*
X164470475Y-100713466D01*
X164470475Y-100713466D02*
X164432380Y-100827752D01*
X164432380Y-100827752D02*
X163975237Y-101284895D01*
X163975237Y-101284895D02*
X164470475Y-101284895D01*
X165232380Y-101284895D02*
X164775237Y-101284895D01*
X165003809Y-101284895D02*
X165003809Y-100484895D01*
X165003809Y-100484895D02*
X164927618Y-100599180D01*
X164927618Y-100599180D02*
X164851428Y-100675371D01*
X164851428Y-100675371D02*
X164775237Y-100713466D01*
X165537142Y-100561085D02*
X165575238Y-100522990D01*
X165575238Y-100522990D02*
X165651428Y-100484895D01*
X165651428Y-100484895D02*
X165841904Y-100484895D01*
X165841904Y-100484895D02*
X165918095Y-100522990D01*
X165918095Y-100522990D02*
X165956190Y-100561085D01*
X165956190Y-100561085D02*
X165994285Y-100637276D01*
X165994285Y-100637276D02*
X165994285Y-100713466D01*
X165994285Y-100713466D02*
X165956190Y-100827752D01*
X165956190Y-100827752D02*
X165499047Y-101284895D01*
X165499047Y-101284895D02*
X165994285Y-101284895D01*
X166337143Y-100865847D02*
X166603809Y-100865847D01*
X166718095Y-101284895D02*
X166337143Y-101284895D01*
X166337143Y-101284895D02*
X166337143Y-100484895D01*
X166337143Y-100484895D02*
X166718095Y-100484895D01*
X167060953Y-101284895D02*
X167060953Y-100484895D01*
X167060953Y-100865847D02*
X167518096Y-100865847D01*
X167518096Y-101284895D02*
X167518096Y-100484895D01*
D11*
X164018095Y-96870920D02*
X164018095Y-97680443D01*
X164018095Y-97680443D02*
X164065714Y-97775681D01*
X164065714Y-97775681D02*
X164113333Y-97823301D01*
X164113333Y-97823301D02*
X164208571Y-97870920D01*
X164208571Y-97870920D02*
X164399047Y-97870920D01*
X164399047Y-97870920D02*
X164494285Y-97823301D01*
X164494285Y-97823301D02*
X164541904Y-97775681D01*
X164541904Y-97775681D02*
X164589523Y-97680443D01*
X164589523Y-97680443D02*
X164589523Y-96870920D01*
X165589523Y-97870920D02*
X165018095Y-97870920D01*
X165303809Y-97870920D02*
X165303809Y-96870920D01*
X165303809Y-96870920D02*
X165208571Y-97013777D01*
X165208571Y-97013777D02*
X165113333Y-97109015D01*
X165113333Y-97109015D02*
X165018095Y-97156634D01*
D10*
X134593809Y-101236323D02*
X134974762Y-101236323D01*
X134517619Y-101464895D02*
X134784286Y-100664895D01*
X134784286Y-100664895D02*
X135050952Y-101464895D01*
X135470000Y-100664895D02*
X135622381Y-100664895D01*
X135622381Y-100664895D02*
X135698571Y-100702990D01*
X135698571Y-100702990D02*
X135774762Y-100779180D01*
X135774762Y-100779180D02*
X135812857Y-100931561D01*
X135812857Y-100931561D02*
X135812857Y-101198228D01*
X135812857Y-101198228D02*
X135774762Y-101350609D01*
X135774762Y-101350609D02*
X135698571Y-101426800D01*
X135698571Y-101426800D02*
X135622381Y-101464895D01*
X135622381Y-101464895D02*
X135470000Y-101464895D01*
X135470000Y-101464895D02*
X135393809Y-101426800D01*
X135393809Y-101426800D02*
X135317619Y-101350609D01*
X135317619Y-101350609D02*
X135279523Y-101198228D01*
X135279523Y-101198228D02*
X135279523Y-100931561D01*
X135279523Y-100931561D02*
X135317619Y-100779180D01*
X135317619Y-100779180D02*
X135393809Y-100702990D01*
X135393809Y-100702990D02*
X135470000Y-100664895D01*
X136079523Y-100664895D02*
X136574761Y-100664895D01*
X136574761Y-100664895D02*
X136308095Y-100969657D01*
X136308095Y-100969657D02*
X136422380Y-100969657D01*
X136422380Y-100969657D02*
X136498571Y-101007752D01*
X136498571Y-101007752D02*
X136536666Y-101045847D01*
X136536666Y-101045847D02*
X136574761Y-101122038D01*
X136574761Y-101122038D02*
X136574761Y-101312514D01*
X136574761Y-101312514D02*
X136536666Y-101388704D01*
X136536666Y-101388704D02*
X136498571Y-101426800D01*
X136498571Y-101426800D02*
X136422380Y-101464895D01*
X136422380Y-101464895D02*
X136193809Y-101464895D01*
X136193809Y-101464895D02*
X136117618Y-101426800D01*
X136117618Y-101426800D02*
X136079523Y-101388704D01*
X137260476Y-100931561D02*
X137260476Y-101464895D01*
X137070000Y-100626800D02*
X136879523Y-101198228D01*
X136879523Y-101198228D02*
X137374762Y-101198228D01*
X137831905Y-100664895D02*
X137908095Y-100664895D01*
X137908095Y-100664895D02*
X137984286Y-100702990D01*
X137984286Y-100702990D02*
X138022381Y-100741085D01*
X138022381Y-100741085D02*
X138060476Y-100817276D01*
X138060476Y-100817276D02*
X138098571Y-100969657D01*
X138098571Y-100969657D02*
X138098571Y-101160133D01*
X138098571Y-101160133D02*
X138060476Y-101312514D01*
X138060476Y-101312514D02*
X138022381Y-101388704D01*
X138022381Y-101388704D02*
X137984286Y-101426800D01*
X137984286Y-101426800D02*
X137908095Y-101464895D01*
X137908095Y-101464895D02*
X137831905Y-101464895D01*
X137831905Y-101464895D02*
X137755714Y-101426800D01*
X137755714Y-101426800D02*
X137717619Y-101388704D01*
X137717619Y-101388704D02*
X137679524Y-101312514D01*
X137679524Y-101312514D02*
X137641428Y-101160133D01*
X137641428Y-101160133D02*
X137641428Y-100969657D01*
X137641428Y-100969657D02*
X137679524Y-100817276D01*
X137679524Y-100817276D02*
X137717619Y-100741085D01*
X137717619Y-100741085D02*
X137755714Y-100702990D01*
X137755714Y-100702990D02*
X137831905Y-100664895D01*
X138860476Y-101464895D02*
X138403333Y-101464895D01*
X138631905Y-101464895D02*
X138631905Y-100664895D01*
X138631905Y-100664895D02*
X138555714Y-100779180D01*
X138555714Y-100779180D02*
X138479524Y-100855371D01*
X138479524Y-100855371D02*
X138403333Y-100893466D01*
X139165238Y-101236323D02*
X139546191Y-101236323D01*
X139089048Y-101464895D02*
X139355715Y-100664895D01*
X139355715Y-100664895D02*
X139622381Y-101464895D01*
D13*
X136634761Y-96471357D02*
X136539523Y-96423738D01*
X136539523Y-96423738D02*
X136444285Y-96328500D01*
X136444285Y-96328500D02*
X136301428Y-96185642D01*
X136301428Y-96185642D02*
X136206190Y-96138023D01*
X136206190Y-96138023D02*
X136110952Y-96138023D01*
X136158571Y-96376119D02*
X136063333Y-96328500D01*
X136063333Y-96328500D02*
X135968095Y-96233261D01*
X135968095Y-96233261D02*
X135920476Y-96042785D01*
X135920476Y-96042785D02*
X135920476Y-95709452D01*
X135920476Y-95709452D02*
X135968095Y-95518976D01*
X135968095Y-95518976D02*
X136063333Y-95423738D01*
X136063333Y-95423738D02*
X136158571Y-95376119D01*
X136158571Y-95376119D02*
X136349047Y-95376119D01*
X136349047Y-95376119D02*
X136444285Y-95423738D01*
X136444285Y-95423738D02*
X136539523Y-95518976D01*
X136539523Y-95518976D02*
X136587142Y-95709452D01*
X136587142Y-95709452D02*
X136587142Y-96042785D01*
X136587142Y-96042785D02*
X136539523Y-96233261D01*
X136539523Y-96233261D02*
X136444285Y-96328500D01*
X136444285Y-96328500D02*
X136349047Y-96376119D01*
X136349047Y-96376119D02*
X136158571Y-96376119D01*
X137539523Y-96376119D02*
X136968095Y-96376119D01*
X137253809Y-96376119D02*
X137253809Y-95376119D01*
X137253809Y-95376119D02*
X137158571Y-95518976D01*
X137158571Y-95518976D02*
X137063333Y-95614214D01*
X137063333Y-95614214D02*
X136968095Y-95661833D01*
D14*
X168925950Y-111426666D02*
X168959283Y-111326666D01*
X168959283Y-111326666D02*
X168959283Y-111160000D01*
X168959283Y-111160000D02*
X168925950Y-111093333D01*
X168925950Y-111093333D02*
X168892616Y-111060000D01*
X168892616Y-111060000D02*
X168825950Y-111026666D01*
X168825950Y-111026666D02*
X168759283Y-111026666D01*
X168759283Y-111026666D02*
X168692616Y-111060000D01*
X168692616Y-111060000D02*
X168659283Y-111093333D01*
X168659283Y-111093333D02*
X168625950Y-111160000D01*
X168625950Y-111160000D02*
X168592616Y-111293333D01*
X168592616Y-111293333D02*
X168559283Y-111360000D01*
X168559283Y-111360000D02*
X168525950Y-111393333D01*
X168525950Y-111393333D02*
X168459283Y-111426666D01*
X168459283Y-111426666D02*
X168392616Y-111426666D01*
X168392616Y-111426666D02*
X168325950Y-111393333D01*
X168325950Y-111393333D02*
X168292616Y-111360000D01*
X168292616Y-111360000D02*
X168259283Y-111293333D01*
X168259283Y-111293333D02*
X168259283Y-111126666D01*
X168259283Y-111126666D02*
X168292616Y-111026666D01*
X168959283Y-110726666D02*
X168259283Y-110726666D01*
X168259283Y-110726666D02*
X168759283Y-110493333D01*
X168759283Y-110493333D02*
X168259283Y-110259999D01*
X168259283Y-110259999D02*
X168959283Y-110259999D01*
X168592616Y-109693333D02*
X168592616Y-109926666D01*
X168959283Y-109926666D02*
X168259283Y-109926666D01*
X168259283Y-109926666D02*
X168259283Y-109593333D01*
X168959283Y-108959999D02*
X168959283Y-109359999D01*
X168959283Y-109159999D02*
X168259283Y-109159999D01*
X168259283Y-109159999D02*
X168359283Y-109226666D01*
X168359283Y-109226666D02*
X168425950Y-109293333D01*
X168425950Y-109293333D02*
X168459283Y-109359999D01*
X168325950Y-108693332D02*
X168292616Y-108659999D01*
X168292616Y-108659999D02*
X168259283Y-108593332D01*
X168259283Y-108593332D02*
X168259283Y-108426666D01*
X168259283Y-108426666D02*
X168292616Y-108359999D01*
X168292616Y-108359999D02*
X168325950Y-108326666D01*
X168325950Y-108326666D02*
X168392616Y-108293332D01*
X168392616Y-108293332D02*
X168459283Y-108293332D01*
X168459283Y-108293332D02*
X168559283Y-108326666D01*
X168559283Y-108326666D02*
X168959283Y-108726666D01*
X168959283Y-108726666D02*
X168959283Y-108293332D01*
X168892616Y-107593332D02*
X168925950Y-107626665D01*
X168925950Y-107626665D02*
X168959283Y-107726665D01*
X168959283Y-107726665D02*
X168959283Y-107793332D01*
X168959283Y-107793332D02*
X168925950Y-107893332D01*
X168925950Y-107893332D02*
X168859283Y-107959999D01*
X168859283Y-107959999D02*
X168792616Y-107993332D01*
X168792616Y-107993332D02*
X168659283Y-108026665D01*
X168659283Y-108026665D02*
X168559283Y-108026665D01*
X168559283Y-108026665D02*
X168425950Y-107993332D01*
X168425950Y-107993332D02*
X168359283Y-107959999D01*
X168359283Y-107959999D02*
X168292616Y-107893332D01*
X168292616Y-107893332D02*
X168259283Y-107793332D01*
X168259283Y-107793332D02*
X168259283Y-107726665D01*
X168259283Y-107726665D02*
X168292616Y-107626665D01*
X168292616Y-107626665D02*
X168325950Y-107593332D01*
X168759283Y-107326665D02*
X168759283Y-106993332D01*
X168959283Y-107393332D02*
X168259283Y-107159999D01*
X168259283Y-107159999D02*
X168959283Y-106926665D01*
D11*
X165339819Y-110096195D02*
X164339819Y-110096195D01*
X164339819Y-110096195D02*
X164339819Y-109858100D01*
X164339819Y-109858100D02*
X164387438Y-109715243D01*
X164387438Y-109715243D02*
X164482676Y-109620005D01*
X164482676Y-109620005D02*
X164577914Y-109572386D01*
X164577914Y-109572386D02*
X164768390Y-109524767D01*
X164768390Y-109524767D02*
X164911247Y-109524767D01*
X164911247Y-109524767D02*
X165101723Y-109572386D01*
X165101723Y-109572386D02*
X165196961Y-109620005D01*
X165196961Y-109620005D02*
X165292200Y-109715243D01*
X165292200Y-109715243D02*
X165339819Y-109858100D01*
X165339819Y-109858100D02*
X165339819Y-110096195D01*
X164339819Y-109191433D02*
X164339819Y-108572386D01*
X164339819Y-108572386D02*
X164720771Y-108905719D01*
X164720771Y-108905719D02*
X164720771Y-108762862D01*
X164720771Y-108762862D02*
X164768390Y-108667624D01*
X164768390Y-108667624D02*
X164816009Y-108620005D01*
X164816009Y-108620005D02*
X164911247Y-108572386D01*
X164911247Y-108572386D02*
X165149342Y-108572386D01*
X165149342Y-108572386D02*
X165244580Y-108620005D01*
X165244580Y-108620005D02*
X165292200Y-108667624D01*
X165292200Y-108667624D02*
X165339819Y-108762862D01*
X165339819Y-108762862D02*
X165339819Y-109048576D01*
X165339819Y-109048576D02*
X165292200Y-109143814D01*
X165292200Y-109143814D02*
X165244580Y-109191433D01*
X153436666Y-89005920D02*
X153246190Y-89005920D01*
X153246190Y-89005920D02*
X153150952Y-89053539D01*
X153150952Y-89053539D02*
X153103333Y-89101158D01*
X153103333Y-89101158D02*
X153008095Y-89244015D01*
X153008095Y-89244015D02*
X152960476Y-89434491D01*
X152960476Y-89434491D02*
X152960476Y-89815443D01*
X152960476Y-89815443D02*
X153008095Y-89910681D01*
X153008095Y-89910681D02*
X153055714Y-89958301D01*
X153055714Y-89958301D02*
X153150952Y-90005920D01*
X153150952Y-90005920D02*
X153341428Y-90005920D01*
X153341428Y-90005920D02*
X153436666Y-89958301D01*
X153436666Y-89958301D02*
X153484285Y-89910681D01*
X153484285Y-89910681D02*
X153531904Y-89815443D01*
X153531904Y-89815443D02*
X153531904Y-89577348D01*
X153531904Y-89577348D02*
X153484285Y-89482110D01*
X153484285Y-89482110D02*
X153436666Y-89434491D01*
X153436666Y-89434491D02*
X153341428Y-89386872D01*
X153341428Y-89386872D02*
X153150952Y-89386872D01*
X153150952Y-89386872D02*
X153055714Y-89434491D01*
X153055714Y-89434491D02*
X153008095Y-89482110D01*
X153008095Y-89482110D02*
X152960476Y-89577348D01*
X154103333Y-89434491D02*
X154008095Y-89386872D01*
X154008095Y-89386872D02*
X153960476Y-89339253D01*
X153960476Y-89339253D02*
X153912857Y-89244015D01*
X153912857Y-89244015D02*
X153912857Y-89196396D01*
X153912857Y-89196396D02*
X153960476Y-89101158D01*
X153960476Y-89101158D02*
X154008095Y-89053539D01*
X154008095Y-89053539D02*
X154103333Y-89005920D01*
X154103333Y-89005920D02*
X154293809Y-89005920D01*
X154293809Y-89005920D02*
X154389047Y-89053539D01*
X154389047Y-89053539D02*
X154436666Y-89101158D01*
X154436666Y-89101158D02*
X154484285Y-89196396D01*
X154484285Y-89196396D02*
X154484285Y-89244015D01*
X154484285Y-89244015D02*
X154436666Y-89339253D01*
X154436666Y-89339253D02*
X154389047Y-89386872D01*
X154389047Y-89386872D02*
X154293809Y-89434491D01*
X154293809Y-89434491D02*
X154103333Y-89434491D01*
X154103333Y-89434491D02*
X154008095Y-89482110D01*
X154008095Y-89482110D02*
X153960476Y-89529729D01*
X153960476Y-89529729D02*
X153912857Y-89624967D01*
X153912857Y-89624967D02*
X153912857Y-89815443D01*
X153912857Y-89815443D02*
X153960476Y-89910681D01*
X153960476Y-89910681D02*
X154008095Y-89958301D01*
X154008095Y-89958301D02*
X154103333Y-90005920D01*
X154103333Y-90005920D02*
X154293809Y-90005920D01*
X154293809Y-90005920D02*
X154389047Y-89958301D01*
X154389047Y-89958301D02*
X154436666Y-89910681D01*
X154436666Y-89910681D02*
X154484285Y-89815443D01*
X154484285Y-89815443D02*
X154484285Y-89624967D01*
X154484285Y-89624967D02*
X154436666Y-89529729D01*
X154436666Y-89529729D02*
X154389047Y-89482110D01*
X154389047Y-89482110D02*
X154293809Y-89434491D01*
X155103333Y-89005920D02*
X155198571Y-89005920D01*
X155198571Y-89005920D02*
X155293809Y-89053539D01*
X155293809Y-89053539D02*
X155341428Y-89101158D01*
X155341428Y-89101158D02*
X155389047Y-89196396D01*
X155389047Y-89196396D02*
X155436666Y-89386872D01*
X155436666Y-89386872D02*
X155436666Y-89624967D01*
X155436666Y-89624967D02*
X155389047Y-89815443D01*
X155389047Y-89815443D02*
X155341428Y-89910681D01*
X155341428Y-89910681D02*
X155293809Y-89958301D01*
X155293809Y-89958301D02*
X155198571Y-90005920D01*
X155198571Y-90005920D02*
X155103333Y-90005920D01*
X155103333Y-90005920D02*
X155008095Y-89958301D01*
X155008095Y-89958301D02*
X154960476Y-89910681D01*
X154960476Y-89910681D02*
X154912857Y-89815443D01*
X154912857Y-89815443D02*
X154865238Y-89624967D01*
X154865238Y-89624967D02*
X154865238Y-89386872D01*
X154865238Y-89386872D02*
X154912857Y-89196396D01*
X154912857Y-89196396D02*
X154960476Y-89101158D01*
X154960476Y-89101158D02*
X155008095Y-89053539D01*
X155008095Y-89053539D02*
X155103333Y-89005920D01*
X155817619Y-90005920D02*
X156055714Y-90005920D01*
X156055714Y-90005920D02*
X156055714Y-89815443D01*
X156055714Y-89815443D02*
X155960476Y-89767824D01*
X155960476Y-89767824D02*
X155865238Y-89672586D01*
X155865238Y-89672586D02*
X155817619Y-89529729D01*
X155817619Y-89529729D02*
X155817619Y-89291634D01*
X155817619Y-89291634D02*
X155865238Y-89148777D01*
X155865238Y-89148777D02*
X155960476Y-89053539D01*
X155960476Y-89053539D02*
X156103333Y-89005920D01*
X156103333Y-89005920D02*
X156293809Y-89005920D01*
X156293809Y-89005920D02*
X156436666Y-89053539D01*
X156436666Y-89053539D02*
X156531904Y-89148777D01*
X156531904Y-89148777D02*
X156579523Y-89291634D01*
X156579523Y-89291634D02*
X156579523Y-89529729D01*
X156579523Y-89529729D02*
X156531904Y-89672586D01*
X156531904Y-89672586D02*
X156436666Y-89767824D01*
X156436666Y-89767824D02*
X156341428Y-89815443D01*
X156341428Y-89815443D02*
X156341428Y-90005920D01*
X156341428Y-90005920D02*
X156579523Y-90005920D01*
X154603333Y-87634819D02*
X154270000Y-87158628D01*
X154031905Y-87634819D02*
X154031905Y-86634819D01*
X154031905Y-86634819D02*
X154412857Y-86634819D01*
X154412857Y-86634819D02*
X154508095Y-86682438D01*
X154508095Y-86682438D02*
X154555714Y-86730057D01*
X154555714Y-86730057D02*
X154603333Y-86825295D01*
X154603333Y-86825295D02*
X154603333Y-86968152D01*
X154603333Y-86968152D02*
X154555714Y-87063390D01*
X154555714Y-87063390D02*
X154508095Y-87111009D01*
X154508095Y-87111009D02*
X154412857Y-87158628D01*
X154412857Y-87158628D02*
X154031905Y-87158628D01*
X154984286Y-86730057D02*
X155031905Y-86682438D01*
X155031905Y-86682438D02*
X155127143Y-86634819D01*
X155127143Y-86634819D02*
X155365238Y-86634819D01*
X155365238Y-86634819D02*
X155460476Y-86682438D01*
X155460476Y-86682438D02*
X155508095Y-86730057D01*
X155508095Y-86730057D02*
X155555714Y-86825295D01*
X155555714Y-86825295D02*
X155555714Y-86920533D01*
X155555714Y-86920533D02*
X155508095Y-87063390D01*
X155508095Y-87063390D02*
X154936667Y-87634819D01*
X154936667Y-87634819D02*
X155555714Y-87634819D01*
D10*
X125825713Y-91785847D02*
X125939999Y-91823942D01*
X125939999Y-91823942D02*
X125978094Y-91862038D01*
X125978094Y-91862038D02*
X126016190Y-91938228D01*
X126016190Y-91938228D02*
X126016190Y-92052514D01*
X126016190Y-92052514D02*
X125978094Y-92128704D01*
X125978094Y-92128704D02*
X125939999Y-92166800D01*
X125939999Y-92166800D02*
X125863809Y-92204895D01*
X125863809Y-92204895D02*
X125559047Y-92204895D01*
X125559047Y-92204895D02*
X125559047Y-91404895D01*
X125559047Y-91404895D02*
X125825713Y-91404895D01*
X125825713Y-91404895D02*
X125901904Y-91442990D01*
X125901904Y-91442990D02*
X125939999Y-91481085D01*
X125939999Y-91481085D02*
X125978094Y-91557276D01*
X125978094Y-91557276D02*
X125978094Y-91633466D01*
X125978094Y-91633466D02*
X125939999Y-91709657D01*
X125939999Y-91709657D02*
X125901904Y-91747752D01*
X125901904Y-91747752D02*
X125825713Y-91785847D01*
X125825713Y-91785847D02*
X125559047Y-91785847D01*
X126701904Y-92204895D02*
X126701904Y-91785847D01*
X126701904Y-91785847D02*
X126663809Y-91709657D01*
X126663809Y-91709657D02*
X126587618Y-91671561D01*
X126587618Y-91671561D02*
X126435237Y-91671561D01*
X126435237Y-91671561D02*
X126359047Y-91709657D01*
X126701904Y-92166800D02*
X126625713Y-92204895D01*
X126625713Y-92204895D02*
X126435237Y-92204895D01*
X126435237Y-92204895D02*
X126359047Y-92166800D01*
X126359047Y-92166800D02*
X126320951Y-92090609D01*
X126320951Y-92090609D02*
X126320951Y-92014419D01*
X126320951Y-92014419D02*
X126359047Y-91938228D01*
X126359047Y-91938228D02*
X126435237Y-91900133D01*
X126435237Y-91900133D02*
X126625713Y-91900133D01*
X126625713Y-91900133D02*
X126701904Y-91862038D01*
X126968571Y-91671561D02*
X127273333Y-91671561D01*
X127082857Y-91404895D02*
X127082857Y-92090609D01*
X127082857Y-92090609D02*
X127120952Y-92166800D01*
X127120952Y-92166800D02*
X127197142Y-92204895D01*
X127197142Y-92204895D02*
X127273333Y-92204895D01*
X127425714Y-91671561D02*
X127730476Y-91671561D01*
X127540000Y-91404895D02*
X127540000Y-92090609D01*
X127540000Y-92090609D02*
X127578095Y-92166800D01*
X127578095Y-92166800D02*
X127654285Y-92204895D01*
X127654285Y-92204895D02*
X127730476Y-92204895D01*
X128301905Y-92166800D02*
X128225714Y-92204895D01*
X128225714Y-92204895D02*
X128073333Y-92204895D01*
X128073333Y-92204895D02*
X127997143Y-92166800D01*
X127997143Y-92166800D02*
X127959047Y-92090609D01*
X127959047Y-92090609D02*
X127959047Y-91785847D01*
X127959047Y-91785847D02*
X127997143Y-91709657D01*
X127997143Y-91709657D02*
X128073333Y-91671561D01*
X128073333Y-91671561D02*
X128225714Y-91671561D01*
X128225714Y-91671561D02*
X128301905Y-91709657D01*
X128301905Y-91709657D02*
X128340000Y-91785847D01*
X128340000Y-91785847D02*
X128340000Y-91862038D01*
X128340000Y-91862038D02*
X127959047Y-91938228D01*
X128682857Y-92204895D02*
X128682857Y-91671561D01*
X128682857Y-91823942D02*
X128720952Y-91747752D01*
X128720952Y-91747752D02*
X128759047Y-91709657D01*
X128759047Y-91709657D02*
X128835238Y-91671561D01*
X128835238Y-91671561D02*
X128911428Y-91671561D01*
X129101904Y-91671561D02*
X129292380Y-92204895D01*
X129482857Y-91671561D02*
X129292380Y-92204895D01*
X129292380Y-92204895D02*
X129216190Y-92395371D01*
X129216190Y-92395371D02*
X129178095Y-92433466D01*
X129178095Y-92433466D02*
X129101904Y-92471561D01*
X130282857Y-91404895D02*
X130740000Y-91404895D01*
X130511428Y-92204895D02*
X130511428Y-91404895D01*
X131311429Y-92166800D02*
X131235238Y-92204895D01*
X131235238Y-92204895D02*
X131082857Y-92204895D01*
X131082857Y-92204895D02*
X131006667Y-92166800D01*
X131006667Y-92166800D02*
X130968571Y-92090609D01*
X130968571Y-92090609D02*
X130968571Y-91785847D01*
X130968571Y-91785847D02*
X131006667Y-91709657D01*
X131006667Y-91709657D02*
X131082857Y-91671561D01*
X131082857Y-91671561D02*
X131235238Y-91671561D01*
X131235238Y-91671561D02*
X131311429Y-91709657D01*
X131311429Y-91709657D02*
X131349524Y-91785847D01*
X131349524Y-91785847D02*
X131349524Y-91862038D01*
X131349524Y-91862038D02*
X130968571Y-91938228D01*
X131692381Y-92204895D02*
X131692381Y-91671561D01*
X131692381Y-91823942D02*
X131730476Y-91747752D01*
X131730476Y-91747752D02*
X131768571Y-91709657D01*
X131768571Y-91709657D02*
X131844762Y-91671561D01*
X131844762Y-91671561D02*
X131920952Y-91671561D01*
X132187619Y-92204895D02*
X132187619Y-91671561D01*
X132187619Y-91747752D02*
X132225714Y-91709657D01*
X132225714Y-91709657D02*
X132301904Y-91671561D01*
X132301904Y-91671561D02*
X132416190Y-91671561D01*
X132416190Y-91671561D02*
X132492381Y-91709657D01*
X132492381Y-91709657D02*
X132530476Y-91785847D01*
X132530476Y-91785847D02*
X132530476Y-92204895D01*
X132530476Y-91785847D02*
X132568571Y-91709657D01*
X132568571Y-91709657D02*
X132644762Y-91671561D01*
X132644762Y-91671561D02*
X132759047Y-91671561D01*
X132759047Y-91671561D02*
X132835238Y-91709657D01*
X132835238Y-91709657D02*
X132873333Y-91785847D01*
X132873333Y-91785847D02*
X132873333Y-92204895D01*
X133254286Y-92204895D02*
X133254286Y-91671561D01*
X133254286Y-91404895D02*
X133216190Y-91442990D01*
X133216190Y-91442990D02*
X133254286Y-91481085D01*
X133254286Y-91481085D02*
X133292381Y-91442990D01*
X133292381Y-91442990D02*
X133254286Y-91404895D01*
X133254286Y-91404895D02*
X133254286Y-91481085D01*
X133635238Y-91671561D02*
X133635238Y-92204895D01*
X133635238Y-91747752D02*
X133673333Y-91709657D01*
X133673333Y-91709657D02*
X133749523Y-91671561D01*
X133749523Y-91671561D02*
X133863809Y-91671561D01*
X133863809Y-91671561D02*
X133940000Y-91709657D01*
X133940000Y-91709657D02*
X133978095Y-91785847D01*
X133978095Y-91785847D02*
X133978095Y-92204895D01*
X134701905Y-92204895D02*
X134701905Y-91785847D01*
X134701905Y-91785847D02*
X134663810Y-91709657D01*
X134663810Y-91709657D02*
X134587619Y-91671561D01*
X134587619Y-91671561D02*
X134435238Y-91671561D01*
X134435238Y-91671561D02*
X134359048Y-91709657D01*
X134701905Y-92166800D02*
X134625714Y-92204895D01*
X134625714Y-92204895D02*
X134435238Y-92204895D01*
X134435238Y-92204895D02*
X134359048Y-92166800D01*
X134359048Y-92166800D02*
X134320952Y-92090609D01*
X134320952Y-92090609D02*
X134320952Y-92014419D01*
X134320952Y-92014419D02*
X134359048Y-91938228D01*
X134359048Y-91938228D02*
X134435238Y-91900133D01*
X134435238Y-91900133D02*
X134625714Y-91900133D01*
X134625714Y-91900133D02*
X134701905Y-91862038D01*
X135197143Y-92204895D02*
X135120953Y-92166800D01*
X135120953Y-92166800D02*
X135082858Y-92090609D01*
X135082858Y-92090609D02*
X135082858Y-91404895D01*
D11*
X129486666Y-92604819D02*
X129486666Y-93319104D01*
X129486666Y-93319104D02*
X129439047Y-93461961D01*
X129439047Y-93461961D02*
X129343809Y-93557200D01*
X129343809Y-93557200D02*
X129200952Y-93604819D01*
X129200952Y-93604819D02*
X129105714Y-93604819D01*
X130486666Y-93604819D02*
X129915238Y-93604819D01*
X130200952Y-93604819D02*
X130200952Y-92604819D01*
X130200952Y-92604819D02*
X130105714Y-92747676D01*
X130105714Y-92747676D02*
X130010476Y-92842914D01*
X130010476Y-92842914D02*
X129915238Y-92890533D01*
D10*
X128812381Y-104328704D02*
X128774285Y-104366800D01*
X128774285Y-104366800D02*
X128660000Y-104404895D01*
X128660000Y-104404895D02*
X128583809Y-104404895D01*
X128583809Y-104404895D02*
X128469523Y-104366800D01*
X128469523Y-104366800D02*
X128393333Y-104290609D01*
X128393333Y-104290609D02*
X128355238Y-104214419D01*
X128355238Y-104214419D02*
X128317142Y-104062038D01*
X128317142Y-104062038D02*
X128317142Y-103947752D01*
X128317142Y-103947752D02*
X128355238Y-103795371D01*
X128355238Y-103795371D02*
X128393333Y-103719180D01*
X128393333Y-103719180D02*
X128469523Y-103642990D01*
X128469523Y-103642990D02*
X128583809Y-103604895D01*
X128583809Y-103604895D02*
X128660000Y-103604895D01*
X128660000Y-103604895D02*
X128774285Y-103642990D01*
X128774285Y-103642990D02*
X128812381Y-103681085D01*
X129498095Y-103871561D02*
X129498095Y-104404895D01*
X129155238Y-103871561D02*
X129155238Y-104290609D01*
X129155238Y-104290609D02*
X129193333Y-104366800D01*
X129193333Y-104366800D02*
X129269523Y-104404895D01*
X129269523Y-104404895D02*
X129383809Y-104404895D01*
X129383809Y-104404895D02*
X129460000Y-104366800D01*
X129460000Y-104366800D02*
X129498095Y-104328704D01*
X129879048Y-104404895D02*
X129879048Y-103871561D01*
X129879048Y-104023942D02*
X129917143Y-103947752D01*
X129917143Y-103947752D02*
X129955238Y-103909657D01*
X129955238Y-103909657D02*
X130031429Y-103871561D01*
X130031429Y-103871561D02*
X130107619Y-103871561D01*
X130374286Y-104404895D02*
X130374286Y-103871561D01*
X130374286Y-104023942D02*
X130412381Y-103947752D01*
X130412381Y-103947752D02*
X130450476Y-103909657D01*
X130450476Y-103909657D02*
X130526667Y-103871561D01*
X130526667Y-103871561D02*
X130602857Y-103871561D01*
X131174286Y-104366800D02*
X131098095Y-104404895D01*
X131098095Y-104404895D02*
X130945714Y-104404895D01*
X130945714Y-104404895D02*
X130869524Y-104366800D01*
X130869524Y-104366800D02*
X130831428Y-104290609D01*
X130831428Y-104290609D02*
X130831428Y-103985847D01*
X130831428Y-103985847D02*
X130869524Y-103909657D01*
X130869524Y-103909657D02*
X130945714Y-103871561D01*
X130945714Y-103871561D02*
X131098095Y-103871561D01*
X131098095Y-103871561D02*
X131174286Y-103909657D01*
X131174286Y-103909657D02*
X131212381Y-103985847D01*
X131212381Y-103985847D02*
X131212381Y-104062038D01*
X131212381Y-104062038D02*
X130831428Y-104138228D01*
X131555238Y-103871561D02*
X131555238Y-104404895D01*
X131555238Y-103947752D02*
X131593333Y-103909657D01*
X131593333Y-103909657D02*
X131669523Y-103871561D01*
X131669523Y-103871561D02*
X131783809Y-103871561D01*
X131783809Y-103871561D02*
X131860000Y-103909657D01*
X131860000Y-103909657D02*
X131898095Y-103985847D01*
X131898095Y-103985847D02*
X131898095Y-104404895D01*
X132164762Y-103871561D02*
X132469524Y-103871561D01*
X132279048Y-103604895D02*
X132279048Y-104290609D01*
X132279048Y-104290609D02*
X132317143Y-104366800D01*
X132317143Y-104366800D02*
X132393333Y-104404895D01*
X132393333Y-104404895D02*
X132469524Y-104404895D01*
X133231429Y-103604895D02*
X133688572Y-103604895D01*
X133460000Y-104404895D02*
X133460000Y-103604895D01*
X134260001Y-104366800D02*
X134183810Y-104404895D01*
X134183810Y-104404895D02*
X134031429Y-104404895D01*
X134031429Y-104404895D02*
X133955239Y-104366800D01*
X133955239Y-104366800D02*
X133917143Y-104290609D01*
X133917143Y-104290609D02*
X133917143Y-103985847D01*
X133917143Y-103985847D02*
X133955239Y-103909657D01*
X133955239Y-103909657D02*
X134031429Y-103871561D01*
X134031429Y-103871561D02*
X134183810Y-103871561D01*
X134183810Y-103871561D02*
X134260001Y-103909657D01*
X134260001Y-103909657D02*
X134298096Y-103985847D01*
X134298096Y-103985847D02*
X134298096Y-104062038D01*
X134298096Y-104062038D02*
X133917143Y-104138228D01*
X134602857Y-104366800D02*
X134679048Y-104404895D01*
X134679048Y-104404895D02*
X134831429Y-104404895D01*
X134831429Y-104404895D02*
X134907619Y-104366800D01*
X134907619Y-104366800D02*
X134945715Y-104290609D01*
X134945715Y-104290609D02*
X134945715Y-104252514D01*
X134945715Y-104252514D02*
X134907619Y-104176323D01*
X134907619Y-104176323D02*
X134831429Y-104138228D01*
X134831429Y-104138228D02*
X134717143Y-104138228D01*
X134717143Y-104138228D02*
X134640953Y-104100133D01*
X134640953Y-104100133D02*
X134602857Y-104023942D01*
X134602857Y-104023942D02*
X134602857Y-103985847D01*
X134602857Y-103985847D02*
X134640953Y-103909657D01*
X134640953Y-103909657D02*
X134717143Y-103871561D01*
X134717143Y-103871561D02*
X134831429Y-103871561D01*
X134831429Y-103871561D02*
X134907619Y-103909657D01*
X135174286Y-103871561D02*
X135479048Y-103871561D01*
X135288572Y-103604895D02*
X135288572Y-104290609D01*
X135288572Y-104290609D02*
X135326667Y-104366800D01*
X135326667Y-104366800D02*
X135402857Y-104404895D01*
X135402857Y-104404895D02*
X135479048Y-104404895D01*
D11*
X131056666Y-101734819D02*
X131056666Y-102449104D01*
X131056666Y-102449104D02*
X131009047Y-102591961D01*
X131009047Y-102591961D02*
X130913809Y-102687200D01*
X130913809Y-102687200D02*
X130770952Y-102734819D01*
X130770952Y-102734819D02*
X130675714Y-102734819D01*
X131532857Y-102734819D02*
X131532857Y-101734819D01*
X131532857Y-101734819D02*
X131913809Y-101734819D01*
X131913809Y-101734819D02*
X132009047Y-101782438D01*
X132009047Y-101782438D02*
X132056666Y-101830057D01*
X132056666Y-101830057D02*
X132104285Y-101925295D01*
X132104285Y-101925295D02*
X132104285Y-102068152D01*
X132104285Y-102068152D02*
X132056666Y-102163390D01*
X132056666Y-102163390D02*
X132009047Y-102211009D01*
X132009047Y-102211009D02*
X131913809Y-102258628D01*
X131913809Y-102258628D02*
X131532857Y-102258628D01*
X133056666Y-102734819D02*
X132485238Y-102734819D01*
X132770952Y-102734819D02*
X132770952Y-101734819D01*
X132770952Y-101734819D02*
X132675714Y-101877676D01*
X132675714Y-101877676D02*
X132580476Y-101972914D01*
X132580476Y-101972914D02*
X132485238Y-102020533D01*
D14*
X168925950Y-106086666D02*
X168959283Y-105986666D01*
X168959283Y-105986666D02*
X168959283Y-105820000D01*
X168959283Y-105820000D02*
X168925950Y-105753333D01*
X168925950Y-105753333D02*
X168892616Y-105720000D01*
X168892616Y-105720000D02*
X168825950Y-105686666D01*
X168825950Y-105686666D02*
X168759283Y-105686666D01*
X168759283Y-105686666D02*
X168692616Y-105720000D01*
X168692616Y-105720000D02*
X168659283Y-105753333D01*
X168659283Y-105753333D02*
X168625950Y-105820000D01*
X168625950Y-105820000D02*
X168592616Y-105953333D01*
X168592616Y-105953333D02*
X168559283Y-106020000D01*
X168559283Y-106020000D02*
X168525950Y-106053333D01*
X168525950Y-106053333D02*
X168459283Y-106086666D01*
X168459283Y-106086666D02*
X168392616Y-106086666D01*
X168392616Y-106086666D02*
X168325950Y-106053333D01*
X168325950Y-106053333D02*
X168292616Y-106020000D01*
X168292616Y-106020000D02*
X168259283Y-105953333D01*
X168259283Y-105953333D02*
X168259283Y-105786666D01*
X168259283Y-105786666D02*
X168292616Y-105686666D01*
X168959283Y-105386666D02*
X168259283Y-105386666D01*
X168259283Y-105386666D02*
X168759283Y-105153333D01*
X168759283Y-105153333D02*
X168259283Y-104919999D01*
X168259283Y-104919999D02*
X168959283Y-104919999D01*
X168592616Y-104353333D02*
X168592616Y-104586666D01*
X168959283Y-104586666D02*
X168259283Y-104586666D01*
X168259283Y-104586666D02*
X168259283Y-104253333D01*
X168959283Y-103619999D02*
X168959283Y-104019999D01*
X168959283Y-103819999D02*
X168259283Y-103819999D01*
X168259283Y-103819999D02*
X168359283Y-103886666D01*
X168359283Y-103886666D02*
X168425950Y-103953333D01*
X168425950Y-103953333D02*
X168459283Y-104019999D01*
X168325950Y-103353332D02*
X168292616Y-103319999D01*
X168292616Y-103319999D02*
X168259283Y-103253332D01*
X168259283Y-103253332D02*
X168259283Y-103086666D01*
X168259283Y-103086666D02*
X168292616Y-103019999D01*
X168292616Y-103019999D02*
X168325950Y-102986666D01*
X168325950Y-102986666D02*
X168392616Y-102953332D01*
X168392616Y-102953332D02*
X168459283Y-102953332D01*
X168459283Y-102953332D02*
X168559283Y-102986666D01*
X168559283Y-102986666D02*
X168959283Y-103386666D01*
X168959283Y-103386666D02*
X168959283Y-102953332D01*
X168892616Y-102253332D02*
X168925950Y-102286665D01*
X168925950Y-102286665D02*
X168959283Y-102386665D01*
X168959283Y-102386665D02*
X168959283Y-102453332D01*
X168959283Y-102453332D02*
X168925950Y-102553332D01*
X168925950Y-102553332D02*
X168859283Y-102619999D01*
X168859283Y-102619999D02*
X168792616Y-102653332D01*
X168792616Y-102653332D02*
X168659283Y-102686665D01*
X168659283Y-102686665D02*
X168559283Y-102686665D01*
X168559283Y-102686665D02*
X168425950Y-102653332D01*
X168425950Y-102653332D02*
X168359283Y-102619999D01*
X168359283Y-102619999D02*
X168292616Y-102553332D01*
X168292616Y-102553332D02*
X168259283Y-102453332D01*
X168259283Y-102453332D02*
X168259283Y-102386665D01*
X168259283Y-102386665D02*
X168292616Y-102286665D01*
X168292616Y-102286665D02*
X168325950Y-102253332D01*
X168759283Y-101986665D02*
X168759283Y-101653332D01*
X168959283Y-102053332D02*
X168259283Y-101819999D01*
X168259283Y-101819999D02*
X168959283Y-101586665D01*
D11*
X165339819Y-104759945D02*
X164339819Y-104759945D01*
X164339819Y-104759945D02*
X164339819Y-104521850D01*
X164339819Y-104521850D02*
X164387438Y-104378993D01*
X164387438Y-104378993D02*
X164482676Y-104283755D01*
X164482676Y-104283755D02*
X164577914Y-104236136D01*
X164577914Y-104236136D02*
X164768390Y-104188517D01*
X164768390Y-104188517D02*
X164911247Y-104188517D01*
X164911247Y-104188517D02*
X165101723Y-104236136D01*
X165101723Y-104236136D02*
X165196961Y-104283755D01*
X165196961Y-104283755D02*
X165292200Y-104378993D01*
X165292200Y-104378993D02*
X165339819Y-104521850D01*
X165339819Y-104521850D02*
X165339819Y-104759945D01*
X165339819Y-103236136D02*
X165339819Y-103807564D01*
X165339819Y-103521850D02*
X164339819Y-103521850D01*
X164339819Y-103521850D02*
X164482676Y-103617088D01*
X164482676Y-103617088D02*
X164577914Y-103712326D01*
X164577914Y-103712326D02*
X164625533Y-103807564D01*
X167294819Y-88675238D02*
X167294819Y-89246666D01*
X167294819Y-88960952D02*
X166294819Y-88960952D01*
X166294819Y-88960952D02*
X166437676Y-89056190D01*
X166437676Y-89056190D02*
X166532914Y-89151428D01*
X166532914Y-89151428D02*
X166580533Y-89246666D01*
X166628152Y-88246666D02*
X167294819Y-88246666D01*
X166723390Y-88246666D02*
X166675771Y-88199047D01*
X166675771Y-88199047D02*
X166628152Y-88103809D01*
X166628152Y-88103809D02*
X166628152Y-87960952D01*
X166628152Y-87960952D02*
X166675771Y-87865714D01*
X166675771Y-87865714D02*
X166771009Y-87818095D01*
X166771009Y-87818095D02*
X167294819Y-87818095D01*
X166771009Y-87008571D02*
X166771009Y-87341904D01*
X167294819Y-87341904D02*
X166294819Y-87341904D01*
X166294819Y-87341904D02*
X166294819Y-86865714D01*
D13*
X166623333Y-84230880D02*
X166575714Y-84278500D01*
X166575714Y-84278500D02*
X166432857Y-84326119D01*
X166432857Y-84326119D02*
X166337619Y-84326119D01*
X166337619Y-84326119D02*
X166194762Y-84278500D01*
X166194762Y-84278500D02*
X166099524Y-84183261D01*
X166099524Y-84183261D02*
X166051905Y-84088023D01*
X166051905Y-84088023D02*
X166004286Y-83897547D01*
X166004286Y-83897547D02*
X166004286Y-83754690D01*
X166004286Y-83754690D02*
X166051905Y-83564214D01*
X166051905Y-83564214D02*
X166099524Y-83468976D01*
X166099524Y-83468976D02*
X166194762Y-83373738D01*
X166194762Y-83373738D02*
X166337619Y-83326119D01*
X166337619Y-83326119D02*
X166432857Y-83326119D01*
X166432857Y-83326119D02*
X166575714Y-83373738D01*
X166575714Y-83373738D02*
X166623333Y-83421357D01*
X166956667Y-83326119D02*
X167575714Y-83326119D01*
X167575714Y-83326119D02*
X167242381Y-83707071D01*
X167242381Y-83707071D02*
X167385238Y-83707071D01*
X167385238Y-83707071D02*
X167480476Y-83754690D01*
X167480476Y-83754690D02*
X167528095Y-83802309D01*
X167528095Y-83802309D02*
X167575714Y-83897547D01*
X167575714Y-83897547D02*
X167575714Y-84135642D01*
X167575714Y-84135642D02*
X167528095Y-84230880D01*
X167528095Y-84230880D02*
X167480476Y-84278500D01*
X167480476Y-84278500D02*
X167385238Y-84326119D01*
X167385238Y-84326119D02*
X167099524Y-84326119D01*
X167099524Y-84326119D02*
X167004286Y-84278500D01*
X167004286Y-84278500D02*
X166956667Y-84230880D01*
D11*
X182763630Y-114340387D02*
X182763630Y-113340387D01*
X182763630Y-113816577D02*
X183335058Y-113816577D01*
X183335058Y-114340387D02*
X183335058Y-113340387D01*
X184335058Y-114340387D02*
X183763630Y-114340387D01*
X184049344Y-114340387D02*
X184049344Y-113340387D01*
X184049344Y-113340387D02*
X183954106Y-113483244D01*
X183954106Y-113483244D02*
X183858868Y-113578482D01*
X183858868Y-113578482D02*
X183763630Y-113626101D01*
X182763630Y-81411454D02*
X182763630Y-80411454D01*
X182763630Y-80887644D02*
X183335058Y-80887644D01*
X183335058Y-81411454D02*
X183335058Y-80411454D01*
X183716011Y-80411454D02*
X184335058Y-80411454D01*
X184335058Y-80411454D02*
X184001725Y-80792406D01*
X184001725Y-80792406D02*
X184144582Y-80792406D01*
X184144582Y-80792406D02*
X184239820Y-80840025D01*
X184239820Y-80840025D02*
X184287439Y-80887644D01*
X184287439Y-80887644D02*
X184335058Y-80982882D01*
X184335058Y-80982882D02*
X184335058Y-81220977D01*
X184335058Y-81220977D02*
X184287439Y-81316215D01*
X184287439Y-81316215D02*
X184239820Y-81363835D01*
X184239820Y-81363835D02*
X184144582Y-81411454D01*
X184144582Y-81411454D02*
X183858868Y-81411454D01*
X183858868Y-81411454D02*
X183763630Y-81363835D01*
X183763630Y-81363835D02*
X183716011Y-81316215D01*
X142124819Y-100758243D02*
X142124819Y-101329671D01*
X142124819Y-101043957D02*
X141124819Y-101043957D01*
X141124819Y-101043957D02*
X141267676Y-101139195D01*
X141267676Y-101139195D02*
X141362914Y-101234433D01*
X141362914Y-101234433D02*
X141410533Y-101329671D01*
X142124819Y-100329671D02*
X141124819Y-100329671D01*
X141124819Y-100329671D02*
X141839104Y-99996338D01*
X141839104Y-99996338D02*
X141124819Y-99663005D01*
X141124819Y-99663005D02*
X142124819Y-99663005D01*
X142124819Y-99234433D02*
X142124819Y-98996338D01*
X142124819Y-98996338D02*
X141934342Y-98996338D01*
X141934342Y-98996338D02*
X141886723Y-99091576D01*
X141886723Y-99091576D02*
X141791485Y-99186814D01*
X141791485Y-99186814D02*
X141648628Y-99234433D01*
X141648628Y-99234433D02*
X141410533Y-99234433D01*
X141410533Y-99234433D02*
X141267676Y-99186814D01*
X141267676Y-99186814D02*
X141172438Y-99091576D01*
X141172438Y-99091576D02*
X141124819Y-98948719D01*
X141124819Y-98948719D02*
X141124819Y-98758243D01*
X141124819Y-98758243D02*
X141172438Y-98615386D01*
X141172438Y-98615386D02*
X141267676Y-98520148D01*
X141267676Y-98520148D02*
X141410533Y-98472529D01*
X141410533Y-98472529D02*
X141648628Y-98472529D01*
X141648628Y-98472529D02*
X141791485Y-98520148D01*
X141791485Y-98520148D02*
X141886723Y-98615386D01*
X141886723Y-98615386D02*
X141934342Y-98710624D01*
X141934342Y-98710624D02*
X142124819Y-98710624D01*
X142124819Y-98710624D02*
X142124819Y-98472529D01*
X141593333Y-93144819D02*
X141260000Y-92668628D01*
X141021905Y-93144819D02*
X141021905Y-92144819D01*
X141021905Y-92144819D02*
X141402857Y-92144819D01*
X141402857Y-92144819D02*
X141498095Y-92192438D01*
X141498095Y-92192438D02*
X141545714Y-92240057D01*
X141545714Y-92240057D02*
X141593333Y-92335295D01*
X141593333Y-92335295D02*
X141593333Y-92478152D01*
X141593333Y-92478152D02*
X141545714Y-92573390D01*
X141545714Y-92573390D02*
X141498095Y-92621009D01*
X141498095Y-92621009D02*
X141402857Y-92668628D01*
X141402857Y-92668628D02*
X141021905Y-92668628D01*
X142545714Y-93144819D02*
X141974286Y-93144819D01*
X142260000Y-93144819D02*
X142260000Y-92144819D01*
X142260000Y-92144819D02*
X142164762Y-92287676D01*
X142164762Y-92287676D02*
X142069524Y-92382914D01*
X142069524Y-92382914D02*
X141974286Y-92430533D01*
D10*
X169609047Y-83195996D02*
X169609047Y-82395996D01*
X169609047Y-82395996D02*
X169913809Y-82395996D01*
X169913809Y-82395996D02*
X169989999Y-82434091D01*
X169989999Y-82434091D02*
X170028094Y-82472186D01*
X170028094Y-82472186D02*
X170066190Y-82548377D01*
X170066190Y-82548377D02*
X170066190Y-82662662D01*
X170066190Y-82662662D02*
X170028094Y-82738853D01*
X170028094Y-82738853D02*
X169989999Y-82776948D01*
X169989999Y-82776948D02*
X169913809Y-82815043D01*
X169913809Y-82815043D02*
X169609047Y-82815043D01*
X170409047Y-83195996D02*
X170409047Y-82662662D01*
X170409047Y-82815043D02*
X170447142Y-82738853D01*
X170447142Y-82738853D02*
X170485237Y-82700758D01*
X170485237Y-82700758D02*
X170561428Y-82662662D01*
X170561428Y-82662662D02*
X170637618Y-82662662D01*
X171018570Y-83195996D02*
X170942380Y-83157901D01*
X170942380Y-83157901D02*
X170904285Y-83119805D01*
X170904285Y-83119805D02*
X170866189Y-83043615D01*
X170866189Y-83043615D02*
X170866189Y-82815043D01*
X170866189Y-82815043D02*
X170904285Y-82738853D01*
X170904285Y-82738853D02*
X170942380Y-82700758D01*
X170942380Y-82700758D02*
X171018570Y-82662662D01*
X171018570Y-82662662D02*
X171132856Y-82662662D01*
X171132856Y-82662662D02*
X171209047Y-82700758D01*
X171209047Y-82700758D02*
X171247142Y-82738853D01*
X171247142Y-82738853D02*
X171285237Y-82815043D01*
X171285237Y-82815043D02*
X171285237Y-83043615D01*
X171285237Y-83043615D02*
X171247142Y-83119805D01*
X171247142Y-83119805D02*
X171209047Y-83157901D01*
X171209047Y-83157901D02*
X171132856Y-83195996D01*
X171132856Y-83195996D02*
X171018570Y-83195996D01*
X171628095Y-83195996D02*
X171628095Y-82395996D01*
X171628095Y-82700758D02*
X171704285Y-82662662D01*
X171704285Y-82662662D02*
X171856666Y-82662662D01*
X171856666Y-82662662D02*
X171932857Y-82700758D01*
X171932857Y-82700758D02*
X171970952Y-82738853D01*
X171970952Y-82738853D02*
X172009047Y-82815043D01*
X172009047Y-82815043D02*
X172009047Y-83043615D01*
X172009047Y-83043615D02*
X171970952Y-83119805D01*
X171970952Y-83119805D02*
X171932857Y-83157901D01*
X171932857Y-83157901D02*
X171856666Y-83195996D01*
X171856666Y-83195996D02*
X171704285Y-83195996D01*
X171704285Y-83195996D02*
X171628095Y-83157901D01*
X172656667Y-83157901D02*
X172580476Y-83195996D01*
X172580476Y-83195996D02*
X172428095Y-83195996D01*
X172428095Y-83195996D02*
X172351905Y-83157901D01*
X172351905Y-83157901D02*
X172313809Y-83081710D01*
X172313809Y-83081710D02*
X172313809Y-82776948D01*
X172313809Y-82776948D02*
X172351905Y-82700758D01*
X172351905Y-82700758D02*
X172428095Y-82662662D01*
X172428095Y-82662662D02*
X172580476Y-82662662D01*
X172580476Y-82662662D02*
X172656667Y-82700758D01*
X172656667Y-82700758D02*
X172694762Y-82776948D01*
X172694762Y-82776948D02*
X172694762Y-82853139D01*
X172694762Y-82853139D02*
X172313809Y-82929329D01*
X173532857Y-82395996D02*
X173990000Y-82395996D01*
X173761428Y-83195996D02*
X173761428Y-82395996D01*
X174561429Y-83157901D02*
X174485238Y-83195996D01*
X174485238Y-83195996D02*
X174332857Y-83195996D01*
X174332857Y-83195996D02*
X174256667Y-83157901D01*
X174256667Y-83157901D02*
X174218571Y-83081710D01*
X174218571Y-83081710D02*
X174218571Y-82776948D01*
X174218571Y-82776948D02*
X174256667Y-82700758D01*
X174256667Y-82700758D02*
X174332857Y-82662662D01*
X174332857Y-82662662D02*
X174485238Y-82662662D01*
X174485238Y-82662662D02*
X174561429Y-82700758D01*
X174561429Y-82700758D02*
X174599524Y-82776948D01*
X174599524Y-82776948D02*
X174599524Y-82853139D01*
X174599524Y-82853139D02*
X174218571Y-82929329D01*
X174942381Y-83195996D02*
X174942381Y-82662662D01*
X174942381Y-82815043D02*
X174980476Y-82738853D01*
X174980476Y-82738853D02*
X175018571Y-82700758D01*
X175018571Y-82700758D02*
X175094762Y-82662662D01*
X175094762Y-82662662D02*
X175170952Y-82662662D01*
X175437619Y-83195996D02*
X175437619Y-82662662D01*
X175437619Y-82738853D02*
X175475714Y-82700758D01*
X175475714Y-82700758D02*
X175551904Y-82662662D01*
X175551904Y-82662662D02*
X175666190Y-82662662D01*
X175666190Y-82662662D02*
X175742381Y-82700758D01*
X175742381Y-82700758D02*
X175780476Y-82776948D01*
X175780476Y-82776948D02*
X175780476Y-83195996D01*
X175780476Y-82776948D02*
X175818571Y-82700758D01*
X175818571Y-82700758D02*
X175894762Y-82662662D01*
X175894762Y-82662662D02*
X176009047Y-82662662D01*
X176009047Y-82662662D02*
X176085238Y-82700758D01*
X176085238Y-82700758D02*
X176123333Y-82776948D01*
X176123333Y-82776948D02*
X176123333Y-83195996D01*
X176504286Y-83195996D02*
X176504286Y-82662662D01*
X176504286Y-82395996D02*
X176466190Y-82434091D01*
X176466190Y-82434091D02*
X176504286Y-82472186D01*
X176504286Y-82472186D02*
X176542381Y-82434091D01*
X176542381Y-82434091D02*
X176504286Y-82395996D01*
X176504286Y-82395996D02*
X176504286Y-82472186D01*
X176885238Y-82662662D02*
X176885238Y-83195996D01*
X176885238Y-82738853D02*
X176923333Y-82700758D01*
X176923333Y-82700758D02*
X176999523Y-82662662D01*
X176999523Y-82662662D02*
X177113809Y-82662662D01*
X177113809Y-82662662D02*
X177190000Y-82700758D01*
X177190000Y-82700758D02*
X177228095Y-82776948D01*
X177228095Y-82776948D02*
X177228095Y-83195996D01*
X177951905Y-83195996D02*
X177951905Y-82776948D01*
X177951905Y-82776948D02*
X177913810Y-82700758D01*
X177913810Y-82700758D02*
X177837619Y-82662662D01*
X177837619Y-82662662D02*
X177685238Y-82662662D01*
X177685238Y-82662662D02*
X177609048Y-82700758D01*
X177951905Y-83157901D02*
X177875714Y-83195996D01*
X177875714Y-83195996D02*
X177685238Y-83195996D01*
X177685238Y-83195996D02*
X177609048Y-83157901D01*
X177609048Y-83157901D02*
X177570952Y-83081710D01*
X177570952Y-83081710D02*
X177570952Y-83005520D01*
X177570952Y-83005520D02*
X177609048Y-82929329D01*
X177609048Y-82929329D02*
X177685238Y-82891234D01*
X177685238Y-82891234D02*
X177875714Y-82891234D01*
X177875714Y-82891234D02*
X177951905Y-82853139D01*
X178447143Y-83195996D02*
X178370953Y-83157901D01*
X178370953Y-83157901D02*
X178332858Y-83081710D01*
X178332858Y-83081710D02*
X178332858Y-82395996D01*
D11*
X173086666Y-83594819D02*
X173086666Y-84309104D01*
X173086666Y-84309104D02*
X173039047Y-84451961D01*
X173039047Y-84451961D02*
X172943809Y-84547200D01*
X172943809Y-84547200D02*
X172800952Y-84594819D01*
X172800952Y-84594819D02*
X172705714Y-84594819D01*
X173467619Y-83594819D02*
X174086666Y-83594819D01*
X174086666Y-83594819D02*
X173753333Y-83975771D01*
X173753333Y-83975771D02*
X173896190Y-83975771D01*
X173896190Y-83975771D02*
X173991428Y-84023390D01*
X173991428Y-84023390D02*
X174039047Y-84071009D01*
X174039047Y-84071009D02*
X174086666Y-84166247D01*
X174086666Y-84166247D02*
X174086666Y-84404342D01*
X174086666Y-84404342D02*
X174039047Y-84499580D01*
X174039047Y-84499580D02*
X173991428Y-84547200D01*
X173991428Y-84547200D02*
X173896190Y-84594819D01*
X173896190Y-84594819D02*
X173610476Y-84594819D01*
X173610476Y-84594819D02*
X173515238Y-84547200D01*
X173515238Y-84547200D02*
X173467619Y-84499580D01*
X125693629Y-81411454D02*
X125693629Y-80411454D01*
X125693629Y-80887644D02*
X126265057Y-80887644D01*
X126265057Y-81411454D02*
X126265057Y-80411454D01*
X127169819Y-80744787D02*
X127169819Y-81411454D01*
X126931724Y-80363835D02*
X126693629Y-81078120D01*
X126693629Y-81078120D02*
X127312676Y-81078120D01*
X125693629Y-114340387D02*
X125693629Y-113340387D01*
X125693629Y-113816577D02*
X126265057Y-113816577D01*
X126265057Y-114340387D02*
X126265057Y-113340387D01*
X126693629Y-113435625D02*
X126741248Y-113388006D01*
X126741248Y-113388006D02*
X126836486Y-113340387D01*
X126836486Y-113340387D02*
X127074581Y-113340387D01*
X127074581Y-113340387D02*
X127169819Y-113388006D01*
X127169819Y-113388006D02*
X127217438Y-113435625D01*
X127217438Y-113435625D02*
X127265057Y-113530863D01*
X127265057Y-113530863D02*
X127265057Y-113626101D01*
X127265057Y-113626101D02*
X127217438Y-113768958D01*
X127217438Y-113768958D02*
X126646010Y-114340387D01*
X126646010Y-114340387D02*
X127265057Y-114340387D01*
X153889104Y-99768094D02*
X153889104Y-99291904D01*
X154174819Y-99863332D02*
X153174819Y-99529999D01*
X153174819Y-99529999D02*
X154174819Y-99196666D01*
X154174819Y-98863332D02*
X153174819Y-98863332D01*
X153174819Y-98863332D02*
X153889104Y-98529999D01*
X153889104Y-98529999D02*
X153174819Y-98196666D01*
X153174819Y-98196666D02*
X154174819Y-98196666D01*
X153174819Y-97815713D02*
X153174819Y-97196666D01*
X153174819Y-97196666D02*
X153555771Y-97529999D01*
X153555771Y-97529999D02*
X153555771Y-97387142D01*
X153555771Y-97387142D02*
X153603390Y-97291904D01*
X153603390Y-97291904D02*
X153651009Y-97244285D01*
X153651009Y-97244285D02*
X153746247Y-97196666D01*
X153746247Y-97196666D02*
X153984342Y-97196666D01*
X153984342Y-97196666D02*
X154079580Y-97244285D01*
X154079580Y-97244285D02*
X154127200Y-97291904D01*
X154127200Y-97291904D02*
X154174819Y-97387142D01*
X154174819Y-97387142D02*
X154174819Y-97672856D01*
X154174819Y-97672856D02*
X154127200Y-97768094D01*
X154127200Y-97768094D02*
X154079580Y-97815713D01*
X154174819Y-96244285D02*
X154174819Y-96815713D01*
X154174819Y-96529999D02*
X153174819Y-96529999D01*
X153174819Y-96529999D02*
X153317676Y-96625237D01*
X153317676Y-96625237D02*
X153412914Y-96720475D01*
X153412914Y-96720475D02*
X153460533Y-96815713D01*
X153270057Y-95863332D02*
X153222438Y-95815713D01*
X153222438Y-95815713D02*
X153174819Y-95720475D01*
X153174819Y-95720475D02*
X153174819Y-95482380D01*
X153174819Y-95482380D02*
X153222438Y-95387142D01*
X153222438Y-95387142D02*
X153270057Y-95339523D01*
X153270057Y-95339523D02*
X153365295Y-95291904D01*
X153365295Y-95291904D02*
X153460533Y-95291904D01*
X153460533Y-95291904D02*
X153603390Y-95339523D01*
X153603390Y-95339523D02*
X154174819Y-95910951D01*
X154174819Y-95910951D02*
X154174819Y-95291904D01*
X152928095Y-92947200D02*
X153070952Y-92994819D01*
X153070952Y-92994819D02*
X153309047Y-92994819D01*
X153309047Y-92994819D02*
X153404285Y-92947200D01*
X153404285Y-92947200D02*
X153451904Y-92899580D01*
X153451904Y-92899580D02*
X153499523Y-92804342D01*
X153499523Y-92804342D02*
X153499523Y-92709104D01*
X153499523Y-92709104D02*
X153451904Y-92613866D01*
X153451904Y-92613866D02*
X153404285Y-92566247D01*
X153404285Y-92566247D02*
X153309047Y-92518628D01*
X153309047Y-92518628D02*
X153118571Y-92471009D01*
X153118571Y-92471009D02*
X153023333Y-92423390D01*
X153023333Y-92423390D02*
X152975714Y-92375771D01*
X152975714Y-92375771D02*
X152928095Y-92280533D01*
X152928095Y-92280533D02*
X152928095Y-92185295D01*
X152928095Y-92185295D02*
X152975714Y-92090057D01*
X152975714Y-92090057D02*
X153023333Y-92042438D01*
X153023333Y-92042438D02*
X153118571Y-91994819D01*
X153118571Y-91994819D02*
X153356666Y-91994819D01*
X153356666Y-91994819D02*
X153499523Y-92042438D01*
X154451904Y-92994819D02*
X153880476Y-92994819D01*
X154166190Y-92994819D02*
X154166190Y-91994819D01*
X154166190Y-91994819D02*
X154070952Y-92137676D01*
X154070952Y-92137676D02*
X153975714Y-92232914D01*
X153975714Y-92232914D02*
X153880476Y-92280533D01*
D14*
X175013333Y-94515950D02*
X175113333Y-94549283D01*
X175113333Y-94549283D02*
X175280000Y-94549283D01*
X175280000Y-94549283D02*
X175346666Y-94515950D01*
X175346666Y-94515950D02*
X175380000Y-94482616D01*
X175380000Y-94482616D02*
X175413333Y-94415950D01*
X175413333Y-94415950D02*
X175413333Y-94349283D01*
X175413333Y-94349283D02*
X175380000Y-94282616D01*
X175380000Y-94282616D02*
X175346666Y-94249283D01*
X175346666Y-94249283D02*
X175280000Y-94215950D01*
X175280000Y-94215950D02*
X175146666Y-94182616D01*
X175146666Y-94182616D02*
X175080000Y-94149283D01*
X175080000Y-94149283D02*
X175046666Y-94115950D01*
X175046666Y-94115950D02*
X175013333Y-94049283D01*
X175013333Y-94049283D02*
X175013333Y-93982616D01*
X175013333Y-93982616D02*
X175046666Y-93915950D01*
X175046666Y-93915950D02*
X175080000Y-93882616D01*
X175080000Y-93882616D02*
X175146666Y-93849283D01*
X175146666Y-93849283D02*
X175313333Y-93849283D01*
X175313333Y-93849283D02*
X175413333Y-93882616D01*
X175713333Y-94549283D02*
X175713333Y-93849283D01*
X175713333Y-93849283D02*
X175946667Y-94349283D01*
X175946667Y-94349283D02*
X176180000Y-93849283D01*
X176180000Y-93849283D02*
X176180000Y-94549283D01*
X176746667Y-94182616D02*
X176513333Y-94182616D01*
X176513333Y-94549283D02*
X176513333Y-93849283D01*
X176513333Y-93849283D02*
X176846667Y-93849283D01*
X177480000Y-94549283D02*
X177080000Y-94549283D01*
X177280000Y-94549283D02*
X177280000Y-93849283D01*
X177280000Y-93849283D02*
X177213333Y-93949283D01*
X177213333Y-93949283D02*
X177146667Y-94015950D01*
X177146667Y-94015950D02*
X177080000Y-94049283D01*
X177746667Y-93915950D02*
X177780000Y-93882616D01*
X177780000Y-93882616D02*
X177846667Y-93849283D01*
X177846667Y-93849283D02*
X178013334Y-93849283D01*
X178013334Y-93849283D02*
X178080000Y-93882616D01*
X178080000Y-93882616D02*
X178113334Y-93915950D01*
X178113334Y-93915950D02*
X178146667Y-93982616D01*
X178146667Y-93982616D02*
X178146667Y-94049283D01*
X178146667Y-94049283D02*
X178113334Y-94149283D01*
X178113334Y-94149283D02*
X177713334Y-94549283D01*
X177713334Y-94549283D02*
X178146667Y-94549283D01*
X178846667Y-94482616D02*
X178813334Y-94515950D01*
X178813334Y-94515950D02*
X178713334Y-94549283D01*
X178713334Y-94549283D02*
X178646667Y-94549283D01*
X178646667Y-94549283D02*
X178546667Y-94515950D01*
X178546667Y-94515950D02*
X178480001Y-94449283D01*
X178480001Y-94449283D02*
X178446667Y-94382616D01*
X178446667Y-94382616D02*
X178413334Y-94249283D01*
X178413334Y-94249283D02*
X178413334Y-94149283D01*
X178413334Y-94149283D02*
X178446667Y-94015950D01*
X178446667Y-94015950D02*
X178480001Y-93949283D01*
X178480001Y-93949283D02*
X178546667Y-93882616D01*
X178546667Y-93882616D02*
X178646667Y-93849283D01*
X178646667Y-93849283D02*
X178713334Y-93849283D01*
X178713334Y-93849283D02*
X178813334Y-93882616D01*
X178813334Y-93882616D02*
X178846667Y-93915950D01*
X179113334Y-94349283D02*
X179446667Y-94349283D01*
X179046667Y-94549283D02*
X179280001Y-93849283D01*
X179280001Y-93849283D02*
X179513334Y-94549283D01*
D11*
X171885655Y-92845920D02*
X171885655Y-91845920D01*
X171885655Y-91845920D02*
X172123750Y-91845920D01*
X172123750Y-91845920D02*
X172266607Y-91893539D01*
X172266607Y-91893539D02*
X172361845Y-91988777D01*
X172361845Y-91988777D02*
X172409464Y-92084015D01*
X172409464Y-92084015D02*
X172457083Y-92274491D01*
X172457083Y-92274491D02*
X172457083Y-92417348D01*
X172457083Y-92417348D02*
X172409464Y-92607824D01*
X172409464Y-92607824D02*
X172361845Y-92703062D01*
X172361845Y-92703062D02*
X172266607Y-92798301D01*
X172266607Y-92798301D02*
X172123750Y-92845920D01*
X172123750Y-92845920D02*
X171885655Y-92845920D01*
X172838036Y-91941158D02*
X172885655Y-91893539D01*
X172885655Y-91893539D02*
X172980893Y-91845920D01*
X172980893Y-91845920D02*
X173218988Y-91845920D01*
X173218988Y-91845920D02*
X173314226Y-91893539D01*
X173314226Y-91893539D02*
X173361845Y-91941158D01*
X173361845Y-91941158D02*
X173409464Y-92036396D01*
X173409464Y-92036396D02*
X173409464Y-92131634D01*
X173409464Y-92131634D02*
X173361845Y-92274491D01*
X173361845Y-92274491D02*
X172790417Y-92845920D01*
X172790417Y-92845920D02*
X173409464Y-92845920D01*
X141272857Y-90005920D02*
X140701429Y-90005920D01*
X140987143Y-90005920D02*
X140987143Y-89005920D01*
X140987143Y-89005920D02*
X140891905Y-89148777D01*
X140891905Y-89148777D02*
X140796667Y-89244015D01*
X140796667Y-89244015D02*
X140701429Y-89291634D01*
X141701429Y-90005920D02*
X141701429Y-89005920D01*
X141701429Y-89005920D02*
X142034762Y-89720205D01*
X142034762Y-89720205D02*
X142368095Y-89005920D01*
X142368095Y-89005920D02*
X142368095Y-90005920D01*
X142796667Y-90005920D02*
X143034762Y-90005920D01*
X143034762Y-90005920D02*
X143034762Y-89815443D01*
X143034762Y-89815443D02*
X142939524Y-89767824D01*
X142939524Y-89767824D02*
X142844286Y-89672586D01*
X142844286Y-89672586D02*
X142796667Y-89529729D01*
X142796667Y-89529729D02*
X142796667Y-89291634D01*
X142796667Y-89291634D02*
X142844286Y-89148777D01*
X142844286Y-89148777D02*
X142939524Y-89053539D01*
X142939524Y-89053539D02*
X143082381Y-89005920D01*
X143082381Y-89005920D02*
X143272857Y-89005920D01*
X143272857Y-89005920D02*
X143415714Y-89053539D01*
X143415714Y-89053539D02*
X143510952Y-89148777D01*
X143510952Y-89148777D02*
X143558571Y-89291634D01*
X143558571Y-89291634D02*
X143558571Y-89529729D01*
X143558571Y-89529729D02*
X143510952Y-89672586D01*
X143510952Y-89672586D02*
X143415714Y-89767824D01*
X143415714Y-89767824D02*
X143320476Y-89815443D01*
X143320476Y-89815443D02*
X143320476Y-90005920D01*
X143320476Y-90005920D02*
X143558571Y-90005920D01*
X141953333Y-87704819D02*
X141620000Y-87228628D01*
X141381905Y-87704819D02*
X141381905Y-86704819D01*
X141381905Y-86704819D02*
X141762857Y-86704819D01*
X141762857Y-86704819D02*
X141858095Y-86752438D01*
X141858095Y-86752438D02*
X141905714Y-86800057D01*
X141905714Y-86800057D02*
X141953333Y-86895295D01*
X141953333Y-86895295D02*
X141953333Y-87038152D01*
X141953333Y-87038152D02*
X141905714Y-87133390D01*
X141905714Y-87133390D02*
X141858095Y-87181009D01*
X141858095Y-87181009D02*
X141762857Y-87228628D01*
X141762857Y-87228628D02*
X141381905Y-87228628D01*
X142286667Y-86704819D02*
X142905714Y-86704819D01*
X142905714Y-86704819D02*
X142572381Y-87085771D01*
X142572381Y-87085771D02*
X142715238Y-87085771D01*
X142715238Y-87085771D02*
X142810476Y-87133390D01*
X142810476Y-87133390D02*
X142858095Y-87181009D01*
X142858095Y-87181009D02*
X142905714Y-87276247D01*
X142905714Y-87276247D02*
X142905714Y-87514342D01*
X142905714Y-87514342D02*
X142858095Y-87609580D01*
X142858095Y-87609580D02*
X142810476Y-87657200D01*
X142810476Y-87657200D02*
X142715238Y-87704819D01*
X142715238Y-87704819D02*
X142429524Y-87704819D01*
X142429524Y-87704819D02*
X142334286Y-87657200D01*
X142334286Y-87657200D02*
X142286667Y-87609580D01*
D10*
%TO.C,J2*%
X170367500Y-96411101D02*
X176567500Y-96411101D01*
X170367500Y-109571101D02*
X170367500Y-96411101D01*
X170767500Y-109571101D02*
X170767500Y-96411101D01*
X172633500Y-97211101D02*
X174167500Y-98745101D01*
X172633500Y-99751101D02*
X174167500Y-101285101D01*
X172633500Y-102291101D02*
X174167500Y-103825101D01*
X172633500Y-104831101D02*
X174167500Y-106365101D01*
X172633500Y-107371101D02*
X174167500Y-108905101D01*
X172767500Y-97077101D02*
X174301500Y-98611101D01*
X172767500Y-99617101D02*
X174301500Y-101151101D01*
X172767500Y-102157101D02*
X174301500Y-103691101D01*
X172767500Y-104697101D02*
X174301500Y-106231101D01*
X172767500Y-107237101D02*
X174301500Y-108771101D01*
X176067500Y-109571101D02*
X170367500Y-109571101D01*
X176067500Y-109571101D02*
X176067500Y-96411101D01*
X176567500Y-96411101D02*
X176567500Y-109071101D01*
X176567500Y-109071101D02*
X176067500Y-109571101D01*
X174567500Y-97911101D02*
G75*
G02*
X172367500Y-97911101I-1100000J0D01*
G01*
X172367500Y-97911101D02*
G75*
G02*
X174567500Y-97911101I1100000J0D01*
G01*
X174567500Y-100451101D02*
G75*
G02*
X172367500Y-100451101I-1100000J0D01*
G01*
X172367500Y-100451101D02*
G75*
G02*
X174567500Y-100451101I1100000J0D01*
G01*
X174567500Y-102991101D02*
G75*
G02*
X172367500Y-102991101I-1100000J0D01*
G01*
X172367500Y-102991101D02*
G75*
G02*
X174567500Y-102991101I1100000J0D01*
G01*
X174567500Y-105531101D02*
G75*
G02*
X172367500Y-105531101I-1100000J0D01*
G01*
X172367500Y-105531101D02*
G75*
G02*
X174567500Y-105531101I1100000J0D01*
G01*
X174567500Y-108071101D02*
G75*
G02*
X172367500Y-108071101I-1100000J0D01*
G01*
X172367500Y-108071101D02*
G75*
G02*
X174567500Y-108071101I1100000J0D01*
G01*
%TO.C,C1*%
X144820000Y-95131101D02*
X144820000Y-99431101D01*
X144820000Y-99431101D02*
X146720000Y-99431101D01*
X146720000Y-95131101D02*
X144820000Y-95131101D01*
X146720000Y-99431101D02*
X146720000Y-95131101D01*
%TO.C,C2*%
X148840000Y-95231101D02*
X148840000Y-99531101D01*
X148840000Y-99531101D02*
X150740000Y-99531101D01*
X150740000Y-95231101D02*
X148840000Y-95231101D01*
X150740000Y-99531101D02*
X150740000Y-95231101D01*
%TO.C,U1*%
X161605000Y-95876101D02*
X162605000Y-94876101D01*
X161605000Y-99956101D02*
X161605000Y-95876101D01*
X162605000Y-94876101D02*
X167955000Y-94876101D01*
X167955000Y-94876101D02*
X167955000Y-99956101D01*
X167955000Y-99956101D02*
X161605000Y-99956101D01*
%TO.C,Q1*%
X135932500Y-97181101D02*
X137532500Y-97181101D01*
X135932500Y-100081101D02*
X135932500Y-97181101D01*
X137132500Y-100081101D02*
X135932500Y-100081101D01*
X137532500Y-97181101D02*
X137532500Y-99681101D01*
X137532500Y-99681101D02*
X137132500Y-100081101D01*
%TO.C,D3*%
X165890000Y-107831101D02*
X167690000Y-107831101D01*
X165890000Y-110631101D02*
X165890000Y-107831101D01*
X166390000Y-108981101D02*
X167190000Y-108981101D01*
X166790000Y-108981101D02*
X166790000Y-108481101D01*
X166790000Y-109581101D02*
X166240000Y-109581101D01*
X166790000Y-109581101D02*
X166390000Y-108981101D01*
X166790000Y-109581101D02*
X167340000Y-109581101D01*
X166790000Y-109981101D02*
X166790000Y-109581101D01*
X167190000Y-108981101D02*
X166790000Y-109581101D01*
X167690000Y-107831101D02*
X167690000Y-110631101D01*
X167690000Y-110631101D02*
X165890000Y-110631101D01*
%TO.C,R2*%
X149690000Y-89551101D02*
X151620000Y-89551101D01*
X151620000Y-88301101D02*
X151620000Y-90801101D01*
X151620000Y-90801101D02*
X157920000Y-90801101D01*
X157920000Y-88301101D02*
X151620000Y-88301101D01*
X157920000Y-90801101D02*
X157920000Y-88301101D01*
X159850000Y-89551101D02*
X157920000Y-89551101D01*
%TO.C,J1*%
X126730000Y-95061101D02*
X127230000Y-94561101D01*
X126730000Y-100101101D02*
X126730000Y-95061101D01*
X127230000Y-94561101D02*
X127230000Y-100101101D01*
X127230000Y-94561101D02*
X132930000Y-94561101D01*
X130530000Y-96895101D02*
X128996000Y-95361101D01*
X130530000Y-99435101D02*
X128996000Y-97901101D01*
X130664000Y-96761101D02*
X129130000Y-95227101D01*
X130664000Y-99301101D02*
X129130000Y-97767101D01*
X132530000Y-94561101D02*
X132530000Y-100101101D01*
X132930000Y-94561101D02*
X132930000Y-100101101D01*
X132930000Y-100101101D02*
X126730000Y-100101101D01*
X130930000Y-96061101D02*
G75*
G02*
X128730000Y-96061101I-1100000J0D01*
G01*
X128730000Y-96061101D02*
G75*
G02*
X130930000Y-96061101I1100000J0D01*
G01*
X130930000Y-98601101D02*
G75*
G02*
X128730000Y-98601101I-1100000J0D01*
G01*
X128730000Y-98601101D02*
G75*
G02*
X130930000Y-98601101I1100000J0D01*
G01*
%TO.C,D1*%
X165890000Y-102494851D02*
X167690000Y-102494851D01*
X165890000Y-105294851D02*
X165890000Y-102494851D01*
X166390000Y-103644851D02*
X167190000Y-103644851D01*
X166790000Y-103644851D02*
X166790000Y-103144851D01*
X166790000Y-104244851D02*
X166240000Y-104244851D01*
X166790000Y-104244851D02*
X166390000Y-103644851D01*
X166790000Y-104244851D02*
X167340000Y-104244851D01*
X166790000Y-104644851D02*
X166790000Y-104244851D01*
X167190000Y-103644851D02*
X166790000Y-104244851D01*
X167690000Y-102494851D02*
X167690000Y-105294851D01*
X167690000Y-105294851D02*
X165890000Y-105294851D01*
%TO.C,C3*%
X165890000Y-86071101D02*
X165890000Y-90371101D01*
X165890000Y-90371101D02*
X167790000Y-90371101D01*
X167790000Y-86071101D02*
X165890000Y-86071101D01*
X167790000Y-90371101D02*
X167790000Y-86071101D01*
%TO.C,R1*%
X140420000Y-96751101D02*
X140420000Y-103051101D01*
X140420000Y-103051101D02*
X142920000Y-103051101D01*
X141670000Y-94821101D02*
X141670000Y-96751101D01*
X141670000Y-104981101D02*
X141670000Y-103051101D01*
X142920000Y-96751101D02*
X140420000Y-96751101D01*
X142920000Y-103051101D02*
X142920000Y-96751101D01*
%TO.C,J3*%
X170367500Y-85411101D02*
X176567500Y-85411101D01*
X170367500Y-90951101D02*
X170367500Y-85411101D01*
X170767500Y-90951101D02*
X170767500Y-85411101D01*
X172633500Y-86211101D02*
X174167500Y-87745101D01*
X172633500Y-88751101D02*
X174167500Y-90285101D01*
X172767500Y-86077101D02*
X174301500Y-87611101D01*
X172767500Y-88617101D02*
X174301500Y-90151101D01*
X176067500Y-90951101D02*
X170367500Y-90951101D01*
X176067500Y-90951101D02*
X176067500Y-85411101D01*
X176567500Y-85411101D02*
X176567500Y-90451101D01*
X176567500Y-90451101D02*
X176067500Y-90951101D01*
X174567500Y-86911101D02*
G75*
G02*
X172367500Y-86911101I-1100000J0D01*
G01*
X172367500Y-86911101D02*
G75*
G02*
X174567500Y-86911101I1100000J0D01*
G01*
X174567500Y-89451101D02*
G75*
G02*
X172367500Y-89451101I-1100000J0D01*
G01*
X172367500Y-89451101D02*
G75*
G02*
X174567500Y-89451101I1100000J0D01*
G01*
%TO.C,S1*%
X152430000Y-94261101D02*
X153065000Y-93626101D01*
X152430000Y-101246101D02*
X152430000Y-94261101D01*
X153065000Y-93626101D02*
X154970000Y-93626101D01*
X154970000Y-93626101D02*
X154970000Y-101246101D01*
X154970000Y-101246101D02*
X152430000Y-101246101D01*
%TO.C,D2*%
X171077500Y-93341101D02*
X173877500Y-93341101D01*
X171077500Y-95141101D02*
X171077500Y-93341101D01*
X172227500Y-93841101D02*
X172827500Y-94241101D01*
X172227500Y-94241101D02*
X171727500Y-94241101D01*
X172227500Y-94641101D02*
X172227500Y-93841101D01*
X172827500Y-94241101D02*
X172227500Y-94641101D01*
X172827500Y-94241101D02*
X172827500Y-93691101D01*
X172827500Y-94241101D02*
X172827500Y-94791101D01*
X173227500Y-94241101D02*
X172827500Y-94241101D01*
X173877500Y-93341101D02*
X173877500Y-95141101D01*
X173877500Y-95141101D02*
X171077500Y-95141101D01*
%TO.C,R3*%
X137050000Y-89551101D02*
X138980000Y-89551101D01*
X138980000Y-88301101D02*
X138980000Y-90801101D01*
X138980000Y-90801101D02*
X145280000Y-90801101D01*
X145280000Y-88301101D02*
X138980000Y-88301101D01*
X145280000Y-90801101D02*
X145280000Y-88301101D01*
X147210000Y-89551101D02*
X145280000Y-89551101D01*
%TD*%
M02*
