M48
; DRILL file {KiCad 9.0.1+1} date 2026-01-16T02:32:25+0000
; FORMAT={-:-/ absolute / metric / decimal}
; #@! TF.CreationDate,2026-01-16T02:32:25+00:00
; #@! TF.GenerationSoftware,Kicad,Pcbnew,9.0.1+1
; #@! TF.FileFunction,MixedPlating,1,2
FMAT,2
METRIC
; #@! TA.AperFunction,Plated,PTH,ViaDrill
T1C0.300
; #@! TA.AperFunction,Plated,PTH,ComponentDrill
T2C0.750
; #@! TA.AperFunction,Plated,PTH,ComponentDrill
T3C0.800
; #@! TA.AperFunction,Plated,PTH,ComponentDrill
T4C1.000
; #@! TA.AperFunction,Plated,PTH,ComponentDrill
T5C1.100
; #@! TA.AperFunction,NonPlated,NPTH,ComponentDrill
T6C1.100
; #@! TA.AperFunction,NonPlated,NPTH,ComponentDrill
T7C3.200
%
G90
G05
T1
X137.85Y-103.32
X166.73Y-106.33
T2
X153.02Y-112.12
X154.29Y-112.12
X155.56Y-112.12
T3
X130.05Y-102.89
X132.59Y-102.89
X141.67Y-84.661
X141.67Y-94.821
X145.77Y-94.781
X145.77Y-99.781
X146.97Y-85.92
X146.97Y-89.95
X149.79Y-94.881
X149.79Y-99.881
X157.12Y-97.45
X157.12Y-107.61
X157.13Y-85.92
X157.13Y-89.95
X160.97Y-96.146
X160.97Y-98.686
X168.06Y-85.77
X168.06Y-90.77
X168.59Y-96.146
X168.59Y-98.686
T4
X153.7Y-94.896
X153.7Y-97.436
X153.7Y-99.976
T5
X129.83Y-96.061
X129.83Y-98.601
X173.468Y-86.911
X173.468Y-89.451
X173.468Y-97.911
X173.468Y-100.451
X173.468Y-102.991
X173.468Y-105.531
X173.468Y-108.071
T6
X127.29Y-96.061
X127.29Y-98.601
X176.007Y-86.911
X176.007Y-89.451
T7
X126.456Y-80.957
X126.456Y-113.886
X183.526Y-80.957
X183.526Y-113.886
M30
