%TF.GenerationSoftware,KiCad,Pcbnew,9.0.1+1*%
%TF.CreationDate,2026-01-15T22:30:42+00:00*%
%TF.ProjectId,WALKIN_PIR_IF,57414c4b-494e-45f5-9049-525f49462e6b,B*%
%TF.SameCoordinates,Original*%
%TF.FileFunction,Copper,L1,Top*%
%TF.FilePolarity,Positive*%
%FSLAX46Y46*%
G04 Gerber Fmt 4.6, Leading zero omitted, Abs format (unit mm)*
G04 Created by KiCad (PCBNEW 9.0.1+1) date 2026-01-15 22:30:42*
%MOMM*%
%LPD*%
G01*
G04 APERTURE LIST*
G04 Aperture macros list*
%AMRoundRect*
0 Rectangle with rounded corners*
0 $1 Rounding radius*
0 $2 $3 $4 $5 $6 $7 $8 $9 X,Y pos of 4 corners*
0 Add a 4 corners polygon primitive as box body*
4,1,4,$2,$3,$4,$5,$6,$7,$8,$9,$2,$3,0*
0 Add four circle primitives for the rounded corners*
1,1,$1+$1,$2,$3*
1,1,$1+$1,$4,$5*
1,1,$1+$1,$6,$7*
1,1,$1+$1,$8,$9*
0 Add four rect primitives between the rounded corners*
20,1,$1+$1,$2,$3,$4,$5,0*
20,1,$1+$1,$4,$5,$6,$7,0*
20,1,$1+$1,$6,$7,$8,$9,0*
20,1,$1+$1,$8,$9,$2,$3,0*%
G04 Aperture macros list end*
%ADD10C,0.625000*%
%TA.AperFunction,EtchedComponent*%
%ADD11C,0.600000*%
%TD*%
%TA.AperFunction,EtchedComponent*%
%ADD12C,0.000000*%
%TD*%
%TA.AperFunction,ComponentPad*%
%ADD13RoundRect,0.249999X0.850001X-0.850001X0.850001X0.850001X-0.850001X0.850001X-0.850001X-0.850001X0*%
%TD*%
%TA.AperFunction,ComponentPad*%
%ADD14C,2.200000*%
%TD*%
%TA.AperFunction,ComponentPad*%
%ADD15C,1.600000*%
%TD*%
%TA.AperFunction,ComponentPad*%
%ADD16RoundRect,0.250000X-0.550000X-0.550000X0.550000X-0.550000X0.550000X0.550000X-0.550000X0.550000X0*%
%TD*%
%TA.AperFunction,SMDPad,CuDef*%
%ADD17RoundRect,0.150000X0.512500X0.150000X-0.512500X0.150000X-0.512500X-0.150000X0.512500X-0.150000X0*%
%TD*%
%TA.AperFunction,SMDPad,CuDef*%
%ADD18RoundRect,0.250000X-0.300000X0.300000X-0.300000X-0.300000X0.300000X-0.300000X0.300000X0.300000X0*%
%TD*%
%TA.AperFunction,SMDPad,CuDef*%
%ADD19RoundRect,0.250000X0.300000X0.300000X-0.300000X0.300000X-0.300000X-0.300000X0.300000X-0.300000X0*%
%TD*%
%TA.AperFunction,ComponentPad*%
%ADD20O,1.600000X1.600000*%
%TD*%
%TA.AperFunction,ComponentPad*%
%ADD21RoundRect,0.249999X-0.850001X0.850001X-0.850001X-0.850001X0.850001X-0.850001X0.850001X0.850001X0*%
%TD*%
%TA.AperFunction,ComponentPad*%
%ADD22C,1.400000*%
%TD*%
%TA.AperFunction,ComponentPad*%
%ADD23R,1.700000X1.700000*%
%TD*%
%TA.AperFunction,ComponentPad*%
%ADD24O,1.700000X1.700000*%
%TD*%
%TA.AperFunction,ComponentPad*%
%ADD25R,1.050000X1.500000*%
%TD*%
%TA.AperFunction,ComponentPad*%
%ADD26O,1.050000X1.500000*%
%TD*%
%TA.AperFunction,ViaPad*%
%ADD27C,0.600000*%
%TD*%
%TA.AperFunction,Conductor*%
%ADD28C,0.500000*%
%TD*%
%TA.AperFunction,Conductor*%
%ADD29C,1.000000*%
%TD*%
%TA.AperFunction,Conductor*%
%ADD30C,0.200000*%
%TD*%
%TA.AperFunction,Conductor*%
%ADD31C,0.400000*%
%TD*%
%TA.AperFunction,Conductor*%
%ADD32C,0.300000*%
%TD*%
G04 APERTURE END LIST*
D10*
G36*
X133147741Y-85875859D02*
G01*
X133313831Y-85897164D01*
X133472346Y-85934883D01*
X133761476Y-86056327D01*
X134008643Y-86234323D01*
X134208108Y-86463382D01*
X134288194Y-86595421D01*
X134354441Y-86738735D01*
X134359850Y-86752957D01*
X134410997Y-86918743D01*
X134448093Y-87108693D01*
X134477397Y-87410511D01*
X134486607Y-87787819D01*
X132054864Y-87787819D01*
X132063299Y-87965593D01*
X132113622Y-88247834D01*
X132163073Y-88374094D01*
X132231269Y-88492887D01*
X132334394Y-88627540D01*
X132426006Y-88714473D01*
X132527475Y-88786684D01*
X132639112Y-88844290D01*
X132759064Y-88886090D01*
X132888690Y-88911985D01*
X133025088Y-88920709D01*
X133162683Y-88912143D01*
X133397503Y-88848876D01*
X133501235Y-88794378D01*
X133595530Y-88724827D01*
X133683188Y-88636899D01*
X133760273Y-88533064D01*
X133830442Y-88405297D01*
X133888151Y-88259879D01*
X134417364Y-88259879D01*
X134399550Y-88344954D01*
X134292622Y-88654147D01*
X134133257Y-88911803D01*
X134034927Y-89021675D01*
X133924670Y-89118594D01*
X133801751Y-89202875D01*
X133667618Y-89273130D01*
X133519912Y-89329853D01*
X133361551Y-89371143D01*
X133188896Y-89396969D01*
X133006129Y-89405683D01*
X132819752Y-89396452D01*
X132499172Y-89330480D01*
X132221250Y-89205047D01*
X132097233Y-89120343D01*
X131984109Y-89021634D01*
X131880301Y-88906938D01*
X131788482Y-88778449D01*
X131706774Y-88632050D01*
X131638515Y-88471845D01*
X131582425Y-88291961D01*
X131541538Y-88098216D01*
X131515684Y-87883831D01*
X131506967Y-87655653D01*
X131521418Y-87369564D01*
X131523334Y-87359447D01*
X132067504Y-87359447D01*
X133919750Y-87359447D01*
X133896402Y-87112135D01*
X133811438Y-86853461D01*
X133673102Y-86643746D01*
X133489776Y-86487907D01*
X133383468Y-86431575D01*
X133267958Y-86390285D01*
X133144055Y-86364901D01*
X133012449Y-86356250D01*
X132842960Y-86370489D01*
X132720393Y-86400522D01*
X132606243Y-86446392D01*
X132499830Y-86508310D01*
X132403379Y-86585060D01*
X132315782Y-86678094D01*
X132239999Y-86785114D01*
X132175390Y-86908380D01*
X132124675Y-87044687D01*
X132088076Y-87196156D01*
X132067504Y-87359447D01*
X131523334Y-87359447D01*
X131594984Y-86981022D01*
X131723401Y-86650646D01*
X131899615Y-86378152D01*
X132118781Y-86162701D01*
X132243668Y-86076308D01*
X132378524Y-86004391D01*
X132523826Y-85947135D01*
X132678393Y-85905496D01*
X132844242Y-85879709D01*
X133018769Y-85871001D01*
X133147741Y-85875859D01*
G37*
D11*
%TO.C,REF\u002A\u002A*%
X130501405Y-87555000D02*
G75*
G02*
X129504285Y-89273839I-1980031J1D01*
G01*
X130501405Y-87555000D02*
G75*
G02*
X135501405Y-87555000I2500000J0D01*
G01*
X136498525Y-89273839D02*
G75*
G02*
X135501407Y-87555000I982915J1718839D01*
G01*
X136498525Y-89295891D02*
G75*
G02*
X129504285Y-89295891I-3497120J8268836D01*
G01*
D12*
%TA.AperFunction,EtchedComponent*%
G36*
X132251405Y-84877642D02*
G01*
X132251405Y-84877642D01*
G75*
G02*
X133751405Y-84877642I750000J0D01*
G01*
X132251405Y-84877642D01*
G37*
%TD.AperFunction*%
%TA.AperFunction,EtchedComponent*%
G36*
X133751405Y-90157358D02*
G01*
X133751405Y-90157358D01*
G75*
G02*
X132251405Y-90157358I-750000J0D01*
G01*
X133751405Y-90157358D01*
G37*
%TD.AperFunction*%
%TD*%
D13*
%TO.P,J3,1,Pin_1*%
%TO.N,/DIN1*%
X173467500Y-108071101D03*
D14*
%TO.P,J3,2,Pin_2*%
%TO.N,/DIN2*%
X173467500Y-105531101D03*
%TO.P,J3,3,Pin_3*%
%TO.N,/COM*%
X173467500Y-102991101D03*
%TO.P,J3,4,Pin_4*%
%TO.N,/NTC1*%
X173467500Y-100451101D03*
%TO.P,J3,5,Pin_5*%
%TO.N,/NTC2*%
X173467500Y-97911101D03*
%TD*%
D15*
%TO.P,C1,1*%
%TO.N,VDD*%
X145770000Y-94781101D03*
%TO.P,C1,2*%
%TO.N,GND*%
X145770000Y-99781101D03*
%TD*%
%TO.P,C2,1*%
%TO.N,VDD*%
X149790000Y-94881101D03*
%TO.P,C2,2*%
%TO.N,GND*%
X149790000Y-99881101D03*
%TD*%
%TO.P,C3,1*%
%TO.N,/NTC1*%
X168060000Y-90770000D03*
%TO.P,C3,2*%
%TO.N,/NTC2*%
X168060000Y-85770000D03*
%TD*%
D16*
%TO.P,U1,1*%
%TO.N,/PM_LED_A*%
X160970000Y-96146101D03*
D15*
%TO.P,U1,2*%
%TO.N,/PM_LED_K*%
X160970000Y-98686101D03*
%TO.P,U1,3*%
%TO.N,/COM*%
X168590000Y-98686101D03*
%TO.P,U1,4*%
%TO.N,/DIN1*%
X168590000Y-96146101D03*
%TD*%
D17*
%TO.P,Q1,1,G*%
%TO.N,GND*%
X137870000Y-99581101D03*
%TO.P,Q1,2,S*%
%TO.N,VDD*%
X137870000Y-97681101D03*
%TO.P,Q1,3,D*%
%TO.N,Net-(JP1-B)*%
X135595000Y-98631101D03*
%TD*%
D18*
%TO.P,D2,1,A1*%
%TO.N,/COM*%
X168410000Y-107610000D03*
%TO.P,D2,2,A2*%
%TO.N,/DIN2*%
X168410000Y-110410000D03*
%TD*%
D19*
%TO.P,D1,1,A1*%
%TO.N,/NTC2*%
X174840000Y-93670000D03*
%TO.P,D1,2,A2*%
%TO.N,/NTC1*%
X172040000Y-93670000D03*
%TD*%
D15*
%TO.P,R3,1*%
%TO.N,/PIR_SIG*%
X157120000Y-97450000D03*
D20*
%TO.P,R3,2*%
%TO.N,Net-(Q2-G)*%
X157120000Y-107610000D03*
%TD*%
D21*
%TO.P,J1,1,VBAT+*%
%TO.N,GND*%
X129830000Y-96061101D03*
D14*
%TO.P,J1,2,VBAT-*%
%TO.N,/VBAT*%
X129830000Y-98601101D03*
%TD*%
D22*
%TO.P,JP1,1,A*%
%TO.N,/VBAT*%
X130050000Y-102890000D03*
%TO.P,JP1,2,B*%
%TO.N,Net-(JP1-B)*%
X132590000Y-102890000D03*
%TD*%
D15*
%TO.P,R1,1*%
%TO.N,VDD*%
X141670000Y-94821101D03*
D20*
%TO.P,R1,2*%
%TO.N,GND*%
X141670000Y-84661101D03*
%TD*%
D13*
%TO.P,J2,1,VBAT-*%
%TO.N,/NTC1*%
X173467500Y-89451101D03*
D14*
%TO.P,J2,2,VBAT+*%
%TO.N,/NTC2*%
X173467500Y-86911101D03*
%TD*%
D15*
%TO.P,R2,1*%
%TO.N,VDD*%
X146970000Y-85920000D03*
D20*
%TO.P,R2,2*%
%TO.N,/PM_LED_A*%
X157130000Y-85920000D03*
%TD*%
D23*
%TO.P,S1,1,VCC*%
%TO.N,VDD*%
X153700000Y-94896101D03*
D24*
%TO.P,S1,2,VOUT*%
%TO.N,/PIR_SIG*%
X153700000Y-97436101D03*
%TO.P,S1,3,GND*%
%TO.N,GND*%
X153700000Y-99976101D03*
%TD*%
D25*
%TO.P,Q2,1,S*%
%TO.N,GND*%
X153020000Y-112120000D03*
D26*
%TO.P,Q2,2,G*%
%TO.N,Net-(Q2-G)*%
X154290000Y-112120000D03*
%TO.P,Q2,3,D*%
%TO.N,/PM_LED_K*%
X155560000Y-112120000D03*
%TD*%
D15*
%TO.P,R4,1*%
%TO.N,/PIR_SIG*%
X157130000Y-89950000D03*
D20*
%TO.P,R4,2*%
%TO.N,GND*%
X146970000Y-89950000D03*
%TD*%
D18*
%TO.P,D3,1,A1*%
%TO.N,/COM*%
X168440000Y-102372500D03*
%TO.P,D3,2,A2*%
%TO.N,/DIN1*%
X168440000Y-105172500D03*
%TD*%
D27*
%TO.N,GND*%
X137850000Y-103320000D03*
%TO.N,/COM*%
X166730000Y-106330000D03*
%TD*%
D28*
%TO.N,VDD*%
X141670000Y-91220000D02*
X146970000Y-85920000D01*
D29*
X140655000Y-94896101D02*
X137870000Y-97681101D01*
X153700000Y-94896101D02*
X140655000Y-94896101D01*
D30*
X142878899Y-94821101D02*
X141670000Y-94821101D01*
D28*
X141670000Y-94821101D02*
X141670000Y-91220000D01*
%TO.N,/NTC2*%
X173467500Y-86911101D02*
X174070000Y-86911101D01*
X176650000Y-88220000D02*
X177470000Y-89040000D01*
D30*
X173467500Y-86911101D02*
X173761101Y-86911101D01*
D28*
X168060000Y-85770000D02*
X169201101Y-86911101D01*
X174830000Y-96548601D02*
X174830000Y-93680000D01*
X169201101Y-86911101D02*
X173467500Y-86911101D01*
X177470000Y-91040000D02*
X174840000Y-93670000D01*
D30*
X173467500Y-86911101D02*
X173841101Y-86911101D01*
D28*
X175450000Y-88220000D02*
X176650000Y-88220000D01*
X177470000Y-89040000D02*
X177470000Y-91040000D01*
X174141101Y-86911101D02*
X175450000Y-88220000D01*
X173761101Y-86911101D02*
X174141101Y-86911101D01*
X173467500Y-97911101D02*
X174830000Y-96548601D01*
X174830000Y-93680000D02*
X174840000Y-93670000D01*
%TO.N,/NTC1*%
X172040000Y-96300000D02*
X171290000Y-97050000D01*
X171290000Y-97050000D02*
X171290000Y-98273601D01*
D30*
X173940000Y-100451101D02*
X173467500Y-100451101D01*
D28*
X169140000Y-90770000D02*
X168060000Y-90770000D01*
X171290000Y-98273601D02*
X173467500Y-100451101D01*
X172040000Y-93670000D02*
X169140000Y-90770000D01*
X172040000Y-90878601D02*
X173467500Y-89451101D01*
X172040000Y-93670000D02*
X172040000Y-96300000D01*
X172040000Y-93670000D02*
X172040000Y-90878601D01*
D30*
%TO.N,/COM*%
X173467500Y-102991101D02*
X172895000Y-102991101D01*
%TO.N,/DIN2*%
X168410000Y-110410000D02*
X168580000Y-110240000D01*
D28*
X168580000Y-110240000D02*
X174780000Y-110240000D01*
X175780000Y-109240000D02*
X175780000Y-107240000D01*
X174780000Y-110240000D02*
X175780000Y-109240000D01*
X175780000Y-107240000D02*
X174071101Y-105531101D01*
D30*
X174071101Y-105531101D02*
X173467500Y-105531101D01*
X173467500Y-105531101D02*
X173417500Y-105581101D01*
D28*
%TO.N,/DIN1*%
X166530000Y-98206101D02*
X168590000Y-96146101D01*
X168440000Y-105172500D02*
X166530000Y-103262500D01*
X171400000Y-108110000D02*
X173428601Y-108110000D01*
X166530000Y-103262500D02*
X166530000Y-98206101D01*
X168440000Y-105172500D02*
X168462500Y-105172500D01*
D30*
X173428601Y-108110000D02*
X173467500Y-108071101D01*
D28*
X168462500Y-105172500D02*
X171400000Y-108110000D01*
D29*
%TO.N,/VBAT*%
X129830000Y-98601101D02*
X129830000Y-102670000D01*
D30*
X129830000Y-102670000D02*
X130050000Y-102890000D01*
D31*
%TO.N,/PIR_SIG*%
X157106101Y-97436101D02*
X157130000Y-97412202D01*
D32*
X157130000Y-97412202D02*
X157130000Y-89950000D01*
D31*
X157106101Y-97436101D02*
X157120000Y-97450000D01*
D32*
X153700000Y-97436101D02*
X157106101Y-97436101D01*
D29*
%TO.N,Net-(JP1-B)*%
X135595000Y-99885000D02*
X132590000Y-102890000D01*
X135595000Y-98631101D02*
X135595000Y-99885000D01*
D30*
X135565000Y-98601101D02*
X135595000Y-98631101D01*
%TO.N,/PM_LED_K*%
X156860000Y-112140000D02*
X156840000Y-112120000D01*
D28*
X159600000Y-109400000D02*
X156860000Y-112140000D01*
D30*
X159646101Y-100010000D02*
X159600000Y-100010000D01*
D28*
X160970000Y-98686101D02*
X159646101Y-100010000D01*
X159600000Y-100010000D02*
X159600000Y-109400000D01*
X156840000Y-112120000D02*
X155560000Y-112120000D01*
D30*
%TO.N,/PM_LED_A*%
X160970000Y-96146101D02*
X160946101Y-96146101D01*
D28*
X159560000Y-88350000D02*
X157130000Y-85920000D01*
X160946101Y-96146101D02*
X159560000Y-94760000D01*
X159600000Y-94760000D02*
X159600000Y-88350000D01*
D32*
%TO.N,Net-(Q2-G)*%
X154290000Y-110440000D02*
X157120000Y-107610000D01*
X154290000Y-112120000D02*
X154290000Y-110440000D01*
%TD*%
%TA.AperFunction,Conductor*%
%TO.N,/PIR_SIG*%
G36*
X154181292Y-96733514D02*
G01*
X155376853Y-97282969D01*
X155382939Y-97289538D01*
X155383667Y-97293600D01*
X155383667Y-97578601D01*
X155380240Y-97586874D01*
X155376853Y-97589232D01*
X154181295Y-98138686D01*
X154172347Y-98139027D01*
X154166687Y-98134565D01*
X153801535Y-97589232D01*
X153703358Y-97442610D01*
X153701604Y-97433830D01*
X153703359Y-97429591D01*
X153794418Y-97293600D01*
X154166688Y-96737634D01*
X154174138Y-96732669D01*
X154181292Y-96733514D01*
G37*
%TD.AperFunction*%
%TD*%
%TA.AperFunction,Conductor*%
%TO.N,/DIN2*%
G36*
X169500178Y-109988404D02*
G01*
X169507793Y-109993113D01*
X169510000Y-109999952D01*
X169510000Y-110483581D01*
X169506573Y-110491854D01*
X169504588Y-110493448D01*
X168883235Y-110889391D01*
X168874416Y-110890947D01*
X168868515Y-110887636D01*
X168489282Y-110493448D01*
X168414955Y-110416190D01*
X168411690Y-110407853D01*
X168413122Y-110402466D01*
X168706027Y-109867258D01*
X168713005Y-109861647D01*
X168718166Y-109861327D01*
X169500178Y-109988404D01*
G37*
%TD.AperFunction*%
%TD*%
%TA.AperFunction,Conductor*%
%TO.N,Net-(Q2-G)*%
G36*
X157113020Y-107607772D02*
G01*
X157120470Y-107612740D01*
X157122227Y-107616979D01*
X157274149Y-108384910D01*
X157272392Y-108393691D01*
X157266804Y-108398127D01*
X156112630Y-108833899D01*
X156103679Y-108833615D01*
X156100224Y-108831226D01*
X155898773Y-108629775D01*
X155895346Y-108621502D01*
X155896099Y-108617373D01*
X156331873Y-107463192D01*
X156338000Y-107456666D01*
X156345087Y-107455850D01*
X157113020Y-107607772D01*
G37*
%TD.AperFunction*%
%TD*%
%TA.AperFunction,Conductor*%
%TO.N,/NTC1*%
G36*
X172181356Y-98807004D02*
G01*
X172870362Y-99066508D01*
X172871523Y-99067020D01*
X172968281Y-99116321D01*
X172968286Y-99116322D01*
X172968289Y-99116324D01*
X173090431Y-99156010D01*
X173162966Y-99179578D01*
X173174917Y-99181471D01*
X173177205Y-99182076D01*
X173672818Y-99368741D01*
X173679352Y-99374864D01*
X173680171Y-99381964D01*
X173469728Y-100444126D01*
X173464759Y-100451575D01*
X173460525Y-100453329D01*
X172398363Y-100663772D01*
X172389581Y-100662018D01*
X172385140Y-100656419D01*
X172308649Y-100453329D01*
X171823404Y-99164958D01*
X171823695Y-99156010D01*
X171826077Y-99152566D01*
X172168963Y-98809680D01*
X172177235Y-98806254D01*
X172181356Y-98807004D01*
G37*
%TD.AperFunction*%
%TD*%
%TA.AperFunction,Conductor*%
%TO.N,/PIR_SIG*%
G36*
X157280660Y-95868799D02*
G01*
X157283084Y-95872332D01*
X157781192Y-96996554D01*
X157781410Y-97005507D01*
X157777005Y-97011015D01*
X157126510Y-97446640D01*
X157117729Y-97448397D01*
X157113490Y-97446640D01*
X156463115Y-97011096D01*
X156458147Y-97003646D01*
X156458997Y-96996482D01*
X156811614Y-96230941D01*
X156976866Y-95872177D01*
X156983440Y-95866096D01*
X156987493Y-95865372D01*
X157272387Y-95865372D01*
X157280660Y-95868799D01*
G37*
%TD.AperFunction*%
%TD*%
%TA.AperFunction,Conductor*%
%TO.N,/DIN2*%
G36*
X174394947Y-104945724D02*
G01*
X174394999Y-104945806D01*
X175348891Y-106452435D01*
X175350422Y-106461258D01*
X175347279Y-106466967D01*
X175004365Y-106809881D01*
X174996092Y-106813308D01*
X174994703Y-106813225D01*
X173306520Y-106611409D01*
X173298712Y-106607025D01*
X173296292Y-106598403D01*
X173296350Y-106597979D01*
X173465970Y-105535548D01*
X173470658Y-105527921D01*
X173471146Y-105527586D01*
X174378773Y-104942231D01*
X174387583Y-104940628D01*
X174394947Y-104945724D01*
G37*
%TD.AperFunction*%
%TD*%
%TA.AperFunction,Conductor*%
%TO.N,VDD*%
G36*
X146314624Y-85482255D02*
G01*
X146316263Y-85483167D01*
X146968757Y-85917994D01*
X146972005Y-85921242D01*
X147406832Y-86573736D01*
X147408568Y-86582521D01*
X147403584Y-86589960D01*
X147401945Y-86590872D01*
X146033660Y-87213915D01*
X146024710Y-87214225D01*
X146020538Y-87211540D01*
X145678459Y-86869461D01*
X145675032Y-86861188D01*
X145676083Y-86856342D01*
X146299128Y-85488052D01*
X146305674Y-85481945D01*
X146314624Y-85482255D01*
G37*
%TD.AperFunction*%
%TD*%
%TA.AperFunction,Conductor*%
%TO.N,/PM_LED_A*%
G36*
X157799960Y-85486415D02*
G01*
X157800872Y-85488054D01*
X158423915Y-86856339D01*
X158424225Y-86865289D01*
X158421540Y-86869461D01*
X158079461Y-87211540D01*
X158071188Y-87214967D01*
X158066339Y-87213915D01*
X156698054Y-86590872D01*
X156691945Y-86584325D01*
X156692255Y-86575375D01*
X156693163Y-86573742D01*
X157127994Y-85921241D01*
X157131242Y-85917994D01*
X157783737Y-85483166D01*
X157792521Y-85481431D01*
X157799960Y-85486415D01*
G37*
%TD.AperFunction*%
%TD*%
%TA.AperFunction,Conductor*%
%TO.N,/NTC1*%
G36*
X173461056Y-89448877D02*
G01*
X173468544Y-89453787D01*
X173469818Y-89456237D01*
X173879636Y-90541040D01*
X173879354Y-90549991D01*
X173873732Y-90555733D01*
X172292392Y-91310751D01*
X172287351Y-91311893D01*
X171805410Y-91311893D01*
X171797137Y-91308466D01*
X171793710Y-91300193D01*
X171794140Y-91297050D01*
X172307547Y-89456237D01*
X172364611Y-89251634D01*
X172370135Y-89244586D01*
X172378062Y-89243283D01*
X173461056Y-89448877D01*
G37*
%TD.AperFunction*%
%TD*%
%TA.AperFunction,Conductor*%
%TO.N,/DIN1*%
G36*
X167758751Y-104134153D02*
G01*
X168658510Y-104617500D01*
X168664176Y-104624434D01*
X168663789Y-104632268D01*
X168442562Y-105168707D01*
X168436240Y-105175048D01*
X168436207Y-105175062D01*
X167899768Y-105396289D01*
X167890813Y-105396275D01*
X167885000Y-105391010D01*
X167401653Y-104491251D01*
X167400757Y-104482341D01*
X167403685Y-104477443D01*
X167744942Y-104136186D01*
X167753214Y-104132760D01*
X167758751Y-104134153D01*
G37*
%TD.AperFunction*%
%TD*%
%TA.AperFunction,Conductor*%
%TO.N,/NTC2*%
G36*
X172861888Y-86004724D02*
G01*
X173464144Y-86904593D01*
X173465898Y-86913375D01*
X173464144Y-86917609D01*
X172861888Y-87817477D01*
X172854439Y-87822446D01*
X172847339Y-87821627D01*
X171395510Y-87164213D01*
X171389387Y-87157679D01*
X171388636Y-87153555D01*
X171388636Y-86668646D01*
X171392063Y-86660373D01*
X171395508Y-86657988D01*
X172847340Y-86000573D01*
X172856289Y-86000283D01*
X172861888Y-86004724D01*
G37*
%TD.AperFunction*%
%TD*%
%TA.AperFunction,Conductor*%
%TO.N,VDD*%
G36*
X142123866Y-94162899D02*
G01*
X142124312Y-94163212D01*
X142874155Y-94717594D01*
X142878770Y-94725267D01*
X142878899Y-94727001D01*
X142878899Y-94915200D01*
X142875472Y-94923473D01*
X142874155Y-94924608D01*
X142124312Y-95478989D01*
X142115622Y-95481152D01*
X142107948Y-95476537D01*
X142107635Y-95476091D01*
X141944987Y-95233218D01*
X141673358Y-94827609D01*
X141671602Y-94818830D01*
X141673357Y-94814593D01*
X142107635Y-94166109D01*
X142115085Y-94161142D01*
X142123866Y-94162899D01*
G37*
%TD.AperFunction*%
%TD*%
%TA.AperFunction,Conductor*%
%TO.N,/NTC2*%
G36*
X174846999Y-93674228D02*
G01*
X175363687Y-94060230D01*
X175368264Y-94067927D01*
X175367499Y-94074070D01*
X175082988Y-94762767D01*
X175076662Y-94769105D01*
X175072174Y-94770000D01*
X174588035Y-94770000D01*
X174579762Y-94766573D01*
X174577115Y-94762501D01*
X174312261Y-94074070D01*
X174312211Y-94073939D01*
X174312439Y-94064989D01*
X174316127Y-94060368D01*
X174832999Y-93674229D01*
X174841676Y-93672024D01*
X174846999Y-93674228D01*
G37*
%TD.AperFunction*%
%TD*%
%TA.AperFunction,Conductor*%
%TO.N,/PM_LED_A*%
G36*
X159852108Y-94694509D02*
G01*
X161286746Y-95341464D01*
X161292879Y-95347989D01*
X161292771Y-95356546D01*
X160972541Y-96142307D01*
X160966245Y-96148675D01*
X160966222Y-96148684D01*
X160180318Y-96477513D01*
X160171363Y-96477545D01*
X160165223Y-96471717D01*
X159494705Y-95052188D01*
X159494270Y-95043244D01*
X159497009Y-95038920D01*
X159839027Y-94696902D01*
X159847299Y-94693476D01*
X159852108Y-94694509D01*
G37*
%TD.AperFunction*%
%TD*%
%TA.AperFunction,Conductor*%
%TO.N,/NTC1*%
G36*
X168513939Y-90111689D02*
G01*
X168514260Y-90111911D01*
X169091258Y-90529047D01*
X169662473Y-90942004D01*
X169667170Y-90949628D01*
X169665100Y-90958341D01*
X169663891Y-90959759D01*
X169322436Y-91301214D01*
X169316757Y-91304350D01*
X168227787Y-91551963D01*
X168218960Y-91550456D01*
X168213784Y-91543148D01*
X168213729Y-91542893D01*
X168060244Y-90774057D01*
X168061984Y-90765275D01*
X168497708Y-90114896D01*
X168505159Y-90109931D01*
X168513939Y-90111689D01*
G37*
%TD.AperFunction*%
%TD*%
%TA.AperFunction,Conductor*%
%TO.N,/VBAT*%
G36*
X130329849Y-101541438D02*
G01*
X130332672Y-101546000D01*
X130732342Y-102740859D01*
X130731716Y-102749791D01*
X130724957Y-102755666D01*
X130723545Y-102756042D01*
X130050000Y-102891000D01*
X130049967Y-102891006D01*
X129377100Y-103023867D01*
X129368320Y-103022108D01*
X129363356Y-103014655D01*
X129363137Y-103012652D01*
X129360403Y-102891006D01*
X129330269Y-101549974D01*
X129333509Y-101541626D01*
X129341703Y-101538014D01*
X129341966Y-101538011D01*
X130321576Y-101538011D01*
X130329849Y-101541438D01*
G37*
%TD.AperFunction*%
%TD*%
%TA.AperFunction,Conductor*%
%TO.N,/NTC2*%
G36*
X175072417Y-96400030D02*
G01*
X175075844Y-96408303D01*
X175075324Y-96411753D01*
X174549473Y-98115625D01*
X174543759Y-98122520D01*
X174536021Y-98123652D01*
X173475178Y-97913621D01*
X173467728Y-97908653D01*
X173465975Y-97904427D01*
X173254920Y-96842398D01*
X173256669Y-96833618D01*
X173262744Y-96829005D01*
X174578221Y-96397187D01*
X174581870Y-96396603D01*
X175064144Y-96396603D01*
X175072417Y-96400030D01*
G37*
%TD.AperFunction*%
%TD*%
%TA.AperFunction,Conductor*%
%TO.N,VDD*%
G36*
X152851747Y-94049087D02*
G01*
X152855513Y-94051607D01*
X153197424Y-94393117D01*
X153692712Y-94887823D01*
X153696144Y-94896094D01*
X153692722Y-94904369D01*
X153692712Y-94904379D01*
X152855515Y-95740592D01*
X152847240Y-95744014D01*
X152842792Y-95743133D01*
X152007245Y-95399084D01*
X152000900Y-95392765D01*
X152000000Y-95388265D01*
X152000000Y-94403936D01*
X152003427Y-94395663D01*
X152007242Y-94393118D01*
X152842794Y-94049068D01*
X152851747Y-94049087D01*
G37*
%TD.AperFunction*%
%TD*%
%TA.AperFunction,Conductor*%
%TO.N,/DIN1*%
G36*
X167934624Y-95708356D02*
G01*
X167936263Y-95709268D01*
X168588757Y-96144095D01*
X168592005Y-96147343D01*
X169026832Y-96799837D01*
X169028568Y-96808622D01*
X169023584Y-96816061D01*
X169021945Y-96816973D01*
X167653660Y-97440016D01*
X167644710Y-97440326D01*
X167640538Y-97437641D01*
X167298459Y-97095562D01*
X167295032Y-97087289D01*
X167296083Y-97082443D01*
X167919128Y-95714153D01*
X167925674Y-95708046D01*
X167934624Y-95708356D01*
G37*
%TD.AperFunction*%
%TD*%
%TA.AperFunction,Conductor*%
%TO.N,Net-(JP1-B)*%
G36*
X133224015Y-101563138D02*
G01*
X133916861Y-102255984D01*
X133920288Y-102264257D01*
X133917992Y-102271218D01*
X133178653Y-103269950D01*
X133170976Y-103274561D01*
X133162762Y-103272726D01*
X132591243Y-102892006D01*
X132587993Y-102888756D01*
X132207272Y-102317235D01*
X132205538Y-102308451D01*
X132210047Y-102301347D01*
X133208781Y-101562006D01*
X133217469Y-101559839D01*
X133224015Y-101563138D01*
G37*
%TD.AperFunction*%
%TD*%
%TA.AperFunction,Conductor*%
%TO.N,/PM_LED_K*%
G36*
X155996345Y-111598604D02*
G01*
X156603032Y-111866918D01*
X156609212Y-111873398D01*
X156610000Y-111877618D01*
X156610000Y-112362381D01*
X156606573Y-112370654D01*
X156603032Y-112373081D01*
X155996345Y-112641395D01*
X155987393Y-112641607D01*
X155982555Y-112638100D01*
X155565052Y-112127403D01*
X155562470Y-112118831D01*
X155565052Y-112112596D01*
X155982556Y-111601898D01*
X155990444Y-111597663D01*
X155996345Y-111598604D01*
G37*
%TD.AperFunction*%
%TD*%
%TA.AperFunction,Conductor*%
%TO.N,VDD*%
G36*
X145783364Y-94411584D02*
G01*
X145785372Y-94418139D01*
X145785372Y-95375900D01*
X145781945Y-95384173D01*
X145773672Y-95387600D01*
X145767850Y-95386049D01*
X145001641Y-94946506D01*
X144996170Y-94939417D01*
X144997314Y-94930535D01*
X145000907Y-94926666D01*
X145767118Y-94408446D01*
X145775890Y-94406651D01*
X145783364Y-94411584D01*
G37*
%TD.AperFunction*%
%TD*%
%TA.AperFunction,Conductor*%
%TO.N,VDD*%
G36*
X141920159Y-93239900D02*
G01*
X141922844Y-93244072D01*
X142449809Y-94652154D01*
X142449499Y-94661104D01*
X142442952Y-94667213D01*
X142441148Y-94667727D01*
X141672297Y-94821641D01*
X141667703Y-94821641D01*
X140898851Y-94667727D01*
X140891412Y-94662743D01*
X140889676Y-94653958D01*
X140890190Y-94652154D01*
X141417156Y-93244072D01*
X141423265Y-93237525D01*
X141428114Y-93236473D01*
X141911886Y-93236473D01*
X141920159Y-93239900D01*
G37*
%TD.AperFunction*%
%TD*%
%TA.AperFunction,Conductor*%
%TO.N,/NTC1*%
G36*
X171358751Y-92631653D02*
G01*
X172258510Y-93115000D01*
X172264176Y-93121934D01*
X172263789Y-93129768D01*
X172042562Y-93666207D01*
X172036240Y-93672548D01*
X172036207Y-93672562D01*
X171499768Y-93893789D01*
X171490813Y-93893775D01*
X171485000Y-93888510D01*
X171001653Y-92988751D01*
X171000757Y-92979841D01*
X171003685Y-92974943D01*
X171344942Y-92633686D01*
X171353214Y-92630260D01*
X171358751Y-92631653D01*
G37*
%TD.AperFunction*%
%TD*%
%TA.AperFunction,Conductor*%
%TO.N,/NTC1*%
G36*
X172046999Y-93674228D02*
G01*
X172486954Y-94002905D01*
X172563779Y-94060299D01*
X172568356Y-94067996D01*
X172567644Y-94074007D01*
X172292938Y-94762635D01*
X172286690Y-94769050D01*
X172282071Y-94770000D01*
X171797929Y-94770000D01*
X171789656Y-94766573D01*
X171787062Y-94762635D01*
X171512355Y-94074007D01*
X171512472Y-94065053D01*
X171516218Y-94060300D01*
X172032999Y-93674229D01*
X172041676Y-93672024D01*
X172046999Y-93674228D01*
G37*
%TD.AperFunction*%
%TD*%
%TA.AperFunction,Conductor*%
%TO.N,VDD*%
G36*
X141683138Y-94412183D02*
G01*
X141685372Y-94419059D01*
X141685372Y-95376766D01*
X141681945Y-95385039D01*
X141673672Y-95388466D01*
X141668244Y-95387131D01*
X140902078Y-94985921D01*
X140896339Y-94979047D01*
X140897141Y-94970128D01*
X140900628Y-94966091D01*
X141666797Y-94409592D01*
X141675504Y-94407503D01*
X141683138Y-94412183D01*
G37*
%TD.AperFunction*%
%TD*%
%TA.AperFunction,Conductor*%
%TO.N,/PM_LED_K*%
G36*
X160314624Y-98248356D02*
G01*
X160316263Y-98249268D01*
X160968757Y-98684095D01*
X160972005Y-98687343D01*
X161406832Y-99339837D01*
X161408568Y-99348622D01*
X161403584Y-99356061D01*
X161401945Y-99356973D01*
X160033660Y-99980016D01*
X160024710Y-99980326D01*
X160020538Y-99977641D01*
X159678459Y-99635562D01*
X159675032Y-99627289D01*
X159676083Y-99622443D01*
X160299128Y-98254153D01*
X160305674Y-98248046D01*
X160314624Y-98248356D01*
G37*
%TD.AperFunction*%
%TD*%
%TA.AperFunction,Conductor*%
%TO.N,/NTC1*%
G36*
X172290344Y-92573427D02*
G01*
X172292938Y-92577365D01*
X172567644Y-93265992D01*
X172567527Y-93274946D01*
X172563779Y-93279700D01*
X172047002Y-93665769D01*
X172038324Y-93667975D01*
X172032998Y-93665769D01*
X171516220Y-93279700D01*
X171511643Y-93272003D01*
X171512354Y-93265994D01*
X171787062Y-92577365D01*
X171793310Y-92570950D01*
X171797929Y-92570000D01*
X172282071Y-92570000D01*
X172290344Y-92573427D01*
G37*
%TD.AperFunction*%
%TD*%
%TA.AperFunction,Conductor*%
%TO.N,/NTC2*%
G36*
X175535058Y-92633687D02*
G01*
X175876312Y-92974941D01*
X175879739Y-92983214D01*
X175878346Y-92988751D01*
X175394999Y-93888510D01*
X175388065Y-93894176D01*
X175380231Y-93893789D01*
X174843792Y-93672562D01*
X174837451Y-93666240D01*
X174837437Y-93666207D01*
X174616211Y-93129768D01*
X174616225Y-93120813D01*
X174621489Y-93115000D01*
X175521249Y-92631652D01*
X175530158Y-92630757D01*
X175535058Y-92633687D01*
G37*
%TD.AperFunction*%
%TD*%
%TA.AperFunction,Conductor*%
%TO.N,/DIN1*%
G36*
X172425375Y-107087080D02*
G01*
X173459314Y-108063410D01*
X173462976Y-108071582D01*
X173459788Y-108079950D01*
X173459423Y-108080319D01*
X172435141Y-109072841D01*
X172426815Y-109076138D01*
X172420527Y-109074186D01*
X171759898Y-108635462D01*
X171212154Y-108271705D01*
X171207158Y-108264273D01*
X171208880Y-108255485D01*
X171210349Y-108253690D01*
X171553767Y-107910272D01*
X171553823Y-107910217D01*
X172409232Y-107087156D01*
X172417568Y-107083890D01*
X172425375Y-107087080D01*
G37*
%TD.AperFunction*%
%TD*%
%TA.AperFunction,Conductor*%
%TO.N,/PIR_SIG*%
G36*
X157136507Y-89953357D02*
G01*
X157662793Y-90305801D01*
X157786945Y-90388944D01*
X157791913Y-90396394D01*
X157791097Y-90403483D01*
X157283110Y-91527746D01*
X157276581Y-91533874D01*
X157272448Y-91534628D01*
X156987552Y-91534628D01*
X156979279Y-91531201D01*
X156976890Y-91527746D01*
X156468901Y-90403481D01*
X156468618Y-90394532D01*
X156473053Y-90388945D01*
X157123491Y-89953358D01*
X157132271Y-89951602D01*
X157136507Y-89953357D01*
G37*
%TD.AperFunction*%
%TD*%
%TA.AperFunction,Conductor*%
%TO.N,/NTC2*%
G36*
X174388599Y-86309714D02*
G01*
X174388605Y-86309722D01*
X175369092Y-87782871D01*
X175370823Y-87791657D01*
X175367625Y-87797627D01*
X175024723Y-88140529D01*
X175016450Y-88143956D01*
X175015395Y-88143908D01*
X173328042Y-87991073D01*
X173320111Y-87986914D01*
X173317445Y-87978366D01*
X173317510Y-87977800D01*
X173466066Y-86915591D01*
X173470604Y-86907875D01*
X173471136Y-86907497D01*
X174372375Y-86306470D01*
X174381158Y-86304732D01*
X174388599Y-86309714D01*
G37*
%TD.AperFunction*%
%TD*%
%TA.AperFunction,Conductor*%
%TO.N,/VBAT*%
G36*
X130820146Y-99002093D02*
G01*
X130826523Y-99008381D01*
X130826956Y-99016283D01*
X130332495Y-100671614D01*
X130326843Y-100678560D01*
X130321284Y-100679965D01*
X129338716Y-100679965D01*
X129330443Y-100676538D01*
X129327505Y-100671614D01*
X128833043Y-99016281D01*
X128833959Y-99007375D01*
X128839851Y-99002094D01*
X129825601Y-98601887D01*
X129834399Y-98601887D01*
X130820146Y-99002093D01*
G37*
%TD.AperFunction*%
%TD*%
%TA.AperFunction,Conductor*%
%TO.N,/PIR_SIG*%
G36*
X156680999Y-96792970D02*
G01*
X157116640Y-97443490D01*
X157118397Y-97452271D01*
X157116640Y-97456510D01*
X156681112Y-98106860D01*
X156673662Y-98111828D01*
X156666466Y-98110963D01*
X155542147Y-97589244D01*
X155536085Y-97582653D01*
X155535372Y-97578631D01*
X155535372Y-97293738D01*
X155538799Y-97285465D01*
X155542361Y-97283028D01*
X156666571Y-96788768D01*
X156675522Y-96788577D01*
X156680999Y-96792970D01*
G37*
%TD.AperFunction*%
%TD*%
%TA.AperFunction,Conductor*%
%TO.N,Net-(Q2-G)*%
G36*
X154440272Y-110858515D02*
G01*
X154442902Y-110862544D01*
X154801429Y-111783632D01*
X154801237Y-111792585D01*
X154796818Y-111797740D01*
X154296292Y-112116986D01*
X154287474Y-112118546D01*
X154283708Y-112116986D01*
X153783181Y-111797740D01*
X153778049Y-111790402D01*
X153778570Y-111783632D01*
X154137098Y-110862544D01*
X154143292Y-110856077D01*
X154148001Y-110855088D01*
X154431999Y-110855088D01*
X154440272Y-110858515D01*
G37*
%TD.AperFunction*%
%TD*%
%TA.AperFunction,Conductor*%
%TO.N,/DIN1*%
G36*
X168995082Y-104949656D02*
G01*
X169487215Y-105840214D01*
X169488218Y-105849113D01*
X169485248Y-105854146D01*
X169143982Y-106195412D01*
X169135709Y-106198839D01*
X169130314Y-106197520D01*
X168225825Y-105727407D01*
X168220065Y-105720551D01*
X168220375Y-105712637D01*
X168437467Y-105176302D01*
X168443743Y-105169923D01*
X168980313Y-104944527D01*
X168989265Y-104944483D01*
X168995082Y-104949656D01*
G37*
%TD.AperFunction*%
%TD*%
%TA.AperFunction,Conductor*%
%TO.N,VDD*%
G36*
X149802802Y-94413153D02*
G01*
X149805372Y-94420469D01*
X149805372Y-95378028D01*
X149801945Y-95386301D01*
X149793672Y-95389728D01*
X149788883Y-95388703D01*
X149022835Y-95045008D01*
X149016689Y-95038495D01*
X149016949Y-95029544D01*
X149020305Y-95025206D01*
X149786356Y-94411338D01*
X149794955Y-94408840D01*
X149802802Y-94413153D01*
G37*
%TD.AperFunction*%
%TD*%
%TA.AperFunction,Conductor*%
%TO.N,/NTC2*%
G36*
X168729960Y-85336415D02*
G01*
X168730872Y-85338054D01*
X169353915Y-86706339D01*
X169354225Y-86715289D01*
X169351540Y-86719461D01*
X169009461Y-87061540D01*
X169001188Y-87064967D01*
X168996339Y-87063915D01*
X167628054Y-86440872D01*
X167621945Y-86434325D01*
X167622255Y-86425375D01*
X167623163Y-86423742D01*
X168057994Y-85771241D01*
X168061242Y-85767994D01*
X168713737Y-85333166D01*
X168722521Y-85331431D01*
X168729960Y-85336415D01*
G37*
%TD.AperFunction*%
%TD*%
%TA.AperFunction,Conductor*%
%TO.N,/COM*%
G36*
X169365677Y-94319685D02*
G01*
X169386319Y-94336319D01*
X170243681Y-95193681D01*
X170277166Y-95255004D01*
X170280000Y-95281362D01*
X170280000Y-99500000D01*
X172537833Y-101707881D01*
X173297266Y-102467313D01*
X173255208Y-102478583D01*
X173129792Y-102550991D01*
X173027390Y-102653393D01*
X172954982Y-102778809D01*
X172943712Y-102820866D01*
X172173248Y-102050401D01*
X172173247Y-102050402D01*
X172099059Y-102152514D01*
X171984719Y-102376916D01*
X171906897Y-102616431D01*
X171867500Y-102865172D01*
X171867500Y-103117029D01*
X171906897Y-103365770D01*
X171984719Y-103605285D01*
X172099057Y-103829684D01*
X172173248Y-103931798D01*
X172173248Y-103931799D01*
X172943712Y-103161335D01*
X172954982Y-103203393D01*
X173027390Y-103328809D01*
X173129792Y-103431211D01*
X173255208Y-103503619D01*
X173297265Y-103514888D01*
X172526800Y-104285351D01*
X172610618Y-104346249D01*
X172653283Y-104401579D01*
X172659262Y-104471193D01*
X172626656Y-104532988D01*
X172622978Y-104536437D01*
X172475528Y-104683887D01*
X172355215Y-104849487D01*
X172262281Y-105031877D01*
X172199022Y-105226566D01*
X172167000Y-105428749D01*
X172167000Y-105633452D01*
X172199022Y-105835635D01*
X172262281Y-106030324D01*
X172355215Y-106212714D01*
X172475528Y-106378314D01*
X172475534Y-106378320D01*
X172620281Y-106523067D01*
X172652234Y-106546282D01*
X172694900Y-106601611D01*
X172700881Y-106671224D01*
X172668276Y-106733020D01*
X172607438Y-106767378D01*
X172579357Y-106770601D01*
X172563241Y-106770601D01*
X172552437Y-106771614D01*
X172532800Y-106773455D01*
X172532797Y-106773455D01*
X172532796Y-106773456D01*
X172532794Y-106773456D01*
X172404618Y-106818307D01*
X172295350Y-106898951D01*
X172295345Y-106898956D01*
X172269493Y-106933983D01*
X172255700Y-106949702D01*
X171640613Y-107541528D01*
X171578656Y-107573825D01*
X171509074Y-107567498D01*
X171466957Y-107539854D01*
X169678418Y-105751315D01*
X169657568Y-105723609D01*
X169636443Y-105685382D01*
X169205969Y-104906399D01*
X169190500Y-104846424D01*
X169190500Y-104818230D01*
X169187646Y-104787800D01*
X169187646Y-104787798D01*
X169142793Y-104659619D01*
X169142792Y-104659617D01*
X169104925Y-104608309D01*
X169062150Y-104550350D01*
X168952882Y-104469707D01*
X168952880Y-104469706D01*
X168824700Y-104424853D01*
X168794270Y-104422000D01*
X168794266Y-104422000D01*
X168760026Y-104422000D01*
X168701345Y-104407236D01*
X167875809Y-103963761D01*
X167846809Y-103942206D01*
X167016819Y-103112216D01*
X166983334Y-103050893D01*
X166980500Y-103024535D01*
X166980500Y-102722486D01*
X167390001Y-102722486D01*
X167400494Y-102825197D01*
X167455641Y-102991619D01*
X167455643Y-102991624D01*
X167547684Y-103140845D01*
X167671654Y-103264815D01*
X167820875Y-103356856D01*
X167820880Y-103356858D01*
X167987302Y-103412005D01*
X167987309Y-103412006D01*
X168090019Y-103422499D01*
X168690000Y-103422499D01*
X168789972Y-103422499D01*
X168789986Y-103422498D01*
X168892697Y-103412005D01*
X169059119Y-103356858D01*
X169059124Y-103356856D01*
X169208345Y-103264815D01*
X169332315Y-103140845D01*
X169424356Y-102991624D01*
X169424358Y-102991619D01*
X169479505Y-102825197D01*
X169479506Y-102825190D01*
X169489999Y-102722486D01*
X169490000Y-102722473D01*
X169490000Y-102622500D01*
X168690000Y-102622500D01*
X168690000Y-103422499D01*
X168090019Y-103422499D01*
X168190000Y-103422498D01*
X168190000Y-102622500D01*
X167390001Y-102622500D01*
X167390001Y-102722486D01*
X166980500Y-102722486D01*
X166980500Y-102022513D01*
X167390000Y-102022513D01*
X167390000Y-102122500D01*
X168190000Y-102122500D01*
X168690000Y-102122500D01*
X169489999Y-102122500D01*
X169489999Y-102022528D01*
X169489998Y-102022513D01*
X169479505Y-101919802D01*
X169424358Y-101753380D01*
X169424356Y-101753375D01*
X169332315Y-101604154D01*
X169208345Y-101480184D01*
X169059124Y-101388143D01*
X169059119Y-101388141D01*
X168892697Y-101332994D01*
X168892690Y-101332993D01*
X168789986Y-101322500D01*
X168690000Y-101322500D01*
X168690000Y-102122500D01*
X168190000Y-102122500D01*
X168190000Y-101322499D01*
X168090028Y-101322500D01*
X168090012Y-101322501D01*
X167987302Y-101332994D01*
X167820880Y-101388141D01*
X167820875Y-101388143D01*
X167671654Y-101480184D01*
X167547684Y-101604154D01*
X167455643Y-101753375D01*
X167455641Y-101753380D01*
X167400494Y-101919802D01*
X167400493Y-101919809D01*
X167390000Y-102022513D01*
X166980500Y-102022513D01*
X166980500Y-98444065D01*
X167000185Y-98377026D01*
X167016815Y-98356388D01*
X167115858Y-98257345D01*
X167177180Y-98223861D01*
X167246872Y-98228845D01*
X167302805Y-98270717D01*
X167327222Y-98336181D01*
X167322280Y-98376728D01*
X167323149Y-98376937D01*
X167322010Y-98381682D01*
X167290000Y-98583783D01*
X167290000Y-98788418D01*
X167322009Y-98990518D01*
X167385244Y-99185132D01*
X167478141Y-99367451D01*
X167478147Y-99367460D01*
X167510523Y-99412022D01*
X167510524Y-99412023D01*
X168190000Y-98732547D01*
X168190000Y-98738762D01*
X168217259Y-98840495D01*
X168269920Y-98931707D01*
X168344394Y-99006181D01*
X168435606Y-99058842D01*
X168537339Y-99086101D01*
X168543553Y-99086101D01*
X167864076Y-99765575D01*
X167908650Y-99797960D01*
X168090968Y-99890856D01*
X168285582Y-99954091D01*
X168487683Y-99986101D01*
X168692317Y-99986101D01*
X168894417Y-99954091D01*
X169089031Y-99890856D01*
X169271349Y-99797960D01*
X169315921Y-99765575D01*
X168636447Y-99086101D01*
X168642661Y-99086101D01*
X168744394Y-99058842D01*
X168835606Y-99006181D01*
X168910080Y-98931707D01*
X168962741Y-98840495D01*
X168990000Y-98738762D01*
X168990000Y-98732549D01*
X169669474Y-99412023D01*
X169669474Y-99412022D01*
X169701859Y-99367450D01*
X169794755Y-99185132D01*
X169857990Y-98990518D01*
X169890000Y-98788418D01*
X169890000Y-98583783D01*
X169857990Y-98381683D01*
X169794755Y-98187069D01*
X169701859Y-98004751D01*
X169669474Y-97960178D01*
X169669474Y-97960177D01*
X168990000Y-98639652D01*
X168990000Y-98633440D01*
X168962741Y-98531707D01*
X168910080Y-98440495D01*
X168835606Y-98366021D01*
X168744394Y-98313360D01*
X168642661Y-98286101D01*
X168636446Y-98286101D01*
X169315922Y-97606625D01*
X169315921Y-97606624D01*
X169271359Y-97574248D01*
X169271350Y-97574242D01*
X169089031Y-97481345D01*
X168894418Y-97418111D01*
X168784632Y-97400722D01*
X168753776Y-97386094D01*
X168722725Y-97371872D01*
X168722266Y-97371156D01*
X168721498Y-97370792D01*
X168703447Y-97341802D01*
X168685015Y-97313052D01*
X168685015Y-97312202D01*
X168684567Y-97311481D01*
X168685054Y-97277327D01*
X168685093Y-97243183D01*
X168685552Y-97242469D01*
X168685565Y-97241618D01*
X168704448Y-97213137D01*
X168722932Y-97184446D01*
X168723871Y-97183843D01*
X168724175Y-97183386D01*
X168752637Y-97165401D01*
X168863954Y-97114714D01*
X168879344Y-97108907D01*
X168881826Y-97108153D01*
X168881835Y-97108152D01*
X169063914Y-97032733D01*
X169106523Y-97004262D01*
X169107106Y-97003997D01*
X169121866Y-96996545D01*
X169123505Y-96995633D01*
X169127773Y-96993191D01*
X169139149Y-96982462D01*
X169227782Y-96923240D01*
X169367139Y-96783883D01*
X169476632Y-96620015D01*
X169552051Y-96437936D01*
X169567691Y-96359309D01*
X169590500Y-96244644D01*
X169590500Y-96047557D01*
X169552052Y-95854271D01*
X169552051Y-95854268D01*
X169552051Y-95854266D01*
X169552049Y-95854261D01*
X169476635Y-95672193D01*
X169476628Y-95672180D01*
X169367139Y-95508319D01*
X169367136Y-95508315D01*
X169227785Y-95368964D01*
X169227781Y-95368961D01*
X169063920Y-95259472D01*
X169063907Y-95259465D01*
X168881839Y-95184051D01*
X168881829Y-95184048D01*
X168688543Y-95145601D01*
X168688541Y-95145601D01*
X168491459Y-95145601D01*
X168491457Y-95145601D01*
X168298170Y-95184048D01*
X168298160Y-95184051D01*
X168116092Y-95259465D01*
X168116079Y-95259472D01*
X167952218Y-95368961D01*
X167952214Y-95368964D01*
X167812863Y-95508315D01*
X167812860Y-95508319D01*
X167735059Y-95624757D01*
X167733870Y-95626537D01*
X167732104Y-95628992D01*
X167731834Y-95629583D01*
X167729105Y-95633667D01*
X167703366Y-95672190D01*
X167627947Y-95854268D01*
X167627189Y-95856769D01*
X167621384Y-95872145D01*
X167124497Y-96963374D01*
X167099327Y-96999669D01*
X166169513Y-97929484D01*
X166169509Y-97929490D01*
X166110201Y-98032213D01*
X166110200Y-98032218D01*
X166079500Y-98146792D01*
X166079500Y-103321808D01*
X166103712Y-103412172D01*
X166110200Y-103436385D01*
X166110200Y-103436386D01*
X166110201Y-103436387D01*
X166169511Y-103539114D01*
X166169513Y-103539116D01*
X167209706Y-104579309D01*
X167231261Y-104608309D01*
X167369111Y-104864918D01*
X167671999Y-105428749D01*
X167674736Y-105433843D01*
X167689500Y-105492524D01*
X167689500Y-105526769D01*
X167692353Y-105557199D01*
X167692353Y-105557201D01*
X167737206Y-105685380D01*
X167737207Y-105685382D01*
X167817850Y-105794650D01*
X167927118Y-105875293D01*
X167969845Y-105890244D01*
X168055299Y-105920146D01*
X168085730Y-105923000D01*
X168085734Y-105923000D01*
X168126248Y-105923000D01*
X168183434Y-105936973D01*
X168713953Y-106212714D01*
X168973445Y-106347586D01*
X169023851Y-106395970D01*
X169040097Y-106463924D01*
X169017025Y-106529875D01*
X168961961Y-106572882D01*
X168892386Y-106579292D01*
X168877256Y-106575319D01*
X168862695Y-106570494D01*
X168862690Y-106570493D01*
X168759986Y-106560000D01*
X168660000Y-106560000D01*
X168660000Y-107360000D01*
X169459999Y-107360000D01*
X169459999Y-107260028D01*
X169459998Y-107260013D01*
X169449505Y-107157301D01*
X169435321Y-107114497D01*
X169432918Y-107044668D01*
X169468649Y-106984626D01*
X169531169Y-106953433D01*
X169600628Y-106960992D01*
X169640707Y-106987810D01*
X171123386Y-108470489D01*
X171182696Y-108504731D01*
X171226114Y-108529799D01*
X171228284Y-108530380D01*
X171236908Y-108535234D01*
X171238165Y-108536524D01*
X171244686Y-108539998D01*
X171671332Y-108823333D01*
X172269183Y-109220367D01*
X172287580Y-109237880D01*
X172288780Y-109236681D01*
X172295348Y-109243249D01*
X172295349Y-109243249D01*
X172295350Y-109243251D01*
X172404617Y-109323894D01*
X172447344Y-109338845D01*
X172532798Y-109368747D01*
X172539823Y-109369405D01*
X172563233Y-109371601D01*
X174371766Y-109371600D01*
X174402200Y-109368747D01*
X174530383Y-109323894D01*
X174639650Y-109243251D01*
X174720293Y-109133984D01*
X174748492Y-109053397D01*
X174765146Y-109005803D01*
X174765146Y-109005801D01*
X174765499Y-109002035D01*
X174768000Y-108975368D01*
X174767999Y-107166835D01*
X174767999Y-107164464D01*
X174787684Y-107097425D01*
X174840487Y-107051670D01*
X174909646Y-107041726D01*
X174973202Y-107070751D01*
X174979680Y-107076783D01*
X175293181Y-107390284D01*
X175326666Y-107451607D01*
X175329500Y-107477965D01*
X175329500Y-109002035D01*
X175309815Y-109069074D01*
X175293181Y-109089716D01*
X174629716Y-109753181D01*
X174568393Y-109786666D01*
X174542035Y-109789500D01*
X169564139Y-109789500D01*
X169539200Y-109786248D01*
X169539153Y-109786543D01*
X169533142Y-109785566D01*
X169533139Y-109785565D01*
X168822613Y-109670103D01*
X168818366Y-109669413D01*
X168811850Y-109668355D01*
X168794699Y-109662354D01*
X168764266Y-109659500D01*
X168757355Y-109659500D01*
X168751127Y-109658488D01*
X168750991Y-109658481D01*
X168750990Y-109658481D01*
X168705450Y-109656221D01*
X168705444Y-109656221D01*
X168700289Y-109656540D01*
X168692757Y-109657642D01*
X168688973Y-109658195D01*
X168671035Y-109659500D01*
X168055730Y-109659500D01*
X168025300Y-109662353D01*
X168025298Y-109662353D01*
X167897119Y-109707206D01*
X167897117Y-109707207D01*
X167787850Y-109787850D01*
X167707207Y-109897117D01*
X167707206Y-109897119D01*
X167662353Y-110025298D01*
X167662353Y-110025300D01*
X167659500Y-110055730D01*
X167659500Y-110764269D01*
X167662353Y-110794699D01*
X167662353Y-110794701D01*
X167707206Y-110922880D01*
X167707207Y-110922882D01*
X167787850Y-111032150D01*
X167897118Y-111112793D01*
X167939845Y-111127744D01*
X168025299Y-111157646D01*
X168055730Y-111160500D01*
X168055734Y-111160500D01*
X168764270Y-111160500D01*
X168794699Y-111157646D01*
X168794701Y-111157646D01*
X168880154Y-111127744D01*
X168922882Y-111112793D01*
X168976056Y-111073547D01*
X168993637Y-111062711D01*
X168993657Y-111062700D01*
X168993669Y-111062696D01*
X169547269Y-110709926D01*
X169613906Y-110690500D01*
X174839308Y-110690500D01*
X174839309Y-110690500D01*
X174929673Y-110666286D01*
X174953887Y-110659799D01*
X175056614Y-110600489D01*
X176140490Y-109516613D01*
X176199799Y-109413886D01*
X176211129Y-109371601D01*
X176230500Y-109299309D01*
X176230500Y-107180691D01*
X176202658Y-107076783D01*
X176199800Y-107066117D01*
X176199799Y-107066114D01*
X176199799Y-107066113D01*
X176140489Y-106963386D01*
X175537263Y-106360160D01*
X175520177Y-106338810D01*
X174593366Y-104874956D01*
X174587647Y-104864918D01*
X174579784Y-104849486D01*
X174459471Y-104683887D01*
X174311274Y-104535690D01*
X174312534Y-104534429D01*
X174278536Y-104482331D01*
X174278048Y-104412463D01*
X174315411Y-104353422D01*
X174324381Y-104346248D01*
X174408197Y-104285351D01*
X174408198Y-104285351D01*
X173637734Y-103514888D01*
X173679792Y-103503619D01*
X173805208Y-103431211D01*
X173907610Y-103328809D01*
X173980018Y-103203393D01*
X173991287Y-103161335D01*
X174761750Y-103931799D01*
X174761750Y-103931798D01*
X174835942Y-103829682D01*
X174835946Y-103829676D01*
X174950280Y-103605285D01*
X175028102Y-103365770D01*
X175067500Y-103117029D01*
X175067500Y-102865172D01*
X175028102Y-102616431D01*
X174950280Y-102376916D01*
X174835942Y-102152517D01*
X174761750Y-102050402D01*
X174761750Y-102050401D01*
X173991287Y-102820865D01*
X173980018Y-102778809D01*
X173907610Y-102653393D01*
X173805208Y-102550991D01*
X173679792Y-102478583D01*
X173637732Y-102467312D01*
X174426336Y-101678710D01*
X174433987Y-101674532D01*
X175157281Y-101660987D01*
X175224678Y-101679413D01*
X175247284Y-101697284D01*
X177373681Y-103823681D01*
X177407166Y-103885004D01*
X177410000Y-103911362D01*
X177410000Y-109358638D01*
X177390315Y-109425677D01*
X177373681Y-109446319D01*
X174476319Y-112343681D01*
X174414996Y-112377166D01*
X174388638Y-112380000D01*
X167981362Y-112380000D01*
X167914323Y-112360315D01*
X167893681Y-112343681D01*
X165696319Y-110146319D01*
X165662834Y-110084996D01*
X165660000Y-110058638D01*
X165660000Y-107959986D01*
X167360001Y-107959986D01*
X167370494Y-108062697D01*
X167425641Y-108229119D01*
X167425643Y-108229124D01*
X167517684Y-108378345D01*
X167641654Y-108502315D01*
X167790875Y-108594356D01*
X167790880Y-108594358D01*
X167957302Y-108649505D01*
X167957309Y-108649506D01*
X168060019Y-108659999D01*
X168660000Y-108659999D01*
X168759972Y-108659999D01*
X168759986Y-108659998D01*
X168862697Y-108649505D01*
X169029119Y-108594358D01*
X169029124Y-108594356D01*
X169178345Y-108502315D01*
X169302315Y-108378345D01*
X169394356Y-108229124D01*
X169394358Y-108229119D01*
X169449505Y-108062697D01*
X169449506Y-108062690D01*
X169459999Y-107959986D01*
X169460000Y-107959973D01*
X169460000Y-107860000D01*
X168660000Y-107860000D01*
X168660000Y-108659999D01*
X168060019Y-108659999D01*
X168160000Y-108659998D01*
X168160000Y-107860000D01*
X167360001Y-107860000D01*
X167360001Y-107959986D01*
X165660000Y-107959986D01*
X165660000Y-107260013D01*
X167360000Y-107260013D01*
X167360000Y-107360000D01*
X168160000Y-107360000D01*
X168160000Y-106559999D01*
X168060028Y-106560000D01*
X168060012Y-106560001D01*
X167957302Y-106570494D01*
X167790880Y-106625641D01*
X167790875Y-106625643D01*
X167641654Y-106717684D01*
X167517684Y-106841654D01*
X167425643Y-106990875D01*
X167425641Y-106990880D01*
X167370494Y-107157302D01*
X167370493Y-107157309D01*
X167360000Y-107260013D01*
X165660000Y-107260013D01*
X165660000Y-96551362D01*
X165679685Y-96484323D01*
X165696319Y-96463681D01*
X167823681Y-94336319D01*
X167885004Y-94302834D01*
X167911362Y-94300000D01*
X169298638Y-94300000D01*
X169365677Y-94319685D01*
G37*
%TD.AperFunction*%
%TD*%
%TA.AperFunction,Conductor*%
%TO.N,GND*%
G36*
X161833039Y-77941286D02*
G01*
X161878794Y-77994090D01*
X161890000Y-78045601D01*
X161890000Y-94756356D01*
X161870315Y-94823395D01*
X161817511Y-94869150D01*
X161748353Y-94879094D01*
X161726998Y-94874062D01*
X161672797Y-94856102D01*
X161672795Y-94856101D01*
X161570016Y-94845601D01*
X161570009Y-94845601D01*
X161443491Y-94845601D01*
X161392516Y-94834639D01*
X160423525Y-94397668D01*
X160370504Y-94352164D01*
X160350501Y-94285219D01*
X160350500Y-94284630D01*
X160350500Y-88276079D01*
X160321659Y-88131092D01*
X160321658Y-88131091D01*
X160321658Y-88131087D01*
X160295799Y-88068657D01*
X160265087Y-87994511D01*
X160265080Y-87994498D01*
X160182951Y-87871584D01*
X160182948Y-87871580D01*
X160078419Y-87767051D01*
X160078415Y-87767048D01*
X159968024Y-87693287D01*
X159949234Y-87677866D01*
X158871194Y-86599826D01*
X158846025Y-86563534D01*
X158361894Y-85500320D01*
X158356825Y-85487278D01*
X158335220Y-85420781D01*
X158335220Y-85420780D01*
X158242286Y-85238389D01*
X158227467Y-85217992D01*
X158203850Y-85185486D01*
X158188243Y-85162738D01*
X158185583Y-85160343D01*
X158179540Y-85152025D01*
X158179535Y-85152020D01*
X158121966Y-85072781D01*
X157977219Y-84928034D01*
X157977213Y-84928028D01*
X157811613Y-84807715D01*
X157811612Y-84807714D01*
X157811610Y-84807713D01*
X157754653Y-84778691D01*
X157629223Y-84714781D01*
X157434534Y-84651522D01*
X157259995Y-84623878D01*
X157232352Y-84619500D01*
X157027648Y-84619500D01*
X157003329Y-84623351D01*
X156825465Y-84651522D01*
X156630776Y-84714781D01*
X156448386Y-84807715D01*
X156282786Y-84928028D01*
X156138028Y-85072786D01*
X156017715Y-85238386D01*
X155924781Y-85420776D01*
X155861522Y-85615465D01*
X155829500Y-85817648D01*
X155829500Y-86022351D01*
X155861522Y-86224534D01*
X155924781Y-86419223D01*
X155988691Y-86544653D01*
X156008718Y-86583957D01*
X156017715Y-86601613D01*
X156138028Y-86767213D01*
X156282786Y-86911971D01*
X156437749Y-87024556D01*
X156448390Y-87032287D01*
X156630781Y-87125220D01*
X156697278Y-87146825D01*
X156710320Y-87151894D01*
X157773534Y-87636025D01*
X157809826Y-87661194D01*
X158813181Y-88664549D01*
X158846666Y-88725872D01*
X158849500Y-88752230D01*
X158849500Y-94489485D01*
X158840062Y-94536936D01*
X158838342Y-94541088D01*
X158838340Y-94541093D01*
X158809500Y-94686080D01*
X158809500Y-94686083D01*
X158809500Y-94833917D01*
X158809500Y-94833919D01*
X158809499Y-94833919D01*
X158838340Y-94978906D01*
X158838342Y-94978912D01*
X158871268Y-95058404D01*
X158894916Y-95115494D01*
X158977048Y-95238416D01*
X158977052Y-95238420D01*
X158977052Y-95238421D01*
X159050062Y-95311431D01*
X159074502Y-95346151D01*
X159516414Y-96281706D01*
X159611866Y-96483784D01*
X159657621Y-96580649D01*
X159669500Y-96633609D01*
X159669500Y-96746101D01*
X159669501Y-96746120D01*
X159680000Y-96848897D01*
X159680001Y-96848900D01*
X159735185Y-97015432D01*
X159735187Y-97015437D01*
X159765016Y-97063797D01*
X159827288Y-97164757D01*
X159951344Y-97288813D01*
X160100666Y-97380915D01*
X160182570Y-97408055D01*
X160240015Y-97447828D01*
X160266838Y-97512344D01*
X160254523Y-97581119D01*
X160216451Y-97626079D01*
X160122787Y-97694129D01*
X160122782Y-97694133D01*
X159978028Y-97838887D01*
X159857715Y-98004487D01*
X159764780Y-98186880D01*
X159743175Y-98253370D01*
X159738096Y-98266435D01*
X159262736Y-99310390D01*
X159218776Y-99362106D01*
X159121584Y-99427048D01*
X159121580Y-99427051D01*
X159017051Y-99531580D01*
X159017048Y-99531584D01*
X158934919Y-99654498D01*
X158934912Y-99654511D01*
X158878343Y-99791082D01*
X158878340Y-99791092D01*
X158849500Y-99936079D01*
X158849500Y-109037769D01*
X158829815Y-109104808D01*
X158813181Y-109125450D01*
X156677979Y-111260651D01*
X156659178Y-111270916D01*
X156643159Y-111285138D01*
X156629123Y-111287328D01*
X156616656Y-111294136D01*
X156595290Y-111292608D01*
X156574125Y-111295911D01*
X156551094Y-111289447D01*
X156546964Y-111289152D01*
X156540144Y-111286374D01*
X156312995Y-111185915D01*
X156275470Y-111160194D01*
X156213718Y-111098442D01*
X156213717Y-111098441D01*
X156213716Y-111098440D01*
X156045762Y-110986217D01*
X156045752Y-110986212D01*
X155859127Y-110908909D01*
X155859119Y-110908907D01*
X155661007Y-110869500D01*
X155661003Y-110869500D01*
X155458997Y-110869500D01*
X155458992Y-110869500D01*
X155260880Y-110908907D01*
X155260868Y-110908910D01*
X155156193Y-110952268D01*
X155145864Y-110953378D01*
X155136817Y-110958487D01*
X155111717Y-110957049D01*
X155086724Y-110959737D01*
X155077434Y-110955086D01*
X155067062Y-110954493D01*
X155046721Y-110939712D01*
X155024245Y-110928461D01*
X155017443Y-110918437D01*
X155010539Y-110913420D01*
X154993186Y-110882686D01*
X154988169Y-110869797D01*
X154959243Y-110795484D01*
X154953271Y-110725874D01*
X154985881Y-110664081D01*
X154987047Y-110662898D01*
X156355753Y-109294191D01*
X156399629Y-109265868D01*
X157429958Y-108876855D01*
X157435429Y-108874936D01*
X157619213Y-108815222D01*
X157619219Y-108815220D01*
X157801610Y-108722287D01*
X157894590Y-108654732D01*
X157967213Y-108601971D01*
X157967215Y-108601968D01*
X157967219Y-108601966D01*
X158111966Y-108457219D01*
X158111968Y-108457215D01*
X158111971Y-108457213D01*
X158172247Y-108374248D01*
X158232287Y-108291610D01*
X158325220Y-108109219D01*
X158388477Y-107914534D01*
X158420500Y-107712352D01*
X158420500Y-107507648D01*
X158388477Y-107305466D01*
X158384932Y-107294557D01*
X158325218Y-107110776D01*
X158291503Y-107044607D01*
X158232287Y-106928390D01*
X158224556Y-106917749D01*
X158111971Y-106762786D01*
X157967213Y-106618028D01*
X157801613Y-106497715D01*
X157801612Y-106497714D01*
X157801610Y-106497713D01*
X157744653Y-106468691D01*
X157619223Y-106404781D01*
X157424534Y-106341522D01*
X157249995Y-106313878D01*
X157222352Y-106309500D01*
X157017648Y-106309500D01*
X156993329Y-106313351D01*
X156815465Y-106341522D01*
X156620776Y-106404781D01*
X156438386Y-106497715D01*
X156272786Y-106618028D01*
X156128028Y-106762786D01*
X156007715Y-106928386D01*
X155914782Y-107110775D01*
X155855066Y-107294557D01*
X155853142Y-107300037D01*
X155464130Y-108330367D01*
X155435804Y-108374248D01*
X153784726Y-110025326D01*
X153720360Y-110121657D01*
X153720360Y-110121658D01*
X153713535Y-110131873D01*
X153713534Y-110131875D01*
X153664499Y-110250255D01*
X153664497Y-110250261D01*
X153639500Y-110375928D01*
X153639500Y-110724045D01*
X153638248Y-110730711D01*
X153639046Y-110734647D01*
X153631054Y-110769025D01*
X153622508Y-110790980D01*
X153579847Y-110846313D01*
X153514042Y-110869797D01*
X153506954Y-110870000D01*
X153270000Y-110870000D01*
X153270000Y-111754134D01*
X153267617Y-111778326D01*
X153264500Y-111793995D01*
X153264500Y-111834170D01*
X153250255Y-111819925D01*
X153164745Y-111770556D01*
X153069370Y-111745000D01*
X152970630Y-111745000D01*
X152875255Y-111770556D01*
X152789745Y-111819925D01*
X152770000Y-111839670D01*
X152770000Y-110870000D01*
X152447155Y-110870000D01*
X152387627Y-110876401D01*
X152387620Y-110876403D01*
X152252913Y-110926645D01*
X152252906Y-110926649D01*
X152137812Y-111012809D01*
X152137809Y-111012812D01*
X152051649Y-111127906D01*
X152051645Y-111127913D01*
X152001403Y-111262620D01*
X152001401Y-111262627D01*
X151995000Y-111322155D01*
X151995000Y-111870000D01*
X152739670Y-111870000D01*
X152719925Y-111889745D01*
X152670556Y-111975255D01*
X152645000Y-112070630D01*
X152645000Y-112169370D01*
X152670556Y-112264745D01*
X152719925Y-112350255D01*
X152739670Y-112370000D01*
X151995000Y-112370000D01*
X151995000Y-112917844D01*
X152001401Y-112977372D01*
X152001403Y-112977379D01*
X152051645Y-113112086D01*
X152051649Y-113112093D01*
X152137809Y-113227187D01*
X152137812Y-113227190D01*
X152252906Y-113313350D01*
X152252913Y-113313354D01*
X152387620Y-113363596D01*
X152387627Y-113363598D01*
X152447155Y-113369999D01*
X152447172Y-113370000D01*
X152770000Y-113370000D01*
X152770000Y-112400330D01*
X152789745Y-112420075D01*
X152875255Y-112469444D01*
X152970630Y-112495000D01*
X153069370Y-112495000D01*
X153164745Y-112469444D01*
X153250255Y-112420075D01*
X153264500Y-112405830D01*
X153264500Y-112446002D01*
X153267617Y-112461671D01*
X153270000Y-112485865D01*
X153270000Y-113370000D01*
X153592828Y-113370000D01*
X153592844Y-113369999D01*
X153652372Y-113363598D01*
X153652376Y-113363597D01*
X153787089Y-113313352D01*
X153787896Y-113312748D01*
X153788845Y-113312393D01*
X153794876Y-113309101D01*
X153795349Y-113309967D01*
X153853360Y-113288329D01*
X153909661Y-113297451D01*
X153990873Y-113331091D01*
X154154288Y-113363596D01*
X154188992Y-113370499D01*
X154188996Y-113370500D01*
X154188997Y-113370500D01*
X154391004Y-113370500D01*
X154391005Y-113370499D01*
X154589127Y-113331091D01*
X154775756Y-113253786D01*
X154856110Y-113200094D01*
X154922786Y-113179217D01*
X154990166Y-113197701D01*
X154993865Y-113200078D01*
X155074244Y-113253786D01*
X155260873Y-113331091D01*
X155424288Y-113363596D01*
X155458992Y-113370499D01*
X155458996Y-113370500D01*
X155458997Y-113370500D01*
X155661004Y-113370500D01*
X155661005Y-113370499D01*
X155859127Y-113331091D01*
X156045756Y-113253786D01*
X156213718Y-113141558D01*
X156275473Y-113079801D01*
X156312995Y-113054082D01*
X156679022Y-112892203D01*
X156748291Y-112883091D01*
X156753346Y-112883987D01*
X156768158Y-112886934D01*
X156786080Y-112890500D01*
X156786083Y-112890500D01*
X156933919Y-112890500D01*
X157031461Y-112871096D01*
X157078912Y-112861658D01*
X157215494Y-112805084D01*
X157338416Y-112722952D01*
X160182951Y-109878416D01*
X160265084Y-109755495D01*
X160321658Y-109618913D01*
X160350500Y-109473918D01*
X160350500Y-109326083D01*
X160350500Y-100470968D01*
X160370185Y-100403929D01*
X160422988Y-100358174D01*
X161389677Y-99917996D01*
X161402709Y-99912930D01*
X161469219Y-99891321D01*
X161651610Y-99798388D01*
X161693114Y-99768232D01*
X161758920Y-99744753D01*
X161826974Y-99760578D01*
X161875669Y-99810683D01*
X161890000Y-99868551D01*
X161890000Y-116796601D01*
X161870315Y-116863640D01*
X161817511Y-116909395D01*
X161766000Y-116920601D01*
X130797364Y-116920601D01*
X130730325Y-116900916D01*
X130684570Y-116848112D01*
X130674626Y-116778954D01*
X130695788Y-116725479D01*
X130725194Y-116683483D01*
X130949460Y-116295044D01*
X131139018Y-115888537D01*
X131292424Y-115467055D01*
X131408513Y-115033807D01*
X131486399Y-114592090D01*
X131525492Y-114145266D01*
X131525492Y-113696734D01*
X131486399Y-113249910D01*
X131482392Y-113227187D01*
X131438345Y-112977379D01*
X131408513Y-112808193D01*
X131292424Y-112374945D01*
X131217601Y-112169370D01*
X131139020Y-111953467D01*
X131139016Y-111953457D01*
X130949464Y-111546965D01*
X130949456Y-111546949D01*
X130853559Y-111380851D01*
X130818861Y-111320753D01*
X130725194Y-111158517D01*
X130562839Y-110926649D01*
X130467927Y-110791099D01*
X130299493Y-110590368D01*
X130179617Y-110447506D01*
X129862458Y-110130347D01*
X129737299Y-110025326D01*
X129518864Y-109842036D01*
X129151464Y-109584782D01*
X129151447Y-109584770D01*
X128959446Y-109473918D01*
X128763014Y-109360507D01*
X128762998Y-109360499D01*
X128356506Y-109170947D01*
X128356496Y-109170943D01*
X127935015Y-109017538D01*
X127501772Y-108901451D01*
X127501761Y-108901449D01*
X127060059Y-108823565D01*
X126613231Y-108784472D01*
X126613230Y-108784472D01*
X126164698Y-108784472D01*
X126164697Y-108784472D01*
X125717869Y-108823565D01*
X125717867Y-108823565D01*
X125276166Y-108901449D01*
X125276155Y-108901451D01*
X124842912Y-109017538D01*
X124421431Y-109170943D01*
X124421421Y-109170947D01*
X124014929Y-109360499D01*
X124014913Y-109360507D01*
X123626489Y-109584765D01*
X123626464Y-109584781D01*
X123615490Y-109592465D01*
X123549283Y-109614790D01*
X123481516Y-109597776D01*
X123433706Y-109546826D01*
X123420371Y-109490887D01*
X123420371Y-95982254D01*
X126489500Y-95982254D01*
X126489500Y-96139947D01*
X126520261Y-96294590D01*
X126520264Y-96294602D01*
X126580602Y-96440273D01*
X126580609Y-96440286D01*
X126668210Y-96571389D01*
X126668213Y-96571393D01*
X126779707Y-96682887D01*
X126779711Y-96682890D01*
X126910814Y-96770491D01*
X126910827Y-96770498D01*
X127056498Y-96830836D01*
X127056503Y-96830838D01*
X127211153Y-96861600D01*
X127211156Y-96861601D01*
X127211158Y-96861601D01*
X127368844Y-96861601D01*
X127368845Y-96861600D01*
X127523497Y-96830838D01*
X127648552Y-96779039D01*
X127669172Y-96770498D01*
X127669172Y-96770497D01*
X127669179Y-96770495D01*
X127800289Y-96682890D01*
X127911789Y-96571390D01*
X127976327Y-96474802D01*
X128002779Y-96435215D01*
X128005214Y-96436842D01*
X128045130Y-96395849D01*
X128113199Y-96380090D01*
X128178983Y-96403634D01*
X128221595Y-96459005D01*
X128230000Y-96503881D01*
X128230000Y-96961072D01*
X128230001Y-96961088D01*
X128240494Y-97063797D01*
X128240494Y-97063799D01*
X128295640Y-97230220D01*
X128295645Y-97230231D01*
X128387680Y-97379441D01*
X128387683Y-97379445D01*
X128516425Y-97508187D01*
X128549910Y-97569510D01*
X128544926Y-97639202D01*
X128529063Y-97668752D01*
X128461130Y-97762255D01*
X128461129Y-97762257D01*
X128346760Y-97986717D01*
X128268910Y-98226312D01*
X128263642Y-98259573D01*
X128233711Y-98322707D01*
X128174398Y-98359637D01*
X128104536Y-98358637D01*
X128046304Y-98320026D01*
X128026610Y-98287628D01*
X127999394Y-98221922D01*
X127999390Y-98221915D01*
X127911789Y-98090812D01*
X127911786Y-98090808D01*
X127800292Y-97979314D01*
X127800288Y-97979311D01*
X127669185Y-97891710D01*
X127669172Y-97891703D01*
X127523501Y-97831365D01*
X127523489Y-97831362D01*
X127368845Y-97800601D01*
X127368842Y-97800601D01*
X127211158Y-97800601D01*
X127211155Y-97800601D01*
X127056510Y-97831362D01*
X127056498Y-97831365D01*
X126910827Y-97891703D01*
X126910814Y-97891710D01*
X126779711Y-97979311D01*
X126779707Y-97979314D01*
X126668213Y-98090808D01*
X126668210Y-98090812D01*
X126580609Y-98221915D01*
X126580602Y-98221928D01*
X126520264Y-98367599D01*
X126520261Y-98367611D01*
X126489500Y-98522254D01*
X126489500Y-98679947D01*
X126520261Y-98834590D01*
X126520264Y-98834602D01*
X126580602Y-98980273D01*
X126580609Y-98980286D01*
X126668210Y-99111389D01*
X126668213Y-99111393D01*
X126779707Y-99222887D01*
X126779711Y-99222890D01*
X126910814Y-99310491D01*
X126910827Y-99310498D01*
X127056498Y-99370836D01*
X127056503Y-99370838D01*
X127211153Y-99401600D01*
X127211156Y-99401601D01*
X127211158Y-99401601D01*
X127368844Y-99401601D01*
X127368845Y-99401600D01*
X127523497Y-99370838D01*
X127669179Y-99310495D01*
X127800289Y-99222890D01*
X127911789Y-99111390D01*
X127999394Y-98980280D01*
X128026609Y-98914576D01*
X128070447Y-98860174D01*
X128136741Y-98838108D01*
X128204440Y-98855386D01*
X128252052Y-98906522D01*
X128263642Y-98942629D01*
X128268910Y-98975888D01*
X128346760Y-99215484D01*
X128385678Y-99291863D01*
X128394006Y-99312668D01*
X128824313Y-100753225D01*
X128829500Y-100788715D01*
X128829500Y-101515794D01*
X128828603Y-101530680D01*
X128824897Y-101561322D01*
X128824897Y-101561328D01*
X128829469Y-101764791D01*
X128829500Y-101767576D01*
X128829500Y-102768543D01*
X128847117Y-102857106D01*
X128849292Y-102874122D01*
X128849500Y-102877710D01*
X128849500Y-102984481D01*
X128859188Y-103045655D01*
X128859588Y-103051738D01*
X128859590Y-103051766D01*
X128860632Y-103067595D01*
X128860851Y-103069598D01*
X128869119Y-103109278D01*
X128870199Y-103115173D01*
X128879060Y-103171118D01*
X128937453Y-103350832D01*
X129023240Y-103519199D01*
X129134310Y-103672073D01*
X129267927Y-103805690D01*
X129420801Y-103916760D01*
X129500347Y-103957290D01*
X129589163Y-104002545D01*
X129589165Y-104002545D01*
X129589168Y-104002547D01*
X129685497Y-104033846D01*
X129768881Y-104060940D01*
X129955514Y-104090500D01*
X129955519Y-104090500D01*
X130144486Y-104090500D01*
X130331118Y-104060940D01*
X130510832Y-104002547D01*
X130679199Y-103916760D01*
X130832073Y-103805690D01*
X130965690Y-103672073D01*
X131076760Y-103519199D01*
X131162547Y-103350832D01*
X131202069Y-103229195D01*
X131241507Y-103171521D01*
X131305866Y-103144323D01*
X131374712Y-103156238D01*
X131426188Y-103203482D01*
X131437931Y-103229196D01*
X131477454Y-103350836D01*
X131563240Y-103519199D01*
X131674310Y-103672073D01*
X131807927Y-103805690D01*
X131960801Y-103916760D01*
X132040347Y-103957290D01*
X132129163Y-104002545D01*
X132129165Y-104002545D01*
X132129168Y-104002547D01*
X132225497Y-104033846D01*
X132308881Y-104060940D01*
X132495514Y-104090500D01*
X132495519Y-104090500D01*
X132684486Y-104090500D01*
X132871118Y-104060940D01*
X133050832Y-104002547D01*
X133219199Y-103916760D01*
X133372073Y-103805690D01*
X133505690Y-103672073D01*
X133505693Y-103672069D01*
X133558281Y-103599688D01*
X133570453Y-103585359D01*
X133584941Y-103570716D01*
X133584943Y-103570712D01*
X133584946Y-103570710D01*
X134278374Y-102633996D01*
X134322642Y-102574196D01*
X134334615Y-102560303D01*
X135474350Y-101420570D01*
X136169287Y-100725635D01*
X136372137Y-100522784D01*
X136372137Y-100522783D01*
X136372140Y-100522781D01*
X136412452Y-100462450D01*
X136444292Y-100414798D01*
X136444294Y-100414793D01*
X136444300Y-100414785D01*
X136481632Y-100358914D01*
X136557051Y-100176835D01*
X136571528Y-100104050D01*
X136603912Y-100042143D01*
X136664627Y-100007568D01*
X136734397Y-100011307D01*
X136791069Y-100052173D01*
X136799877Y-100065123D01*
X136839814Y-100132653D01*
X136839821Y-100132662D01*
X136955938Y-100248779D01*
X136955947Y-100248786D01*
X137097303Y-100332383D01*
X137097306Y-100332384D01*
X137255004Y-100378200D01*
X137255010Y-100378201D01*
X137291850Y-100381100D01*
X137291866Y-100381101D01*
X137620000Y-100381101D01*
X138120000Y-100381101D01*
X138448134Y-100381101D01*
X138448149Y-100381100D01*
X138484989Y-100378201D01*
X138484995Y-100378200D01*
X138642693Y-100332384D01*
X138642696Y-100332383D01*
X138784052Y-100248786D01*
X138784061Y-100248779D01*
X138900178Y-100132662D01*
X138900185Y-100132653D01*
X138983781Y-99991299D01*
X139029600Y-99833587D01*
X139029795Y-99831102D01*
X139029795Y-99831101D01*
X138120000Y-99831101D01*
X138120000Y-100381101D01*
X137620000Y-100381101D01*
X137620000Y-99705101D01*
X137627728Y-99678783D01*
X144470000Y-99678783D01*
X144470000Y-99883418D01*
X144502009Y-100085518D01*
X144565244Y-100280132D01*
X144658141Y-100462451D01*
X144658147Y-100462460D01*
X144690523Y-100507022D01*
X144690524Y-100507023D01*
X145370000Y-99827547D01*
X145370000Y-99833762D01*
X145397259Y-99935495D01*
X145449920Y-100026707D01*
X145524394Y-100101181D01*
X145615606Y-100153842D01*
X145717339Y-100181101D01*
X145723553Y-100181101D01*
X145044076Y-100860575D01*
X145088650Y-100892960D01*
X145270968Y-100985856D01*
X145465582Y-101049091D01*
X145667683Y-101081101D01*
X145872317Y-101081101D01*
X146074417Y-101049091D01*
X146269031Y-100985856D01*
X146451349Y-100892960D01*
X146495921Y-100860575D01*
X146495922Y-100860575D01*
X145816447Y-100181101D01*
X145822661Y-100181101D01*
X145924394Y-100153842D01*
X146015606Y-100101181D01*
X146090080Y-100026707D01*
X146142741Y-99935495D01*
X146170000Y-99833762D01*
X146170000Y-99827549D01*
X146849474Y-100507023D01*
X146849474Y-100507022D01*
X146881859Y-100462450D01*
X146974755Y-100280132D01*
X147037990Y-100085518D01*
X147070000Y-99883418D01*
X147070000Y-99778783D01*
X148490000Y-99778783D01*
X148490000Y-99983418D01*
X148522009Y-100185518D01*
X148585244Y-100380132D01*
X148678141Y-100562451D01*
X148678147Y-100562460D01*
X148710523Y-100607022D01*
X148710524Y-100607023D01*
X149390000Y-99927547D01*
X149390000Y-99933762D01*
X149417259Y-100035495D01*
X149469920Y-100126707D01*
X149544394Y-100201181D01*
X149635606Y-100253842D01*
X149737339Y-100281101D01*
X149743553Y-100281101D01*
X149064076Y-100960575D01*
X149108650Y-100992960D01*
X149290968Y-101085856D01*
X149485582Y-101149091D01*
X149687683Y-101181101D01*
X149892317Y-101181101D01*
X150094417Y-101149091D01*
X150289031Y-101085856D01*
X150471349Y-100992960D01*
X150515921Y-100960575D01*
X149836447Y-100281101D01*
X149842661Y-100281101D01*
X149944394Y-100253842D01*
X150035606Y-100201181D01*
X150110080Y-100126707D01*
X150162741Y-100035495D01*
X150190000Y-99933762D01*
X150190000Y-99927549D01*
X150869474Y-100607023D01*
X150869474Y-100607022D01*
X150901859Y-100562450D01*
X150994755Y-100380132D01*
X151057990Y-100185518D01*
X151060505Y-100169640D01*
X151060505Y-100169639D01*
X151090000Y-99983418D01*
X151090000Y-99778783D01*
X151057990Y-99576683D01*
X150994755Y-99382069D01*
X150901859Y-99199751D01*
X150869474Y-99155178D01*
X150869474Y-99155177D01*
X150190000Y-99834652D01*
X150190000Y-99828440D01*
X150162741Y-99726707D01*
X150110080Y-99635495D01*
X150035606Y-99561021D01*
X149944394Y-99508360D01*
X149842661Y-99481101D01*
X149836446Y-99481101D01*
X150515922Y-98801625D01*
X150515921Y-98801624D01*
X150471359Y-98769248D01*
X150471350Y-98769242D01*
X150289031Y-98676345D01*
X150094417Y-98613110D01*
X149892317Y-98581101D01*
X149687683Y-98581101D01*
X149485582Y-98613110D01*
X149290968Y-98676345D01*
X149108644Y-98769244D01*
X149064077Y-98801624D01*
X149064077Y-98801625D01*
X149743554Y-99481101D01*
X149737339Y-99481101D01*
X149635606Y-99508360D01*
X149544394Y-99561021D01*
X149469920Y-99635495D01*
X149417259Y-99726707D01*
X149390000Y-99828440D01*
X149390000Y-99834654D01*
X148710524Y-99155178D01*
X148710523Y-99155178D01*
X148678143Y-99199745D01*
X148585244Y-99382069D01*
X148522009Y-99576683D01*
X148490000Y-99778783D01*
X147070000Y-99778783D01*
X147070000Y-99678783D01*
X147037990Y-99476683D01*
X146974755Y-99282069D01*
X146881859Y-99099751D01*
X146849474Y-99055178D01*
X146849474Y-99055177D01*
X146170000Y-99734652D01*
X146170000Y-99728440D01*
X146142741Y-99626707D01*
X146090080Y-99535495D01*
X146015606Y-99461021D01*
X145924394Y-99408360D01*
X145822661Y-99381101D01*
X145816446Y-99381101D01*
X146436345Y-98761203D01*
X146495922Y-98701625D01*
X146495921Y-98701624D01*
X146451359Y-98669248D01*
X146451350Y-98669242D01*
X146269031Y-98576345D01*
X146074417Y-98513110D01*
X145872317Y-98481101D01*
X145667683Y-98481101D01*
X145465582Y-98513110D01*
X145270968Y-98576345D01*
X145088644Y-98669244D01*
X145044077Y-98701624D01*
X145044077Y-98701625D01*
X145723554Y-99381101D01*
X145717339Y-99381101D01*
X145615606Y-99408360D01*
X145524394Y-99461021D01*
X145449920Y-99535495D01*
X145397259Y-99626707D01*
X145370000Y-99728440D01*
X145370000Y-99734654D01*
X144690524Y-99055178D01*
X144690523Y-99055178D01*
X144658143Y-99099745D01*
X144565244Y-99282069D01*
X144502009Y-99476683D01*
X144470000Y-99678783D01*
X137627728Y-99678783D01*
X137639685Y-99638062D01*
X137692489Y-99592307D01*
X137744000Y-99581101D01*
X137870000Y-99581101D01*
X137870000Y-99455101D01*
X137889685Y-99388062D01*
X137942489Y-99342307D01*
X137994000Y-99331101D01*
X139029795Y-99331101D01*
X139029795Y-99331099D01*
X139029600Y-99328614D01*
X138983781Y-99170902D01*
X138900185Y-99029548D01*
X138900178Y-99029539D01*
X138784061Y-98913422D01*
X138784052Y-98913415D01*
X138686318Y-98855616D01*
X138642696Y-98829818D01*
X138642693Y-98829817D01*
X138484995Y-98784001D01*
X138484989Y-98784000D01*
X138448149Y-98781101D01*
X138433359Y-98781101D01*
X138400864Y-98771559D01*
X138368193Y-98762597D01*
X138367423Y-98761739D01*
X138366320Y-98761416D01*
X138344161Y-98735843D01*
X138321503Y-98710619D01*
X138321318Y-98709481D01*
X138320565Y-98708612D01*
X138315742Y-98675071D01*
X138310326Y-98641649D01*
X138310784Y-98640594D01*
X138310621Y-98639454D01*
X138324703Y-98608616D01*
X138338211Y-98577585D01*
X138339337Y-98576572D01*
X138339646Y-98575898D01*
X138364467Y-98554000D01*
X138433019Y-98508193D01*
X138455163Y-98493397D01*
X138489452Y-98477425D01*
X138642898Y-98432845D01*
X138784365Y-98349182D01*
X138900581Y-98232966D01*
X138984244Y-98091499D01*
X139020293Y-97967414D01*
X139051685Y-97914334D01*
X140953996Y-96012024D01*
X141015317Y-95978541D01*
X141085009Y-95983525D01*
X141097970Y-95989222D01*
X141170776Y-96026319D01*
X141170778Y-96026319D01*
X141170781Y-96026321D01*
X141217239Y-96041416D01*
X141365465Y-96089578D01*
X141454280Y-96103645D01*
X141567648Y-96121601D01*
X141567649Y-96121601D01*
X141772351Y-96121601D01*
X141772352Y-96121601D01*
X141974534Y-96089578D01*
X142169219Y-96026321D01*
X142351610Y-95933388D01*
X142369644Y-95920284D01*
X142435450Y-95896803D01*
X142442532Y-95896601D01*
X145064926Y-95896601D01*
X145121220Y-95910115D01*
X145160396Y-95930077D01*
X145270776Y-95986319D01*
X145270778Y-95986319D01*
X145270781Y-95986321D01*
X145349893Y-96012026D01*
X145465465Y-96049578D01*
X145538218Y-96061101D01*
X145667648Y-96081601D01*
X145667649Y-96081601D01*
X145872351Y-96081601D01*
X145872352Y-96081601D01*
X146074534Y-96049578D01*
X146269219Y-95986321D01*
X146274707Y-95983525D01*
X146365818Y-95937101D01*
X146418779Y-95910115D01*
X146475074Y-95896601D01*
X148934884Y-95896601D01*
X149001923Y-95916286D01*
X149007748Y-95920268D01*
X149108390Y-95993388D01*
X149173021Y-96026319D01*
X149290776Y-96086319D01*
X149290778Y-96086319D01*
X149290781Y-96086321D01*
X149395137Y-96120228D01*
X149485465Y-96149578D01*
X149586557Y-96165589D01*
X149687648Y-96181601D01*
X149687649Y-96181601D01*
X149892351Y-96181601D01*
X149892352Y-96181601D01*
X150094534Y-96149578D01*
X150289219Y-96086321D01*
X150471610Y-95993388D01*
X150572232Y-95920282D01*
X150638037Y-95896803D01*
X150645116Y-95896601D01*
X151863327Y-95896601D01*
X151910539Y-95905940D01*
X152650323Y-96210558D01*
X152713269Y-96229552D01*
X152720727Y-96232064D01*
X152739088Y-96238913D01*
X152795018Y-96280782D01*
X152819434Y-96346247D01*
X152804582Y-96414519D01*
X152783432Y-96442773D01*
X152669889Y-96556316D01*
X152544951Y-96728280D01*
X152448444Y-96917686D01*
X152382753Y-97119861D01*
X152358862Y-97270703D01*
X152349500Y-97329814D01*
X152349500Y-97542388D01*
X152355634Y-97581119D01*
X152381506Y-97744469D01*
X152382754Y-97752344D01*
X152446724Y-97949223D01*
X152448444Y-97954515D01*
X152544951Y-98143921D01*
X152669890Y-98315887D01*
X152820213Y-98466210D01*
X152992179Y-98591149D01*
X152992181Y-98591150D01*
X152992184Y-98591152D01*
X153001493Y-98595895D01*
X153052290Y-98643867D01*
X153069087Y-98711688D01*
X153046552Y-98777823D01*
X153001502Y-98816863D01*
X152992443Y-98821479D01*
X152820540Y-98946373D01*
X152820535Y-98946377D01*
X152670276Y-99096636D01*
X152670272Y-99096641D01*
X152545379Y-99268543D01*
X152448904Y-99457883D01*
X152383242Y-99659971D01*
X152383242Y-99659974D01*
X152372769Y-99726101D01*
X153266988Y-99726101D01*
X153234075Y-99783108D01*
X153200000Y-99910275D01*
X153200000Y-100041927D01*
X153234075Y-100169094D01*
X153266988Y-100226101D01*
X152372769Y-100226101D01*
X152383242Y-100292227D01*
X152383242Y-100292230D01*
X152448904Y-100494318D01*
X152545379Y-100683658D01*
X152670272Y-100855560D01*
X152670276Y-100855565D01*
X152820535Y-101005824D01*
X152820540Y-101005828D01*
X152992442Y-101130721D01*
X153181782Y-101227196D01*
X153383871Y-101292858D01*
X153450000Y-101303332D01*
X153450000Y-100409113D01*
X153507007Y-100442026D01*
X153634174Y-100476101D01*
X153765826Y-100476101D01*
X153892993Y-100442026D01*
X153950000Y-100409113D01*
X153950000Y-101303331D01*
X154016126Y-101292858D01*
X154016129Y-101292858D01*
X154218217Y-101227196D01*
X154407557Y-101130721D01*
X154579459Y-101005828D01*
X154579464Y-101005824D01*
X154729723Y-100855565D01*
X154729727Y-100855560D01*
X154854620Y-100683658D01*
X154951095Y-100494318D01*
X155016757Y-100292230D01*
X155016757Y-100292227D01*
X155027231Y-100226101D01*
X154133012Y-100226101D01*
X154165925Y-100169094D01*
X154200000Y-100041927D01*
X154200000Y-99910275D01*
X154165925Y-99783108D01*
X154133012Y-99726101D01*
X155027231Y-99726101D01*
X155016757Y-99659974D01*
X155016757Y-99659971D01*
X154951095Y-99457883D01*
X154854620Y-99268543D01*
X154729727Y-99096641D01*
X154729723Y-99096636D01*
X154579464Y-98946377D01*
X154579459Y-98946373D01*
X154407555Y-98821478D01*
X154398500Y-98816864D01*
X154389348Y-98808220D01*
X154377685Y-98803487D01*
X154364430Y-98784684D01*
X154347706Y-98768889D01*
X154344680Y-98756669D01*
X154337427Y-98746381D01*
X154336441Y-98723396D01*
X154330912Y-98701067D01*
X154334972Y-98689152D01*
X154334433Y-98676576D01*
X154346029Y-98656707D01*
X154353451Y-98634933D01*
X154364152Y-98625660D01*
X154369655Y-98616233D01*
X154398494Y-98595901D01*
X154407816Y-98591152D01*
X154407822Y-98591147D01*
X154410441Y-98589813D01*
X154414913Y-98587646D01*
X155406833Y-98131781D01*
X155475965Y-98121673D01*
X155510804Y-98131972D01*
X156438835Y-98562608D01*
X156442912Y-98564591D01*
X156492413Y-98589813D01*
X156620776Y-98655218D01*
X156620778Y-98655218D01*
X156620781Y-98655220D01*
X156720615Y-98687658D01*
X156815465Y-98718477D01*
X156869675Y-98727063D01*
X157017648Y-98750500D01*
X157017649Y-98750500D01*
X157222351Y-98750500D01*
X157222352Y-98750500D01*
X157424534Y-98718477D01*
X157619219Y-98655220D01*
X157801610Y-98562287D01*
X157917395Y-98478165D01*
X157967213Y-98441971D01*
X157967215Y-98441968D01*
X157967219Y-98441966D01*
X158111966Y-98297219D01*
X158111968Y-98297215D01*
X158111971Y-98297213D01*
X158192131Y-98186880D01*
X158232287Y-98131610D01*
X158325220Y-97949219D01*
X158388477Y-97754534D01*
X158420500Y-97552352D01*
X158420500Y-97347648D01*
X158408313Y-97270703D01*
X158388477Y-97145465D01*
X158345442Y-97013018D01*
X158325220Y-96950781D01*
X158325218Y-96950778D01*
X158325218Y-96950776D01*
X158239232Y-96782021D01*
X158236347Y-96775957D01*
X158233928Y-96770498D01*
X157901166Y-96019457D01*
X157791130Y-95771107D01*
X157780500Y-95720876D01*
X157780500Y-91681310D01*
X157791500Y-91630252D01*
X157843490Y-91515190D01*
X158244979Y-90626623D01*
X158247486Y-90621405D01*
X158335217Y-90449225D01*
X158335217Y-90449224D01*
X158335220Y-90449219D01*
X158398477Y-90254534D01*
X158430500Y-90052352D01*
X158430500Y-89847648D01*
X158419966Y-89781138D01*
X158398477Y-89645465D01*
X158344060Y-89477988D01*
X158335220Y-89450781D01*
X158335218Y-89450778D01*
X158335218Y-89450776D01*
X158286240Y-89354652D01*
X158242287Y-89268390D01*
X158233175Y-89255848D01*
X158121971Y-89102786D01*
X157977213Y-88958028D01*
X157811613Y-88837715D01*
X157811612Y-88837714D01*
X157811610Y-88837713D01*
X157736670Y-88799529D01*
X157629223Y-88744781D01*
X157434534Y-88681522D01*
X157259995Y-88653878D01*
X157232352Y-88649500D01*
X157027648Y-88649500D01*
X157003329Y-88653351D01*
X156825465Y-88681522D01*
X156630776Y-88744781D01*
X156448386Y-88837715D01*
X156282786Y-88958028D01*
X156138028Y-89102786D01*
X156017715Y-89268386D01*
X155924781Y-89450776D01*
X155861522Y-89645465D01*
X155829500Y-89847648D01*
X155829500Y-90052351D01*
X155861523Y-90254535D01*
X155861523Y-90254538D01*
X155924778Y-90449216D01*
X156012508Y-90621396D01*
X156015023Y-90626633D01*
X156468500Y-91630250D01*
X156479500Y-91681308D01*
X156479500Y-95716505D01*
X156468127Y-95768382D01*
X156346859Y-96031658D01*
X156346858Y-96031660D01*
X156166995Y-96422147D01*
X156121069Y-96474802D01*
X156104274Y-96483784D01*
X155513464Y-96743534D01*
X155444172Y-96752495D01*
X155411777Y-96742691D01*
X154741395Y-96434597D01*
X154688700Y-96388716D01*
X154669176Y-96321629D01*
X154689021Y-96254637D01*
X154741935Y-96209009D01*
X154749844Y-96205744D01*
X154792326Y-96189899D01*
X154792326Y-96189898D01*
X154792331Y-96189897D01*
X154907546Y-96103647D01*
X154993796Y-95988432D01*
X155044091Y-95853584D01*
X155050500Y-95793974D01*
X155050499Y-93998229D01*
X155044091Y-93938618D01*
X155042387Y-93934050D01*
X154993797Y-93803772D01*
X154993793Y-93803765D01*
X154907547Y-93688556D01*
X154907544Y-93688553D01*
X154792335Y-93602307D01*
X154792328Y-93602303D01*
X154657482Y-93552009D01*
X154657483Y-93552009D01*
X154597883Y-93545602D01*
X154597881Y-93545601D01*
X154597873Y-93545601D01*
X154597865Y-93545601D01*
X152866619Y-93545601D01*
X152852820Y-93543588D01*
X152843867Y-93543569D01*
X152804378Y-93545601D01*
X152802136Y-93545601D01*
X152800650Y-93545681D01*
X152796646Y-93545999D01*
X152789813Y-93546351D01*
X152783784Y-93547260D01*
X152783760Y-93547104D01*
X152777183Y-93548283D01*
X152742515Y-93552010D01*
X152696289Y-93569251D01*
X152683376Y-93573280D01*
X152650323Y-93581643D01*
X152650322Y-93581644D01*
X152034989Y-93835016D01*
X151976058Y-93859282D01*
X151910537Y-93886261D01*
X151863324Y-93895601D01*
X150686409Y-93895601D01*
X150619370Y-93875916D01*
X150613524Y-93871919D01*
X150471613Y-93768816D01*
X150471612Y-93768815D01*
X150471610Y-93768814D01*
X150414653Y-93739792D01*
X150289223Y-93675882D01*
X150094534Y-93612623D01*
X149919995Y-93584979D01*
X149892352Y-93580601D01*
X149687648Y-93580601D01*
X149663329Y-93584452D01*
X149485465Y-93612623D01*
X149290776Y-93675882D01*
X149108386Y-93768816D01*
X148966476Y-93871919D01*
X148900670Y-93895399D01*
X148893591Y-93895601D01*
X146775047Y-93895601D01*
X146708008Y-93875916D01*
X146687366Y-93859282D01*
X146617213Y-93789129D01*
X146451613Y-93668816D01*
X146451612Y-93668815D01*
X146451610Y-93668814D01*
X146394653Y-93639792D01*
X146269223Y-93575882D01*
X146074534Y-93512623D01*
X145899995Y-93484979D01*
X145872352Y-93480601D01*
X145667648Y-93480601D01*
X145643329Y-93484452D01*
X145465465Y-93512623D01*
X145270776Y-93575882D01*
X145088386Y-93668816D01*
X144922786Y-93789129D01*
X144922782Y-93789133D01*
X144852634Y-93859282D01*
X144791311Y-93892767D01*
X144764953Y-93895601D01*
X142792407Y-93895601D01*
X142725368Y-93875916D01*
X142679613Y-93823112D01*
X142676273Y-93815063D01*
X142672047Y-93803772D01*
X142428366Y-93152638D01*
X142420500Y-93109176D01*
X142420500Y-91582229D01*
X142440185Y-91515190D01*
X142456814Y-91494553D01*
X144251367Y-89700000D01*
X145693391Y-89700000D01*
X146654314Y-89700000D01*
X146649920Y-89704394D01*
X146597259Y-89795606D01*
X146570000Y-89897339D01*
X146570000Y-90002661D01*
X146597259Y-90104394D01*
X146649920Y-90195606D01*
X146654314Y-90200000D01*
X145693391Y-90200000D01*
X145702009Y-90254413D01*
X145765244Y-90449029D01*
X145858140Y-90631349D01*
X145978417Y-90796894D01*
X145978417Y-90796895D01*
X146123104Y-90941582D01*
X146288650Y-91061859D01*
X146470968Y-91154754D01*
X146665578Y-91217988D01*
X146720000Y-91226607D01*
X146720000Y-90265686D01*
X146724394Y-90270080D01*
X146815606Y-90322741D01*
X146917339Y-90350000D01*
X147022661Y-90350000D01*
X147124394Y-90322741D01*
X147215606Y-90270080D01*
X147220000Y-90265686D01*
X147220000Y-91226606D01*
X147274421Y-91217988D01*
X147469031Y-91154754D01*
X147651349Y-91061859D01*
X147816894Y-90941582D01*
X147816895Y-90941582D01*
X147961582Y-90796895D01*
X147961582Y-90796894D01*
X148081859Y-90631349D01*
X148174755Y-90449029D01*
X148237990Y-90254413D01*
X148246609Y-90200000D01*
X147285686Y-90200000D01*
X147290080Y-90195606D01*
X147342741Y-90104394D01*
X147370000Y-90002661D01*
X147370000Y-89897339D01*
X147342741Y-89795606D01*
X147290080Y-89704394D01*
X147285686Y-89700000D01*
X148246609Y-89700000D01*
X148237990Y-89645586D01*
X148174755Y-89450970D01*
X148081859Y-89268650D01*
X147961582Y-89103105D01*
X147961582Y-89103104D01*
X147816895Y-88958417D01*
X147651349Y-88838140D01*
X147469029Y-88745244D01*
X147274413Y-88682009D01*
X147220000Y-88673390D01*
X147220000Y-89634314D01*
X147215606Y-89629920D01*
X147124394Y-89577259D01*
X147022661Y-89550000D01*
X146917339Y-89550000D01*
X146815606Y-89577259D01*
X146724394Y-89629920D01*
X146720000Y-89634314D01*
X146720000Y-88673390D01*
X146665586Y-88682009D01*
X146470970Y-88745244D01*
X146288650Y-88838140D01*
X146123105Y-88958417D01*
X146123104Y-88958417D01*
X145978417Y-89103104D01*
X145978417Y-89103105D01*
X145858140Y-89268650D01*
X145765244Y-89450970D01*
X145702009Y-89645586D01*
X145693391Y-89700000D01*
X144251367Y-89700000D01*
X146290176Y-87661190D01*
X146326462Y-87636025D01*
X147389677Y-87151895D01*
X147402709Y-87146829D01*
X147469219Y-87125220D01*
X147651610Y-87032287D01*
X147704530Y-86993838D01*
X147727261Y-86978243D01*
X147729655Y-86975584D01*
X147817219Y-86911966D01*
X147961966Y-86767219D01*
X147961968Y-86767215D01*
X147961971Y-86767213D01*
X148014732Y-86694590D01*
X148082287Y-86601610D01*
X148175220Y-86419219D01*
X148238477Y-86224534D01*
X148270500Y-86022352D01*
X148270500Y-85817648D01*
X148238477Y-85615466D01*
X148235140Y-85605197D01*
X148203558Y-85507996D01*
X148175220Y-85420781D01*
X148175218Y-85420778D01*
X148175218Y-85420776D01*
X148135308Y-85342450D01*
X148082287Y-85238390D01*
X148048129Y-85191375D01*
X147961971Y-85072786D01*
X147817213Y-84928028D01*
X147651613Y-84807715D01*
X147651612Y-84807714D01*
X147651610Y-84807713D01*
X147594653Y-84778691D01*
X147469223Y-84714781D01*
X147274534Y-84651522D01*
X147099995Y-84623878D01*
X147072352Y-84619500D01*
X146867648Y-84619500D01*
X146843329Y-84623351D01*
X146665465Y-84651522D01*
X146470776Y-84714781D01*
X146288386Y-84807715D01*
X146122786Y-84928028D01*
X145978028Y-85072786D01*
X145857715Y-85238386D01*
X145764780Y-85420779D01*
X145743175Y-85487269D01*
X145738096Y-85500334D01*
X145253974Y-86563531D01*
X145228804Y-86599826D01*
X141087048Y-90741583D01*
X141068400Y-90769493D01*
X141049875Y-90797219D01*
X141004919Y-90864499D01*
X141004912Y-90864511D01*
X140948343Y-91001082D01*
X140948340Y-91001092D01*
X140919500Y-91146079D01*
X140919500Y-93109176D01*
X140911634Y-93152638D01*
X140663619Y-93815346D01*
X140656946Y-93824238D01*
X140654211Y-93835016D01*
X140636347Y-93851691D01*
X140621685Y-93871233D01*
X140609932Y-93876350D01*
X140603137Y-93882694D01*
X140579931Y-93889413D01*
X140569663Y-93893884D01*
X140560218Y-93895601D01*
X140556459Y-93895601D01*
X140517543Y-93903342D01*
X140516575Y-93903534D01*
X140516545Y-93903540D01*
X140363171Y-93934048D01*
X140363163Y-93934050D01*
X140312087Y-93955207D01*
X140312086Y-93955207D01*
X140181092Y-94009465D01*
X140181079Y-94009472D01*
X140110401Y-94056699D01*
X140017216Y-94118962D01*
X140017213Y-94118965D01*
X137274267Y-96861912D01*
X137221182Y-96893307D01*
X137097104Y-96929355D01*
X137097103Y-96929356D01*
X136955637Y-97013018D01*
X136955629Y-97013024D01*
X136839423Y-97129230D01*
X136839417Y-97129238D01*
X136755755Y-97270704D01*
X136755754Y-97270707D01*
X136709902Y-97428527D01*
X136709901Y-97428533D01*
X136707000Y-97465399D01*
X136707000Y-97863205D01*
X136687315Y-97930244D01*
X136634511Y-97975999D01*
X136565353Y-97985943D01*
X136517002Y-97965431D01*
X136516080Y-97966991D01*
X136367896Y-97879356D01*
X136367893Y-97879355D01*
X136214461Y-97834779D01*
X136180169Y-97818807D01*
X136095528Y-97762252D01*
X136068919Y-97744472D01*
X136068916Y-97744470D01*
X136068914Y-97744469D01*
X136068911Y-97744467D01*
X136068906Y-97744465D01*
X135886839Y-97669051D01*
X135886829Y-97669048D01*
X135693543Y-97630601D01*
X135693541Y-97630601D01*
X135496459Y-97630601D01*
X135496457Y-97630601D01*
X135303170Y-97669048D01*
X135303160Y-97669051D01*
X135121093Y-97744465D01*
X135121082Y-97744471D01*
X135009829Y-97818807D01*
X134975534Y-97834780D01*
X134822106Y-97879355D01*
X134822103Y-97879356D01*
X134680637Y-97963018D01*
X134680629Y-97963024D01*
X134564423Y-98079230D01*
X134564417Y-98079238D01*
X134480755Y-98220704D01*
X134480754Y-98220707D01*
X134434902Y-98378527D01*
X134434901Y-98378533D01*
X134432000Y-98415399D01*
X134432000Y-98846802D01*
X134434901Y-98883668D01*
X134434902Y-98883674D01*
X134480754Y-99041494D01*
X134480755Y-99041497D01*
X134564417Y-99182964D01*
X134568479Y-99188200D01*
X134576947Y-99209770D01*
X134589477Y-99229266D01*
X134592293Y-99248855D01*
X134594014Y-99253237D01*
X134594500Y-99264201D01*
X134594500Y-99419216D01*
X134574815Y-99486255D01*
X134558181Y-99506897D01*
X132919701Y-101145376D01*
X132905799Y-101157358D01*
X131909273Y-101895065D01*
X131876867Y-101921187D01*
X131872773Y-101925161D01*
X131872350Y-101924725D01*
X131858185Y-101937795D01*
X131807927Y-101974309D01*
X131674312Y-102107924D01*
X131674312Y-102107925D01*
X131674310Y-102107927D01*
X131626610Y-102173579D01*
X131563240Y-102260800D01*
X131477455Y-102429162D01*
X131437930Y-102550805D01*
X131420472Y-102576333D01*
X131404784Y-102602969D01*
X131400929Y-102604913D01*
X131398491Y-102608480D01*
X131370004Y-102620517D01*
X131342405Y-102634444D01*
X131338109Y-102633996D01*
X131334132Y-102635677D01*
X131303662Y-102630403D01*
X131272913Y-102627197D01*
X131269542Y-102624498D01*
X131265286Y-102623762D01*
X131242503Y-102602851D01*
X131218369Y-102583530D01*
X131215772Y-102578317D01*
X131213811Y-102576517D01*
X131202470Y-102552020D01*
X131202298Y-102551508D01*
X131162547Y-102429168D01*
X131158420Y-102421069D01*
X131155515Y-102412433D01*
X131155513Y-102412388D01*
X131155450Y-102412239D01*
X130870827Y-101561322D01*
X130836904Y-101459905D01*
X130830500Y-101420570D01*
X130830500Y-100788715D01*
X130835687Y-100753225D01*
X130892673Y-100562450D01*
X131265994Y-99312662D01*
X131274316Y-99291871D01*
X131313241Y-99215480D01*
X131391090Y-98975886D01*
X131430500Y-98727063D01*
X131430500Y-98475139D01*
X131391090Y-98226316D01*
X131313241Y-97986722D01*
X131313239Y-97986719D01*
X131313239Y-97986717D01*
X131237915Y-97838887D01*
X131198870Y-97762256D01*
X131185949Y-97744472D01*
X131130937Y-97668753D01*
X131107457Y-97602947D01*
X131123283Y-97534893D01*
X131143574Y-97508186D01*
X131272320Y-97379440D01*
X131364354Y-97230231D01*
X131364359Y-97230220D01*
X131419505Y-97063798D01*
X131429999Y-96961087D01*
X131430000Y-96961074D01*
X131430000Y-96311101D01*
X130320748Y-96311101D01*
X130342518Y-96273393D01*
X130380000Y-96133510D01*
X130380000Y-95988692D01*
X130342518Y-95848809D01*
X130320748Y-95811101D01*
X131429999Y-95811101D01*
X131429999Y-95161129D01*
X131429998Y-95161114D01*
X131419505Y-95058404D01*
X131419505Y-95058402D01*
X131364359Y-94891981D01*
X131364354Y-94891970D01*
X131272319Y-94742760D01*
X131272316Y-94742756D01*
X131148344Y-94618784D01*
X131148340Y-94618781D01*
X130999130Y-94526746D01*
X130999119Y-94526741D01*
X130832697Y-94471595D01*
X130729986Y-94461101D01*
X130080000Y-94461101D01*
X130080000Y-95570353D01*
X130042292Y-95548583D01*
X129902409Y-95511101D01*
X129757591Y-95511101D01*
X129617708Y-95548583D01*
X129580000Y-95570353D01*
X129580000Y-94461101D01*
X128930028Y-94461101D01*
X128930012Y-94461102D01*
X128827303Y-94471595D01*
X128827301Y-94471595D01*
X128660880Y-94526741D01*
X128660869Y-94526746D01*
X128511659Y-94618781D01*
X128511655Y-94618784D01*
X128387683Y-94742756D01*
X128387680Y-94742760D01*
X128295645Y-94891970D01*
X128295640Y-94891981D01*
X128240494Y-95058403D01*
X128230000Y-95161114D01*
X128230000Y-95618319D01*
X128210315Y-95685358D01*
X128157511Y-95731113D01*
X128088353Y-95741057D01*
X128024797Y-95712032D01*
X128004105Y-95686100D01*
X128002779Y-95686987D01*
X127911789Y-95550812D01*
X127911786Y-95550808D01*
X127800292Y-95439314D01*
X127800288Y-95439311D01*
X127669185Y-95351710D01*
X127669172Y-95351703D01*
X127523501Y-95291365D01*
X127523489Y-95291362D01*
X127368845Y-95260601D01*
X127368842Y-95260601D01*
X127211158Y-95260601D01*
X127211155Y-95260601D01*
X127056510Y-95291362D01*
X127056498Y-95291365D01*
X126910827Y-95351703D01*
X126910814Y-95351710D01*
X126779711Y-95439311D01*
X126779707Y-95439314D01*
X126668213Y-95550808D01*
X126668210Y-95550812D01*
X126580609Y-95681915D01*
X126580602Y-95681928D01*
X126520264Y-95827599D01*
X126520261Y-95827611D01*
X126489500Y-95982254D01*
X123420371Y-95982254D01*
X123420371Y-89310994D01*
X128699518Y-89310994D01*
X128702752Y-89337059D01*
X128702930Y-89338970D01*
X128702787Y-89339700D01*
X128703458Y-89350925D01*
X128703442Y-89354649D01*
X128703442Y-89354650D01*
X128706106Y-89367445D01*
X128707764Y-89377440D01*
X128720244Y-89477987D01*
X128720245Y-89477988D01*
X128775237Y-89637017D01*
X128775238Y-89637018D01*
X128862090Y-89781138D01*
X128970734Y-89897339D01*
X128977014Y-89904056D01*
X129114981Y-90000392D01*
X129192471Y-90033165D01*
X129192472Y-90033165D01*
X129203923Y-90038008D01*
X129203926Y-90038009D01*
X129351729Y-90100515D01*
X129363570Y-90105523D01*
X129408385Y-90142188D01*
X129453397Y-90160801D01*
X129730067Y-90275207D01*
X130295853Y-90471173D01*
X130526887Y-90534304D01*
X130873427Y-90628998D01*
X130873431Y-90628999D01*
X130873439Y-90629001D01*
X131512158Y-90758513D01*
X131904355Y-90838038D01*
X131966144Y-90870651D01*
X131976657Y-90882248D01*
X132074181Y-91004540D01*
X132154223Y-91084582D01*
X132285944Y-91189626D01*
X132331082Y-91217988D01*
X132357458Y-91234561D01*
X132388432Y-91262241D01*
X132418509Y-91299956D01*
X132475960Y-91345772D01*
X132550233Y-91405002D01*
X132702019Y-91478098D01*
X132702020Y-91478098D01*
X132702024Y-91478100D01*
X132843077Y-91510294D01*
X132866273Y-91515589D01*
X132866278Y-91515590D01*
X133034756Y-91515590D01*
X133199010Y-91478100D01*
X133350804Y-91405000D01*
X133425074Y-91345770D01*
X133461436Y-91325675D01*
X133469226Y-91322950D01*
X133621020Y-91249850D01*
X133716866Y-91189626D01*
X133848587Y-91084582D01*
X133928629Y-91004540D01*
X134033673Y-90872819D01*
X134050934Y-90845346D01*
X134103266Y-90799056D01*
X134139437Y-90788419D01*
X134440774Y-90747990D01*
X135027595Y-90629001D01*
X135605181Y-90471173D01*
X135933078Y-90357601D01*
X135938652Y-90355818D01*
X136026354Y-90330049D01*
X136552875Y-90142047D01*
X136810338Y-90033165D01*
X136810339Y-90033165D01*
X136887829Y-90000392D01*
X137025796Y-89904056D01*
X137140718Y-89781140D01*
X137227573Y-89637017D01*
X137282566Y-89477985D01*
X137295670Y-89372404D01*
X137299367Y-89354649D01*
X137299318Y-89343007D01*
X137303292Y-89310994D01*
X137299410Y-89265958D01*
X137298956Y-89255863D01*
X137298668Y-89186379D01*
X137262999Y-89021931D01*
X137193919Y-88868492D01*
X137094447Y-88732770D01*
X136968930Y-88620694D01*
X136968928Y-88620692D01*
X136968926Y-88620691D01*
X136899947Y-88581248D01*
X136892044Y-88576326D01*
X136757001Y-88485016D01*
X136742413Y-88473467D01*
X136626000Y-88366156D01*
X136613304Y-88352555D01*
X136514250Y-88229023D01*
X136503740Y-88213685D01*
X136424290Y-88076730D01*
X136416187Y-88059982D01*
X136358121Y-87912674D01*
X136352623Y-87894926D01*
X136317248Y-87740571D01*
X136314467Y-87722191D01*
X136312292Y-87693287D01*
X136302254Y-87559863D01*
X136301905Y-87550560D01*
X136301905Y-87382032D01*
X136301905Y-87382028D01*
X136265744Y-87037980D01*
X136193818Y-86699596D01*
X136086915Y-86370584D01*
X135946207Y-86054548D01*
X135946204Y-86054544D01*
X135946203Y-86054540D01*
X135773237Y-85754953D01*
X135773237Y-85754952D01*
X135593811Y-85507996D01*
X135569895Y-85475078D01*
X135569892Y-85475075D01*
X135569888Y-85475069D01*
X135448446Y-85340196D01*
X135338413Y-85217992D01*
X135177146Y-85072786D01*
X135081335Y-84986516D01*
X135081327Y-84986510D01*
X134942965Y-84885984D01*
X134801452Y-84783167D01*
X134501864Y-84610201D01*
X134501857Y-84610198D01*
X134392354Y-84561444D01*
X134237172Y-84492352D01*
X134183936Y-84447102D01*
X134170568Y-84420028D01*
X134167445Y-84411101D01*
X140393391Y-84411101D01*
X141354314Y-84411101D01*
X141349920Y-84415495D01*
X141297259Y-84506707D01*
X141270000Y-84608440D01*
X141270000Y-84713762D01*
X141297259Y-84815495D01*
X141349920Y-84906707D01*
X141354314Y-84911101D01*
X140393391Y-84911101D01*
X140402009Y-84965514D01*
X140465244Y-85160130D01*
X140558140Y-85342450D01*
X140678417Y-85507995D01*
X140678417Y-85507996D01*
X140823104Y-85652683D01*
X140988650Y-85772960D01*
X141170968Y-85865855D01*
X141365578Y-85929089D01*
X141420000Y-85937708D01*
X141420000Y-84976787D01*
X141424394Y-84981181D01*
X141515606Y-85033842D01*
X141617339Y-85061101D01*
X141722661Y-85061101D01*
X141824394Y-85033842D01*
X141915606Y-84981181D01*
X141920000Y-84976787D01*
X141920000Y-85937707D01*
X141974421Y-85929089D01*
X142169031Y-85865855D01*
X142351349Y-85772960D01*
X142516894Y-85652683D01*
X142516895Y-85652683D01*
X142661582Y-85507996D01*
X142661582Y-85507995D01*
X142781859Y-85342450D01*
X142874755Y-85160130D01*
X142937990Y-84965514D01*
X142946609Y-84911101D01*
X141985686Y-84911101D01*
X141990080Y-84906707D01*
X142042741Y-84815495D01*
X142070000Y-84713762D01*
X142070000Y-84608440D01*
X142042741Y-84506707D01*
X141990080Y-84415495D01*
X141985686Y-84411101D01*
X142946609Y-84411101D01*
X142937990Y-84356687D01*
X142874755Y-84162071D01*
X142781859Y-83979751D01*
X142661582Y-83814206D01*
X142661582Y-83814205D01*
X142516895Y-83669518D01*
X142351349Y-83549241D01*
X142169029Y-83456345D01*
X141974413Y-83393110D01*
X141920000Y-83384491D01*
X141920000Y-84345415D01*
X141915606Y-84341021D01*
X141824394Y-84288360D01*
X141722661Y-84261101D01*
X141617339Y-84261101D01*
X141515606Y-84288360D01*
X141424394Y-84341021D01*
X141420000Y-84345415D01*
X141420000Y-83384491D01*
X141365586Y-83393110D01*
X141170970Y-83456345D01*
X140988650Y-83549241D01*
X140823105Y-83669518D01*
X140823104Y-83669518D01*
X140678417Y-83814205D01*
X140678417Y-83814206D01*
X140558140Y-83979751D01*
X140465244Y-84162071D01*
X140402009Y-84356687D01*
X140393391Y-84411101D01*
X134167445Y-84411101D01*
X134166997Y-84409821D01*
X134132409Y-84337999D01*
X134093898Y-84258029D01*
X134093897Y-84258027D01*
X134033673Y-84162181D01*
X133928629Y-84030460D01*
X133848587Y-83950418D01*
X133716866Y-83845374D01*
X133621020Y-83785150D01*
X133621017Y-83785148D01*
X133469232Y-83712052D01*
X133362388Y-83674665D01*
X133362378Y-83674662D01*
X133198132Y-83637174D01*
X133198114Y-83637171D01*
X133085650Y-83624500D01*
X133085644Y-83624500D01*
X132917166Y-83624500D01*
X132917159Y-83624500D01*
X132804695Y-83637171D01*
X132804677Y-83637174D01*
X132640431Y-83674662D01*
X132640421Y-83674665D01*
X132533577Y-83712052D01*
X132381792Y-83785148D01*
X132285945Y-83845373D01*
X132154223Y-83950417D01*
X132074180Y-84030460D01*
X131969136Y-84162182D01*
X131908911Y-84258029D01*
X131835812Y-84409821D01*
X131832237Y-84420037D01*
X131791511Y-84476809D01*
X131765635Y-84492351D01*
X131500961Y-84610193D01*
X131500945Y-84610201D01*
X131201358Y-84783167D01*
X131201357Y-84783167D01*
X130921474Y-84986516D01*
X130664397Y-85217992D01*
X130432921Y-85475069D01*
X130229572Y-85754952D01*
X130229572Y-85754953D01*
X130056606Y-86054540D01*
X130056603Y-86054547D01*
X129915892Y-86370591D01*
X129808991Y-86699599D01*
X129808990Y-86699600D01*
X129746449Y-86993838D01*
X129737066Y-87037980D01*
X129725092Y-87151905D01*
X129700905Y-87382032D01*
X129700905Y-87550347D01*
X129700555Y-87559651D01*
X129688326Y-87722178D01*
X129685543Y-87740574D01*
X129650173Y-87894909D01*
X129644667Y-87912683D01*
X129586606Y-88059977D01*
X129578504Y-88076725D01*
X129499054Y-88213681D01*
X129488535Y-88229030D01*
X129389496Y-88352543D01*
X129376801Y-88366145D01*
X129260384Y-88473460D01*
X129245796Y-88485009D01*
X129110624Y-88576407D01*
X129102722Y-88581328D01*
X129033875Y-88620697D01*
X128908361Y-88732771D01*
X128908361Y-88732772D01*
X128808891Y-88868492D01*
X128808887Y-88868498D01*
X128739809Y-89021935D01*
X128739808Y-89021939D01*
X128704140Y-89186379D01*
X128703852Y-89255863D01*
X128703395Y-89265991D01*
X128699518Y-89310994D01*
X123420371Y-89310994D01*
X123420371Y-85263178D01*
X123440056Y-85196139D01*
X123492860Y-85150384D01*
X123562018Y-85140440D01*
X123615492Y-85161602D01*
X123658013Y-85191375D01*
X124046452Y-85415641D01*
X124057473Y-85420780D01*
X124452953Y-85605197D01*
X124452963Y-85605201D01*
X124813541Y-85736439D01*
X124864404Y-85754952D01*
X124874444Y-85758606D01*
X124928014Y-85772960D01*
X125307689Y-85874694D01*
X125749406Y-85952580D01*
X126196228Y-85991672D01*
X126196229Y-85991673D01*
X126196230Y-85991673D01*
X126644763Y-85991673D01*
X126644763Y-85991672D01*
X127091586Y-85952580D01*
X127533303Y-85874694D01*
X127966551Y-85758605D01*
X128268641Y-85648653D01*
X128388028Y-85605201D01*
X128388038Y-85605197D01*
X128523535Y-85542013D01*
X128794540Y-85415641D01*
X129182979Y-85191375D01*
X129550395Y-84934109D01*
X129893990Y-84645798D01*
X130211149Y-84328639D01*
X130499460Y-83985044D01*
X130756726Y-83617628D01*
X130980992Y-83229189D01*
X131170550Y-82822682D01*
X131199126Y-82744171D01*
X131323957Y-82401196D01*
X131348907Y-82308082D01*
X131440045Y-81967952D01*
X131517931Y-81526235D01*
X131557024Y-81079411D01*
X131557024Y-80630879D01*
X131517931Y-80184055D01*
X131440045Y-79742338D01*
X131323956Y-79309090D01*
X131273004Y-79169099D01*
X131170552Y-78887612D01*
X131170548Y-78887602D01*
X130980996Y-78481110D01*
X130980988Y-78481094D01*
X130765351Y-78107601D01*
X130748878Y-78039701D01*
X130771730Y-77973674D01*
X130826652Y-77930483D01*
X130872738Y-77921601D01*
X161766000Y-77921601D01*
X161833039Y-77941286D01*
G37*
%TD.AperFunction*%
%TD*%
M02*
