M48
; DRILL file {KiCad 9.0.1+1} date 2026-01-02T04:54:49+0000
; FORMAT={-:-/ absolute / metric / decimal}
; #@! TF.CreationDate,2026-01-02T04:54:49+00:00
; #@! TF.GenerationSoftware,Kicad,Pcbnew,9.0.1+1
; #@! TF.FileFunction,MixedPlating,1,2
FMAT,2
METRIC
; #@! TA.AperFunction,Plated,PTH,ViaDrill
T1C0.300
; #@! TA.AperFunction,Plated,PTH,ComponentDrill
T2C0.800
; #@! TA.AperFunction,Plated,PTH,ComponentDrill
T3C1.000
; #@! TA.AperFunction,Plated,PTH,ComponentDrill
T4C1.100
; #@! TA.AperFunction,NonPlated,NPTH,ComponentDrill
T5C1.100
; #@! TA.AperFunction,NonPlated,NPTH,ComponentDrill
T6C3.200
%
G90
G05
T1
X136.89Y-102.731
X168.83Y-104.371
X175.66Y-95.091
T2
X130.65Y-102.241
X133.19Y-102.241
X137.05Y-89.551
X141.67Y-94.821
X141.67Y-104.981
X145.77Y-94.781
X145.77Y-99.781
X147.21Y-89.551
X149.69Y-89.551
X149.79Y-94.881
X149.79Y-99.881
X159.85Y-89.551
X160.97Y-96.146
X160.97Y-98.686
X166.84Y-85.721
X166.84Y-90.721
X168.59Y-96.146
X168.59Y-98.686
T3
X153.7Y-94.896
X153.7Y-97.436
X153.7Y-99.976
T4
X129.83Y-96.061
X129.83Y-98.601
X173.468Y-86.911
X173.468Y-89.451
X173.468Y-97.911
X173.468Y-100.451
X173.468Y-102.991
X173.468Y-105.531
X173.468Y-108.071
T5
X127.29Y-96.061
X127.29Y-98.601
X176.007Y-86.911
X176.007Y-89.451
T6
X126.456Y-80.957
X126.456Y-113.886
X183.526Y-80.957
X183.526Y-113.886
M30
