%TF.GenerationSoftware,KiCad,Pcbnew,9.0.1+1*%
%TF.CreationDate,2026-01-01T20:49:08+00:00*%
%TF.ProjectId,WALKIN_PIR_IF,57414c4b-494e-45f5-9049-525f49462e6b,A*%
%TF.SameCoordinates,Original*%
%TF.FileFunction,Copper,L1,Top*%
%TF.FilePolarity,Positive*%
%FSLAX46Y46*%
G04 Gerber Fmt 4.6, Leading zero omitted, Abs format (unit mm)*
G04 Created by KiCad (PCBNEW 9.0.1+1) date 2026-01-01 20:49:08*
%MOMM*%
%LPD*%
G01*
G04 APERTURE LIST*
G04 Aperture macros list*
%AMRoundRect*
0 Rectangle with rounded corners*
0 $1 Rounding radius*
0 $2 $3 $4 $5 $6 $7 $8 $9 X,Y pos of 4 corners*
0 Add a 4 corners polygon primitive as box body*
4,1,4,$2,$3,$4,$5,$6,$7,$8,$9,$2,$3,0*
0 Add four circle primitives for the rounded corners*
1,1,$1+$1,$2,$3*
1,1,$1+$1,$4,$5*
1,1,$1+$1,$6,$7*
1,1,$1+$1,$8,$9*
0 Add four rect primitives between the rounded corners*
20,1,$1+$1,$2,$3,$4,$5,0*
20,1,$1+$1,$4,$5,$6,$7,0*
20,1,$1+$1,$6,$7,$8,$9,0*
20,1,$1+$1,$8,$9,$2,$3,0*%
G04 Aperture macros list end*
%ADD10C,0.625000*%
%TA.AperFunction,EtchedComponent*%
%ADD11C,0.600000*%
%TD*%
%TA.AperFunction,EtchedComponent*%
%ADD12C,0.000000*%
%TD*%
%TA.AperFunction,ComponentPad*%
%ADD13RoundRect,0.249999X0.850001X-0.850001X0.850001X0.850001X-0.850001X0.850001X-0.850001X-0.850001X0*%
%TD*%
%TA.AperFunction,ComponentPad*%
%ADD14C,2.200000*%
%TD*%
%TA.AperFunction,ComponentPad*%
%ADD15C,1.600000*%
%TD*%
%TA.AperFunction,ComponentPad*%
%ADD16RoundRect,0.250000X-0.550000X-0.550000X0.550000X-0.550000X0.550000X0.550000X-0.550000X0.550000X0*%
%TD*%
%TA.AperFunction,SMDPad,CuDef*%
%ADD17RoundRect,0.150000X0.512500X0.150000X-0.512500X0.150000X-0.512500X-0.150000X0.512500X-0.150000X0*%
%TD*%
%TA.AperFunction,SMDPad,CuDef*%
%ADD18RoundRect,0.250000X0.300000X-0.300000X0.300000X0.300000X-0.300000X0.300000X-0.300000X-0.300000X0*%
%TD*%
%TA.AperFunction,ComponentPad*%
%ADD19O,1.600000X1.600000*%
%TD*%
%TA.AperFunction,ComponentPad*%
%ADD20RoundRect,0.249999X-0.850001X0.850001X-0.850001X-0.850001X0.850001X-0.850001X0.850001X0.850001X0*%
%TD*%
%TA.AperFunction,ComponentPad*%
%ADD21C,1.400000*%
%TD*%
%TA.AperFunction,ComponentPad*%
%ADD22R,1.700000X1.700000*%
%TD*%
%TA.AperFunction,ComponentPad*%
%ADD23O,1.700000X1.700000*%
%TD*%
%TA.AperFunction,SMDPad,CuDef*%
%ADD24RoundRect,0.250000X0.300000X0.300000X-0.300000X0.300000X-0.300000X-0.300000X0.300000X-0.300000X0*%
%TD*%
%TA.AperFunction,ViaPad*%
%ADD25C,0.600000*%
%TD*%
%TA.AperFunction,Conductor*%
%ADD26C,1.000000*%
%TD*%
%TA.AperFunction,Conductor*%
%ADD27C,0.500000*%
%TD*%
%TA.AperFunction,Conductor*%
%ADD28C,0.200000*%
%TD*%
%TA.AperFunction,Conductor*%
%ADD29C,0.400000*%
%TD*%
G04 APERTURE END LIST*
D10*
G36*
X138867741Y-109995859D02*
G01*
X139033831Y-110017164D01*
X139192346Y-110054883D01*
X139481476Y-110176327D01*
X139728643Y-110354323D01*
X139928108Y-110583382D01*
X140008194Y-110715421D01*
X140074441Y-110858735D01*
X140079850Y-110872957D01*
X140130997Y-111038743D01*
X140168093Y-111228693D01*
X140197397Y-111530511D01*
X140206607Y-111907819D01*
X137774864Y-111907819D01*
X137783299Y-112085593D01*
X137833622Y-112367834D01*
X137883073Y-112494094D01*
X137951269Y-112612887D01*
X138054394Y-112747540D01*
X138146006Y-112834473D01*
X138247475Y-112906684D01*
X138359112Y-112964290D01*
X138479064Y-113006090D01*
X138608690Y-113031985D01*
X138745088Y-113040709D01*
X138882683Y-113032143D01*
X139117503Y-112968876D01*
X139221235Y-112914378D01*
X139315530Y-112844827D01*
X139403188Y-112756899D01*
X139480273Y-112653064D01*
X139550442Y-112525297D01*
X139608151Y-112379879D01*
X140137364Y-112379879D01*
X140119550Y-112464954D01*
X140012622Y-112774147D01*
X139853257Y-113031803D01*
X139754927Y-113141675D01*
X139644670Y-113238594D01*
X139521751Y-113322875D01*
X139387618Y-113393130D01*
X139239912Y-113449853D01*
X139081551Y-113491143D01*
X138908896Y-113516969D01*
X138726129Y-113525683D01*
X138539752Y-113516452D01*
X138219172Y-113450480D01*
X137941250Y-113325047D01*
X137817233Y-113240343D01*
X137704109Y-113141634D01*
X137600301Y-113026938D01*
X137508482Y-112898449D01*
X137426774Y-112752050D01*
X137358515Y-112591845D01*
X137302425Y-112411961D01*
X137261538Y-112218216D01*
X137235684Y-112003831D01*
X137226967Y-111775653D01*
X137241418Y-111489564D01*
X137243334Y-111479447D01*
X137787504Y-111479447D01*
X139639750Y-111479447D01*
X139616402Y-111232135D01*
X139531438Y-110973461D01*
X139393102Y-110763746D01*
X139209776Y-110607907D01*
X139103468Y-110551575D01*
X138987958Y-110510285D01*
X138864055Y-110484901D01*
X138732449Y-110476250D01*
X138562960Y-110490489D01*
X138440393Y-110520522D01*
X138326243Y-110566392D01*
X138219830Y-110628310D01*
X138123379Y-110705060D01*
X138035782Y-110798094D01*
X137959999Y-110905114D01*
X137895390Y-111028380D01*
X137844675Y-111164687D01*
X137808076Y-111316156D01*
X137787504Y-111479447D01*
X137243334Y-111479447D01*
X137314984Y-111101022D01*
X137443401Y-110770646D01*
X137619615Y-110498152D01*
X137838781Y-110282701D01*
X137963668Y-110196308D01*
X138098524Y-110124391D01*
X138243826Y-110067135D01*
X138398393Y-110025496D01*
X138564242Y-109999709D01*
X138738769Y-109991001D01*
X138867741Y-109995859D01*
G37*
D11*
%TO.C,REF\u002A\u002A*%
X136221405Y-111675000D02*
G75*
G02*
X135224285Y-113393839I-1980031J1D01*
G01*
X136221405Y-111675000D02*
G75*
G02*
X141221405Y-111675000I2500000J0D01*
G01*
X142218525Y-113393839D02*
G75*
G02*
X141221407Y-111675000I982915J1718839D01*
G01*
X142218525Y-113415891D02*
G75*
G02*
X135224285Y-113415891I-3497120J8268836D01*
G01*
D12*
%TA.AperFunction,EtchedComponent*%
G36*
X137971405Y-108997642D02*
G01*
X137971405Y-108997642D01*
G75*
G02*
X139471405Y-108997642I750000J0D01*
G01*
X137971405Y-108997642D01*
G37*
%TD.AperFunction*%
%TA.AperFunction,EtchedComponent*%
G36*
X139471405Y-114277358D02*
G01*
X139471405Y-114277358D01*
G75*
G02*
X137971405Y-114277358I-750000J0D01*
G01*
X139471405Y-114277358D01*
G37*
%TD.AperFunction*%
%TD*%
D13*
%TO.P,J2,1,Pin_1*%
%TO.N,/NTC2*%
X173467500Y-108071101D03*
D14*
%TO.P,J2,2,Pin_2*%
%TO.N,/NTC1*%
X173467500Y-105531101D03*
%TO.P,J2,3,Pin_3*%
%TO.N,/COM*%
X173467500Y-102991101D03*
%TO.P,J2,4,Pin_4*%
%TO.N,/DIN2*%
X173467500Y-100451101D03*
%TO.P,J2,5,Pin_5*%
%TO.N,/DIN1*%
X173467500Y-97911101D03*
%TD*%
D15*
%TO.P,C1,1*%
%TO.N,VDD*%
X145770000Y-94781101D03*
%TO.P,C1,2*%
%TO.N,GND*%
X145770000Y-99781101D03*
%TD*%
%TO.P,C2,1*%
%TO.N,VDD*%
X149790000Y-94881101D03*
%TO.P,C2,2*%
%TO.N,GND*%
X149790000Y-99881101D03*
%TD*%
D16*
%TO.P,U1,1*%
%TO.N,/PIR_SIG*%
X160970000Y-96146101D03*
D15*
%TO.P,U1,2*%
%TO.N,GND*%
X160970000Y-98686101D03*
%TO.P,U1,3*%
%TO.N,/COM*%
X168590000Y-98686101D03*
%TO.P,U1,4*%
%TO.N,/DIN1*%
X168590000Y-96146101D03*
%TD*%
D17*
%TO.P,Q1,1,G*%
%TO.N,GND*%
X137870000Y-99581101D03*
%TO.P,Q1,2,S*%
%TO.N,VDD*%
X137870000Y-97681101D03*
%TO.P,Q1,3,D*%
%TO.N,Net-(JP1-B)*%
X135595000Y-98631101D03*
%TD*%
D18*
%TO.P,D3,1,A1*%
%TO.N,/NTC2*%
X166790000Y-110631101D03*
%TO.P,D3,2,A2*%
%TO.N,/NTC1*%
X166790000Y-107831101D03*
%TD*%
D15*
%TO.P,R2,1*%
%TO.N,Net-(S1-VOUT)*%
X149690000Y-89551101D03*
D19*
%TO.P,R2,2*%
%TO.N,/PIR_SIG*%
X159850000Y-89551101D03*
%TD*%
D20*
%TO.P,J1,1,VBAT+*%
%TO.N,GND*%
X129830000Y-96061101D03*
D14*
%TO.P,J1,2,VBAT-*%
%TO.N,/VBAT*%
X129830000Y-98601101D03*
%TD*%
D21*
%TO.P,JP1,1,A*%
%TO.N,/VBAT*%
X130650000Y-102241101D03*
%TO.P,JP1,2,B*%
%TO.N,Net-(JP1-B)*%
X133190000Y-102241101D03*
%TD*%
D18*
%TO.P,D1,1,A1*%
%TO.N,/COM*%
X166790000Y-105294851D03*
%TO.P,D1,2,A2*%
%TO.N,/DIN2*%
X166790000Y-102494851D03*
%TD*%
D15*
%TO.P,C3,1*%
%TO.N,/NTC1*%
X166840000Y-90721101D03*
%TO.P,C3,2*%
%TO.N,/NTC2*%
X166840000Y-85721101D03*
%TD*%
%TO.P,R1,1*%
%TO.N,VDD*%
X141670000Y-94821101D03*
D19*
%TO.P,R1,2*%
%TO.N,GND*%
X141670000Y-104981101D03*
%TD*%
D13*
%TO.P,J3,1,VBAT-*%
%TO.N,/NTC1*%
X173467500Y-89451101D03*
D14*
%TO.P,J3,2,VBAT+*%
%TO.N,/NTC2*%
X173467500Y-86911101D03*
%TD*%
D22*
%TO.P,S1,1,VCC*%
%TO.N,VDD*%
X153700000Y-94896101D03*
D23*
%TO.P,S1,2,VOUT*%
%TO.N,Net-(S1-VOUT)*%
X153700000Y-97436101D03*
%TO.P,S1,3,GND*%
%TO.N,GND*%
X153700000Y-99976101D03*
%TD*%
D24*
%TO.P,D2,1,A1*%
%TO.N,/COM*%
X173877500Y-94241101D03*
%TO.P,D2,2,A2*%
%TO.N,/DIN1*%
X171077500Y-94241101D03*
%TD*%
D15*
%TO.P,R3,1*%
%TO.N,Net-(S1-VOUT)*%
X147210000Y-89551101D03*
D19*
%TO.P,R3,2*%
%TO.N,GND*%
X137050000Y-89551101D03*
%TD*%
D25*
%TO.N,GND*%
X136890000Y-102731101D03*
%TO.N,/COM*%
X168830000Y-104371101D03*
X175660000Y-95091101D03*
%TD*%
D26*
%TO.N,VDD*%
X140655000Y-94896101D02*
X137870000Y-97681101D01*
X153700000Y-94896101D02*
X140655000Y-94896101D01*
D27*
%TO.N,/NTC2*%
X178740000Y-106861101D02*
X178740000Y-90171101D01*
X173467500Y-86911101D02*
X174070000Y-86911101D01*
X175390000Y-88231101D02*
X176800000Y-88231101D01*
X168630000Y-110631101D02*
X166790000Y-110631101D01*
X168030000Y-86911101D02*
X166840000Y-85721101D01*
X177530000Y-108071101D02*
X178740000Y-106861101D01*
X171190000Y-108071101D02*
X168630000Y-110631101D01*
X173467500Y-86911101D02*
X168030000Y-86911101D01*
X174070000Y-86911101D02*
X175390000Y-88231101D01*
X173467500Y-108071101D02*
X177530000Y-108071101D01*
X173467500Y-108071101D02*
X171190000Y-108071101D01*
X176800000Y-88231101D02*
X178740000Y-90171101D01*
%TO.N,/NTC1*%
X173417500Y-105581101D02*
X170970000Y-105581101D01*
X176770000Y-105531101D02*
X173467500Y-105531101D01*
D28*
X173467500Y-89451101D02*
X174610000Y-89451101D01*
D27*
X170970000Y-105581101D02*
X168720000Y-107831101D01*
X168110000Y-89451101D02*
X166840000Y-90721101D01*
X177560000Y-93603601D02*
X177560000Y-104741101D01*
X177560000Y-104741101D02*
X176770000Y-105531101D01*
D28*
X173467500Y-105531101D02*
X173417500Y-105581101D01*
D27*
X173467500Y-89451101D02*
X168110000Y-89451101D01*
X177590000Y-93573601D02*
X173467500Y-89451101D01*
X168720000Y-107831101D02*
X166790000Y-107831101D01*
D26*
%TO.N,/COM*%
X173780000Y-102991101D02*
X173467500Y-102991101D01*
D28*
X173467500Y-102991101D02*
X172895000Y-102991101D01*
D27*
%TO.N,/DIN2*%
X169230000Y-102461101D02*
X166823750Y-102461101D01*
D28*
X173940000Y-100451101D02*
X173467500Y-100451101D01*
X166823750Y-102461101D02*
X166790000Y-102494851D01*
D27*
X171240000Y-100451101D02*
X169230000Y-102461101D01*
D26*
X173467500Y-100451101D02*
X172967500Y-100951101D01*
D27*
X173467500Y-100451101D02*
X171240000Y-100451101D01*
%TO.N,/DIN1*%
X171077500Y-94241101D02*
X171077500Y-95521101D01*
X172118750Y-96562351D02*
X171702500Y-96146101D01*
X173467500Y-97911101D02*
X172118750Y-96562351D01*
X171077500Y-95521101D02*
X172118750Y-96562351D01*
X171702500Y-96146101D02*
X168590000Y-96146101D01*
D26*
%TO.N,/VBAT*%
X129830000Y-101421101D02*
X130650000Y-102241101D01*
X129830000Y-98601101D02*
X129830000Y-101421101D01*
D29*
%TO.N,/PIR_SIG*%
X159850000Y-95026101D02*
X160970000Y-96146101D01*
X159850000Y-89551101D02*
X159850000Y-95026101D01*
%TO.N,Net-(S1-VOUT)*%
X152290000Y-89551101D02*
X155810000Y-93071101D01*
X155810000Y-93071101D02*
X155810000Y-95491101D01*
X155810000Y-95491101D02*
X153865000Y-97436101D01*
X149690000Y-89551101D02*
X152290000Y-89551101D01*
X149690000Y-89551101D02*
X147210000Y-89551101D01*
X153865000Y-97436101D02*
X153700000Y-97436101D01*
D26*
%TO.N,Net-(JP1-B)*%
X135595000Y-98631101D02*
X135595000Y-99836101D01*
X135595000Y-99836101D02*
X133190000Y-102241101D01*
D28*
X135565000Y-98601101D02*
X135595000Y-98631101D01*
%TD*%
%TA.AperFunction,Conductor*%
%TO.N,/NTC1*%
G36*
X174566529Y-89140724D02*
G01*
X174571575Y-89146296D01*
X175001468Y-90138656D01*
X175181905Y-90555176D01*
X175374998Y-91000908D01*
X175375142Y-91009862D01*
X175372535Y-91013832D01*
X175030231Y-91356136D01*
X175021958Y-91359563D01*
X175017308Y-91358599D01*
X174155055Y-90985069D01*
X173162695Y-90555176D01*
X173156466Y-90548743D01*
X173156094Y-90541237D01*
X173465009Y-89456656D01*
X173470571Y-89449639D01*
X173473054Y-89448610D01*
X174557635Y-89139695D01*
X174566529Y-89140724D01*
G37*
%TD.AperFunction*%
%TD*%
%TA.AperFunction,Conductor*%
%TO.N,Net-(S1-VOUT)*%
G36*
X149859189Y-88771841D02*
G01*
X151267359Y-89348126D01*
X151273718Y-89354431D01*
X151274628Y-89358954D01*
X151274628Y-89743247D01*
X151271201Y-89751520D01*
X151267359Y-89754075D01*
X149859192Y-90330359D01*
X149850238Y-90330321D01*
X149843933Y-90323962D01*
X149843289Y-90321828D01*
X149689459Y-89553393D01*
X149689459Y-89548808D01*
X149843289Y-88780372D01*
X149848273Y-88772934D01*
X149857058Y-88771198D01*
X149859189Y-88771841D01*
G37*
%TD.AperFunction*%
%TD*%
%TA.AperFunction,Conductor*%
%TO.N,/NTC1*%
G36*
X174087659Y-104620573D02*
G01*
X175539490Y-105277988D01*
X175545613Y-105284522D01*
X175546364Y-105288646D01*
X175546364Y-105773555D01*
X175542937Y-105781828D01*
X175539490Y-105784213D01*
X174087660Y-106441627D01*
X174078710Y-106441918D01*
X174073112Y-106437477D01*
X173470854Y-105537607D01*
X173469101Y-105528827D01*
X173470853Y-105524595D01*
X174073113Y-104624722D01*
X174080560Y-104619755D01*
X174087659Y-104620573D01*
G37*
%TD.AperFunction*%
%TD*%
%TA.AperFunction,Conductor*%
%TO.N,/NTC2*%
G36*
X174520047Y-107076700D02*
G01*
X175562577Y-107817603D01*
X175567335Y-107825189D01*
X175567499Y-107827140D01*
X175567499Y-108315061D01*
X175564072Y-108323334D01*
X175562577Y-108324598D01*
X174520047Y-109065501D01*
X174511318Y-109067500D01*
X174505183Y-109064420D01*
X173475342Y-108079557D01*
X173471731Y-108071362D01*
X173474972Y-108063015D01*
X173475342Y-108062645D01*
X173721602Y-107827140D01*
X174505184Y-107077780D01*
X174513530Y-107074540D01*
X174520047Y-107076700D01*
G37*
%TD.AperFunction*%
%TD*%
%TA.AperFunction,Conductor*%
%TO.N,/PIR_SIG*%
G36*
X160052229Y-94783170D02*
G01*
X161336518Y-95341293D01*
X161342739Y-95347733D01*
X161342585Y-95356686D01*
X161342437Y-95357012D01*
X160972069Y-96142709D01*
X160965442Y-96148731D01*
X160965427Y-96148736D01*
X160181448Y-96429221D01*
X160172504Y-96428782D01*
X160166491Y-96422146D01*
X160166356Y-96421748D01*
X159654792Y-94797417D01*
X159655576Y-94788496D01*
X159662437Y-94782742D01*
X159665952Y-94782202D01*
X160047567Y-94782202D01*
X160052229Y-94783170D01*
G37*
%TD.AperFunction*%
%TD*%
%TA.AperFunction,Conductor*%
%TO.N,/NTC1*%
G36*
X172862046Y-104624960D02*
G01*
X173464144Y-105524593D01*
X173465898Y-105533375D01*
X173464144Y-105537609D01*
X172861730Y-106437713D01*
X172854281Y-106442682D01*
X172847488Y-106441997D01*
X171395817Y-105834108D01*
X171389509Y-105827752D01*
X171388636Y-105823316D01*
X171388636Y-105338417D01*
X171392063Y-105330144D01*
X171395212Y-105327898D01*
X172847202Y-104620948D01*
X172856140Y-104620408D01*
X172862046Y-104624960D01*
G37*
%TD.AperFunction*%
%TD*%
%TA.AperFunction,Conductor*%
%TO.N,/NTC1*%
G36*
X167194005Y-107303455D02*
G01*
X167882636Y-107578163D01*
X167889050Y-107584410D01*
X167890000Y-107589029D01*
X167890000Y-108073172D01*
X167886573Y-108081445D01*
X167882635Y-108084039D01*
X167194007Y-108358745D01*
X167185053Y-108358628D01*
X167180299Y-108354880D01*
X166975767Y-108081101D01*
X166794229Y-107838101D01*
X166792024Y-107829425D01*
X166794228Y-107824101D01*
X167180300Y-107307320D01*
X167187996Y-107302744D01*
X167194005Y-107303455D01*
G37*
%TD.AperFunction*%
%TD*%
%TA.AperFunction,Conductor*%
%TO.N,VDD*%
G36*
X149802802Y-94413153D02*
G01*
X149805372Y-94420469D01*
X149805372Y-95378028D01*
X149801945Y-95386301D01*
X149793672Y-95389728D01*
X149788883Y-95388703D01*
X149022835Y-95045008D01*
X149016689Y-95038495D01*
X149016949Y-95029544D01*
X149020305Y-95025206D01*
X149786356Y-94411338D01*
X149794955Y-94408840D01*
X149802802Y-94413153D01*
G37*
%TD.AperFunction*%
%TD*%
%TA.AperFunction,Conductor*%
%TO.N,VDD*%
G36*
X145783364Y-94411584D02*
G01*
X145785372Y-94418139D01*
X145785372Y-95375900D01*
X145781945Y-95384173D01*
X145773672Y-95387600D01*
X145767850Y-95386049D01*
X145001641Y-94946506D01*
X144996170Y-94939417D01*
X144997314Y-94930535D01*
X145000907Y-94926666D01*
X145767118Y-94408446D01*
X145775890Y-94406651D01*
X145783364Y-94411584D01*
G37*
%TD.AperFunction*%
%TD*%
%TA.AperFunction,Conductor*%
%TO.N,/VBAT*%
G36*
X130820146Y-99002093D02*
G01*
X130826523Y-99008381D01*
X130826956Y-99016283D01*
X130332495Y-100671614D01*
X130326843Y-100678560D01*
X130321284Y-100679965D01*
X129338716Y-100679965D01*
X129330443Y-100676538D01*
X129327505Y-100671614D01*
X128833043Y-99016281D01*
X128833959Y-99007375D01*
X128839851Y-99002094D01*
X129825601Y-98601887D01*
X129834399Y-98601887D01*
X130820146Y-99002093D01*
G37*
%TD.AperFunction*%
%TD*%
%TA.AperFunction,Conductor*%
%TO.N,/NTC2*%
G36*
X174395065Y-86326024D02*
G01*
X174395118Y-86326107D01*
X175348573Y-87833216D01*
X175350101Y-87842039D01*
X175346959Y-87847744D01*
X175004046Y-88190657D01*
X174995773Y-88194084D01*
X174994379Y-88194001D01*
X173306186Y-87991414D01*
X173298380Y-87987025D01*
X173295963Y-87978403D01*
X173296019Y-87978005D01*
X173465968Y-86915549D01*
X173470658Y-86907922D01*
X173471167Y-86907574D01*
X174378895Y-86322527D01*
X174387703Y-86320926D01*
X174395065Y-86326024D01*
G37*
%TD.AperFunction*%
%TD*%
%TA.AperFunction,Conductor*%
%TO.N,/DIN1*%
G36*
X172181356Y-96267004D02*
G01*
X173672818Y-96828741D01*
X173679352Y-96834864D01*
X173680171Y-96841964D01*
X173469728Y-97904126D01*
X173464759Y-97911575D01*
X173460525Y-97913329D01*
X172398363Y-98123772D01*
X172389581Y-98122018D01*
X172385140Y-98116419D01*
X172308649Y-97913329D01*
X171823404Y-96624958D01*
X171823695Y-96616010D01*
X171826077Y-96612566D01*
X172168963Y-96269680D01*
X172177235Y-96266254D01*
X172181356Y-96267004D01*
G37*
%TD.AperFunction*%
%TD*%
%TA.AperFunction,Conductor*%
%TO.N,/NTC2*%
G36*
X172861888Y-86004724D02*
G01*
X173464144Y-86904593D01*
X173465898Y-86913375D01*
X173464144Y-86917609D01*
X172861888Y-87817477D01*
X172854439Y-87822446D01*
X172847339Y-87821627D01*
X171395510Y-87164213D01*
X171389387Y-87157679D01*
X171388636Y-87153555D01*
X171388636Y-86668646D01*
X171392063Y-86660373D01*
X171395508Y-86657988D01*
X172847340Y-86000573D01*
X172856289Y-86000283D01*
X172861888Y-86004724D01*
G37*
%TD.AperFunction*%
%TD*%
%TA.AperFunction,Conductor*%
%TO.N,VDD*%
G36*
X141683138Y-94412183D02*
G01*
X141685372Y-94419059D01*
X141685372Y-95376766D01*
X141681945Y-95385039D01*
X141673672Y-95388466D01*
X141668244Y-95387131D01*
X140902078Y-94985921D01*
X140896339Y-94979047D01*
X140897141Y-94970128D01*
X140900628Y-94966091D01*
X141666797Y-94409592D01*
X141675504Y-94407503D01*
X141683138Y-94412183D01*
G37*
%TD.AperFunction*%
%TD*%
%TA.AperFunction,Conductor*%
%TO.N,/NTC2*%
G36*
X167194005Y-110103455D02*
G01*
X167882636Y-110378163D01*
X167889050Y-110384410D01*
X167890000Y-110389029D01*
X167890000Y-110873172D01*
X167886573Y-110881445D01*
X167882635Y-110884039D01*
X167194007Y-111158745D01*
X167185053Y-111158628D01*
X167180299Y-111154880D01*
X166975767Y-110881101D01*
X166794229Y-110638101D01*
X166792024Y-110629425D01*
X166794228Y-110624101D01*
X167180300Y-110107320D01*
X167187996Y-110102744D01*
X167194005Y-110103455D01*
G37*
%TD.AperFunction*%
%TD*%
%TA.AperFunction,Conductor*%
%TO.N,/NTC1*%
G36*
X174566335Y-88616780D02*
G01*
X174568755Y-88623268D01*
X174609981Y-89350765D01*
X174610000Y-89351427D01*
X174610000Y-89550774D01*
X174609981Y-89551436D01*
X174568756Y-90278934D01*
X174564867Y-90287000D01*
X174556413Y-90289953D01*
X174549925Y-90287533D01*
X173596029Y-89551101D01*
X173478494Y-89460361D01*
X173474041Y-89452594D01*
X173476384Y-89443951D01*
X173478492Y-89441842D01*
X174549924Y-88614668D01*
X174558567Y-88612326D01*
X174566335Y-88616780D01*
G37*
%TD.AperFunction*%
%TD*%
%TA.AperFunction,Conductor*%
%TO.N,/NTC2*%
G36*
X172429816Y-107077781D02*
G01*
X173459657Y-108062645D01*
X173463268Y-108070840D01*
X173460027Y-108079187D01*
X173459657Y-108079557D01*
X172429816Y-109064420D01*
X172421469Y-109067661D01*
X172414952Y-109065501D01*
X171372423Y-108324598D01*
X171367665Y-108317012D01*
X171367501Y-108315061D01*
X171367501Y-107827140D01*
X171370928Y-107818867D01*
X171372423Y-107817603D01*
X172414952Y-107076699D01*
X172423681Y-107074701D01*
X172429816Y-107077781D01*
G37*
%TD.AperFunction*%
%TD*%
%TA.AperFunction,Conductor*%
%TO.N,/NTC1*%
G36*
X167789461Y-89429560D02*
G01*
X168131540Y-89771639D01*
X168134967Y-89779912D01*
X168133915Y-89784761D01*
X167510872Y-91153046D01*
X167504325Y-91159155D01*
X167495375Y-91158845D01*
X167493736Y-91157933D01*
X166841242Y-90723106D01*
X166837994Y-90719858D01*
X166403167Y-90067364D01*
X166401431Y-90058579D01*
X166406415Y-90051140D01*
X166408047Y-90050231D01*
X167776340Y-89427184D01*
X167785289Y-89426875D01*
X167789461Y-89429560D01*
G37*
%TD.AperFunction*%
%TD*%
%TA.AperFunction,Conductor*%
%TO.N,Net-(S1-VOUT)*%
G36*
X149529761Y-88771880D02*
G01*
X149536066Y-88778239D01*
X149536710Y-88780373D01*
X149690540Y-89548804D01*
X149690540Y-89553398D01*
X149536710Y-90321828D01*
X149531726Y-90329267D01*
X149522941Y-90331003D01*
X149520807Y-90330359D01*
X148112641Y-89754075D01*
X148106282Y-89747770D01*
X148105372Y-89743247D01*
X148105372Y-89358954D01*
X148108799Y-89350681D01*
X148112640Y-89348126D01*
X149520808Y-88771842D01*
X149529761Y-88771880D01*
G37*
%TD.AperFunction*%
%TD*%
%TA.AperFunction,Conductor*%
%TO.N,/DIN1*%
G36*
X171084499Y-94245329D02*
G01*
X171524454Y-94574006D01*
X171601279Y-94631400D01*
X171605856Y-94639097D01*
X171605144Y-94645108D01*
X171330438Y-95333736D01*
X171324190Y-95340151D01*
X171319571Y-95341101D01*
X170835429Y-95341101D01*
X170827156Y-95337674D01*
X170824562Y-95333736D01*
X170549855Y-94645108D01*
X170549972Y-94636154D01*
X170553718Y-94631401D01*
X171070499Y-94245330D01*
X171079176Y-94243125D01*
X171084499Y-94245329D01*
G37*
%TD.AperFunction*%
%TD*%
%TA.AperFunction,Conductor*%
%TO.N,/NTC2*%
G36*
X167509960Y-85287516D02*
G01*
X167510872Y-85289155D01*
X168133915Y-86657440D01*
X168134225Y-86666390D01*
X168131540Y-86670562D01*
X167789461Y-87012641D01*
X167781188Y-87016068D01*
X167776339Y-87015016D01*
X166408054Y-86391973D01*
X166401945Y-86385426D01*
X166402255Y-86376476D01*
X166403163Y-86374843D01*
X166837994Y-85722342D01*
X166841242Y-85719095D01*
X167493737Y-85284267D01*
X167502521Y-85282532D01*
X167509960Y-85287516D01*
G37*
%TD.AperFunction*%
%TD*%
%TA.AperFunction,Conductor*%
%TO.N,/DIN2*%
G36*
X167193776Y-101966726D02*
G01*
X167365198Y-102026895D01*
X167882175Y-102208354D01*
X167888846Y-102214328D01*
X167890000Y-102219394D01*
X167890000Y-102703514D01*
X167886573Y-102711787D01*
X167883073Y-102714196D01*
X167194215Y-103022003D01*
X167185264Y-103022250D01*
X167180069Y-103018323D01*
X166794229Y-102501851D01*
X166792024Y-102493175D01*
X166794228Y-102487851D01*
X167180529Y-101970763D01*
X167188225Y-101966187D01*
X167193776Y-101966726D01*
G37*
%TD.AperFunction*%
%TD*%
%TA.AperFunction,Conductor*%
%TO.N,Net-(S1-VOUT)*%
G36*
X147379189Y-88771841D02*
G01*
X148787359Y-89348126D01*
X148793718Y-89354431D01*
X148794628Y-89358954D01*
X148794628Y-89743247D01*
X148791201Y-89751520D01*
X148787359Y-89754075D01*
X147379192Y-90330359D01*
X147370238Y-90330321D01*
X147363933Y-90323962D01*
X147363289Y-90321828D01*
X147209459Y-89553393D01*
X147209459Y-89548808D01*
X147363289Y-88780372D01*
X147368273Y-88772934D01*
X147377058Y-88771198D01*
X147379189Y-88771841D01*
G37*
%TD.AperFunction*%
%TD*%
%TA.AperFunction,Conductor*%
%TO.N,/DIN1*%
G36*
X168758946Y-95366291D02*
G01*
X170167029Y-95893257D01*
X170173576Y-95899366D01*
X170174628Y-95904215D01*
X170174628Y-96387986D01*
X170171201Y-96396259D01*
X170167029Y-96398944D01*
X168758946Y-96925910D01*
X168749996Y-96925600D01*
X168743887Y-96919053D01*
X168743373Y-96917249D01*
X168589459Y-96148393D01*
X168589459Y-96143808D01*
X168743373Y-95374950D01*
X168748357Y-95367513D01*
X168757142Y-95365777D01*
X168758946Y-95366291D01*
G37*
%TD.AperFunction*%
%TD*%
%TA.AperFunction,Conductor*%
%TO.N,/DIN2*%
G36*
X172861888Y-99544724D02*
G01*
X173464144Y-100444593D01*
X173465898Y-100453375D01*
X173464144Y-100457609D01*
X172861888Y-101357477D01*
X172854439Y-101362446D01*
X172847339Y-101361627D01*
X171395510Y-100704213D01*
X171389387Y-100697679D01*
X171388636Y-100693555D01*
X171388636Y-100208646D01*
X171392063Y-100200373D01*
X171395508Y-100197988D01*
X172847340Y-99540573D01*
X172856289Y-99540283D01*
X172861888Y-99544724D01*
G37*
%TD.AperFunction*%
%TD*%
%TA.AperFunction,Conductor*%
%TO.N,/PIR_SIG*%
G36*
X160620727Y-89704390D02*
G01*
X160628166Y-89709374D01*
X160629902Y-89718159D01*
X160629258Y-89720293D01*
X160052975Y-91128460D01*
X160046670Y-91134819D01*
X160042147Y-91135729D01*
X159657853Y-91135729D01*
X159649580Y-91132302D01*
X159647025Y-91128460D01*
X159070741Y-89720293D01*
X159070779Y-89711339D01*
X159077138Y-89705034D01*
X159079267Y-89704391D01*
X159847707Y-89550560D01*
X159852293Y-89550560D01*
X160620727Y-89704390D01*
G37*
%TD.AperFunction*%
%TD*%
%TA.AperFunction,Conductor*%
%TO.N,/NTC1*%
G36*
X172429816Y-88457781D02*
G01*
X173459657Y-89442645D01*
X173463268Y-89450840D01*
X173460027Y-89459187D01*
X173459657Y-89459557D01*
X172429816Y-90444420D01*
X172421469Y-90447661D01*
X172414952Y-90445501D01*
X171372423Y-89704598D01*
X171367665Y-89697012D01*
X171367501Y-89695061D01*
X171367501Y-89207140D01*
X171370928Y-89198867D01*
X171372423Y-89197603D01*
X172414952Y-88456699D01*
X172423681Y-88454701D01*
X172429816Y-88457781D01*
G37*
%TD.AperFunction*%
%TD*%
%TA.AperFunction,Conductor*%
%TO.N,/COM*%
G36*
X171533194Y-101321785D02*
G01*
X171541006Y-101325006D01*
X172224920Y-101634694D01*
X172261447Y-101659968D01*
X172305082Y-101703603D01*
X172329720Y-101728241D01*
X172493579Y-101837728D01*
X172493583Y-101837730D01*
X172493586Y-101837732D01*
X172675664Y-101913152D01*
X172722958Y-101922559D01*
X172784867Y-101954943D01*
X172786447Y-101956495D01*
X173297265Y-102467313D01*
X173255208Y-102478583D01*
X173129792Y-102550991D01*
X173027390Y-102653393D01*
X172954982Y-102778809D01*
X172943712Y-102820866D01*
X172173248Y-102050401D01*
X172173247Y-102050402D01*
X172099059Y-102152514D01*
X171984719Y-102376916D01*
X171906897Y-102616431D01*
X171867500Y-102865172D01*
X171867500Y-103117029D01*
X171906897Y-103365770D01*
X171984719Y-103605285D01*
X172099057Y-103829684D01*
X172173248Y-103931798D01*
X172173248Y-103931799D01*
X172943712Y-103161335D01*
X172954982Y-103203393D01*
X173027390Y-103328809D01*
X173129792Y-103431211D01*
X173255208Y-103503619D01*
X173297265Y-103514888D01*
X172685904Y-104126248D01*
X172659012Y-104146644D01*
X172656757Y-104147912D01*
X172628655Y-104162231D01*
X172619587Y-104168818D01*
X172613304Y-104172353D01*
X172611963Y-104172662D01*
X172606797Y-104175764D01*
X172087527Y-104428589D01*
X172033245Y-104441101D01*
X169819999Y-104441101D01*
X168010000Y-106251100D01*
X168010000Y-106297101D01*
X167990315Y-106364140D01*
X167937511Y-106409895D01*
X167886000Y-106421101D01*
X167616316Y-106421101D01*
X167549277Y-106401416D01*
X167503522Y-106348612D01*
X167493578Y-106279454D01*
X167522603Y-106215898D01*
X167551221Y-106191561D01*
X167558344Y-106187167D01*
X167682315Y-106063196D01*
X167774356Y-105913975D01*
X167774358Y-105913970D01*
X167829505Y-105747548D01*
X167829506Y-105747541D01*
X167839999Y-105644837D01*
X167840000Y-105644824D01*
X167840000Y-105544851D01*
X166914000Y-105544851D01*
X166846961Y-105525166D01*
X166801206Y-105472362D01*
X166790000Y-105420851D01*
X166790000Y-105294851D01*
X166664000Y-105294851D01*
X166596961Y-105275166D01*
X166551206Y-105222362D01*
X166540000Y-105170851D01*
X166540000Y-105044851D01*
X167040000Y-105044851D01*
X167839999Y-105044851D01*
X167839999Y-104944879D01*
X167839998Y-104944864D01*
X167829505Y-104842153D01*
X167774358Y-104675731D01*
X167774356Y-104675726D01*
X167682315Y-104526505D01*
X167558345Y-104402535D01*
X167409124Y-104310494D01*
X167409119Y-104310492D01*
X167242697Y-104255345D01*
X167242690Y-104255344D01*
X167139986Y-104244851D01*
X167040000Y-104244851D01*
X167040000Y-105044851D01*
X166540000Y-105044851D01*
X166540000Y-104244850D01*
X166440028Y-104244851D01*
X166440012Y-104244852D01*
X166337302Y-104255345D01*
X166170880Y-104310492D01*
X166170871Y-104310496D01*
X166129096Y-104336264D01*
X166061704Y-104354704D01*
X165995040Y-104333781D01*
X165950271Y-104280139D01*
X165940000Y-104230725D01*
X165940000Y-103559563D01*
X165959685Y-103492524D01*
X166012489Y-103446769D01*
X166081647Y-103436825D01*
X166129094Y-103454023D01*
X166170666Y-103479665D01*
X166337203Y-103534850D01*
X166439991Y-103545351D01*
X167140008Y-103545350D01*
X167140016Y-103545349D01*
X167140019Y-103545349D01*
X167163896Y-103542909D01*
X167242797Y-103534850D01*
X167380876Y-103489094D01*
X167400440Y-103483524D01*
X167408318Y-103480002D01*
X167409311Y-103479674D01*
X167409321Y-103479669D01*
X167409334Y-103479665D01*
X167409345Y-103479657D01*
X167414392Y-103477306D01*
X167416109Y-103476522D01*
X167984848Y-103222389D01*
X168035435Y-103211601D01*
X169303920Y-103211601D01*
X169401462Y-103192197D01*
X169448913Y-103182759D01*
X169585495Y-103126185D01*
X169634729Y-103093287D01*
X169679296Y-103063510D01*
X169708415Y-103044054D01*
X169708416Y-103044053D01*
X170201478Y-102550991D01*
X170607626Y-102144842D01*
X171402182Y-101350284D01*
X171463503Y-101316801D01*
X171533194Y-101321785D01*
G37*
%TD.AperFunction*%
%TA.AperFunction,Conductor*%
G36*
X174875677Y-92460786D02*
G01*
X174896319Y-92477420D01*
X176313681Y-93894782D01*
X176347166Y-93956105D01*
X176350000Y-93982463D01*
X176350000Y-103139739D01*
X176330315Y-103206778D01*
X176313681Y-103227420D01*
X175136319Y-104404782D01*
X175109391Y-104419485D01*
X175083573Y-104436078D01*
X175077372Y-104436969D01*
X175074996Y-104438267D01*
X175048638Y-104441101D01*
X174943540Y-104441101D01*
X174892391Y-104430060D01*
X174628342Y-104310494D01*
X174326831Y-104173964D01*
X174310634Y-104164545D01*
X174310494Y-104164774D01*
X174306338Y-104162227D01*
X174280479Y-104149051D01*
X174249094Y-104126248D01*
X173637734Y-103514888D01*
X173679792Y-103503619D01*
X173805208Y-103431211D01*
X173907610Y-103328809D01*
X173980018Y-103203393D01*
X173991287Y-103161335D01*
X174761750Y-103931799D01*
X174761750Y-103931798D01*
X174835942Y-103829682D01*
X174835946Y-103829676D01*
X174950280Y-103605285D01*
X175028102Y-103365770D01*
X175067500Y-103117029D01*
X175067500Y-102865172D01*
X175028102Y-102616431D01*
X174950280Y-102376916D01*
X174835942Y-102152517D01*
X174761750Y-102050402D01*
X174761750Y-102050401D01*
X173991287Y-102820865D01*
X173980018Y-102778809D01*
X173907610Y-102653393D01*
X173805208Y-102550991D01*
X173679792Y-102478583D01*
X173637732Y-102467313D01*
X174249094Y-101855952D01*
X174280475Y-101833152D01*
X174306345Y-101819971D01*
X174510156Y-101671894D01*
X174688293Y-101493757D01*
X174836370Y-101289946D01*
X174950741Y-101065480D01*
X175028590Y-100825886D01*
X175068000Y-100577063D01*
X175068000Y-100325139D01*
X175028590Y-100076316D01*
X174950741Y-99836722D01*
X174950739Y-99836719D01*
X174950739Y-99836717D01*
X174896080Y-99729443D01*
X174836370Y-99612256D01*
X174690892Y-99412022D01*
X174688298Y-99408451D01*
X174688294Y-99408446D01*
X174548630Y-99268782D01*
X174515145Y-99207459D01*
X174520129Y-99137767D01*
X174548630Y-99093420D01*
X174605844Y-99036206D01*
X174688293Y-98953757D01*
X174836370Y-98749946D01*
X174950741Y-98525480D01*
X175028590Y-98285886D01*
X175068000Y-98037063D01*
X175068000Y-97785139D01*
X175028590Y-97536316D01*
X174950741Y-97296722D01*
X174950739Y-97296719D01*
X174950739Y-97296717D01*
X174909247Y-97215285D01*
X174836370Y-97072256D01*
X174779020Y-96993320D01*
X174688298Y-96868451D01*
X174688294Y-96868446D01*
X174510154Y-96690306D01*
X174510149Y-96690302D01*
X174306348Y-96542233D01*
X174306347Y-96542232D01*
X174306345Y-96542231D01*
X174081879Y-96427860D01*
X173842285Y-96350011D01*
X173842282Y-96350010D01*
X173837541Y-96348872D01*
X173837603Y-96348611D01*
X173819499Y-96343820D01*
X172468287Y-95834906D01*
X172424312Y-95806545D01*
X171954341Y-95336574D01*
X171920856Y-95275251D01*
X171925840Y-95205559D01*
X171926848Y-95202948D01*
X172074664Y-94832409D01*
X172082030Y-94803404D01*
X172083631Y-94797097D01*
X172086103Y-94788641D01*
X172117499Y-94693898D01*
X172128000Y-94591110D01*
X172128000Y-94591087D01*
X172827501Y-94591087D01*
X172837994Y-94693798D01*
X172893141Y-94860220D01*
X172893143Y-94860225D01*
X172985184Y-95009446D01*
X173109154Y-95133416D01*
X173258375Y-95225457D01*
X173258380Y-95225459D01*
X173424802Y-95280606D01*
X173424809Y-95280607D01*
X173527519Y-95291100D01*
X174127500Y-95291100D01*
X174227472Y-95291100D01*
X174227486Y-95291099D01*
X174330197Y-95280606D01*
X174496619Y-95225459D01*
X174496624Y-95225457D01*
X174645845Y-95133416D01*
X174769815Y-95009446D01*
X174861856Y-94860225D01*
X174861858Y-94860220D01*
X174917005Y-94693798D01*
X174917006Y-94693791D01*
X174927499Y-94591087D01*
X174927500Y-94591074D01*
X174927500Y-94491101D01*
X174127500Y-94491101D01*
X174127500Y-95291100D01*
X173527519Y-95291100D01*
X173627500Y-95291099D01*
X173627500Y-94491101D01*
X172827501Y-94491101D01*
X172827501Y-94591087D01*
X172128000Y-94591087D01*
X172127999Y-94238685D01*
X172127999Y-93891114D01*
X172827500Y-93891114D01*
X172827500Y-93991101D01*
X173627500Y-93991101D01*
X174127500Y-93991101D01*
X174927499Y-93991101D01*
X174927499Y-93891129D01*
X174927498Y-93891114D01*
X174917005Y-93788403D01*
X174861858Y-93621981D01*
X174861856Y-93621976D01*
X174769815Y-93472755D01*
X174645845Y-93348785D01*
X174496624Y-93256744D01*
X174496619Y-93256742D01*
X174330197Y-93201595D01*
X174330190Y-93201594D01*
X174227486Y-93191101D01*
X174127500Y-93191101D01*
X174127500Y-93991101D01*
X173627500Y-93991101D01*
X173627500Y-93191100D01*
X173527528Y-93191101D01*
X173527512Y-93191102D01*
X173424802Y-93201595D01*
X173258380Y-93256742D01*
X173258375Y-93256744D01*
X173109154Y-93348785D01*
X172985184Y-93472755D01*
X172893143Y-93621976D01*
X172893141Y-93621981D01*
X172837994Y-93788403D01*
X172837993Y-93788410D01*
X172827500Y-93891114D01*
X172127999Y-93891114D01*
X172127999Y-93891099D01*
X172127998Y-93891081D01*
X172117499Y-93788304D01*
X172117498Y-93788301D01*
X172062314Y-93621767D01*
X171970212Y-93472445D01*
X171846156Y-93348389D01*
X171696834Y-93256287D01*
X171530297Y-93201102D01*
X171530295Y-93201101D01*
X171427510Y-93190601D01*
X170727498Y-93190601D01*
X170727480Y-93190602D01*
X170624703Y-93201101D01*
X170624700Y-93201102D01*
X170458168Y-93256286D01*
X170458163Y-93256288D01*
X170308842Y-93348390D01*
X170184789Y-93472443D01*
X170092687Y-93621764D01*
X170092685Y-93621769D01*
X170092615Y-93621981D01*
X170037501Y-93788304D01*
X170037501Y-93788305D01*
X170037500Y-93788305D01*
X170027000Y-93891084D01*
X170027000Y-94591102D01*
X170027001Y-94591120D01*
X170037500Y-94693897D01*
X170037502Y-94693904D01*
X170070502Y-94793492D01*
X170073335Y-94803404D01*
X170080334Y-94832408D01*
X170205640Y-95146519D01*
X170212196Y-95216080D01*
X170180104Y-95278144D01*
X170119553Y-95313004D01*
X170049766Y-95309594D01*
X170047004Y-95308598D01*
X169164333Y-94978263D01*
X169151502Y-94972615D01*
X169089214Y-94940878D01*
X168929359Y-94888939D01*
X168894534Y-94877624D01*
X168894532Y-94877623D01*
X168894530Y-94877623D01*
X168831609Y-94867657D01*
X168829964Y-94867396D01*
X168802829Y-94862346D01*
X168799257Y-94862532D01*
X168789087Y-94860922D01*
X168789086Y-94860921D01*
X168692352Y-94845601D01*
X168487648Y-94845601D01*
X168463329Y-94849452D01*
X168285465Y-94877623D01*
X168090776Y-94940882D01*
X167908386Y-95033816D01*
X167742786Y-95154129D01*
X167598028Y-95298887D01*
X167477715Y-95464487D01*
X167384781Y-95646877D01*
X167321522Y-95841566D01*
X167289500Y-96043749D01*
X167289500Y-96248452D01*
X167321522Y-96450635D01*
X167384781Y-96645324D01*
X167477715Y-96827714D01*
X167598028Y-96993314D01*
X167742786Y-97138072D01*
X167908385Y-97258385D01*
X167908387Y-97258386D01*
X167908390Y-97258388D01*
X168001630Y-97305896D01*
X168052426Y-97353871D01*
X168069221Y-97421692D01*
X168046684Y-97487826D01*
X168001630Y-97526866D01*
X167908644Y-97574244D01*
X167864077Y-97606624D01*
X167864077Y-97606625D01*
X168543554Y-98286101D01*
X168537339Y-98286101D01*
X168435606Y-98313360D01*
X168344394Y-98366021D01*
X168269920Y-98440495D01*
X168217259Y-98531707D01*
X168190000Y-98633440D01*
X168190000Y-98639654D01*
X167510524Y-97960178D01*
X167510523Y-97960178D01*
X167478143Y-98004745D01*
X167385244Y-98187069D01*
X167322009Y-98381683D01*
X167290000Y-98583783D01*
X167290000Y-98788418D01*
X167322009Y-98990518D01*
X167385244Y-99185132D01*
X167478141Y-99367451D01*
X167478147Y-99367460D01*
X167510523Y-99412022D01*
X167510524Y-99412023D01*
X168190000Y-98732547D01*
X168190000Y-98738762D01*
X168217259Y-98840495D01*
X168269920Y-98931707D01*
X168344394Y-99006181D01*
X168435606Y-99058842D01*
X168537339Y-99086101D01*
X168543553Y-99086101D01*
X167864076Y-99765575D01*
X167908650Y-99797960D01*
X168090968Y-99890856D01*
X168285582Y-99954091D01*
X168487683Y-99986101D01*
X168692317Y-99986101D01*
X168894417Y-99954091D01*
X169089031Y-99890856D01*
X169271349Y-99797960D01*
X169315921Y-99765575D01*
X168636447Y-99086101D01*
X168642661Y-99086101D01*
X168744394Y-99058842D01*
X168835606Y-99006181D01*
X168910080Y-98931707D01*
X168962741Y-98840495D01*
X168990000Y-98738762D01*
X168990000Y-98732549D01*
X169669474Y-99412023D01*
X169669474Y-99412022D01*
X169701859Y-99367450D01*
X169794755Y-99185132D01*
X169857990Y-98990518D01*
X169890000Y-98788418D01*
X169890000Y-98583783D01*
X169857990Y-98381683D01*
X169794755Y-98187069D01*
X169701859Y-98004751D01*
X169669474Y-97960178D01*
X169669474Y-97960177D01*
X168990000Y-98639652D01*
X168990000Y-98633440D01*
X168962741Y-98531707D01*
X168910080Y-98440495D01*
X168835606Y-98366021D01*
X168744394Y-98313360D01*
X168642661Y-98286101D01*
X168636446Y-98286101D01*
X169315922Y-97606625D01*
X169315921Y-97606624D01*
X169271359Y-97574248D01*
X169271350Y-97574242D01*
X169182480Y-97528960D01*
X169131684Y-97480985D01*
X169114889Y-97413164D01*
X169137427Y-97347029D01*
X169192142Y-97303578D01*
X169195270Y-97302357D01*
X170085782Y-96969090D01*
X170258459Y-96904467D01*
X170301921Y-96896601D01*
X171299748Y-96896601D01*
X171366787Y-96916286D01*
X171412542Y-96969090D01*
X171415790Y-96976895D01*
X171900219Y-98263099D01*
X171905010Y-98281204D01*
X171905271Y-98281142D01*
X171906409Y-98285883D01*
X171906410Y-98285886D01*
X171984259Y-98525480D01*
X172092931Y-98738762D01*
X172098632Y-98749949D01*
X172246701Y-98953750D01*
X172246705Y-98953755D01*
X172329156Y-99036206D01*
X172362641Y-99097529D01*
X172357657Y-99167221D01*
X172315785Y-99223154D01*
X172292625Y-99236846D01*
X171292856Y-99689560D01*
X171241706Y-99700601D01*
X171166080Y-99700601D01*
X171021092Y-99729441D01*
X171021082Y-99729444D01*
X170884511Y-99786013D01*
X170884498Y-99786020D01*
X170761584Y-99868149D01*
X170761580Y-99868152D01*
X168955451Y-101674282D01*
X168894128Y-101707767D01*
X168867770Y-101710601D01*
X168011515Y-101710601D01*
X167970447Y-101703603D01*
X167681375Y-101602139D01*
X167361193Y-101489755D01*
X167361182Y-101489752D01*
X167361180Y-101489752D01*
X167328306Y-101482497D01*
X167316025Y-101479117D01*
X167242801Y-101454853D01*
X167242798Y-101454852D01*
X167242797Y-101454852D01*
X167242793Y-101454851D01*
X167242790Y-101454851D01*
X167140010Y-101444351D01*
X166439998Y-101444351D01*
X166439980Y-101444352D01*
X166337203Y-101454851D01*
X166337200Y-101454852D01*
X166170668Y-101510036D01*
X166170659Y-101510040D01*
X166129096Y-101535677D01*
X166061704Y-101554117D01*
X165995040Y-101533194D01*
X165950271Y-101479552D01*
X165940000Y-101430138D01*
X165940000Y-95402463D01*
X165959685Y-95335424D01*
X165976319Y-95314782D01*
X168813681Y-92477420D01*
X168875004Y-92443935D01*
X168901362Y-92441101D01*
X174808638Y-92441101D01*
X174875677Y-92460786D01*
G37*
%TD.AperFunction*%
%TD*%
%TA.AperFunction,Conductor*%
%TO.N,GND*%
G36*
X161833039Y-77941286D02*
G01*
X161878794Y-77994090D01*
X161890000Y-78045601D01*
X161890000Y-94756356D01*
X161870315Y-94823395D01*
X161817511Y-94869150D01*
X161748353Y-94879094D01*
X161726998Y-94874062D01*
X161672797Y-94856102D01*
X161672795Y-94856101D01*
X161570016Y-94845601D01*
X161570009Y-94845601D01*
X161489957Y-94845601D01*
X161440536Y-94835326D01*
X160942248Y-94618781D01*
X160625077Y-94480945D01*
X160571439Y-94436172D01*
X160550521Y-94369507D01*
X160550500Y-94367220D01*
X160550500Y-91271772D01*
X160559738Y-91224807D01*
X160712470Y-90851601D01*
X160977929Y-90202940D01*
X160982198Y-90193632D01*
X160982204Y-90193620D01*
X161055220Y-90050320D01*
X161118477Y-89855635D01*
X161131609Y-89772724D01*
X161133333Y-89763846D01*
X161133254Y-89762337D01*
X161150500Y-89653453D01*
X161150500Y-89448749D01*
X161142257Y-89396707D01*
X161118477Y-89246566D01*
X161055218Y-89051877D01*
X160993284Y-88930326D01*
X160962287Y-88869491D01*
X160941851Y-88841363D01*
X160841971Y-88703887D01*
X160697213Y-88559129D01*
X160531613Y-88438816D01*
X160531612Y-88438815D01*
X160531610Y-88438814D01*
X160474653Y-88409792D01*
X160349223Y-88345882D01*
X160154534Y-88282623D01*
X159979995Y-88254979D01*
X159952352Y-88250601D01*
X159747648Y-88250601D01*
X159723329Y-88254452D01*
X159545465Y-88282623D01*
X159350776Y-88345882D01*
X159168386Y-88438816D01*
X159002786Y-88559129D01*
X158858028Y-88703887D01*
X158737715Y-88869487D01*
X158644781Y-89051877D01*
X158581522Y-89246566D01*
X158549500Y-89448749D01*
X158549500Y-89653457D01*
X158565567Y-89754899D01*
X158567733Y-89768572D01*
X158567912Y-89772192D01*
X158568983Y-89776467D01*
X158569841Y-89781885D01*
X158581503Y-89855514D01*
X158581523Y-89855635D01*
X158644718Y-90050130D01*
X158644781Y-90050322D01*
X158717795Y-90193620D01*
X158722071Y-90202947D01*
X158980953Y-90835533D01*
X159140262Y-91224807D01*
X159149500Y-91271772D01*
X159149500Y-94803991D01*
X159149388Y-94807276D01*
X159149500Y-94807959D01*
X159149500Y-94957107D01*
X159149500Y-95095095D01*
X159149500Y-95095097D01*
X159149499Y-95095097D01*
X159176418Y-95230423D01*
X159176421Y-95230433D01*
X159229222Y-95357908D01*
X159286281Y-95443304D01*
X159305886Y-95472644D01*
X159330518Y-95497276D01*
X159361109Y-95547707D01*
X159596331Y-96294590D01*
X159663773Y-96508732D01*
X159669500Y-96545980D01*
X159669500Y-96746101D01*
X159669501Y-96746120D01*
X159680000Y-96848897D01*
X159680001Y-96848900D01*
X159735185Y-97015432D01*
X159735187Y-97015437D01*
X159765016Y-97063797D01*
X159827288Y-97164757D01*
X159951344Y-97288813D01*
X160100666Y-97380915D01*
X160183152Y-97408248D01*
X160240597Y-97448021D01*
X160267420Y-97512537D01*
X160255105Y-97581313D01*
X160245143Y-97593076D01*
X160244077Y-97606625D01*
X160923553Y-98286101D01*
X160917339Y-98286101D01*
X160815606Y-98313360D01*
X160724394Y-98366021D01*
X160649920Y-98440495D01*
X160597259Y-98531707D01*
X160570000Y-98633440D01*
X160570000Y-98639654D01*
X159890524Y-97960178D01*
X159890523Y-97960178D01*
X159858143Y-98004745D01*
X159765244Y-98187069D01*
X159702009Y-98381683D01*
X159670000Y-98583783D01*
X159670000Y-98788418D01*
X159702009Y-98990518D01*
X159765244Y-99185132D01*
X159858141Y-99367451D01*
X159858147Y-99367460D01*
X159890523Y-99412022D01*
X159890524Y-99412023D01*
X160570000Y-98732547D01*
X160570000Y-98738762D01*
X160597259Y-98840495D01*
X160649920Y-98931707D01*
X160724394Y-99006181D01*
X160815606Y-99058842D01*
X160917339Y-99086101D01*
X160923552Y-99086101D01*
X160244076Y-99765575D01*
X160288650Y-99797960D01*
X160470968Y-99890856D01*
X160665582Y-99954091D01*
X160867683Y-99986101D01*
X161072317Y-99986101D01*
X161274417Y-99954091D01*
X161469031Y-99890856D01*
X161651350Y-99797960D01*
X161693113Y-99767617D01*
X161758919Y-99744136D01*
X161826973Y-99759961D01*
X161875669Y-99810066D01*
X161890000Y-99867934D01*
X161890000Y-116796601D01*
X161870315Y-116863640D01*
X161817511Y-116909395D01*
X161766000Y-116920601D01*
X130797364Y-116920601D01*
X130730325Y-116900916D01*
X130684570Y-116848112D01*
X130674626Y-116778954D01*
X130695788Y-116725479D01*
X130725194Y-116683483D01*
X130949460Y-116295044D01*
X131139018Y-115888537D01*
X131292424Y-115467055D01*
X131408513Y-115033807D01*
X131486399Y-114592090D01*
X131525492Y-114145266D01*
X131525492Y-113696734D01*
X131502242Y-113430994D01*
X134419518Y-113430994D01*
X134422752Y-113457059D01*
X134422930Y-113458970D01*
X134422787Y-113459700D01*
X134423458Y-113470925D01*
X134423442Y-113474649D01*
X134423442Y-113474650D01*
X134426106Y-113487445D01*
X134427764Y-113497440D01*
X134440244Y-113597987D01*
X134440245Y-113597988D01*
X134495237Y-113757017D01*
X134495238Y-113757018D01*
X134582090Y-113901138D01*
X134582092Y-113901140D01*
X134697014Y-114024056D01*
X134834981Y-114120392D01*
X134912471Y-114153165D01*
X134912472Y-114153165D01*
X134923923Y-114158008D01*
X134923926Y-114158009D01*
X135071729Y-114220515D01*
X135083570Y-114225523D01*
X135128385Y-114262188D01*
X135173397Y-114280801D01*
X135450067Y-114395207D01*
X136015853Y-114591173D01*
X136019231Y-114592096D01*
X136593427Y-114748998D01*
X136593431Y-114748999D01*
X136593439Y-114749001D01*
X137232158Y-114878513D01*
X137624355Y-114958038D01*
X137686144Y-114990651D01*
X137696657Y-115002248D01*
X137794181Y-115124540D01*
X137874223Y-115204582D01*
X138005944Y-115309626D01*
X138077458Y-115354561D01*
X138108432Y-115382241D01*
X138138509Y-115419956D01*
X138197569Y-115467055D01*
X138270233Y-115525002D01*
X138422019Y-115598098D01*
X138422020Y-115598098D01*
X138422024Y-115598100D01*
X138563077Y-115630294D01*
X138586273Y-115635589D01*
X138586278Y-115635590D01*
X138754756Y-115635590D01*
X138919010Y-115598100D01*
X139070804Y-115525000D01*
X139145074Y-115465770D01*
X139181436Y-115445675D01*
X139189226Y-115442950D01*
X139341020Y-115369850D01*
X139436866Y-115309626D01*
X139568587Y-115204582D01*
X139648629Y-115124540D01*
X139753673Y-114992819D01*
X139770934Y-114965346D01*
X139823266Y-114919056D01*
X139859437Y-114908419D01*
X140160774Y-114867990D01*
X140747595Y-114749001D01*
X141325181Y-114591173D01*
X141653078Y-114477601D01*
X141658652Y-114475818D01*
X141746354Y-114450049D01*
X142272875Y-114262047D01*
X142530338Y-114153165D01*
X142530339Y-114153165D01*
X142607829Y-114120392D01*
X142745796Y-114024056D01*
X142860718Y-113901140D01*
X142947573Y-113757017D01*
X143002566Y-113597985D01*
X143015670Y-113492404D01*
X143019367Y-113474649D01*
X143019318Y-113463007D01*
X143023292Y-113430994D01*
X143019410Y-113385958D01*
X143018956Y-113375863D01*
X143018668Y-113306379D01*
X142982999Y-113141931D01*
X142913919Y-112988492D01*
X142814447Y-112852770D01*
X142688930Y-112740694D01*
X142688928Y-112740692D01*
X142688926Y-112740691D01*
X142619947Y-112701248D01*
X142612044Y-112696326D01*
X142477001Y-112605016D01*
X142462413Y-112593467D01*
X142346000Y-112486156D01*
X142333304Y-112472555D01*
X142234250Y-112349023D01*
X142223740Y-112333685D01*
X142144290Y-112196730D01*
X142136187Y-112179982D01*
X142078121Y-112032674D01*
X142072623Y-112014926D01*
X142037248Y-111860571D01*
X142034467Y-111842191D01*
X142022254Y-111679863D01*
X142021905Y-111670560D01*
X142021905Y-111502032D01*
X142021905Y-111502028D01*
X141985744Y-111157980D01*
X141913818Y-110819596D01*
X141806915Y-110490584D01*
X141666207Y-110174548D01*
X141666204Y-110174544D01*
X141666203Y-110174540D01*
X141493237Y-109874953D01*
X141493237Y-109874952D01*
X141354061Y-109683395D01*
X141289895Y-109595078D01*
X141289892Y-109595075D01*
X141289888Y-109595069D01*
X141168446Y-109460196D01*
X141058413Y-109337992D01*
X140948378Y-109238915D01*
X140801335Y-109106516D01*
X140521452Y-108903167D01*
X140221864Y-108730201D01*
X140135731Y-108691852D01*
X139957172Y-108612352D01*
X139903936Y-108567102D01*
X139890568Y-108540028D01*
X139886997Y-108529821D01*
X139813897Y-108378027D01*
X139753673Y-108282181D01*
X139648629Y-108150460D01*
X139568587Y-108070418D01*
X139436866Y-107965374D01*
X139341020Y-107905150D01*
X139341017Y-107905148D01*
X139189232Y-107832052D01*
X139082388Y-107794665D01*
X139082378Y-107794662D01*
X138918132Y-107757174D01*
X138918114Y-107757171D01*
X138805650Y-107744500D01*
X138805644Y-107744500D01*
X138637166Y-107744500D01*
X138637159Y-107744500D01*
X138524695Y-107757171D01*
X138524677Y-107757174D01*
X138360431Y-107794662D01*
X138360421Y-107794665D01*
X138253577Y-107832052D01*
X138101792Y-107905148D01*
X138005945Y-107965373D01*
X137874223Y-108070417D01*
X137794180Y-108150460D01*
X137689136Y-108282182D01*
X137628911Y-108378029D01*
X137555812Y-108529821D01*
X137552237Y-108540037D01*
X137511511Y-108596809D01*
X137485635Y-108612351D01*
X137220961Y-108730193D01*
X137220945Y-108730201D01*
X136921358Y-108903167D01*
X136921357Y-108903167D01*
X136641474Y-109106516D01*
X136384397Y-109337992D01*
X136152921Y-109595069D01*
X135949572Y-109874952D01*
X135949572Y-109874953D01*
X135776606Y-110174540D01*
X135776603Y-110174547D01*
X135635892Y-110490591D01*
X135528991Y-110819599D01*
X135528990Y-110819600D01*
X135457067Y-111157975D01*
X135457066Y-111157980D01*
X135457010Y-111158517D01*
X135420905Y-111502032D01*
X135420905Y-111670347D01*
X135420555Y-111679651D01*
X135408326Y-111842178D01*
X135405543Y-111860574D01*
X135370173Y-112014909D01*
X135364667Y-112032683D01*
X135306606Y-112179977D01*
X135298504Y-112196725D01*
X135219054Y-112333681D01*
X135208535Y-112349030D01*
X135109496Y-112472543D01*
X135096801Y-112486145D01*
X134980384Y-112593460D01*
X134965796Y-112605009D01*
X134830624Y-112696407D01*
X134822722Y-112701328D01*
X134753875Y-112740697D01*
X134628361Y-112852771D01*
X134628361Y-112852772D01*
X134528891Y-112988492D01*
X134528887Y-112988498D01*
X134459809Y-113141935D01*
X134459808Y-113141939D01*
X134424140Y-113306379D01*
X134423852Y-113375863D01*
X134423395Y-113385991D01*
X134419518Y-113430994D01*
X131502242Y-113430994D01*
X131486399Y-113249910D01*
X131408513Y-112808193D01*
X131292424Y-112374945D01*
X131270258Y-112314045D01*
X131139020Y-111953467D01*
X131139016Y-111953457D01*
X130949464Y-111546965D01*
X130949456Y-111546949D01*
X130923521Y-111502028D01*
X130725194Y-111158517D01*
X130487883Y-110819600D01*
X130467927Y-110791099D01*
X130299493Y-110590368D01*
X130179617Y-110447506D01*
X129862458Y-110130347D01*
X129767216Y-110050429D01*
X129518864Y-109842036D01*
X129166168Y-109595078D01*
X129151447Y-109584770D01*
X128988837Y-109490887D01*
X128763014Y-109360507D01*
X128762998Y-109360499D01*
X128356506Y-109170947D01*
X128356496Y-109170943D01*
X127935015Y-109017538D01*
X127501772Y-108901451D01*
X127501761Y-108901449D01*
X127060059Y-108823565D01*
X126613231Y-108784472D01*
X126613230Y-108784472D01*
X126164698Y-108784472D01*
X126164697Y-108784472D01*
X125717869Y-108823565D01*
X125717867Y-108823565D01*
X125276166Y-108901449D01*
X125276155Y-108901451D01*
X124842912Y-109017538D01*
X124421431Y-109170943D01*
X124421421Y-109170947D01*
X124014929Y-109360499D01*
X124014913Y-109360507D01*
X123626489Y-109584765D01*
X123626464Y-109584781D01*
X123615490Y-109592465D01*
X123549283Y-109614790D01*
X123481516Y-109597776D01*
X123433706Y-109546826D01*
X123420371Y-109490887D01*
X123420371Y-104731101D01*
X140393391Y-104731101D01*
X141354314Y-104731101D01*
X141349920Y-104735495D01*
X141297259Y-104826707D01*
X141270000Y-104928440D01*
X141270000Y-105033762D01*
X141297259Y-105135495D01*
X141349920Y-105226707D01*
X141354314Y-105231101D01*
X140393391Y-105231101D01*
X140402009Y-105285514D01*
X140465244Y-105480130D01*
X140558140Y-105662450D01*
X140678417Y-105827995D01*
X140678417Y-105827996D01*
X140823104Y-105972683D01*
X140988650Y-106092960D01*
X141170968Y-106185855D01*
X141365578Y-106249089D01*
X141420000Y-106257708D01*
X141420000Y-105296787D01*
X141424394Y-105301181D01*
X141515606Y-105353842D01*
X141617339Y-105381101D01*
X141722661Y-105381101D01*
X141824394Y-105353842D01*
X141915606Y-105301181D01*
X141920000Y-105296787D01*
X141920000Y-106257707D01*
X141974421Y-106249089D01*
X142169031Y-106185855D01*
X142351349Y-106092960D01*
X142516894Y-105972683D01*
X142516895Y-105972683D01*
X142661582Y-105827996D01*
X142661582Y-105827995D01*
X142781859Y-105662450D01*
X142874755Y-105480130D01*
X142937990Y-105285514D01*
X142946609Y-105231101D01*
X141985686Y-105231101D01*
X141990080Y-105226707D01*
X142042741Y-105135495D01*
X142070000Y-105033762D01*
X142070000Y-104928440D01*
X142042741Y-104826707D01*
X141990080Y-104735495D01*
X141985686Y-104731101D01*
X142946609Y-104731101D01*
X142937990Y-104676687D01*
X142874755Y-104482071D01*
X142781859Y-104299751D01*
X142661582Y-104134206D01*
X142661582Y-104134205D01*
X142516895Y-103989518D01*
X142351349Y-103869241D01*
X142169029Y-103776345D01*
X141974413Y-103713110D01*
X141920000Y-103704491D01*
X141920000Y-104665415D01*
X141915606Y-104661021D01*
X141824394Y-104608360D01*
X141722661Y-104581101D01*
X141617339Y-104581101D01*
X141515606Y-104608360D01*
X141424394Y-104661021D01*
X141420000Y-104665415D01*
X141420000Y-103704491D01*
X141365586Y-103713110D01*
X141170970Y-103776345D01*
X140988650Y-103869241D01*
X140823105Y-103989518D01*
X140823104Y-103989518D01*
X140678417Y-104134205D01*
X140678417Y-104134206D01*
X140558140Y-104299751D01*
X140465244Y-104482071D01*
X140402009Y-104676687D01*
X140393391Y-104731101D01*
X123420371Y-104731101D01*
X123420371Y-95982254D01*
X126489500Y-95982254D01*
X126489500Y-96139947D01*
X126520261Y-96294590D01*
X126520264Y-96294602D01*
X126580602Y-96440273D01*
X126580609Y-96440286D01*
X126668210Y-96571389D01*
X126668213Y-96571393D01*
X126779707Y-96682887D01*
X126779711Y-96682890D01*
X126910814Y-96770491D01*
X126910827Y-96770498D01*
X127056498Y-96830836D01*
X127056503Y-96830838D01*
X127211153Y-96861600D01*
X127211156Y-96861601D01*
X127211158Y-96861601D01*
X127368844Y-96861601D01*
X127368845Y-96861600D01*
X127523497Y-96830838D01*
X127669179Y-96770495D01*
X127800289Y-96682890D01*
X127911789Y-96571390D01*
X127958681Y-96501211D01*
X128002779Y-96435215D01*
X128005214Y-96436842D01*
X128045130Y-96395849D01*
X128113199Y-96380090D01*
X128178983Y-96403634D01*
X128221595Y-96459005D01*
X128230000Y-96503881D01*
X128230000Y-96961072D01*
X128230001Y-96961088D01*
X128240494Y-97063797D01*
X128240494Y-97063799D01*
X128295640Y-97230220D01*
X128295645Y-97230231D01*
X128387680Y-97379441D01*
X128387683Y-97379445D01*
X128516425Y-97508187D01*
X128549910Y-97569510D01*
X128544926Y-97639202D01*
X128529063Y-97668752D01*
X128461130Y-97762255D01*
X128461129Y-97762257D01*
X128346760Y-97986717D01*
X128268910Y-98226312D01*
X128263642Y-98259573D01*
X128233711Y-98322707D01*
X128174398Y-98359637D01*
X128104536Y-98358637D01*
X128046304Y-98320026D01*
X128026610Y-98287628D01*
X127999394Y-98221922D01*
X127999390Y-98221915D01*
X127911789Y-98090812D01*
X127911786Y-98090808D01*
X127800292Y-97979314D01*
X127800288Y-97979311D01*
X127669185Y-97891710D01*
X127669172Y-97891703D01*
X127523501Y-97831365D01*
X127523489Y-97831362D01*
X127368845Y-97800601D01*
X127368842Y-97800601D01*
X127211158Y-97800601D01*
X127211155Y-97800601D01*
X127056510Y-97831362D01*
X127056498Y-97831365D01*
X126910827Y-97891703D01*
X126910814Y-97891710D01*
X126779711Y-97979311D01*
X126779707Y-97979314D01*
X126668213Y-98090808D01*
X126668210Y-98090812D01*
X126580609Y-98221915D01*
X126580602Y-98221928D01*
X126520264Y-98367599D01*
X126520261Y-98367611D01*
X126489500Y-98522254D01*
X126489500Y-98679947D01*
X126520261Y-98834590D01*
X126520264Y-98834602D01*
X126580602Y-98980273D01*
X126580609Y-98980286D01*
X126668210Y-99111389D01*
X126668213Y-99111393D01*
X126779707Y-99222887D01*
X126779711Y-99222890D01*
X126910814Y-99310491D01*
X126910827Y-99310498D01*
X127056498Y-99370836D01*
X127056503Y-99370838D01*
X127211153Y-99401600D01*
X127211156Y-99401601D01*
X127211158Y-99401601D01*
X127368844Y-99401601D01*
X127368845Y-99401600D01*
X127523497Y-99370838D01*
X127669179Y-99310495D01*
X127800289Y-99222890D01*
X127911789Y-99111390D01*
X127999394Y-98980280D01*
X128026609Y-98914576D01*
X128070447Y-98860174D01*
X128136741Y-98838108D01*
X128204440Y-98855386D01*
X128252052Y-98906522D01*
X128263642Y-98942629D01*
X128268910Y-98975888D01*
X128346760Y-99215484D01*
X128385678Y-99291863D01*
X128394006Y-99312668D01*
X128824313Y-100753225D01*
X128829500Y-100788715D01*
X128829500Y-101519642D01*
X128829500Y-101519644D01*
X128829499Y-101519644D01*
X128867947Y-101712930D01*
X128867950Y-101712940D01*
X128943364Y-101895008D01*
X128943371Y-101895021D01*
X129052860Y-102058882D01*
X129052863Y-102058886D01*
X129196537Y-102202560D01*
X129196559Y-102202580D01*
X129443581Y-102449602D01*
X129477066Y-102510925D01*
X129478372Y-102517880D01*
X129479058Y-102522210D01*
X129479059Y-102522215D01*
X129479060Y-102522219D01*
X129537453Y-102701933D01*
X129623240Y-102870300D01*
X129734310Y-103023174D01*
X129867927Y-103156791D01*
X130020801Y-103267861D01*
X130100347Y-103308391D01*
X130189163Y-103353646D01*
X130189165Y-103353646D01*
X130189168Y-103353648D01*
X130285497Y-103384947D01*
X130368881Y-103412041D01*
X130555514Y-103441601D01*
X130555519Y-103441601D01*
X130744486Y-103441601D01*
X130931118Y-103412041D01*
X131110832Y-103353648D01*
X131279199Y-103267861D01*
X131432073Y-103156791D01*
X131565690Y-103023174D01*
X131676760Y-102870300D01*
X131762547Y-102701933D01*
X131802069Y-102580296D01*
X131841507Y-102522622D01*
X131905866Y-102495424D01*
X131974712Y-102507339D01*
X132026188Y-102554583D01*
X132037931Y-102580297D01*
X132077454Y-102701937D01*
X132163240Y-102870300D01*
X132274310Y-103023174D01*
X132407927Y-103156791D01*
X132560801Y-103267861D01*
X132640347Y-103308391D01*
X132729163Y-103353646D01*
X132729165Y-103353646D01*
X132729168Y-103353648D01*
X132825497Y-103384947D01*
X132908881Y-103412041D01*
X133095514Y-103441601D01*
X133095519Y-103441601D01*
X133284486Y-103441601D01*
X133471118Y-103412041D01*
X133650832Y-103353648D01*
X133819199Y-103267861D01*
X133972073Y-103156791D01*
X134105690Y-103023174D01*
X134216760Y-102870300D01*
X134302547Y-102701933D01*
X134360940Y-102522219D01*
X134361625Y-102517889D01*
X134391551Y-102454754D01*
X134396401Y-102449618D01*
X135811339Y-101034682D01*
X136120387Y-100725635D01*
X136372137Y-100473885D01*
X136372137Y-100473884D01*
X136372140Y-100473882D01*
X136481632Y-100310015D01*
X136557052Y-100127936D01*
X136564250Y-100091745D01*
X136596633Y-100029838D01*
X136657348Y-99995262D01*
X136727117Y-99999000D01*
X136783790Y-100039865D01*
X136792599Y-100052816D01*
X136839817Y-100132656D01*
X136839821Y-100132662D01*
X136955938Y-100248779D01*
X136955947Y-100248786D01*
X137097303Y-100332383D01*
X137097306Y-100332384D01*
X137255004Y-100378200D01*
X137255010Y-100378201D01*
X137291850Y-100381100D01*
X137291866Y-100381101D01*
X137620000Y-100381101D01*
X138120000Y-100381101D01*
X138448134Y-100381101D01*
X138448149Y-100381100D01*
X138484989Y-100378201D01*
X138484995Y-100378200D01*
X138642693Y-100332384D01*
X138642696Y-100332383D01*
X138784052Y-100248786D01*
X138784061Y-100248779D01*
X138900178Y-100132662D01*
X138900185Y-100132653D01*
X138983781Y-99991299D01*
X139029600Y-99833587D01*
X139029795Y-99831102D01*
X139029795Y-99831101D01*
X138120000Y-99831101D01*
X138120000Y-100381101D01*
X137620000Y-100381101D01*
X137620000Y-99705101D01*
X137627728Y-99678783D01*
X144470000Y-99678783D01*
X144470000Y-99883418D01*
X144502009Y-100085518D01*
X144565244Y-100280132D01*
X144658141Y-100462451D01*
X144658147Y-100462460D01*
X144690523Y-100507022D01*
X144690524Y-100507023D01*
X145370000Y-99827547D01*
X145370000Y-99833762D01*
X145397259Y-99935495D01*
X145449920Y-100026707D01*
X145524394Y-100101181D01*
X145615606Y-100153842D01*
X145717339Y-100181101D01*
X145723553Y-100181101D01*
X145044076Y-100860575D01*
X145088650Y-100892960D01*
X145270968Y-100985856D01*
X145465582Y-101049091D01*
X145667683Y-101081101D01*
X145872317Y-101081101D01*
X146074417Y-101049091D01*
X146269031Y-100985856D01*
X146451349Y-100892960D01*
X146495921Y-100860575D01*
X146495922Y-100860575D01*
X145816447Y-100181101D01*
X145822661Y-100181101D01*
X145924394Y-100153842D01*
X146015606Y-100101181D01*
X146090080Y-100026707D01*
X146142741Y-99935495D01*
X146170000Y-99833762D01*
X146170000Y-99827549D01*
X146849474Y-100507023D01*
X146849474Y-100507022D01*
X146881859Y-100462450D01*
X146974755Y-100280132D01*
X147037990Y-100085518D01*
X147070000Y-99883418D01*
X147070000Y-99778783D01*
X148490000Y-99778783D01*
X148490000Y-99983418D01*
X148522009Y-100185518D01*
X148585244Y-100380132D01*
X148678141Y-100562451D01*
X148678147Y-100562460D01*
X148710523Y-100607022D01*
X148710524Y-100607023D01*
X149390000Y-99927547D01*
X149390000Y-99933762D01*
X149417259Y-100035495D01*
X149469920Y-100126707D01*
X149544394Y-100201181D01*
X149635606Y-100253842D01*
X149737339Y-100281101D01*
X149743553Y-100281101D01*
X149064076Y-100960575D01*
X149108650Y-100992960D01*
X149290968Y-101085856D01*
X149485582Y-101149091D01*
X149687683Y-101181101D01*
X149892317Y-101181101D01*
X150094417Y-101149091D01*
X150289031Y-101085856D01*
X150471349Y-100992960D01*
X150515921Y-100960575D01*
X149836447Y-100281101D01*
X149842661Y-100281101D01*
X149944394Y-100253842D01*
X150035606Y-100201181D01*
X150110080Y-100126707D01*
X150162741Y-100035495D01*
X150190000Y-99933762D01*
X150190000Y-99927549D01*
X150869474Y-100607023D01*
X150869474Y-100607022D01*
X150901859Y-100562450D01*
X150994755Y-100380132D01*
X151057990Y-100185518D01*
X151060505Y-100169640D01*
X151060505Y-100169639D01*
X151090000Y-99983418D01*
X151090000Y-99778783D01*
X151057990Y-99576683D01*
X150994755Y-99382069D01*
X150901859Y-99199751D01*
X150869474Y-99155178D01*
X150869474Y-99155177D01*
X150190000Y-99834652D01*
X150190000Y-99828440D01*
X150162741Y-99726707D01*
X150110080Y-99635495D01*
X150035606Y-99561021D01*
X149944394Y-99508360D01*
X149842661Y-99481101D01*
X149836446Y-99481101D01*
X150515922Y-98801625D01*
X150515921Y-98801624D01*
X150471359Y-98769248D01*
X150471350Y-98769242D01*
X150289031Y-98676345D01*
X150094417Y-98613110D01*
X149892317Y-98581101D01*
X149687683Y-98581101D01*
X149485582Y-98613110D01*
X149290968Y-98676345D01*
X149108644Y-98769244D01*
X149064077Y-98801624D01*
X149064077Y-98801625D01*
X149743554Y-99481101D01*
X149737339Y-99481101D01*
X149635606Y-99508360D01*
X149544394Y-99561021D01*
X149469920Y-99635495D01*
X149417259Y-99726707D01*
X149390000Y-99828440D01*
X149390000Y-99834654D01*
X148710524Y-99155178D01*
X148710523Y-99155178D01*
X148678143Y-99199745D01*
X148585244Y-99382069D01*
X148522009Y-99576683D01*
X148490000Y-99778783D01*
X147070000Y-99778783D01*
X147070000Y-99678783D01*
X147037990Y-99476683D01*
X146974755Y-99282069D01*
X146881859Y-99099751D01*
X146849474Y-99055178D01*
X146849474Y-99055177D01*
X146170000Y-99734652D01*
X146170000Y-99728440D01*
X146142741Y-99626707D01*
X146090080Y-99535495D01*
X146015606Y-99461021D01*
X145924394Y-99408360D01*
X145822661Y-99381101D01*
X145816446Y-99381101D01*
X146436345Y-98761203D01*
X146495922Y-98701625D01*
X146495921Y-98701624D01*
X146451359Y-98669248D01*
X146451350Y-98669242D01*
X146269031Y-98576345D01*
X146074417Y-98513110D01*
X145872317Y-98481101D01*
X145667683Y-98481101D01*
X145465582Y-98513110D01*
X145270968Y-98576345D01*
X145088644Y-98669244D01*
X145044077Y-98701624D01*
X145044077Y-98701625D01*
X145723554Y-99381101D01*
X145717339Y-99381101D01*
X145615606Y-99408360D01*
X145524394Y-99461021D01*
X145449920Y-99535495D01*
X145397259Y-99626707D01*
X145370000Y-99728440D01*
X145370000Y-99734654D01*
X144690524Y-99055178D01*
X144690523Y-99055178D01*
X144658143Y-99099745D01*
X144565244Y-99282069D01*
X144502009Y-99476683D01*
X144470000Y-99678783D01*
X137627728Y-99678783D01*
X137639685Y-99638062D01*
X137692489Y-99592307D01*
X137744000Y-99581101D01*
X137870000Y-99581101D01*
X137870000Y-99455101D01*
X137889685Y-99388062D01*
X137942489Y-99342307D01*
X137994000Y-99331101D01*
X139029795Y-99331101D01*
X139029795Y-99331099D01*
X139029600Y-99328614D01*
X138983781Y-99170902D01*
X138900185Y-99029548D01*
X138900178Y-99029539D01*
X138784061Y-98913422D01*
X138784052Y-98913415D01*
X138686318Y-98855616D01*
X138642696Y-98829818D01*
X138642693Y-98829817D01*
X138484995Y-98784001D01*
X138484989Y-98784000D01*
X138448149Y-98781101D01*
X138433359Y-98781101D01*
X138400864Y-98771559D01*
X138368193Y-98762597D01*
X138367423Y-98761739D01*
X138366320Y-98761416D01*
X138344161Y-98735843D01*
X138321503Y-98710619D01*
X138321318Y-98709481D01*
X138320565Y-98708612D01*
X138315742Y-98675071D01*
X138310326Y-98641649D01*
X138310784Y-98640594D01*
X138310621Y-98639454D01*
X138324703Y-98608616D01*
X138338211Y-98577585D01*
X138339337Y-98576572D01*
X138339646Y-98575898D01*
X138364467Y-98554000D01*
X138433019Y-98508193D01*
X138455163Y-98493397D01*
X138489452Y-98477425D01*
X138642898Y-98432845D01*
X138784365Y-98349182D01*
X138900581Y-98232966D01*
X138984244Y-98091499D01*
X139020293Y-97967414D01*
X139051685Y-97914334D01*
X140953996Y-96012024D01*
X141015317Y-95978541D01*
X141085009Y-95983525D01*
X141097970Y-95989222D01*
X141170776Y-96026319D01*
X141170778Y-96026319D01*
X141170781Y-96026321D01*
X141217239Y-96041416D01*
X141365465Y-96089578D01*
X141454280Y-96103645D01*
X141567648Y-96121601D01*
X141567649Y-96121601D01*
X141772351Y-96121601D01*
X141772352Y-96121601D01*
X141974534Y-96089578D01*
X142169219Y-96026321D01*
X142351610Y-95933388D01*
X142353927Y-95931704D01*
X142369647Y-95920284D01*
X142435453Y-95896803D01*
X142442533Y-95896601D01*
X145064926Y-95896601D01*
X145121220Y-95910115D01*
X145160396Y-95930077D01*
X145270776Y-95986319D01*
X145270778Y-95986319D01*
X145270781Y-95986321D01*
X145349893Y-96012026D01*
X145465465Y-96049578D01*
X145538218Y-96061101D01*
X145667648Y-96081601D01*
X145667649Y-96081601D01*
X145872351Y-96081601D01*
X145872352Y-96081601D01*
X146074534Y-96049578D01*
X146269219Y-95986321D01*
X146274707Y-95983525D01*
X146365818Y-95937101D01*
X146418779Y-95910115D01*
X146475074Y-95896601D01*
X148934884Y-95896601D01*
X149001923Y-95916286D01*
X149007748Y-95920268D01*
X149108390Y-95993388D01*
X149173021Y-96026319D01*
X149290776Y-96086319D01*
X149290778Y-96086319D01*
X149290781Y-96086321D01*
X149395137Y-96120228D01*
X149485465Y-96149578D01*
X149586557Y-96165589D01*
X149687648Y-96181601D01*
X149687649Y-96181601D01*
X149892351Y-96181601D01*
X149892352Y-96181601D01*
X150094534Y-96149578D01*
X150289219Y-96086321D01*
X150471610Y-95993388D01*
X150572232Y-95920282D01*
X150638037Y-95896803D01*
X150645116Y-95896601D01*
X152285859Y-95896601D01*
X152352898Y-95916286D01*
X152398653Y-95969090D01*
X152402030Y-95977241D01*
X152406204Y-95988432D01*
X152406205Y-95988433D01*
X152406206Y-95988436D01*
X152492452Y-96103645D01*
X152492455Y-96103648D01*
X152607664Y-96189894D01*
X152607671Y-96189898D01*
X152739082Y-96238911D01*
X152795016Y-96280782D01*
X152819433Y-96346246D01*
X152804582Y-96414519D01*
X152783431Y-96442774D01*
X152669889Y-96556316D01*
X152544951Y-96728280D01*
X152448444Y-96917686D01*
X152382753Y-97119861D01*
X152349500Y-97329814D01*
X152349500Y-97542387D01*
X152381506Y-97744469D01*
X152382754Y-97752344D01*
X152442702Y-97936845D01*
X152448444Y-97954515D01*
X152544951Y-98143921D01*
X152669890Y-98315887D01*
X152820213Y-98466210D01*
X152992179Y-98591149D01*
X152992181Y-98591150D01*
X152992184Y-98591152D01*
X153001493Y-98595895D01*
X153052290Y-98643867D01*
X153069087Y-98711688D01*
X153046552Y-98777823D01*
X153001502Y-98816863D01*
X152992443Y-98821479D01*
X152820540Y-98946373D01*
X152820535Y-98946377D01*
X152670276Y-99096636D01*
X152670272Y-99096641D01*
X152545379Y-99268543D01*
X152448904Y-99457883D01*
X152383242Y-99659971D01*
X152383242Y-99659974D01*
X152372769Y-99726101D01*
X153266988Y-99726101D01*
X153234075Y-99783108D01*
X153200000Y-99910275D01*
X153200000Y-100041927D01*
X153234075Y-100169094D01*
X153266988Y-100226101D01*
X152372769Y-100226101D01*
X152383242Y-100292227D01*
X152383242Y-100292230D01*
X152448904Y-100494318D01*
X152545379Y-100683658D01*
X152670272Y-100855560D01*
X152670276Y-100855565D01*
X152820535Y-101005824D01*
X152820540Y-101005828D01*
X152992442Y-101130721D01*
X153181782Y-101227196D01*
X153383871Y-101292858D01*
X153450000Y-101303332D01*
X153450000Y-100409113D01*
X153507007Y-100442026D01*
X153634174Y-100476101D01*
X153765826Y-100476101D01*
X153892993Y-100442026D01*
X153950000Y-100409113D01*
X153950000Y-101303331D01*
X154016126Y-101292858D01*
X154016129Y-101292858D01*
X154218217Y-101227196D01*
X154407557Y-101130721D01*
X154579459Y-101005828D01*
X154579464Y-101005824D01*
X154729723Y-100855565D01*
X154729727Y-100855560D01*
X154854620Y-100683658D01*
X154951095Y-100494318D01*
X155016757Y-100292230D01*
X155016757Y-100292227D01*
X155027231Y-100226101D01*
X154133012Y-100226101D01*
X154165925Y-100169094D01*
X154200000Y-100041927D01*
X154200000Y-99910275D01*
X154165925Y-99783108D01*
X154133012Y-99726101D01*
X155027231Y-99726101D01*
X155016757Y-99659974D01*
X155016757Y-99659971D01*
X154951095Y-99457883D01*
X154854620Y-99268543D01*
X154729727Y-99096641D01*
X154729723Y-99096636D01*
X154579464Y-98946377D01*
X154579459Y-98946373D01*
X154407555Y-98821478D01*
X154398500Y-98816864D01*
X154347706Y-98768889D01*
X154330912Y-98701067D01*
X154353451Y-98634933D01*
X154383355Y-98605031D01*
X154390599Y-98599924D01*
X154407816Y-98591152D01*
X154579792Y-98466205D01*
X154730104Y-98315893D01*
X154730106Y-98315889D01*
X154730109Y-98315887D01*
X154855048Y-98143921D01*
X154855047Y-98143921D01*
X154855051Y-98143917D01*
X154951557Y-97954513D01*
X155017246Y-97752344D01*
X155050500Y-97542388D01*
X155050500Y-97329814D01*
X155048275Y-97315767D01*
X155057229Y-97246475D01*
X155083064Y-97208691D01*
X156354113Y-95937644D01*
X156388664Y-95885936D01*
X156430775Y-95822912D01*
X156480762Y-95702233D01*
X156483580Y-95695430D01*
X156498760Y-95619114D01*
X156510500Y-95560094D01*
X156510500Y-93002108D01*
X156510500Y-93002105D01*
X156483581Y-92866778D01*
X156483580Y-92866777D01*
X156483580Y-92866773D01*
X156483578Y-92866768D01*
X156430777Y-92739293D01*
X156354112Y-92624555D01*
X152736545Y-89006988D01*
X152621807Y-88930323D01*
X152494332Y-88877522D01*
X152494322Y-88877519D01*
X152358996Y-88850601D01*
X152358994Y-88850601D01*
X152358993Y-88850601D01*
X151410673Y-88850601D01*
X151363707Y-88841363D01*
X150341850Y-88423174D01*
X150332521Y-88418897D01*
X150189221Y-88345882D01*
X150189220Y-88345881D01*
X150189219Y-88345881D01*
X149994534Y-88282624D01*
X149994531Y-88282623D01*
X149994532Y-88282623D01*
X149913781Y-88269833D01*
X149913781Y-88269832D01*
X149911614Y-88269488D01*
X149902745Y-88267767D01*
X149901237Y-88267845D01*
X149893793Y-88266667D01*
X149792352Y-88250601D01*
X149587648Y-88250601D01*
X149587643Y-88250601D01*
X149479129Y-88267788D01*
X149479127Y-88267788D01*
X149472528Y-88268834D01*
X149468909Y-88269013D01*
X149464633Y-88270084D01*
X149459217Y-88270941D01*
X149459216Y-88270941D01*
X149385468Y-88282623D01*
X149190780Y-88345880D01*
X149047479Y-88418895D01*
X149038151Y-88423172D01*
X148496965Y-88644649D01*
X148427464Y-88651822D01*
X148403034Y-88644649D01*
X147861855Y-88423176D01*
X147852525Y-88418899D01*
X147709221Y-88345882D01*
X147709220Y-88345881D01*
X147709219Y-88345881D01*
X147514534Y-88282624D01*
X147514531Y-88282623D01*
X147514532Y-88282623D01*
X147433781Y-88269833D01*
X147433781Y-88269832D01*
X147431614Y-88269488D01*
X147422745Y-88267767D01*
X147421237Y-88267845D01*
X147413793Y-88266667D01*
X147312352Y-88250601D01*
X147107648Y-88250601D01*
X147083329Y-88254452D01*
X146905465Y-88282623D01*
X146710776Y-88345882D01*
X146528386Y-88438816D01*
X146362786Y-88559129D01*
X146218028Y-88703887D01*
X146097715Y-88869487D01*
X146004781Y-89051877D01*
X145941522Y-89246566D01*
X145909500Y-89448749D01*
X145909500Y-89653452D01*
X145941522Y-89855635D01*
X146004781Y-90050324D01*
X146068691Y-90175754D01*
X146082548Y-90202949D01*
X146097715Y-90232714D01*
X146218028Y-90398314D01*
X146362786Y-90543072D01*
X146517749Y-90655657D01*
X146528390Y-90663388D01*
X146644607Y-90722604D01*
X146710776Y-90756319D01*
X146710778Y-90756319D01*
X146710781Y-90756321D01*
X146815137Y-90790228D01*
X146905465Y-90819578D01*
X146998763Y-90834355D01*
X147107648Y-90851601D01*
X147107649Y-90851601D01*
X147312350Y-90851601D01*
X147312352Y-90851601D01*
X147427480Y-90833366D01*
X147431091Y-90833188D01*
X147435355Y-90832118D01*
X147514534Y-90819578D01*
X147709219Y-90756321D01*
X147852531Y-90683298D01*
X147861845Y-90679028D01*
X148403034Y-90457549D01*
X148472534Y-90450377D01*
X148496963Y-90457549D01*
X149038151Y-90679026D01*
X149047456Y-90683292D01*
X149190781Y-90756321D01*
X149352053Y-90808721D01*
X149385459Y-90819576D01*
X149385460Y-90819576D01*
X149385466Y-90819578D01*
X149468371Y-90832709D01*
X149477254Y-90834434D01*
X149478762Y-90834355D01*
X149587648Y-90851601D01*
X149587649Y-90851601D01*
X149792350Y-90851601D01*
X149792352Y-90851601D01*
X149907480Y-90833366D01*
X149911091Y-90833188D01*
X149915355Y-90832118D01*
X149994534Y-90819578D01*
X150189219Y-90756321D01*
X150332554Y-90683287D01*
X150341841Y-90679029D01*
X151363705Y-90260839D01*
X151410670Y-90251601D01*
X151948481Y-90251601D01*
X152015520Y-90271286D01*
X152036162Y-90287920D01*
X155073181Y-93324939D01*
X155087884Y-93351866D01*
X155104477Y-93377685D01*
X155105368Y-93383885D01*
X155106666Y-93386262D01*
X155109500Y-93412620D01*
X155109500Y-93592015D01*
X155089815Y-93659054D01*
X155037011Y-93704809D01*
X154967853Y-93714753D01*
X154911189Y-93691282D01*
X154868138Y-93659054D01*
X154792331Y-93602305D01*
X154792329Y-93602304D01*
X154792328Y-93602303D01*
X154657482Y-93552009D01*
X154657483Y-93552009D01*
X154597883Y-93545602D01*
X154597881Y-93545601D01*
X154597873Y-93545601D01*
X154597864Y-93545601D01*
X152802129Y-93545601D01*
X152802123Y-93545602D01*
X152742516Y-93552009D01*
X152607671Y-93602303D01*
X152607664Y-93602307D01*
X152492455Y-93688553D01*
X152492452Y-93688556D01*
X152406206Y-93803765D01*
X152406204Y-93803769D01*
X152406204Y-93803770D01*
X152402039Y-93814935D01*
X152360171Y-93870867D01*
X152294707Y-93895285D01*
X152285859Y-93895601D01*
X150686409Y-93895601D01*
X150619370Y-93875916D01*
X150613524Y-93871919D01*
X150471613Y-93768816D01*
X150471612Y-93768815D01*
X150471610Y-93768814D01*
X150414653Y-93739792D01*
X150289223Y-93675882D01*
X150094534Y-93612623D01*
X149919995Y-93584979D01*
X149892352Y-93580601D01*
X149687648Y-93580601D01*
X149663329Y-93584452D01*
X149485465Y-93612623D01*
X149290776Y-93675882D01*
X149108386Y-93768816D01*
X148966476Y-93871919D01*
X148900670Y-93895399D01*
X148893591Y-93895601D01*
X146775047Y-93895601D01*
X146708008Y-93875916D01*
X146687366Y-93859282D01*
X146617213Y-93789129D01*
X146451613Y-93668816D01*
X146451612Y-93668815D01*
X146451610Y-93668814D01*
X146394653Y-93639792D01*
X146269223Y-93575882D01*
X146074534Y-93512623D01*
X145899995Y-93484979D01*
X145872352Y-93480601D01*
X145667648Y-93480601D01*
X145643329Y-93484452D01*
X145465465Y-93512623D01*
X145270776Y-93575882D01*
X145088386Y-93668816D01*
X144922786Y-93789129D01*
X144922782Y-93789133D01*
X144852634Y-93859282D01*
X144791311Y-93892767D01*
X144764953Y-93895601D01*
X142635047Y-93895601D01*
X142568008Y-93875916D01*
X142547366Y-93859282D01*
X142517213Y-93829129D01*
X142351613Y-93708816D01*
X142351612Y-93708815D01*
X142351610Y-93708814D01*
X142294653Y-93679792D01*
X142169223Y-93615882D01*
X141974534Y-93552623D01*
X141799995Y-93524979D01*
X141772352Y-93520601D01*
X141567648Y-93520601D01*
X141543329Y-93524452D01*
X141365465Y-93552623D01*
X141170776Y-93615882D01*
X140988386Y-93708816D01*
X140822786Y-93829129D01*
X140822782Y-93829133D01*
X140792634Y-93859282D01*
X140768207Y-93872619D01*
X140745534Y-93888773D01*
X140735548Y-93890453D01*
X140731311Y-93892767D01*
X140710879Y-93895459D01*
X140707911Y-93895601D01*
X140556459Y-93895601D01*
X140517543Y-93903342D01*
X140508494Y-93905141D01*
X140508492Y-93905142D01*
X140363171Y-93934048D01*
X140363163Y-93934050D01*
X140312087Y-93955207D01*
X140312086Y-93955207D01*
X140181092Y-94009465D01*
X140181079Y-94009472D01*
X140110401Y-94056699D01*
X140017216Y-94118962D01*
X140017213Y-94118965D01*
X137274267Y-96861912D01*
X137221182Y-96893307D01*
X137097104Y-96929355D01*
X137097103Y-96929356D01*
X136955637Y-97013018D01*
X136955629Y-97013024D01*
X136839423Y-97129230D01*
X136839417Y-97129238D01*
X136755755Y-97270704D01*
X136755754Y-97270707D01*
X136709902Y-97428527D01*
X136709901Y-97428533D01*
X136707000Y-97465399D01*
X136707000Y-97863205D01*
X136687315Y-97930244D01*
X136634511Y-97975999D01*
X136565353Y-97985943D01*
X136517002Y-97965431D01*
X136516080Y-97966991D01*
X136367896Y-97879356D01*
X136367893Y-97879355D01*
X136214461Y-97834779D01*
X136180169Y-97818807D01*
X136080694Y-97752340D01*
X136068919Y-97744472D01*
X136068916Y-97744470D01*
X136068914Y-97744469D01*
X136068911Y-97744467D01*
X136068906Y-97744465D01*
X135886839Y-97669051D01*
X135886829Y-97669048D01*
X135693543Y-97630601D01*
X135693541Y-97630601D01*
X135496459Y-97630601D01*
X135496457Y-97630601D01*
X135303170Y-97669048D01*
X135303160Y-97669051D01*
X135121093Y-97744465D01*
X135121082Y-97744471D01*
X135009829Y-97818807D01*
X134975534Y-97834780D01*
X134822106Y-97879355D01*
X134822103Y-97879356D01*
X134680637Y-97963018D01*
X134680629Y-97963024D01*
X134564423Y-98079230D01*
X134564417Y-98079238D01*
X134480755Y-98220704D01*
X134480754Y-98220707D01*
X134434902Y-98378527D01*
X134434901Y-98378533D01*
X134432000Y-98415399D01*
X134432000Y-98846802D01*
X134434901Y-98883668D01*
X134434902Y-98883674D01*
X134480754Y-99041494D01*
X134480755Y-99041497D01*
X134564417Y-99182964D01*
X134568479Y-99188200D01*
X134576947Y-99209770D01*
X134589477Y-99229266D01*
X134592293Y-99248855D01*
X134594014Y-99253237D01*
X134594500Y-99264201D01*
X134594500Y-99370318D01*
X134574815Y-99437357D01*
X134558181Y-99457999D01*
X132981497Y-101034682D01*
X132920174Y-101068167D01*
X132913223Y-101069473D01*
X132908884Y-101070160D01*
X132729165Y-101128555D01*
X132560800Y-101214341D01*
X132473579Y-101277711D01*
X132407927Y-101325411D01*
X132407925Y-101325413D01*
X132407924Y-101325413D01*
X132274312Y-101459025D01*
X132274312Y-101459026D01*
X132274310Y-101459028D01*
X132230271Y-101519642D01*
X132163240Y-101611901D01*
X132077454Y-101780264D01*
X132037931Y-101901904D01*
X131998493Y-101959579D01*
X131934134Y-101986777D01*
X131865288Y-101974862D01*
X131813812Y-101927617D01*
X131802069Y-101901904D01*
X131762545Y-101780264D01*
X131676759Y-101611901D01*
X131565690Y-101459028D01*
X131432073Y-101325411D01*
X131279199Y-101214341D01*
X131110832Y-101128554D01*
X130931118Y-101070161D01*
X130931116Y-101070160D01*
X130931114Y-101070160D01*
X130926378Y-101069023D01*
X130926882Y-101066923D01*
X130904254Y-101056168D01*
X130873297Y-101042031D01*
X130872763Y-101041200D01*
X130871874Y-101040778D01*
X130853929Y-101011894D01*
X130835523Y-100983253D01*
X130835338Y-100981970D01*
X130835003Y-100981430D01*
X130830500Y-100948318D01*
X130830500Y-100788715D01*
X130835687Y-100753225D01*
X130909230Y-100507022D01*
X131265994Y-99312662D01*
X131274316Y-99291871D01*
X131313241Y-99215480D01*
X131391090Y-98975886D01*
X131430500Y-98727063D01*
X131430500Y-98475139D01*
X131391090Y-98226316D01*
X131313241Y-97986722D01*
X131313239Y-97986719D01*
X131313239Y-97986717D01*
X131250306Y-97863205D01*
X131198870Y-97762256D01*
X131185949Y-97744472D01*
X131130937Y-97668753D01*
X131107457Y-97602947D01*
X131123283Y-97534893D01*
X131143574Y-97508186D01*
X131272320Y-97379440D01*
X131364354Y-97230231D01*
X131364359Y-97230220D01*
X131419505Y-97063798D01*
X131429999Y-96961087D01*
X131430000Y-96961074D01*
X131430000Y-96311101D01*
X130320748Y-96311101D01*
X130342518Y-96273393D01*
X130380000Y-96133510D01*
X130380000Y-95988692D01*
X130342518Y-95848809D01*
X130320748Y-95811101D01*
X131429999Y-95811101D01*
X131429999Y-95161129D01*
X131429998Y-95161114D01*
X131419505Y-95058404D01*
X131419505Y-95058402D01*
X131364359Y-94891981D01*
X131364354Y-94891970D01*
X131272319Y-94742760D01*
X131272316Y-94742756D01*
X131148344Y-94618784D01*
X131148340Y-94618781D01*
X130999130Y-94526746D01*
X130999119Y-94526741D01*
X130832697Y-94471595D01*
X130729986Y-94461101D01*
X130080000Y-94461101D01*
X130080000Y-95570353D01*
X130042292Y-95548583D01*
X129902409Y-95511101D01*
X129757591Y-95511101D01*
X129617708Y-95548583D01*
X129580000Y-95570353D01*
X129580000Y-94461101D01*
X128930028Y-94461101D01*
X128930012Y-94461102D01*
X128827303Y-94471595D01*
X128827301Y-94471595D01*
X128660880Y-94526741D01*
X128660869Y-94526746D01*
X128511659Y-94618781D01*
X128511655Y-94618784D01*
X128387683Y-94742756D01*
X128387680Y-94742760D01*
X128295645Y-94891970D01*
X128295640Y-94891981D01*
X128240494Y-95058403D01*
X128230000Y-95161114D01*
X128230000Y-95618319D01*
X128210315Y-95685358D01*
X128157511Y-95731113D01*
X128088353Y-95741057D01*
X128024797Y-95712032D01*
X128004105Y-95686100D01*
X128002779Y-95686987D01*
X127911789Y-95550812D01*
X127911786Y-95550808D01*
X127800292Y-95439314D01*
X127800288Y-95439311D01*
X127669185Y-95351710D01*
X127669172Y-95351703D01*
X127523501Y-95291365D01*
X127523489Y-95291362D01*
X127368845Y-95260601D01*
X127368842Y-95260601D01*
X127211158Y-95260601D01*
X127211155Y-95260601D01*
X127056510Y-95291362D01*
X127056498Y-95291365D01*
X126910827Y-95351703D01*
X126910814Y-95351710D01*
X126779711Y-95439311D01*
X126779707Y-95439314D01*
X126668213Y-95550808D01*
X126668210Y-95550812D01*
X126580609Y-95681915D01*
X126580602Y-95681928D01*
X126520264Y-95827599D01*
X126520261Y-95827611D01*
X126489500Y-95982254D01*
X123420371Y-95982254D01*
X123420371Y-89301101D01*
X135773391Y-89301101D01*
X136734314Y-89301101D01*
X136729920Y-89305495D01*
X136677259Y-89396707D01*
X136650000Y-89498440D01*
X136650000Y-89603762D01*
X136677259Y-89705495D01*
X136729920Y-89796707D01*
X136734314Y-89801101D01*
X135773391Y-89801101D01*
X135782009Y-89855514D01*
X135845244Y-90050130D01*
X135938140Y-90232450D01*
X136058417Y-90397995D01*
X136058417Y-90397996D01*
X136203104Y-90542683D01*
X136368650Y-90662960D01*
X136550968Y-90755855D01*
X136745578Y-90819089D01*
X136800000Y-90827708D01*
X136800000Y-89866787D01*
X136804394Y-89871181D01*
X136895606Y-89923842D01*
X136997339Y-89951101D01*
X137102661Y-89951101D01*
X137204394Y-89923842D01*
X137295606Y-89871181D01*
X137300000Y-89866787D01*
X137300000Y-90827707D01*
X137354421Y-90819089D01*
X137549031Y-90755855D01*
X137731349Y-90662960D01*
X137896894Y-90542683D01*
X137896895Y-90542683D01*
X138041582Y-90397996D01*
X138041582Y-90397995D01*
X138161859Y-90232450D01*
X138254755Y-90050130D01*
X138317990Y-89855514D01*
X138326609Y-89801101D01*
X137365686Y-89801101D01*
X137370080Y-89796707D01*
X137422741Y-89705495D01*
X137450000Y-89603762D01*
X137450000Y-89498440D01*
X137422741Y-89396707D01*
X137370080Y-89305495D01*
X137365686Y-89301101D01*
X138326609Y-89301101D01*
X138317990Y-89246687D01*
X138254755Y-89052071D01*
X138161859Y-88869751D01*
X138041582Y-88704206D01*
X138041582Y-88704205D01*
X137896895Y-88559518D01*
X137731349Y-88439241D01*
X137549029Y-88346345D01*
X137354413Y-88283110D01*
X137300000Y-88274491D01*
X137300000Y-89235415D01*
X137295606Y-89231021D01*
X137204394Y-89178360D01*
X137102661Y-89151101D01*
X136997339Y-89151101D01*
X136895606Y-89178360D01*
X136804394Y-89231021D01*
X136800000Y-89235415D01*
X136800000Y-88274491D01*
X136745586Y-88283110D01*
X136550970Y-88346345D01*
X136368650Y-88439241D01*
X136203105Y-88559518D01*
X136203104Y-88559518D01*
X136058417Y-88704205D01*
X136058417Y-88704206D01*
X135938140Y-88869751D01*
X135845244Y-89052071D01*
X135782009Y-89246687D01*
X135773391Y-89301101D01*
X123420371Y-89301101D01*
X123420371Y-85263178D01*
X123440056Y-85196139D01*
X123492860Y-85150384D01*
X123562018Y-85140440D01*
X123615492Y-85161602D01*
X123658013Y-85191375D01*
X124046452Y-85415641D01*
X124046461Y-85415645D01*
X124452953Y-85605197D01*
X124452963Y-85605201D01*
X124874444Y-85758606D01*
X125003153Y-85793093D01*
X125307689Y-85874694D01*
X125749406Y-85952580D01*
X126196228Y-85991672D01*
X126196229Y-85991673D01*
X126196230Y-85991673D01*
X126644763Y-85991673D01*
X126644763Y-85991672D01*
X127091586Y-85952580D01*
X127533303Y-85874694D01*
X127966551Y-85758605D01*
X128388033Y-85605199D01*
X128388038Y-85605197D01*
X128523535Y-85542013D01*
X128794540Y-85415641D01*
X129182979Y-85191375D01*
X129550395Y-84934109D01*
X129893990Y-84645798D01*
X130211149Y-84328639D01*
X130499460Y-83985044D01*
X130756726Y-83617628D01*
X130980992Y-83229189D01*
X131170550Y-82822682D01*
X131199126Y-82744171D01*
X131323957Y-82401196D01*
X131348907Y-82308082D01*
X131440045Y-81967952D01*
X131517931Y-81526235D01*
X131557024Y-81079411D01*
X131557024Y-80630879D01*
X131517931Y-80184055D01*
X131440045Y-79742338D01*
X131323956Y-79309090D01*
X131273004Y-79169099D01*
X131170552Y-78887612D01*
X131170548Y-78887602D01*
X130980996Y-78481110D01*
X130980988Y-78481094D01*
X130765351Y-78107601D01*
X130748878Y-78039701D01*
X130771730Y-77973674D01*
X130826652Y-77930483D01*
X130872738Y-77921601D01*
X161766000Y-77921601D01*
X161833039Y-77941286D01*
G37*
%TD.AperFunction*%
%TD*%
M02*
