%TF.GenerationSoftware,KiCad,Pcbnew,9.0.1+1*%
%TF.CreationDate,2026-01-16T02:32:25+00:00*%
%TF.ProjectId,WALKIN_PIR_IF,57414c4b-494e-45f5-9049-525f49462e6b,B*%
%TF.SameCoordinates,Original*%
%TF.FileFunction,Legend,Top*%
%TF.FilePolarity,Positive*%
%FSLAX46Y46*%
G04 Gerber Fmt 4.6, Leading zero omitted, Abs format (unit mm)*
G04 Created by KiCad (PCBNEW 9.0.1+1) date 2026-01-16 02:32:25*
%MOMM*%
%LPD*%
G01*
G04 APERTURE LIST*
%ADD10C,0.200000*%
%ADD11C,0.150000*%
%ADD12C,0.125000*%
%ADD13C,0.320000*%
%ADD14C,0.112500*%
%ADD15C,0.220000*%
%ADD16C,0.120000*%
%ADD17C,0.100000*%
%ADD18C,0.000000*%
G04 APERTURE END LIST*
D10*
X136570000Y-102145000D02*
X149610000Y-102145000D01*
X149610000Y-116855000D01*
X136570000Y-116855000D01*
X136570000Y-102145000D01*
D11*
X125660000Y-96071101D02*
G75*
G02*
X124080000Y-96071101I-790000J0D01*
G01*
X124080000Y-96071101D02*
G75*
G02*
X125660000Y-96071101I790000J0D01*
G01*
X125660000Y-98621101D02*
X124080000Y-98621101D01*
X125660000Y-98621101D02*
G75*
G02*
X124080000Y-98621101I-790000J0D01*
G01*
X124080000Y-98621101D02*
G75*
G02*
X125660000Y-98621101I790000J0D01*
G01*
X124870000Y-97831101D02*
X124870000Y-99411101D01*
X125660000Y-96071101D02*
X124080000Y-96071101D01*
D12*
X178091759Y-103381981D02*
X178044140Y-103429601D01*
X178044140Y-103429601D02*
X177901283Y-103477220D01*
X177901283Y-103477220D02*
X177806045Y-103477220D01*
X177806045Y-103477220D02*
X177663188Y-103429601D01*
X177663188Y-103429601D02*
X177567950Y-103334362D01*
X177567950Y-103334362D02*
X177520331Y-103239124D01*
X177520331Y-103239124D02*
X177472712Y-103048648D01*
X177472712Y-103048648D02*
X177472712Y-102905791D01*
X177472712Y-102905791D02*
X177520331Y-102715315D01*
X177520331Y-102715315D02*
X177567950Y-102620077D01*
X177567950Y-102620077D02*
X177663188Y-102524839D01*
X177663188Y-102524839D02*
X177806045Y-102477220D01*
X177806045Y-102477220D02*
X177901283Y-102477220D01*
X177901283Y-102477220D02*
X178044140Y-102524839D01*
X178044140Y-102524839D02*
X178091759Y-102572458D01*
X178710807Y-102477220D02*
X178901283Y-102477220D01*
X178901283Y-102477220D02*
X178996521Y-102524839D01*
X178996521Y-102524839D02*
X179091759Y-102620077D01*
X179091759Y-102620077D02*
X179139378Y-102810553D01*
X179139378Y-102810553D02*
X179139378Y-103143886D01*
X179139378Y-103143886D02*
X179091759Y-103334362D01*
X179091759Y-103334362D02*
X178996521Y-103429601D01*
X178996521Y-103429601D02*
X178901283Y-103477220D01*
X178901283Y-103477220D02*
X178710807Y-103477220D01*
X178710807Y-103477220D02*
X178615569Y-103429601D01*
X178615569Y-103429601D02*
X178520331Y-103334362D01*
X178520331Y-103334362D02*
X178472712Y-103143886D01*
X178472712Y-103143886D02*
X178472712Y-102810553D01*
X178472712Y-102810553D02*
X178520331Y-102620077D01*
X178520331Y-102620077D02*
X178615569Y-102524839D01*
X178615569Y-102524839D02*
X178710807Y-102477220D01*
X179567950Y-103477220D02*
X179567950Y-102477220D01*
X179567950Y-102477220D02*
X179901283Y-103191505D01*
X179901283Y-103191505D02*
X180234616Y-102477220D01*
X180234616Y-102477220D02*
X180234616Y-103477220D01*
D13*
G36*
X158800765Y-81335490D02*
G01*
X158831888Y-81366614D01*
X158879576Y-81461987D01*
X158879576Y-81615017D01*
X158831888Y-81710390D01*
X158792418Y-81749862D01*
X158697042Y-81797550D01*
X158285290Y-81797550D01*
X158285290Y-81279455D01*
X158632660Y-81279455D01*
X158800765Y-81335490D01*
G37*
G36*
X158716228Y-80565238D02*
G01*
X158755697Y-80604707D01*
X158803385Y-80700082D01*
X158803385Y-80776922D01*
X158755697Y-80872297D01*
X158716227Y-80911766D01*
X158620852Y-80959455D01*
X158285290Y-80959455D01*
X158285290Y-80517550D01*
X158620851Y-80517550D01*
X158716228Y-80565238D01*
G37*
G36*
X146982892Y-80565237D02*
G01*
X147022362Y-80604709D01*
X147070050Y-80700082D01*
X147070050Y-80853112D01*
X147022362Y-80948485D01*
X146982892Y-80987957D01*
X146887516Y-81035645D01*
X146475764Y-81035645D01*
X146475764Y-80517550D01*
X146887516Y-80517550D01*
X146982892Y-80565237D01*
G37*
G36*
X153154322Y-80565237D02*
G01*
X153193792Y-80604709D01*
X153241480Y-80700082D01*
X153241480Y-80853112D01*
X153193792Y-80948485D01*
X153154322Y-80987957D01*
X153058946Y-81035645D01*
X152647194Y-81035645D01*
X152647194Y-80517550D01*
X153058946Y-80517550D01*
X153154322Y-80565237D01*
G37*
G36*
X136493775Y-81340407D02*
G01*
X136175846Y-81340407D01*
X136334810Y-80863513D01*
X136493775Y-81340407D01*
G37*
G36*
X144620987Y-80565237D02*
G01*
X144660457Y-80604709D01*
X144708145Y-80700082D01*
X144708145Y-80853112D01*
X144660457Y-80948485D01*
X144620987Y-80987957D01*
X144525611Y-81035645D01*
X144113859Y-81035645D01*
X144113859Y-80517550D01*
X144525611Y-80517550D01*
X144620987Y-80565237D01*
G37*
G36*
X159377354Y-82447709D02*
G01*
X133711431Y-82447709D01*
X133711431Y-80363532D01*
X133889209Y-80363532D01*
X133893448Y-80394609D01*
X134274400Y-81994609D01*
X134278091Y-82005320D01*
X134278602Y-82009161D01*
X134280611Y-82012632D01*
X134284620Y-82024262D01*
X134298241Y-82043083D01*
X134309881Y-82063189D01*
X134316405Y-82068183D01*
X134321221Y-82074837D01*
X134341000Y-82087008D01*
X134359455Y-82101135D01*
X134367395Y-82103252D01*
X134374389Y-82107556D01*
X134397320Y-82111232D01*
X134419775Y-82117220D01*
X134427920Y-82116137D01*
X134436031Y-82117438D01*
X134458633Y-82112056D01*
X134481660Y-82108997D01*
X134488767Y-82104882D01*
X134496761Y-82102979D01*
X134515582Y-82089357D01*
X134535688Y-82077718D01*
X134540682Y-82071193D01*
X134547336Y-82066378D01*
X134559507Y-82046598D01*
X134573634Y-82028144D01*
X134577953Y-82016624D01*
X134580055Y-82013210D01*
X134580667Y-82009386D01*
X134584647Y-81998776D01*
X134734811Y-81435661D01*
X134884975Y-81998776D01*
X134888954Y-82009386D01*
X134889567Y-82013210D01*
X134891668Y-82016624D01*
X134895988Y-82028144D01*
X134910114Y-82046598D01*
X134922286Y-82066378D01*
X134928939Y-82071193D01*
X134933934Y-82077718D01*
X134954036Y-82089355D01*
X134972860Y-82102979D01*
X134980855Y-82104882D01*
X134987962Y-82108997D01*
X135010987Y-82112056D01*
X135033591Y-82117438D01*
X135041701Y-82116137D01*
X135049847Y-82117220D01*
X135072301Y-82111232D01*
X135095233Y-82107556D01*
X135102226Y-82103252D01*
X135110167Y-82101135D01*
X135128621Y-82087008D01*
X135148401Y-82074837D01*
X135153216Y-82068183D01*
X135159741Y-82063189D01*
X135171378Y-82043086D01*
X135185002Y-82024263D01*
X135189010Y-82012631D01*
X135191020Y-82009161D01*
X135191530Y-82005320D01*
X135195222Y-81994609D01*
X135208810Y-81937538D01*
X135642733Y-81937538D01*
X135647159Y-81999810D01*
X135675078Y-82055648D01*
X135722240Y-82096552D01*
X135781465Y-82116294D01*
X135843737Y-82111868D01*
X135899575Y-82083949D01*
X135940479Y-82036787D01*
X135953266Y-82008146D01*
X136069179Y-81660407D01*
X136600442Y-81660407D01*
X136716355Y-82008146D01*
X136729142Y-82036787D01*
X136770046Y-82083949D01*
X136825884Y-82111868D01*
X136888156Y-82116294D01*
X136947381Y-82096552D01*
X136994543Y-82055648D01*
X137022462Y-81999810D01*
X137026888Y-81937538D01*
X137019933Y-81906954D01*
X136503465Y-80357550D01*
X137241478Y-80357550D01*
X137241478Y-81957550D01*
X137244552Y-81988764D01*
X137268443Y-82046441D01*
X137312587Y-82090585D01*
X137370264Y-82114476D01*
X137401478Y-82117550D01*
X138163383Y-82117550D01*
X138194597Y-82114476D01*
X138252274Y-82090585D01*
X138296418Y-82046441D01*
X138320309Y-81988764D01*
X138320309Y-81926336D01*
X138296418Y-81868659D01*
X138252274Y-81824515D01*
X138194597Y-81800624D01*
X138163383Y-81797550D01*
X137561478Y-81797550D01*
X137561478Y-80357550D01*
X138536716Y-80357550D01*
X138536716Y-81957550D01*
X138539790Y-81988764D01*
X138563681Y-82046441D01*
X138607825Y-82090585D01*
X138665502Y-82114476D01*
X138727930Y-82114476D01*
X138785607Y-82090585D01*
X138829751Y-82046441D01*
X138853642Y-81988764D01*
X138856716Y-81957550D01*
X138856716Y-81338110D01*
X138907976Y-81286849D01*
X139483002Y-82053550D01*
X139504190Y-82076677D01*
X139557909Y-82108484D01*
X139619710Y-82117313D01*
X139680187Y-82101819D01*
X139730129Y-82064363D01*
X139761936Y-82010644D01*
X139770765Y-81948842D01*
X139755271Y-81888366D01*
X139739002Y-81861550D01*
X139136547Y-81058278D01*
X139724139Y-80470687D01*
X139744037Y-80446442D01*
X139767928Y-80388764D01*
X139767928Y-80357550D01*
X140136716Y-80357550D01*
X140136716Y-81957550D01*
X140139790Y-81988764D01*
X140163681Y-82046441D01*
X140207825Y-82090585D01*
X140265502Y-82114476D01*
X140327930Y-82114476D01*
X140385607Y-82090585D01*
X140429751Y-82046441D01*
X140453642Y-81988764D01*
X140456716Y-81957550D01*
X140456716Y-80357550D01*
X140898621Y-80357550D01*
X140898621Y-81957550D01*
X140901695Y-81988764D01*
X140925586Y-82046441D01*
X140969730Y-82090585D01*
X141027407Y-82114476D01*
X141089835Y-82114476D01*
X141147512Y-82090585D01*
X141191656Y-82046441D01*
X141215547Y-81988764D01*
X141218621Y-81957550D01*
X141218621Y-80960040D01*
X141833988Y-82036932D01*
X141838658Y-82043511D01*
X141839872Y-82046441D01*
X141842856Y-82049425D01*
X141852144Y-82062509D01*
X141868970Y-82075539D01*
X141884016Y-82090585D01*
X141893439Y-82094488D01*
X141901503Y-82100733D01*
X141922030Y-82106331D01*
X141941693Y-82114476D01*
X141951894Y-82114476D01*
X141961732Y-82117159D01*
X141982837Y-82114476D01*
X142004121Y-82114476D01*
X142013545Y-82110572D01*
X142023663Y-82109286D01*
X142042142Y-82098726D01*
X142061798Y-82090585D01*
X142069006Y-82083376D01*
X142077161Y-82078717D01*
X142196933Y-82078717D01*
X142196933Y-82141145D01*
X142220824Y-82198822D01*
X142264968Y-82242966D01*
X142322645Y-82266857D01*
X142353859Y-82269931D01*
X143572906Y-82269931D01*
X143604120Y-82266857D01*
X143661797Y-82242966D01*
X143705941Y-82198822D01*
X143729832Y-82141145D01*
X143729832Y-82078717D01*
X143705941Y-82021040D01*
X143661797Y-81976896D01*
X143604120Y-81953005D01*
X143572906Y-81949931D01*
X142353859Y-81949931D01*
X142322645Y-81953005D01*
X142264968Y-81976896D01*
X142220824Y-82021040D01*
X142196933Y-82078717D01*
X142077161Y-82078717D01*
X142077866Y-82078314D01*
X142090899Y-82061483D01*
X142105942Y-82046441D01*
X142109845Y-82037018D01*
X142116090Y-82028954D01*
X142121688Y-82008426D01*
X142129833Y-81988764D01*
X142131405Y-81972797D01*
X142132516Y-81968725D01*
X142132116Y-81965580D01*
X142132907Y-81957550D01*
X142132907Y-80357550D01*
X143793859Y-80357550D01*
X143793859Y-81957550D01*
X143796933Y-81988764D01*
X143820824Y-82046441D01*
X143864968Y-82090585D01*
X143922645Y-82114476D01*
X143985073Y-82114476D01*
X144042750Y-82090585D01*
X144086894Y-82046441D01*
X144110785Y-81988764D01*
X144113859Y-81957550D01*
X144113859Y-81355645D01*
X144563383Y-81355645D01*
X144594597Y-81352571D01*
X144599909Y-81350370D01*
X144605643Y-81349963D01*
X144634937Y-81338754D01*
X144787318Y-81262563D01*
X144800754Y-81254105D01*
X144804657Y-81252489D01*
X144809048Y-81248884D01*
X144813862Y-81245855D01*
X144816632Y-81242661D01*
X144828902Y-81232591D01*
X144905092Y-81156400D01*
X144915163Y-81144128D01*
X144918353Y-81141362D01*
X144921379Y-81136554D01*
X144924990Y-81132155D01*
X144926608Y-81128248D01*
X144935062Y-81114819D01*
X145011253Y-80962438D01*
X145022463Y-80933145D01*
X145022870Y-80927409D01*
X145025071Y-80922097D01*
X145028145Y-80890883D01*
X145028145Y-80662312D01*
X145025071Y-80631098D01*
X145022870Y-80625785D01*
X145022463Y-80620050D01*
X145011253Y-80590757D01*
X144935062Y-80438376D01*
X144926608Y-80424946D01*
X144924990Y-80421040D01*
X144921379Y-80416640D01*
X144918353Y-80411833D01*
X144915163Y-80409066D01*
X144905092Y-80396795D01*
X144865848Y-80357550D01*
X145393859Y-80357550D01*
X145393859Y-81957550D01*
X145396933Y-81988764D01*
X145420824Y-82046441D01*
X145464968Y-82090585D01*
X145522645Y-82114476D01*
X145585073Y-82114476D01*
X145642750Y-82090585D01*
X145686894Y-82046441D01*
X145710785Y-81988764D01*
X145713859Y-81957550D01*
X145713859Y-80357550D01*
X146155764Y-80357550D01*
X146155764Y-81957550D01*
X146158838Y-81988764D01*
X146182729Y-82046441D01*
X146226873Y-82090585D01*
X146284550Y-82114476D01*
X146346978Y-82114476D01*
X146404655Y-82090585D01*
X146448799Y-82046441D01*
X146472690Y-81988764D01*
X146475764Y-81957550D01*
X146475764Y-81355645D01*
X146613411Y-81355645D01*
X147098973Y-82049304D01*
X147119391Y-82073113D01*
X147172039Y-82106663D01*
X147233518Y-82117512D01*
X147294470Y-82104009D01*
X147330602Y-82078717D01*
X147377886Y-82078717D01*
X147377886Y-82141145D01*
X147401777Y-82198822D01*
X147445921Y-82242966D01*
X147503598Y-82266857D01*
X147534812Y-82269931D01*
X148753859Y-82269931D01*
X148785073Y-82266857D01*
X148842750Y-82242966D01*
X148886894Y-82198822D01*
X148910785Y-82141145D01*
X148910785Y-82078717D01*
X148886894Y-82021040D01*
X148842750Y-81976896D01*
X148785073Y-81953005D01*
X148753859Y-81949931D01*
X147534812Y-81949931D01*
X147503598Y-81953005D01*
X147445921Y-81976896D01*
X147401777Y-82021040D01*
X147377886Y-82078717D01*
X147330602Y-82078717D01*
X147345613Y-82068209D01*
X147379163Y-82015561D01*
X147390012Y-81954082D01*
X147376509Y-81893130D01*
X147361127Y-81865796D01*
X146993178Y-81340155D01*
X146996842Y-81338754D01*
X147149223Y-81262563D01*
X147162659Y-81254105D01*
X147166562Y-81252489D01*
X147170953Y-81248884D01*
X147175767Y-81245855D01*
X147178537Y-81242661D01*
X147190807Y-81232591D01*
X147266997Y-81156400D01*
X147277068Y-81144128D01*
X147280258Y-81141362D01*
X147283284Y-81136554D01*
X147286895Y-81132155D01*
X147288513Y-81128248D01*
X147296967Y-81114819D01*
X147373158Y-80962438D01*
X147384368Y-80933145D01*
X147384775Y-80927409D01*
X147386976Y-80922097D01*
X147390050Y-80890883D01*
X147390050Y-80662312D01*
X147386976Y-80631098D01*
X147384775Y-80625785D01*
X147384368Y-80620050D01*
X147373158Y-80590757D01*
X147296967Y-80438376D01*
X147288513Y-80424946D01*
X147286895Y-80421040D01*
X147283284Y-80416640D01*
X147280258Y-80411833D01*
X147277068Y-80409066D01*
X147266997Y-80396795D01*
X147227753Y-80357550D01*
X148974812Y-80357550D01*
X148974812Y-81957550D01*
X148977886Y-81988764D01*
X149001777Y-82046441D01*
X149045921Y-82090585D01*
X149103598Y-82114476D01*
X149166026Y-82114476D01*
X149223703Y-82090585D01*
X149267847Y-82046441D01*
X149291738Y-81988764D01*
X149294812Y-81957550D01*
X149294812Y-80357550D01*
X149736717Y-80357550D01*
X149736717Y-81957550D01*
X149739791Y-81988764D01*
X149763682Y-82046441D01*
X149807826Y-82090585D01*
X149865503Y-82114476D01*
X149927931Y-82114476D01*
X149985608Y-82090585D01*
X150029752Y-82046441D01*
X150053643Y-81988764D01*
X150056717Y-81957550D01*
X150056717Y-81279455D01*
X150430050Y-81279455D01*
X150461264Y-81276381D01*
X150518941Y-81252490D01*
X150563085Y-81208346D01*
X150586976Y-81150669D01*
X150586976Y-81088241D01*
X150563085Y-81030564D01*
X150518941Y-80986420D01*
X150461264Y-80962529D01*
X150430050Y-80959455D01*
X150056717Y-80959455D01*
X150056717Y-80517550D01*
X150658622Y-80517550D01*
X150689836Y-80514476D01*
X150747513Y-80490585D01*
X150791657Y-80446441D01*
X150815548Y-80388764D01*
X150815548Y-80357550D01*
X152327194Y-80357550D01*
X152327194Y-81957550D01*
X152330268Y-81988764D01*
X152354159Y-82046441D01*
X152398303Y-82090585D01*
X152455980Y-82114476D01*
X152518408Y-82114476D01*
X152576085Y-82090585D01*
X152620229Y-82046441D01*
X152644120Y-81988764D01*
X152647194Y-81957550D01*
X152647194Y-81355645D01*
X152784841Y-81355645D01*
X153270403Y-82049304D01*
X153290821Y-82073113D01*
X153343469Y-82106663D01*
X153404948Y-82117512D01*
X153465900Y-82104009D01*
X153517043Y-82068209D01*
X153550593Y-82015561D01*
X153561442Y-81954082D01*
X153547939Y-81893130D01*
X153532557Y-81865796D01*
X153164608Y-81340155D01*
X153168272Y-81338754D01*
X153320653Y-81262563D01*
X153334089Y-81254105D01*
X153337992Y-81252489D01*
X153342383Y-81248884D01*
X153347197Y-81245855D01*
X153349967Y-81242661D01*
X153362237Y-81232591D01*
X153438427Y-81156400D01*
X153448498Y-81144128D01*
X153451688Y-81141362D01*
X153454714Y-81136554D01*
X153458325Y-81132155D01*
X153459943Y-81128248D01*
X153468397Y-81114819D01*
X153544588Y-80962438D01*
X153555798Y-80933145D01*
X153556205Y-80927409D01*
X153558406Y-80922097D01*
X153561480Y-80890883D01*
X153561480Y-80662312D01*
X153558406Y-80631098D01*
X153556205Y-80625785D01*
X153555798Y-80620050D01*
X153544588Y-80590757D01*
X153468397Y-80438376D01*
X153459943Y-80424946D01*
X153458325Y-80421040D01*
X153454714Y-80416640D01*
X153451688Y-80411833D01*
X153448498Y-80409066D01*
X153438427Y-80396795D01*
X153399183Y-80357550D01*
X153927194Y-80357550D01*
X153927194Y-81957550D01*
X153930268Y-81988764D01*
X153954159Y-82046441D01*
X153998303Y-82090585D01*
X154055980Y-82114476D01*
X154087194Y-82117550D01*
X154849099Y-82117550D01*
X154880313Y-82114476D01*
X154937990Y-82090585D01*
X154982134Y-82046441D01*
X155006025Y-81988764D01*
X155006025Y-81926336D01*
X154982134Y-81868659D01*
X154937990Y-81824515D01*
X154880313Y-81800624D01*
X154849099Y-81797550D01*
X154247194Y-81797550D01*
X154247194Y-81279455D01*
X154620527Y-81279455D01*
X154651741Y-81276381D01*
X154709418Y-81252490D01*
X154753562Y-81208346D01*
X154777453Y-81150669D01*
X154777453Y-81088241D01*
X154753562Y-81030564D01*
X154709418Y-80986420D01*
X154651741Y-80962529D01*
X154620527Y-80959455D01*
X154247194Y-80959455D01*
X154247194Y-80517550D01*
X154849099Y-80517550D01*
X154880313Y-80514476D01*
X154937990Y-80490585D01*
X154982134Y-80446441D01*
X155006025Y-80388764D01*
X155006025Y-80377562D01*
X155147497Y-80377562D01*
X155154452Y-80408146D01*
X155687786Y-82008146D01*
X155700573Y-82036786D01*
X155708063Y-82045422D01*
X155713176Y-82055648D01*
X155728333Y-82068793D01*
X155741477Y-82083949D01*
X155751700Y-82089060D01*
X155760338Y-82096552D01*
X155779373Y-82102897D01*
X155797315Y-82111868D01*
X155808716Y-82112678D01*
X155819563Y-82116294D01*
X155839575Y-82114871D01*
X155859587Y-82116294D01*
X155870433Y-82112678D01*
X155881835Y-82111868D01*
X155899776Y-82102897D01*
X155918812Y-82096552D01*
X155927449Y-82089060D01*
X155937673Y-82083949D01*
X155950817Y-82068792D01*
X155965974Y-82055648D01*
X155971085Y-82045424D01*
X155978577Y-82036787D01*
X155991364Y-82008146D01*
X156524697Y-80408146D01*
X156531652Y-80377562D01*
X156530230Y-80357550D01*
X157965290Y-80357550D01*
X157965290Y-81957550D01*
X157968364Y-81988764D01*
X157992255Y-82046441D01*
X158036399Y-82090585D01*
X158094076Y-82114476D01*
X158125290Y-82117550D01*
X158734814Y-82117550D01*
X158766028Y-82114476D01*
X158771340Y-82112275D01*
X158777074Y-82111868D01*
X158806368Y-82100659D01*
X158958749Y-82024468D01*
X158972185Y-82016010D01*
X158976088Y-82014394D01*
X158980479Y-82010789D01*
X158985293Y-82007760D01*
X158988063Y-82004566D01*
X159000333Y-81994496D01*
X159076523Y-81918305D01*
X159086594Y-81906033D01*
X159089784Y-81903267D01*
X159092810Y-81898459D01*
X159096421Y-81894060D01*
X159098039Y-81890153D01*
X159106493Y-81876724D01*
X159182684Y-81724343D01*
X159193894Y-81695050D01*
X159194301Y-81689314D01*
X159196502Y-81684002D01*
X159199576Y-81652788D01*
X159199576Y-81424217D01*
X159196502Y-81393003D01*
X159194301Y-81387690D01*
X159193894Y-81381955D01*
X159182684Y-81352662D01*
X159106493Y-81200281D01*
X159098039Y-81186851D01*
X159096421Y-81182945D01*
X159092810Y-81178545D01*
X159089784Y-81173738D01*
X159086594Y-81170971D01*
X159076523Y-81158700D01*
X159000333Y-81082509D01*
X158999070Y-81081473D01*
X159000332Y-81080212D01*
X159010403Y-81067940D01*
X159013595Y-81065172D01*
X159016624Y-81060359D01*
X159020230Y-81055966D01*
X159021846Y-81052064D01*
X159030304Y-81038628D01*
X159106494Y-80886247D01*
X159117703Y-80856953D01*
X159118110Y-80851219D01*
X159120311Y-80845907D01*
X159123385Y-80814693D01*
X159123385Y-80662312D01*
X159120311Y-80631098D01*
X159118110Y-80625785D01*
X159117703Y-80620052D01*
X159106494Y-80590758D01*
X159030304Y-80438377D01*
X159021846Y-80424940D01*
X159020230Y-80421039D01*
X159016624Y-80416646D01*
X159013595Y-80411833D01*
X159010401Y-80409063D01*
X159000332Y-80396794D01*
X158924141Y-80320603D01*
X158911871Y-80310533D01*
X158909102Y-80307340D01*
X158904289Y-80304310D01*
X158899896Y-80300705D01*
X158895991Y-80299087D01*
X158882558Y-80290632D01*
X158730177Y-80214441D01*
X158700883Y-80203232D01*
X158695149Y-80202824D01*
X158689837Y-80200624D01*
X158658623Y-80197550D01*
X158125290Y-80197550D01*
X158094076Y-80200624D01*
X158036399Y-80224515D01*
X157992255Y-80268659D01*
X157968364Y-80326336D01*
X157965290Y-80357550D01*
X156530230Y-80357550D01*
X156527226Y-80315290D01*
X156499307Y-80259452D01*
X156452145Y-80218548D01*
X156392920Y-80198806D01*
X156330648Y-80203232D01*
X156274810Y-80231151D01*
X156233906Y-80278313D01*
X156221119Y-80306954D01*
X155839574Y-81451586D01*
X155458030Y-80306954D01*
X155445243Y-80278313D01*
X155404339Y-80231151D01*
X155348501Y-80203232D01*
X155286229Y-80198806D01*
X155227004Y-80218548D01*
X155179842Y-80259452D01*
X155151923Y-80315290D01*
X155147497Y-80377562D01*
X155006025Y-80377562D01*
X155006025Y-80326336D01*
X154982134Y-80268659D01*
X154937990Y-80224515D01*
X154880313Y-80200624D01*
X154849099Y-80197550D01*
X154087194Y-80197550D01*
X154055980Y-80200624D01*
X153998303Y-80224515D01*
X153954159Y-80268659D01*
X153930268Y-80326336D01*
X153927194Y-80357550D01*
X153399183Y-80357550D01*
X153362237Y-80320604D01*
X153349967Y-80310533D01*
X153347197Y-80307340D01*
X153342383Y-80304310D01*
X153337992Y-80300706D01*
X153334089Y-80299089D01*
X153320653Y-80290632D01*
X153168272Y-80214441D01*
X153138978Y-80203232D01*
X153133244Y-80202824D01*
X153127932Y-80200624D01*
X153096718Y-80197550D01*
X152487194Y-80197550D01*
X152455980Y-80200624D01*
X152398303Y-80224515D01*
X152354159Y-80268659D01*
X152330268Y-80326336D01*
X152327194Y-80357550D01*
X150815548Y-80357550D01*
X150815548Y-80326336D01*
X150791657Y-80268659D01*
X150747513Y-80224515D01*
X150689836Y-80200624D01*
X150658622Y-80197550D01*
X149896717Y-80197550D01*
X149865503Y-80200624D01*
X149807826Y-80224515D01*
X149763682Y-80268659D01*
X149739791Y-80326336D01*
X149736717Y-80357550D01*
X149294812Y-80357550D01*
X149291738Y-80326336D01*
X149267847Y-80268659D01*
X149223703Y-80224515D01*
X149166026Y-80200624D01*
X149103598Y-80200624D01*
X149045921Y-80224515D01*
X149001777Y-80268659D01*
X148977886Y-80326336D01*
X148974812Y-80357550D01*
X147227753Y-80357550D01*
X147190807Y-80320604D01*
X147178537Y-80310533D01*
X147175767Y-80307340D01*
X147170953Y-80304310D01*
X147166562Y-80300706D01*
X147162659Y-80299089D01*
X147149223Y-80290632D01*
X146996842Y-80214441D01*
X146967548Y-80203232D01*
X146961814Y-80202824D01*
X146956502Y-80200624D01*
X146925288Y-80197550D01*
X146315764Y-80197550D01*
X146284550Y-80200624D01*
X146226873Y-80224515D01*
X146182729Y-80268659D01*
X146158838Y-80326336D01*
X146155764Y-80357550D01*
X145713859Y-80357550D01*
X145710785Y-80326336D01*
X145686894Y-80268659D01*
X145642750Y-80224515D01*
X145585073Y-80200624D01*
X145522645Y-80200624D01*
X145464968Y-80224515D01*
X145420824Y-80268659D01*
X145396933Y-80326336D01*
X145393859Y-80357550D01*
X144865848Y-80357550D01*
X144828902Y-80320604D01*
X144816632Y-80310533D01*
X144813862Y-80307340D01*
X144809048Y-80304310D01*
X144804657Y-80300706D01*
X144800754Y-80299089D01*
X144787318Y-80290632D01*
X144634937Y-80214441D01*
X144605643Y-80203232D01*
X144599909Y-80202824D01*
X144594597Y-80200624D01*
X144563383Y-80197550D01*
X143953859Y-80197550D01*
X143922645Y-80200624D01*
X143864968Y-80224515D01*
X143820824Y-80268659D01*
X143796933Y-80326336D01*
X143793859Y-80357550D01*
X142132907Y-80357550D01*
X142129833Y-80326336D01*
X142105942Y-80268659D01*
X142061798Y-80224515D01*
X142004121Y-80200624D01*
X141941693Y-80200624D01*
X141884016Y-80224515D01*
X141839872Y-80268659D01*
X141815981Y-80326336D01*
X141812907Y-80357550D01*
X141812907Y-81355059D01*
X141197540Y-80278168D01*
X141192869Y-80271588D01*
X141191656Y-80268659D01*
X141188669Y-80265672D01*
X141179384Y-80252592D01*
X141162560Y-80239563D01*
X141147512Y-80224515D01*
X141138088Y-80220611D01*
X141130025Y-80214367D01*
X141109497Y-80208768D01*
X141089835Y-80200624D01*
X141079634Y-80200624D01*
X141069796Y-80197941D01*
X141048691Y-80200624D01*
X141027407Y-80200624D01*
X141017982Y-80204527D01*
X141007865Y-80205814D01*
X140989389Y-80216371D01*
X140969730Y-80224515D01*
X140962518Y-80231726D01*
X140953663Y-80236787D01*
X140940634Y-80253610D01*
X140925586Y-80268659D01*
X140921682Y-80278082D01*
X140915438Y-80286146D01*
X140909839Y-80306673D01*
X140901695Y-80326336D01*
X140900122Y-80342302D01*
X140899012Y-80346375D01*
X140899411Y-80349519D01*
X140898621Y-80357550D01*
X140456716Y-80357550D01*
X140453642Y-80326336D01*
X140429751Y-80268659D01*
X140385607Y-80224515D01*
X140327930Y-80200624D01*
X140265502Y-80200624D01*
X140207825Y-80224515D01*
X140163681Y-80268659D01*
X140139790Y-80326336D01*
X140136716Y-80357550D01*
X139767928Y-80357550D01*
X139767928Y-80326335D01*
X139744037Y-80268658D01*
X139699894Y-80224515D01*
X139642217Y-80200624D01*
X139579788Y-80200624D01*
X139522110Y-80224515D01*
X139497865Y-80244413D01*
X138856716Y-80885562D01*
X138856716Y-80357550D01*
X138853642Y-80326336D01*
X138829751Y-80268659D01*
X138785607Y-80224515D01*
X138727930Y-80200624D01*
X138665502Y-80200624D01*
X138607825Y-80224515D01*
X138563681Y-80268659D01*
X138539790Y-80326336D01*
X138536716Y-80357550D01*
X137561478Y-80357550D01*
X137558404Y-80326336D01*
X137534513Y-80268659D01*
X137490369Y-80224515D01*
X137432692Y-80200624D01*
X137370264Y-80200624D01*
X137312587Y-80224515D01*
X137268443Y-80268659D01*
X137244552Y-80326336D01*
X137241478Y-80357550D01*
X136503465Y-80357550D01*
X136486600Y-80306954D01*
X136473813Y-80278313D01*
X136466321Y-80269675D01*
X136461210Y-80259452D01*
X136446053Y-80246307D01*
X136432909Y-80231151D01*
X136422685Y-80226039D01*
X136414048Y-80218548D01*
X136395012Y-80212202D01*
X136377071Y-80203232D01*
X136365669Y-80202421D01*
X136354823Y-80198806D01*
X136334811Y-80200228D01*
X136314799Y-80198806D01*
X136303952Y-80202421D01*
X136292551Y-80203232D01*
X136274609Y-80212202D01*
X136255574Y-80218548D01*
X136246936Y-80226039D01*
X136236713Y-80231151D01*
X136223569Y-80246306D01*
X136208412Y-80259452D01*
X136203299Y-80269677D01*
X136195809Y-80278314D01*
X136183022Y-80306954D01*
X135649688Y-81906954D01*
X135642733Y-81937538D01*
X135208810Y-81937538D01*
X135576175Y-80394610D01*
X135580414Y-80363533D01*
X135570532Y-80301890D01*
X135537813Y-80248722D01*
X135487238Y-80212122D01*
X135426508Y-80197662D01*
X135364866Y-80207544D01*
X135311698Y-80240263D01*
X135275097Y-80290838D01*
X135264877Y-80320491D01*
X135030791Y-81303649D01*
X134889409Y-80773467D01*
X134886665Y-80766152D01*
X134886258Y-80763082D01*
X134884147Y-80759436D01*
X134878396Y-80744099D01*
X134865557Y-80727326D01*
X134854979Y-80709054D01*
X134846749Y-80702754D01*
X134840450Y-80694525D01*
X134822177Y-80683946D01*
X134805405Y-80671108D01*
X134795388Y-80668436D01*
X134786422Y-80663246D01*
X134765493Y-80660465D01*
X134745085Y-80655023D01*
X134734811Y-80656388D01*
X134724537Y-80655023D01*
X134704128Y-80660465D01*
X134683200Y-80663246D01*
X134674233Y-80668436D01*
X134664217Y-80671108D01*
X134647444Y-80683946D01*
X134629172Y-80694525D01*
X134622872Y-80702754D01*
X134614643Y-80709054D01*
X134604064Y-80727326D01*
X134591226Y-80744099D01*
X134585474Y-80759436D01*
X134583364Y-80763082D01*
X134582956Y-80766152D01*
X134580213Y-80773467D01*
X134438831Y-81303649D01*
X134204746Y-80320491D01*
X134194526Y-80290838D01*
X134157925Y-80240263D01*
X134104757Y-80207544D01*
X134043115Y-80197662D01*
X133982385Y-80212121D01*
X133931810Y-80248722D01*
X133899091Y-80301890D01*
X133889209Y-80363532D01*
X133711431Y-80363532D01*
X133711431Y-80019772D01*
X159377354Y-80019772D01*
X159377354Y-82447709D01*
G37*
D14*
X150200507Y-98409672D02*
X150200507Y-98923958D01*
X150200507Y-98666815D02*
X149300507Y-98666815D01*
X149300507Y-98666815D02*
X149429078Y-98752529D01*
X149429078Y-98752529D02*
X149514792Y-98838244D01*
X149514792Y-98838244D02*
X149557650Y-98923958D01*
X149300507Y-97852529D02*
X149300507Y-97766815D01*
X149300507Y-97766815D02*
X149343364Y-97681101D01*
X149343364Y-97681101D02*
X149386221Y-97638244D01*
X149386221Y-97638244D02*
X149471935Y-97595386D01*
X149471935Y-97595386D02*
X149643364Y-97552529D01*
X149643364Y-97552529D02*
X149857650Y-97552529D01*
X149857650Y-97552529D02*
X150029078Y-97595386D01*
X150029078Y-97595386D02*
X150114792Y-97638244D01*
X150114792Y-97638244D02*
X150157650Y-97681101D01*
X150157650Y-97681101D02*
X150200507Y-97766815D01*
X150200507Y-97766815D02*
X150200507Y-97852529D01*
X150200507Y-97852529D02*
X150157650Y-97938244D01*
X150157650Y-97938244D02*
X150114792Y-97981101D01*
X150114792Y-97981101D02*
X150029078Y-98023958D01*
X150029078Y-98023958D02*
X149857650Y-98066815D01*
X149857650Y-98066815D02*
X149643364Y-98066815D01*
X149643364Y-98066815D02*
X149471935Y-98023958D01*
X149471935Y-98023958D02*
X149386221Y-97981101D01*
X149386221Y-97981101D02*
X149343364Y-97938244D01*
X149343364Y-97938244D02*
X149300507Y-97852529D01*
X149600507Y-97166815D02*
X150500507Y-97166815D01*
X150071935Y-96738243D02*
X150157650Y-96695386D01*
X150157650Y-96695386D02*
X150200507Y-96609672D01*
X150071935Y-97166815D02*
X150157650Y-97123958D01*
X150157650Y-97123958D02*
X150200507Y-97038243D01*
X150200507Y-97038243D02*
X150200507Y-96866815D01*
X150200507Y-96866815D02*
X150157650Y-96781101D01*
X150157650Y-96781101D02*
X150071935Y-96738243D01*
X150071935Y-96738243D02*
X149600507Y-96738243D01*
X149729078Y-95923958D02*
X149729078Y-96223958D01*
X150200507Y-96223958D02*
X149300507Y-96223958D01*
X149300507Y-96223958D02*
X149300507Y-95795386D01*
D12*
X177520331Y-108552220D02*
X177520331Y-107552220D01*
X177520331Y-107552220D02*
X177758426Y-107552220D01*
X177758426Y-107552220D02*
X177901283Y-107599839D01*
X177901283Y-107599839D02*
X177996521Y-107695077D01*
X177996521Y-107695077D02*
X178044140Y-107790315D01*
X178044140Y-107790315D02*
X178091759Y-107980791D01*
X178091759Y-107980791D02*
X178091759Y-108123648D01*
X178091759Y-108123648D02*
X178044140Y-108314124D01*
X178044140Y-108314124D02*
X177996521Y-108409362D01*
X177996521Y-108409362D02*
X177901283Y-108504601D01*
X177901283Y-108504601D02*
X177758426Y-108552220D01*
X177758426Y-108552220D02*
X177520331Y-108552220D01*
X178520331Y-108552220D02*
X178520331Y-107552220D01*
X178996521Y-108552220D02*
X178996521Y-107552220D01*
X178996521Y-107552220D02*
X179567949Y-108552220D01*
X179567949Y-108552220D02*
X179567949Y-107552220D01*
X180567949Y-108552220D02*
X179996521Y-108552220D01*
X180282235Y-108552220D02*
X180282235Y-107552220D01*
X180282235Y-107552220D02*
X180186997Y-107695077D01*
X180186997Y-107695077D02*
X180091759Y-107790315D01*
X180091759Y-107790315D02*
X179996521Y-107837934D01*
D14*
X177488298Y-89952608D02*
X177488298Y-89052608D01*
X177488298Y-89052608D02*
X178002584Y-89952608D01*
X178002584Y-89952608D02*
X178002584Y-89052608D01*
X178302584Y-89052608D02*
X178816870Y-89052608D01*
X178559727Y-89952608D02*
X178559727Y-89052608D01*
X179631155Y-89866893D02*
X179588298Y-89909751D01*
X179588298Y-89909751D02*
X179459726Y-89952608D01*
X179459726Y-89952608D02*
X179374012Y-89952608D01*
X179374012Y-89952608D02*
X179245441Y-89909751D01*
X179245441Y-89909751D02*
X179159726Y-89824036D01*
X179159726Y-89824036D02*
X179116869Y-89738322D01*
X179116869Y-89738322D02*
X179074012Y-89566893D01*
X179074012Y-89566893D02*
X179074012Y-89438322D01*
X179074012Y-89438322D02*
X179116869Y-89266893D01*
X179116869Y-89266893D02*
X179159726Y-89181179D01*
X179159726Y-89181179D02*
X179245441Y-89095465D01*
X179245441Y-89095465D02*
X179374012Y-89052608D01*
X179374012Y-89052608D02*
X179459726Y-89052608D01*
X179459726Y-89052608D02*
X179588298Y-89095465D01*
X179588298Y-89095465D02*
X179631155Y-89138322D01*
X179802584Y-90038322D02*
X180488298Y-90038322D01*
X180702583Y-89952608D02*
X180702583Y-89052608D01*
X180702583Y-89052608D02*
X181045440Y-89052608D01*
X181045440Y-89052608D02*
X181131155Y-89095465D01*
X181131155Y-89095465D02*
X181174012Y-89138322D01*
X181174012Y-89138322D02*
X181216869Y-89224036D01*
X181216869Y-89224036D02*
X181216869Y-89352608D01*
X181216869Y-89352608D02*
X181174012Y-89438322D01*
X181174012Y-89438322D02*
X181131155Y-89481179D01*
X181131155Y-89481179D02*
X181045440Y-89524036D01*
X181045440Y-89524036D02*
X180702583Y-89524036D01*
X182116869Y-89952608D02*
X181816869Y-89524036D01*
X181602583Y-89952608D02*
X181602583Y-89052608D01*
X181602583Y-89052608D02*
X181945440Y-89052608D01*
X181945440Y-89052608D02*
X182031155Y-89095465D01*
X182031155Y-89095465D02*
X182074012Y-89138322D01*
X182074012Y-89138322D02*
X182116869Y-89224036D01*
X182116869Y-89224036D02*
X182116869Y-89352608D01*
X182116869Y-89352608D02*
X182074012Y-89438322D01*
X182074012Y-89438322D02*
X182031155Y-89481179D01*
X182031155Y-89481179D02*
X181945440Y-89524036D01*
X181945440Y-89524036D02*
X181602583Y-89524036D01*
X182674012Y-89052608D02*
X182845440Y-89052608D01*
X182845440Y-89052608D02*
X182931155Y-89095465D01*
X182931155Y-89095465D02*
X183016869Y-89181179D01*
X183016869Y-89181179D02*
X183059726Y-89352608D01*
X183059726Y-89352608D02*
X183059726Y-89652608D01*
X183059726Y-89652608D02*
X183016869Y-89824036D01*
X183016869Y-89824036D02*
X182931155Y-89909751D01*
X182931155Y-89909751D02*
X182845440Y-89952608D01*
X182845440Y-89952608D02*
X182674012Y-89952608D01*
X182674012Y-89952608D02*
X182588298Y-89909751D01*
X182588298Y-89909751D02*
X182502583Y-89824036D01*
X182502583Y-89824036D02*
X182459726Y-89652608D01*
X182459726Y-89652608D02*
X182459726Y-89352608D01*
X182459726Y-89352608D02*
X182502583Y-89181179D01*
X182502583Y-89181179D02*
X182588298Y-89095465D01*
X182588298Y-89095465D02*
X182674012Y-89052608D01*
X183745440Y-89481179D02*
X183874012Y-89524036D01*
X183874012Y-89524036D02*
X183916869Y-89566893D01*
X183916869Y-89566893D02*
X183959726Y-89652608D01*
X183959726Y-89652608D02*
X183959726Y-89781179D01*
X183959726Y-89781179D02*
X183916869Y-89866893D01*
X183916869Y-89866893D02*
X183874012Y-89909751D01*
X183874012Y-89909751D02*
X183788297Y-89952608D01*
X183788297Y-89952608D02*
X183445440Y-89952608D01*
X183445440Y-89952608D02*
X183445440Y-89052608D01*
X183445440Y-89052608D02*
X183745440Y-89052608D01*
X183745440Y-89052608D02*
X183831155Y-89095465D01*
X183831155Y-89095465D02*
X183874012Y-89138322D01*
X183874012Y-89138322D02*
X183916869Y-89224036D01*
X183916869Y-89224036D02*
X183916869Y-89309751D01*
X183916869Y-89309751D02*
X183874012Y-89395465D01*
X183874012Y-89395465D02*
X183831155Y-89438322D01*
X183831155Y-89438322D02*
X183745440Y-89481179D01*
X183745440Y-89481179D02*
X183445440Y-89481179D01*
X184345440Y-89481179D02*
X184645440Y-89481179D01*
X184774012Y-89952608D02*
X184345440Y-89952608D01*
X184345440Y-89952608D02*
X184345440Y-89052608D01*
X184345440Y-89052608D02*
X184774012Y-89052608D01*
X185631155Y-89952608D02*
X185116869Y-89952608D01*
X185374012Y-89952608D02*
X185374012Y-89052608D01*
X185374012Y-89052608D02*
X185288298Y-89181179D01*
X185288298Y-89181179D02*
X185202583Y-89266893D01*
X185202583Y-89266893D02*
X185116869Y-89309751D01*
D11*
X151192857Y-90404819D02*
X150621429Y-90404819D01*
X150907143Y-90404819D02*
X150907143Y-89404819D01*
X150907143Y-89404819D02*
X150811905Y-89547676D01*
X150811905Y-89547676D02*
X150716667Y-89642914D01*
X150716667Y-89642914D02*
X150621429Y-89690533D01*
X151621429Y-90404819D02*
X151621429Y-89404819D01*
X151621429Y-89404819D02*
X151954762Y-90119104D01*
X151954762Y-90119104D02*
X152288095Y-89404819D01*
X152288095Y-89404819D02*
X152288095Y-90404819D01*
X152716667Y-90404819D02*
X152954762Y-90404819D01*
X152954762Y-90404819D02*
X152954762Y-90214342D01*
X152954762Y-90214342D02*
X152859524Y-90166723D01*
X152859524Y-90166723D02*
X152764286Y-90071485D01*
X152764286Y-90071485D02*
X152716667Y-89928628D01*
X152716667Y-89928628D02*
X152716667Y-89690533D01*
X152716667Y-89690533D02*
X152764286Y-89547676D01*
X152764286Y-89547676D02*
X152859524Y-89452438D01*
X152859524Y-89452438D02*
X153002381Y-89404819D01*
X153002381Y-89404819D02*
X153192857Y-89404819D01*
X153192857Y-89404819D02*
X153335714Y-89452438D01*
X153335714Y-89452438D02*
X153430952Y-89547676D01*
X153430952Y-89547676D02*
X153478571Y-89690533D01*
X153478571Y-89690533D02*
X153478571Y-89928628D01*
X153478571Y-89928628D02*
X153430952Y-90071485D01*
X153430952Y-90071485D02*
X153335714Y-90166723D01*
X153335714Y-90166723D02*
X153240476Y-90214342D01*
X153240476Y-90214342D02*
X153240476Y-90404819D01*
X153240476Y-90404819D02*
X153478571Y-90404819D01*
D14*
X146094792Y-98566815D02*
X146137650Y-98523958D01*
X146137650Y-98523958D02*
X146180507Y-98566815D01*
X146180507Y-98566815D02*
X146137650Y-98609672D01*
X146137650Y-98609672D02*
X146094792Y-98566815D01*
X146094792Y-98566815D02*
X146180507Y-98566815D01*
X146180507Y-97666815D02*
X146180507Y-98181101D01*
X146180507Y-97923958D02*
X145280507Y-97923958D01*
X145280507Y-97923958D02*
X145409078Y-98009672D01*
X145409078Y-98009672D02*
X145494792Y-98095387D01*
X145494792Y-98095387D02*
X145537650Y-98181101D01*
X145580507Y-97281101D02*
X146480507Y-97281101D01*
X146051935Y-96852529D02*
X146137650Y-96809672D01*
X146137650Y-96809672D02*
X146180507Y-96723958D01*
X146051935Y-97281101D02*
X146137650Y-97238244D01*
X146137650Y-97238244D02*
X146180507Y-97152529D01*
X146180507Y-97152529D02*
X146180507Y-96981101D01*
X146180507Y-96981101D02*
X146137650Y-96895387D01*
X146137650Y-96895387D02*
X146051935Y-96852529D01*
X146051935Y-96852529D02*
X145580507Y-96852529D01*
X145709078Y-96038244D02*
X145709078Y-96338244D01*
X146180507Y-96338244D02*
X145280507Y-96338244D01*
X145280507Y-96338244D02*
X145280507Y-95909672D01*
D11*
X150705238Y-86374819D02*
X150133810Y-86374819D01*
X150419524Y-86374819D02*
X150419524Y-85374819D01*
X150419524Y-85374819D02*
X150324286Y-85517676D01*
X150324286Y-85517676D02*
X150229048Y-85612914D01*
X150229048Y-85612914D02*
X150133810Y-85660533D01*
X151133810Y-86279580D02*
X151181429Y-86327200D01*
X151181429Y-86327200D02*
X151133810Y-86374819D01*
X151133810Y-86374819D02*
X151086191Y-86327200D01*
X151086191Y-86327200D02*
X151133810Y-86279580D01*
X151133810Y-86279580D02*
X151133810Y-86374819D01*
X152086190Y-85374819D02*
X151610000Y-85374819D01*
X151610000Y-85374819D02*
X151562381Y-85851009D01*
X151562381Y-85851009D02*
X151610000Y-85803390D01*
X151610000Y-85803390D02*
X151705238Y-85755771D01*
X151705238Y-85755771D02*
X151943333Y-85755771D01*
X151943333Y-85755771D02*
X152038571Y-85803390D01*
X152038571Y-85803390D02*
X152086190Y-85851009D01*
X152086190Y-85851009D02*
X152133809Y-85946247D01*
X152133809Y-85946247D02*
X152133809Y-86184342D01*
X152133809Y-86184342D02*
X152086190Y-86279580D01*
X152086190Y-86279580D02*
X152038571Y-86327200D01*
X152038571Y-86327200D02*
X151943333Y-86374819D01*
X151943333Y-86374819D02*
X151705238Y-86374819D01*
X151705238Y-86374819D02*
X151610000Y-86327200D01*
X151610000Y-86327200D02*
X151562381Y-86279580D01*
X152562381Y-86374819D02*
X152562381Y-85374819D01*
X152657619Y-85993866D02*
X152943333Y-86374819D01*
X152943333Y-85708152D02*
X152562381Y-86089104D01*
X153324286Y-86374819D02*
X153562381Y-86374819D01*
X153562381Y-86374819D02*
X153562381Y-86184342D01*
X153562381Y-86184342D02*
X153467143Y-86136723D01*
X153467143Y-86136723D02*
X153371905Y-86041485D01*
X153371905Y-86041485D02*
X153324286Y-85898628D01*
X153324286Y-85898628D02*
X153324286Y-85660533D01*
X153324286Y-85660533D02*
X153371905Y-85517676D01*
X153371905Y-85517676D02*
X153467143Y-85422438D01*
X153467143Y-85422438D02*
X153610000Y-85374819D01*
X153610000Y-85374819D02*
X153800476Y-85374819D01*
X153800476Y-85374819D02*
X153943333Y-85422438D01*
X153943333Y-85422438D02*
X154038571Y-85517676D01*
X154038571Y-85517676D02*
X154086190Y-85660533D01*
X154086190Y-85660533D02*
X154086190Y-85898628D01*
X154086190Y-85898628D02*
X154038571Y-86041485D01*
X154038571Y-86041485D02*
X153943333Y-86136723D01*
X153943333Y-86136723D02*
X153848095Y-86184342D01*
X153848095Y-86184342D02*
X153848095Y-86374819D01*
X153848095Y-86374819D02*
X154086190Y-86374819D01*
D12*
X177520331Y-106014720D02*
X177520331Y-105014720D01*
X177520331Y-105014720D02*
X177758426Y-105014720D01*
X177758426Y-105014720D02*
X177901283Y-105062339D01*
X177901283Y-105062339D02*
X177996521Y-105157577D01*
X177996521Y-105157577D02*
X178044140Y-105252815D01*
X178044140Y-105252815D02*
X178091759Y-105443291D01*
X178091759Y-105443291D02*
X178091759Y-105586148D01*
X178091759Y-105586148D02*
X178044140Y-105776624D01*
X178044140Y-105776624D02*
X177996521Y-105871862D01*
X177996521Y-105871862D02*
X177901283Y-105967101D01*
X177901283Y-105967101D02*
X177758426Y-106014720D01*
X177758426Y-106014720D02*
X177520331Y-106014720D01*
X178520331Y-106014720D02*
X178520331Y-105014720D01*
X178996521Y-106014720D02*
X178996521Y-105014720D01*
X178996521Y-105014720D02*
X179567949Y-106014720D01*
X179567949Y-106014720D02*
X179567949Y-105014720D01*
X179996521Y-105109958D02*
X180044140Y-105062339D01*
X180044140Y-105062339D02*
X180139378Y-105014720D01*
X180139378Y-105014720D02*
X180377473Y-105014720D01*
X180377473Y-105014720D02*
X180472711Y-105062339D01*
X180472711Y-105062339D02*
X180520330Y-105109958D01*
X180520330Y-105109958D02*
X180567949Y-105205196D01*
X180567949Y-105205196D02*
X180567949Y-105300434D01*
X180567949Y-105300434D02*
X180520330Y-105443291D01*
X180520330Y-105443291D02*
X179948902Y-106014720D01*
X179948902Y-106014720D02*
X180567949Y-106014720D01*
X177520331Y-98402220D02*
X177520331Y-97402220D01*
X177520331Y-97402220D02*
X178091759Y-98402220D01*
X178091759Y-98402220D02*
X178091759Y-97402220D01*
X178425093Y-97402220D02*
X178996521Y-97402220D01*
X178710807Y-98402220D02*
X178710807Y-97402220D01*
X179901283Y-98306981D02*
X179853664Y-98354601D01*
X179853664Y-98354601D02*
X179710807Y-98402220D01*
X179710807Y-98402220D02*
X179615569Y-98402220D01*
X179615569Y-98402220D02*
X179472712Y-98354601D01*
X179472712Y-98354601D02*
X179377474Y-98259362D01*
X179377474Y-98259362D02*
X179329855Y-98164124D01*
X179329855Y-98164124D02*
X179282236Y-97973648D01*
X179282236Y-97973648D02*
X179282236Y-97830791D01*
X179282236Y-97830791D02*
X179329855Y-97640315D01*
X179329855Y-97640315D02*
X179377474Y-97545077D01*
X179377474Y-97545077D02*
X179472712Y-97449839D01*
X179472712Y-97449839D02*
X179615569Y-97402220D01*
X179615569Y-97402220D02*
X179710807Y-97402220D01*
X179710807Y-97402220D02*
X179853664Y-97449839D01*
X179853664Y-97449839D02*
X179901283Y-97497458D01*
X180091760Y-98497458D02*
X180853664Y-98497458D01*
X181663188Y-98306981D02*
X181615569Y-98354601D01*
X181615569Y-98354601D02*
X181472712Y-98402220D01*
X181472712Y-98402220D02*
X181377474Y-98402220D01*
X181377474Y-98402220D02*
X181234617Y-98354601D01*
X181234617Y-98354601D02*
X181139379Y-98259362D01*
X181139379Y-98259362D02*
X181091760Y-98164124D01*
X181091760Y-98164124D02*
X181044141Y-97973648D01*
X181044141Y-97973648D02*
X181044141Y-97830791D01*
X181044141Y-97830791D02*
X181091760Y-97640315D01*
X181091760Y-97640315D02*
X181139379Y-97545077D01*
X181139379Y-97545077D02*
X181234617Y-97449839D01*
X181234617Y-97449839D02*
X181377474Y-97402220D01*
X181377474Y-97402220D02*
X181472712Y-97402220D01*
X181472712Y-97402220D02*
X181615569Y-97449839D01*
X181615569Y-97449839D02*
X181663188Y-97497458D01*
X181948903Y-97402220D02*
X182520331Y-97402220D01*
X182234617Y-98402220D02*
X182234617Y-97402220D01*
X183425093Y-98402220D02*
X183091760Y-97926029D01*
X182853665Y-98402220D02*
X182853665Y-97402220D01*
X182853665Y-97402220D02*
X183234617Y-97402220D01*
X183234617Y-97402220D02*
X183329855Y-97449839D01*
X183329855Y-97449839D02*
X183377474Y-97497458D01*
X183377474Y-97497458D02*
X183425093Y-97592696D01*
X183425093Y-97592696D02*
X183425093Y-97735553D01*
X183425093Y-97735553D02*
X183377474Y-97830791D01*
X183377474Y-97830791D02*
X183329855Y-97878410D01*
X183329855Y-97878410D02*
X183234617Y-97926029D01*
X183234617Y-97926029D02*
X182853665Y-97926029D01*
X184329855Y-98402220D02*
X183853665Y-98402220D01*
X183853665Y-98402220D02*
X183853665Y-97402220D01*
X184615570Y-97497458D02*
X184663189Y-97449839D01*
X184663189Y-97449839D02*
X184758427Y-97402220D01*
X184758427Y-97402220D02*
X184996522Y-97402220D01*
X184996522Y-97402220D02*
X185091760Y-97449839D01*
X185091760Y-97449839D02*
X185139379Y-97497458D01*
X185139379Y-97497458D02*
X185186998Y-97592696D01*
X185186998Y-97592696D02*
X185186998Y-97687934D01*
X185186998Y-97687934D02*
X185139379Y-97830791D01*
X185139379Y-97830791D02*
X184567951Y-98402220D01*
X184567951Y-98402220D02*
X185186998Y-98402220D01*
D11*
X157574819Y-103768095D02*
X157574819Y-104339523D01*
X157574819Y-104053809D02*
X156574819Y-104053809D01*
X156574819Y-104053809D02*
X156717676Y-104149047D01*
X156717676Y-104149047D02*
X156812914Y-104244285D01*
X156812914Y-104244285D02*
X156860533Y-104339523D01*
X156574819Y-103149047D02*
X156574819Y-103053809D01*
X156574819Y-103053809D02*
X156622438Y-102958571D01*
X156622438Y-102958571D02*
X156670057Y-102910952D01*
X156670057Y-102910952D02*
X156765295Y-102863333D01*
X156765295Y-102863333D02*
X156955771Y-102815714D01*
X156955771Y-102815714D02*
X157193866Y-102815714D01*
X157193866Y-102815714D02*
X157384342Y-102863333D01*
X157384342Y-102863333D02*
X157479580Y-102910952D01*
X157479580Y-102910952D02*
X157527200Y-102958571D01*
X157527200Y-102958571D02*
X157574819Y-103053809D01*
X157574819Y-103053809D02*
X157574819Y-103149047D01*
X157574819Y-103149047D02*
X157527200Y-103244285D01*
X157527200Y-103244285D02*
X157479580Y-103291904D01*
X157479580Y-103291904D02*
X157384342Y-103339523D01*
X157384342Y-103339523D02*
X157193866Y-103387142D01*
X157193866Y-103387142D02*
X156955771Y-103387142D01*
X156955771Y-103387142D02*
X156765295Y-103339523D01*
X156765295Y-103339523D02*
X156670057Y-103291904D01*
X156670057Y-103291904D02*
X156622438Y-103244285D01*
X156622438Y-103244285D02*
X156574819Y-103149047D01*
X156574819Y-102196666D02*
X156574819Y-102101428D01*
X156574819Y-102101428D02*
X156622438Y-102006190D01*
X156622438Y-102006190D02*
X156670057Y-101958571D01*
X156670057Y-101958571D02*
X156765295Y-101910952D01*
X156765295Y-101910952D02*
X156955771Y-101863333D01*
X156955771Y-101863333D02*
X157193866Y-101863333D01*
X157193866Y-101863333D02*
X157384342Y-101910952D01*
X157384342Y-101910952D02*
X157479580Y-101958571D01*
X157479580Y-101958571D02*
X157527200Y-102006190D01*
X157527200Y-102006190D02*
X157574819Y-102101428D01*
X157574819Y-102101428D02*
X157574819Y-102196666D01*
X157574819Y-102196666D02*
X157527200Y-102291904D01*
X157527200Y-102291904D02*
X157479580Y-102339523D01*
X157479580Y-102339523D02*
X157384342Y-102387142D01*
X157384342Y-102387142D02*
X157193866Y-102434761D01*
X157193866Y-102434761D02*
X156955771Y-102434761D01*
X156955771Y-102434761D02*
X156765295Y-102387142D01*
X156765295Y-102387142D02*
X156670057Y-102339523D01*
X156670057Y-102339523D02*
X156622438Y-102291904D01*
X156622438Y-102291904D02*
X156574819Y-102196666D01*
X157574819Y-101482380D02*
X157574819Y-101244285D01*
X157574819Y-101244285D02*
X157384342Y-101244285D01*
X157384342Y-101244285D02*
X157336723Y-101339523D01*
X157336723Y-101339523D02*
X157241485Y-101434761D01*
X157241485Y-101434761D02*
X157098628Y-101482380D01*
X157098628Y-101482380D02*
X156860533Y-101482380D01*
X156860533Y-101482380D02*
X156717676Y-101434761D01*
X156717676Y-101434761D02*
X156622438Y-101339523D01*
X156622438Y-101339523D02*
X156574819Y-101196666D01*
X156574819Y-101196666D02*
X156574819Y-101006190D01*
X156574819Y-101006190D02*
X156622438Y-100863333D01*
X156622438Y-100863333D02*
X156717676Y-100768095D01*
X156717676Y-100768095D02*
X156860533Y-100720476D01*
X156860533Y-100720476D02*
X157098628Y-100720476D01*
X157098628Y-100720476D02*
X157241485Y-100768095D01*
X157241485Y-100768095D02*
X157336723Y-100863333D01*
X157336723Y-100863333D02*
X157384342Y-100958571D01*
X157384342Y-100958571D02*
X157574819Y-100958571D01*
X157574819Y-100958571D02*
X157574819Y-100720476D01*
D14*
X177488298Y-87415108D02*
X177488298Y-86515108D01*
X177488298Y-86515108D02*
X178002584Y-87415108D01*
X178002584Y-87415108D02*
X178002584Y-86515108D01*
X178302584Y-86515108D02*
X178816870Y-86515108D01*
X178559727Y-87415108D02*
X178559727Y-86515108D01*
X179631155Y-87329393D02*
X179588298Y-87372251D01*
X179588298Y-87372251D02*
X179459726Y-87415108D01*
X179459726Y-87415108D02*
X179374012Y-87415108D01*
X179374012Y-87415108D02*
X179245441Y-87372251D01*
X179245441Y-87372251D02*
X179159726Y-87286536D01*
X179159726Y-87286536D02*
X179116869Y-87200822D01*
X179116869Y-87200822D02*
X179074012Y-87029393D01*
X179074012Y-87029393D02*
X179074012Y-86900822D01*
X179074012Y-86900822D02*
X179116869Y-86729393D01*
X179116869Y-86729393D02*
X179159726Y-86643679D01*
X179159726Y-86643679D02*
X179245441Y-86557965D01*
X179245441Y-86557965D02*
X179374012Y-86515108D01*
X179374012Y-86515108D02*
X179459726Y-86515108D01*
X179459726Y-86515108D02*
X179588298Y-86557965D01*
X179588298Y-86557965D02*
X179631155Y-86600822D01*
X179802584Y-87500822D02*
X180488298Y-87500822D01*
X180702583Y-87415108D02*
X180702583Y-86515108D01*
X180702583Y-86515108D02*
X181045440Y-86515108D01*
X181045440Y-86515108D02*
X181131155Y-86557965D01*
X181131155Y-86557965D02*
X181174012Y-86600822D01*
X181174012Y-86600822D02*
X181216869Y-86686536D01*
X181216869Y-86686536D02*
X181216869Y-86815108D01*
X181216869Y-86815108D02*
X181174012Y-86900822D01*
X181174012Y-86900822D02*
X181131155Y-86943679D01*
X181131155Y-86943679D02*
X181045440Y-86986536D01*
X181045440Y-86986536D02*
X180702583Y-86986536D01*
X182116869Y-87415108D02*
X181816869Y-86986536D01*
X181602583Y-87415108D02*
X181602583Y-86515108D01*
X181602583Y-86515108D02*
X181945440Y-86515108D01*
X181945440Y-86515108D02*
X182031155Y-86557965D01*
X182031155Y-86557965D02*
X182074012Y-86600822D01*
X182074012Y-86600822D02*
X182116869Y-86686536D01*
X182116869Y-86686536D02*
X182116869Y-86815108D01*
X182116869Y-86815108D02*
X182074012Y-86900822D01*
X182074012Y-86900822D02*
X182031155Y-86943679D01*
X182031155Y-86943679D02*
X181945440Y-86986536D01*
X181945440Y-86986536D02*
X181602583Y-86986536D01*
X182674012Y-86515108D02*
X182845440Y-86515108D01*
X182845440Y-86515108D02*
X182931155Y-86557965D01*
X182931155Y-86557965D02*
X183016869Y-86643679D01*
X183016869Y-86643679D02*
X183059726Y-86815108D01*
X183059726Y-86815108D02*
X183059726Y-87115108D01*
X183059726Y-87115108D02*
X183016869Y-87286536D01*
X183016869Y-87286536D02*
X182931155Y-87372251D01*
X182931155Y-87372251D02*
X182845440Y-87415108D01*
X182845440Y-87415108D02*
X182674012Y-87415108D01*
X182674012Y-87415108D02*
X182588298Y-87372251D01*
X182588298Y-87372251D02*
X182502583Y-87286536D01*
X182502583Y-87286536D02*
X182459726Y-87115108D01*
X182459726Y-87115108D02*
X182459726Y-86815108D01*
X182459726Y-86815108D02*
X182502583Y-86643679D01*
X182502583Y-86643679D02*
X182588298Y-86557965D01*
X182588298Y-86557965D02*
X182674012Y-86515108D01*
X183745440Y-86943679D02*
X183874012Y-86986536D01*
X183874012Y-86986536D02*
X183916869Y-87029393D01*
X183916869Y-87029393D02*
X183959726Y-87115108D01*
X183959726Y-87115108D02*
X183959726Y-87243679D01*
X183959726Y-87243679D02*
X183916869Y-87329393D01*
X183916869Y-87329393D02*
X183874012Y-87372251D01*
X183874012Y-87372251D02*
X183788297Y-87415108D01*
X183788297Y-87415108D02*
X183445440Y-87415108D01*
X183445440Y-87415108D02*
X183445440Y-86515108D01*
X183445440Y-86515108D02*
X183745440Y-86515108D01*
X183745440Y-86515108D02*
X183831155Y-86557965D01*
X183831155Y-86557965D02*
X183874012Y-86600822D01*
X183874012Y-86600822D02*
X183916869Y-86686536D01*
X183916869Y-86686536D02*
X183916869Y-86772251D01*
X183916869Y-86772251D02*
X183874012Y-86857965D01*
X183874012Y-86857965D02*
X183831155Y-86900822D01*
X183831155Y-86900822D02*
X183745440Y-86943679D01*
X183745440Y-86943679D02*
X183445440Y-86943679D01*
X184345440Y-86943679D02*
X184645440Y-86943679D01*
X184774012Y-87415108D02*
X184345440Y-87415108D01*
X184345440Y-87415108D02*
X184345440Y-86515108D01*
X184345440Y-86515108D02*
X184774012Y-86515108D01*
X185116869Y-86600822D02*
X185159726Y-86557965D01*
X185159726Y-86557965D02*
X185245441Y-86515108D01*
X185245441Y-86515108D02*
X185459726Y-86515108D01*
X185459726Y-86515108D02*
X185545441Y-86557965D01*
X185545441Y-86557965D02*
X185588298Y-86600822D01*
X185588298Y-86600822D02*
X185631155Y-86686536D01*
X185631155Y-86686536D02*
X185631155Y-86772251D01*
X185631155Y-86772251D02*
X185588298Y-86900822D01*
X185588298Y-86900822D02*
X185074012Y-87415108D01*
X185074012Y-87415108D02*
X185631155Y-87415108D01*
D15*
X139816191Y-103938940D02*
X139449524Y-103415131D01*
X139187619Y-103938940D02*
X139187619Y-102838940D01*
X139187619Y-102838940D02*
X139606667Y-102838940D01*
X139606667Y-102838940D02*
X139711429Y-102891321D01*
X139711429Y-102891321D02*
X139763810Y-102943702D01*
X139763810Y-102943702D02*
X139816191Y-103048464D01*
X139816191Y-103048464D02*
X139816191Y-103205607D01*
X139816191Y-103205607D02*
X139763810Y-103310369D01*
X139763810Y-103310369D02*
X139711429Y-103362750D01*
X139711429Y-103362750D02*
X139606667Y-103415131D01*
X139606667Y-103415131D02*
X139187619Y-103415131D01*
X140287619Y-103362750D02*
X140654286Y-103362750D01*
X140811429Y-103938940D02*
X140287619Y-103938940D01*
X140287619Y-103938940D02*
X140287619Y-102838940D01*
X140287619Y-102838940D02*
X140811429Y-102838940D01*
X141282857Y-103938940D02*
X141282857Y-102838940D01*
X141282857Y-102838940D02*
X141701905Y-102838940D01*
X141701905Y-102838940D02*
X141806667Y-102891321D01*
X141806667Y-102891321D02*
X141859048Y-102943702D01*
X141859048Y-102943702D02*
X141911429Y-103048464D01*
X141911429Y-103048464D02*
X141911429Y-103205607D01*
X141911429Y-103205607D02*
X141859048Y-103310369D01*
X141859048Y-103310369D02*
X141806667Y-103362750D01*
X141806667Y-103362750D02*
X141701905Y-103415131D01*
X141701905Y-103415131D02*
X141282857Y-103415131D01*
X142592381Y-102838940D02*
X142801905Y-102838940D01*
X142801905Y-102838940D02*
X142906667Y-102891321D01*
X142906667Y-102891321D02*
X143011429Y-102996083D01*
X143011429Y-102996083D02*
X143063810Y-103205607D01*
X143063810Y-103205607D02*
X143063810Y-103572274D01*
X143063810Y-103572274D02*
X143011429Y-103781798D01*
X143011429Y-103781798D02*
X142906667Y-103886560D01*
X142906667Y-103886560D02*
X142801905Y-103938940D01*
X142801905Y-103938940D02*
X142592381Y-103938940D01*
X142592381Y-103938940D02*
X142487619Y-103886560D01*
X142487619Y-103886560D02*
X142382857Y-103781798D01*
X142382857Y-103781798D02*
X142330476Y-103572274D01*
X142330476Y-103572274D02*
X142330476Y-103205607D01*
X142330476Y-103205607D02*
X142382857Y-102996083D01*
X142382857Y-102996083D02*
X142487619Y-102891321D01*
X142487619Y-102891321D02*
X142592381Y-102838940D01*
X144373333Y-102838940D02*
X144373333Y-103729417D01*
X144373333Y-103729417D02*
X144425714Y-103834179D01*
X144425714Y-103834179D02*
X144478095Y-103886560D01*
X144478095Y-103886560D02*
X144582857Y-103938940D01*
X144582857Y-103938940D02*
X144792381Y-103938940D01*
X144792381Y-103938940D02*
X144897143Y-103886560D01*
X144897143Y-103886560D02*
X144949524Y-103834179D01*
X144949524Y-103834179D02*
X145001905Y-103729417D01*
X145001905Y-103729417D02*
X145001905Y-102838940D01*
X146154286Y-103938940D02*
X145787619Y-103415131D01*
X145525714Y-103938940D02*
X145525714Y-102838940D01*
X145525714Y-102838940D02*
X145944762Y-102838940D01*
X145944762Y-102838940D02*
X146049524Y-102891321D01*
X146049524Y-102891321D02*
X146101905Y-102943702D01*
X146101905Y-102943702D02*
X146154286Y-103048464D01*
X146154286Y-103048464D02*
X146154286Y-103205607D01*
X146154286Y-103205607D02*
X146101905Y-103310369D01*
X146101905Y-103310369D02*
X146049524Y-103362750D01*
X146049524Y-103362750D02*
X145944762Y-103415131D01*
X145944762Y-103415131D02*
X145525714Y-103415131D01*
X147149524Y-103938940D02*
X146625714Y-103938940D01*
X146625714Y-103938940D02*
X146625714Y-102838940D01*
D12*
X177520331Y-100939720D02*
X177520331Y-99939720D01*
X177520331Y-99939720D02*
X178091759Y-100939720D01*
X178091759Y-100939720D02*
X178091759Y-99939720D01*
X178425093Y-99939720D02*
X178996521Y-99939720D01*
X178710807Y-100939720D02*
X178710807Y-99939720D01*
X179901283Y-100844481D02*
X179853664Y-100892101D01*
X179853664Y-100892101D02*
X179710807Y-100939720D01*
X179710807Y-100939720D02*
X179615569Y-100939720D01*
X179615569Y-100939720D02*
X179472712Y-100892101D01*
X179472712Y-100892101D02*
X179377474Y-100796862D01*
X179377474Y-100796862D02*
X179329855Y-100701624D01*
X179329855Y-100701624D02*
X179282236Y-100511148D01*
X179282236Y-100511148D02*
X179282236Y-100368291D01*
X179282236Y-100368291D02*
X179329855Y-100177815D01*
X179329855Y-100177815D02*
X179377474Y-100082577D01*
X179377474Y-100082577D02*
X179472712Y-99987339D01*
X179472712Y-99987339D02*
X179615569Y-99939720D01*
X179615569Y-99939720D02*
X179710807Y-99939720D01*
X179710807Y-99939720D02*
X179853664Y-99987339D01*
X179853664Y-99987339D02*
X179901283Y-100034958D01*
X180091760Y-101034958D02*
X180853664Y-101034958D01*
X181663188Y-100844481D02*
X181615569Y-100892101D01*
X181615569Y-100892101D02*
X181472712Y-100939720D01*
X181472712Y-100939720D02*
X181377474Y-100939720D01*
X181377474Y-100939720D02*
X181234617Y-100892101D01*
X181234617Y-100892101D02*
X181139379Y-100796862D01*
X181139379Y-100796862D02*
X181091760Y-100701624D01*
X181091760Y-100701624D02*
X181044141Y-100511148D01*
X181044141Y-100511148D02*
X181044141Y-100368291D01*
X181044141Y-100368291D02*
X181091760Y-100177815D01*
X181091760Y-100177815D02*
X181139379Y-100082577D01*
X181139379Y-100082577D02*
X181234617Y-99987339D01*
X181234617Y-99987339D02*
X181377474Y-99939720D01*
X181377474Y-99939720D02*
X181472712Y-99939720D01*
X181472712Y-99939720D02*
X181615569Y-99987339D01*
X181615569Y-99987339D02*
X181663188Y-100034958D01*
X181948903Y-99939720D02*
X182520331Y-99939720D01*
X182234617Y-100939720D02*
X182234617Y-99939720D01*
X183425093Y-100939720D02*
X183091760Y-100463529D01*
X182853665Y-100939720D02*
X182853665Y-99939720D01*
X182853665Y-99939720D02*
X183234617Y-99939720D01*
X183234617Y-99939720D02*
X183329855Y-99987339D01*
X183329855Y-99987339D02*
X183377474Y-100034958D01*
X183377474Y-100034958D02*
X183425093Y-100130196D01*
X183425093Y-100130196D02*
X183425093Y-100273053D01*
X183425093Y-100273053D02*
X183377474Y-100368291D01*
X183377474Y-100368291D02*
X183329855Y-100415910D01*
X183329855Y-100415910D02*
X183234617Y-100463529D01*
X183234617Y-100463529D02*
X182853665Y-100463529D01*
X184329855Y-100939720D02*
X183853665Y-100939720D01*
X183853665Y-100939720D02*
X183853665Y-99939720D01*
X185186998Y-100939720D02*
X184615570Y-100939720D01*
X184901284Y-100939720D02*
X184901284Y-99939720D01*
X184901284Y-99939720D02*
X184806046Y-100082577D01*
X184806046Y-100082577D02*
X184710808Y-100177815D01*
X184710808Y-100177815D02*
X184615570Y-100225434D01*
D11*
X168514819Y-88865238D02*
X168514819Y-89436666D01*
X168514819Y-89150952D02*
X167514819Y-89150952D01*
X167514819Y-89150952D02*
X167657676Y-89246190D01*
X167657676Y-89246190D02*
X167752914Y-89341428D01*
X167752914Y-89341428D02*
X167800533Y-89436666D01*
X167848152Y-88436666D02*
X168514819Y-88436666D01*
X167943390Y-88436666D02*
X167895771Y-88389047D01*
X167895771Y-88389047D02*
X167848152Y-88293809D01*
X167848152Y-88293809D02*
X167848152Y-88150952D01*
X167848152Y-88150952D02*
X167895771Y-88055714D01*
X167895771Y-88055714D02*
X167991009Y-88008095D01*
X167991009Y-88008095D02*
X168514819Y-88008095D01*
X167991009Y-87198571D02*
X167991009Y-87531904D01*
X168514819Y-87531904D02*
X167514819Y-87531904D01*
X167514819Y-87531904D02*
X167514819Y-87055714D01*
X142124819Y-90598243D02*
X142124819Y-91169671D01*
X142124819Y-90883957D02*
X141124819Y-90883957D01*
X141124819Y-90883957D02*
X141267676Y-90979195D01*
X141267676Y-90979195D02*
X141362914Y-91074433D01*
X141362914Y-91074433D02*
X141410533Y-91169671D01*
X142124819Y-90169671D02*
X141124819Y-90169671D01*
X141124819Y-90169671D02*
X141839104Y-89836338D01*
X141839104Y-89836338D02*
X141124819Y-89503005D01*
X141124819Y-89503005D02*
X142124819Y-89503005D01*
X142124819Y-89074433D02*
X142124819Y-88836338D01*
X142124819Y-88836338D02*
X141934342Y-88836338D01*
X141934342Y-88836338D02*
X141886723Y-88931576D01*
X141886723Y-88931576D02*
X141791485Y-89026814D01*
X141791485Y-89026814D02*
X141648628Y-89074433D01*
X141648628Y-89074433D02*
X141410533Y-89074433D01*
X141410533Y-89074433D02*
X141267676Y-89026814D01*
X141267676Y-89026814D02*
X141172438Y-88931576D01*
X141172438Y-88931576D02*
X141124819Y-88788719D01*
X141124819Y-88788719D02*
X141124819Y-88598243D01*
X141124819Y-88598243D02*
X141172438Y-88455386D01*
X141172438Y-88455386D02*
X141267676Y-88360148D01*
X141267676Y-88360148D02*
X141410533Y-88312529D01*
X141410533Y-88312529D02*
X141648628Y-88312529D01*
X141648628Y-88312529D02*
X141791485Y-88360148D01*
X141791485Y-88360148D02*
X141886723Y-88455386D01*
X141886723Y-88455386D02*
X141934342Y-88550624D01*
X141934342Y-88550624D02*
X142124819Y-88550624D01*
X142124819Y-88550624D02*
X142124819Y-88312529D01*
X173286666Y-110475920D02*
X173286666Y-111190205D01*
X173286666Y-111190205D02*
X173239047Y-111333062D01*
X173239047Y-111333062D02*
X173143809Y-111428301D01*
X173143809Y-111428301D02*
X173000952Y-111475920D01*
X173000952Y-111475920D02*
X172905714Y-111475920D01*
X173667619Y-110475920D02*
X174286666Y-110475920D01*
X174286666Y-110475920D02*
X173953333Y-110856872D01*
X173953333Y-110856872D02*
X174096190Y-110856872D01*
X174096190Y-110856872D02*
X174191428Y-110904491D01*
X174191428Y-110904491D02*
X174239047Y-110952110D01*
X174239047Y-110952110D02*
X174286666Y-111047348D01*
X174286666Y-111047348D02*
X174286666Y-111285443D01*
X174286666Y-111285443D02*
X174239047Y-111380681D01*
X174239047Y-111380681D02*
X174191428Y-111428301D01*
X174191428Y-111428301D02*
X174096190Y-111475920D01*
X174096190Y-111475920D02*
X173810476Y-111475920D01*
X173810476Y-111475920D02*
X173715238Y-111428301D01*
X173715238Y-111428301D02*
X173667619Y-111380681D01*
X145653333Y-93020681D02*
X145605714Y-93068301D01*
X145605714Y-93068301D02*
X145462857Y-93115920D01*
X145462857Y-93115920D02*
X145367619Y-93115920D01*
X145367619Y-93115920D02*
X145224762Y-93068301D01*
X145224762Y-93068301D02*
X145129524Y-92973062D01*
X145129524Y-92973062D02*
X145081905Y-92877824D01*
X145081905Y-92877824D02*
X145034286Y-92687348D01*
X145034286Y-92687348D02*
X145034286Y-92544491D01*
X145034286Y-92544491D02*
X145081905Y-92354015D01*
X145081905Y-92354015D02*
X145129524Y-92258777D01*
X145129524Y-92258777D02*
X145224762Y-92163539D01*
X145224762Y-92163539D02*
X145367619Y-92115920D01*
X145367619Y-92115920D02*
X145462857Y-92115920D01*
X145462857Y-92115920D02*
X145605714Y-92163539D01*
X145605714Y-92163539D02*
X145653333Y-92211158D01*
X146605714Y-93115920D02*
X146034286Y-93115920D01*
X146320000Y-93115920D02*
X146320000Y-92115920D01*
X146320000Y-92115920D02*
X146224762Y-92258777D01*
X146224762Y-92258777D02*
X146129524Y-92354015D01*
X146129524Y-92354015D02*
X146034286Y-92401634D01*
X149543333Y-93020681D02*
X149495714Y-93068301D01*
X149495714Y-93068301D02*
X149352857Y-93115920D01*
X149352857Y-93115920D02*
X149257619Y-93115920D01*
X149257619Y-93115920D02*
X149114762Y-93068301D01*
X149114762Y-93068301D02*
X149019524Y-92973062D01*
X149019524Y-92973062D02*
X148971905Y-92877824D01*
X148971905Y-92877824D02*
X148924286Y-92687348D01*
X148924286Y-92687348D02*
X148924286Y-92544491D01*
X148924286Y-92544491D02*
X148971905Y-92354015D01*
X148971905Y-92354015D02*
X149019524Y-92258777D01*
X149019524Y-92258777D02*
X149114762Y-92163539D01*
X149114762Y-92163539D02*
X149257619Y-92115920D01*
X149257619Y-92115920D02*
X149352857Y-92115920D01*
X149352857Y-92115920D02*
X149495714Y-92163539D01*
X149495714Y-92163539D02*
X149543333Y-92211158D01*
X149924286Y-92211158D02*
X149971905Y-92163539D01*
X149971905Y-92163539D02*
X150067143Y-92115920D01*
X150067143Y-92115920D02*
X150305238Y-92115920D01*
X150305238Y-92115920D02*
X150400476Y-92163539D01*
X150400476Y-92163539D02*
X150448095Y-92211158D01*
X150448095Y-92211158D02*
X150495714Y-92306396D01*
X150495714Y-92306396D02*
X150495714Y-92401634D01*
X150495714Y-92401634D02*
X150448095Y-92544491D01*
X150448095Y-92544491D02*
X149876667Y-93115920D01*
X149876667Y-93115920D02*
X150495714Y-93115920D01*
X167843333Y-84339580D02*
X167795714Y-84387200D01*
X167795714Y-84387200D02*
X167652857Y-84434819D01*
X167652857Y-84434819D02*
X167557619Y-84434819D01*
X167557619Y-84434819D02*
X167414762Y-84387200D01*
X167414762Y-84387200D02*
X167319524Y-84291961D01*
X167319524Y-84291961D02*
X167271905Y-84196723D01*
X167271905Y-84196723D02*
X167224286Y-84006247D01*
X167224286Y-84006247D02*
X167224286Y-83863390D01*
X167224286Y-83863390D02*
X167271905Y-83672914D01*
X167271905Y-83672914D02*
X167319524Y-83577676D01*
X167319524Y-83577676D02*
X167414762Y-83482438D01*
X167414762Y-83482438D02*
X167557619Y-83434819D01*
X167557619Y-83434819D02*
X167652857Y-83434819D01*
X167652857Y-83434819D02*
X167795714Y-83482438D01*
X167795714Y-83482438D02*
X167843333Y-83530057D01*
X168176667Y-83434819D02*
X168795714Y-83434819D01*
X168795714Y-83434819D02*
X168462381Y-83815771D01*
X168462381Y-83815771D02*
X168605238Y-83815771D01*
X168605238Y-83815771D02*
X168700476Y-83863390D01*
X168700476Y-83863390D02*
X168748095Y-83911009D01*
X168748095Y-83911009D02*
X168795714Y-84006247D01*
X168795714Y-84006247D02*
X168795714Y-84244342D01*
X168795714Y-84244342D02*
X168748095Y-84339580D01*
X168748095Y-84339580D02*
X168700476Y-84387200D01*
X168700476Y-84387200D02*
X168605238Y-84434819D01*
X168605238Y-84434819D02*
X168319524Y-84434819D01*
X168319524Y-84434819D02*
X168224286Y-84387200D01*
X168224286Y-84387200D02*
X168176667Y-84339580D01*
X164018095Y-93270920D02*
X164018095Y-94080443D01*
X164018095Y-94080443D02*
X164065714Y-94175681D01*
X164065714Y-94175681D02*
X164113333Y-94223301D01*
X164113333Y-94223301D02*
X164208571Y-94270920D01*
X164208571Y-94270920D02*
X164399047Y-94270920D01*
X164399047Y-94270920D02*
X164494285Y-94223301D01*
X164494285Y-94223301D02*
X164541904Y-94175681D01*
X164541904Y-94175681D02*
X164589523Y-94080443D01*
X164589523Y-94080443D02*
X164589523Y-93270920D01*
X165589523Y-94270920D02*
X165018095Y-94270920D01*
X165303809Y-94270920D02*
X165303809Y-93270920D01*
X165303809Y-93270920D02*
X165208571Y-93413777D01*
X165208571Y-93413777D02*
X165113333Y-93509015D01*
X165113333Y-93509015D02*
X165018095Y-93556634D01*
X136637261Y-96501158D02*
X136542023Y-96453539D01*
X136542023Y-96453539D02*
X136446785Y-96358301D01*
X136446785Y-96358301D02*
X136303928Y-96215443D01*
X136303928Y-96215443D02*
X136208690Y-96167824D01*
X136208690Y-96167824D02*
X136113452Y-96167824D01*
X136161071Y-96405920D02*
X136065833Y-96358301D01*
X136065833Y-96358301D02*
X135970595Y-96263062D01*
X135970595Y-96263062D02*
X135922976Y-96072586D01*
X135922976Y-96072586D02*
X135922976Y-95739253D01*
X135922976Y-95739253D02*
X135970595Y-95548777D01*
X135970595Y-95548777D02*
X136065833Y-95453539D01*
X136065833Y-95453539D02*
X136161071Y-95405920D01*
X136161071Y-95405920D02*
X136351547Y-95405920D01*
X136351547Y-95405920D02*
X136446785Y-95453539D01*
X136446785Y-95453539D02*
X136542023Y-95548777D01*
X136542023Y-95548777D02*
X136589642Y-95739253D01*
X136589642Y-95739253D02*
X136589642Y-96072586D01*
X136589642Y-96072586D02*
X136542023Y-96263062D01*
X136542023Y-96263062D02*
X136446785Y-96358301D01*
X136446785Y-96358301D02*
X136351547Y-96405920D01*
X136351547Y-96405920D02*
X136161071Y-96405920D01*
X137542023Y-96405920D02*
X136970595Y-96405920D01*
X137256309Y-96405920D02*
X137256309Y-95405920D01*
X137256309Y-95405920D02*
X137161071Y-95548777D01*
X137161071Y-95548777D02*
X137065833Y-95644015D01*
X137065833Y-95644015D02*
X136970595Y-95691634D01*
X167074819Y-109725594D02*
X166074819Y-109725594D01*
X166074819Y-109725594D02*
X166074819Y-109487499D01*
X166074819Y-109487499D02*
X166122438Y-109344642D01*
X166122438Y-109344642D02*
X166217676Y-109249404D01*
X166217676Y-109249404D02*
X166312914Y-109201785D01*
X166312914Y-109201785D02*
X166503390Y-109154166D01*
X166503390Y-109154166D02*
X166646247Y-109154166D01*
X166646247Y-109154166D02*
X166836723Y-109201785D01*
X166836723Y-109201785D02*
X166931961Y-109249404D01*
X166931961Y-109249404D02*
X167027200Y-109344642D01*
X167027200Y-109344642D02*
X167074819Y-109487499D01*
X167074819Y-109487499D02*
X167074819Y-109725594D01*
X166170057Y-108773213D02*
X166122438Y-108725594D01*
X166122438Y-108725594D02*
X166074819Y-108630356D01*
X166074819Y-108630356D02*
X166074819Y-108392261D01*
X166074819Y-108392261D02*
X166122438Y-108297023D01*
X166122438Y-108297023D02*
X166170057Y-108249404D01*
X166170057Y-108249404D02*
X166265295Y-108201785D01*
X166265295Y-108201785D02*
X166360533Y-108201785D01*
X166360533Y-108201785D02*
X166503390Y-108249404D01*
X166503390Y-108249404D02*
X167074819Y-108820832D01*
X167074819Y-108820832D02*
X167074819Y-108201785D01*
X176061905Y-94124819D02*
X176061905Y-93124819D01*
X176061905Y-93124819D02*
X176300000Y-93124819D01*
X176300000Y-93124819D02*
X176442857Y-93172438D01*
X176442857Y-93172438D02*
X176538095Y-93267676D01*
X176538095Y-93267676D02*
X176585714Y-93362914D01*
X176585714Y-93362914D02*
X176633333Y-93553390D01*
X176633333Y-93553390D02*
X176633333Y-93696247D01*
X176633333Y-93696247D02*
X176585714Y-93886723D01*
X176585714Y-93886723D02*
X176538095Y-93981961D01*
X176538095Y-93981961D02*
X176442857Y-94077200D01*
X176442857Y-94077200D02*
X176300000Y-94124819D01*
X176300000Y-94124819D02*
X176061905Y-94124819D01*
X177585714Y-94124819D02*
X177014286Y-94124819D01*
X177300000Y-94124819D02*
X177300000Y-93124819D01*
X177300000Y-93124819D02*
X177204762Y-93267676D01*
X177204762Y-93267676D02*
X177109524Y-93362914D01*
X177109524Y-93362914D02*
X177014286Y-93410533D01*
X156943333Y-95924819D02*
X156610000Y-95448628D01*
X156371905Y-95924819D02*
X156371905Y-94924819D01*
X156371905Y-94924819D02*
X156752857Y-94924819D01*
X156752857Y-94924819D02*
X156848095Y-94972438D01*
X156848095Y-94972438D02*
X156895714Y-95020057D01*
X156895714Y-95020057D02*
X156943333Y-95115295D01*
X156943333Y-95115295D02*
X156943333Y-95258152D01*
X156943333Y-95258152D02*
X156895714Y-95353390D01*
X156895714Y-95353390D02*
X156848095Y-95401009D01*
X156848095Y-95401009D02*
X156752857Y-95448628D01*
X156752857Y-95448628D02*
X156371905Y-95448628D01*
X157276667Y-94924819D02*
X157895714Y-94924819D01*
X157895714Y-94924819D02*
X157562381Y-95305771D01*
X157562381Y-95305771D02*
X157705238Y-95305771D01*
X157705238Y-95305771D02*
X157800476Y-95353390D01*
X157800476Y-95353390D02*
X157848095Y-95401009D01*
X157848095Y-95401009D02*
X157895714Y-95496247D01*
X157895714Y-95496247D02*
X157895714Y-95734342D01*
X157895714Y-95734342D02*
X157848095Y-95829580D01*
X157848095Y-95829580D02*
X157800476Y-95877200D01*
X157800476Y-95877200D02*
X157705238Y-95924819D01*
X157705238Y-95924819D02*
X157419524Y-95924819D01*
X157419524Y-95924819D02*
X157324286Y-95877200D01*
X157324286Y-95877200D02*
X157276667Y-95829580D01*
X129486666Y-92595920D02*
X129486666Y-93310205D01*
X129486666Y-93310205D02*
X129439047Y-93453062D01*
X129439047Y-93453062D02*
X129343809Y-93548301D01*
X129343809Y-93548301D02*
X129200952Y-93595920D01*
X129200952Y-93595920D02*
X129105714Y-93595920D01*
X130486666Y-93595920D02*
X129915238Y-93595920D01*
X130200952Y-93595920D02*
X130200952Y-92595920D01*
X130200952Y-92595920D02*
X130105714Y-92738777D01*
X130105714Y-92738777D02*
X130010476Y-92834015D01*
X130010476Y-92834015D02*
X129915238Y-92881634D01*
X130426666Y-104283718D02*
X130426666Y-104998003D01*
X130426666Y-104998003D02*
X130379047Y-105140860D01*
X130379047Y-105140860D02*
X130283809Y-105236099D01*
X130283809Y-105236099D02*
X130140952Y-105283718D01*
X130140952Y-105283718D02*
X130045714Y-105283718D01*
X130902857Y-105283718D02*
X130902857Y-104283718D01*
X130902857Y-104283718D02*
X131283809Y-104283718D01*
X131283809Y-104283718D02*
X131379047Y-104331337D01*
X131379047Y-104331337D02*
X131426666Y-104378956D01*
X131426666Y-104378956D02*
X131474285Y-104474194D01*
X131474285Y-104474194D02*
X131474285Y-104617051D01*
X131474285Y-104617051D02*
X131426666Y-104712289D01*
X131426666Y-104712289D02*
X131379047Y-104759908D01*
X131379047Y-104759908D02*
X131283809Y-104807527D01*
X131283809Y-104807527D02*
X130902857Y-104807527D01*
X132426666Y-105283718D02*
X131855238Y-105283718D01*
X132140952Y-105283718D02*
X132140952Y-104283718D01*
X132140952Y-104283718D02*
X132045714Y-104426575D01*
X132045714Y-104426575D02*
X131950476Y-104521813D01*
X131950476Y-104521813D02*
X131855238Y-104569432D01*
X141393333Y-97385920D02*
X141060000Y-96909729D01*
X140821905Y-97385920D02*
X140821905Y-96385920D01*
X140821905Y-96385920D02*
X141202857Y-96385920D01*
X141202857Y-96385920D02*
X141298095Y-96433539D01*
X141298095Y-96433539D02*
X141345714Y-96481158D01*
X141345714Y-96481158D02*
X141393333Y-96576396D01*
X141393333Y-96576396D02*
X141393333Y-96719253D01*
X141393333Y-96719253D02*
X141345714Y-96814491D01*
X141345714Y-96814491D02*
X141298095Y-96862110D01*
X141298095Y-96862110D02*
X141202857Y-96909729D01*
X141202857Y-96909729D02*
X140821905Y-96909729D01*
X142345714Y-97385920D02*
X141774286Y-97385920D01*
X142060000Y-97385920D02*
X142060000Y-96385920D01*
X142060000Y-96385920D02*
X141964762Y-96528777D01*
X141964762Y-96528777D02*
X141869524Y-96624015D01*
X141869524Y-96624015D02*
X141774286Y-96671634D01*
X173066666Y-83605920D02*
X173066666Y-84320205D01*
X173066666Y-84320205D02*
X173019047Y-84463062D01*
X173019047Y-84463062D02*
X172923809Y-84558301D01*
X172923809Y-84558301D02*
X172780952Y-84605920D01*
X172780952Y-84605920D02*
X172685714Y-84605920D01*
X173495238Y-83701158D02*
X173542857Y-83653539D01*
X173542857Y-83653539D02*
X173638095Y-83605920D01*
X173638095Y-83605920D02*
X173876190Y-83605920D01*
X173876190Y-83605920D02*
X173971428Y-83653539D01*
X173971428Y-83653539D02*
X174019047Y-83701158D01*
X174019047Y-83701158D02*
X174066666Y-83796396D01*
X174066666Y-83796396D02*
X174066666Y-83891634D01*
X174066666Y-83891634D02*
X174019047Y-84034491D01*
X174019047Y-84034491D02*
X173447619Y-84605920D01*
X173447619Y-84605920D02*
X174066666Y-84605920D01*
X159073333Y-86434819D02*
X158740000Y-85958628D01*
X158501905Y-86434819D02*
X158501905Y-85434819D01*
X158501905Y-85434819D02*
X158882857Y-85434819D01*
X158882857Y-85434819D02*
X158978095Y-85482438D01*
X158978095Y-85482438D02*
X159025714Y-85530057D01*
X159025714Y-85530057D02*
X159073333Y-85625295D01*
X159073333Y-85625295D02*
X159073333Y-85768152D01*
X159073333Y-85768152D02*
X159025714Y-85863390D01*
X159025714Y-85863390D02*
X158978095Y-85911009D01*
X158978095Y-85911009D02*
X158882857Y-85958628D01*
X158882857Y-85958628D02*
X158501905Y-85958628D01*
X159454286Y-85530057D02*
X159501905Y-85482438D01*
X159501905Y-85482438D02*
X159597143Y-85434819D01*
X159597143Y-85434819D02*
X159835238Y-85434819D01*
X159835238Y-85434819D02*
X159930476Y-85482438D01*
X159930476Y-85482438D02*
X159978095Y-85530057D01*
X159978095Y-85530057D02*
X160025714Y-85625295D01*
X160025714Y-85625295D02*
X160025714Y-85720533D01*
X160025714Y-85720533D02*
X159978095Y-85863390D01*
X159978095Y-85863390D02*
X159406667Y-86434819D01*
X159406667Y-86434819D02*
X160025714Y-86434819D01*
X152938095Y-92973301D02*
X153080952Y-93020920D01*
X153080952Y-93020920D02*
X153319047Y-93020920D01*
X153319047Y-93020920D02*
X153414285Y-92973301D01*
X153414285Y-92973301D02*
X153461904Y-92925681D01*
X153461904Y-92925681D02*
X153509523Y-92830443D01*
X153509523Y-92830443D02*
X153509523Y-92735205D01*
X153509523Y-92735205D02*
X153461904Y-92639967D01*
X153461904Y-92639967D02*
X153414285Y-92592348D01*
X153414285Y-92592348D02*
X153319047Y-92544729D01*
X153319047Y-92544729D02*
X153128571Y-92497110D01*
X153128571Y-92497110D02*
X153033333Y-92449491D01*
X153033333Y-92449491D02*
X152985714Y-92401872D01*
X152985714Y-92401872D02*
X152938095Y-92306634D01*
X152938095Y-92306634D02*
X152938095Y-92211396D01*
X152938095Y-92211396D02*
X152985714Y-92116158D01*
X152985714Y-92116158D02*
X153033333Y-92068539D01*
X153033333Y-92068539D02*
X153128571Y-92020920D01*
X153128571Y-92020920D02*
X153366666Y-92020920D01*
X153366666Y-92020920D02*
X153509523Y-92068539D01*
X154461904Y-93020920D02*
X153890476Y-93020920D01*
X154176190Y-93020920D02*
X154176190Y-92020920D01*
X154176190Y-92020920D02*
X154080952Y-92163777D01*
X154080952Y-92163777D02*
X153985714Y-92259015D01*
X153985714Y-92259015D02*
X153890476Y-92306634D01*
X154194761Y-109110057D02*
X154099523Y-109062438D01*
X154099523Y-109062438D02*
X154004285Y-108967200D01*
X154004285Y-108967200D02*
X153861428Y-108824342D01*
X153861428Y-108824342D02*
X153766190Y-108776723D01*
X153766190Y-108776723D02*
X153670952Y-108776723D01*
X153718571Y-109014819D02*
X153623333Y-108967200D01*
X153623333Y-108967200D02*
X153528095Y-108871961D01*
X153528095Y-108871961D02*
X153480476Y-108681485D01*
X153480476Y-108681485D02*
X153480476Y-108348152D01*
X153480476Y-108348152D02*
X153528095Y-108157676D01*
X153528095Y-108157676D02*
X153623333Y-108062438D01*
X153623333Y-108062438D02*
X153718571Y-108014819D01*
X153718571Y-108014819D02*
X153909047Y-108014819D01*
X153909047Y-108014819D02*
X154004285Y-108062438D01*
X154004285Y-108062438D02*
X154099523Y-108157676D01*
X154099523Y-108157676D02*
X154147142Y-108348152D01*
X154147142Y-108348152D02*
X154147142Y-108681485D01*
X154147142Y-108681485D02*
X154099523Y-108871961D01*
X154099523Y-108871961D02*
X154004285Y-108967200D01*
X154004285Y-108967200D02*
X153909047Y-109014819D01*
X153909047Y-109014819D02*
X153718571Y-109014819D01*
X154528095Y-108110057D02*
X154575714Y-108062438D01*
X154575714Y-108062438D02*
X154670952Y-108014819D01*
X154670952Y-108014819D02*
X154909047Y-108014819D01*
X154909047Y-108014819D02*
X155004285Y-108062438D01*
X155004285Y-108062438D02*
X155051904Y-108110057D01*
X155051904Y-108110057D02*
X155099523Y-108205295D01*
X155099523Y-108205295D02*
X155099523Y-108300533D01*
X155099523Y-108300533D02*
X155051904Y-108443390D01*
X155051904Y-108443390D02*
X154480476Y-109014819D01*
X154480476Y-109014819D02*
X155099523Y-109014819D01*
X159073333Y-90424819D02*
X158740000Y-89948628D01*
X158501905Y-90424819D02*
X158501905Y-89424819D01*
X158501905Y-89424819D02*
X158882857Y-89424819D01*
X158882857Y-89424819D02*
X158978095Y-89472438D01*
X158978095Y-89472438D02*
X159025714Y-89520057D01*
X159025714Y-89520057D02*
X159073333Y-89615295D01*
X159073333Y-89615295D02*
X159073333Y-89758152D01*
X159073333Y-89758152D02*
X159025714Y-89853390D01*
X159025714Y-89853390D02*
X158978095Y-89901009D01*
X158978095Y-89901009D02*
X158882857Y-89948628D01*
X158882857Y-89948628D02*
X158501905Y-89948628D01*
X159930476Y-89758152D02*
X159930476Y-90424819D01*
X159692381Y-89377200D02*
X159454286Y-90091485D01*
X159454286Y-90091485D02*
X160073333Y-90091485D01*
X167094819Y-104488094D02*
X166094819Y-104488094D01*
X166094819Y-104488094D02*
X166094819Y-104249999D01*
X166094819Y-104249999D02*
X166142438Y-104107142D01*
X166142438Y-104107142D02*
X166237676Y-104011904D01*
X166237676Y-104011904D02*
X166332914Y-103964285D01*
X166332914Y-103964285D02*
X166523390Y-103916666D01*
X166523390Y-103916666D02*
X166666247Y-103916666D01*
X166666247Y-103916666D02*
X166856723Y-103964285D01*
X166856723Y-103964285D02*
X166951961Y-104011904D01*
X166951961Y-104011904D02*
X167047200Y-104107142D01*
X167047200Y-104107142D02*
X167094819Y-104249999D01*
X167094819Y-104249999D02*
X167094819Y-104488094D01*
X166094819Y-103583332D02*
X166094819Y-102964285D01*
X166094819Y-102964285D02*
X166475771Y-103297618D01*
X166475771Y-103297618D02*
X166475771Y-103154761D01*
X166475771Y-103154761D02*
X166523390Y-103059523D01*
X166523390Y-103059523D02*
X166571009Y-103011904D01*
X166571009Y-103011904D02*
X166666247Y-102964285D01*
X166666247Y-102964285D02*
X166904342Y-102964285D01*
X166904342Y-102964285D02*
X166999580Y-103011904D01*
X166999580Y-103011904D02*
X167047200Y-103059523D01*
X167047200Y-103059523D02*
X167094819Y-103154761D01*
X167094819Y-103154761D02*
X167094819Y-103440475D01*
X167094819Y-103440475D02*
X167047200Y-103535713D01*
X167047200Y-103535713D02*
X166999580Y-103583332D01*
D16*
%TO.C,J3*%
X170247500Y-96291101D02*
X176687500Y-96291101D01*
X170247500Y-109691101D02*
X170247500Y-96291101D01*
X170247500Y-109691101D02*
X176687500Y-109691101D01*
X170767500Y-109691101D02*
X170767500Y-96291101D01*
X176067500Y-109691101D02*
X176067500Y-96291101D01*
X176687500Y-107771101D02*
X176687500Y-96291101D01*
X176687500Y-109691101D02*
X176687500Y-108371101D01*
X177297500Y-108511101D02*
X176687500Y-108071101D01*
X177297500Y-107631101D01*
X177297500Y-108511101D01*
G36*
X177297500Y-108511101D02*
G01*
X176687500Y-108071101D01*
X177297500Y-107631101D01*
X177297500Y-108511101D01*
G37*
%TO.C,C1*%
X144700000Y-95011101D02*
X144700000Y-99551101D01*
X144715000Y-95011101D02*
X144700000Y-95011101D01*
X144715000Y-99551101D02*
X144700000Y-99551101D01*
X146840000Y-95011101D02*
X146825000Y-95011101D01*
X146840000Y-95011101D02*
X146840000Y-99551101D01*
X146840000Y-99551101D02*
X146825000Y-99551101D01*
%TO.C,C2*%
X148720000Y-95111101D02*
X148720000Y-99651101D01*
X148735000Y-95111101D02*
X148720000Y-95111101D01*
X148735000Y-99651101D02*
X148720000Y-99651101D01*
X150860000Y-95111101D02*
X150845000Y-95111101D01*
X150860000Y-95111101D02*
X150860000Y-99651101D01*
X150860000Y-99651101D02*
X150845000Y-99651101D01*
%TO.C,C3*%
X166990000Y-86000000D02*
X167005000Y-86000000D01*
X166990000Y-90540000D02*
X166990000Y-86000000D01*
X166990000Y-90540000D02*
X167005000Y-90540000D01*
X169115000Y-86000000D02*
X169130000Y-86000000D01*
X169115000Y-90540000D02*
X169130000Y-90540000D01*
X169130000Y-90540000D02*
X169130000Y-86000000D01*
%TO.C,U1*%
X162130000Y-94816101D02*
X162130000Y-100016101D01*
X162130000Y-100016101D02*
X167430000Y-100016101D01*
X163780000Y-94816101D02*
X162130000Y-94816101D01*
X167430000Y-94816101D02*
X165780000Y-94816101D01*
X167430000Y-100016101D02*
X167430000Y-94816101D01*
X165780000Y-94816101D02*
G75*
G02*
X163780000Y-94816101I-1000000J0D01*
G01*
%TO.C,Q1*%
X136732500Y-97071101D02*
X135932500Y-97071101D01*
X136732500Y-97071101D02*
X137532500Y-97071101D01*
X136732500Y-100191101D02*
X135932500Y-100191101D01*
X136732500Y-100191101D02*
X137532500Y-100191101D01*
X138272500Y-100471101D02*
X137792500Y-100471101D01*
X138032500Y-100141101D01*
X138272500Y-100471101D01*
G36*
X138272500Y-100471101D02*
G01*
X137792500Y-100471101D01*
X138032500Y-100141101D01*
X138272500Y-100471101D01*
G37*
%TO.C,D2*%
X167410000Y-106800000D02*
X167410000Y-110660000D01*
D17*
X168010000Y-109260000D02*
X168410000Y-108660000D01*
X168410000Y-108260000D02*
X168410000Y-108660000D01*
X168410000Y-108660000D02*
X167860000Y-108660000D01*
X168410000Y-108660000D02*
X168810000Y-109260000D01*
X168410000Y-108660000D02*
X168960000Y-108660000D01*
X168410000Y-109260000D02*
X168410000Y-109760000D01*
X168810000Y-109260000D02*
X168010000Y-109260000D01*
D16*
X169410000Y-106800000D02*
X167410000Y-106800000D01*
X169410000Y-106800000D02*
X169410000Y-110660000D01*
D17*
%TO.C,D1*%
X173190000Y-93270000D02*
X173790000Y-93670000D01*
X173190000Y-93670000D02*
X172690000Y-93670000D01*
X173190000Y-94070000D02*
X173190000Y-93270000D01*
X173790000Y-93670000D02*
X173190000Y-94070000D01*
X173790000Y-93670000D02*
X173790000Y-93120000D01*
X173790000Y-93670000D02*
X173790000Y-94220000D01*
X174190000Y-93670000D02*
X173790000Y-93670000D01*
D16*
X175650000Y-92670000D02*
X171790000Y-92670000D01*
X175650000Y-94670000D02*
X171790000Y-94670000D01*
X175650000Y-94670000D02*
X175650000Y-92670000D01*
%TO.C,R3*%
X155750000Y-99260000D02*
X155750000Y-105800000D01*
X155750000Y-105800000D02*
X158490000Y-105800000D01*
X157120000Y-98490000D02*
X157120000Y-99260000D01*
X157120000Y-106570000D02*
X157120000Y-105800000D01*
X158490000Y-99260000D02*
X155750000Y-99260000D01*
X158490000Y-105800000D02*
X158490000Y-99260000D01*
%TO.C,J1*%
X126610000Y-94441101D02*
X126610000Y-95031101D01*
X126610000Y-97091101D02*
X126610000Y-97571101D01*
X126610000Y-99631101D02*
X126610000Y-100221101D01*
X127230000Y-94441101D02*
X127230000Y-95031101D01*
X127230000Y-97091101D02*
X127230000Y-97571101D01*
X127230000Y-99631101D02*
X127230000Y-100221101D01*
X132530000Y-94441101D02*
X132530000Y-100221101D01*
X133050000Y-94441101D02*
X126610000Y-94441101D01*
X133050000Y-94441101D02*
X133050000Y-100221101D01*
X133050000Y-100221101D02*
X126610000Y-100221101D01*
X126610000Y-96061101D02*
X126000000Y-96501101D01*
X126000000Y-95621101D01*
X126610000Y-96061101D01*
G36*
X126610000Y-96061101D02*
G01*
X126000000Y-96501101D01*
X126000000Y-95621101D01*
X126610000Y-96061101D01*
G37*
D11*
%TO.C,JP1*%
X129020000Y-102490000D02*
X129520000Y-101990000D01*
X129020000Y-103290000D02*
X129020000Y-102490000D01*
X129520000Y-101990000D02*
X133120000Y-101990000D01*
X129520000Y-103790000D02*
X129020000Y-103290000D01*
X133120000Y-101990000D02*
X133620000Y-102490000D01*
X133120000Y-103790000D02*
X129520000Y-103790000D01*
X133620000Y-102490000D02*
X133620000Y-103290000D01*
X133620000Y-103290000D02*
X133120000Y-103790000D01*
D16*
%TO.C,R1*%
X140300000Y-86471101D02*
X140300000Y-93011101D01*
X140300000Y-93011101D02*
X143040000Y-93011101D01*
X141670000Y-85701101D02*
X141670000Y-86471101D01*
X141670000Y-93781101D02*
X141670000Y-93011101D01*
X143040000Y-86471101D02*
X140300000Y-86471101D01*
X143040000Y-93011101D02*
X143040000Y-86471101D01*
%TO.C,J2*%
X170247500Y-85291101D02*
X176687500Y-85291101D01*
X170247500Y-91071101D02*
X170247500Y-85291101D01*
X170247500Y-91071101D02*
X176687500Y-91071101D01*
X170767500Y-91071101D02*
X170767500Y-85291101D01*
X176067500Y-85881101D02*
X176067500Y-85291101D01*
X176067500Y-88421101D02*
X176067500Y-87941101D01*
X176067500Y-91071101D02*
X176067500Y-90481101D01*
X176687500Y-85881101D02*
X176687500Y-85291101D01*
X176687500Y-88421101D02*
X176687500Y-87941101D01*
X176687500Y-91071101D02*
X176687500Y-90481101D01*
X177297500Y-89891101D02*
X176687500Y-89451101D01*
X177297500Y-89011101D01*
X177297500Y-89891101D01*
G36*
X177297500Y-89891101D02*
G01*
X176687500Y-89451101D01*
X177297500Y-89011101D01*
X177297500Y-89891101D01*
G37*
%TO.C,R2*%
X148010000Y-85920000D02*
X148780000Y-85920000D01*
X148780000Y-84550000D02*
X148780000Y-87290000D01*
X148780000Y-87290000D02*
X155320000Y-87290000D01*
X155320000Y-84550000D02*
X148780000Y-84550000D01*
X155320000Y-87290000D02*
X155320000Y-84550000D01*
X156090000Y-85920000D02*
X155320000Y-85920000D01*
%TO.C,S1*%
X152370000Y-93566101D02*
X153700000Y-93566101D01*
X152370000Y-94896101D02*
X152370000Y-93566101D01*
X152370000Y-96166101D02*
X152370000Y-101306101D01*
X152370000Y-96166101D02*
X155030000Y-96166101D01*
X152370000Y-101306101D02*
X155030000Y-101306101D01*
X155030000Y-96166101D02*
X155030000Y-101306101D01*
D18*
%TO.C,G\u002A\u002A\u002A*%
G36*
X137448889Y-111710251D02*
G01*
X137448889Y-112070322D01*
X137268854Y-112070322D01*
X137088819Y-112070322D01*
X137088819Y-111710251D01*
X137088819Y-111350180D01*
X137268854Y-111350180D01*
X137448889Y-111350180D01*
X137448889Y-111710251D01*
G37*
G36*
X138544105Y-109707357D02*
G01*
X138544105Y-109894894D01*
X138364070Y-109894894D01*
X138184034Y-109894894D01*
X138184034Y-109707357D01*
X138184034Y-109519820D01*
X138364070Y-109519820D01*
X138544105Y-109519820D01*
X138544105Y-109707357D01*
G37*
G36*
X138904176Y-105701568D02*
G01*
X138904176Y-106249176D01*
X138356568Y-106249176D01*
X137808960Y-106249176D01*
X137808960Y-105701568D01*
X137808960Y-105153960D01*
X138356568Y-105153960D01*
X138904176Y-105153960D01*
X138904176Y-105701568D01*
G37*
G36*
X138904176Y-115168432D02*
G01*
X138904176Y-115716039D01*
X138356568Y-115716039D01*
X137808960Y-115716039D01*
X137808960Y-115168432D01*
X137808960Y-114620824D01*
X138356568Y-114620824D01*
X138904176Y-114620824D01*
X138904176Y-115168432D01*
G37*
G36*
X139639321Y-108979713D02*
G01*
X139639321Y-109159749D01*
X138911677Y-109159749D01*
X138184034Y-109159749D01*
X138184034Y-108979713D01*
X138184034Y-108799678D01*
X138911677Y-108799678D01*
X139639321Y-108799678D01*
X139639321Y-108979713D01*
G37*
G36*
X139639321Y-111162643D02*
G01*
X139639321Y-111350180D01*
X139451784Y-111350180D01*
X139264247Y-111350180D01*
X139264247Y-111162643D01*
X139264247Y-110975106D01*
X139451784Y-110975106D01*
X139639321Y-110975106D01*
X139639321Y-111162643D01*
G37*
G36*
X141454678Y-105709070D02*
G01*
X141454678Y-105889105D01*
X141274642Y-105889105D01*
X141094607Y-105889105D01*
X141094607Y-105709070D01*
X141094607Y-105529034D01*
X141274642Y-105529034D01*
X141454678Y-105529034D01*
X141454678Y-105709070D01*
G37*
G36*
X143270035Y-108979713D02*
G01*
X143270035Y-109159749D01*
X143090000Y-109159749D01*
X142909964Y-109159749D01*
X142909964Y-108979713D01*
X142909964Y-108799678D01*
X143090000Y-108799678D01*
X143270035Y-108799678D01*
X143270035Y-108979713D01*
G37*
G36*
X144005180Y-106796784D02*
G01*
X144005180Y-106984321D01*
X143817643Y-106984321D01*
X143630106Y-106984321D01*
X143630106Y-106796784D01*
X143630106Y-106609247D01*
X143817643Y-106609247D01*
X144005180Y-106609247D01*
X144005180Y-106796784D01*
G37*
G36*
X144005180Y-113345573D02*
G01*
X144005180Y-113525608D01*
X143817643Y-113525608D01*
X143630106Y-113525608D01*
X143630106Y-113345573D01*
X143630106Y-113165537D01*
X143817643Y-113165537D01*
X144005180Y-113165537D01*
X144005180Y-113345573D01*
G37*
G36*
X145085393Y-114073216D02*
G01*
X145085393Y-114260753D01*
X144905357Y-114260753D01*
X144725322Y-114260753D01*
X144725322Y-114073216D01*
X144725322Y-113885679D01*
X144905357Y-113885679D01*
X145085393Y-113885679D01*
X145085393Y-114073216D01*
G37*
G36*
X145820537Y-111162643D02*
G01*
X145820537Y-111350180D01*
X145640502Y-111350180D01*
X145460466Y-111350180D01*
X145460466Y-111162643D01*
X145460466Y-110975106D01*
X145640502Y-110975106D01*
X145820537Y-110975106D01*
X145820537Y-111162643D01*
G37*
G36*
X146180608Y-106616748D02*
G01*
X146180608Y-107344391D01*
X146000573Y-107344391D01*
X145820537Y-107344391D01*
X145820537Y-106616748D01*
X145820537Y-105889105D01*
X146000573Y-105889105D01*
X146180608Y-105889105D01*
X146180608Y-106616748D01*
G37*
G36*
X146180608Y-108799678D02*
G01*
X146180608Y-109159749D01*
X146000573Y-109159749D01*
X145820537Y-109159749D01*
X145820537Y-108799678D01*
X145820537Y-108439607D01*
X146000573Y-108439607D01*
X146180608Y-108439607D01*
X146180608Y-108799678D01*
G37*
G36*
X146540679Y-112250357D02*
G01*
X146540679Y-112430393D01*
X146360644Y-112430393D01*
X146180608Y-112430393D01*
X146180608Y-112250357D01*
X146180608Y-112070322D01*
X146360644Y-112070322D01*
X146540679Y-112070322D01*
X146540679Y-112250357D01*
G37*
G36*
X146540679Y-116256146D02*
G01*
X146540679Y-116436181D01*
X146360644Y-116436181D01*
X146180608Y-116436181D01*
X146180608Y-116256146D01*
X146180608Y-116076110D01*
X146360644Y-116076110D01*
X146540679Y-116076110D01*
X146540679Y-116256146D01*
G37*
G36*
X146915753Y-114073216D02*
G01*
X146915753Y-114260753D01*
X146728216Y-114260753D01*
X146540679Y-114260753D01*
X146540679Y-114073216D01*
X146540679Y-113885679D01*
X146728216Y-113885679D01*
X146915753Y-113885679D01*
X146915753Y-114073216D01*
G37*
G36*
X148371039Y-105701568D02*
G01*
X148371039Y-106249176D01*
X147823432Y-106249176D01*
X147275824Y-106249176D01*
X147275824Y-105701568D01*
X147275824Y-105153960D01*
X147823432Y-105153960D01*
X148371039Y-105153960D01*
X148371039Y-105701568D01*
G37*
G36*
X149091181Y-115896075D02*
G01*
X149091181Y-116076110D01*
X148911146Y-116076110D01*
X148731110Y-116076110D01*
X148731110Y-115896075D01*
X148731110Y-115716039D01*
X148911146Y-115716039D01*
X149091181Y-115716039D01*
X149091181Y-115896075D01*
G37*
G36*
X147995966Y-116076110D02*
G01*
X147995966Y-116436181D01*
X147635895Y-116436181D01*
X147275824Y-116436181D01*
X147275824Y-116256146D01*
X147275824Y-116076110D01*
X147455859Y-116076110D01*
X147635895Y-116076110D01*
X147635895Y-115896075D01*
X147635895Y-115716039D01*
X147815930Y-115716039D01*
X147995966Y-115716039D01*
X147995966Y-116076110D01*
G37*
G36*
X149091181Y-110615035D02*
G01*
X149091181Y-110975106D01*
X148911146Y-110975106D01*
X148731110Y-110975106D01*
X148731110Y-110795071D01*
X148731110Y-110615035D01*
X148551075Y-110615035D01*
X148371039Y-110615035D01*
X148371039Y-110435000D01*
X148371039Y-110254964D01*
X148731110Y-110254964D01*
X149091181Y-110254964D01*
X149091181Y-110615035D01*
G37*
G36*
X140719533Y-110435000D02*
G01*
X140719533Y-110615035D01*
X140539498Y-110615035D01*
X140359462Y-110615035D01*
X140359462Y-110795071D01*
X140359462Y-110975106D01*
X140179427Y-110975106D01*
X139999391Y-110975106D01*
X139999391Y-110795071D01*
X139999391Y-110615035D01*
X140179427Y-110615035D01*
X140359462Y-110615035D01*
X140359462Y-110435000D01*
X140359462Y-110254964D01*
X140539498Y-110254964D01*
X140719533Y-110254964D01*
X140719533Y-110435000D01*
G37*
G36*
X141454678Y-110067427D02*
G01*
X141454678Y-110615035D01*
X141274642Y-110615035D01*
X141094607Y-110615035D01*
X141094607Y-110435000D01*
X141094607Y-110254964D01*
X140907070Y-110254964D01*
X140719533Y-110254964D01*
X140719533Y-110074929D01*
X140719533Y-109894894D01*
X140907070Y-109894894D01*
X141094607Y-109894894D01*
X141094607Y-109707357D01*
X141094607Y-109519820D01*
X141274642Y-109519820D01*
X141454678Y-109519820D01*
X141454678Y-110067427D01*
G37*
G36*
X142909964Y-112250357D02*
G01*
X142909964Y-112430393D01*
X142729929Y-112430393D01*
X142549894Y-112430393D01*
X142549894Y-112617930D01*
X142549894Y-112805466D01*
X142362357Y-112805466D01*
X142174820Y-112805466D01*
X142174820Y-112617930D01*
X142174820Y-112430393D01*
X142362357Y-112430393D01*
X142549894Y-112430393D01*
X142549894Y-112250357D01*
X142549894Y-112070322D01*
X142729929Y-112070322D01*
X142909964Y-112070322D01*
X142909964Y-112250357D01*
G37*
G36*
X139639321Y-105709070D02*
G01*
X139639321Y-106984321D01*
X138364070Y-106984321D01*
X137088819Y-106984321D01*
X137088819Y-106609247D01*
X137448889Y-106609247D01*
X138356568Y-106609247D01*
X139264247Y-106609247D01*
X139264247Y-105701568D01*
X139264247Y-104793889D01*
X138356568Y-104793889D01*
X137448889Y-104793889D01*
X137448889Y-105701568D01*
X137448889Y-106609247D01*
X137088819Y-106609247D01*
X137088819Y-105709070D01*
X137088819Y-105701568D01*
X137088819Y-104433819D01*
X138364070Y-104433819D01*
X139639321Y-104433819D01*
X139639321Y-105709070D01*
G37*
G36*
X139639321Y-115160930D02*
G01*
X139639321Y-116436181D01*
X138364070Y-116436181D01*
X137088819Y-116436181D01*
X137088819Y-116076110D01*
X137448889Y-116076110D01*
X138356568Y-116076110D01*
X139264247Y-116076110D01*
X139264247Y-115168432D01*
X139264247Y-114260753D01*
X138356568Y-114260753D01*
X137448889Y-114260753D01*
X137448889Y-115168432D01*
X137448889Y-116076110D01*
X137088819Y-116076110D01*
X137088819Y-115168432D01*
X137088819Y-115160930D01*
X137088819Y-113885679D01*
X138364070Y-113885679D01*
X139639321Y-113885679D01*
X139639321Y-115160930D01*
G37*
G36*
X149091181Y-105709070D02*
G01*
X149091181Y-106984321D01*
X147815930Y-106984321D01*
X146540679Y-106984321D01*
X146540679Y-106609247D01*
X146915753Y-106609247D01*
X147823432Y-106609247D01*
X148731110Y-106609247D01*
X148731110Y-105701568D01*
X148731110Y-104793889D01*
X147823432Y-104793889D01*
X146915753Y-104793889D01*
X146915753Y-105701568D01*
X146915753Y-106609247D01*
X146540679Y-106609247D01*
X146540679Y-105709070D01*
X146540679Y-105701568D01*
X146540679Y-104433819D01*
X147815930Y-104433819D01*
X149091181Y-104433819D01*
X149091181Y-105709070D01*
G37*
G36*
X142909964Y-111342679D02*
G01*
X142909964Y-111710251D01*
X142729929Y-111710251D01*
X142549894Y-111710251D01*
X142549894Y-111890286D01*
X142549894Y-112070322D01*
X142182321Y-112070322D01*
X141814749Y-112070322D01*
X141814749Y-111710251D01*
X141814749Y-111350180D01*
X141994784Y-111350180D01*
X142174820Y-111350180D01*
X142174820Y-111530215D01*
X142174820Y-111710251D01*
X142362357Y-111710251D01*
X142549894Y-111710251D01*
X142549894Y-111342679D01*
X142549894Y-110975106D01*
X142729929Y-110975106D01*
X142909964Y-110975106D01*
X142909964Y-111342679D01*
G37*
G36*
X143270035Y-104613854D02*
G01*
X143270035Y-104793889D01*
X143450071Y-104793889D01*
X143630106Y-104793889D01*
X143630106Y-104613854D01*
X143630106Y-104433819D01*
X143817643Y-104433819D01*
X144005180Y-104433819D01*
X144005180Y-104613854D01*
X144005180Y-104793889D01*
X144185215Y-104793889D01*
X144365251Y-104793889D01*
X144365251Y-104973925D01*
X144365251Y-105153960D01*
X143817643Y-105153960D01*
X143270035Y-105153960D01*
X143270035Y-104973925D01*
X143270035Y-104793889D01*
X143090000Y-104793889D01*
X142909964Y-104793889D01*
X142909964Y-104613854D01*
X142909964Y-104433819D01*
X143090000Y-104433819D01*
X143270035Y-104433819D01*
X143270035Y-104613854D01*
G37*
G36*
X143270035Y-107156855D02*
G01*
X143270035Y-107704462D01*
X143450071Y-107704462D01*
X143630106Y-107704462D01*
X143630106Y-107884498D01*
X143630106Y-108064533D01*
X143090000Y-108064533D01*
X142549894Y-108064533D01*
X142549894Y-107884498D01*
X142549894Y-107704462D01*
X142362357Y-107704462D01*
X142174820Y-107704462D01*
X142174820Y-107524427D01*
X142174820Y-107344391D01*
X142362357Y-107344391D01*
X142549894Y-107344391D01*
X142549894Y-107524427D01*
X142549894Y-107704462D01*
X142729929Y-107704462D01*
X142909964Y-107704462D01*
X142909964Y-107156855D01*
X142909964Y-106609247D01*
X143090000Y-106609247D01*
X143270035Y-106609247D01*
X143270035Y-107156855D01*
G37*
G36*
X142909964Y-105521533D02*
G01*
X142909964Y-105889105D01*
X143270035Y-105889105D01*
X143630106Y-105889105D01*
X143630106Y-105709070D01*
X143630106Y-105529034D01*
X143817643Y-105529034D01*
X144005180Y-105529034D01*
X144005180Y-105709070D01*
X144005180Y-105889105D01*
X143817643Y-105889105D01*
X143630106Y-105889105D01*
X143630106Y-106069140D01*
X143630106Y-106249176D01*
X143270035Y-106249176D01*
X142909964Y-106249176D01*
X142909964Y-106069140D01*
X142909964Y-105889105D01*
X142729929Y-105889105D01*
X142549894Y-105889105D01*
X142549894Y-105709070D01*
X142549894Y-105529034D01*
X142362357Y-105529034D01*
X142174820Y-105529034D01*
X142174820Y-105341497D01*
X142174820Y-105153960D01*
X142542392Y-105153960D01*
X142909964Y-105153960D01*
X142909964Y-105521533D01*
G37*
G36*
X141454678Y-104613854D02*
G01*
X141454678Y-104793889D01*
X141634713Y-104793889D01*
X141814749Y-104793889D01*
X141814749Y-104613854D01*
X141814749Y-104433819D01*
X141994784Y-104433819D01*
X142174820Y-104433819D01*
X142174820Y-104793889D01*
X142174820Y-105153960D01*
X141814749Y-105153960D01*
X141454678Y-105153960D01*
X141454678Y-104973925D01*
X141454678Y-104793889D01*
X141087106Y-104793889D01*
X140719533Y-104793889D01*
X140719533Y-105701568D01*
X140719533Y-106609247D01*
X140539498Y-106609247D01*
X140359462Y-106609247D01*
X140359462Y-106796784D01*
X140359462Y-106984321D01*
X140179427Y-106984321D01*
X139999391Y-106984321D01*
X139999391Y-106069140D01*
X139999391Y-105153960D01*
X140179427Y-105153960D01*
X140359462Y-105153960D01*
X140359462Y-104973925D01*
X140359462Y-104793889D01*
X140179427Y-104793889D01*
X139999391Y-104793889D01*
X139999391Y-104613854D01*
X139999391Y-104433819D01*
X140727035Y-104433819D01*
X141454678Y-104433819D01*
X141454678Y-104613854D01*
G37*
G36*
X146915753Y-111162643D02*
G01*
X146915753Y-111350180D01*
X146728216Y-111350180D01*
X146540679Y-111350180D01*
X146540679Y-111530215D01*
X146540679Y-111710251D01*
X146908251Y-111710251D01*
X147275824Y-111710251D01*
X147275824Y-111342679D01*
X147275824Y-110975106D01*
X147455859Y-110975106D01*
X147635895Y-110975106D01*
X147635895Y-111162643D01*
X147635895Y-111350180D01*
X147815930Y-111350180D01*
X147995966Y-111350180D01*
X147995966Y-111710251D01*
X147995966Y-112070322D01*
X147815930Y-112070322D01*
X147635895Y-112070322D01*
X147635895Y-111890286D01*
X147635895Y-111710251D01*
X147455859Y-111710251D01*
X147275824Y-111710251D01*
X147275824Y-112070322D01*
X147275824Y-112430393D01*
X147095788Y-112430393D01*
X146915753Y-112430393D01*
X146915753Y-112250357D01*
X146915753Y-112070322D01*
X146728216Y-112070322D01*
X146540679Y-112070322D01*
X146540679Y-111890286D01*
X146540679Y-111710251D01*
X146360644Y-111710251D01*
X146180608Y-111710251D01*
X146180608Y-111342679D01*
X146180608Y-110975106D01*
X146548181Y-110975106D01*
X146915753Y-110975106D01*
X146915753Y-111162643D01*
G37*
G36*
X141814749Y-106069140D02*
G01*
X141814749Y-106249176D01*
X141994784Y-106249176D01*
X142174820Y-106249176D01*
X142174820Y-106069140D01*
X142174820Y-105889105D01*
X142362357Y-105889105D01*
X142549894Y-105889105D01*
X142549894Y-106069140D01*
X142549894Y-106249176D01*
X142362357Y-106249176D01*
X142174820Y-106249176D01*
X142174820Y-106429211D01*
X142174820Y-106609247D01*
X142362357Y-106609247D01*
X142549894Y-106609247D01*
X142549894Y-106429211D01*
X142549894Y-106249176D01*
X142729929Y-106249176D01*
X142909964Y-106249176D01*
X142909964Y-106429211D01*
X142909964Y-106609247D01*
X142729929Y-106609247D01*
X142549894Y-106609247D01*
X142549894Y-106796784D01*
X142549894Y-106984321D01*
X142362357Y-106984321D01*
X142174820Y-106984321D01*
X142174820Y-106796784D01*
X142174820Y-106609247D01*
X141994784Y-106609247D01*
X141814749Y-106609247D01*
X141814749Y-106976819D01*
X141814749Y-107344391D01*
X141634713Y-107344391D01*
X141454678Y-107344391D01*
X141454678Y-106976819D01*
X141454678Y-106609247D01*
X141634713Y-106609247D01*
X141814749Y-106609247D01*
X141814749Y-106429211D01*
X141814749Y-106249176D01*
X141634713Y-106249176D01*
X141454678Y-106249176D01*
X141454678Y-106069140D01*
X141454678Y-105889105D01*
X141634713Y-105889105D01*
X141814749Y-105889105D01*
X141814749Y-106069140D01*
G37*
G36*
X142174820Y-108252070D02*
G01*
X142174820Y-108439607D01*
X142542392Y-108439607D01*
X142909964Y-108439607D01*
X142909964Y-108619642D01*
X142909964Y-108799678D01*
X142729929Y-108799678D01*
X142549894Y-108799678D01*
X142549894Y-109159749D01*
X142549894Y-109519820D01*
X142362357Y-109519820D01*
X142174820Y-109519820D01*
X142174820Y-110067427D01*
X142174820Y-110615035D01*
X142362357Y-110615035D01*
X142549894Y-110615035D01*
X142549894Y-110435000D01*
X142549894Y-110254964D01*
X142729929Y-110254964D01*
X142909964Y-110254964D01*
X142909964Y-110435000D01*
X142909964Y-110615035D01*
X142729929Y-110615035D01*
X142549894Y-110615035D01*
X142549894Y-110795071D01*
X142549894Y-110975106D01*
X142182321Y-110975106D01*
X141814749Y-110975106D01*
X141814749Y-111162643D01*
X141814749Y-111350180D01*
X141634713Y-111350180D01*
X141454678Y-111350180D01*
X141454678Y-111162643D01*
X141454678Y-110975106D01*
X141634713Y-110975106D01*
X141814749Y-110975106D01*
X141814749Y-110067427D01*
X141814749Y-109159749D01*
X141994784Y-109159749D01*
X142174820Y-109159749D01*
X142174820Y-108979713D01*
X142174820Y-108799678D01*
X141994784Y-108799678D01*
X141814749Y-108799678D01*
X141814749Y-108979713D01*
X141814749Y-109159749D01*
X141634713Y-109159749D01*
X141454678Y-109159749D01*
X141454678Y-108979713D01*
X141454678Y-108799678D01*
X141087106Y-108799678D01*
X140719533Y-108799678D01*
X140719533Y-108619642D01*
X140719533Y-108439607D01*
X141267141Y-108439607D01*
X141814749Y-108439607D01*
X141814749Y-108252070D01*
X141814749Y-108064533D01*
X141994784Y-108064533D01*
X142174820Y-108064533D01*
X142174820Y-108252070D01*
G37*
G36*
X139999391Y-112070322D02*
G01*
X139999391Y-112430393D01*
X139819356Y-112430393D01*
X139639321Y-112430393D01*
X139639321Y-112617930D01*
X139639321Y-112805466D01*
X139451784Y-112805466D01*
X139264247Y-112805466D01*
X139264247Y-112617930D01*
X139264247Y-112430393D01*
X139451784Y-112430393D01*
X139639321Y-112430393D01*
X139639321Y-112250357D01*
X139639321Y-112070322D01*
X139271748Y-112070322D01*
X138904176Y-112070322D01*
X138904176Y-112617930D01*
X138904176Y-113165537D01*
X138724140Y-113165537D01*
X138544105Y-113165537D01*
X138544105Y-113345573D01*
X138544105Y-113525608D01*
X138364070Y-113525608D01*
X138184034Y-113525608D01*
X138184034Y-113345573D01*
X138184034Y-113165537D01*
X138364070Y-113165537D01*
X138544105Y-113165537D01*
X138544105Y-112985502D01*
X138544105Y-112805466D01*
X138364070Y-112805466D01*
X138184034Y-112805466D01*
X138184034Y-112617930D01*
X138184034Y-112430393D01*
X137996497Y-112430393D01*
X137808960Y-112430393D01*
X137808960Y-112617930D01*
X137808960Y-112805466D01*
X137628925Y-112805466D01*
X137448889Y-112805466D01*
X137448889Y-112985502D01*
X137448889Y-113165537D01*
X137268854Y-113165537D01*
X137088819Y-113165537D01*
X137088819Y-112985502D01*
X137088819Y-112805466D01*
X137268854Y-112805466D01*
X137448889Y-112805466D01*
X137448889Y-112617930D01*
X137448889Y-112430393D01*
X137628925Y-112430393D01*
X137808960Y-112430393D01*
X137808960Y-112250357D01*
X137808960Y-112070322D01*
X137996497Y-112070322D01*
X138184034Y-112070322D01*
X138184034Y-112250357D01*
X138184034Y-112430393D01*
X138364070Y-112430393D01*
X138544105Y-112430393D01*
X138544105Y-112250357D01*
X138544105Y-112070322D01*
X138724140Y-112070322D01*
X138904176Y-112070322D01*
X138904176Y-111890286D01*
X138904176Y-111710251D01*
X139451784Y-111710251D01*
X139999391Y-111710251D01*
X139999391Y-112070322D01*
G37*
G36*
X141094607Y-106976819D02*
G01*
X141094607Y-107344391D01*
X141274642Y-107344391D01*
X141454678Y-107344391D01*
X141454678Y-107704462D01*
X141454678Y-108064533D01*
X141274642Y-108064533D01*
X141094607Y-108064533D01*
X141094607Y-107884498D01*
X141094607Y-107704462D01*
X140727035Y-107704462D01*
X140359462Y-107704462D01*
X140359462Y-107884498D01*
X140359462Y-108064533D01*
X140539498Y-108064533D01*
X140719533Y-108064533D01*
X140719533Y-108252070D01*
X140719533Y-108439607D01*
X140359462Y-108439607D01*
X139999391Y-108439607D01*
X139999391Y-108619642D01*
X139999391Y-108799678D01*
X139819356Y-108799678D01*
X139639321Y-108799678D01*
X139639321Y-108619642D01*
X139639321Y-108439607D01*
X139271748Y-108439607D01*
X138904176Y-108439607D01*
X138904176Y-108072035D01*
X138904176Y-108064533D01*
X139264247Y-108064533D01*
X139451784Y-108064533D01*
X139639321Y-108064533D01*
X139639321Y-107884498D01*
X139639321Y-107704462D01*
X139451784Y-107704462D01*
X139264247Y-107704462D01*
X139264247Y-107884498D01*
X139264247Y-108064533D01*
X138904176Y-108064533D01*
X138904176Y-107884498D01*
X138904176Y-107704462D01*
X138544105Y-107704462D01*
X138184034Y-107704462D01*
X138184034Y-107884498D01*
X138184034Y-108064533D01*
X138364070Y-108064533D01*
X138544105Y-108064533D01*
X138544105Y-108252070D01*
X138544105Y-108439607D01*
X138176533Y-108439607D01*
X137808960Y-108439607D01*
X137808960Y-108799678D01*
X137808960Y-109159749D01*
X137996497Y-109159749D01*
X138184034Y-109159749D01*
X138184034Y-109339784D01*
X138184034Y-109519820D01*
X137996497Y-109519820D01*
X137808960Y-109519820D01*
X137808960Y-109887392D01*
X137808960Y-110254964D01*
X138176533Y-110254964D01*
X138544105Y-110254964D01*
X138544105Y-110074929D01*
X138544105Y-109894894D01*
X138724140Y-109894894D01*
X138904176Y-109894894D01*
X138904176Y-109707357D01*
X138904176Y-109519820D01*
X139271748Y-109519820D01*
X139639321Y-109519820D01*
X139639321Y-109707357D01*
X139639321Y-109894894D01*
X139451784Y-109894894D01*
X139264247Y-109894894D01*
X139264247Y-110074929D01*
X139264247Y-110254964D01*
X139451784Y-110254964D01*
X139639321Y-110254964D01*
X139639321Y-110074929D01*
X139639321Y-109894894D01*
X139819356Y-109894894D01*
X139999391Y-109894894D01*
X139999391Y-109347286D01*
X139999391Y-108799678D01*
X140179427Y-108799678D01*
X140359462Y-108799678D01*
X140359462Y-109527321D01*
X140359462Y-110254964D01*
X139999391Y-110254964D01*
X139639321Y-110254964D01*
X139639321Y-110435000D01*
X139639321Y-110615035D01*
X139271748Y-110615035D01*
X138904176Y-110615035D01*
X138904176Y-110435000D01*
X138904176Y-110254964D01*
X138724140Y-110254964D01*
X138544105Y-110254964D01*
X138544105Y-110435000D01*
X138544105Y-110615035D01*
X138364070Y-110615035D01*
X138184034Y-110615035D01*
X138184034Y-110982608D01*
X138184034Y-111350180D01*
X138364070Y-111350180D01*
X138544105Y-111350180D01*
X138544105Y-111162643D01*
X138544105Y-110975106D01*
X138724140Y-110975106D01*
X138904176Y-110975106D01*
X138904176Y-111162643D01*
X138904176Y-111350180D01*
X138724140Y-111350180D01*
X138544105Y-111350180D01*
X138544105Y-111530215D01*
X138544105Y-111710251D01*
X138364070Y-111710251D01*
X138184034Y-111710251D01*
X138184034Y-111530215D01*
X138184034Y-111350180D01*
X137996497Y-111350180D01*
X137808960Y-111350180D01*
X137808960Y-111162643D01*
X137808960Y-110975106D01*
X137448889Y-110975106D01*
X137088819Y-110975106D01*
X137088819Y-110615035D01*
X137088819Y-110254964D01*
X137268854Y-110254964D01*
X137448889Y-110254964D01*
X137448889Y-110074929D01*
X137448889Y-109894894D01*
X137268854Y-109894894D01*
X137088819Y-109894894D01*
X137088819Y-109347286D01*
X137088819Y-108799678D01*
X137268854Y-108799678D01*
X137448889Y-108799678D01*
X137448889Y-108432106D01*
X137448889Y-108064533D01*
X137268854Y-108064533D01*
X137088819Y-108064533D01*
X137088819Y-107884498D01*
X137088819Y-107704462D01*
X137268854Y-107704462D01*
X137448889Y-107704462D01*
X137448889Y-107884498D01*
X137448889Y-108064533D01*
X137628925Y-108064533D01*
X137808960Y-108064533D01*
X137808960Y-107704462D01*
X137808960Y-107344391D01*
X138904176Y-107344391D01*
X139999391Y-107344391D01*
X139999391Y-107524427D01*
X139999391Y-107704462D01*
X140179427Y-107704462D01*
X140359462Y-107704462D01*
X140359462Y-107524427D01*
X140359462Y-107344391D01*
X140539498Y-107344391D01*
X140719533Y-107344391D01*
X140719533Y-106976819D01*
X140719533Y-106609247D01*
X140907070Y-106609247D01*
X141094607Y-106609247D01*
X141094607Y-106976819D01*
G37*
G36*
X146180608Y-104613854D02*
G01*
X146180608Y-104793889D01*
X145633000Y-104793889D01*
X145085393Y-104793889D01*
X145085393Y-104973925D01*
X145085393Y-105153960D01*
X145633000Y-105153960D01*
X146180608Y-105153960D01*
X146180608Y-105341497D01*
X146180608Y-105529034D01*
X145820537Y-105529034D01*
X145460466Y-105529034D01*
X145460466Y-106616748D01*
X145460466Y-107704462D01*
X145820537Y-107704462D01*
X146180608Y-107704462D01*
X146180608Y-107524427D01*
X146180608Y-107344391D01*
X146360644Y-107344391D01*
X146540679Y-107344391D01*
X146540679Y-107524427D01*
X146540679Y-107704462D01*
X146728216Y-107704462D01*
X146915753Y-107704462D01*
X146915753Y-107524427D01*
X146915753Y-107344391D01*
X147643396Y-107344391D01*
X148371039Y-107344391D01*
X148371039Y-107524427D01*
X148371039Y-107704462D01*
X148183502Y-107704462D01*
X147995966Y-107704462D01*
X147995966Y-108432106D01*
X147995966Y-109159749D01*
X148183502Y-109159749D01*
X148371039Y-109159749D01*
X148371039Y-108612141D01*
X148371039Y-108064533D01*
X148551075Y-108064533D01*
X148731110Y-108064533D01*
X148731110Y-107704462D01*
X148731110Y-107344391D01*
X148911146Y-107344391D01*
X149091181Y-107344391D01*
X149091181Y-108072035D01*
X149091181Y-108799678D01*
X148911146Y-108799678D01*
X148731110Y-108799678D01*
X148731110Y-108979713D01*
X148731110Y-109159749D01*
X148551075Y-109159749D01*
X148371039Y-109159749D01*
X148371039Y-109339784D01*
X148371039Y-109519820D01*
X148551075Y-109519820D01*
X148731110Y-109519820D01*
X148731110Y-109339784D01*
X148731110Y-109159749D01*
X148911146Y-109159749D01*
X149091181Y-109159749D01*
X149091181Y-109339784D01*
X149091181Y-109519820D01*
X148911146Y-109519820D01*
X148731110Y-109519820D01*
X148731110Y-109707357D01*
X148731110Y-109894894D01*
X148363538Y-109894894D01*
X147995966Y-109894894D01*
X147995966Y-110254964D01*
X147995966Y-110615035D01*
X147815930Y-110615035D01*
X147635895Y-110615035D01*
X147635895Y-110435000D01*
X147635895Y-110254964D01*
X147455859Y-110254964D01*
X147275824Y-110254964D01*
X147275824Y-110074929D01*
X147275824Y-109894894D01*
X147455859Y-109894894D01*
X147635895Y-109894894D01*
X147635895Y-109707357D01*
X147635895Y-109519820D01*
X147455859Y-109519820D01*
X147275824Y-109519820D01*
X147275824Y-108979713D01*
X147275824Y-108439607D01*
X146908251Y-108439607D01*
X146540679Y-108439607D01*
X146540679Y-108072035D01*
X146540679Y-108064533D01*
X146915753Y-108064533D01*
X147275824Y-108064533D01*
X147635895Y-108064533D01*
X147635895Y-107884498D01*
X147635895Y-107704462D01*
X147275824Y-107704462D01*
X146915753Y-107704462D01*
X146915753Y-107884498D01*
X146915753Y-108064533D01*
X146540679Y-108064533D01*
X146540679Y-107884498D01*
X146540679Y-107704462D01*
X146360644Y-107704462D01*
X146180608Y-107704462D01*
X146180608Y-107884498D01*
X146180608Y-108064533D01*
X145633000Y-108064533D01*
X145085393Y-108064533D01*
X145085393Y-108252070D01*
X145085393Y-108439607D01*
X145272930Y-108439607D01*
X145460466Y-108439607D01*
X145460466Y-108799678D01*
X145460466Y-109159749D01*
X145272930Y-109159749D01*
X145085393Y-109159749D01*
X145085393Y-108979713D01*
X145085393Y-108799678D01*
X144905357Y-108799678D01*
X144725322Y-108799678D01*
X144725322Y-108979713D01*
X144725322Y-109159749D01*
X144545286Y-109159749D01*
X144365251Y-109159749D01*
X144365251Y-109527321D01*
X144365251Y-109894894D01*
X144725322Y-109894894D01*
X145085393Y-109894894D01*
X145085393Y-109707357D01*
X145085393Y-109519820D01*
X145272930Y-109519820D01*
X145460466Y-109519820D01*
X145460466Y-109707357D01*
X145460466Y-109894894D01*
X145640502Y-109894894D01*
X145820537Y-109894894D01*
X145820537Y-109707357D01*
X145820537Y-109519820D01*
X146000573Y-109519820D01*
X146180608Y-109519820D01*
X146180608Y-109339784D01*
X146180608Y-109159749D01*
X146548181Y-109159749D01*
X146915753Y-109159749D01*
X146915753Y-109339784D01*
X146915753Y-109519820D01*
X146548181Y-109519820D01*
X146180608Y-109519820D01*
X146180608Y-109707357D01*
X146180608Y-109894894D01*
X146548181Y-109894894D01*
X146915753Y-109894894D01*
X146915753Y-110074929D01*
X146915753Y-110254964D01*
X146728216Y-110254964D01*
X146540679Y-110254964D01*
X146540679Y-110435000D01*
X146540679Y-110615035D01*
X146360644Y-110615035D01*
X146180608Y-110615035D01*
X146180608Y-110795071D01*
X146180608Y-110975106D01*
X146000573Y-110975106D01*
X145820537Y-110975106D01*
X145820537Y-110615035D01*
X145820537Y-110254964D01*
X145640502Y-110254964D01*
X145460466Y-110254964D01*
X145460466Y-110435000D01*
X145460466Y-110615035D01*
X145272930Y-110615035D01*
X145085393Y-110615035D01*
X145085393Y-110435000D01*
X145085393Y-110254964D01*
X144905357Y-110254964D01*
X144725322Y-110254964D01*
X144725322Y-110435000D01*
X144725322Y-110615035D01*
X144545286Y-110615035D01*
X144365251Y-110615035D01*
X144365251Y-110254964D01*
X144365251Y-109894894D01*
X144185215Y-109894894D01*
X144005180Y-109894894D01*
X144005180Y-110254964D01*
X144005180Y-110615035D01*
X144185215Y-110615035D01*
X144365251Y-110615035D01*
X144365251Y-110982608D01*
X144365251Y-111350180D01*
X144545286Y-111350180D01*
X144725322Y-111350180D01*
X144725322Y-111162643D01*
X144725322Y-110975106D01*
X144905357Y-110975106D01*
X145085393Y-110975106D01*
X145085393Y-111342679D01*
X145085393Y-111710251D01*
X145272930Y-111710251D01*
X145460466Y-111710251D01*
X145460466Y-111890286D01*
X145460466Y-112070322D01*
X145272930Y-112070322D01*
X145085393Y-112070322D01*
X145085393Y-112617930D01*
X145085393Y-113165537D01*
X145272930Y-113165537D01*
X145460466Y-113165537D01*
X145460466Y-112617930D01*
X145460466Y-112070322D01*
X145640502Y-112070322D01*
X145820537Y-112070322D01*
X145820537Y-112250357D01*
X145820537Y-112430393D01*
X146000573Y-112430393D01*
X146180608Y-112430393D01*
X146180608Y-112617930D01*
X146180608Y-112805466D01*
X146000573Y-112805466D01*
X145820537Y-112805466D01*
X145820537Y-112985502D01*
X145820537Y-113165537D01*
X146000573Y-113165537D01*
X146180608Y-113165537D01*
X147275824Y-113165537D01*
X147455859Y-113165537D01*
X147635895Y-113165537D01*
X147635895Y-112985502D01*
X147635895Y-112805466D01*
X147455859Y-112805466D01*
X147275824Y-112805466D01*
X147275824Y-112985502D01*
X147275824Y-113165537D01*
X146180608Y-113165537D01*
X146180608Y-112985502D01*
X146180608Y-112805466D01*
X146728216Y-112805466D01*
X147275824Y-112805466D01*
X147275824Y-112617930D01*
X147275824Y-112430393D01*
X147455859Y-112430393D01*
X147635895Y-112430393D01*
X147635895Y-112617930D01*
X147635895Y-112805466D01*
X147815930Y-112805466D01*
X147995966Y-112805466D01*
X147995966Y-112617930D01*
X147995966Y-112430393D01*
X148183502Y-112430393D01*
X148371039Y-112430393D01*
X148371039Y-111890286D01*
X148371039Y-111350180D01*
X148551075Y-111350180D01*
X148731110Y-111350180D01*
X148731110Y-111890286D01*
X148731110Y-112430393D01*
X148911146Y-112430393D01*
X149091181Y-112430393D01*
X149091181Y-113158036D01*
X149091181Y-113885679D01*
X148911146Y-113885679D01*
X148731110Y-113885679D01*
X148731110Y-114073216D01*
X148731110Y-114260753D01*
X148551075Y-114260753D01*
X148371039Y-114260753D01*
X148371039Y-114440788D01*
X148371039Y-114620824D01*
X148183502Y-114620824D01*
X147995966Y-114620824D01*
X147995966Y-114253251D01*
X147995966Y-113885679D01*
X148363538Y-113885679D01*
X148731110Y-113885679D01*
X148731110Y-113525608D01*
X148731110Y-113165537D01*
X148551075Y-113165537D01*
X148371039Y-113165537D01*
X148371039Y-112985502D01*
X148371039Y-112805466D01*
X148183502Y-112805466D01*
X147995966Y-112805466D01*
X147995966Y-113345573D01*
X147995966Y-113885679D01*
X147815930Y-113885679D01*
X147635895Y-113885679D01*
X147635895Y-114253251D01*
X147635895Y-114620824D01*
X147815930Y-114620824D01*
X147995966Y-114620824D01*
X147995966Y-114800859D01*
X147995966Y-114980895D01*
X148183502Y-114980895D01*
X148371039Y-114980895D01*
X148371039Y-114800859D01*
X148371039Y-114620824D01*
X148551075Y-114620824D01*
X148731110Y-114620824D01*
X148731110Y-114440788D01*
X148731110Y-114260753D01*
X148911146Y-114260753D01*
X149091181Y-114260753D01*
X149091181Y-114440788D01*
X149091181Y-114620824D01*
X148911146Y-114620824D01*
X148731110Y-114620824D01*
X148731110Y-115168432D01*
X148731110Y-115716039D01*
X148551075Y-115716039D01*
X148371039Y-115716039D01*
X148371039Y-115528502D01*
X148371039Y-115340966D01*
X148183502Y-115340966D01*
X147995966Y-115340966D01*
X147995966Y-115160930D01*
X147995966Y-114980895D01*
X147815930Y-114980895D01*
X147635895Y-114980895D01*
X147635895Y-115160930D01*
X147635895Y-115340966D01*
X147455859Y-115340966D01*
X147275824Y-115340966D01*
X147275824Y-115528502D01*
X147275824Y-115716039D01*
X146728216Y-115716039D01*
X146180608Y-115716039D01*
X146180608Y-115896075D01*
X146180608Y-116076110D01*
X146000573Y-116076110D01*
X145820537Y-116076110D01*
X145820537Y-115896075D01*
X145820537Y-115716039D01*
X146000573Y-115716039D01*
X146180608Y-115716039D01*
X146180608Y-115528502D01*
X146180608Y-115340966D01*
X146548181Y-115340966D01*
X146915753Y-115340966D01*
X146915753Y-115160930D01*
X146915753Y-114980895D01*
X146368145Y-114980895D01*
X145820537Y-114980895D01*
X145820537Y-115348467D01*
X145820537Y-115716039D01*
X145640502Y-115716039D01*
X145460466Y-115716039D01*
X145460466Y-115896075D01*
X145460466Y-116076110D01*
X145272930Y-116076110D01*
X145085393Y-116076110D01*
X145085393Y-116256146D01*
X145085393Y-116436181D01*
X144545286Y-116436181D01*
X144005180Y-116436181D01*
X144005180Y-116256146D01*
X144005180Y-116076110D01*
X143817643Y-116076110D01*
X143630106Y-116076110D01*
X143630106Y-116256146D01*
X143630106Y-116436181D01*
X143270035Y-116436181D01*
X142909964Y-116436181D01*
X142909964Y-116256146D01*
X142909964Y-116076110D01*
X143090000Y-116076110D01*
X143270035Y-116076110D01*
X143270035Y-115528502D01*
X143270035Y-115340966D01*
X143630106Y-115340966D01*
X143817643Y-115340966D01*
X144005180Y-115340966D01*
X144005180Y-115160930D01*
X144005180Y-114980895D01*
X143817643Y-114980895D01*
X143630106Y-114980895D01*
X143630106Y-115160930D01*
X143630106Y-115340966D01*
X143270035Y-115340966D01*
X143270035Y-115160930D01*
X143270035Y-114980895D01*
X143450071Y-114980895D01*
X143630106Y-114980895D01*
X143630106Y-114800859D01*
X143630106Y-114620824D01*
X143450071Y-114620824D01*
X143270035Y-114620824D01*
X143270035Y-114800859D01*
X143270035Y-114980895D01*
X143090000Y-114980895D01*
X142909964Y-114980895D01*
X142909964Y-115348467D01*
X142909964Y-115716039D01*
X142729929Y-115716039D01*
X142549894Y-115716039D01*
X142549894Y-115896075D01*
X142549894Y-116076110D01*
X142362357Y-116076110D01*
X142174820Y-116076110D01*
X142174820Y-116256146D01*
X142174820Y-116436181D01*
X141994784Y-116436181D01*
X141814749Y-116436181D01*
X141814749Y-116256146D01*
X141814749Y-116076110D01*
X141634713Y-116076110D01*
X141454678Y-116076110D01*
X141454678Y-116256146D01*
X141454678Y-116436181D01*
X141274642Y-116436181D01*
X141094607Y-116436181D01*
X141094607Y-116256146D01*
X141094607Y-116076110D01*
X140907070Y-116076110D01*
X140719533Y-116076110D01*
X140719533Y-116256146D01*
X140719533Y-116436181D01*
X140539498Y-116436181D01*
X140359462Y-116436181D01*
X140359462Y-116256146D01*
X140359462Y-116076110D01*
X140539498Y-116076110D01*
X140719533Y-116076110D01*
X140719533Y-115896075D01*
X140719533Y-115716039D01*
X140359462Y-115716039D01*
X139999391Y-115716039D01*
X139999391Y-115528502D01*
X141454678Y-115528502D01*
X141454678Y-115716039D01*
X141634713Y-115716039D01*
X141814749Y-115716039D01*
X141814749Y-115528502D01*
X141814749Y-115340966D01*
X141994784Y-115340966D01*
X142174820Y-115340966D01*
X142174820Y-114980895D01*
X142174820Y-114800859D01*
X142174820Y-114620824D01*
X141994784Y-114620824D01*
X141814749Y-114620824D01*
X141814749Y-114980895D01*
X141814749Y-115340966D01*
X141634713Y-115340966D01*
X141454678Y-115340966D01*
X141454678Y-115528502D01*
X139999391Y-115528502D01*
X139999391Y-115340966D01*
X140719533Y-115340966D01*
X140907070Y-115340966D01*
X141094607Y-115340966D01*
X141094607Y-115160930D01*
X141094607Y-114980895D01*
X140907070Y-114980895D01*
X140719533Y-114980895D01*
X140719533Y-115160930D01*
X140719533Y-115340966D01*
X139999391Y-115340966D01*
X139999391Y-115160930D01*
X139999391Y-114800859D01*
X140359462Y-114800859D01*
X140359462Y-114980895D01*
X140539498Y-114980895D01*
X140719533Y-114980895D01*
X140719533Y-114800859D01*
X140719533Y-114620824D01*
X141087106Y-114620824D01*
X141454678Y-114620824D01*
X141454678Y-114440788D01*
X142549894Y-114440788D01*
X142549894Y-114620824D01*
X142729929Y-114620824D01*
X142909964Y-114620824D01*
X142909964Y-114440788D01*
X142909964Y-114260753D01*
X143090000Y-114260753D01*
X143270035Y-114260753D01*
X143270035Y-114073216D01*
X143270035Y-113885679D01*
X143450071Y-113885679D01*
X143630106Y-113885679D01*
X143630106Y-114073216D01*
X143630106Y-114260753D01*
X144177714Y-114260753D01*
X144725322Y-114260753D01*
X144725322Y-114620824D01*
X144725322Y-114980895D01*
X144905357Y-114980895D01*
X145085393Y-114980895D01*
X145085393Y-115160930D01*
X145085393Y-115340966D01*
X144725322Y-115340966D01*
X144365251Y-115340966D01*
X144365251Y-115528502D01*
X144365251Y-115716039D01*
X144545286Y-115716039D01*
X144725322Y-115716039D01*
X144725322Y-115896075D01*
X144725322Y-116076110D01*
X144905357Y-116076110D01*
X145085393Y-116076110D01*
X145085393Y-115708538D01*
X145085393Y-115348467D01*
X145085393Y-115340966D01*
X145272930Y-115340966D01*
X145460466Y-115340966D01*
X145460466Y-114620824D01*
X146180608Y-114620824D01*
X146728216Y-114620824D01*
X147275824Y-114620824D01*
X147275824Y-114073216D01*
X147275824Y-113525608D01*
X146728216Y-113525608D01*
X146180608Y-113525608D01*
X146180608Y-114073216D01*
X146180608Y-114620824D01*
X145460466Y-114620824D01*
X145460466Y-114613322D01*
X145460466Y-114073216D01*
X145460466Y-113885679D01*
X145272930Y-113885679D01*
X145085393Y-113885679D01*
X145085393Y-113705644D01*
X145085393Y-113525608D01*
X144905357Y-113525608D01*
X144725322Y-113525608D01*
X144725322Y-113705644D01*
X144725322Y-113885679D01*
X144545286Y-113885679D01*
X144365251Y-113885679D01*
X144365251Y-113525608D01*
X144365251Y-113165537D01*
X144545286Y-113165537D01*
X144725322Y-113165537D01*
X144725322Y-112985502D01*
X144725322Y-112805466D01*
X144177714Y-112805466D01*
X143630106Y-112805466D01*
X143630106Y-112985502D01*
X143630106Y-113165537D01*
X143450071Y-113165537D01*
X143270035Y-113165537D01*
X143270035Y-113525608D01*
X143270035Y-113885679D01*
X143090000Y-113885679D01*
X142909964Y-113885679D01*
X142909964Y-114073216D01*
X142909964Y-114260753D01*
X142729929Y-114260753D01*
X142549894Y-114260753D01*
X142549894Y-114440788D01*
X141454678Y-114440788D01*
X141454678Y-114260753D01*
X141634713Y-114260753D01*
X141814749Y-114260753D01*
X141814749Y-114073216D01*
X141814749Y-113885679D01*
X141454678Y-113885679D01*
X141094607Y-113885679D01*
X141094607Y-114073216D01*
X141094607Y-114260753D01*
X140907070Y-114260753D01*
X140719533Y-114260753D01*
X140719533Y-114440788D01*
X140719533Y-114620824D01*
X140539498Y-114620824D01*
X140359462Y-114620824D01*
X140359462Y-114800859D01*
X139999391Y-114800859D01*
X139999391Y-114620824D01*
X139999391Y-113885679D01*
X140359462Y-113885679D01*
X140719533Y-113885679D01*
X140719533Y-113525608D01*
X140719533Y-113165537D01*
X140359462Y-113165537D01*
X139999391Y-113165537D01*
X139999391Y-113345573D01*
X139999391Y-113525608D01*
X139631819Y-113525608D01*
X139264247Y-113525608D01*
X139264247Y-113345573D01*
X139264247Y-113165537D01*
X139631819Y-113165537D01*
X139999391Y-113165537D01*
X139999391Y-112985502D01*
X139999391Y-112805466D01*
X140359462Y-112805466D01*
X140719533Y-112805466D01*
X140719533Y-112617930D01*
X140719533Y-112430393D01*
X140539498Y-112430393D01*
X140359462Y-112430393D01*
X140359462Y-111702749D01*
X140359462Y-110975106D01*
X140727035Y-110975106D01*
X141094607Y-110975106D01*
X141094607Y-111162643D01*
X141094607Y-111350180D01*
X140907070Y-111350180D01*
X140719533Y-111350180D01*
X140719533Y-111710251D01*
X140719533Y-112070322D01*
X140907070Y-112070322D01*
X141094607Y-112070322D01*
X141094607Y-111890286D01*
X141094607Y-111710251D01*
X141274642Y-111710251D01*
X141454678Y-111710251D01*
X141454678Y-112070322D01*
X141454678Y-112430393D01*
X141274642Y-112430393D01*
X141094607Y-112430393D01*
X141094607Y-112617930D01*
X141094607Y-112805466D01*
X140907070Y-112805466D01*
X140719533Y-112805466D01*
X140719533Y-112985502D01*
X140719533Y-113165537D01*
X141087106Y-113165537D01*
X141454678Y-113165537D01*
X141454678Y-112797965D01*
X141454678Y-112430393D01*
X141634713Y-112430393D01*
X141814749Y-112430393D01*
X141814749Y-112617930D01*
X141814749Y-112805466D01*
X141994784Y-112805466D01*
X142174820Y-112805466D01*
X142174820Y-112985502D01*
X142174820Y-113165537D01*
X141994784Y-113165537D01*
X141814749Y-113165537D01*
X141814749Y-113345573D01*
X141814749Y-113525608D01*
X142362357Y-113525608D01*
X142909964Y-113525608D01*
X142909964Y-112978000D01*
X142909964Y-112805466D01*
X143270035Y-112805466D01*
X143450071Y-112805466D01*
X143630106Y-112805466D01*
X143630106Y-112617930D01*
X143630106Y-112430393D01*
X144365251Y-112430393D01*
X144545286Y-112430393D01*
X144725322Y-112430393D01*
X144725322Y-112070322D01*
X144725322Y-111710251D01*
X144545286Y-111710251D01*
X144365251Y-111710251D01*
X144365251Y-112070322D01*
X144365251Y-112430393D01*
X143630106Y-112430393D01*
X143450071Y-112430393D01*
X143270035Y-112430393D01*
X143270035Y-112617930D01*
X143270035Y-112805466D01*
X142909964Y-112805466D01*
X142909964Y-112617930D01*
X142909964Y-112430393D01*
X143090000Y-112430393D01*
X143270035Y-112430393D01*
X143270035Y-112250357D01*
X143270035Y-112070322D01*
X143090000Y-112070322D01*
X142909964Y-112070322D01*
X142909964Y-111890286D01*
X142909964Y-111710251D01*
X143457572Y-111710251D01*
X144005180Y-111710251D01*
X144005180Y-111342679D01*
X144005180Y-110975106D01*
X143817643Y-110975106D01*
X143630106Y-110975106D01*
X143630106Y-111162643D01*
X143630106Y-111350180D01*
X143450071Y-111350180D01*
X143270035Y-111350180D01*
X143270035Y-111162643D01*
X143270035Y-110975106D01*
X143090000Y-110975106D01*
X142909964Y-110975106D01*
X142909964Y-110795071D01*
X142909964Y-110615035D01*
X143090000Y-110615035D01*
X143270035Y-110615035D01*
X143270035Y-110435000D01*
X143270035Y-110254964D01*
X143450071Y-110254964D01*
X143630106Y-110254964D01*
X143630106Y-110074929D01*
X143630106Y-109894894D01*
X143270035Y-109894894D01*
X142909964Y-109894894D01*
X142909964Y-109707357D01*
X142909964Y-109519820D01*
X143090000Y-109519820D01*
X143270035Y-109519820D01*
X143270035Y-109339784D01*
X143270035Y-109159749D01*
X143450071Y-109159749D01*
X143630106Y-109159749D01*
X143630106Y-108799678D01*
X143630106Y-108439607D01*
X143817643Y-108439607D01*
X144005180Y-108439607D01*
X144005180Y-108799678D01*
X144005180Y-109159749D01*
X144185215Y-109159749D01*
X144365251Y-109159749D01*
X144365251Y-108799678D01*
X144365251Y-108439607D01*
X144545286Y-108439607D01*
X144725322Y-108439607D01*
X144725322Y-108072035D01*
X144725322Y-107704462D01*
X144545286Y-107704462D01*
X144365251Y-107704462D01*
X144365251Y-108072035D01*
X144365251Y-108439607D01*
X144185215Y-108439607D01*
X144005180Y-108439607D01*
X144005180Y-107891999D01*
X144005180Y-107344391D01*
X144185215Y-107344391D01*
X144365251Y-107344391D01*
X144365251Y-106984321D01*
X144725322Y-106984321D01*
X144905357Y-106984321D01*
X145085393Y-106984321D01*
X145085393Y-106616748D01*
X145085393Y-106249176D01*
X144905357Y-106249176D01*
X144725322Y-106249176D01*
X144725322Y-106616748D01*
X144725322Y-106984321D01*
X144365251Y-106984321D01*
X144365251Y-106976819D01*
X144365251Y-106616748D01*
X144365251Y-106609247D01*
X144185215Y-106609247D01*
X144005180Y-106609247D01*
X144005180Y-106249176D01*
X144005180Y-105889105D01*
X144185215Y-105889105D01*
X144365251Y-105889105D01*
X144365251Y-106069140D01*
X144365251Y-106249176D01*
X144545286Y-106249176D01*
X144725322Y-106249176D01*
X144725322Y-106069140D01*
X144725322Y-105889105D01*
X144905357Y-105889105D01*
X145085393Y-105889105D01*
X145085393Y-105709070D01*
X145085393Y-105529034D01*
X144905357Y-105529034D01*
X144725322Y-105529034D01*
X144725322Y-104981426D01*
X144725322Y-104433819D01*
X145452965Y-104433819D01*
X146180608Y-104433819D01*
X146180608Y-104613854D01*
G37*
D16*
%TO.C,Q2*%
X152490000Y-113970000D02*
X156090000Y-113970000D01*
X152451522Y-113958478D02*
G75*
G02*
X154290000Y-109519999I1838478J1838478D01*
G01*
X154290000Y-109520000D02*
G75*
G02*
X156128478Y-113958478I0J-2600000D01*
G01*
%TO.C,R4*%
X148010000Y-89950000D02*
X148780000Y-89950000D01*
X148780000Y-88580000D02*
X148780000Y-91320000D01*
X148780000Y-91320000D02*
X155320000Y-91320000D01*
X155320000Y-88580000D02*
X148780000Y-88580000D01*
X155320000Y-91320000D02*
X155320000Y-88580000D01*
X156090000Y-89950000D02*
X155320000Y-89950000D01*
%TO.C,D3*%
X167440000Y-101562500D02*
X167440000Y-105422500D01*
D17*
X168040000Y-104022500D02*
X168440000Y-103422500D01*
X168440000Y-103022500D02*
X168440000Y-103422500D01*
X168440000Y-103422500D02*
X167890000Y-103422500D01*
X168440000Y-103422500D02*
X168840000Y-104022500D01*
X168440000Y-103422500D02*
X168990000Y-103422500D01*
X168440000Y-104022500D02*
X168440000Y-104522500D01*
X168840000Y-104022500D02*
X168040000Y-104022500D01*
D16*
X169440000Y-101562500D02*
X167440000Y-101562500D01*
X169440000Y-101562500D02*
X169440000Y-105422500D01*
%TD*%
M02*
