%TF.GenerationSoftware,KiCad,Pcbnew,9.0.1+1*%
%TF.CreationDate,2026-01-15T22:30:42+00:00*%
%TF.ProjectId,WALKIN_PIR_IF,57414c4b-494e-45f5-9049-525f49462e6b,B*%
%TF.SameCoordinates,Original*%
%TF.FileFunction,AssemblyDrawing,Top*%
%FSLAX46Y46*%
G04 Gerber Fmt 4.6, Leading zero omitted, Abs format (unit mm)*
G04 Created by KiCad (PCBNEW 9.0.1+1) date 2026-01-15 22:30:42*
%MOMM*%
%LPD*%
G01*
G04 APERTURE LIST*
%ADD10C,0.100000*%
%ADD11C,0.150000*%
%ADD12C,0.112500*%
%ADD13C,0.125000*%
G04 APERTURE END LIST*
D10*
X169871427Y-111834895D02*
X170404761Y-112634895D01*
X170404761Y-111834895D02*
X169871427Y-112634895D01*
X170633332Y-111834895D02*
X170823808Y-112634895D01*
X170823808Y-112634895D02*
X170976189Y-112063466D01*
X170976189Y-112063466D02*
X171128570Y-112634895D01*
X171128570Y-112634895D02*
X171319047Y-111834895D01*
X171585713Y-112406323D02*
X171966666Y-112406323D01*
X171509523Y-112634895D02*
X171776190Y-111834895D01*
X171776190Y-111834895D02*
X172042856Y-112634895D01*
X172728570Y-112634895D02*
X172271427Y-112634895D01*
X172499999Y-112634895D02*
X172499999Y-111834895D01*
X172499999Y-111834895D02*
X172423808Y-111949180D01*
X172423808Y-111949180D02*
X172347618Y-112025371D01*
X172347618Y-112025371D02*
X172271427Y-112063466D01*
X173490475Y-112634895D02*
X173033332Y-112634895D01*
X173261904Y-112634895D02*
X173261904Y-111834895D01*
X173261904Y-111834895D02*
X173185713Y-111949180D01*
X173185713Y-111949180D02*
X173109523Y-112025371D01*
X173109523Y-112025371D02*
X173033332Y-112063466D01*
X173719047Y-111834895D02*
X173985714Y-112634895D01*
X173985714Y-112634895D02*
X174252380Y-111834895D01*
X175014285Y-111834895D02*
X175471428Y-111834895D01*
X175242856Y-112634895D02*
X175242856Y-111834895D01*
X176042857Y-112596800D02*
X175966666Y-112634895D01*
X175966666Y-112634895D02*
X175814285Y-112634895D01*
X175814285Y-112634895D02*
X175738095Y-112596800D01*
X175738095Y-112596800D02*
X175699999Y-112520609D01*
X175699999Y-112520609D02*
X175699999Y-112215847D01*
X175699999Y-112215847D02*
X175738095Y-112139657D01*
X175738095Y-112139657D02*
X175814285Y-112101561D01*
X175814285Y-112101561D02*
X175966666Y-112101561D01*
X175966666Y-112101561D02*
X176042857Y-112139657D01*
X176042857Y-112139657D02*
X176080952Y-112215847D01*
X176080952Y-112215847D02*
X176080952Y-112292038D01*
X176080952Y-112292038D02*
X175699999Y-112368228D01*
X176423809Y-112634895D02*
X176423809Y-112101561D01*
X176423809Y-112253942D02*
X176461904Y-112177752D01*
X176461904Y-112177752D02*
X176499999Y-112139657D01*
X176499999Y-112139657D02*
X176576190Y-112101561D01*
X176576190Y-112101561D02*
X176652380Y-112101561D01*
X176919047Y-112634895D02*
X176919047Y-112101561D01*
X176919047Y-112177752D02*
X176957142Y-112139657D01*
X176957142Y-112139657D02*
X177033332Y-112101561D01*
X177033332Y-112101561D02*
X177147618Y-112101561D01*
X177147618Y-112101561D02*
X177223809Y-112139657D01*
X177223809Y-112139657D02*
X177261904Y-112215847D01*
X177261904Y-112215847D02*
X177261904Y-112634895D01*
X177261904Y-112215847D02*
X177299999Y-112139657D01*
X177299999Y-112139657D02*
X177376190Y-112101561D01*
X177376190Y-112101561D02*
X177490475Y-112101561D01*
X177490475Y-112101561D02*
X177566666Y-112139657D01*
X177566666Y-112139657D02*
X177604761Y-112215847D01*
X177604761Y-112215847D02*
X177604761Y-112634895D01*
X177985714Y-112634895D02*
X177985714Y-112101561D01*
X177985714Y-111834895D02*
X177947618Y-111872990D01*
X177947618Y-111872990D02*
X177985714Y-111911085D01*
X177985714Y-111911085D02*
X178023809Y-111872990D01*
X178023809Y-111872990D02*
X177985714Y-111834895D01*
X177985714Y-111834895D02*
X177985714Y-111911085D01*
X178366666Y-112101561D02*
X178366666Y-112634895D01*
X178366666Y-112177752D02*
X178404761Y-112139657D01*
X178404761Y-112139657D02*
X178480951Y-112101561D01*
X178480951Y-112101561D02*
X178595237Y-112101561D01*
X178595237Y-112101561D02*
X178671428Y-112139657D01*
X178671428Y-112139657D02*
X178709523Y-112215847D01*
X178709523Y-112215847D02*
X178709523Y-112634895D01*
X179433333Y-112634895D02*
X179433333Y-112215847D01*
X179433333Y-112215847D02*
X179395238Y-112139657D01*
X179395238Y-112139657D02*
X179319047Y-112101561D01*
X179319047Y-112101561D02*
X179166666Y-112101561D01*
X179166666Y-112101561D02*
X179090476Y-112139657D01*
X179433333Y-112596800D02*
X179357142Y-112634895D01*
X179357142Y-112634895D02*
X179166666Y-112634895D01*
X179166666Y-112634895D02*
X179090476Y-112596800D01*
X179090476Y-112596800D02*
X179052380Y-112520609D01*
X179052380Y-112520609D02*
X179052380Y-112444419D01*
X179052380Y-112444419D02*
X179090476Y-112368228D01*
X179090476Y-112368228D02*
X179166666Y-112330133D01*
X179166666Y-112330133D02*
X179357142Y-112330133D01*
X179357142Y-112330133D02*
X179433333Y-112292038D01*
X179928571Y-112634895D02*
X179852381Y-112596800D01*
X179852381Y-112596800D02*
X179814286Y-112520609D01*
X179814286Y-112520609D02*
X179814286Y-111834895D01*
D11*
X173306666Y-110484819D02*
X173306666Y-111199104D01*
X173306666Y-111199104D02*
X173259047Y-111341961D01*
X173259047Y-111341961D02*
X173163809Y-111437200D01*
X173163809Y-111437200D02*
X173020952Y-111484819D01*
X173020952Y-111484819D02*
X172925714Y-111484819D01*
X173687619Y-110484819D02*
X174306666Y-110484819D01*
X174306666Y-110484819D02*
X173973333Y-110865771D01*
X173973333Y-110865771D02*
X174116190Y-110865771D01*
X174116190Y-110865771D02*
X174211428Y-110913390D01*
X174211428Y-110913390D02*
X174259047Y-110961009D01*
X174259047Y-110961009D02*
X174306666Y-111056247D01*
X174306666Y-111056247D02*
X174306666Y-111294342D01*
X174306666Y-111294342D02*
X174259047Y-111389580D01*
X174259047Y-111389580D02*
X174211428Y-111437200D01*
X174211428Y-111437200D02*
X174116190Y-111484819D01*
X174116190Y-111484819D02*
X173830476Y-111484819D01*
X173830476Y-111484819D02*
X173735238Y-111437200D01*
X173735238Y-111437200D02*
X173687619Y-111389580D01*
D12*
X146094792Y-98566815D02*
X146137650Y-98523958D01*
X146137650Y-98523958D02*
X146180507Y-98566815D01*
X146180507Y-98566815D02*
X146137650Y-98609672D01*
X146137650Y-98609672D02*
X146094792Y-98566815D01*
X146094792Y-98566815D02*
X146180507Y-98566815D01*
X146180507Y-97666815D02*
X146180507Y-98181101D01*
X146180507Y-97923958D02*
X145280507Y-97923958D01*
X145280507Y-97923958D02*
X145409078Y-98009672D01*
X145409078Y-98009672D02*
X145494792Y-98095387D01*
X145494792Y-98095387D02*
X145537650Y-98181101D01*
X145580507Y-97281101D02*
X146480507Y-97281101D01*
X146051935Y-96852529D02*
X146137650Y-96809672D01*
X146137650Y-96809672D02*
X146180507Y-96723958D01*
X146051935Y-97281101D02*
X146137650Y-97238244D01*
X146137650Y-97238244D02*
X146180507Y-97152529D01*
X146180507Y-97152529D02*
X146180507Y-96981101D01*
X146180507Y-96981101D02*
X146137650Y-96895387D01*
X146137650Y-96895387D02*
X146051935Y-96852529D01*
X146051935Y-96852529D02*
X145580507Y-96852529D01*
X145709078Y-96038244D02*
X145709078Y-96338244D01*
X146180507Y-96338244D02*
X145280507Y-96338244D01*
X145280507Y-96338244D02*
X145280507Y-95909672D01*
D13*
X145643333Y-93010880D02*
X145595714Y-93058500D01*
X145595714Y-93058500D02*
X145452857Y-93106119D01*
X145452857Y-93106119D02*
X145357619Y-93106119D01*
X145357619Y-93106119D02*
X145214762Y-93058500D01*
X145214762Y-93058500D02*
X145119524Y-92963261D01*
X145119524Y-92963261D02*
X145071905Y-92868023D01*
X145071905Y-92868023D02*
X145024286Y-92677547D01*
X145024286Y-92677547D02*
X145024286Y-92534690D01*
X145024286Y-92534690D02*
X145071905Y-92344214D01*
X145071905Y-92344214D02*
X145119524Y-92248976D01*
X145119524Y-92248976D02*
X145214762Y-92153738D01*
X145214762Y-92153738D02*
X145357619Y-92106119D01*
X145357619Y-92106119D02*
X145452857Y-92106119D01*
X145452857Y-92106119D02*
X145595714Y-92153738D01*
X145595714Y-92153738D02*
X145643333Y-92201357D01*
X146595714Y-93106119D02*
X146024286Y-93106119D01*
X146310000Y-93106119D02*
X146310000Y-92106119D01*
X146310000Y-92106119D02*
X146214762Y-92248976D01*
X146214762Y-92248976D02*
X146119524Y-92344214D01*
X146119524Y-92344214D02*
X146024286Y-92391833D01*
D12*
X150200507Y-98409672D02*
X150200507Y-98923958D01*
X150200507Y-98666815D02*
X149300507Y-98666815D01*
X149300507Y-98666815D02*
X149429078Y-98752529D01*
X149429078Y-98752529D02*
X149514792Y-98838244D01*
X149514792Y-98838244D02*
X149557650Y-98923958D01*
X149300507Y-97852529D02*
X149300507Y-97766815D01*
X149300507Y-97766815D02*
X149343364Y-97681101D01*
X149343364Y-97681101D02*
X149386221Y-97638244D01*
X149386221Y-97638244D02*
X149471935Y-97595386D01*
X149471935Y-97595386D02*
X149643364Y-97552529D01*
X149643364Y-97552529D02*
X149857650Y-97552529D01*
X149857650Y-97552529D02*
X150029078Y-97595386D01*
X150029078Y-97595386D02*
X150114792Y-97638244D01*
X150114792Y-97638244D02*
X150157650Y-97681101D01*
X150157650Y-97681101D02*
X150200507Y-97766815D01*
X150200507Y-97766815D02*
X150200507Y-97852529D01*
X150200507Y-97852529D02*
X150157650Y-97938244D01*
X150157650Y-97938244D02*
X150114792Y-97981101D01*
X150114792Y-97981101D02*
X150029078Y-98023958D01*
X150029078Y-98023958D02*
X149857650Y-98066815D01*
X149857650Y-98066815D02*
X149643364Y-98066815D01*
X149643364Y-98066815D02*
X149471935Y-98023958D01*
X149471935Y-98023958D02*
X149386221Y-97981101D01*
X149386221Y-97981101D02*
X149343364Y-97938244D01*
X149343364Y-97938244D02*
X149300507Y-97852529D01*
X149600507Y-97166815D02*
X150500507Y-97166815D01*
X150071935Y-96738243D02*
X150157650Y-96695386D01*
X150157650Y-96695386D02*
X150200507Y-96609672D01*
X150071935Y-97166815D02*
X150157650Y-97123958D01*
X150157650Y-97123958D02*
X150200507Y-97038243D01*
X150200507Y-97038243D02*
X150200507Y-96866815D01*
X150200507Y-96866815D02*
X150157650Y-96781101D01*
X150157650Y-96781101D02*
X150071935Y-96738243D01*
X150071935Y-96738243D02*
X149600507Y-96738243D01*
X149729078Y-95923958D02*
X149729078Y-96223958D01*
X150200507Y-96223958D02*
X149300507Y-96223958D01*
X149300507Y-96223958D02*
X149300507Y-95795386D01*
D13*
X149543333Y-93010880D02*
X149495714Y-93058500D01*
X149495714Y-93058500D02*
X149352857Y-93106119D01*
X149352857Y-93106119D02*
X149257619Y-93106119D01*
X149257619Y-93106119D02*
X149114762Y-93058500D01*
X149114762Y-93058500D02*
X149019524Y-92963261D01*
X149019524Y-92963261D02*
X148971905Y-92868023D01*
X148971905Y-92868023D02*
X148924286Y-92677547D01*
X148924286Y-92677547D02*
X148924286Y-92534690D01*
X148924286Y-92534690D02*
X148971905Y-92344214D01*
X148971905Y-92344214D02*
X149019524Y-92248976D01*
X149019524Y-92248976D02*
X149114762Y-92153738D01*
X149114762Y-92153738D02*
X149257619Y-92106119D01*
X149257619Y-92106119D02*
X149352857Y-92106119D01*
X149352857Y-92106119D02*
X149495714Y-92153738D01*
X149495714Y-92153738D02*
X149543333Y-92201357D01*
X149924286Y-92201357D02*
X149971905Y-92153738D01*
X149971905Y-92153738D02*
X150067143Y-92106119D01*
X150067143Y-92106119D02*
X150305238Y-92106119D01*
X150305238Y-92106119D02*
X150400476Y-92153738D01*
X150400476Y-92153738D02*
X150448095Y-92201357D01*
X150448095Y-92201357D02*
X150495714Y-92296595D01*
X150495714Y-92296595D02*
X150495714Y-92391833D01*
X150495714Y-92391833D02*
X150448095Y-92534690D01*
X150448095Y-92534690D02*
X149876667Y-93106119D01*
X149876667Y-93106119D02*
X150495714Y-93106119D01*
D11*
X168514819Y-88865238D02*
X168514819Y-89436666D01*
X168514819Y-89150952D02*
X167514819Y-89150952D01*
X167514819Y-89150952D02*
X167657676Y-89246190D01*
X167657676Y-89246190D02*
X167752914Y-89341428D01*
X167752914Y-89341428D02*
X167800533Y-89436666D01*
X167848152Y-88436666D02*
X168514819Y-88436666D01*
X167943390Y-88436666D02*
X167895771Y-88389047D01*
X167895771Y-88389047D02*
X167848152Y-88293809D01*
X167848152Y-88293809D02*
X167848152Y-88150952D01*
X167848152Y-88150952D02*
X167895771Y-88055714D01*
X167895771Y-88055714D02*
X167991009Y-88008095D01*
X167991009Y-88008095D02*
X168514819Y-88008095D01*
X167991009Y-87198571D02*
X167991009Y-87531904D01*
X168514819Y-87531904D02*
X167514819Y-87531904D01*
X167514819Y-87531904D02*
X167514819Y-87055714D01*
D13*
X167843333Y-84340880D02*
X167795714Y-84388500D01*
X167795714Y-84388500D02*
X167652857Y-84436119D01*
X167652857Y-84436119D02*
X167557619Y-84436119D01*
X167557619Y-84436119D02*
X167414762Y-84388500D01*
X167414762Y-84388500D02*
X167319524Y-84293261D01*
X167319524Y-84293261D02*
X167271905Y-84198023D01*
X167271905Y-84198023D02*
X167224286Y-84007547D01*
X167224286Y-84007547D02*
X167224286Y-83864690D01*
X167224286Y-83864690D02*
X167271905Y-83674214D01*
X167271905Y-83674214D02*
X167319524Y-83578976D01*
X167319524Y-83578976D02*
X167414762Y-83483738D01*
X167414762Y-83483738D02*
X167557619Y-83436119D01*
X167557619Y-83436119D02*
X167652857Y-83436119D01*
X167652857Y-83436119D02*
X167795714Y-83483738D01*
X167795714Y-83483738D02*
X167843333Y-83531357D01*
X168176667Y-83436119D02*
X168795714Y-83436119D01*
X168795714Y-83436119D02*
X168462381Y-83817071D01*
X168462381Y-83817071D02*
X168605238Y-83817071D01*
X168605238Y-83817071D02*
X168700476Y-83864690D01*
X168700476Y-83864690D02*
X168748095Y-83912309D01*
X168748095Y-83912309D02*
X168795714Y-84007547D01*
X168795714Y-84007547D02*
X168795714Y-84245642D01*
X168795714Y-84245642D02*
X168748095Y-84340880D01*
X168748095Y-84340880D02*
X168700476Y-84388500D01*
X168700476Y-84388500D02*
X168605238Y-84436119D01*
X168605238Y-84436119D02*
X168319524Y-84436119D01*
X168319524Y-84436119D02*
X168224286Y-84388500D01*
X168224286Y-84388500D02*
X168176667Y-84340880D01*
D10*
X161803809Y-101056323D02*
X162184762Y-101056323D01*
X161727619Y-101284895D02*
X161994286Y-100484895D01*
X161994286Y-100484895D02*
X162260952Y-101284895D01*
X163060952Y-101361085D02*
X162984762Y-101322990D01*
X162984762Y-101322990D02*
X162908571Y-101246800D01*
X162908571Y-101246800D02*
X162794285Y-101132514D01*
X162794285Y-101132514D02*
X162718095Y-101094419D01*
X162718095Y-101094419D02*
X162641904Y-101094419D01*
X162680000Y-101284895D02*
X162603809Y-101246800D01*
X162603809Y-101246800D02*
X162527619Y-101170609D01*
X162527619Y-101170609D02*
X162489523Y-101018228D01*
X162489523Y-101018228D02*
X162489523Y-100751561D01*
X162489523Y-100751561D02*
X162527619Y-100599180D01*
X162527619Y-100599180D02*
X162603809Y-100522990D01*
X162603809Y-100522990D02*
X162680000Y-100484895D01*
X162680000Y-100484895D02*
X162832381Y-100484895D01*
X162832381Y-100484895D02*
X162908571Y-100522990D01*
X162908571Y-100522990D02*
X162984762Y-100599180D01*
X162984762Y-100599180D02*
X163022857Y-100751561D01*
X163022857Y-100751561D02*
X163022857Y-101018228D01*
X163022857Y-101018228D02*
X162984762Y-101170609D01*
X162984762Y-101170609D02*
X162908571Y-101246800D01*
X162908571Y-101246800D02*
X162832381Y-101284895D01*
X162832381Y-101284895D02*
X162680000Y-101284895D01*
X163518095Y-100903942D02*
X163518095Y-101284895D01*
X163251428Y-100484895D02*
X163518095Y-100903942D01*
X163518095Y-100903942D02*
X163784761Y-100484895D01*
X164013332Y-100561085D02*
X164051428Y-100522990D01*
X164051428Y-100522990D02*
X164127618Y-100484895D01*
X164127618Y-100484895D02*
X164318094Y-100484895D01*
X164318094Y-100484895D02*
X164394285Y-100522990D01*
X164394285Y-100522990D02*
X164432380Y-100561085D01*
X164432380Y-100561085D02*
X164470475Y-100637276D01*
X164470475Y-100637276D02*
X164470475Y-100713466D01*
X164470475Y-100713466D02*
X164432380Y-100827752D01*
X164432380Y-100827752D02*
X163975237Y-101284895D01*
X163975237Y-101284895D02*
X164470475Y-101284895D01*
X165232380Y-101284895D02*
X164775237Y-101284895D01*
X165003809Y-101284895D02*
X165003809Y-100484895D01*
X165003809Y-100484895D02*
X164927618Y-100599180D01*
X164927618Y-100599180D02*
X164851428Y-100675371D01*
X164851428Y-100675371D02*
X164775237Y-100713466D01*
X165537142Y-100561085D02*
X165575238Y-100522990D01*
X165575238Y-100522990D02*
X165651428Y-100484895D01*
X165651428Y-100484895D02*
X165841904Y-100484895D01*
X165841904Y-100484895D02*
X165918095Y-100522990D01*
X165918095Y-100522990D02*
X165956190Y-100561085D01*
X165956190Y-100561085D02*
X165994285Y-100637276D01*
X165994285Y-100637276D02*
X165994285Y-100713466D01*
X165994285Y-100713466D02*
X165956190Y-100827752D01*
X165956190Y-100827752D02*
X165499047Y-101284895D01*
X165499047Y-101284895D02*
X165994285Y-101284895D01*
X166337143Y-100865847D02*
X166603809Y-100865847D01*
X166718095Y-101284895D02*
X166337143Y-101284895D01*
X166337143Y-101284895D02*
X166337143Y-100484895D01*
X166337143Y-100484895D02*
X166718095Y-100484895D01*
X167060953Y-101284895D02*
X167060953Y-100484895D01*
X167060953Y-100865847D02*
X167518096Y-100865847D01*
X167518096Y-101284895D02*
X167518096Y-100484895D01*
D11*
X164018095Y-96870920D02*
X164018095Y-97680443D01*
X164018095Y-97680443D02*
X164065714Y-97775681D01*
X164065714Y-97775681D02*
X164113333Y-97823301D01*
X164113333Y-97823301D02*
X164208571Y-97870920D01*
X164208571Y-97870920D02*
X164399047Y-97870920D01*
X164399047Y-97870920D02*
X164494285Y-97823301D01*
X164494285Y-97823301D02*
X164541904Y-97775681D01*
X164541904Y-97775681D02*
X164589523Y-97680443D01*
X164589523Y-97680443D02*
X164589523Y-96870920D01*
X165589523Y-97870920D02*
X165018095Y-97870920D01*
X165303809Y-97870920D02*
X165303809Y-96870920D01*
X165303809Y-96870920D02*
X165208571Y-97013777D01*
X165208571Y-97013777D02*
X165113333Y-97109015D01*
X165113333Y-97109015D02*
X165018095Y-97156634D01*
D10*
X134593809Y-101236323D02*
X134974762Y-101236323D01*
X134517619Y-101464895D02*
X134784286Y-100664895D01*
X134784286Y-100664895D02*
X135050952Y-101464895D01*
X135470000Y-100664895D02*
X135622381Y-100664895D01*
X135622381Y-100664895D02*
X135698571Y-100702990D01*
X135698571Y-100702990D02*
X135774762Y-100779180D01*
X135774762Y-100779180D02*
X135812857Y-100931561D01*
X135812857Y-100931561D02*
X135812857Y-101198228D01*
X135812857Y-101198228D02*
X135774762Y-101350609D01*
X135774762Y-101350609D02*
X135698571Y-101426800D01*
X135698571Y-101426800D02*
X135622381Y-101464895D01*
X135622381Y-101464895D02*
X135470000Y-101464895D01*
X135470000Y-101464895D02*
X135393809Y-101426800D01*
X135393809Y-101426800D02*
X135317619Y-101350609D01*
X135317619Y-101350609D02*
X135279523Y-101198228D01*
X135279523Y-101198228D02*
X135279523Y-100931561D01*
X135279523Y-100931561D02*
X135317619Y-100779180D01*
X135317619Y-100779180D02*
X135393809Y-100702990D01*
X135393809Y-100702990D02*
X135470000Y-100664895D01*
X136079523Y-100664895D02*
X136574761Y-100664895D01*
X136574761Y-100664895D02*
X136308095Y-100969657D01*
X136308095Y-100969657D02*
X136422380Y-100969657D01*
X136422380Y-100969657D02*
X136498571Y-101007752D01*
X136498571Y-101007752D02*
X136536666Y-101045847D01*
X136536666Y-101045847D02*
X136574761Y-101122038D01*
X136574761Y-101122038D02*
X136574761Y-101312514D01*
X136574761Y-101312514D02*
X136536666Y-101388704D01*
X136536666Y-101388704D02*
X136498571Y-101426800D01*
X136498571Y-101426800D02*
X136422380Y-101464895D01*
X136422380Y-101464895D02*
X136193809Y-101464895D01*
X136193809Y-101464895D02*
X136117618Y-101426800D01*
X136117618Y-101426800D02*
X136079523Y-101388704D01*
X137260476Y-100931561D02*
X137260476Y-101464895D01*
X137070000Y-100626800D02*
X136879523Y-101198228D01*
X136879523Y-101198228D02*
X137374762Y-101198228D01*
X137831905Y-100664895D02*
X137908095Y-100664895D01*
X137908095Y-100664895D02*
X137984286Y-100702990D01*
X137984286Y-100702990D02*
X138022381Y-100741085D01*
X138022381Y-100741085D02*
X138060476Y-100817276D01*
X138060476Y-100817276D02*
X138098571Y-100969657D01*
X138098571Y-100969657D02*
X138098571Y-101160133D01*
X138098571Y-101160133D02*
X138060476Y-101312514D01*
X138060476Y-101312514D02*
X138022381Y-101388704D01*
X138022381Y-101388704D02*
X137984286Y-101426800D01*
X137984286Y-101426800D02*
X137908095Y-101464895D01*
X137908095Y-101464895D02*
X137831905Y-101464895D01*
X137831905Y-101464895D02*
X137755714Y-101426800D01*
X137755714Y-101426800D02*
X137717619Y-101388704D01*
X137717619Y-101388704D02*
X137679524Y-101312514D01*
X137679524Y-101312514D02*
X137641428Y-101160133D01*
X137641428Y-101160133D02*
X137641428Y-100969657D01*
X137641428Y-100969657D02*
X137679524Y-100817276D01*
X137679524Y-100817276D02*
X137717619Y-100741085D01*
X137717619Y-100741085D02*
X137755714Y-100702990D01*
X137755714Y-100702990D02*
X137831905Y-100664895D01*
X138860476Y-101464895D02*
X138403333Y-101464895D01*
X138631905Y-101464895D02*
X138631905Y-100664895D01*
X138631905Y-100664895D02*
X138555714Y-100779180D01*
X138555714Y-100779180D02*
X138479524Y-100855371D01*
X138479524Y-100855371D02*
X138403333Y-100893466D01*
X139165238Y-101236323D02*
X139546191Y-101236323D01*
X139089048Y-101464895D02*
X139355715Y-100664895D01*
X139355715Y-100664895D02*
X139622381Y-101464895D01*
D13*
X136634761Y-96471357D02*
X136539523Y-96423738D01*
X136539523Y-96423738D02*
X136444285Y-96328500D01*
X136444285Y-96328500D02*
X136301428Y-96185642D01*
X136301428Y-96185642D02*
X136206190Y-96138023D01*
X136206190Y-96138023D02*
X136110952Y-96138023D01*
X136158571Y-96376119D02*
X136063333Y-96328500D01*
X136063333Y-96328500D02*
X135968095Y-96233261D01*
X135968095Y-96233261D02*
X135920476Y-96042785D01*
X135920476Y-96042785D02*
X135920476Y-95709452D01*
X135920476Y-95709452D02*
X135968095Y-95518976D01*
X135968095Y-95518976D02*
X136063333Y-95423738D01*
X136063333Y-95423738D02*
X136158571Y-95376119D01*
X136158571Y-95376119D02*
X136349047Y-95376119D01*
X136349047Y-95376119D02*
X136444285Y-95423738D01*
X136444285Y-95423738D02*
X136539523Y-95518976D01*
X136539523Y-95518976D02*
X136587142Y-95709452D01*
X136587142Y-95709452D02*
X136587142Y-96042785D01*
X136587142Y-96042785D02*
X136539523Y-96233261D01*
X136539523Y-96233261D02*
X136444285Y-96328500D01*
X136444285Y-96328500D02*
X136349047Y-96376119D01*
X136349047Y-96376119D02*
X136158571Y-96376119D01*
X137539523Y-96376119D02*
X136968095Y-96376119D01*
X137253809Y-96376119D02*
X137253809Y-95376119D01*
X137253809Y-95376119D02*
X137158571Y-95518976D01*
X137158571Y-95518976D02*
X137063333Y-95614214D01*
X137063333Y-95614214D02*
X136968095Y-95661833D01*
D10*
X165786800Y-112153333D02*
X165824895Y-112039047D01*
X165824895Y-112039047D02*
X165824895Y-111848571D01*
X165824895Y-111848571D02*
X165786800Y-111772380D01*
X165786800Y-111772380D02*
X165748704Y-111734285D01*
X165748704Y-111734285D02*
X165672514Y-111696190D01*
X165672514Y-111696190D02*
X165596323Y-111696190D01*
X165596323Y-111696190D02*
X165520133Y-111734285D01*
X165520133Y-111734285D02*
X165482038Y-111772380D01*
X165482038Y-111772380D02*
X165443942Y-111848571D01*
X165443942Y-111848571D02*
X165405847Y-112000952D01*
X165405847Y-112000952D02*
X165367752Y-112077142D01*
X165367752Y-112077142D02*
X165329657Y-112115237D01*
X165329657Y-112115237D02*
X165253466Y-112153333D01*
X165253466Y-112153333D02*
X165177276Y-112153333D01*
X165177276Y-112153333D02*
X165101085Y-112115237D01*
X165101085Y-112115237D02*
X165062990Y-112077142D01*
X165062990Y-112077142D02*
X165024895Y-112000952D01*
X165024895Y-112000952D02*
X165024895Y-111810475D01*
X165024895Y-111810475D02*
X165062990Y-111696190D01*
X165824895Y-111353332D02*
X165024895Y-111353332D01*
X165024895Y-111353332D02*
X165596323Y-111086666D01*
X165596323Y-111086666D02*
X165024895Y-110819999D01*
X165024895Y-110819999D02*
X165824895Y-110819999D01*
X165405847Y-110172380D02*
X165405847Y-110439046D01*
X165824895Y-110439046D02*
X165024895Y-110439046D01*
X165024895Y-110439046D02*
X165024895Y-110058094D01*
X165824895Y-109334285D02*
X165824895Y-109791428D01*
X165824895Y-109562856D02*
X165024895Y-109562856D01*
X165024895Y-109562856D02*
X165139180Y-109639047D01*
X165139180Y-109639047D02*
X165215371Y-109715237D01*
X165215371Y-109715237D02*
X165253466Y-109791428D01*
X165101085Y-109029523D02*
X165062990Y-108991427D01*
X165062990Y-108991427D02*
X165024895Y-108915237D01*
X165024895Y-108915237D02*
X165024895Y-108724761D01*
X165024895Y-108724761D02*
X165062990Y-108648570D01*
X165062990Y-108648570D02*
X165101085Y-108610475D01*
X165101085Y-108610475D02*
X165177276Y-108572380D01*
X165177276Y-108572380D02*
X165253466Y-108572380D01*
X165253466Y-108572380D02*
X165367752Y-108610475D01*
X165367752Y-108610475D02*
X165824895Y-109067618D01*
X165824895Y-109067618D02*
X165824895Y-108572380D01*
X165748704Y-107772379D02*
X165786800Y-107810475D01*
X165786800Y-107810475D02*
X165824895Y-107924760D01*
X165824895Y-107924760D02*
X165824895Y-108000951D01*
X165824895Y-108000951D02*
X165786800Y-108115237D01*
X165786800Y-108115237D02*
X165710609Y-108191427D01*
X165710609Y-108191427D02*
X165634419Y-108229522D01*
X165634419Y-108229522D02*
X165482038Y-108267618D01*
X165482038Y-108267618D02*
X165367752Y-108267618D01*
X165367752Y-108267618D02*
X165215371Y-108229522D01*
X165215371Y-108229522D02*
X165139180Y-108191427D01*
X165139180Y-108191427D02*
X165062990Y-108115237D01*
X165062990Y-108115237D02*
X165024895Y-108000951D01*
X165024895Y-108000951D02*
X165024895Y-107924760D01*
X165024895Y-107924760D02*
X165062990Y-107810475D01*
X165062990Y-107810475D02*
X165101085Y-107772379D01*
X165596323Y-107467618D02*
X165596323Y-107086665D01*
X165824895Y-107543808D02*
X165024895Y-107277141D01*
X165024895Y-107277141D02*
X165824895Y-107010475D01*
D11*
X167074819Y-109725594D02*
X166074819Y-109725594D01*
X166074819Y-109725594D02*
X166074819Y-109487499D01*
X166074819Y-109487499D02*
X166122438Y-109344642D01*
X166122438Y-109344642D02*
X166217676Y-109249404D01*
X166217676Y-109249404D02*
X166312914Y-109201785D01*
X166312914Y-109201785D02*
X166503390Y-109154166D01*
X166503390Y-109154166D02*
X166646247Y-109154166D01*
X166646247Y-109154166D02*
X166836723Y-109201785D01*
X166836723Y-109201785D02*
X166931961Y-109249404D01*
X166931961Y-109249404D02*
X167027200Y-109344642D01*
X167027200Y-109344642D02*
X167074819Y-109487499D01*
X167074819Y-109487499D02*
X167074819Y-109725594D01*
X166170057Y-108773213D02*
X166122438Y-108725594D01*
X166122438Y-108725594D02*
X166074819Y-108630356D01*
X166074819Y-108630356D02*
X166074819Y-108392261D01*
X166074819Y-108392261D02*
X166122438Y-108297023D01*
X166122438Y-108297023D02*
X166170057Y-108249404D01*
X166170057Y-108249404D02*
X166265295Y-108201785D01*
X166265295Y-108201785D02*
X166360533Y-108201785D01*
X166360533Y-108201785D02*
X166503390Y-108249404D01*
X166503390Y-108249404D02*
X167074819Y-108820832D01*
X167074819Y-108820832D02*
X167074819Y-108201785D01*
D10*
X170936666Y-95746800D02*
X171050952Y-95784895D01*
X171050952Y-95784895D02*
X171241428Y-95784895D01*
X171241428Y-95784895D02*
X171317619Y-95746800D01*
X171317619Y-95746800D02*
X171355714Y-95708704D01*
X171355714Y-95708704D02*
X171393809Y-95632514D01*
X171393809Y-95632514D02*
X171393809Y-95556323D01*
X171393809Y-95556323D02*
X171355714Y-95480133D01*
X171355714Y-95480133D02*
X171317619Y-95442038D01*
X171317619Y-95442038D02*
X171241428Y-95403942D01*
X171241428Y-95403942D02*
X171089047Y-95365847D01*
X171089047Y-95365847D02*
X171012857Y-95327752D01*
X171012857Y-95327752D02*
X170974762Y-95289657D01*
X170974762Y-95289657D02*
X170936666Y-95213466D01*
X170936666Y-95213466D02*
X170936666Y-95137276D01*
X170936666Y-95137276D02*
X170974762Y-95061085D01*
X170974762Y-95061085D02*
X171012857Y-95022990D01*
X171012857Y-95022990D02*
X171089047Y-94984895D01*
X171089047Y-94984895D02*
X171279524Y-94984895D01*
X171279524Y-94984895D02*
X171393809Y-95022990D01*
X171736667Y-95784895D02*
X171736667Y-94984895D01*
X171736667Y-94984895D02*
X172003333Y-95556323D01*
X172003333Y-95556323D02*
X172270000Y-94984895D01*
X172270000Y-94984895D02*
X172270000Y-95784895D01*
X172917619Y-95365847D02*
X172650953Y-95365847D01*
X172650953Y-95784895D02*
X172650953Y-94984895D01*
X172650953Y-94984895D02*
X173031905Y-94984895D01*
X173755714Y-95784895D02*
X173298571Y-95784895D01*
X173527143Y-95784895D02*
X173527143Y-94984895D01*
X173527143Y-94984895D02*
X173450952Y-95099180D01*
X173450952Y-95099180D02*
X173374762Y-95175371D01*
X173374762Y-95175371D02*
X173298571Y-95213466D01*
X174060476Y-95061085D02*
X174098572Y-95022990D01*
X174098572Y-95022990D02*
X174174762Y-94984895D01*
X174174762Y-94984895D02*
X174365238Y-94984895D01*
X174365238Y-94984895D02*
X174441429Y-95022990D01*
X174441429Y-95022990D02*
X174479524Y-95061085D01*
X174479524Y-95061085D02*
X174517619Y-95137276D01*
X174517619Y-95137276D02*
X174517619Y-95213466D01*
X174517619Y-95213466D02*
X174479524Y-95327752D01*
X174479524Y-95327752D02*
X174022381Y-95784895D01*
X174022381Y-95784895D02*
X174517619Y-95784895D01*
X175317620Y-95708704D02*
X175279524Y-95746800D01*
X175279524Y-95746800D02*
X175165239Y-95784895D01*
X175165239Y-95784895D02*
X175089048Y-95784895D01*
X175089048Y-95784895D02*
X174974762Y-95746800D01*
X174974762Y-95746800D02*
X174898572Y-95670609D01*
X174898572Y-95670609D02*
X174860477Y-95594419D01*
X174860477Y-95594419D02*
X174822381Y-95442038D01*
X174822381Y-95442038D02*
X174822381Y-95327752D01*
X174822381Y-95327752D02*
X174860477Y-95175371D01*
X174860477Y-95175371D02*
X174898572Y-95099180D01*
X174898572Y-95099180D02*
X174974762Y-95022990D01*
X174974762Y-95022990D02*
X175089048Y-94984895D01*
X175089048Y-94984895D02*
X175165239Y-94984895D01*
X175165239Y-94984895D02*
X175279524Y-95022990D01*
X175279524Y-95022990D02*
X175317620Y-95061085D01*
X175622381Y-95556323D02*
X176003334Y-95556323D01*
X175546191Y-95784895D02*
X175812858Y-94984895D01*
X175812858Y-94984895D02*
X176079524Y-95784895D01*
D11*
X176061905Y-94144819D02*
X176061905Y-93144819D01*
X176061905Y-93144819D02*
X176300000Y-93144819D01*
X176300000Y-93144819D02*
X176442857Y-93192438D01*
X176442857Y-93192438D02*
X176538095Y-93287676D01*
X176538095Y-93287676D02*
X176585714Y-93382914D01*
X176585714Y-93382914D02*
X176633333Y-93573390D01*
X176633333Y-93573390D02*
X176633333Y-93716247D01*
X176633333Y-93716247D02*
X176585714Y-93906723D01*
X176585714Y-93906723D02*
X176538095Y-94001961D01*
X176538095Y-94001961D02*
X176442857Y-94097200D01*
X176442857Y-94097200D02*
X176300000Y-94144819D01*
X176300000Y-94144819D02*
X176061905Y-94144819D01*
X177585714Y-94144819D02*
X177014286Y-94144819D01*
X177300000Y-94144819D02*
X177300000Y-93144819D01*
X177300000Y-93144819D02*
X177204762Y-93287676D01*
X177204762Y-93287676D02*
X177109524Y-93382914D01*
X177109524Y-93382914D02*
X177014286Y-93430533D01*
X157574819Y-103768095D02*
X157574819Y-104339523D01*
X157574819Y-104053809D02*
X156574819Y-104053809D01*
X156574819Y-104053809D02*
X156717676Y-104149047D01*
X156717676Y-104149047D02*
X156812914Y-104244285D01*
X156812914Y-104244285D02*
X156860533Y-104339523D01*
X156574819Y-103149047D02*
X156574819Y-103053809D01*
X156574819Y-103053809D02*
X156622438Y-102958571D01*
X156622438Y-102958571D02*
X156670057Y-102910952D01*
X156670057Y-102910952D02*
X156765295Y-102863333D01*
X156765295Y-102863333D02*
X156955771Y-102815714D01*
X156955771Y-102815714D02*
X157193866Y-102815714D01*
X157193866Y-102815714D02*
X157384342Y-102863333D01*
X157384342Y-102863333D02*
X157479580Y-102910952D01*
X157479580Y-102910952D02*
X157527200Y-102958571D01*
X157527200Y-102958571D02*
X157574819Y-103053809D01*
X157574819Y-103053809D02*
X157574819Y-103149047D01*
X157574819Y-103149047D02*
X157527200Y-103244285D01*
X157527200Y-103244285D02*
X157479580Y-103291904D01*
X157479580Y-103291904D02*
X157384342Y-103339523D01*
X157384342Y-103339523D02*
X157193866Y-103387142D01*
X157193866Y-103387142D02*
X156955771Y-103387142D01*
X156955771Y-103387142D02*
X156765295Y-103339523D01*
X156765295Y-103339523D02*
X156670057Y-103291904D01*
X156670057Y-103291904D02*
X156622438Y-103244285D01*
X156622438Y-103244285D02*
X156574819Y-103149047D01*
X156574819Y-102196666D02*
X156574819Y-102101428D01*
X156574819Y-102101428D02*
X156622438Y-102006190D01*
X156622438Y-102006190D02*
X156670057Y-101958571D01*
X156670057Y-101958571D02*
X156765295Y-101910952D01*
X156765295Y-101910952D02*
X156955771Y-101863333D01*
X156955771Y-101863333D02*
X157193866Y-101863333D01*
X157193866Y-101863333D02*
X157384342Y-101910952D01*
X157384342Y-101910952D02*
X157479580Y-101958571D01*
X157479580Y-101958571D02*
X157527200Y-102006190D01*
X157527200Y-102006190D02*
X157574819Y-102101428D01*
X157574819Y-102101428D02*
X157574819Y-102196666D01*
X157574819Y-102196666D02*
X157527200Y-102291904D01*
X157527200Y-102291904D02*
X157479580Y-102339523D01*
X157479580Y-102339523D02*
X157384342Y-102387142D01*
X157384342Y-102387142D02*
X157193866Y-102434761D01*
X157193866Y-102434761D02*
X156955771Y-102434761D01*
X156955771Y-102434761D02*
X156765295Y-102387142D01*
X156765295Y-102387142D02*
X156670057Y-102339523D01*
X156670057Y-102339523D02*
X156622438Y-102291904D01*
X156622438Y-102291904D02*
X156574819Y-102196666D01*
X157574819Y-101482380D02*
X157574819Y-101244285D01*
X157574819Y-101244285D02*
X157384342Y-101244285D01*
X157384342Y-101244285D02*
X157336723Y-101339523D01*
X157336723Y-101339523D02*
X157241485Y-101434761D01*
X157241485Y-101434761D02*
X157098628Y-101482380D01*
X157098628Y-101482380D02*
X156860533Y-101482380D01*
X156860533Y-101482380D02*
X156717676Y-101434761D01*
X156717676Y-101434761D02*
X156622438Y-101339523D01*
X156622438Y-101339523D02*
X156574819Y-101196666D01*
X156574819Y-101196666D02*
X156574819Y-101006190D01*
X156574819Y-101006190D02*
X156622438Y-100863333D01*
X156622438Y-100863333D02*
X156717676Y-100768095D01*
X156717676Y-100768095D02*
X156860533Y-100720476D01*
X156860533Y-100720476D02*
X157098628Y-100720476D01*
X157098628Y-100720476D02*
X157241485Y-100768095D01*
X157241485Y-100768095D02*
X157336723Y-100863333D01*
X157336723Y-100863333D02*
X157384342Y-100958571D01*
X157384342Y-100958571D02*
X157574819Y-100958571D01*
X157574819Y-100958571D02*
X157574819Y-100720476D01*
X156943333Y-95924819D02*
X156610000Y-95448628D01*
X156371905Y-95924819D02*
X156371905Y-94924819D01*
X156371905Y-94924819D02*
X156752857Y-94924819D01*
X156752857Y-94924819D02*
X156848095Y-94972438D01*
X156848095Y-94972438D02*
X156895714Y-95020057D01*
X156895714Y-95020057D02*
X156943333Y-95115295D01*
X156943333Y-95115295D02*
X156943333Y-95258152D01*
X156943333Y-95258152D02*
X156895714Y-95353390D01*
X156895714Y-95353390D02*
X156848095Y-95401009D01*
X156848095Y-95401009D02*
X156752857Y-95448628D01*
X156752857Y-95448628D02*
X156371905Y-95448628D01*
X157276667Y-94924819D02*
X157895714Y-94924819D01*
X157895714Y-94924819D02*
X157562381Y-95305771D01*
X157562381Y-95305771D02*
X157705238Y-95305771D01*
X157705238Y-95305771D02*
X157800476Y-95353390D01*
X157800476Y-95353390D02*
X157848095Y-95401009D01*
X157848095Y-95401009D02*
X157895714Y-95496247D01*
X157895714Y-95496247D02*
X157895714Y-95734342D01*
X157895714Y-95734342D02*
X157848095Y-95829580D01*
X157848095Y-95829580D02*
X157800476Y-95877200D01*
X157800476Y-95877200D02*
X157705238Y-95924819D01*
X157705238Y-95924819D02*
X157419524Y-95924819D01*
X157419524Y-95924819D02*
X157324286Y-95877200D01*
X157324286Y-95877200D02*
X157276667Y-95829580D01*
D10*
X125825713Y-91785847D02*
X125939999Y-91823942D01*
X125939999Y-91823942D02*
X125978094Y-91862038D01*
X125978094Y-91862038D02*
X126016190Y-91938228D01*
X126016190Y-91938228D02*
X126016190Y-92052514D01*
X126016190Y-92052514D02*
X125978094Y-92128704D01*
X125978094Y-92128704D02*
X125939999Y-92166800D01*
X125939999Y-92166800D02*
X125863809Y-92204895D01*
X125863809Y-92204895D02*
X125559047Y-92204895D01*
X125559047Y-92204895D02*
X125559047Y-91404895D01*
X125559047Y-91404895D02*
X125825713Y-91404895D01*
X125825713Y-91404895D02*
X125901904Y-91442990D01*
X125901904Y-91442990D02*
X125939999Y-91481085D01*
X125939999Y-91481085D02*
X125978094Y-91557276D01*
X125978094Y-91557276D02*
X125978094Y-91633466D01*
X125978094Y-91633466D02*
X125939999Y-91709657D01*
X125939999Y-91709657D02*
X125901904Y-91747752D01*
X125901904Y-91747752D02*
X125825713Y-91785847D01*
X125825713Y-91785847D02*
X125559047Y-91785847D01*
X126701904Y-92204895D02*
X126701904Y-91785847D01*
X126701904Y-91785847D02*
X126663809Y-91709657D01*
X126663809Y-91709657D02*
X126587618Y-91671561D01*
X126587618Y-91671561D02*
X126435237Y-91671561D01*
X126435237Y-91671561D02*
X126359047Y-91709657D01*
X126701904Y-92166800D02*
X126625713Y-92204895D01*
X126625713Y-92204895D02*
X126435237Y-92204895D01*
X126435237Y-92204895D02*
X126359047Y-92166800D01*
X126359047Y-92166800D02*
X126320951Y-92090609D01*
X126320951Y-92090609D02*
X126320951Y-92014419D01*
X126320951Y-92014419D02*
X126359047Y-91938228D01*
X126359047Y-91938228D02*
X126435237Y-91900133D01*
X126435237Y-91900133D02*
X126625713Y-91900133D01*
X126625713Y-91900133D02*
X126701904Y-91862038D01*
X126968571Y-91671561D02*
X127273333Y-91671561D01*
X127082857Y-91404895D02*
X127082857Y-92090609D01*
X127082857Y-92090609D02*
X127120952Y-92166800D01*
X127120952Y-92166800D02*
X127197142Y-92204895D01*
X127197142Y-92204895D02*
X127273333Y-92204895D01*
X127425714Y-91671561D02*
X127730476Y-91671561D01*
X127540000Y-91404895D02*
X127540000Y-92090609D01*
X127540000Y-92090609D02*
X127578095Y-92166800D01*
X127578095Y-92166800D02*
X127654285Y-92204895D01*
X127654285Y-92204895D02*
X127730476Y-92204895D01*
X128301905Y-92166800D02*
X128225714Y-92204895D01*
X128225714Y-92204895D02*
X128073333Y-92204895D01*
X128073333Y-92204895D02*
X127997143Y-92166800D01*
X127997143Y-92166800D02*
X127959047Y-92090609D01*
X127959047Y-92090609D02*
X127959047Y-91785847D01*
X127959047Y-91785847D02*
X127997143Y-91709657D01*
X127997143Y-91709657D02*
X128073333Y-91671561D01*
X128073333Y-91671561D02*
X128225714Y-91671561D01*
X128225714Y-91671561D02*
X128301905Y-91709657D01*
X128301905Y-91709657D02*
X128340000Y-91785847D01*
X128340000Y-91785847D02*
X128340000Y-91862038D01*
X128340000Y-91862038D02*
X127959047Y-91938228D01*
X128682857Y-92204895D02*
X128682857Y-91671561D01*
X128682857Y-91823942D02*
X128720952Y-91747752D01*
X128720952Y-91747752D02*
X128759047Y-91709657D01*
X128759047Y-91709657D02*
X128835238Y-91671561D01*
X128835238Y-91671561D02*
X128911428Y-91671561D01*
X129101904Y-91671561D02*
X129292380Y-92204895D01*
X129482857Y-91671561D02*
X129292380Y-92204895D01*
X129292380Y-92204895D02*
X129216190Y-92395371D01*
X129216190Y-92395371D02*
X129178095Y-92433466D01*
X129178095Y-92433466D02*
X129101904Y-92471561D01*
X130282857Y-91404895D02*
X130740000Y-91404895D01*
X130511428Y-92204895D02*
X130511428Y-91404895D01*
X131311429Y-92166800D02*
X131235238Y-92204895D01*
X131235238Y-92204895D02*
X131082857Y-92204895D01*
X131082857Y-92204895D02*
X131006667Y-92166800D01*
X131006667Y-92166800D02*
X130968571Y-92090609D01*
X130968571Y-92090609D02*
X130968571Y-91785847D01*
X130968571Y-91785847D02*
X131006667Y-91709657D01*
X131006667Y-91709657D02*
X131082857Y-91671561D01*
X131082857Y-91671561D02*
X131235238Y-91671561D01*
X131235238Y-91671561D02*
X131311429Y-91709657D01*
X131311429Y-91709657D02*
X131349524Y-91785847D01*
X131349524Y-91785847D02*
X131349524Y-91862038D01*
X131349524Y-91862038D02*
X130968571Y-91938228D01*
X131692381Y-92204895D02*
X131692381Y-91671561D01*
X131692381Y-91823942D02*
X131730476Y-91747752D01*
X131730476Y-91747752D02*
X131768571Y-91709657D01*
X131768571Y-91709657D02*
X131844762Y-91671561D01*
X131844762Y-91671561D02*
X131920952Y-91671561D01*
X132187619Y-92204895D02*
X132187619Y-91671561D01*
X132187619Y-91747752D02*
X132225714Y-91709657D01*
X132225714Y-91709657D02*
X132301904Y-91671561D01*
X132301904Y-91671561D02*
X132416190Y-91671561D01*
X132416190Y-91671561D02*
X132492381Y-91709657D01*
X132492381Y-91709657D02*
X132530476Y-91785847D01*
X132530476Y-91785847D02*
X132530476Y-92204895D01*
X132530476Y-91785847D02*
X132568571Y-91709657D01*
X132568571Y-91709657D02*
X132644762Y-91671561D01*
X132644762Y-91671561D02*
X132759047Y-91671561D01*
X132759047Y-91671561D02*
X132835238Y-91709657D01*
X132835238Y-91709657D02*
X132873333Y-91785847D01*
X132873333Y-91785847D02*
X132873333Y-92204895D01*
X133254286Y-92204895D02*
X133254286Y-91671561D01*
X133254286Y-91404895D02*
X133216190Y-91442990D01*
X133216190Y-91442990D02*
X133254286Y-91481085D01*
X133254286Y-91481085D02*
X133292381Y-91442990D01*
X133292381Y-91442990D02*
X133254286Y-91404895D01*
X133254286Y-91404895D02*
X133254286Y-91481085D01*
X133635238Y-91671561D02*
X133635238Y-92204895D01*
X133635238Y-91747752D02*
X133673333Y-91709657D01*
X133673333Y-91709657D02*
X133749523Y-91671561D01*
X133749523Y-91671561D02*
X133863809Y-91671561D01*
X133863809Y-91671561D02*
X133940000Y-91709657D01*
X133940000Y-91709657D02*
X133978095Y-91785847D01*
X133978095Y-91785847D02*
X133978095Y-92204895D01*
X134701905Y-92204895D02*
X134701905Y-91785847D01*
X134701905Y-91785847D02*
X134663810Y-91709657D01*
X134663810Y-91709657D02*
X134587619Y-91671561D01*
X134587619Y-91671561D02*
X134435238Y-91671561D01*
X134435238Y-91671561D02*
X134359048Y-91709657D01*
X134701905Y-92166800D02*
X134625714Y-92204895D01*
X134625714Y-92204895D02*
X134435238Y-92204895D01*
X134435238Y-92204895D02*
X134359048Y-92166800D01*
X134359048Y-92166800D02*
X134320952Y-92090609D01*
X134320952Y-92090609D02*
X134320952Y-92014419D01*
X134320952Y-92014419D02*
X134359048Y-91938228D01*
X134359048Y-91938228D02*
X134435238Y-91900133D01*
X134435238Y-91900133D02*
X134625714Y-91900133D01*
X134625714Y-91900133D02*
X134701905Y-91862038D01*
X135197143Y-92204895D02*
X135120953Y-92166800D01*
X135120953Y-92166800D02*
X135082858Y-92090609D01*
X135082858Y-92090609D02*
X135082858Y-91404895D01*
D11*
X129486666Y-92604819D02*
X129486666Y-93319104D01*
X129486666Y-93319104D02*
X129439047Y-93461961D01*
X129439047Y-93461961D02*
X129343809Y-93557200D01*
X129343809Y-93557200D02*
X129200952Y-93604819D01*
X129200952Y-93604819D02*
X129105714Y-93604819D01*
X130486666Y-93604819D02*
X129915238Y-93604819D01*
X130200952Y-93604819D02*
X130200952Y-92604819D01*
X130200952Y-92604819D02*
X130105714Y-92747676D01*
X130105714Y-92747676D02*
X130010476Y-92842914D01*
X130010476Y-92842914D02*
X129915238Y-92890533D01*
D10*
X128212381Y-104977603D02*
X128174285Y-105015699D01*
X128174285Y-105015699D02*
X128060000Y-105053794D01*
X128060000Y-105053794D02*
X127983809Y-105053794D01*
X127983809Y-105053794D02*
X127869523Y-105015699D01*
X127869523Y-105015699D02*
X127793333Y-104939508D01*
X127793333Y-104939508D02*
X127755238Y-104863318D01*
X127755238Y-104863318D02*
X127717142Y-104710937D01*
X127717142Y-104710937D02*
X127717142Y-104596651D01*
X127717142Y-104596651D02*
X127755238Y-104444270D01*
X127755238Y-104444270D02*
X127793333Y-104368079D01*
X127793333Y-104368079D02*
X127869523Y-104291889D01*
X127869523Y-104291889D02*
X127983809Y-104253794D01*
X127983809Y-104253794D02*
X128060000Y-104253794D01*
X128060000Y-104253794D02*
X128174285Y-104291889D01*
X128174285Y-104291889D02*
X128212381Y-104329984D01*
X128898095Y-104520460D02*
X128898095Y-105053794D01*
X128555238Y-104520460D02*
X128555238Y-104939508D01*
X128555238Y-104939508D02*
X128593333Y-105015699D01*
X128593333Y-105015699D02*
X128669523Y-105053794D01*
X128669523Y-105053794D02*
X128783809Y-105053794D01*
X128783809Y-105053794D02*
X128860000Y-105015699D01*
X128860000Y-105015699D02*
X128898095Y-104977603D01*
X129279048Y-105053794D02*
X129279048Y-104520460D01*
X129279048Y-104672841D02*
X129317143Y-104596651D01*
X129317143Y-104596651D02*
X129355238Y-104558556D01*
X129355238Y-104558556D02*
X129431429Y-104520460D01*
X129431429Y-104520460D02*
X129507619Y-104520460D01*
X129774286Y-105053794D02*
X129774286Y-104520460D01*
X129774286Y-104672841D02*
X129812381Y-104596651D01*
X129812381Y-104596651D02*
X129850476Y-104558556D01*
X129850476Y-104558556D02*
X129926667Y-104520460D01*
X129926667Y-104520460D02*
X130002857Y-104520460D01*
X130574286Y-105015699D02*
X130498095Y-105053794D01*
X130498095Y-105053794D02*
X130345714Y-105053794D01*
X130345714Y-105053794D02*
X130269524Y-105015699D01*
X130269524Y-105015699D02*
X130231428Y-104939508D01*
X130231428Y-104939508D02*
X130231428Y-104634746D01*
X130231428Y-104634746D02*
X130269524Y-104558556D01*
X130269524Y-104558556D02*
X130345714Y-104520460D01*
X130345714Y-104520460D02*
X130498095Y-104520460D01*
X130498095Y-104520460D02*
X130574286Y-104558556D01*
X130574286Y-104558556D02*
X130612381Y-104634746D01*
X130612381Y-104634746D02*
X130612381Y-104710937D01*
X130612381Y-104710937D02*
X130231428Y-104787127D01*
X130955238Y-104520460D02*
X130955238Y-105053794D01*
X130955238Y-104596651D02*
X130993333Y-104558556D01*
X130993333Y-104558556D02*
X131069523Y-104520460D01*
X131069523Y-104520460D02*
X131183809Y-104520460D01*
X131183809Y-104520460D02*
X131260000Y-104558556D01*
X131260000Y-104558556D02*
X131298095Y-104634746D01*
X131298095Y-104634746D02*
X131298095Y-105053794D01*
X131564762Y-104520460D02*
X131869524Y-104520460D01*
X131679048Y-104253794D02*
X131679048Y-104939508D01*
X131679048Y-104939508D02*
X131717143Y-105015699D01*
X131717143Y-105015699D02*
X131793333Y-105053794D01*
X131793333Y-105053794D02*
X131869524Y-105053794D01*
X132631429Y-104253794D02*
X133088572Y-104253794D01*
X132860000Y-105053794D02*
X132860000Y-104253794D01*
X133660001Y-105015699D02*
X133583810Y-105053794D01*
X133583810Y-105053794D02*
X133431429Y-105053794D01*
X133431429Y-105053794D02*
X133355239Y-105015699D01*
X133355239Y-105015699D02*
X133317143Y-104939508D01*
X133317143Y-104939508D02*
X133317143Y-104634746D01*
X133317143Y-104634746D02*
X133355239Y-104558556D01*
X133355239Y-104558556D02*
X133431429Y-104520460D01*
X133431429Y-104520460D02*
X133583810Y-104520460D01*
X133583810Y-104520460D02*
X133660001Y-104558556D01*
X133660001Y-104558556D02*
X133698096Y-104634746D01*
X133698096Y-104634746D02*
X133698096Y-104710937D01*
X133698096Y-104710937D02*
X133317143Y-104787127D01*
X134002857Y-105015699D02*
X134079048Y-105053794D01*
X134079048Y-105053794D02*
X134231429Y-105053794D01*
X134231429Y-105053794D02*
X134307619Y-105015699D01*
X134307619Y-105015699D02*
X134345715Y-104939508D01*
X134345715Y-104939508D02*
X134345715Y-104901413D01*
X134345715Y-104901413D02*
X134307619Y-104825222D01*
X134307619Y-104825222D02*
X134231429Y-104787127D01*
X134231429Y-104787127D02*
X134117143Y-104787127D01*
X134117143Y-104787127D02*
X134040953Y-104749032D01*
X134040953Y-104749032D02*
X134002857Y-104672841D01*
X134002857Y-104672841D02*
X134002857Y-104634746D01*
X134002857Y-104634746D02*
X134040953Y-104558556D01*
X134040953Y-104558556D02*
X134117143Y-104520460D01*
X134117143Y-104520460D02*
X134231429Y-104520460D01*
X134231429Y-104520460D02*
X134307619Y-104558556D01*
X134574286Y-104520460D02*
X134879048Y-104520460D01*
X134688572Y-104253794D02*
X134688572Y-104939508D01*
X134688572Y-104939508D02*
X134726667Y-105015699D01*
X134726667Y-105015699D02*
X134802857Y-105053794D01*
X134802857Y-105053794D02*
X134879048Y-105053794D01*
D11*
X130466666Y-102344819D02*
X130466666Y-103059104D01*
X130466666Y-103059104D02*
X130419047Y-103201961D01*
X130419047Y-103201961D02*
X130323809Y-103297200D01*
X130323809Y-103297200D02*
X130180952Y-103344819D01*
X130180952Y-103344819D02*
X130085714Y-103344819D01*
X130942857Y-103344819D02*
X130942857Y-102344819D01*
X130942857Y-102344819D02*
X131323809Y-102344819D01*
X131323809Y-102344819D02*
X131419047Y-102392438D01*
X131419047Y-102392438D02*
X131466666Y-102440057D01*
X131466666Y-102440057D02*
X131514285Y-102535295D01*
X131514285Y-102535295D02*
X131514285Y-102678152D01*
X131514285Y-102678152D02*
X131466666Y-102773390D01*
X131466666Y-102773390D02*
X131419047Y-102821009D01*
X131419047Y-102821009D02*
X131323809Y-102868628D01*
X131323809Y-102868628D02*
X130942857Y-102868628D01*
X132466666Y-103344819D02*
X131895238Y-103344819D01*
X132180952Y-103344819D02*
X132180952Y-102344819D01*
X132180952Y-102344819D02*
X132085714Y-102487676D01*
X132085714Y-102487676D02*
X131990476Y-102582914D01*
X131990476Y-102582914D02*
X131895238Y-102630533D01*
X182763630Y-114340387D02*
X182763630Y-113340387D01*
X182763630Y-113816577D02*
X183335058Y-113816577D01*
X183335058Y-114340387D02*
X183335058Y-113340387D01*
X184335058Y-114340387D02*
X183763630Y-114340387D01*
X184049344Y-114340387D02*
X184049344Y-113340387D01*
X184049344Y-113340387D02*
X183954106Y-113483244D01*
X183954106Y-113483244D02*
X183858868Y-113578482D01*
X183858868Y-113578482D02*
X183763630Y-113626101D01*
X182763630Y-81411454D02*
X182763630Y-80411454D01*
X182763630Y-80887644D02*
X183335058Y-80887644D01*
X183335058Y-81411454D02*
X183335058Y-80411454D01*
X183716011Y-80411454D02*
X184335058Y-80411454D01*
X184335058Y-80411454D02*
X184001725Y-80792406D01*
X184001725Y-80792406D02*
X184144582Y-80792406D01*
X184144582Y-80792406D02*
X184239820Y-80840025D01*
X184239820Y-80840025D02*
X184287439Y-80887644D01*
X184287439Y-80887644D02*
X184335058Y-80982882D01*
X184335058Y-80982882D02*
X184335058Y-81220977D01*
X184335058Y-81220977D02*
X184287439Y-81316215D01*
X184287439Y-81316215D02*
X184239820Y-81363835D01*
X184239820Y-81363835D02*
X184144582Y-81411454D01*
X184144582Y-81411454D02*
X183858868Y-81411454D01*
X183858868Y-81411454D02*
X183763630Y-81363835D01*
X183763630Y-81363835D02*
X183716011Y-81316215D01*
X142124819Y-90598243D02*
X142124819Y-91169671D01*
X142124819Y-90883957D02*
X141124819Y-90883957D01*
X141124819Y-90883957D02*
X141267676Y-90979195D01*
X141267676Y-90979195D02*
X141362914Y-91074433D01*
X141362914Y-91074433D02*
X141410533Y-91169671D01*
X142124819Y-90169671D02*
X141124819Y-90169671D01*
X141124819Y-90169671D02*
X141839104Y-89836338D01*
X141839104Y-89836338D02*
X141124819Y-89503005D01*
X141124819Y-89503005D02*
X142124819Y-89503005D01*
X142124819Y-89074433D02*
X142124819Y-88836338D01*
X142124819Y-88836338D02*
X141934342Y-88836338D01*
X141934342Y-88836338D02*
X141886723Y-88931576D01*
X141886723Y-88931576D02*
X141791485Y-89026814D01*
X141791485Y-89026814D02*
X141648628Y-89074433D01*
X141648628Y-89074433D02*
X141410533Y-89074433D01*
X141410533Y-89074433D02*
X141267676Y-89026814D01*
X141267676Y-89026814D02*
X141172438Y-88931576D01*
X141172438Y-88931576D02*
X141124819Y-88788719D01*
X141124819Y-88788719D02*
X141124819Y-88598243D01*
X141124819Y-88598243D02*
X141172438Y-88455386D01*
X141172438Y-88455386D02*
X141267676Y-88360148D01*
X141267676Y-88360148D02*
X141410533Y-88312529D01*
X141410533Y-88312529D02*
X141648628Y-88312529D01*
X141648628Y-88312529D02*
X141791485Y-88360148D01*
X141791485Y-88360148D02*
X141886723Y-88455386D01*
X141886723Y-88455386D02*
X141934342Y-88550624D01*
X141934342Y-88550624D02*
X142124819Y-88550624D01*
X142124819Y-88550624D02*
X142124819Y-88312529D01*
X141413333Y-97407021D02*
X141080000Y-96930830D01*
X140841905Y-97407021D02*
X140841905Y-96407021D01*
X140841905Y-96407021D02*
X141222857Y-96407021D01*
X141222857Y-96407021D02*
X141318095Y-96454640D01*
X141318095Y-96454640D02*
X141365714Y-96502259D01*
X141365714Y-96502259D02*
X141413333Y-96597497D01*
X141413333Y-96597497D02*
X141413333Y-96740354D01*
X141413333Y-96740354D02*
X141365714Y-96835592D01*
X141365714Y-96835592D02*
X141318095Y-96883211D01*
X141318095Y-96883211D02*
X141222857Y-96930830D01*
X141222857Y-96930830D02*
X140841905Y-96930830D01*
X142365714Y-97407021D02*
X141794286Y-97407021D01*
X142080000Y-97407021D02*
X142080000Y-96407021D01*
X142080000Y-96407021D02*
X141984762Y-96549878D01*
X141984762Y-96549878D02*
X141889524Y-96645116D01*
X141889524Y-96645116D02*
X141794286Y-96692735D01*
D10*
X169609047Y-83195996D02*
X169609047Y-82395996D01*
X169609047Y-82395996D02*
X169913809Y-82395996D01*
X169913809Y-82395996D02*
X169989999Y-82434091D01*
X169989999Y-82434091D02*
X170028094Y-82472186D01*
X170028094Y-82472186D02*
X170066190Y-82548377D01*
X170066190Y-82548377D02*
X170066190Y-82662662D01*
X170066190Y-82662662D02*
X170028094Y-82738853D01*
X170028094Y-82738853D02*
X169989999Y-82776948D01*
X169989999Y-82776948D02*
X169913809Y-82815043D01*
X169913809Y-82815043D02*
X169609047Y-82815043D01*
X170409047Y-83195996D02*
X170409047Y-82662662D01*
X170409047Y-82815043D02*
X170447142Y-82738853D01*
X170447142Y-82738853D02*
X170485237Y-82700758D01*
X170485237Y-82700758D02*
X170561428Y-82662662D01*
X170561428Y-82662662D02*
X170637618Y-82662662D01*
X171018570Y-83195996D02*
X170942380Y-83157901D01*
X170942380Y-83157901D02*
X170904285Y-83119805D01*
X170904285Y-83119805D02*
X170866189Y-83043615D01*
X170866189Y-83043615D02*
X170866189Y-82815043D01*
X170866189Y-82815043D02*
X170904285Y-82738853D01*
X170904285Y-82738853D02*
X170942380Y-82700758D01*
X170942380Y-82700758D02*
X171018570Y-82662662D01*
X171018570Y-82662662D02*
X171132856Y-82662662D01*
X171132856Y-82662662D02*
X171209047Y-82700758D01*
X171209047Y-82700758D02*
X171247142Y-82738853D01*
X171247142Y-82738853D02*
X171285237Y-82815043D01*
X171285237Y-82815043D02*
X171285237Y-83043615D01*
X171285237Y-83043615D02*
X171247142Y-83119805D01*
X171247142Y-83119805D02*
X171209047Y-83157901D01*
X171209047Y-83157901D02*
X171132856Y-83195996D01*
X171132856Y-83195996D02*
X171018570Y-83195996D01*
X171628095Y-83195996D02*
X171628095Y-82395996D01*
X171628095Y-82700758D02*
X171704285Y-82662662D01*
X171704285Y-82662662D02*
X171856666Y-82662662D01*
X171856666Y-82662662D02*
X171932857Y-82700758D01*
X171932857Y-82700758D02*
X171970952Y-82738853D01*
X171970952Y-82738853D02*
X172009047Y-82815043D01*
X172009047Y-82815043D02*
X172009047Y-83043615D01*
X172009047Y-83043615D02*
X171970952Y-83119805D01*
X171970952Y-83119805D02*
X171932857Y-83157901D01*
X171932857Y-83157901D02*
X171856666Y-83195996D01*
X171856666Y-83195996D02*
X171704285Y-83195996D01*
X171704285Y-83195996D02*
X171628095Y-83157901D01*
X172656667Y-83157901D02*
X172580476Y-83195996D01*
X172580476Y-83195996D02*
X172428095Y-83195996D01*
X172428095Y-83195996D02*
X172351905Y-83157901D01*
X172351905Y-83157901D02*
X172313809Y-83081710D01*
X172313809Y-83081710D02*
X172313809Y-82776948D01*
X172313809Y-82776948D02*
X172351905Y-82700758D01*
X172351905Y-82700758D02*
X172428095Y-82662662D01*
X172428095Y-82662662D02*
X172580476Y-82662662D01*
X172580476Y-82662662D02*
X172656667Y-82700758D01*
X172656667Y-82700758D02*
X172694762Y-82776948D01*
X172694762Y-82776948D02*
X172694762Y-82853139D01*
X172694762Y-82853139D02*
X172313809Y-82929329D01*
X173532857Y-82395996D02*
X173990000Y-82395996D01*
X173761428Y-83195996D02*
X173761428Y-82395996D01*
X174561429Y-83157901D02*
X174485238Y-83195996D01*
X174485238Y-83195996D02*
X174332857Y-83195996D01*
X174332857Y-83195996D02*
X174256667Y-83157901D01*
X174256667Y-83157901D02*
X174218571Y-83081710D01*
X174218571Y-83081710D02*
X174218571Y-82776948D01*
X174218571Y-82776948D02*
X174256667Y-82700758D01*
X174256667Y-82700758D02*
X174332857Y-82662662D01*
X174332857Y-82662662D02*
X174485238Y-82662662D01*
X174485238Y-82662662D02*
X174561429Y-82700758D01*
X174561429Y-82700758D02*
X174599524Y-82776948D01*
X174599524Y-82776948D02*
X174599524Y-82853139D01*
X174599524Y-82853139D02*
X174218571Y-82929329D01*
X174942381Y-83195996D02*
X174942381Y-82662662D01*
X174942381Y-82815043D02*
X174980476Y-82738853D01*
X174980476Y-82738853D02*
X175018571Y-82700758D01*
X175018571Y-82700758D02*
X175094762Y-82662662D01*
X175094762Y-82662662D02*
X175170952Y-82662662D01*
X175437619Y-83195996D02*
X175437619Y-82662662D01*
X175437619Y-82738853D02*
X175475714Y-82700758D01*
X175475714Y-82700758D02*
X175551904Y-82662662D01*
X175551904Y-82662662D02*
X175666190Y-82662662D01*
X175666190Y-82662662D02*
X175742381Y-82700758D01*
X175742381Y-82700758D02*
X175780476Y-82776948D01*
X175780476Y-82776948D02*
X175780476Y-83195996D01*
X175780476Y-82776948D02*
X175818571Y-82700758D01*
X175818571Y-82700758D02*
X175894762Y-82662662D01*
X175894762Y-82662662D02*
X176009047Y-82662662D01*
X176009047Y-82662662D02*
X176085238Y-82700758D01*
X176085238Y-82700758D02*
X176123333Y-82776948D01*
X176123333Y-82776948D02*
X176123333Y-83195996D01*
X176504286Y-83195996D02*
X176504286Y-82662662D01*
X176504286Y-82395996D02*
X176466190Y-82434091D01*
X176466190Y-82434091D02*
X176504286Y-82472186D01*
X176504286Y-82472186D02*
X176542381Y-82434091D01*
X176542381Y-82434091D02*
X176504286Y-82395996D01*
X176504286Y-82395996D02*
X176504286Y-82472186D01*
X176885238Y-82662662D02*
X176885238Y-83195996D01*
X176885238Y-82738853D02*
X176923333Y-82700758D01*
X176923333Y-82700758D02*
X176999523Y-82662662D01*
X176999523Y-82662662D02*
X177113809Y-82662662D01*
X177113809Y-82662662D02*
X177190000Y-82700758D01*
X177190000Y-82700758D02*
X177228095Y-82776948D01*
X177228095Y-82776948D02*
X177228095Y-83195996D01*
X177951905Y-83195996D02*
X177951905Y-82776948D01*
X177951905Y-82776948D02*
X177913810Y-82700758D01*
X177913810Y-82700758D02*
X177837619Y-82662662D01*
X177837619Y-82662662D02*
X177685238Y-82662662D01*
X177685238Y-82662662D02*
X177609048Y-82700758D01*
X177951905Y-83157901D02*
X177875714Y-83195996D01*
X177875714Y-83195996D02*
X177685238Y-83195996D01*
X177685238Y-83195996D02*
X177609048Y-83157901D01*
X177609048Y-83157901D02*
X177570952Y-83081710D01*
X177570952Y-83081710D02*
X177570952Y-83005520D01*
X177570952Y-83005520D02*
X177609048Y-82929329D01*
X177609048Y-82929329D02*
X177685238Y-82891234D01*
X177685238Y-82891234D02*
X177875714Y-82891234D01*
X177875714Y-82891234D02*
X177951905Y-82853139D01*
X178447143Y-83195996D02*
X178370953Y-83157901D01*
X178370953Y-83157901D02*
X178332858Y-83081710D01*
X178332858Y-83081710D02*
X178332858Y-82395996D01*
D11*
X173086666Y-83594819D02*
X173086666Y-84309104D01*
X173086666Y-84309104D02*
X173039047Y-84451961D01*
X173039047Y-84451961D02*
X172943809Y-84547200D01*
X172943809Y-84547200D02*
X172800952Y-84594819D01*
X172800952Y-84594819D02*
X172705714Y-84594819D01*
X173515238Y-83690057D02*
X173562857Y-83642438D01*
X173562857Y-83642438D02*
X173658095Y-83594819D01*
X173658095Y-83594819D02*
X173896190Y-83594819D01*
X173896190Y-83594819D02*
X173991428Y-83642438D01*
X173991428Y-83642438D02*
X174039047Y-83690057D01*
X174039047Y-83690057D02*
X174086666Y-83785295D01*
X174086666Y-83785295D02*
X174086666Y-83880533D01*
X174086666Y-83880533D02*
X174039047Y-84023390D01*
X174039047Y-84023390D02*
X173467619Y-84594819D01*
X173467619Y-84594819D02*
X174086666Y-84594819D01*
X125693629Y-81411454D02*
X125693629Y-80411454D01*
X125693629Y-80887644D02*
X126265057Y-80887644D01*
X126265057Y-81411454D02*
X126265057Y-80411454D01*
X127169819Y-80744787D02*
X127169819Y-81411454D01*
X126931724Y-80363835D02*
X126693629Y-81078120D01*
X126693629Y-81078120D02*
X127312676Y-81078120D01*
X150645238Y-86374819D02*
X150073810Y-86374819D01*
X150359524Y-86374819D02*
X150359524Y-85374819D01*
X150359524Y-85374819D02*
X150264286Y-85517676D01*
X150264286Y-85517676D02*
X150169048Y-85612914D01*
X150169048Y-85612914D02*
X150073810Y-85660533D01*
X151073810Y-86279580D02*
X151121429Y-86327200D01*
X151121429Y-86327200D02*
X151073810Y-86374819D01*
X151073810Y-86374819D02*
X151026191Y-86327200D01*
X151026191Y-86327200D02*
X151073810Y-86279580D01*
X151073810Y-86279580D02*
X151073810Y-86374819D01*
X152026190Y-85374819D02*
X151550000Y-85374819D01*
X151550000Y-85374819D02*
X151502381Y-85851009D01*
X151502381Y-85851009D02*
X151550000Y-85803390D01*
X151550000Y-85803390D02*
X151645238Y-85755771D01*
X151645238Y-85755771D02*
X151883333Y-85755771D01*
X151883333Y-85755771D02*
X151978571Y-85803390D01*
X151978571Y-85803390D02*
X152026190Y-85851009D01*
X152026190Y-85851009D02*
X152073809Y-85946247D01*
X152073809Y-85946247D02*
X152073809Y-86184342D01*
X152073809Y-86184342D02*
X152026190Y-86279580D01*
X152026190Y-86279580D02*
X151978571Y-86327200D01*
X151978571Y-86327200D02*
X151883333Y-86374819D01*
X151883333Y-86374819D02*
X151645238Y-86374819D01*
X151645238Y-86374819D02*
X151550000Y-86327200D01*
X151550000Y-86327200D02*
X151502381Y-86279580D01*
X152502381Y-86374819D02*
X152502381Y-85374819D01*
X152597619Y-85993866D02*
X152883333Y-86374819D01*
X152883333Y-85708152D02*
X152502381Y-86089104D01*
X153264286Y-86374819D02*
X153502381Y-86374819D01*
X153502381Y-86374819D02*
X153502381Y-86184342D01*
X153502381Y-86184342D02*
X153407143Y-86136723D01*
X153407143Y-86136723D02*
X153311905Y-86041485D01*
X153311905Y-86041485D02*
X153264286Y-85898628D01*
X153264286Y-85898628D02*
X153264286Y-85660533D01*
X153264286Y-85660533D02*
X153311905Y-85517676D01*
X153311905Y-85517676D02*
X153407143Y-85422438D01*
X153407143Y-85422438D02*
X153550000Y-85374819D01*
X153550000Y-85374819D02*
X153740476Y-85374819D01*
X153740476Y-85374819D02*
X153883333Y-85422438D01*
X153883333Y-85422438D02*
X153978571Y-85517676D01*
X153978571Y-85517676D02*
X154026190Y-85660533D01*
X154026190Y-85660533D02*
X154026190Y-85898628D01*
X154026190Y-85898628D02*
X153978571Y-86041485D01*
X153978571Y-86041485D02*
X153883333Y-86136723D01*
X153883333Y-86136723D02*
X153788095Y-86184342D01*
X153788095Y-86184342D02*
X153788095Y-86374819D01*
X153788095Y-86374819D02*
X154026190Y-86374819D01*
X159073333Y-86434819D02*
X158740000Y-85958628D01*
X158501905Y-86434819D02*
X158501905Y-85434819D01*
X158501905Y-85434819D02*
X158882857Y-85434819D01*
X158882857Y-85434819D02*
X158978095Y-85482438D01*
X158978095Y-85482438D02*
X159025714Y-85530057D01*
X159025714Y-85530057D02*
X159073333Y-85625295D01*
X159073333Y-85625295D02*
X159073333Y-85768152D01*
X159073333Y-85768152D02*
X159025714Y-85863390D01*
X159025714Y-85863390D02*
X158978095Y-85911009D01*
X158978095Y-85911009D02*
X158882857Y-85958628D01*
X158882857Y-85958628D02*
X158501905Y-85958628D01*
X159454286Y-85530057D02*
X159501905Y-85482438D01*
X159501905Y-85482438D02*
X159597143Y-85434819D01*
X159597143Y-85434819D02*
X159835238Y-85434819D01*
X159835238Y-85434819D02*
X159930476Y-85482438D01*
X159930476Y-85482438D02*
X159978095Y-85530057D01*
X159978095Y-85530057D02*
X160025714Y-85625295D01*
X160025714Y-85625295D02*
X160025714Y-85720533D01*
X160025714Y-85720533D02*
X159978095Y-85863390D01*
X159978095Y-85863390D02*
X159406667Y-86434819D01*
X159406667Y-86434819D02*
X160025714Y-86434819D01*
X125693629Y-114340387D02*
X125693629Y-113340387D01*
X125693629Y-113816577D02*
X126265057Y-113816577D01*
X126265057Y-114340387D02*
X126265057Y-113340387D01*
X126693629Y-113435625D02*
X126741248Y-113388006D01*
X126741248Y-113388006D02*
X126836486Y-113340387D01*
X126836486Y-113340387D02*
X127074581Y-113340387D01*
X127074581Y-113340387D02*
X127169819Y-113388006D01*
X127169819Y-113388006D02*
X127217438Y-113435625D01*
X127217438Y-113435625D02*
X127265057Y-113530863D01*
X127265057Y-113530863D02*
X127265057Y-113626101D01*
X127265057Y-113626101D02*
X127217438Y-113768958D01*
X127217438Y-113768958D02*
X126646010Y-114340387D01*
X126646010Y-114340387D02*
X127265057Y-114340387D01*
X153889104Y-99768094D02*
X153889104Y-99291904D01*
X154174819Y-99863332D02*
X153174819Y-99529999D01*
X153174819Y-99529999D02*
X154174819Y-99196666D01*
X154174819Y-98863332D02*
X153174819Y-98863332D01*
X153174819Y-98863332D02*
X153889104Y-98529999D01*
X153889104Y-98529999D02*
X153174819Y-98196666D01*
X153174819Y-98196666D02*
X154174819Y-98196666D01*
X153174819Y-97815713D02*
X153174819Y-97196666D01*
X153174819Y-97196666D02*
X153555771Y-97529999D01*
X153555771Y-97529999D02*
X153555771Y-97387142D01*
X153555771Y-97387142D02*
X153603390Y-97291904D01*
X153603390Y-97291904D02*
X153651009Y-97244285D01*
X153651009Y-97244285D02*
X153746247Y-97196666D01*
X153746247Y-97196666D02*
X153984342Y-97196666D01*
X153984342Y-97196666D02*
X154079580Y-97244285D01*
X154079580Y-97244285D02*
X154127200Y-97291904D01*
X154127200Y-97291904D02*
X154174819Y-97387142D01*
X154174819Y-97387142D02*
X154174819Y-97672856D01*
X154174819Y-97672856D02*
X154127200Y-97768094D01*
X154127200Y-97768094D02*
X154079580Y-97815713D01*
X154174819Y-96244285D02*
X154174819Y-96815713D01*
X154174819Y-96529999D02*
X153174819Y-96529999D01*
X153174819Y-96529999D02*
X153317676Y-96625237D01*
X153317676Y-96625237D02*
X153412914Y-96720475D01*
X153412914Y-96720475D02*
X153460533Y-96815713D01*
X153270057Y-95863332D02*
X153222438Y-95815713D01*
X153222438Y-95815713D02*
X153174819Y-95720475D01*
X153174819Y-95720475D02*
X153174819Y-95482380D01*
X153174819Y-95482380D02*
X153222438Y-95387142D01*
X153222438Y-95387142D02*
X153270057Y-95339523D01*
X153270057Y-95339523D02*
X153365295Y-95291904D01*
X153365295Y-95291904D02*
X153460533Y-95291904D01*
X153460533Y-95291904D02*
X153603390Y-95339523D01*
X153603390Y-95339523D02*
X154174819Y-95910951D01*
X154174819Y-95910951D02*
X154174819Y-95291904D01*
X152928095Y-92947200D02*
X153070952Y-92994819D01*
X153070952Y-92994819D02*
X153309047Y-92994819D01*
X153309047Y-92994819D02*
X153404285Y-92947200D01*
X153404285Y-92947200D02*
X153451904Y-92899580D01*
X153451904Y-92899580D02*
X153499523Y-92804342D01*
X153499523Y-92804342D02*
X153499523Y-92709104D01*
X153499523Y-92709104D02*
X153451904Y-92613866D01*
X153451904Y-92613866D02*
X153404285Y-92566247D01*
X153404285Y-92566247D02*
X153309047Y-92518628D01*
X153309047Y-92518628D02*
X153118571Y-92471009D01*
X153118571Y-92471009D02*
X153023333Y-92423390D01*
X153023333Y-92423390D02*
X152975714Y-92375771D01*
X152975714Y-92375771D02*
X152928095Y-92280533D01*
X152928095Y-92280533D02*
X152928095Y-92185295D01*
X152928095Y-92185295D02*
X152975714Y-92090057D01*
X152975714Y-92090057D02*
X153023333Y-92042438D01*
X153023333Y-92042438D02*
X153118571Y-91994819D01*
X153118571Y-91994819D02*
X153356666Y-91994819D01*
X153356666Y-91994819D02*
X153499523Y-92042438D01*
X154451904Y-92994819D02*
X153880476Y-92994819D01*
X154166190Y-92994819D02*
X154166190Y-91994819D01*
X154166190Y-91994819D02*
X154070952Y-92137676D01*
X154070952Y-92137676D02*
X153975714Y-92232914D01*
X153975714Y-92232914D02*
X153880476Y-92280533D01*
D10*
X152118570Y-114551085D02*
X152156666Y-114512990D01*
X152156666Y-114512990D02*
X152232856Y-114474895D01*
X152232856Y-114474895D02*
X152423332Y-114474895D01*
X152423332Y-114474895D02*
X152499523Y-114512990D01*
X152499523Y-114512990D02*
X152537618Y-114551085D01*
X152537618Y-114551085D02*
X152575713Y-114627276D01*
X152575713Y-114627276D02*
X152575713Y-114703466D01*
X152575713Y-114703466D02*
X152537618Y-114817752D01*
X152537618Y-114817752D02*
X152080475Y-115274895D01*
X152080475Y-115274895D02*
X152575713Y-115274895D01*
X152918571Y-115274895D02*
X152918571Y-114474895D01*
X152918571Y-114474895D02*
X153375714Y-115274895D01*
X153375714Y-115274895D02*
X153375714Y-114474895D01*
X153680475Y-114474895D02*
X154213809Y-114474895D01*
X154213809Y-114474895D02*
X153870951Y-115274895D01*
X154670952Y-114474895D02*
X154747142Y-114474895D01*
X154747142Y-114474895D02*
X154823333Y-114512990D01*
X154823333Y-114512990D02*
X154861428Y-114551085D01*
X154861428Y-114551085D02*
X154899523Y-114627276D01*
X154899523Y-114627276D02*
X154937618Y-114779657D01*
X154937618Y-114779657D02*
X154937618Y-114970133D01*
X154937618Y-114970133D02*
X154899523Y-115122514D01*
X154899523Y-115122514D02*
X154861428Y-115198704D01*
X154861428Y-115198704D02*
X154823333Y-115236800D01*
X154823333Y-115236800D02*
X154747142Y-115274895D01*
X154747142Y-115274895D02*
X154670952Y-115274895D01*
X154670952Y-115274895D02*
X154594761Y-115236800D01*
X154594761Y-115236800D02*
X154556666Y-115198704D01*
X154556666Y-115198704D02*
X154518571Y-115122514D01*
X154518571Y-115122514D02*
X154480475Y-114970133D01*
X154480475Y-114970133D02*
X154480475Y-114779657D01*
X154480475Y-114779657D02*
X154518571Y-114627276D01*
X154518571Y-114627276D02*
X154556666Y-114551085D01*
X154556666Y-114551085D02*
X154594761Y-114512990D01*
X154594761Y-114512990D02*
X154670952Y-114474895D01*
X155432857Y-114474895D02*
X155509047Y-114474895D01*
X155509047Y-114474895D02*
X155585238Y-114512990D01*
X155585238Y-114512990D02*
X155623333Y-114551085D01*
X155623333Y-114551085D02*
X155661428Y-114627276D01*
X155661428Y-114627276D02*
X155699523Y-114779657D01*
X155699523Y-114779657D02*
X155699523Y-114970133D01*
X155699523Y-114970133D02*
X155661428Y-115122514D01*
X155661428Y-115122514D02*
X155623333Y-115198704D01*
X155623333Y-115198704D02*
X155585238Y-115236800D01*
X155585238Y-115236800D02*
X155509047Y-115274895D01*
X155509047Y-115274895D02*
X155432857Y-115274895D01*
X155432857Y-115274895D02*
X155356666Y-115236800D01*
X155356666Y-115236800D02*
X155318571Y-115198704D01*
X155318571Y-115198704D02*
X155280476Y-115122514D01*
X155280476Y-115122514D02*
X155242380Y-114970133D01*
X155242380Y-114970133D02*
X155242380Y-114779657D01*
X155242380Y-114779657D02*
X155280476Y-114627276D01*
X155280476Y-114627276D02*
X155318571Y-114551085D01*
X155318571Y-114551085D02*
X155356666Y-114512990D01*
X155356666Y-114512990D02*
X155432857Y-114474895D01*
X156194762Y-114474895D02*
X156270952Y-114474895D01*
X156270952Y-114474895D02*
X156347143Y-114512990D01*
X156347143Y-114512990D02*
X156385238Y-114551085D01*
X156385238Y-114551085D02*
X156423333Y-114627276D01*
X156423333Y-114627276D02*
X156461428Y-114779657D01*
X156461428Y-114779657D02*
X156461428Y-114970133D01*
X156461428Y-114970133D02*
X156423333Y-115122514D01*
X156423333Y-115122514D02*
X156385238Y-115198704D01*
X156385238Y-115198704D02*
X156347143Y-115236800D01*
X156347143Y-115236800D02*
X156270952Y-115274895D01*
X156270952Y-115274895D02*
X156194762Y-115274895D01*
X156194762Y-115274895D02*
X156118571Y-115236800D01*
X156118571Y-115236800D02*
X156080476Y-115198704D01*
X156080476Y-115198704D02*
X156042381Y-115122514D01*
X156042381Y-115122514D02*
X156004285Y-114970133D01*
X156004285Y-114970133D02*
X156004285Y-114779657D01*
X156004285Y-114779657D02*
X156042381Y-114627276D01*
X156042381Y-114627276D02*
X156080476Y-114551085D01*
X156080476Y-114551085D02*
X156118571Y-114512990D01*
X156118571Y-114512990D02*
X156194762Y-114474895D01*
D11*
X154194761Y-112670057D02*
X154099523Y-112622438D01*
X154099523Y-112622438D02*
X154004285Y-112527200D01*
X154004285Y-112527200D02*
X153861428Y-112384342D01*
X153861428Y-112384342D02*
X153766190Y-112336723D01*
X153766190Y-112336723D02*
X153670952Y-112336723D01*
X153718571Y-112574819D02*
X153623333Y-112527200D01*
X153623333Y-112527200D02*
X153528095Y-112431961D01*
X153528095Y-112431961D02*
X153480476Y-112241485D01*
X153480476Y-112241485D02*
X153480476Y-111908152D01*
X153480476Y-111908152D02*
X153528095Y-111717676D01*
X153528095Y-111717676D02*
X153623333Y-111622438D01*
X153623333Y-111622438D02*
X153718571Y-111574819D01*
X153718571Y-111574819D02*
X153909047Y-111574819D01*
X153909047Y-111574819D02*
X154004285Y-111622438D01*
X154004285Y-111622438D02*
X154099523Y-111717676D01*
X154099523Y-111717676D02*
X154147142Y-111908152D01*
X154147142Y-111908152D02*
X154147142Y-112241485D01*
X154147142Y-112241485D02*
X154099523Y-112431961D01*
X154099523Y-112431961D02*
X154004285Y-112527200D01*
X154004285Y-112527200D02*
X153909047Y-112574819D01*
X153909047Y-112574819D02*
X153718571Y-112574819D01*
X154528095Y-111670057D02*
X154575714Y-111622438D01*
X154575714Y-111622438D02*
X154670952Y-111574819D01*
X154670952Y-111574819D02*
X154909047Y-111574819D01*
X154909047Y-111574819D02*
X155004285Y-111622438D01*
X155004285Y-111622438D02*
X155051904Y-111670057D01*
X155051904Y-111670057D02*
X155099523Y-111765295D01*
X155099523Y-111765295D02*
X155099523Y-111860533D01*
X155099523Y-111860533D02*
X155051904Y-112003390D01*
X155051904Y-112003390D02*
X154480476Y-112574819D01*
X154480476Y-112574819D02*
X155099523Y-112574819D01*
X151192857Y-90404819D02*
X150621429Y-90404819D01*
X150907143Y-90404819D02*
X150907143Y-89404819D01*
X150907143Y-89404819D02*
X150811905Y-89547676D01*
X150811905Y-89547676D02*
X150716667Y-89642914D01*
X150716667Y-89642914D02*
X150621429Y-89690533D01*
X151621429Y-90404819D02*
X151621429Y-89404819D01*
X151621429Y-89404819D02*
X151954762Y-90119104D01*
X151954762Y-90119104D02*
X152288095Y-89404819D01*
X152288095Y-89404819D02*
X152288095Y-90404819D01*
X152716667Y-90404819D02*
X152954762Y-90404819D01*
X152954762Y-90404819D02*
X152954762Y-90214342D01*
X152954762Y-90214342D02*
X152859524Y-90166723D01*
X152859524Y-90166723D02*
X152764286Y-90071485D01*
X152764286Y-90071485D02*
X152716667Y-89928628D01*
X152716667Y-89928628D02*
X152716667Y-89690533D01*
X152716667Y-89690533D02*
X152764286Y-89547676D01*
X152764286Y-89547676D02*
X152859524Y-89452438D01*
X152859524Y-89452438D02*
X153002381Y-89404819D01*
X153002381Y-89404819D02*
X153192857Y-89404819D01*
X153192857Y-89404819D02*
X153335714Y-89452438D01*
X153335714Y-89452438D02*
X153430952Y-89547676D01*
X153430952Y-89547676D02*
X153478571Y-89690533D01*
X153478571Y-89690533D02*
X153478571Y-89928628D01*
X153478571Y-89928628D02*
X153430952Y-90071485D01*
X153430952Y-90071485D02*
X153335714Y-90166723D01*
X153335714Y-90166723D02*
X153240476Y-90214342D01*
X153240476Y-90214342D02*
X153240476Y-90404819D01*
X153240476Y-90404819D02*
X153478571Y-90404819D01*
X159073333Y-90424819D02*
X158740000Y-89948628D01*
X158501905Y-90424819D02*
X158501905Y-89424819D01*
X158501905Y-89424819D02*
X158882857Y-89424819D01*
X158882857Y-89424819D02*
X158978095Y-89472438D01*
X158978095Y-89472438D02*
X159025714Y-89520057D01*
X159025714Y-89520057D02*
X159073333Y-89615295D01*
X159073333Y-89615295D02*
X159073333Y-89758152D01*
X159073333Y-89758152D02*
X159025714Y-89853390D01*
X159025714Y-89853390D02*
X158978095Y-89901009D01*
X158978095Y-89901009D02*
X158882857Y-89948628D01*
X158882857Y-89948628D02*
X158501905Y-89948628D01*
X159930476Y-89758152D02*
X159930476Y-90424819D01*
X159692381Y-89377200D02*
X159454286Y-90091485D01*
X159454286Y-90091485D02*
X160073333Y-90091485D01*
D10*
X165786800Y-106613333D02*
X165824895Y-106499047D01*
X165824895Y-106499047D02*
X165824895Y-106308571D01*
X165824895Y-106308571D02*
X165786800Y-106232380D01*
X165786800Y-106232380D02*
X165748704Y-106194285D01*
X165748704Y-106194285D02*
X165672514Y-106156190D01*
X165672514Y-106156190D02*
X165596323Y-106156190D01*
X165596323Y-106156190D02*
X165520133Y-106194285D01*
X165520133Y-106194285D02*
X165482038Y-106232380D01*
X165482038Y-106232380D02*
X165443942Y-106308571D01*
X165443942Y-106308571D02*
X165405847Y-106460952D01*
X165405847Y-106460952D02*
X165367752Y-106537142D01*
X165367752Y-106537142D02*
X165329657Y-106575237D01*
X165329657Y-106575237D02*
X165253466Y-106613333D01*
X165253466Y-106613333D02*
X165177276Y-106613333D01*
X165177276Y-106613333D02*
X165101085Y-106575237D01*
X165101085Y-106575237D02*
X165062990Y-106537142D01*
X165062990Y-106537142D02*
X165024895Y-106460952D01*
X165024895Y-106460952D02*
X165024895Y-106270475D01*
X165024895Y-106270475D02*
X165062990Y-106156190D01*
X165824895Y-105813332D02*
X165024895Y-105813332D01*
X165024895Y-105813332D02*
X165596323Y-105546666D01*
X165596323Y-105546666D02*
X165024895Y-105279999D01*
X165024895Y-105279999D02*
X165824895Y-105279999D01*
X165405847Y-104632380D02*
X165405847Y-104899046D01*
X165824895Y-104899046D02*
X165024895Y-104899046D01*
X165024895Y-104899046D02*
X165024895Y-104518094D01*
X165824895Y-103794285D02*
X165824895Y-104251428D01*
X165824895Y-104022856D02*
X165024895Y-104022856D01*
X165024895Y-104022856D02*
X165139180Y-104099047D01*
X165139180Y-104099047D02*
X165215371Y-104175237D01*
X165215371Y-104175237D02*
X165253466Y-104251428D01*
X165101085Y-103489523D02*
X165062990Y-103451427D01*
X165062990Y-103451427D02*
X165024895Y-103375237D01*
X165024895Y-103375237D02*
X165024895Y-103184761D01*
X165024895Y-103184761D02*
X165062990Y-103108570D01*
X165062990Y-103108570D02*
X165101085Y-103070475D01*
X165101085Y-103070475D02*
X165177276Y-103032380D01*
X165177276Y-103032380D02*
X165253466Y-103032380D01*
X165253466Y-103032380D02*
X165367752Y-103070475D01*
X165367752Y-103070475D02*
X165824895Y-103527618D01*
X165824895Y-103527618D02*
X165824895Y-103032380D01*
X165748704Y-102232379D02*
X165786800Y-102270475D01*
X165786800Y-102270475D02*
X165824895Y-102384760D01*
X165824895Y-102384760D02*
X165824895Y-102460951D01*
X165824895Y-102460951D02*
X165786800Y-102575237D01*
X165786800Y-102575237D02*
X165710609Y-102651427D01*
X165710609Y-102651427D02*
X165634419Y-102689522D01*
X165634419Y-102689522D02*
X165482038Y-102727618D01*
X165482038Y-102727618D02*
X165367752Y-102727618D01*
X165367752Y-102727618D02*
X165215371Y-102689522D01*
X165215371Y-102689522D02*
X165139180Y-102651427D01*
X165139180Y-102651427D02*
X165062990Y-102575237D01*
X165062990Y-102575237D02*
X165024895Y-102460951D01*
X165024895Y-102460951D02*
X165024895Y-102384760D01*
X165024895Y-102384760D02*
X165062990Y-102270475D01*
X165062990Y-102270475D02*
X165101085Y-102232379D01*
X165596323Y-101927618D02*
X165596323Y-101546665D01*
X165824895Y-102003808D02*
X165024895Y-101737141D01*
X165024895Y-101737141D02*
X165824895Y-101470475D01*
D11*
X167094819Y-104488094D02*
X166094819Y-104488094D01*
X166094819Y-104488094D02*
X166094819Y-104249999D01*
X166094819Y-104249999D02*
X166142438Y-104107142D01*
X166142438Y-104107142D02*
X166237676Y-104011904D01*
X166237676Y-104011904D02*
X166332914Y-103964285D01*
X166332914Y-103964285D02*
X166523390Y-103916666D01*
X166523390Y-103916666D02*
X166666247Y-103916666D01*
X166666247Y-103916666D02*
X166856723Y-103964285D01*
X166856723Y-103964285D02*
X166951961Y-104011904D01*
X166951961Y-104011904D02*
X167047200Y-104107142D01*
X167047200Y-104107142D02*
X167094819Y-104249999D01*
X167094819Y-104249999D02*
X167094819Y-104488094D01*
X166094819Y-103583332D02*
X166094819Y-102964285D01*
X166094819Y-102964285D02*
X166475771Y-103297618D01*
X166475771Y-103297618D02*
X166475771Y-103154761D01*
X166475771Y-103154761D02*
X166523390Y-103059523D01*
X166523390Y-103059523D02*
X166571009Y-103011904D01*
X166571009Y-103011904D02*
X166666247Y-102964285D01*
X166666247Y-102964285D02*
X166904342Y-102964285D01*
X166904342Y-102964285D02*
X166999580Y-103011904D01*
X166999580Y-103011904D02*
X167047200Y-103059523D01*
X167047200Y-103059523D02*
X167094819Y-103154761D01*
X167094819Y-103154761D02*
X167094819Y-103440475D01*
X167094819Y-103440475D02*
X167047200Y-103535713D01*
X167047200Y-103535713D02*
X166999580Y-103583332D01*
D10*
%TO.C,J3*%
X170367500Y-96411101D02*
X176567500Y-96411101D01*
X170367500Y-109571101D02*
X170367500Y-96411101D01*
X170767500Y-109571101D02*
X170767500Y-96411101D01*
X172633500Y-97211101D02*
X174167500Y-98745101D01*
X172633500Y-99751101D02*
X174167500Y-101285101D01*
X172633500Y-102291101D02*
X174167500Y-103825101D01*
X172633500Y-104831101D02*
X174167500Y-106365101D01*
X172633500Y-107371101D02*
X174167500Y-108905101D01*
X172767500Y-97077101D02*
X174301500Y-98611101D01*
X172767500Y-99617101D02*
X174301500Y-101151101D01*
X172767500Y-102157101D02*
X174301500Y-103691101D01*
X172767500Y-104697101D02*
X174301500Y-106231101D01*
X172767500Y-107237101D02*
X174301500Y-108771101D01*
X176067500Y-109571101D02*
X170367500Y-109571101D01*
X176067500Y-109571101D02*
X176067500Y-96411101D01*
X176567500Y-96411101D02*
X176567500Y-109071101D01*
X176567500Y-109071101D02*
X176067500Y-109571101D01*
X174567500Y-97911101D02*
G75*
G02*
X172367500Y-97911101I-1100000J0D01*
G01*
X172367500Y-97911101D02*
G75*
G02*
X174567500Y-97911101I1100000J0D01*
G01*
X174567500Y-100451101D02*
G75*
G02*
X172367500Y-100451101I-1100000J0D01*
G01*
X172367500Y-100451101D02*
G75*
G02*
X174567500Y-100451101I1100000J0D01*
G01*
X174567500Y-102991101D02*
G75*
G02*
X172367500Y-102991101I-1100000J0D01*
G01*
X172367500Y-102991101D02*
G75*
G02*
X174567500Y-102991101I1100000J0D01*
G01*
X174567500Y-105531101D02*
G75*
G02*
X172367500Y-105531101I-1100000J0D01*
G01*
X172367500Y-105531101D02*
G75*
G02*
X174567500Y-105531101I1100000J0D01*
G01*
X174567500Y-108071101D02*
G75*
G02*
X172367500Y-108071101I-1100000J0D01*
G01*
X172367500Y-108071101D02*
G75*
G02*
X174567500Y-108071101I1100000J0D01*
G01*
%TO.C,C1*%
X144820000Y-95131101D02*
X144820000Y-99431101D01*
X144820000Y-99431101D02*
X146720000Y-99431101D01*
X146720000Y-95131101D02*
X144820000Y-95131101D01*
X146720000Y-99431101D02*
X146720000Y-95131101D01*
%TO.C,C2*%
X148840000Y-95231101D02*
X148840000Y-99531101D01*
X148840000Y-99531101D02*
X150740000Y-99531101D01*
X150740000Y-95231101D02*
X148840000Y-95231101D01*
X150740000Y-99531101D02*
X150740000Y-95231101D01*
%TO.C,C3*%
X167110000Y-86120000D02*
X167110000Y-90420000D01*
X167110000Y-90420000D02*
X169010000Y-90420000D01*
X169010000Y-86120000D02*
X167110000Y-86120000D01*
X169010000Y-90420000D02*
X169010000Y-86120000D01*
%TO.C,U1*%
X161605000Y-95876101D02*
X162605000Y-94876101D01*
X161605000Y-99956101D02*
X161605000Y-95876101D01*
X162605000Y-94876101D02*
X167955000Y-94876101D01*
X167955000Y-94876101D02*
X167955000Y-99956101D01*
X167955000Y-99956101D02*
X161605000Y-99956101D01*
%TO.C,Q1*%
X135932500Y-97181101D02*
X137532500Y-97181101D01*
X135932500Y-100081101D02*
X135932500Y-97181101D01*
X137132500Y-100081101D02*
X135932500Y-100081101D01*
X137532500Y-97181101D02*
X137532500Y-99681101D01*
X137532500Y-99681101D02*
X137132500Y-100081101D01*
%TO.C,D2*%
X167510000Y-107610000D02*
X169310000Y-107610000D01*
X167510000Y-110410000D02*
X167510000Y-107610000D01*
X168010000Y-109260000D02*
X168410000Y-108660000D01*
X168410000Y-108260000D02*
X168410000Y-108660000D01*
X168410000Y-108660000D02*
X167860000Y-108660000D01*
X168410000Y-108660000D02*
X168810000Y-109260000D01*
X168410000Y-108660000D02*
X168960000Y-108660000D01*
X168410000Y-109260000D02*
X168410000Y-109760000D01*
X168810000Y-109260000D02*
X168010000Y-109260000D01*
X169310000Y-107610000D02*
X169310000Y-110410000D01*
X169310000Y-110410000D02*
X167510000Y-110410000D01*
%TO.C,D1*%
X172040000Y-92770000D02*
X174840000Y-92770000D01*
X172040000Y-94570000D02*
X172040000Y-92770000D01*
X173190000Y-93270000D02*
X173790000Y-93670000D01*
X173190000Y-93670000D02*
X172690000Y-93670000D01*
X173190000Y-94070000D02*
X173190000Y-93270000D01*
X173790000Y-93670000D02*
X173190000Y-94070000D01*
X173790000Y-93670000D02*
X173790000Y-93120000D01*
X173790000Y-93670000D02*
X173790000Y-94220000D01*
X174190000Y-93670000D02*
X173790000Y-93670000D01*
X174840000Y-92770000D02*
X174840000Y-94570000D01*
X174840000Y-94570000D02*
X172040000Y-94570000D01*
%TO.C,R3*%
X155870000Y-99380000D02*
X155870000Y-105680000D01*
X155870000Y-105680000D02*
X158370000Y-105680000D01*
X157120000Y-97450000D02*
X157120000Y-99380000D01*
X157120000Y-107610000D02*
X157120000Y-105680000D01*
X158370000Y-99380000D02*
X155870000Y-99380000D01*
X158370000Y-105680000D02*
X158370000Y-99380000D01*
%TO.C,J1*%
X126730000Y-95061101D02*
X127230000Y-94561101D01*
X126730000Y-100101101D02*
X126730000Y-95061101D01*
X127230000Y-94561101D02*
X127230000Y-100101101D01*
X127230000Y-94561101D02*
X132930000Y-94561101D01*
X130530000Y-96895101D02*
X128996000Y-95361101D01*
X130530000Y-99435101D02*
X128996000Y-97901101D01*
X130664000Y-96761101D02*
X129130000Y-95227101D01*
X130664000Y-99301101D02*
X129130000Y-97767101D01*
X132530000Y-94561101D02*
X132530000Y-100101101D01*
X132930000Y-94561101D02*
X132930000Y-100101101D01*
X132930000Y-100101101D02*
X126730000Y-100101101D01*
X130930000Y-96061101D02*
G75*
G02*
X128730000Y-96061101I-1100000J0D01*
G01*
X128730000Y-96061101D02*
G75*
G02*
X130930000Y-96061101I1100000J0D01*
G01*
X130930000Y-98601101D02*
G75*
G02*
X128730000Y-98601101I-1100000J0D01*
G01*
X128730000Y-98601101D02*
G75*
G02*
X130930000Y-98601101I1100000J0D01*
G01*
%TO.C,R1*%
X140420000Y-86591101D02*
X140420000Y-92891101D01*
X140420000Y-92891101D02*
X142920000Y-92891101D01*
X141670000Y-84661101D02*
X141670000Y-86591101D01*
X141670000Y-94821101D02*
X141670000Y-92891101D01*
X142920000Y-86591101D02*
X140420000Y-86591101D01*
X142920000Y-92891101D02*
X142920000Y-86591101D01*
%TO.C,J2*%
X170367500Y-85411101D02*
X176567500Y-85411101D01*
X170367500Y-90951101D02*
X170367500Y-85411101D01*
X170767500Y-90951101D02*
X170767500Y-85411101D01*
X172633500Y-86211101D02*
X174167500Y-87745101D01*
X172633500Y-88751101D02*
X174167500Y-90285101D01*
X172767500Y-86077101D02*
X174301500Y-87611101D01*
X172767500Y-88617101D02*
X174301500Y-90151101D01*
X176067500Y-90951101D02*
X170367500Y-90951101D01*
X176067500Y-90951101D02*
X176067500Y-85411101D01*
X176567500Y-85411101D02*
X176567500Y-90451101D01*
X176567500Y-90451101D02*
X176067500Y-90951101D01*
X174567500Y-86911101D02*
G75*
G02*
X172367500Y-86911101I-1100000J0D01*
G01*
X172367500Y-86911101D02*
G75*
G02*
X174567500Y-86911101I1100000J0D01*
G01*
X174567500Y-89451101D02*
G75*
G02*
X172367500Y-89451101I-1100000J0D01*
G01*
X172367500Y-89451101D02*
G75*
G02*
X174567500Y-89451101I1100000J0D01*
G01*
%TO.C,R2*%
X146970000Y-85920000D02*
X148900000Y-85920000D01*
X148900000Y-84670000D02*
X148900000Y-87170000D01*
X148900000Y-87170000D02*
X155200000Y-87170000D01*
X155200000Y-84670000D02*
X148900000Y-84670000D01*
X155200000Y-87170000D02*
X155200000Y-84670000D01*
X157130000Y-85920000D02*
X155200000Y-85920000D01*
%TO.C,S1*%
X152430000Y-94261101D02*
X153065000Y-93626101D01*
X152430000Y-101246101D02*
X152430000Y-94261101D01*
X153065000Y-93626101D02*
X154970000Y-93626101D01*
X154970000Y-93626101D02*
X154970000Y-101246101D01*
X154970000Y-101246101D02*
X152430000Y-101246101D01*
%TO.C,Q2*%
X152520000Y-113870000D02*
X156020000Y-113870000D01*
X152536375Y-113873625D02*
G75*
G02*
X154290000Y-109640000I1753625J1753625D01*
G01*
X154290000Y-109640000D02*
G75*
G02*
X156043625Y-113873625I0J-2480000D01*
G01*
%TO.C,R4*%
X146970000Y-89950000D02*
X148900000Y-89950000D01*
X148900000Y-88700000D02*
X148900000Y-91200000D01*
X148900000Y-91200000D02*
X155200000Y-91200000D01*
X155200000Y-88700000D02*
X148900000Y-88700000D01*
X155200000Y-91200000D02*
X155200000Y-88700000D01*
X157130000Y-89950000D02*
X155200000Y-89950000D01*
%TO.C,D3*%
X167540000Y-102372500D02*
X169340000Y-102372500D01*
X167540000Y-105172500D02*
X167540000Y-102372500D01*
X168040000Y-104022500D02*
X168440000Y-103422500D01*
X168440000Y-103022500D02*
X168440000Y-103422500D01*
X168440000Y-103422500D02*
X167890000Y-103422500D01*
X168440000Y-103422500D02*
X168840000Y-104022500D01*
X168440000Y-103422500D02*
X168990000Y-103422500D01*
X168440000Y-104022500D02*
X168440000Y-104522500D01*
X168840000Y-104022500D02*
X168040000Y-104022500D01*
X169340000Y-102372500D02*
X169340000Y-105172500D01*
X169340000Y-105172500D02*
X167540000Y-105172500D01*
%TD*%
M02*
