%TF.GenerationSoftware,KiCad,Pcbnew,9.0.1+1*%
%TF.CreationDate,2026-01-16T02:32:25+00:00*%
%TF.ProjectId,WALKIN_PIR_IF,57414c4b-494e-45f5-9049-525f49462e6b,B*%
%TF.SameCoordinates,Original*%
%TF.FileFunction,Soldermask,Top*%
%TF.FilePolarity,Negative*%
%FSLAX46Y46*%
G04 Gerber Fmt 4.6, Leading zero omitted, Abs format (unit mm)*
G04 Created by KiCad (PCBNEW 9.0.1+1) date 2026-01-16 02:32:25*
%MOMM*%
%LPD*%
G01*
G04 APERTURE LIST*
G04 Aperture macros list*
%AMRoundRect*
0 Rectangle with rounded corners*
0 $1 Rounding radius*
0 $2 $3 $4 $5 $6 $7 $8 $9 X,Y pos of 4 corners*
0 Add a 4 corners polygon primitive as box body*
4,1,4,$2,$3,$4,$5,$6,$7,$8,$9,$2,$3,0*
0 Add four circle primitives for the rounded corners*
1,1,$1+$1,$2,$3*
1,1,$1+$1,$4,$5*
1,1,$1+$1,$6,$7*
1,1,$1+$1,$8,$9*
0 Add four rect primitives between the rounded corners*
20,1,$1+$1,$2,$3,$4,$5,0*
20,1,$1+$1,$4,$5,$6,$7,0*
20,1,$1+$1,$6,$7,$8,$9,0*
20,1,$1+$1,$8,$9,$2,$3,0*%
G04 Aperture macros list end*
%ADD10RoundRect,0.249999X0.850001X-0.850001X0.850001X0.850001X-0.850001X0.850001X-0.850001X-0.850001X0*%
%ADD11C,2.200000*%
%ADD12C,1.600000*%
%ADD13RoundRect,0.250000X-0.550000X-0.550000X0.550000X-0.550000X0.550000X0.550000X-0.550000X0.550000X0*%
%ADD14RoundRect,0.150000X0.512500X0.150000X-0.512500X0.150000X-0.512500X-0.150000X0.512500X-0.150000X0*%
%ADD15RoundRect,0.250000X-0.300000X0.300000X-0.300000X-0.300000X0.300000X-0.300000X0.300000X0.300000X0*%
%ADD16RoundRect,0.250000X0.300000X0.300000X-0.300000X0.300000X-0.300000X-0.300000X0.300000X-0.300000X0*%
%ADD17O,1.600000X1.600000*%
%ADD18C,1.100000*%
%ADD19RoundRect,0.249999X-0.850001X0.850001X-0.850001X-0.850001X0.850001X-0.850001X0.850001X0.850001X0*%
%ADD20C,1.400000*%
%ADD21C,3.200000*%
%ADD22R,1.700000X1.700000*%
%ADD23O,1.700000X1.700000*%
%ADD24R,1.050000X1.500000*%
%ADD25O,1.050000X1.500000*%
G04 APERTURE END LIST*
D10*
%TO.C,J3*%
X173467500Y-108071101D03*
D11*
X173467500Y-105531101D03*
X173467500Y-102991101D03*
X173467500Y-100451101D03*
X173467500Y-97911101D03*
%TD*%
D12*
%TO.C,C1*%
X145770000Y-94781101D03*
X145770000Y-99781101D03*
%TD*%
%TO.C,C2*%
X149790000Y-94881101D03*
X149790000Y-99881101D03*
%TD*%
%TO.C,C3*%
X168060000Y-90770000D03*
X168060000Y-85770000D03*
%TD*%
D13*
%TO.C,U1*%
X160970000Y-96146101D03*
D12*
X160970000Y-98686101D03*
X168590000Y-98686101D03*
X168590000Y-96146101D03*
%TD*%
D14*
%TO.C,Q1*%
X137870000Y-99581101D03*
X137870000Y-97681101D03*
X135595000Y-98631101D03*
%TD*%
D15*
%TO.C,D2*%
X168410000Y-107610000D03*
X168410000Y-110410000D03*
%TD*%
D16*
%TO.C,D1*%
X174840000Y-93670000D03*
X172040000Y-93670000D03*
%TD*%
D12*
%TO.C,R3*%
X157120000Y-97450000D03*
D17*
X157120000Y-107610000D03*
%TD*%
D18*
%TO.C,J1*%
X127290000Y-96061101D03*
X127290000Y-98601101D03*
D19*
X129830000Y-96061101D03*
D11*
X129830000Y-98601101D03*
%TD*%
D20*
%TO.C,JP1*%
X130050000Y-102890000D03*
X132590000Y-102890000D03*
%TD*%
D21*
%TO.C,H1*%
X183525535Y-113885568D03*
%TD*%
%TO.C,H3*%
X183525535Y-80956635D03*
%TD*%
D12*
%TO.C,R1*%
X141670000Y-94821101D03*
D17*
X141670000Y-84661101D03*
%TD*%
D18*
%TO.C,J2*%
X176007500Y-89451101D03*
X176007500Y-86911101D03*
D10*
X173467500Y-89451101D03*
D11*
X173467500Y-86911101D03*
%TD*%
D21*
%TO.C,H4*%
X126455534Y-80956635D03*
%TD*%
D12*
%TO.C,R2*%
X146970000Y-85920000D03*
D17*
X157130000Y-85920000D03*
%TD*%
D21*
%TO.C,H2*%
X126455534Y-113885568D03*
%TD*%
D22*
%TO.C,S1*%
X153700000Y-94896101D03*
D23*
X153700000Y-97436101D03*
X153700000Y-99976101D03*
%TD*%
D24*
%TO.C,Q2*%
X153020000Y-112120000D03*
D25*
X154290000Y-112120000D03*
X155560000Y-112120000D03*
%TD*%
D12*
%TO.C,R4*%
X157130000Y-89950000D03*
D17*
X146970000Y-89950000D03*
%TD*%
D15*
%TO.C,D3*%
X168440000Y-102372500D03*
X168440000Y-105172500D03*
%TD*%
M02*
