%TF.GenerationSoftware,KiCad,Pcbnew,9.0.1+1*%
%TF.CreationDate,2026-01-24T05:02:46+00:00*%
%TF.ProjectId,WALKIN_PIR_IF,57414c4b-494e-45f5-9049-525f49462e6b,B*%
%TF.SameCoordinates,Original*%
%TF.FileFunction,Copper,L2,Bot*%
%TF.FilePolarity,Positive*%
%FSLAX46Y46*%
G04 Gerber Fmt 4.6, Leading zero omitted, Abs format (unit mm)*
G04 Created by KiCad (PCBNEW 9.0.1+1) date 2026-01-24 05:02:46*
%MOMM*%
%LPD*%
G01*
G04 APERTURE LIST*
G04 Aperture macros list*
%AMRoundRect*
0 Rectangle with rounded corners*
0 $1 Rounding radius*
0 $2 $3 $4 $5 $6 $7 $8 $9 X,Y pos of 4 corners*
0 Add a 4 corners polygon primitive as box body*
4,1,4,$2,$3,$4,$5,$6,$7,$8,$9,$2,$3,0*
0 Add four circle primitives for the rounded corners*
1,1,$1+$1,$2,$3*
1,1,$1+$1,$4,$5*
1,1,$1+$1,$6,$7*
1,1,$1+$1,$8,$9*
0 Add four rect primitives between the rounded corners*
20,1,$1+$1,$2,$3,$4,$5,0*
20,1,$1+$1,$4,$5,$6,$7,0*
20,1,$1+$1,$6,$7,$8,$9,0*
20,1,$1+$1,$8,$9,$2,$3,0*%
G04 Aperture macros list end*
%TA.AperFunction,ComponentPad*%
%ADD10RoundRect,0.249999X0.850001X-0.850001X0.850001X0.850001X-0.850001X0.850001X-0.850001X-0.850001X0*%
%TD*%
%TA.AperFunction,ComponentPad*%
%ADD11C,2.200000*%
%TD*%
%TA.AperFunction,ComponentPad*%
%ADD12C,1.600000*%
%TD*%
%TA.AperFunction,ComponentPad*%
%ADD13RoundRect,0.250000X-0.550000X-0.550000X0.550000X-0.550000X0.550000X0.550000X-0.550000X0.550000X0*%
%TD*%
%TA.AperFunction,ComponentPad*%
%ADD14O,1.600000X1.600000*%
%TD*%
%TA.AperFunction,ComponentPad*%
%ADD15RoundRect,0.249999X-0.850001X0.850001X-0.850001X-0.850001X0.850001X-0.850001X0.850001X0.850001X0*%
%TD*%
%TA.AperFunction,ComponentPad*%
%ADD16C,1.400000*%
%TD*%
%TA.AperFunction,ComponentPad*%
%ADD17R,1.700000X1.700000*%
%TD*%
%TA.AperFunction,ComponentPad*%
%ADD18O,1.700000X1.700000*%
%TD*%
%TA.AperFunction,ComponentPad*%
%ADD19R,1.050000X1.500000*%
%TD*%
%TA.AperFunction,ComponentPad*%
%ADD20O,1.050000X1.500000*%
%TD*%
%TA.AperFunction,ViaPad*%
%ADD21C,0.600000*%
%TD*%
G04 APERTURE END LIST*
D10*
%TO.P,J3,1,Pin_1*%
%TO.N,/DIN1*%
X173467500Y-108071101D03*
D11*
%TO.P,J3,2,Pin_2*%
%TO.N,/DIN2*%
X173467500Y-105531101D03*
%TO.P,J3,3,Pin_3*%
%TO.N,/COM*%
X173467500Y-102991101D03*
%TO.P,J3,4,Pin_4*%
%TO.N,/NTC1*%
X173467500Y-100451101D03*
%TO.P,J3,5,Pin_5*%
%TO.N,/NTC2*%
X173467500Y-97911101D03*
%TD*%
D12*
%TO.P,C1,1*%
%TO.N,VDD*%
X145770000Y-94781101D03*
%TO.P,C1,2*%
%TO.N,GND*%
X145770000Y-99781101D03*
%TD*%
%TO.P,C2,1*%
%TO.N,VDD*%
X149790000Y-94881101D03*
%TO.P,C2,2*%
%TO.N,GND*%
X149790000Y-99881101D03*
%TD*%
%TO.P,C3,1*%
%TO.N,/NTC1*%
X168060000Y-90770000D03*
%TO.P,C3,2*%
%TO.N,/NTC2*%
X168060000Y-85770000D03*
%TD*%
D13*
%TO.P,U1,1*%
%TO.N,/PM_LED_A*%
X160970000Y-96146101D03*
D12*
%TO.P,U1,2*%
%TO.N,/PM_LED_K*%
X160970000Y-98686101D03*
%TO.P,U1,3*%
%TO.N,/COM*%
X168590000Y-98686101D03*
%TO.P,U1,4*%
%TO.N,/DIN1*%
X168590000Y-96146101D03*
%TD*%
%TO.P,R3,1*%
%TO.N,/PIR_SIG*%
X157120000Y-97450000D03*
D14*
%TO.P,R3,2*%
%TO.N,Net-(Q2-G)*%
X157120000Y-107610000D03*
%TD*%
D15*
%TO.P,J1,1,VBAT+*%
%TO.N,GND*%
X129830000Y-96061101D03*
D11*
%TO.P,J1,2,VBAT-*%
%TO.N,/VBAT*%
X129830000Y-98601101D03*
%TD*%
D16*
%TO.P,JP1,1,A*%
%TO.N,/VBAT*%
X130050000Y-102890000D03*
%TO.P,JP1,2,B*%
%TO.N,Net-(JP1-B)*%
X132590000Y-102890000D03*
%TD*%
D12*
%TO.P,R1,1*%
%TO.N,VDD*%
X139950000Y-95610000D03*
D14*
%TO.P,R1,2*%
%TO.N,GND*%
X139950000Y-85450000D03*
%TD*%
D10*
%TO.P,J2,1,VBAT-*%
%TO.N,/NTC1*%
X173467500Y-89451101D03*
D11*
%TO.P,J2,2,VBAT+*%
%TO.N,/NTC2*%
X173467500Y-86911101D03*
%TD*%
D12*
%TO.P,R2,1*%
%TO.N,VDD*%
X144630000Y-90140000D03*
D14*
%TO.P,R2,2*%
%TO.N,/PM_LED_A*%
X154790000Y-90140000D03*
%TD*%
D17*
%TO.P,S1,1,VCC*%
%TO.N,VDD*%
X153700000Y-94896101D03*
D18*
%TO.P,S1,2,VOUT*%
%TO.N,/PIR_SIG*%
X153700000Y-97436101D03*
%TO.P,S1,3,GND*%
%TO.N,GND*%
X153700000Y-99976101D03*
%TD*%
D19*
%TO.P,Q2,1,S*%
%TO.N,GND*%
X155840000Y-113080000D03*
D20*
%TO.P,Q2,2,G*%
%TO.N,Net-(Q2-G)*%
X157110000Y-113080000D03*
%TO.P,Q2,3,D*%
%TO.N,/PM_LED_K*%
X158380000Y-113080000D03*
%TD*%
D12*
%TO.P,R4,1*%
%TO.N,Net-(Q2-G)*%
X152500000Y-114900000D03*
D14*
%TO.P,R4,2*%
%TO.N,GND*%
X152500000Y-104740000D03*
%TD*%
D21*
%TO.N,GND*%
X137850000Y-103320000D03*
%TO.N,/COM*%
X166730000Y-106330000D03*
%TD*%
%TA.AperFunction,Conductor*%
%TO.N,/COM*%
G36*
X169365677Y-94319685D02*
G01*
X169386319Y-94336319D01*
X170243681Y-95193681D01*
X170277166Y-95255004D01*
X170280000Y-95281362D01*
X170280000Y-99500000D01*
X172537833Y-101707881D01*
X173297266Y-102467313D01*
X173255208Y-102478583D01*
X173129792Y-102550991D01*
X173027390Y-102653393D01*
X172954982Y-102778809D01*
X172943712Y-102820866D01*
X172173248Y-102050401D01*
X172173247Y-102050402D01*
X172099059Y-102152514D01*
X171984719Y-102376916D01*
X171906897Y-102616431D01*
X171867500Y-102865172D01*
X171867500Y-103117029D01*
X171906897Y-103365770D01*
X171984719Y-103605285D01*
X172099057Y-103829684D01*
X172173248Y-103931798D01*
X172173248Y-103931799D01*
X172943712Y-103161335D01*
X172954982Y-103203393D01*
X173027390Y-103328809D01*
X173129792Y-103431211D01*
X173255208Y-103503619D01*
X173297265Y-103514888D01*
X172526800Y-104285351D01*
X172610618Y-104346249D01*
X172653283Y-104401579D01*
X172659262Y-104471193D01*
X172626656Y-104532988D01*
X172622978Y-104536437D01*
X172475528Y-104683887D01*
X172355215Y-104849487D01*
X172262281Y-105031877D01*
X172199022Y-105226566D01*
X172167000Y-105428749D01*
X172167000Y-105633452D01*
X172199022Y-105835635D01*
X172262281Y-106030324D01*
X172355215Y-106212714D01*
X172475528Y-106378314D01*
X172620282Y-106523068D01*
X172620284Y-106523069D01*
X172652234Y-106546282D01*
X172694900Y-106601611D01*
X172700881Y-106671224D01*
X172668276Y-106733020D01*
X172607438Y-106767378D01*
X172579357Y-106770601D01*
X172563241Y-106770601D01*
X172552437Y-106771614D01*
X172532800Y-106773455D01*
X172532797Y-106773455D01*
X172532796Y-106773456D01*
X172532794Y-106773456D01*
X172404617Y-106818307D01*
X172295349Y-106898950D01*
X172214706Y-107008219D01*
X172169853Y-107136398D01*
X172169853Y-107136400D01*
X172167000Y-107166830D01*
X172167000Y-108975361D01*
X172167001Y-108975367D01*
X172169854Y-109005801D01*
X172169854Y-109005803D01*
X172169855Y-109005804D01*
X172169855Y-109005806D01*
X172214706Y-109133983D01*
X172295349Y-109243251D01*
X172349983Y-109283572D01*
X172404617Y-109323894D01*
X172447344Y-109338845D01*
X172532798Y-109368747D01*
X172539823Y-109369405D01*
X172563233Y-109371601D01*
X174371766Y-109371600D01*
X174402200Y-109368747D01*
X174530383Y-109323894D01*
X174639650Y-109243251D01*
X174720293Y-109133984D01*
X174742719Y-109069892D01*
X174765146Y-109005803D01*
X174765146Y-109005801D01*
X174768000Y-108975368D01*
X174767999Y-107166835D01*
X174765146Y-107136401D01*
X174720293Y-107008218D01*
X174639650Y-106898950D01*
X174565623Y-106844316D01*
X174530383Y-106818308D01*
X174530381Y-106818307D01*
X174402201Y-106773454D01*
X174371771Y-106770601D01*
X174371767Y-106770601D01*
X174355651Y-106770601D01*
X174288612Y-106750916D01*
X174242857Y-106698112D01*
X174232913Y-106628954D01*
X174261938Y-106565398D01*
X174282766Y-106546283D01*
X174314713Y-106523072D01*
X174314715Y-106523069D01*
X174314719Y-106523067D01*
X174459466Y-106378320D01*
X174459468Y-106378316D01*
X174459471Y-106378314D01*
X174512232Y-106305691D01*
X174579787Y-106212711D01*
X174672720Y-106030320D01*
X174735977Y-105835635D01*
X174768000Y-105633453D01*
X174768000Y-105428749D01*
X174735977Y-105226567D01*
X174672720Y-105031882D01*
X174672718Y-105031879D01*
X174672718Y-105031877D01*
X174639003Y-104965708D01*
X174579787Y-104849491D01*
X174572056Y-104838850D01*
X174459471Y-104683887D01*
X174311274Y-104535690D01*
X174312534Y-104534429D01*
X174278536Y-104482331D01*
X174278048Y-104412463D01*
X174315411Y-104353422D01*
X174324381Y-104346248D01*
X174408197Y-104285351D01*
X174408198Y-104285351D01*
X173637734Y-103514888D01*
X173679792Y-103503619D01*
X173805208Y-103431211D01*
X173907610Y-103328809D01*
X173980018Y-103203393D01*
X173991287Y-103161335D01*
X174761750Y-103931799D01*
X174761750Y-103931798D01*
X174835942Y-103829682D01*
X174835946Y-103829676D01*
X174950280Y-103605285D01*
X175028102Y-103365770D01*
X175067500Y-103117029D01*
X175067500Y-102865172D01*
X175028102Y-102616431D01*
X174950280Y-102376916D01*
X174835942Y-102152517D01*
X174761750Y-102050402D01*
X174761750Y-102050401D01*
X173991287Y-102820865D01*
X173980018Y-102778809D01*
X173907610Y-102653393D01*
X173805208Y-102550991D01*
X173679792Y-102478583D01*
X173637732Y-102467312D01*
X174426336Y-101678710D01*
X174433987Y-101674532D01*
X175157281Y-101660987D01*
X175224678Y-101679413D01*
X175247284Y-101697284D01*
X177373681Y-103823681D01*
X177407166Y-103885004D01*
X177410000Y-103911362D01*
X177410000Y-109358638D01*
X177390315Y-109425677D01*
X177373681Y-109446319D01*
X174476319Y-112343681D01*
X174414996Y-112377166D01*
X174388638Y-112380000D01*
X167981362Y-112380000D01*
X167914323Y-112360315D01*
X167893681Y-112343681D01*
X165696319Y-110146319D01*
X165662834Y-110084996D01*
X165660000Y-110058638D01*
X165660000Y-98583783D01*
X167290000Y-98583783D01*
X167290000Y-98788418D01*
X167322009Y-98990518D01*
X167385244Y-99185132D01*
X167478141Y-99367451D01*
X167478147Y-99367460D01*
X167510523Y-99412022D01*
X167510524Y-99412023D01*
X168190000Y-98732547D01*
X168190000Y-98738762D01*
X168217259Y-98840495D01*
X168269920Y-98931707D01*
X168344394Y-99006181D01*
X168435606Y-99058842D01*
X168537339Y-99086101D01*
X168543553Y-99086101D01*
X167864076Y-99765575D01*
X167908650Y-99797960D01*
X168090968Y-99890856D01*
X168285582Y-99954091D01*
X168487683Y-99986101D01*
X168692317Y-99986101D01*
X168894417Y-99954091D01*
X169089031Y-99890856D01*
X169271349Y-99797960D01*
X169315921Y-99765575D01*
X168636447Y-99086101D01*
X168642661Y-99086101D01*
X168744394Y-99058842D01*
X168835606Y-99006181D01*
X168910080Y-98931707D01*
X168962741Y-98840495D01*
X168990000Y-98738762D01*
X168990000Y-98732549D01*
X169669474Y-99412023D01*
X169669474Y-99412022D01*
X169701859Y-99367450D01*
X169794755Y-99185132D01*
X169857990Y-98990518D01*
X169890000Y-98788418D01*
X169890000Y-98583783D01*
X169857990Y-98381683D01*
X169794755Y-98187069D01*
X169701859Y-98004751D01*
X169669474Y-97960178D01*
X169669474Y-97960177D01*
X168990000Y-98639652D01*
X168990000Y-98633440D01*
X168962741Y-98531707D01*
X168910080Y-98440495D01*
X168835606Y-98366021D01*
X168744394Y-98313360D01*
X168642661Y-98286101D01*
X168636446Y-98286101D01*
X169315922Y-97606625D01*
X169315921Y-97606624D01*
X169271359Y-97574248D01*
X169271350Y-97574242D01*
X169089031Y-97481345D01*
X168894417Y-97418110D01*
X168705731Y-97388225D01*
X168642596Y-97358295D01*
X168605665Y-97298984D01*
X168606663Y-97229121D01*
X168645273Y-97170889D01*
X168700938Y-97144135D01*
X168881835Y-97108152D01*
X169063914Y-97032733D01*
X169227782Y-96923240D01*
X169367139Y-96783883D01*
X169476632Y-96620015D01*
X169552051Y-96437936D01*
X169590500Y-96244642D01*
X169590500Y-96047560D01*
X169590500Y-96047557D01*
X169552052Y-95854271D01*
X169552051Y-95854270D01*
X169552051Y-95854266D01*
X169552049Y-95854261D01*
X169476635Y-95672193D01*
X169476628Y-95672180D01*
X169367139Y-95508319D01*
X169367136Y-95508315D01*
X169227785Y-95368964D01*
X169227781Y-95368961D01*
X169063920Y-95259472D01*
X169063907Y-95259465D01*
X168881839Y-95184051D01*
X168881829Y-95184048D01*
X168688543Y-95145601D01*
X168688541Y-95145601D01*
X168491459Y-95145601D01*
X168491457Y-95145601D01*
X168298170Y-95184048D01*
X168298160Y-95184051D01*
X168116092Y-95259465D01*
X168116079Y-95259472D01*
X167952218Y-95368961D01*
X167952214Y-95368964D01*
X167812863Y-95508315D01*
X167812860Y-95508319D01*
X167703371Y-95672180D01*
X167703364Y-95672193D01*
X167627950Y-95854261D01*
X167627947Y-95854271D01*
X167589500Y-96047557D01*
X167589500Y-96047560D01*
X167589500Y-96244642D01*
X167589500Y-96244644D01*
X167589499Y-96244644D01*
X167627947Y-96437930D01*
X167627950Y-96437940D01*
X167703364Y-96620008D01*
X167703371Y-96620021D01*
X167812860Y-96783882D01*
X167812863Y-96783886D01*
X167952214Y-96923237D01*
X167952218Y-96923240D01*
X168116079Y-97032729D01*
X168116092Y-97032736D01*
X168298160Y-97108150D01*
X168298165Y-97108152D01*
X168430674Y-97134510D01*
X168479061Y-97144135D01*
X168540972Y-97176520D01*
X168575546Y-97237235D01*
X168571807Y-97307005D01*
X168530940Y-97363677D01*
X168474269Y-97388225D01*
X168285581Y-97418111D01*
X168090968Y-97481345D01*
X167908644Y-97574244D01*
X167864077Y-97606624D01*
X167864077Y-97606625D01*
X168543554Y-98286101D01*
X168537339Y-98286101D01*
X168435606Y-98313360D01*
X168344394Y-98366021D01*
X168269920Y-98440495D01*
X168217259Y-98531707D01*
X168190000Y-98633440D01*
X168190000Y-98639654D01*
X167510524Y-97960178D01*
X167510523Y-97960178D01*
X167478143Y-98004745D01*
X167385244Y-98187069D01*
X167322009Y-98381683D01*
X167290000Y-98583783D01*
X165660000Y-98583783D01*
X165660000Y-96551362D01*
X165679685Y-96484323D01*
X165696319Y-96463681D01*
X167823681Y-94336319D01*
X167885004Y-94302834D01*
X167911362Y-94300000D01*
X169298638Y-94300000D01*
X169365677Y-94319685D01*
G37*
%TD.AperFunction*%
%TD*%
%TA.AperFunction,Conductor*%
%TO.N,GND*%
G36*
X161833039Y-77941286D02*
G01*
X161878794Y-77994090D01*
X161890000Y-78045601D01*
X161890000Y-94756356D01*
X161870315Y-94823395D01*
X161817511Y-94869150D01*
X161748353Y-94879094D01*
X161726998Y-94874062D01*
X161672797Y-94856102D01*
X161672795Y-94856101D01*
X161570010Y-94845601D01*
X160369998Y-94845601D01*
X160369981Y-94845602D01*
X160267203Y-94856101D01*
X160267200Y-94856102D01*
X160100668Y-94911286D01*
X160100663Y-94911288D01*
X159951342Y-95003390D01*
X159827289Y-95127443D01*
X159735187Y-95276764D01*
X159735185Y-95276769D01*
X159725676Y-95305465D01*
X159680001Y-95443304D01*
X159680001Y-95443305D01*
X159680000Y-95443305D01*
X159669500Y-95546084D01*
X159669500Y-96746102D01*
X159669501Y-96746119D01*
X159680000Y-96848897D01*
X159680001Y-96848900D01*
X159735185Y-97015432D01*
X159735187Y-97015437D01*
X159765016Y-97063797D01*
X159827288Y-97164757D01*
X159951344Y-97288813D01*
X160100666Y-97380915D01*
X160182570Y-97408055D01*
X160240015Y-97447828D01*
X160266838Y-97512344D01*
X160254523Y-97581119D01*
X160216451Y-97626079D01*
X160122787Y-97694129D01*
X160122782Y-97694133D01*
X159978028Y-97838887D01*
X159857715Y-98004487D01*
X159764781Y-98186877D01*
X159701522Y-98381566D01*
X159669500Y-98583749D01*
X159669500Y-98788452D01*
X159701522Y-98990635D01*
X159764781Y-99185324D01*
X159857715Y-99367714D01*
X159978028Y-99533314D01*
X160122786Y-99678072D01*
X160261406Y-99778783D01*
X160288390Y-99798388D01*
X160404607Y-99857604D01*
X160470776Y-99891319D01*
X160470778Y-99891319D01*
X160470781Y-99891321D01*
X160575137Y-99925228D01*
X160665465Y-99954578D01*
X160762633Y-99969968D01*
X160867648Y-99986601D01*
X160867649Y-99986601D01*
X161072351Y-99986601D01*
X161072352Y-99986601D01*
X161274534Y-99954578D01*
X161469219Y-99891321D01*
X161651610Y-99798388D01*
X161693116Y-99768232D01*
X161758920Y-99744753D01*
X161826974Y-99760578D01*
X161875669Y-99810683D01*
X161890000Y-99868551D01*
X161890000Y-116796601D01*
X161870315Y-116863640D01*
X161817511Y-116909395D01*
X161766000Y-116920601D01*
X130797364Y-116920601D01*
X130730325Y-116900916D01*
X130684570Y-116848112D01*
X130674626Y-116778954D01*
X130695788Y-116725479D01*
X130725194Y-116683483D01*
X130949460Y-116295044D01*
X131139018Y-115888537D01*
X131292424Y-115467055D01*
X131408513Y-115033807D01*
X131450154Y-114797648D01*
X151199500Y-114797648D01*
X151199500Y-115002351D01*
X151231522Y-115204534D01*
X151294781Y-115399223D01*
X151387715Y-115581613D01*
X151508028Y-115747213D01*
X151652786Y-115891971D01*
X151807749Y-116004556D01*
X151818390Y-116012287D01*
X151934607Y-116071503D01*
X152000776Y-116105218D01*
X152000778Y-116105218D01*
X152000781Y-116105220D01*
X152105137Y-116139127D01*
X152195465Y-116168477D01*
X152296557Y-116184488D01*
X152397648Y-116200500D01*
X152397649Y-116200500D01*
X152602351Y-116200500D01*
X152602352Y-116200500D01*
X152804534Y-116168477D01*
X152999219Y-116105220D01*
X153181610Y-116012287D01*
X153274590Y-115944732D01*
X153347213Y-115891971D01*
X153347215Y-115891968D01*
X153347219Y-115891966D01*
X153491966Y-115747219D01*
X153491968Y-115747215D01*
X153491971Y-115747213D01*
X153545840Y-115673067D01*
X153612287Y-115581610D01*
X153705220Y-115399219D01*
X153768477Y-115204534D01*
X153800500Y-115002352D01*
X153800500Y-114797648D01*
X153768477Y-114595466D01*
X153767381Y-114592094D01*
X153705218Y-114400776D01*
X153665892Y-114323596D01*
X153612287Y-114218390D01*
X153569934Y-114160095D01*
X153491971Y-114052786D01*
X153347213Y-113908028D01*
X153181613Y-113787715D01*
X153181612Y-113787714D01*
X153181610Y-113787713D01*
X153124653Y-113758691D01*
X152999223Y-113694781D01*
X152804534Y-113631522D01*
X152629995Y-113603878D01*
X152602352Y-113599500D01*
X152397648Y-113599500D01*
X152373329Y-113603351D01*
X152195465Y-113631522D01*
X152000776Y-113694781D01*
X151818386Y-113787715D01*
X151652786Y-113908028D01*
X151508028Y-114052786D01*
X151387715Y-114218386D01*
X151294781Y-114400776D01*
X151231522Y-114595465D01*
X151199500Y-114797648D01*
X131450154Y-114797648D01*
X131454810Y-114771244D01*
X131486398Y-114592096D01*
X131486398Y-114592094D01*
X131486399Y-114592090D01*
X131525492Y-114145266D01*
X131525492Y-113696734D01*
X131486399Y-113249910D01*
X131408513Y-112808193D01*
X131292424Y-112374945D01*
X131286511Y-112358699D01*
X131272885Y-112321260D01*
X131258652Y-112282155D01*
X154815000Y-112282155D01*
X154815000Y-112830000D01*
X155559670Y-112830000D01*
X155539925Y-112849745D01*
X155490556Y-112935255D01*
X155465000Y-113030630D01*
X155465000Y-113129370D01*
X155490556Y-113224745D01*
X155539925Y-113310255D01*
X155559670Y-113330000D01*
X154815000Y-113330000D01*
X154815000Y-113877844D01*
X154821401Y-113937372D01*
X154821403Y-113937379D01*
X154871645Y-114072086D01*
X154871649Y-114072093D01*
X154957809Y-114187187D01*
X154957812Y-114187190D01*
X155072906Y-114273350D01*
X155072913Y-114273354D01*
X155207620Y-114323596D01*
X155207627Y-114323598D01*
X155267155Y-114329999D01*
X155267172Y-114330000D01*
X155590000Y-114330000D01*
X155590000Y-113360330D01*
X155609745Y-113380075D01*
X155695255Y-113429444D01*
X155790630Y-113455000D01*
X155889370Y-113455000D01*
X155984745Y-113429444D01*
X156070255Y-113380075D01*
X156084500Y-113365830D01*
X156084500Y-113406002D01*
X156087617Y-113421671D01*
X156090000Y-113445865D01*
X156090000Y-114330000D01*
X156412828Y-114330000D01*
X156412844Y-114329999D01*
X156472372Y-114323598D01*
X156472376Y-114323597D01*
X156607089Y-114273352D01*
X156607896Y-114272748D01*
X156608845Y-114272393D01*
X156614876Y-114269101D01*
X156615349Y-114269967D01*
X156673360Y-114248329D01*
X156729661Y-114257451D01*
X156810873Y-114291091D01*
X156974288Y-114323596D01*
X157008992Y-114330499D01*
X157008996Y-114330500D01*
X157008997Y-114330500D01*
X157211004Y-114330500D01*
X157211005Y-114330499D01*
X157409127Y-114291091D01*
X157595756Y-114213786D01*
X157676110Y-114160094D01*
X157742786Y-114139217D01*
X157810166Y-114157701D01*
X157813865Y-114160078D01*
X157894244Y-114213786D01*
X158080873Y-114291091D01*
X158244288Y-114323596D01*
X158278992Y-114330499D01*
X158278996Y-114330500D01*
X158278997Y-114330500D01*
X158481004Y-114330500D01*
X158481005Y-114330499D01*
X158679127Y-114291091D01*
X158865756Y-114213786D01*
X158968303Y-114145267D01*
X159033718Y-114101558D01*
X159176558Y-113958718D01*
X159288782Y-113790762D01*
X159288782Y-113790761D01*
X159288786Y-113790756D01*
X159366091Y-113604127D01*
X159405500Y-113406003D01*
X159405500Y-112753997D01*
X159366091Y-112555873D01*
X159288786Y-112369244D01*
X159288784Y-112369241D01*
X159288782Y-112369237D01*
X159176558Y-112201281D01*
X159033718Y-112058441D01*
X158865762Y-111946217D01*
X158865752Y-111946212D01*
X158679127Y-111868909D01*
X158679119Y-111868907D01*
X158481007Y-111829500D01*
X158481003Y-111829500D01*
X158278997Y-111829500D01*
X158278992Y-111829500D01*
X158080880Y-111868907D01*
X158080872Y-111868909D01*
X157894244Y-111946213D01*
X157813891Y-111999904D01*
X157747213Y-112020782D01*
X157679833Y-112002297D01*
X157676109Y-111999904D01*
X157595755Y-111946213D01*
X157409127Y-111868909D01*
X157409119Y-111868907D01*
X157211007Y-111829500D01*
X157211003Y-111829500D01*
X157008997Y-111829500D01*
X157008992Y-111829500D01*
X156810880Y-111868907D01*
X156810868Y-111868910D01*
X156729661Y-111902547D01*
X156660191Y-111910016D01*
X156615140Y-111890405D01*
X156614872Y-111890897D01*
X156609374Y-111887894D01*
X156607895Y-111887251D01*
X156607086Y-111886645D01*
X156472379Y-111836403D01*
X156472372Y-111836401D01*
X156412844Y-111830000D01*
X156090000Y-111830000D01*
X156090000Y-112714134D01*
X156087617Y-112738326D01*
X156084500Y-112753995D01*
X156084500Y-112794170D01*
X156070255Y-112779925D01*
X155984745Y-112730556D01*
X155889370Y-112705000D01*
X155790630Y-112705000D01*
X155695255Y-112730556D01*
X155609745Y-112779925D01*
X155590000Y-112799670D01*
X155590000Y-111830000D01*
X155267155Y-111830000D01*
X155207627Y-111836401D01*
X155207620Y-111836403D01*
X155072913Y-111886645D01*
X155072906Y-111886649D01*
X154957812Y-111972809D01*
X154957809Y-111972812D01*
X154871649Y-112087906D01*
X154871645Y-112087913D01*
X154821403Y-112222620D01*
X154821401Y-112222627D01*
X154815000Y-112282155D01*
X131258652Y-112282155D01*
X131139020Y-111953467D01*
X131139016Y-111953457D01*
X130949464Y-111546965D01*
X130949456Y-111546949D01*
X130935373Y-111522557D01*
X130725194Y-111158517D01*
X130467928Y-110791101D01*
X130467927Y-110791099D01*
X130299493Y-110590368D01*
X130179617Y-110447506D01*
X129862458Y-110130347D01*
X129767216Y-110050429D01*
X129518864Y-109842036D01*
X129151464Y-109584782D01*
X129151447Y-109584770D01*
X128988837Y-109490887D01*
X128763014Y-109360507D01*
X128762998Y-109360499D01*
X128356506Y-109170947D01*
X128356496Y-109170943D01*
X127935015Y-109017538D01*
X127501772Y-108901451D01*
X127501761Y-108901449D01*
X127060059Y-108823565D01*
X126613231Y-108784472D01*
X126613230Y-108784472D01*
X126164698Y-108784472D01*
X126164697Y-108784472D01*
X125717869Y-108823565D01*
X125717867Y-108823565D01*
X125276166Y-108901449D01*
X125276155Y-108901451D01*
X124842912Y-109017538D01*
X124421431Y-109170943D01*
X124421421Y-109170947D01*
X124014929Y-109360499D01*
X124014913Y-109360507D01*
X123626489Y-109584765D01*
X123626464Y-109584781D01*
X123615490Y-109592465D01*
X123549283Y-109614790D01*
X123481516Y-109597776D01*
X123433706Y-109546826D01*
X123420371Y-109490887D01*
X123420371Y-107507648D01*
X155819500Y-107507648D01*
X155819500Y-107712351D01*
X155851522Y-107914534D01*
X155914781Y-108109223D01*
X156007715Y-108291613D01*
X156128028Y-108457213D01*
X156272786Y-108601971D01*
X156427749Y-108714556D01*
X156438390Y-108722287D01*
X156554607Y-108781503D01*
X156620776Y-108815218D01*
X156620778Y-108815218D01*
X156620781Y-108815220D01*
X156725137Y-108849127D01*
X156815465Y-108878477D01*
X156916557Y-108894488D01*
X157017648Y-108910500D01*
X157017649Y-108910500D01*
X157222351Y-108910500D01*
X157222352Y-108910500D01*
X157424534Y-108878477D01*
X157619219Y-108815220D01*
X157801610Y-108722287D01*
X157894590Y-108654732D01*
X157967213Y-108601971D01*
X157967215Y-108601968D01*
X157967219Y-108601966D01*
X158111966Y-108457219D01*
X158111968Y-108457215D01*
X158111971Y-108457213D01*
X158164732Y-108384590D01*
X158232287Y-108291610D01*
X158325220Y-108109219D01*
X158388477Y-107914534D01*
X158420500Y-107712352D01*
X158420500Y-107507648D01*
X158388477Y-107305466D01*
X158325220Y-107110781D01*
X158325218Y-107110778D01*
X158325218Y-107110776D01*
X158291503Y-107044607D01*
X158232287Y-106928390D01*
X158224556Y-106917749D01*
X158111971Y-106762786D01*
X157967213Y-106618028D01*
X157801613Y-106497715D01*
X157801612Y-106497714D01*
X157801610Y-106497713D01*
X157744653Y-106468691D01*
X157619223Y-106404781D01*
X157424534Y-106341522D01*
X157249995Y-106313878D01*
X157222352Y-106309500D01*
X157017648Y-106309500D01*
X156993329Y-106313351D01*
X156815465Y-106341522D01*
X156620776Y-106404781D01*
X156438386Y-106497715D01*
X156272786Y-106618028D01*
X156128028Y-106762786D01*
X156007715Y-106928386D01*
X155914781Y-107110776D01*
X155851522Y-107305465D01*
X155819500Y-107507648D01*
X123420371Y-107507648D01*
X123420371Y-104490000D01*
X151223391Y-104490000D01*
X152184314Y-104490000D01*
X152179920Y-104494394D01*
X152127259Y-104585606D01*
X152100000Y-104687339D01*
X152100000Y-104792661D01*
X152127259Y-104894394D01*
X152179920Y-104985606D01*
X152184314Y-104990000D01*
X151223391Y-104990000D01*
X151232009Y-105044413D01*
X151295244Y-105239029D01*
X151388140Y-105421349D01*
X151508417Y-105586894D01*
X151508417Y-105586895D01*
X151653104Y-105731582D01*
X151818650Y-105851859D01*
X152000968Y-105944754D01*
X152195578Y-106007988D01*
X152250000Y-106016607D01*
X152250000Y-105055686D01*
X152254394Y-105060080D01*
X152345606Y-105112741D01*
X152447339Y-105140000D01*
X152552661Y-105140000D01*
X152654394Y-105112741D01*
X152745606Y-105060080D01*
X152750000Y-105055686D01*
X152750000Y-106016606D01*
X152804421Y-106007988D01*
X152999031Y-105944754D01*
X153181349Y-105851859D01*
X153346894Y-105731582D01*
X153346895Y-105731582D01*
X153491582Y-105586895D01*
X153491582Y-105586894D01*
X153611859Y-105421349D01*
X153704755Y-105239029D01*
X153767990Y-105044413D01*
X153776609Y-104990000D01*
X152815686Y-104990000D01*
X152820080Y-104985606D01*
X152872741Y-104894394D01*
X152900000Y-104792661D01*
X152900000Y-104687339D01*
X152872741Y-104585606D01*
X152820080Y-104494394D01*
X152815686Y-104490000D01*
X153776609Y-104490000D01*
X153767990Y-104435586D01*
X153704755Y-104240970D01*
X153611859Y-104058650D01*
X153491582Y-103893105D01*
X153491582Y-103893104D01*
X153346895Y-103748417D01*
X153181349Y-103628140D01*
X152999029Y-103535244D01*
X152804413Y-103472009D01*
X152750000Y-103463390D01*
X152750000Y-104424314D01*
X152745606Y-104419920D01*
X152654394Y-104367259D01*
X152552661Y-104340000D01*
X152447339Y-104340000D01*
X152345606Y-104367259D01*
X152254394Y-104419920D01*
X152250000Y-104424314D01*
X152250000Y-103463390D01*
X152195586Y-103472009D01*
X152000970Y-103535244D01*
X151818650Y-103628140D01*
X151653105Y-103748417D01*
X151653104Y-103748417D01*
X151508417Y-103893104D01*
X151508417Y-103893105D01*
X151388140Y-104058650D01*
X151295244Y-104240970D01*
X151232009Y-104435586D01*
X151223391Y-104490000D01*
X123420371Y-104490000D01*
X123420371Y-102795513D01*
X128849500Y-102795513D01*
X128849500Y-102984486D01*
X128879059Y-103171118D01*
X128937454Y-103350836D01*
X129023240Y-103519199D01*
X129134310Y-103672073D01*
X129267927Y-103805690D01*
X129420801Y-103916760D01*
X129500347Y-103957290D01*
X129589163Y-104002545D01*
X129589165Y-104002545D01*
X129589168Y-104002547D01*
X129685497Y-104033846D01*
X129768881Y-104060940D01*
X129955514Y-104090500D01*
X129955519Y-104090500D01*
X130144486Y-104090500D01*
X130331118Y-104060940D01*
X130338166Y-104058650D01*
X130510832Y-104002547D01*
X130679199Y-103916760D01*
X130832073Y-103805690D01*
X130965690Y-103672073D01*
X131076760Y-103519199D01*
X131162547Y-103350832D01*
X131202069Y-103229195D01*
X131241507Y-103171521D01*
X131305866Y-103144323D01*
X131374712Y-103156238D01*
X131426188Y-103203482D01*
X131437931Y-103229196D01*
X131477454Y-103350836D01*
X131563240Y-103519199D01*
X131674310Y-103672073D01*
X131807927Y-103805690D01*
X131960801Y-103916760D01*
X132040347Y-103957290D01*
X132129163Y-104002545D01*
X132129165Y-104002545D01*
X132129168Y-104002547D01*
X132225497Y-104033846D01*
X132308881Y-104060940D01*
X132495514Y-104090500D01*
X132495519Y-104090500D01*
X132684486Y-104090500D01*
X132871118Y-104060940D01*
X132878166Y-104058650D01*
X133050832Y-104002547D01*
X133219199Y-103916760D01*
X133372073Y-103805690D01*
X133505690Y-103672073D01*
X133616760Y-103519199D01*
X133702547Y-103350832D01*
X133760940Y-103171118D01*
X133765184Y-103144323D01*
X133790500Y-102984486D01*
X133790500Y-102795513D01*
X133760940Y-102608881D01*
X133702545Y-102429163D01*
X133616759Y-102260800D01*
X133505690Y-102107927D01*
X133372073Y-101974310D01*
X133219199Y-101863240D01*
X133050836Y-101777454D01*
X132871118Y-101719059D01*
X132684486Y-101689500D01*
X132684481Y-101689500D01*
X132495519Y-101689500D01*
X132495514Y-101689500D01*
X132308881Y-101719059D01*
X132129163Y-101777454D01*
X131960800Y-101863240D01*
X131873579Y-101926610D01*
X131807927Y-101974310D01*
X131807925Y-101974312D01*
X131807924Y-101974312D01*
X131674312Y-102107924D01*
X131674312Y-102107925D01*
X131674310Y-102107927D01*
X131626610Y-102173579D01*
X131563240Y-102260800D01*
X131477454Y-102429163D01*
X131437931Y-102550803D01*
X131398493Y-102608478D01*
X131334134Y-102635676D01*
X131265288Y-102623761D01*
X131213812Y-102576516D01*
X131202069Y-102550803D01*
X131162545Y-102429163D01*
X131076759Y-102260800D01*
X130965690Y-102107927D01*
X130832073Y-101974310D01*
X130679199Y-101863240D01*
X130510836Y-101777454D01*
X130331118Y-101719059D01*
X130144486Y-101689500D01*
X130144481Y-101689500D01*
X129955519Y-101689500D01*
X129955514Y-101689500D01*
X129768881Y-101719059D01*
X129589163Y-101777454D01*
X129420800Y-101863240D01*
X129333579Y-101926610D01*
X129267927Y-101974310D01*
X129267925Y-101974312D01*
X129267924Y-101974312D01*
X129134312Y-102107924D01*
X129134312Y-102107925D01*
X129134310Y-102107927D01*
X129086610Y-102173579D01*
X129023240Y-102260800D01*
X128937454Y-102429163D01*
X128879059Y-102608881D01*
X128849500Y-102795513D01*
X123420371Y-102795513D01*
X123420371Y-95982254D01*
X126489500Y-95982254D01*
X126489500Y-96139947D01*
X126520261Y-96294590D01*
X126520264Y-96294602D01*
X126580602Y-96440273D01*
X126580609Y-96440286D01*
X126668210Y-96571389D01*
X126668213Y-96571393D01*
X126779707Y-96682887D01*
X126779711Y-96682890D01*
X126910814Y-96770491D01*
X126910827Y-96770498D01*
X127056498Y-96830836D01*
X127056503Y-96830838D01*
X127211153Y-96861600D01*
X127211156Y-96861601D01*
X127211158Y-96861601D01*
X127368844Y-96861601D01*
X127368845Y-96861600D01*
X127523497Y-96830838D01*
X127669179Y-96770495D01*
X127800289Y-96682890D01*
X127911789Y-96571390D01*
X127958681Y-96501211D01*
X128002779Y-96435215D01*
X128005214Y-96436842D01*
X128045130Y-96395849D01*
X128113199Y-96380090D01*
X128178983Y-96403634D01*
X128221595Y-96459005D01*
X128230000Y-96503881D01*
X128230000Y-96961072D01*
X128230001Y-96961088D01*
X128240494Y-97063797D01*
X128240494Y-97063799D01*
X128295640Y-97230220D01*
X128295645Y-97230231D01*
X128387680Y-97379441D01*
X128387683Y-97379445D01*
X128516425Y-97508187D01*
X128549910Y-97569510D01*
X128544926Y-97639202D01*
X128529063Y-97668752D01*
X128461130Y-97762255D01*
X128461129Y-97762257D01*
X128346760Y-97986717D01*
X128268910Y-98226312D01*
X128263642Y-98259573D01*
X128233711Y-98322707D01*
X128174398Y-98359637D01*
X128104536Y-98358637D01*
X128046304Y-98320026D01*
X128026610Y-98287628D01*
X127999394Y-98221922D01*
X127999390Y-98221915D01*
X127911789Y-98090812D01*
X127911786Y-98090808D01*
X127800292Y-97979314D01*
X127800288Y-97979311D01*
X127669185Y-97891710D01*
X127669172Y-97891703D01*
X127523501Y-97831365D01*
X127523489Y-97831362D01*
X127368845Y-97800601D01*
X127368842Y-97800601D01*
X127211158Y-97800601D01*
X127211155Y-97800601D01*
X127056510Y-97831362D01*
X127056498Y-97831365D01*
X126910827Y-97891703D01*
X126910814Y-97891710D01*
X126779711Y-97979311D01*
X126779707Y-97979314D01*
X126668213Y-98090808D01*
X126668210Y-98090812D01*
X126580609Y-98221915D01*
X126580602Y-98221928D01*
X126520264Y-98367599D01*
X126520261Y-98367611D01*
X126489500Y-98522254D01*
X126489500Y-98679947D01*
X126520261Y-98834590D01*
X126520264Y-98834602D01*
X126580602Y-98980273D01*
X126580609Y-98980286D01*
X126668210Y-99111389D01*
X126668213Y-99111393D01*
X126779707Y-99222887D01*
X126779711Y-99222890D01*
X126910814Y-99310491D01*
X126910827Y-99310498D01*
X127048961Y-99367714D01*
X127056503Y-99370838D01*
X127211153Y-99401600D01*
X127211156Y-99401601D01*
X127211158Y-99401601D01*
X127368844Y-99401601D01*
X127368845Y-99401600D01*
X127523497Y-99370838D01*
X127669179Y-99310495D01*
X127800289Y-99222890D01*
X127911789Y-99111390D01*
X127999394Y-98980280D01*
X128026609Y-98914576D01*
X128070447Y-98860174D01*
X128136741Y-98838108D01*
X128204440Y-98855386D01*
X128252052Y-98906522D01*
X128263642Y-98942629D01*
X128268910Y-98975888D01*
X128346760Y-99215484D01*
X128395173Y-99310498D01*
X128454812Y-99427547D01*
X128461132Y-99439949D01*
X128609201Y-99643750D01*
X128609205Y-99643755D01*
X128787345Y-99821895D01*
X128787350Y-99821899D01*
X128882902Y-99891321D01*
X128991155Y-99969971D01*
X129102506Y-100026707D01*
X129215616Y-100084340D01*
X129215618Y-100084340D01*
X129215621Y-100084342D01*
X129455215Y-100162191D01*
X129704038Y-100201601D01*
X129704039Y-100201601D01*
X129955961Y-100201601D01*
X129955962Y-100201601D01*
X130204785Y-100162191D01*
X130444379Y-100084342D01*
X130668845Y-99969971D01*
X130872656Y-99821894D01*
X131015767Y-99678783D01*
X144470000Y-99678783D01*
X144470000Y-99883418D01*
X144502009Y-100085518D01*
X144565244Y-100280132D01*
X144658141Y-100462451D01*
X144658147Y-100462460D01*
X144690523Y-100507022D01*
X144690524Y-100507023D01*
X145370000Y-99827547D01*
X145370000Y-99833762D01*
X145397259Y-99935495D01*
X145449920Y-100026707D01*
X145524394Y-100101181D01*
X145615606Y-100153842D01*
X145717339Y-100181101D01*
X145723553Y-100181101D01*
X145044076Y-100860575D01*
X145088650Y-100892960D01*
X145270968Y-100985856D01*
X145465582Y-101049091D01*
X145667683Y-101081101D01*
X145872317Y-101081101D01*
X146074417Y-101049091D01*
X146269031Y-100985856D01*
X146451349Y-100892960D01*
X146495921Y-100860575D01*
X146495922Y-100860575D01*
X145816447Y-100181101D01*
X145822661Y-100181101D01*
X145924394Y-100153842D01*
X146015606Y-100101181D01*
X146090080Y-100026707D01*
X146142741Y-99935495D01*
X146170000Y-99833762D01*
X146170000Y-99827549D01*
X146849474Y-100507023D01*
X146849474Y-100507022D01*
X146881859Y-100462450D01*
X146974755Y-100280132D01*
X147037990Y-100085518D01*
X147070000Y-99883418D01*
X147070000Y-99778783D01*
X148490000Y-99778783D01*
X148490000Y-99983418D01*
X148522009Y-100185518D01*
X148585244Y-100380132D01*
X148678141Y-100562451D01*
X148678147Y-100562460D01*
X148710523Y-100607022D01*
X148710524Y-100607023D01*
X149390000Y-99927547D01*
X149390000Y-99933762D01*
X149417259Y-100035495D01*
X149469920Y-100126707D01*
X149544394Y-100201181D01*
X149635606Y-100253842D01*
X149737339Y-100281101D01*
X149743553Y-100281101D01*
X149064076Y-100960575D01*
X149108650Y-100992960D01*
X149290968Y-101085856D01*
X149485582Y-101149091D01*
X149687683Y-101181101D01*
X149892317Y-101181101D01*
X150094417Y-101149091D01*
X150289031Y-101085856D01*
X150471349Y-100992960D01*
X150515921Y-100960575D01*
X149836447Y-100281101D01*
X149842661Y-100281101D01*
X149944394Y-100253842D01*
X150035606Y-100201181D01*
X150110080Y-100126707D01*
X150162741Y-100035495D01*
X150190000Y-99933762D01*
X150190000Y-99927549D01*
X150869474Y-100607023D01*
X150869474Y-100607022D01*
X150901859Y-100562450D01*
X150994755Y-100380132D01*
X151057990Y-100185518D01*
X151060505Y-100169640D01*
X151060505Y-100169639D01*
X151090000Y-99983418D01*
X151090000Y-99778783D01*
X151057990Y-99576683D01*
X150994755Y-99382069D01*
X150901859Y-99199751D01*
X150869474Y-99155178D01*
X150869474Y-99155177D01*
X150190000Y-99834652D01*
X150190000Y-99828440D01*
X150162741Y-99726707D01*
X150110080Y-99635495D01*
X150035606Y-99561021D01*
X149944394Y-99508360D01*
X149842661Y-99481101D01*
X149836446Y-99481101D01*
X150515922Y-98801625D01*
X150515921Y-98801624D01*
X150471359Y-98769248D01*
X150471350Y-98769242D01*
X150289031Y-98676345D01*
X150094417Y-98613110D01*
X149892317Y-98581101D01*
X149687683Y-98581101D01*
X149485582Y-98613110D01*
X149290968Y-98676345D01*
X149108644Y-98769244D01*
X149064077Y-98801624D01*
X149064077Y-98801625D01*
X149743554Y-99481101D01*
X149737339Y-99481101D01*
X149635606Y-99508360D01*
X149544394Y-99561021D01*
X149469920Y-99635495D01*
X149417259Y-99726707D01*
X149390000Y-99828440D01*
X149390000Y-99834654D01*
X148710524Y-99155178D01*
X148710523Y-99155178D01*
X148678143Y-99199745D01*
X148585244Y-99382069D01*
X148522009Y-99576683D01*
X148490000Y-99778783D01*
X147070000Y-99778783D01*
X147070000Y-99678783D01*
X147037990Y-99476683D01*
X146974755Y-99282069D01*
X146881859Y-99099751D01*
X146849474Y-99055178D01*
X146849474Y-99055177D01*
X146170000Y-99734652D01*
X146170000Y-99728440D01*
X146142741Y-99626707D01*
X146090080Y-99535495D01*
X146015606Y-99461021D01*
X145924394Y-99408360D01*
X145822661Y-99381101D01*
X145816446Y-99381101D01*
X146436345Y-98761203D01*
X146495922Y-98701625D01*
X146495921Y-98701624D01*
X146451359Y-98669248D01*
X146451350Y-98669242D01*
X146269031Y-98576345D01*
X146074417Y-98513110D01*
X145872317Y-98481101D01*
X145667683Y-98481101D01*
X145465582Y-98513110D01*
X145270968Y-98576345D01*
X145088644Y-98669244D01*
X145044077Y-98701624D01*
X145044077Y-98701625D01*
X145723554Y-99381101D01*
X145717339Y-99381101D01*
X145615606Y-99408360D01*
X145524394Y-99461021D01*
X145449920Y-99535495D01*
X145397259Y-99626707D01*
X145370000Y-99728440D01*
X145370000Y-99734654D01*
X144690524Y-99055178D01*
X144690523Y-99055178D01*
X144658143Y-99099745D01*
X144565244Y-99282069D01*
X144502009Y-99476683D01*
X144470000Y-99678783D01*
X131015767Y-99678783D01*
X131050793Y-99643757D01*
X131198870Y-99439946D01*
X131313241Y-99215480D01*
X131391090Y-98975886D01*
X131430500Y-98727063D01*
X131430500Y-98475139D01*
X131391090Y-98226316D01*
X131313241Y-97986722D01*
X131313239Y-97986719D01*
X131313239Y-97986717D01*
X131237915Y-97838887D01*
X131198870Y-97762256D01*
X131191233Y-97751745D01*
X131130937Y-97668753D01*
X131107457Y-97602947D01*
X131123283Y-97534893D01*
X131143574Y-97508186D01*
X131272320Y-97379440D01*
X131364354Y-97230231D01*
X131364359Y-97230220D01*
X131419505Y-97063798D01*
X131429999Y-96961087D01*
X131430000Y-96961074D01*
X131430000Y-96311101D01*
X130320748Y-96311101D01*
X130342518Y-96273393D01*
X130380000Y-96133510D01*
X130380000Y-95988692D01*
X130342518Y-95848809D01*
X130320748Y-95811101D01*
X131429999Y-95811101D01*
X131429999Y-95507648D01*
X138649500Y-95507648D01*
X138649500Y-95712352D01*
X138653878Y-95739995D01*
X138681522Y-95914534D01*
X138744781Y-96109223D01*
X138785888Y-96189898D01*
X138837614Y-96291416D01*
X138837715Y-96291613D01*
X138958028Y-96457213D01*
X139102786Y-96601971D01*
X139214160Y-96682887D01*
X139268390Y-96722287D01*
X139384607Y-96781503D01*
X139450776Y-96815218D01*
X139450778Y-96815218D01*
X139450781Y-96815220D01*
X139554428Y-96848897D01*
X139645465Y-96878477D01*
X139746557Y-96894488D01*
X139847648Y-96910500D01*
X139847649Y-96910500D01*
X140052351Y-96910500D01*
X140052352Y-96910500D01*
X140254534Y-96878477D01*
X140449219Y-96815220D01*
X140631610Y-96722287D01*
X140784646Y-96611101D01*
X140797213Y-96601971D01*
X140797215Y-96601968D01*
X140797219Y-96601966D01*
X140941966Y-96457219D01*
X140941968Y-96457215D01*
X140941971Y-96457213D01*
X141028791Y-96337713D01*
X141062287Y-96291610D01*
X141155220Y-96109219D01*
X141218477Y-95914534D01*
X141250500Y-95712352D01*
X141250500Y-95507648D01*
X141239677Y-95439314D01*
X141218477Y-95305465D01*
X141189127Y-95215137D01*
X141155220Y-95110781D01*
X141155218Y-95110778D01*
X141155218Y-95110776D01*
X141090343Y-94983453D01*
X141062287Y-94928390D01*
X141019247Y-94869150D01*
X140941971Y-94762786D01*
X140857934Y-94678749D01*
X144469500Y-94678749D01*
X144469500Y-94883452D01*
X144501522Y-95085635D01*
X144564781Y-95280324D01*
X144657715Y-95462714D01*
X144778028Y-95628314D01*
X144922786Y-95773072D01*
X145033604Y-95853584D01*
X145088390Y-95893388D01*
X145204607Y-95952604D01*
X145270776Y-95986319D01*
X145270778Y-95986319D01*
X145270781Y-95986321D01*
X145375137Y-96020228D01*
X145465465Y-96049578D01*
X145538218Y-96061101D01*
X145667648Y-96081601D01*
X145667649Y-96081601D01*
X145872351Y-96081601D01*
X145872352Y-96081601D01*
X146074534Y-96049578D01*
X146269219Y-95986321D01*
X146451610Y-95893388D01*
X146544590Y-95825833D01*
X146617213Y-95773072D01*
X146617215Y-95773069D01*
X146617219Y-95773067D01*
X146761966Y-95628320D01*
X146761968Y-95628316D01*
X146761971Y-95628314D01*
X146847130Y-95511101D01*
X146882287Y-95462711D01*
X146975220Y-95280320D01*
X147038477Y-95085635D01*
X147070500Y-94883453D01*
X147070500Y-94778749D01*
X148489500Y-94778749D01*
X148489500Y-94983452D01*
X148521522Y-95185635D01*
X148584781Y-95380324D01*
X148626760Y-95462711D01*
X148671650Y-95550812D01*
X148677715Y-95562714D01*
X148798028Y-95728314D01*
X148942786Y-95873072D01*
X149093065Y-95982254D01*
X149108390Y-95993388D01*
X149202650Y-96041416D01*
X149290776Y-96086319D01*
X149290778Y-96086319D01*
X149290781Y-96086321D01*
X149361254Y-96109219D01*
X149485465Y-96149578D01*
X149586557Y-96165589D01*
X149687648Y-96181601D01*
X149687649Y-96181601D01*
X149892351Y-96181601D01*
X149892352Y-96181601D01*
X150094534Y-96149578D01*
X150289219Y-96086321D01*
X150471610Y-95993388D01*
X150580144Y-95914534D01*
X150637213Y-95873072D01*
X150637215Y-95873069D01*
X150637219Y-95873067D01*
X150781966Y-95728320D01*
X150781968Y-95728316D01*
X150781971Y-95728314D01*
X150834732Y-95655691D01*
X150902287Y-95562711D01*
X150995220Y-95380320D01*
X151058477Y-95185635D01*
X151090500Y-94983453D01*
X151090500Y-94778749D01*
X151058477Y-94576567D01*
X150995220Y-94381882D01*
X150995218Y-94381879D01*
X150995218Y-94381877D01*
X150902287Y-94199491D01*
X150806603Y-94067792D01*
X150806602Y-94067789D01*
X150781971Y-94033888D01*
X150781967Y-94033883D01*
X150746320Y-93998236D01*
X152349500Y-93998236D01*
X152349500Y-95793971D01*
X152349501Y-95793977D01*
X152355908Y-95853584D01*
X152406202Y-95988429D01*
X152406206Y-95988436D01*
X152492452Y-96103645D01*
X152492455Y-96103648D01*
X152607664Y-96189894D01*
X152607671Y-96189898D01*
X152739082Y-96238911D01*
X152795016Y-96280782D01*
X152819433Y-96346246D01*
X152804582Y-96414519D01*
X152783431Y-96442774D01*
X152669889Y-96556316D01*
X152544951Y-96728280D01*
X152448444Y-96917686D01*
X152382753Y-97119861D01*
X152355994Y-97288811D01*
X152349500Y-97329814D01*
X152349500Y-97542388D01*
X152355634Y-97581119D01*
X152373534Y-97694135D01*
X152382754Y-97752344D01*
X152446724Y-97949223D01*
X152448444Y-97954515D01*
X152544951Y-98143921D01*
X152669890Y-98315887D01*
X152820213Y-98466210D01*
X152992179Y-98591149D01*
X152992181Y-98591150D01*
X152992184Y-98591152D01*
X153001493Y-98595895D01*
X153052290Y-98643867D01*
X153069087Y-98711688D01*
X153046552Y-98777823D01*
X153001502Y-98816863D01*
X152992443Y-98821479D01*
X152820540Y-98946373D01*
X152820535Y-98946377D01*
X152670276Y-99096636D01*
X152670272Y-99096641D01*
X152545379Y-99268543D01*
X152448904Y-99457883D01*
X152383242Y-99659971D01*
X152383242Y-99659974D01*
X152372769Y-99726101D01*
X153266988Y-99726101D01*
X153234075Y-99783108D01*
X153200000Y-99910275D01*
X153200000Y-100041927D01*
X153234075Y-100169094D01*
X153266988Y-100226101D01*
X152372769Y-100226101D01*
X152383242Y-100292227D01*
X152383242Y-100292230D01*
X152448904Y-100494318D01*
X152545379Y-100683658D01*
X152670272Y-100855560D01*
X152670276Y-100855565D01*
X152820535Y-101005824D01*
X152820540Y-101005828D01*
X152992442Y-101130721D01*
X153181782Y-101227196D01*
X153383871Y-101292858D01*
X153450000Y-101303332D01*
X153450000Y-100409113D01*
X153507007Y-100442026D01*
X153634174Y-100476101D01*
X153765826Y-100476101D01*
X153892993Y-100442026D01*
X153950000Y-100409113D01*
X153950000Y-101303331D01*
X154016126Y-101292858D01*
X154016129Y-101292858D01*
X154218217Y-101227196D01*
X154407557Y-101130721D01*
X154579459Y-101005828D01*
X154579464Y-101005824D01*
X154729723Y-100855565D01*
X154729727Y-100855560D01*
X154854620Y-100683658D01*
X154951095Y-100494318D01*
X155016757Y-100292230D01*
X155016757Y-100292227D01*
X155027231Y-100226101D01*
X154133012Y-100226101D01*
X154165925Y-100169094D01*
X154200000Y-100041927D01*
X154200000Y-99910275D01*
X154165925Y-99783108D01*
X154133012Y-99726101D01*
X155027231Y-99726101D01*
X155016757Y-99659974D01*
X155016757Y-99659971D01*
X154951095Y-99457883D01*
X154854620Y-99268543D01*
X154729727Y-99096641D01*
X154729723Y-99096636D01*
X154579464Y-98946377D01*
X154579459Y-98946373D01*
X154407555Y-98821478D01*
X154398500Y-98816864D01*
X154347706Y-98768889D01*
X154330912Y-98701067D01*
X154353451Y-98634933D01*
X154398508Y-98595894D01*
X154407816Y-98591152D01*
X154502647Y-98522254D01*
X154579786Y-98466210D01*
X154579788Y-98466207D01*
X154579792Y-98466205D01*
X154730104Y-98315893D01*
X154730106Y-98315889D01*
X154730109Y-98315887D01*
X154855048Y-98143921D01*
X154855047Y-98143921D01*
X154855051Y-98143917D01*
X154951557Y-97954513D01*
X155017246Y-97752344D01*
X155050500Y-97542388D01*
X155050500Y-97347648D01*
X155819500Y-97347648D01*
X155819500Y-97552351D01*
X155851522Y-97754534D01*
X155914781Y-97949223D01*
X156007715Y-98131613D01*
X156128028Y-98297213D01*
X156272786Y-98441971D01*
X156427749Y-98554556D01*
X156438390Y-98562287D01*
X156538136Y-98613110D01*
X156620776Y-98655218D01*
X156620778Y-98655218D01*
X156620781Y-98655220D01*
X156663955Y-98669248D01*
X156815465Y-98718477D01*
X156884973Y-98729486D01*
X157017648Y-98750500D01*
X157017649Y-98750500D01*
X157222351Y-98750500D01*
X157222352Y-98750500D01*
X157424534Y-98718477D01*
X157619219Y-98655220D01*
X157801610Y-98562287D01*
X157933857Y-98466205D01*
X157967213Y-98441971D01*
X157967215Y-98441968D01*
X157967219Y-98441966D01*
X158111966Y-98297219D01*
X158111968Y-98297215D01*
X158111971Y-98297213D01*
X158192130Y-98186882D01*
X158232287Y-98131610D01*
X158325220Y-97949219D01*
X158388477Y-97754534D01*
X158420500Y-97552352D01*
X158420500Y-97347648D01*
X158411181Y-97288811D01*
X158388477Y-97145465D01*
X158346226Y-97015432D01*
X158325220Y-96950781D01*
X158325218Y-96950778D01*
X158325218Y-96950776D01*
X158264106Y-96830839D01*
X158232287Y-96768390D01*
X158216094Y-96746102D01*
X158111971Y-96602786D01*
X157967213Y-96458028D01*
X157801613Y-96337715D01*
X157801612Y-96337714D01*
X157801610Y-96337713D01*
X157717000Y-96294602D01*
X157619223Y-96244781D01*
X157424534Y-96181522D01*
X157249995Y-96153878D01*
X157222352Y-96149500D01*
X157017648Y-96149500D01*
X156993329Y-96153351D01*
X156815465Y-96181522D01*
X156620776Y-96244781D01*
X156438386Y-96337715D01*
X156272786Y-96458028D01*
X156128028Y-96602786D01*
X156007715Y-96768386D01*
X155914781Y-96950776D01*
X155851522Y-97145465D01*
X155819500Y-97347648D01*
X155050500Y-97347648D01*
X155050500Y-97329814D01*
X155017246Y-97119858D01*
X154951557Y-96917689D01*
X154855051Y-96728285D01*
X154855049Y-96728282D01*
X154855048Y-96728280D01*
X154730109Y-96556314D01*
X154616569Y-96442774D01*
X154583084Y-96381451D01*
X154588068Y-96311759D01*
X154629940Y-96255826D01*
X154660915Y-96238911D01*
X154792331Y-96189897D01*
X154907546Y-96103647D01*
X154993796Y-95988432D01*
X155044091Y-95853584D01*
X155050500Y-95793974D01*
X155050499Y-93998229D01*
X155044091Y-93938618D01*
X155042326Y-93933887D01*
X154993797Y-93803772D01*
X154993793Y-93803765D01*
X154907547Y-93688556D01*
X154907544Y-93688553D01*
X154792335Y-93602307D01*
X154792328Y-93602303D01*
X154657482Y-93552009D01*
X154657483Y-93552009D01*
X154597883Y-93545602D01*
X154597881Y-93545601D01*
X154597873Y-93545601D01*
X154597864Y-93545601D01*
X152802129Y-93545601D01*
X152802123Y-93545602D01*
X152742516Y-93552009D01*
X152607671Y-93602303D01*
X152607664Y-93602307D01*
X152492455Y-93688553D01*
X152492452Y-93688556D01*
X152406206Y-93803765D01*
X152406202Y-93803772D01*
X152355908Y-93938618D01*
X152349501Y-93998217D01*
X152349501Y-93998224D01*
X152349500Y-93998236D01*
X150746320Y-93998236D01*
X150637213Y-93889129D01*
X150471613Y-93768816D01*
X150471612Y-93768815D01*
X150471610Y-93768814D01*
X150414653Y-93739792D01*
X150289223Y-93675882D01*
X150094534Y-93612623D01*
X149919995Y-93584979D01*
X149892352Y-93580601D01*
X149687648Y-93580601D01*
X149663329Y-93584452D01*
X149485465Y-93612623D01*
X149290776Y-93675882D01*
X149108386Y-93768816D01*
X148942786Y-93889129D01*
X148798028Y-94033887D01*
X148677715Y-94199487D01*
X148584781Y-94381877D01*
X148521522Y-94576566D01*
X148489500Y-94778749D01*
X147070500Y-94778749D01*
X147070500Y-94678749D01*
X147038477Y-94476567D01*
X147036861Y-94471595D01*
X147007710Y-94381877D01*
X146975220Y-94281882D01*
X146975218Y-94281879D01*
X146975218Y-94281877D01*
X146941503Y-94215708D01*
X146882287Y-94099491D01*
X146859257Y-94067792D01*
X146761971Y-93933887D01*
X146617213Y-93789129D01*
X146451613Y-93668816D01*
X146451612Y-93668815D01*
X146451610Y-93668814D01*
X146394653Y-93639792D01*
X146269223Y-93575882D01*
X146074534Y-93512623D01*
X145899995Y-93484979D01*
X145872352Y-93480601D01*
X145667648Y-93480601D01*
X145643329Y-93484452D01*
X145465465Y-93512623D01*
X145270776Y-93575882D01*
X145088386Y-93668816D01*
X144922786Y-93789129D01*
X144778028Y-93933887D01*
X144657715Y-94099487D01*
X144564781Y-94281877D01*
X144501522Y-94476566D01*
X144469500Y-94678749D01*
X140857934Y-94678749D01*
X140797213Y-94618028D01*
X140631613Y-94497715D01*
X140631612Y-94497714D01*
X140631610Y-94497713D01*
X140559755Y-94461101D01*
X140449223Y-94404781D01*
X140254534Y-94341522D01*
X140079995Y-94313878D01*
X140052352Y-94309500D01*
X139847648Y-94309500D01*
X139823329Y-94313351D01*
X139645465Y-94341522D01*
X139450776Y-94404781D01*
X139268386Y-94497715D01*
X139102786Y-94618028D01*
X138958028Y-94762786D01*
X138837715Y-94928386D01*
X138744781Y-95110776D01*
X138681522Y-95305465D01*
X138660323Y-95439314D01*
X138649500Y-95507648D01*
X131429999Y-95507648D01*
X131429999Y-95161129D01*
X131429998Y-95161114D01*
X131419505Y-95058404D01*
X131419505Y-95058402D01*
X131364359Y-94891981D01*
X131364354Y-94891970D01*
X131272319Y-94742760D01*
X131272316Y-94742756D01*
X131148344Y-94618784D01*
X131148340Y-94618781D01*
X130999130Y-94526746D01*
X130999119Y-94526741D01*
X130832697Y-94471595D01*
X130729986Y-94461101D01*
X130080000Y-94461101D01*
X130080000Y-95570353D01*
X130042292Y-95548583D01*
X129902409Y-95511101D01*
X129757591Y-95511101D01*
X129617708Y-95548583D01*
X129580000Y-95570353D01*
X129580000Y-94461101D01*
X128930028Y-94461101D01*
X128930012Y-94461102D01*
X128827303Y-94471595D01*
X128827301Y-94471595D01*
X128660880Y-94526741D01*
X128660869Y-94526746D01*
X128511659Y-94618781D01*
X128511655Y-94618784D01*
X128387683Y-94742756D01*
X128387680Y-94742760D01*
X128295645Y-94891970D01*
X128295640Y-94891981D01*
X128240494Y-95058403D01*
X128230000Y-95161114D01*
X128230000Y-95618319D01*
X128210315Y-95685358D01*
X128157511Y-95731113D01*
X128088353Y-95741057D01*
X128024797Y-95712032D01*
X128004105Y-95686100D01*
X128002779Y-95686987D01*
X127911789Y-95550812D01*
X127911786Y-95550808D01*
X127800292Y-95439314D01*
X127800288Y-95439311D01*
X127669185Y-95351710D01*
X127669172Y-95351703D01*
X127523501Y-95291365D01*
X127523489Y-95291362D01*
X127368845Y-95260601D01*
X127368842Y-95260601D01*
X127211158Y-95260601D01*
X127211155Y-95260601D01*
X127056510Y-95291362D01*
X127056498Y-95291365D01*
X126910827Y-95351703D01*
X126910814Y-95351710D01*
X126779711Y-95439311D01*
X126779707Y-95439314D01*
X126668213Y-95550808D01*
X126668210Y-95550812D01*
X126580609Y-95681915D01*
X126580602Y-95681928D01*
X126520264Y-95827599D01*
X126520261Y-95827611D01*
X126489500Y-95982254D01*
X123420371Y-95982254D01*
X123420371Y-90037648D01*
X143329500Y-90037648D01*
X143329500Y-90242351D01*
X143361522Y-90444534D01*
X143424781Y-90639223D01*
X143517715Y-90821613D01*
X143638028Y-90987213D01*
X143782786Y-91131971D01*
X143937749Y-91244556D01*
X143948390Y-91252287D01*
X144064607Y-91311503D01*
X144130776Y-91345218D01*
X144130778Y-91345218D01*
X144130781Y-91345220D01*
X144235137Y-91379127D01*
X144325465Y-91408477D01*
X144426557Y-91424488D01*
X144527648Y-91440500D01*
X144527649Y-91440500D01*
X144732351Y-91440500D01*
X144732352Y-91440500D01*
X144934534Y-91408477D01*
X145129219Y-91345220D01*
X145311610Y-91252287D01*
X145404590Y-91184732D01*
X145477213Y-91131971D01*
X145477215Y-91131968D01*
X145477219Y-91131966D01*
X145621966Y-90987219D01*
X145621968Y-90987215D01*
X145621971Y-90987213D01*
X145674732Y-90914590D01*
X145742287Y-90821610D01*
X145835220Y-90639219D01*
X145898477Y-90444534D01*
X145930500Y-90242352D01*
X145930500Y-90037648D01*
X153489500Y-90037648D01*
X153489500Y-90242351D01*
X153521522Y-90444534D01*
X153584781Y-90639223D01*
X153677715Y-90821613D01*
X153798028Y-90987213D01*
X153942786Y-91131971D01*
X154097749Y-91244556D01*
X154108390Y-91252287D01*
X154224607Y-91311503D01*
X154290776Y-91345218D01*
X154290778Y-91345218D01*
X154290781Y-91345220D01*
X154395137Y-91379127D01*
X154485465Y-91408477D01*
X154586557Y-91424488D01*
X154687648Y-91440500D01*
X154687649Y-91440500D01*
X154892351Y-91440500D01*
X154892352Y-91440500D01*
X155094534Y-91408477D01*
X155289219Y-91345220D01*
X155471610Y-91252287D01*
X155564590Y-91184732D01*
X155637213Y-91131971D01*
X155637215Y-91131968D01*
X155637219Y-91131966D01*
X155781966Y-90987219D01*
X155781968Y-90987215D01*
X155781971Y-90987213D01*
X155834732Y-90914590D01*
X155902287Y-90821610D01*
X155995220Y-90639219D01*
X156058477Y-90444534D01*
X156090500Y-90242352D01*
X156090500Y-90037648D01*
X156058477Y-89835466D01*
X155995220Y-89640781D01*
X155995218Y-89640778D01*
X155995218Y-89640776D01*
X155961503Y-89574607D01*
X155902287Y-89458390D01*
X155894556Y-89447749D01*
X155781971Y-89292786D01*
X155637213Y-89148028D01*
X155471613Y-89027715D01*
X155471612Y-89027714D01*
X155471610Y-89027713D01*
X155414653Y-88998691D01*
X155289223Y-88934781D01*
X155094534Y-88871522D01*
X154919995Y-88843878D01*
X154892352Y-88839500D01*
X154687648Y-88839500D01*
X154663329Y-88843351D01*
X154485465Y-88871522D01*
X154290776Y-88934781D01*
X154108386Y-89027715D01*
X153942786Y-89148028D01*
X153798028Y-89292786D01*
X153677715Y-89458386D01*
X153584781Y-89640776D01*
X153521522Y-89835465D01*
X153489500Y-90037648D01*
X145930500Y-90037648D01*
X145898477Y-89835466D01*
X145835220Y-89640781D01*
X145835218Y-89640778D01*
X145835218Y-89640776D01*
X145801503Y-89574607D01*
X145742287Y-89458390D01*
X145734556Y-89447749D01*
X145621971Y-89292786D01*
X145477213Y-89148028D01*
X145311613Y-89027715D01*
X145311612Y-89027714D01*
X145311610Y-89027713D01*
X145254653Y-88998691D01*
X145129223Y-88934781D01*
X144934534Y-88871522D01*
X144759995Y-88843878D01*
X144732352Y-88839500D01*
X144527648Y-88839500D01*
X144503329Y-88843351D01*
X144325465Y-88871522D01*
X144130776Y-88934781D01*
X143948386Y-89027715D01*
X143782786Y-89148028D01*
X143638028Y-89292786D01*
X143517715Y-89458386D01*
X143424781Y-89640776D01*
X143361522Y-89835465D01*
X143329500Y-90037648D01*
X123420371Y-90037648D01*
X123420371Y-85263178D01*
X123440056Y-85196139D01*
X123492860Y-85150384D01*
X123562018Y-85140440D01*
X123615492Y-85161602D01*
X123658013Y-85191375D01*
X124046452Y-85415641D01*
X124046461Y-85415645D01*
X124452953Y-85605197D01*
X124452963Y-85605201D01*
X124874444Y-85758606D01*
X124917266Y-85770080D01*
X125307689Y-85874694D01*
X125749406Y-85952580D01*
X126196228Y-85991672D01*
X126196229Y-85991673D01*
X126196230Y-85991673D01*
X126644763Y-85991673D01*
X126644763Y-85991672D01*
X127091586Y-85952580D01*
X127533303Y-85874694D01*
X127966551Y-85758605D01*
X128388033Y-85605199D01*
X128388038Y-85605197D01*
X128505218Y-85550555D01*
X128623238Y-85495520D01*
X128794540Y-85415641D01*
X129168040Y-85200000D01*
X138673391Y-85200000D01*
X139634314Y-85200000D01*
X139629920Y-85204394D01*
X139577259Y-85295606D01*
X139550000Y-85397339D01*
X139550000Y-85502661D01*
X139577259Y-85604394D01*
X139629920Y-85695606D01*
X139634314Y-85700000D01*
X138673391Y-85700000D01*
X138682009Y-85754413D01*
X138745244Y-85949029D01*
X138838140Y-86131349D01*
X138958417Y-86296894D01*
X138958417Y-86296895D01*
X139103104Y-86441582D01*
X139268650Y-86561859D01*
X139450968Y-86654754D01*
X139645578Y-86717988D01*
X139700000Y-86726607D01*
X139700000Y-85765686D01*
X139704394Y-85770080D01*
X139795606Y-85822741D01*
X139897339Y-85850000D01*
X140002661Y-85850000D01*
X140104394Y-85822741D01*
X140195606Y-85770080D01*
X140200000Y-85765686D01*
X140200000Y-86726606D01*
X140254421Y-86717988D01*
X140449031Y-86654754D01*
X140631349Y-86561859D01*
X140796894Y-86441582D01*
X140796895Y-86441582D01*
X140941582Y-86296895D01*
X140941582Y-86296894D01*
X141061859Y-86131349D01*
X141154755Y-85949029D01*
X141217990Y-85754413D01*
X141226609Y-85700000D01*
X140265686Y-85700000D01*
X140270080Y-85695606D01*
X140322741Y-85604394D01*
X140350000Y-85502661D01*
X140350000Y-85397339D01*
X140322741Y-85295606D01*
X140270080Y-85204394D01*
X140265686Y-85200000D01*
X141226609Y-85200000D01*
X141217990Y-85145586D01*
X141154755Y-84950970D01*
X141061859Y-84768650D01*
X140941582Y-84603105D01*
X140941582Y-84603104D01*
X140796895Y-84458417D01*
X140631349Y-84338140D01*
X140449029Y-84245244D01*
X140254413Y-84182009D01*
X140200000Y-84173390D01*
X140200000Y-85134314D01*
X140195606Y-85129920D01*
X140104394Y-85077259D01*
X140002661Y-85050000D01*
X139897339Y-85050000D01*
X139795606Y-85077259D01*
X139704394Y-85129920D01*
X139700000Y-85134314D01*
X139700000Y-84173390D01*
X139645586Y-84182009D01*
X139450970Y-84245244D01*
X139268650Y-84338140D01*
X139103105Y-84458417D01*
X139103104Y-84458417D01*
X138958417Y-84603104D01*
X138958417Y-84603105D01*
X138838140Y-84768650D01*
X138745244Y-84950970D01*
X138682009Y-85145586D01*
X138673391Y-85200000D01*
X129168040Y-85200000D01*
X129182979Y-85191375D01*
X129248373Y-85145586D01*
X129262795Y-85135488D01*
X129550396Y-84934108D01*
X129893990Y-84645798D01*
X130211149Y-84328639D01*
X130499460Y-83985044D01*
X130756726Y-83617628D01*
X130980992Y-83229189D01*
X131170550Y-82822682D01*
X131199126Y-82744171D01*
X131323957Y-82401196D01*
X131348907Y-82308082D01*
X131440045Y-81967952D01*
X131517931Y-81526235D01*
X131557024Y-81079411D01*
X131557024Y-80630879D01*
X131517931Y-80184055D01*
X131440045Y-79742338D01*
X131323956Y-79309090D01*
X131273004Y-79169099D01*
X131170552Y-78887612D01*
X131170548Y-78887602D01*
X130980996Y-78481110D01*
X130980988Y-78481094D01*
X130765351Y-78107601D01*
X130748878Y-78039701D01*
X130771730Y-77973674D01*
X130826652Y-77930483D01*
X130872738Y-77921601D01*
X161766000Y-77921601D01*
X161833039Y-77941286D01*
G37*
%TD.AperFunction*%
%TD*%
M02*
