%TF.GenerationSoftware,KiCad,Pcbnew,9.0.1+1*%
%TF.CreationDate,2025-12-31T05:22:49+00:00*%
%TF.ProjectId,WALKIN_PIR_IF,57414c4b-494e-45f5-9049-525f49462e6b,A*%
%TF.SameCoordinates,Original*%
%TF.FileFunction,Legend,Top*%
%TF.FilePolarity,Positive*%
%FSLAX46Y46*%
G04 Gerber Fmt 4.6, Leading zero omitted, Abs format (unit mm)*
G04 Created by KiCad (PCBNEW 9.0.1+1) date 2025-12-31 05:22:49*
%MOMM*%
%LPD*%
G01*
G04 APERTURE LIST*
%ADD10C,0.200000*%
%ADD11C,0.150000*%
%ADD12C,0.100000*%
%ADD13C,0.320000*%
%ADD14C,0.112500*%
%ADD15C,0.220000*%
%ADD16C,0.120000*%
%ADD17C,0.000000*%
G04 APERTURE END LIST*
D10*
X148470470Y-102025000D02*
X161510470Y-102025000D01*
X161510470Y-116735000D01*
X148470470Y-116735000D01*
X148470470Y-102025000D01*
D11*
X125660000Y-96071101D02*
G75*
G02*
X124080000Y-96071101I-790000J0D01*
G01*
X124080000Y-96071101D02*
G75*
G02*
X125660000Y-96071101I790000J0D01*
G01*
X125660000Y-98621101D02*
X124080000Y-98621101D01*
X125660000Y-98621101D02*
G75*
G02*
X124080000Y-98621101I-790000J0D01*
G01*
X124080000Y-98621101D02*
G75*
G02*
X125660000Y-98621101I790000J0D01*
G01*
X124870000Y-97831101D02*
X124870000Y-99411101D01*
X125660000Y-96071101D02*
X124080000Y-96071101D01*
D12*
X178075312Y-103383281D02*
X178027693Y-103430901D01*
X178027693Y-103430901D02*
X177884836Y-103478520D01*
X177884836Y-103478520D02*
X177789598Y-103478520D01*
X177789598Y-103478520D02*
X177646741Y-103430901D01*
X177646741Y-103430901D02*
X177551503Y-103335662D01*
X177551503Y-103335662D02*
X177503884Y-103240424D01*
X177503884Y-103240424D02*
X177456265Y-103049948D01*
X177456265Y-103049948D02*
X177456265Y-102907091D01*
X177456265Y-102907091D02*
X177503884Y-102716615D01*
X177503884Y-102716615D02*
X177551503Y-102621377D01*
X177551503Y-102621377D02*
X177646741Y-102526139D01*
X177646741Y-102526139D02*
X177789598Y-102478520D01*
X177789598Y-102478520D02*
X177884836Y-102478520D01*
X177884836Y-102478520D02*
X178027693Y-102526139D01*
X178027693Y-102526139D02*
X178075312Y-102573758D01*
X178694360Y-102478520D02*
X178884836Y-102478520D01*
X178884836Y-102478520D02*
X178980074Y-102526139D01*
X178980074Y-102526139D02*
X179075312Y-102621377D01*
X179075312Y-102621377D02*
X179122931Y-102811853D01*
X179122931Y-102811853D02*
X179122931Y-103145186D01*
X179122931Y-103145186D02*
X179075312Y-103335662D01*
X179075312Y-103335662D02*
X178980074Y-103430901D01*
X178980074Y-103430901D02*
X178884836Y-103478520D01*
X178884836Y-103478520D02*
X178694360Y-103478520D01*
X178694360Y-103478520D02*
X178599122Y-103430901D01*
X178599122Y-103430901D02*
X178503884Y-103335662D01*
X178503884Y-103335662D02*
X178456265Y-103145186D01*
X178456265Y-103145186D02*
X178456265Y-102811853D01*
X178456265Y-102811853D02*
X178503884Y-102621377D01*
X178503884Y-102621377D02*
X178599122Y-102526139D01*
X178599122Y-102526139D02*
X178694360Y-102478520D01*
X179551503Y-103478520D02*
X179551503Y-102478520D01*
X179551503Y-102478520D02*
X179884836Y-103192805D01*
X179884836Y-103192805D02*
X180218169Y-102478520D01*
X180218169Y-102478520D02*
X180218169Y-103478520D01*
D13*
G36*
X146982892Y-80565237D02*
G01*
X147022362Y-80604709D01*
X147070050Y-80700082D01*
X147070050Y-80853112D01*
X147022362Y-80948485D01*
X146982892Y-80987957D01*
X146887516Y-81035645D01*
X146475764Y-81035645D01*
X146475764Y-80517550D01*
X146887516Y-80517550D01*
X146982892Y-80565237D01*
G37*
G36*
X153154322Y-80565237D02*
G01*
X153193792Y-80604709D01*
X153241480Y-80700082D01*
X153241480Y-80853112D01*
X153193792Y-80948485D01*
X153154322Y-80987957D01*
X153058946Y-81035645D01*
X152647194Y-81035645D01*
X152647194Y-80517550D01*
X153058946Y-80517550D01*
X153154322Y-80565237D01*
G37*
G36*
X136493775Y-81340407D02*
G01*
X136175846Y-81340407D01*
X136334810Y-80863513D01*
X136493775Y-81340407D01*
G37*
G36*
X158589016Y-81340407D02*
G01*
X158271087Y-81340407D01*
X158430051Y-80863513D01*
X158589016Y-81340407D01*
G37*
G36*
X144620987Y-80565237D02*
G01*
X144660457Y-80604709D01*
X144708145Y-80700082D01*
X144708145Y-80853112D01*
X144660457Y-80948485D01*
X144620987Y-80987957D01*
X144525611Y-81035645D01*
X144113859Y-81035645D01*
X144113859Y-80517550D01*
X144525611Y-80517550D01*
X144620987Y-80565237D01*
G37*
G36*
X159299907Y-82447709D02*
G01*
X133711431Y-82447709D01*
X133711431Y-80363532D01*
X133889209Y-80363532D01*
X133893448Y-80394609D01*
X134274400Y-81994609D01*
X134278091Y-82005320D01*
X134278602Y-82009161D01*
X134280611Y-82012632D01*
X134284620Y-82024262D01*
X134298241Y-82043083D01*
X134309881Y-82063189D01*
X134316405Y-82068183D01*
X134321221Y-82074837D01*
X134341000Y-82087008D01*
X134359455Y-82101135D01*
X134367395Y-82103252D01*
X134374389Y-82107556D01*
X134397320Y-82111232D01*
X134419775Y-82117220D01*
X134427920Y-82116137D01*
X134436031Y-82117438D01*
X134458633Y-82112056D01*
X134481660Y-82108997D01*
X134488767Y-82104882D01*
X134496761Y-82102979D01*
X134515582Y-82089357D01*
X134535688Y-82077718D01*
X134540682Y-82071193D01*
X134547336Y-82066378D01*
X134559507Y-82046598D01*
X134573634Y-82028144D01*
X134577953Y-82016624D01*
X134580055Y-82013210D01*
X134580667Y-82009386D01*
X134584647Y-81998776D01*
X134734811Y-81435661D01*
X134884975Y-81998776D01*
X134888954Y-82009386D01*
X134889567Y-82013210D01*
X134891668Y-82016624D01*
X134895988Y-82028144D01*
X134910114Y-82046598D01*
X134922286Y-82066378D01*
X134928939Y-82071193D01*
X134933934Y-82077718D01*
X134954036Y-82089355D01*
X134972860Y-82102979D01*
X134980855Y-82104882D01*
X134987962Y-82108997D01*
X135010987Y-82112056D01*
X135033591Y-82117438D01*
X135041701Y-82116137D01*
X135049847Y-82117220D01*
X135072301Y-82111232D01*
X135095233Y-82107556D01*
X135102226Y-82103252D01*
X135110167Y-82101135D01*
X135128621Y-82087008D01*
X135148401Y-82074837D01*
X135153216Y-82068183D01*
X135159741Y-82063189D01*
X135171378Y-82043086D01*
X135185002Y-82024263D01*
X135189010Y-82012631D01*
X135191020Y-82009161D01*
X135191530Y-82005320D01*
X135195222Y-81994609D01*
X135208810Y-81937538D01*
X135642733Y-81937538D01*
X135647159Y-81999810D01*
X135675078Y-82055648D01*
X135722240Y-82096552D01*
X135781465Y-82116294D01*
X135843737Y-82111868D01*
X135899575Y-82083949D01*
X135940479Y-82036787D01*
X135953266Y-82008146D01*
X136069179Y-81660407D01*
X136600442Y-81660407D01*
X136716355Y-82008146D01*
X136729142Y-82036787D01*
X136770046Y-82083949D01*
X136825884Y-82111868D01*
X136888156Y-82116294D01*
X136947381Y-82096552D01*
X136994543Y-82055648D01*
X137022462Y-81999810D01*
X137026888Y-81937538D01*
X137019933Y-81906954D01*
X136503465Y-80357550D01*
X137241478Y-80357550D01*
X137241478Y-81957550D01*
X137244552Y-81988764D01*
X137268443Y-82046441D01*
X137312587Y-82090585D01*
X137370264Y-82114476D01*
X137401478Y-82117550D01*
X138163383Y-82117550D01*
X138194597Y-82114476D01*
X138252274Y-82090585D01*
X138296418Y-82046441D01*
X138320309Y-81988764D01*
X138320309Y-81926336D01*
X138296418Y-81868659D01*
X138252274Y-81824515D01*
X138194597Y-81800624D01*
X138163383Y-81797550D01*
X137561478Y-81797550D01*
X137561478Y-80357550D01*
X138536716Y-80357550D01*
X138536716Y-81957550D01*
X138539790Y-81988764D01*
X138563681Y-82046441D01*
X138607825Y-82090585D01*
X138665502Y-82114476D01*
X138727930Y-82114476D01*
X138785607Y-82090585D01*
X138829751Y-82046441D01*
X138853642Y-81988764D01*
X138856716Y-81957550D01*
X138856716Y-81338110D01*
X138907976Y-81286849D01*
X139483002Y-82053550D01*
X139504190Y-82076677D01*
X139557909Y-82108484D01*
X139619710Y-82117313D01*
X139680187Y-82101819D01*
X139730129Y-82064363D01*
X139761936Y-82010644D01*
X139770765Y-81948842D01*
X139755271Y-81888366D01*
X139739002Y-81861550D01*
X139136547Y-81058278D01*
X139724139Y-80470687D01*
X139744037Y-80446442D01*
X139767928Y-80388764D01*
X139767928Y-80357550D01*
X140136716Y-80357550D01*
X140136716Y-81957550D01*
X140139790Y-81988764D01*
X140163681Y-82046441D01*
X140207825Y-82090585D01*
X140265502Y-82114476D01*
X140327930Y-82114476D01*
X140385607Y-82090585D01*
X140429751Y-82046441D01*
X140453642Y-81988764D01*
X140456716Y-81957550D01*
X140456716Y-80357550D01*
X140898621Y-80357550D01*
X140898621Y-81957550D01*
X140901695Y-81988764D01*
X140925586Y-82046441D01*
X140969730Y-82090585D01*
X141027407Y-82114476D01*
X141089835Y-82114476D01*
X141147512Y-82090585D01*
X141191656Y-82046441D01*
X141215547Y-81988764D01*
X141218621Y-81957550D01*
X141218621Y-80960040D01*
X141833988Y-82036932D01*
X141838658Y-82043511D01*
X141839872Y-82046441D01*
X141842856Y-82049425D01*
X141852144Y-82062509D01*
X141868970Y-82075539D01*
X141884016Y-82090585D01*
X141893439Y-82094488D01*
X141901503Y-82100733D01*
X141922030Y-82106331D01*
X141941693Y-82114476D01*
X141951894Y-82114476D01*
X141961732Y-82117159D01*
X141982837Y-82114476D01*
X142004121Y-82114476D01*
X142013545Y-82110572D01*
X142023663Y-82109286D01*
X142042142Y-82098726D01*
X142061798Y-82090585D01*
X142069006Y-82083376D01*
X142077161Y-82078717D01*
X142196933Y-82078717D01*
X142196933Y-82141145D01*
X142220824Y-82198822D01*
X142264968Y-82242966D01*
X142322645Y-82266857D01*
X142353859Y-82269931D01*
X143572906Y-82269931D01*
X143604120Y-82266857D01*
X143661797Y-82242966D01*
X143705941Y-82198822D01*
X143729832Y-82141145D01*
X143729832Y-82078717D01*
X143705941Y-82021040D01*
X143661797Y-81976896D01*
X143604120Y-81953005D01*
X143572906Y-81949931D01*
X142353859Y-81949931D01*
X142322645Y-81953005D01*
X142264968Y-81976896D01*
X142220824Y-82021040D01*
X142196933Y-82078717D01*
X142077161Y-82078717D01*
X142077866Y-82078314D01*
X142090899Y-82061483D01*
X142105942Y-82046441D01*
X142109845Y-82037018D01*
X142116090Y-82028954D01*
X142121688Y-82008426D01*
X142129833Y-81988764D01*
X142131405Y-81972797D01*
X142132516Y-81968725D01*
X142132116Y-81965580D01*
X142132907Y-81957550D01*
X142132907Y-80357550D01*
X143793859Y-80357550D01*
X143793859Y-81957550D01*
X143796933Y-81988764D01*
X143820824Y-82046441D01*
X143864968Y-82090585D01*
X143922645Y-82114476D01*
X143985073Y-82114476D01*
X144042750Y-82090585D01*
X144086894Y-82046441D01*
X144110785Y-81988764D01*
X144113859Y-81957550D01*
X144113859Y-81355645D01*
X144563383Y-81355645D01*
X144594597Y-81352571D01*
X144599909Y-81350370D01*
X144605643Y-81349963D01*
X144634937Y-81338754D01*
X144787318Y-81262563D01*
X144800754Y-81254105D01*
X144804657Y-81252489D01*
X144809048Y-81248884D01*
X144813862Y-81245855D01*
X144816632Y-81242661D01*
X144828902Y-81232591D01*
X144905092Y-81156400D01*
X144915163Y-81144128D01*
X144918353Y-81141362D01*
X144921379Y-81136554D01*
X144924990Y-81132155D01*
X144926608Y-81128248D01*
X144935062Y-81114819D01*
X145011253Y-80962438D01*
X145022463Y-80933145D01*
X145022870Y-80927409D01*
X145025071Y-80922097D01*
X145028145Y-80890883D01*
X145028145Y-80662312D01*
X145025071Y-80631098D01*
X145022870Y-80625785D01*
X145022463Y-80620050D01*
X145011253Y-80590757D01*
X144935062Y-80438376D01*
X144926608Y-80424946D01*
X144924990Y-80421040D01*
X144921379Y-80416640D01*
X144918353Y-80411833D01*
X144915163Y-80409066D01*
X144905092Y-80396795D01*
X144865848Y-80357550D01*
X145393859Y-80357550D01*
X145393859Y-81957550D01*
X145396933Y-81988764D01*
X145420824Y-82046441D01*
X145464968Y-82090585D01*
X145522645Y-82114476D01*
X145585073Y-82114476D01*
X145642750Y-82090585D01*
X145686894Y-82046441D01*
X145710785Y-81988764D01*
X145713859Y-81957550D01*
X145713859Y-80357550D01*
X146155764Y-80357550D01*
X146155764Y-81957550D01*
X146158838Y-81988764D01*
X146182729Y-82046441D01*
X146226873Y-82090585D01*
X146284550Y-82114476D01*
X146346978Y-82114476D01*
X146404655Y-82090585D01*
X146448799Y-82046441D01*
X146472690Y-81988764D01*
X146475764Y-81957550D01*
X146475764Y-81355645D01*
X146613411Y-81355645D01*
X147098973Y-82049304D01*
X147119391Y-82073113D01*
X147172039Y-82106663D01*
X147233518Y-82117512D01*
X147294470Y-82104009D01*
X147330602Y-82078717D01*
X147377886Y-82078717D01*
X147377886Y-82141145D01*
X147401777Y-82198822D01*
X147445921Y-82242966D01*
X147503598Y-82266857D01*
X147534812Y-82269931D01*
X148753859Y-82269931D01*
X148785073Y-82266857D01*
X148842750Y-82242966D01*
X148886894Y-82198822D01*
X148910785Y-82141145D01*
X148910785Y-82078717D01*
X148886894Y-82021040D01*
X148842750Y-81976896D01*
X148785073Y-81953005D01*
X148753859Y-81949931D01*
X147534812Y-81949931D01*
X147503598Y-81953005D01*
X147445921Y-81976896D01*
X147401777Y-82021040D01*
X147377886Y-82078717D01*
X147330602Y-82078717D01*
X147345613Y-82068209D01*
X147379163Y-82015561D01*
X147390012Y-81954082D01*
X147376509Y-81893130D01*
X147361127Y-81865796D01*
X146993178Y-81340155D01*
X146996842Y-81338754D01*
X147149223Y-81262563D01*
X147162659Y-81254105D01*
X147166562Y-81252489D01*
X147170953Y-81248884D01*
X147175767Y-81245855D01*
X147178537Y-81242661D01*
X147190807Y-81232591D01*
X147266997Y-81156400D01*
X147277068Y-81144128D01*
X147280258Y-81141362D01*
X147283284Y-81136554D01*
X147286895Y-81132155D01*
X147288513Y-81128248D01*
X147296967Y-81114819D01*
X147373158Y-80962438D01*
X147384368Y-80933145D01*
X147384775Y-80927409D01*
X147386976Y-80922097D01*
X147390050Y-80890883D01*
X147390050Y-80662312D01*
X147386976Y-80631098D01*
X147384775Y-80625785D01*
X147384368Y-80620050D01*
X147373158Y-80590757D01*
X147296967Y-80438376D01*
X147288513Y-80424946D01*
X147286895Y-80421040D01*
X147283284Y-80416640D01*
X147280258Y-80411833D01*
X147277068Y-80409066D01*
X147266997Y-80396795D01*
X147227753Y-80357550D01*
X148974812Y-80357550D01*
X148974812Y-81957550D01*
X148977886Y-81988764D01*
X149001777Y-82046441D01*
X149045921Y-82090585D01*
X149103598Y-82114476D01*
X149166026Y-82114476D01*
X149223703Y-82090585D01*
X149267847Y-82046441D01*
X149291738Y-81988764D01*
X149294812Y-81957550D01*
X149294812Y-80357550D01*
X149736717Y-80357550D01*
X149736717Y-81957550D01*
X149739791Y-81988764D01*
X149763682Y-82046441D01*
X149807826Y-82090585D01*
X149865503Y-82114476D01*
X149927931Y-82114476D01*
X149985608Y-82090585D01*
X150029752Y-82046441D01*
X150053643Y-81988764D01*
X150056717Y-81957550D01*
X150056717Y-81279455D01*
X150430050Y-81279455D01*
X150461264Y-81276381D01*
X150518941Y-81252490D01*
X150563085Y-81208346D01*
X150586976Y-81150669D01*
X150586976Y-81088241D01*
X150563085Y-81030564D01*
X150518941Y-80986420D01*
X150461264Y-80962529D01*
X150430050Y-80959455D01*
X150056717Y-80959455D01*
X150056717Y-80517550D01*
X150658622Y-80517550D01*
X150689836Y-80514476D01*
X150747513Y-80490585D01*
X150791657Y-80446441D01*
X150815548Y-80388764D01*
X150815548Y-80357550D01*
X152327194Y-80357550D01*
X152327194Y-81957550D01*
X152330268Y-81988764D01*
X152354159Y-82046441D01*
X152398303Y-82090585D01*
X152455980Y-82114476D01*
X152518408Y-82114476D01*
X152576085Y-82090585D01*
X152620229Y-82046441D01*
X152644120Y-81988764D01*
X152647194Y-81957550D01*
X152647194Y-81355645D01*
X152784841Y-81355645D01*
X153270403Y-82049304D01*
X153290821Y-82073113D01*
X153343469Y-82106663D01*
X153404948Y-82117512D01*
X153465900Y-82104009D01*
X153517043Y-82068209D01*
X153550593Y-82015561D01*
X153561442Y-81954082D01*
X153547939Y-81893130D01*
X153532557Y-81865796D01*
X153164608Y-81340155D01*
X153168272Y-81338754D01*
X153320653Y-81262563D01*
X153334089Y-81254105D01*
X153337992Y-81252489D01*
X153342383Y-81248884D01*
X153347197Y-81245855D01*
X153349967Y-81242661D01*
X153362237Y-81232591D01*
X153438427Y-81156400D01*
X153448498Y-81144128D01*
X153451688Y-81141362D01*
X153454714Y-81136554D01*
X153458325Y-81132155D01*
X153459943Y-81128248D01*
X153468397Y-81114819D01*
X153544588Y-80962438D01*
X153555798Y-80933145D01*
X153556205Y-80927409D01*
X153558406Y-80922097D01*
X153561480Y-80890883D01*
X153561480Y-80662312D01*
X153558406Y-80631098D01*
X153556205Y-80625785D01*
X153555798Y-80620050D01*
X153544588Y-80590757D01*
X153468397Y-80438376D01*
X153459943Y-80424946D01*
X153458325Y-80421040D01*
X153454714Y-80416640D01*
X153451688Y-80411833D01*
X153448498Y-80409066D01*
X153438427Y-80396795D01*
X153399183Y-80357550D01*
X153927194Y-80357550D01*
X153927194Y-81957550D01*
X153930268Y-81988764D01*
X153954159Y-82046441D01*
X153998303Y-82090585D01*
X154055980Y-82114476D01*
X154087194Y-82117550D01*
X154849099Y-82117550D01*
X154880313Y-82114476D01*
X154937990Y-82090585D01*
X154982134Y-82046441D01*
X155006025Y-81988764D01*
X155006025Y-81926336D01*
X154982134Y-81868659D01*
X154937990Y-81824515D01*
X154880313Y-81800624D01*
X154849099Y-81797550D01*
X154247194Y-81797550D01*
X154247194Y-81279455D01*
X154620527Y-81279455D01*
X154651741Y-81276381D01*
X154709418Y-81252490D01*
X154753562Y-81208346D01*
X154777453Y-81150669D01*
X154777453Y-81088241D01*
X154753562Y-81030564D01*
X154709418Y-80986420D01*
X154651741Y-80962529D01*
X154620527Y-80959455D01*
X154247194Y-80959455D01*
X154247194Y-80517550D01*
X154849099Y-80517550D01*
X154880313Y-80514476D01*
X154937990Y-80490585D01*
X154982134Y-80446441D01*
X155006025Y-80388764D01*
X155006025Y-80377562D01*
X155147497Y-80377562D01*
X155154452Y-80408146D01*
X155687786Y-82008146D01*
X155700573Y-82036786D01*
X155708063Y-82045422D01*
X155713176Y-82055648D01*
X155728333Y-82068793D01*
X155741477Y-82083949D01*
X155751700Y-82089060D01*
X155760338Y-82096552D01*
X155779373Y-82102897D01*
X155797315Y-82111868D01*
X155808716Y-82112678D01*
X155819563Y-82116294D01*
X155839575Y-82114871D01*
X155859587Y-82116294D01*
X155870433Y-82112678D01*
X155881835Y-82111868D01*
X155899776Y-82102897D01*
X155918812Y-82096552D01*
X155927449Y-82089060D01*
X155937673Y-82083949D01*
X155950817Y-82068792D01*
X155965974Y-82055648D01*
X155971085Y-82045424D01*
X155978577Y-82036787D01*
X155991364Y-82008146D01*
X156014900Y-81937538D01*
X157737974Y-81937538D01*
X157742400Y-81999810D01*
X157770319Y-82055648D01*
X157817481Y-82096552D01*
X157876706Y-82116294D01*
X157938978Y-82111868D01*
X157994816Y-82083949D01*
X158035720Y-82036787D01*
X158048507Y-82008146D01*
X158164420Y-81660407D01*
X158695683Y-81660407D01*
X158811596Y-82008146D01*
X158824383Y-82036787D01*
X158865287Y-82083949D01*
X158921125Y-82111868D01*
X158983397Y-82116294D01*
X159042622Y-82096552D01*
X159089784Y-82055648D01*
X159117703Y-81999810D01*
X159122129Y-81937538D01*
X159115174Y-81906954D01*
X158581841Y-80306954D01*
X158569054Y-80278313D01*
X158561562Y-80269675D01*
X158556451Y-80259452D01*
X158541294Y-80246307D01*
X158528150Y-80231151D01*
X158517926Y-80226039D01*
X158509289Y-80218548D01*
X158490253Y-80212202D01*
X158472312Y-80203232D01*
X158460910Y-80202421D01*
X158450064Y-80198806D01*
X158430052Y-80200228D01*
X158410040Y-80198806D01*
X158399193Y-80202421D01*
X158387792Y-80203232D01*
X158369850Y-80212202D01*
X158350815Y-80218548D01*
X158342177Y-80226039D01*
X158331954Y-80231151D01*
X158318810Y-80246306D01*
X158303653Y-80259452D01*
X158298540Y-80269677D01*
X158291050Y-80278314D01*
X158278263Y-80306954D01*
X157744929Y-81906954D01*
X157737974Y-81937538D01*
X156014900Y-81937538D01*
X156524697Y-80408146D01*
X156531652Y-80377562D01*
X156527226Y-80315290D01*
X156499307Y-80259452D01*
X156452145Y-80218548D01*
X156392920Y-80198806D01*
X156330648Y-80203232D01*
X156274810Y-80231151D01*
X156233906Y-80278313D01*
X156221119Y-80306954D01*
X155839574Y-81451586D01*
X155458030Y-80306954D01*
X155445243Y-80278313D01*
X155404339Y-80231151D01*
X155348501Y-80203232D01*
X155286229Y-80198806D01*
X155227004Y-80218548D01*
X155179842Y-80259452D01*
X155151923Y-80315290D01*
X155147497Y-80377562D01*
X155006025Y-80377562D01*
X155006025Y-80326336D01*
X154982134Y-80268659D01*
X154937990Y-80224515D01*
X154880313Y-80200624D01*
X154849099Y-80197550D01*
X154087194Y-80197550D01*
X154055980Y-80200624D01*
X153998303Y-80224515D01*
X153954159Y-80268659D01*
X153930268Y-80326336D01*
X153927194Y-80357550D01*
X153399183Y-80357550D01*
X153362237Y-80320604D01*
X153349967Y-80310533D01*
X153347197Y-80307340D01*
X153342383Y-80304310D01*
X153337992Y-80300706D01*
X153334089Y-80299089D01*
X153320653Y-80290632D01*
X153168272Y-80214441D01*
X153138978Y-80203232D01*
X153133244Y-80202824D01*
X153127932Y-80200624D01*
X153096718Y-80197550D01*
X152487194Y-80197550D01*
X152455980Y-80200624D01*
X152398303Y-80224515D01*
X152354159Y-80268659D01*
X152330268Y-80326336D01*
X152327194Y-80357550D01*
X150815548Y-80357550D01*
X150815548Y-80326336D01*
X150791657Y-80268659D01*
X150747513Y-80224515D01*
X150689836Y-80200624D01*
X150658622Y-80197550D01*
X149896717Y-80197550D01*
X149865503Y-80200624D01*
X149807826Y-80224515D01*
X149763682Y-80268659D01*
X149739791Y-80326336D01*
X149736717Y-80357550D01*
X149294812Y-80357550D01*
X149291738Y-80326336D01*
X149267847Y-80268659D01*
X149223703Y-80224515D01*
X149166026Y-80200624D01*
X149103598Y-80200624D01*
X149045921Y-80224515D01*
X149001777Y-80268659D01*
X148977886Y-80326336D01*
X148974812Y-80357550D01*
X147227753Y-80357550D01*
X147190807Y-80320604D01*
X147178537Y-80310533D01*
X147175767Y-80307340D01*
X147170953Y-80304310D01*
X147166562Y-80300706D01*
X147162659Y-80299089D01*
X147149223Y-80290632D01*
X146996842Y-80214441D01*
X146967548Y-80203232D01*
X146961814Y-80202824D01*
X146956502Y-80200624D01*
X146925288Y-80197550D01*
X146315764Y-80197550D01*
X146284550Y-80200624D01*
X146226873Y-80224515D01*
X146182729Y-80268659D01*
X146158838Y-80326336D01*
X146155764Y-80357550D01*
X145713859Y-80357550D01*
X145710785Y-80326336D01*
X145686894Y-80268659D01*
X145642750Y-80224515D01*
X145585073Y-80200624D01*
X145522645Y-80200624D01*
X145464968Y-80224515D01*
X145420824Y-80268659D01*
X145396933Y-80326336D01*
X145393859Y-80357550D01*
X144865848Y-80357550D01*
X144828902Y-80320604D01*
X144816632Y-80310533D01*
X144813862Y-80307340D01*
X144809048Y-80304310D01*
X144804657Y-80300706D01*
X144800754Y-80299089D01*
X144787318Y-80290632D01*
X144634937Y-80214441D01*
X144605643Y-80203232D01*
X144599909Y-80202824D01*
X144594597Y-80200624D01*
X144563383Y-80197550D01*
X143953859Y-80197550D01*
X143922645Y-80200624D01*
X143864968Y-80224515D01*
X143820824Y-80268659D01*
X143796933Y-80326336D01*
X143793859Y-80357550D01*
X142132907Y-80357550D01*
X142129833Y-80326336D01*
X142105942Y-80268659D01*
X142061798Y-80224515D01*
X142004121Y-80200624D01*
X141941693Y-80200624D01*
X141884016Y-80224515D01*
X141839872Y-80268659D01*
X141815981Y-80326336D01*
X141812907Y-80357550D01*
X141812907Y-81355059D01*
X141197540Y-80278168D01*
X141192869Y-80271588D01*
X141191656Y-80268659D01*
X141188669Y-80265672D01*
X141179384Y-80252592D01*
X141162560Y-80239563D01*
X141147512Y-80224515D01*
X141138088Y-80220611D01*
X141130025Y-80214367D01*
X141109497Y-80208768D01*
X141089835Y-80200624D01*
X141079634Y-80200624D01*
X141069796Y-80197941D01*
X141048691Y-80200624D01*
X141027407Y-80200624D01*
X141017982Y-80204527D01*
X141007865Y-80205814D01*
X140989389Y-80216371D01*
X140969730Y-80224515D01*
X140962518Y-80231726D01*
X140953663Y-80236787D01*
X140940634Y-80253610D01*
X140925586Y-80268659D01*
X140921682Y-80278082D01*
X140915438Y-80286146D01*
X140909839Y-80306673D01*
X140901695Y-80326336D01*
X140900122Y-80342302D01*
X140899012Y-80346375D01*
X140899411Y-80349519D01*
X140898621Y-80357550D01*
X140456716Y-80357550D01*
X140453642Y-80326336D01*
X140429751Y-80268659D01*
X140385607Y-80224515D01*
X140327930Y-80200624D01*
X140265502Y-80200624D01*
X140207825Y-80224515D01*
X140163681Y-80268659D01*
X140139790Y-80326336D01*
X140136716Y-80357550D01*
X139767928Y-80357550D01*
X139767928Y-80326335D01*
X139744037Y-80268658D01*
X139699894Y-80224515D01*
X139642217Y-80200624D01*
X139579788Y-80200624D01*
X139522110Y-80224515D01*
X139497865Y-80244413D01*
X138856716Y-80885562D01*
X138856716Y-80357550D01*
X138853642Y-80326336D01*
X138829751Y-80268659D01*
X138785607Y-80224515D01*
X138727930Y-80200624D01*
X138665502Y-80200624D01*
X138607825Y-80224515D01*
X138563681Y-80268659D01*
X138539790Y-80326336D01*
X138536716Y-80357550D01*
X137561478Y-80357550D01*
X137558404Y-80326336D01*
X137534513Y-80268659D01*
X137490369Y-80224515D01*
X137432692Y-80200624D01*
X137370264Y-80200624D01*
X137312587Y-80224515D01*
X137268443Y-80268659D01*
X137244552Y-80326336D01*
X137241478Y-80357550D01*
X136503465Y-80357550D01*
X136486600Y-80306954D01*
X136473813Y-80278313D01*
X136466321Y-80269675D01*
X136461210Y-80259452D01*
X136446053Y-80246307D01*
X136432909Y-80231151D01*
X136422685Y-80226039D01*
X136414048Y-80218548D01*
X136395012Y-80212202D01*
X136377071Y-80203232D01*
X136365669Y-80202421D01*
X136354823Y-80198806D01*
X136334811Y-80200228D01*
X136314799Y-80198806D01*
X136303952Y-80202421D01*
X136292551Y-80203232D01*
X136274609Y-80212202D01*
X136255574Y-80218548D01*
X136246936Y-80226039D01*
X136236713Y-80231151D01*
X136223569Y-80246306D01*
X136208412Y-80259452D01*
X136203299Y-80269677D01*
X136195809Y-80278314D01*
X136183022Y-80306954D01*
X135649688Y-81906954D01*
X135642733Y-81937538D01*
X135208810Y-81937538D01*
X135576175Y-80394610D01*
X135580414Y-80363533D01*
X135570532Y-80301890D01*
X135537813Y-80248722D01*
X135487238Y-80212122D01*
X135426508Y-80197662D01*
X135364866Y-80207544D01*
X135311698Y-80240263D01*
X135275097Y-80290838D01*
X135264877Y-80320491D01*
X135030791Y-81303649D01*
X134889409Y-80773467D01*
X134886665Y-80766152D01*
X134886258Y-80763082D01*
X134884147Y-80759436D01*
X134878396Y-80744099D01*
X134865557Y-80727326D01*
X134854979Y-80709054D01*
X134846749Y-80702754D01*
X134840450Y-80694525D01*
X134822177Y-80683946D01*
X134805405Y-80671108D01*
X134795388Y-80668436D01*
X134786422Y-80663246D01*
X134765493Y-80660465D01*
X134745085Y-80655023D01*
X134734811Y-80656388D01*
X134724537Y-80655023D01*
X134704128Y-80660465D01*
X134683200Y-80663246D01*
X134674233Y-80668436D01*
X134664217Y-80671108D01*
X134647444Y-80683946D01*
X134629172Y-80694525D01*
X134622872Y-80702754D01*
X134614643Y-80709054D01*
X134604064Y-80727326D01*
X134591226Y-80744099D01*
X134585474Y-80759436D01*
X134583364Y-80763082D01*
X134582956Y-80766152D01*
X134580213Y-80773467D01*
X134438831Y-81303649D01*
X134204746Y-80320491D01*
X134194526Y-80290838D01*
X134157925Y-80240263D01*
X134104757Y-80207544D01*
X134043115Y-80197662D01*
X133982385Y-80212121D01*
X133931810Y-80248722D01*
X133899091Y-80301890D01*
X133889209Y-80363532D01*
X133711431Y-80363532D01*
X133711431Y-80019772D01*
X159299907Y-80019772D01*
X159299907Y-82447709D01*
G37*
D14*
X150200507Y-98409672D02*
X150200507Y-98923958D01*
X150200507Y-98666815D02*
X149300507Y-98666815D01*
X149300507Y-98666815D02*
X149429078Y-98752529D01*
X149429078Y-98752529D02*
X149514792Y-98838244D01*
X149514792Y-98838244D02*
X149557650Y-98923958D01*
X149300507Y-97852529D02*
X149300507Y-97766815D01*
X149300507Y-97766815D02*
X149343364Y-97681101D01*
X149343364Y-97681101D02*
X149386221Y-97638244D01*
X149386221Y-97638244D02*
X149471935Y-97595386D01*
X149471935Y-97595386D02*
X149643364Y-97552529D01*
X149643364Y-97552529D02*
X149857650Y-97552529D01*
X149857650Y-97552529D02*
X150029078Y-97595386D01*
X150029078Y-97595386D02*
X150114792Y-97638244D01*
X150114792Y-97638244D02*
X150157650Y-97681101D01*
X150157650Y-97681101D02*
X150200507Y-97766815D01*
X150200507Y-97766815D02*
X150200507Y-97852529D01*
X150200507Y-97852529D02*
X150157650Y-97938244D01*
X150157650Y-97938244D02*
X150114792Y-97981101D01*
X150114792Y-97981101D02*
X150029078Y-98023958D01*
X150029078Y-98023958D02*
X149857650Y-98066815D01*
X149857650Y-98066815D02*
X149643364Y-98066815D01*
X149643364Y-98066815D02*
X149471935Y-98023958D01*
X149471935Y-98023958D02*
X149386221Y-97981101D01*
X149386221Y-97981101D02*
X149343364Y-97938244D01*
X149343364Y-97938244D02*
X149300507Y-97852529D01*
X149600507Y-97166815D02*
X150500507Y-97166815D01*
X150071935Y-96738243D02*
X150157650Y-96695386D01*
X150157650Y-96695386D02*
X150200507Y-96609672D01*
X150071935Y-97166815D02*
X150157650Y-97123958D01*
X150157650Y-97123958D02*
X150200507Y-97038243D01*
X150200507Y-97038243D02*
X150200507Y-96866815D01*
X150200507Y-96866815D02*
X150157650Y-96781101D01*
X150157650Y-96781101D02*
X150071935Y-96738243D01*
X150071935Y-96738243D02*
X149600507Y-96738243D01*
X149729078Y-95923958D02*
X149729078Y-96223958D01*
X150200507Y-96223958D02*
X149300507Y-96223958D01*
X149300507Y-96223958D02*
X149300507Y-95795386D01*
D11*
X153436666Y-89005920D02*
X153246190Y-89005920D01*
X153246190Y-89005920D02*
X153150952Y-89053539D01*
X153150952Y-89053539D02*
X153103333Y-89101158D01*
X153103333Y-89101158D02*
X153008095Y-89244015D01*
X153008095Y-89244015D02*
X152960476Y-89434491D01*
X152960476Y-89434491D02*
X152960476Y-89815443D01*
X152960476Y-89815443D02*
X153008095Y-89910681D01*
X153008095Y-89910681D02*
X153055714Y-89958301D01*
X153055714Y-89958301D02*
X153150952Y-90005920D01*
X153150952Y-90005920D02*
X153341428Y-90005920D01*
X153341428Y-90005920D02*
X153436666Y-89958301D01*
X153436666Y-89958301D02*
X153484285Y-89910681D01*
X153484285Y-89910681D02*
X153531904Y-89815443D01*
X153531904Y-89815443D02*
X153531904Y-89577348D01*
X153531904Y-89577348D02*
X153484285Y-89482110D01*
X153484285Y-89482110D02*
X153436666Y-89434491D01*
X153436666Y-89434491D02*
X153341428Y-89386872D01*
X153341428Y-89386872D02*
X153150952Y-89386872D01*
X153150952Y-89386872D02*
X153055714Y-89434491D01*
X153055714Y-89434491D02*
X153008095Y-89482110D01*
X153008095Y-89482110D02*
X152960476Y-89577348D01*
X154103333Y-89434491D02*
X154008095Y-89386872D01*
X154008095Y-89386872D02*
X153960476Y-89339253D01*
X153960476Y-89339253D02*
X153912857Y-89244015D01*
X153912857Y-89244015D02*
X153912857Y-89196396D01*
X153912857Y-89196396D02*
X153960476Y-89101158D01*
X153960476Y-89101158D02*
X154008095Y-89053539D01*
X154008095Y-89053539D02*
X154103333Y-89005920D01*
X154103333Y-89005920D02*
X154293809Y-89005920D01*
X154293809Y-89005920D02*
X154389047Y-89053539D01*
X154389047Y-89053539D02*
X154436666Y-89101158D01*
X154436666Y-89101158D02*
X154484285Y-89196396D01*
X154484285Y-89196396D02*
X154484285Y-89244015D01*
X154484285Y-89244015D02*
X154436666Y-89339253D01*
X154436666Y-89339253D02*
X154389047Y-89386872D01*
X154389047Y-89386872D02*
X154293809Y-89434491D01*
X154293809Y-89434491D02*
X154103333Y-89434491D01*
X154103333Y-89434491D02*
X154008095Y-89482110D01*
X154008095Y-89482110D02*
X153960476Y-89529729D01*
X153960476Y-89529729D02*
X153912857Y-89624967D01*
X153912857Y-89624967D02*
X153912857Y-89815443D01*
X153912857Y-89815443D02*
X153960476Y-89910681D01*
X153960476Y-89910681D02*
X154008095Y-89958301D01*
X154008095Y-89958301D02*
X154103333Y-90005920D01*
X154103333Y-90005920D02*
X154293809Y-90005920D01*
X154293809Y-90005920D02*
X154389047Y-89958301D01*
X154389047Y-89958301D02*
X154436666Y-89910681D01*
X154436666Y-89910681D02*
X154484285Y-89815443D01*
X154484285Y-89815443D02*
X154484285Y-89624967D01*
X154484285Y-89624967D02*
X154436666Y-89529729D01*
X154436666Y-89529729D02*
X154389047Y-89482110D01*
X154389047Y-89482110D02*
X154293809Y-89434491D01*
X155103333Y-89005920D02*
X155198571Y-89005920D01*
X155198571Y-89005920D02*
X155293809Y-89053539D01*
X155293809Y-89053539D02*
X155341428Y-89101158D01*
X155341428Y-89101158D02*
X155389047Y-89196396D01*
X155389047Y-89196396D02*
X155436666Y-89386872D01*
X155436666Y-89386872D02*
X155436666Y-89624967D01*
X155436666Y-89624967D02*
X155389047Y-89815443D01*
X155389047Y-89815443D02*
X155341428Y-89910681D01*
X155341428Y-89910681D02*
X155293809Y-89958301D01*
X155293809Y-89958301D02*
X155198571Y-90005920D01*
X155198571Y-90005920D02*
X155103333Y-90005920D01*
X155103333Y-90005920D02*
X155008095Y-89958301D01*
X155008095Y-89958301D02*
X154960476Y-89910681D01*
X154960476Y-89910681D02*
X154912857Y-89815443D01*
X154912857Y-89815443D02*
X154865238Y-89624967D01*
X154865238Y-89624967D02*
X154865238Y-89386872D01*
X154865238Y-89386872D02*
X154912857Y-89196396D01*
X154912857Y-89196396D02*
X154960476Y-89101158D01*
X154960476Y-89101158D02*
X155008095Y-89053539D01*
X155008095Y-89053539D02*
X155103333Y-89005920D01*
X155817619Y-90005920D02*
X156055714Y-90005920D01*
X156055714Y-90005920D02*
X156055714Y-89815443D01*
X156055714Y-89815443D02*
X155960476Y-89767824D01*
X155960476Y-89767824D02*
X155865238Y-89672586D01*
X155865238Y-89672586D02*
X155817619Y-89529729D01*
X155817619Y-89529729D02*
X155817619Y-89291634D01*
X155817619Y-89291634D02*
X155865238Y-89148777D01*
X155865238Y-89148777D02*
X155960476Y-89053539D01*
X155960476Y-89053539D02*
X156103333Y-89005920D01*
X156103333Y-89005920D02*
X156293809Y-89005920D01*
X156293809Y-89005920D02*
X156436666Y-89053539D01*
X156436666Y-89053539D02*
X156531904Y-89148777D01*
X156531904Y-89148777D02*
X156579523Y-89291634D01*
X156579523Y-89291634D02*
X156579523Y-89529729D01*
X156579523Y-89529729D02*
X156531904Y-89672586D01*
X156531904Y-89672586D02*
X156436666Y-89767824D01*
X156436666Y-89767824D02*
X156341428Y-89815443D01*
X156341428Y-89815443D02*
X156341428Y-90005920D01*
X156341428Y-90005920D02*
X156579523Y-90005920D01*
D14*
X177488298Y-108565108D02*
X177488298Y-107665108D01*
X177488298Y-107665108D02*
X178002584Y-108565108D01*
X178002584Y-108565108D02*
X178002584Y-107665108D01*
X178302584Y-107665108D02*
X178816870Y-107665108D01*
X178559727Y-108565108D02*
X178559727Y-107665108D01*
X179631155Y-108479393D02*
X179588298Y-108522251D01*
X179588298Y-108522251D02*
X179459726Y-108565108D01*
X179459726Y-108565108D02*
X179374012Y-108565108D01*
X179374012Y-108565108D02*
X179245441Y-108522251D01*
X179245441Y-108522251D02*
X179159726Y-108436536D01*
X179159726Y-108436536D02*
X179116869Y-108350822D01*
X179116869Y-108350822D02*
X179074012Y-108179393D01*
X179074012Y-108179393D02*
X179074012Y-108050822D01*
X179074012Y-108050822D02*
X179116869Y-107879393D01*
X179116869Y-107879393D02*
X179159726Y-107793679D01*
X179159726Y-107793679D02*
X179245441Y-107707965D01*
X179245441Y-107707965D02*
X179374012Y-107665108D01*
X179374012Y-107665108D02*
X179459726Y-107665108D01*
X179459726Y-107665108D02*
X179588298Y-107707965D01*
X179588298Y-107707965D02*
X179631155Y-107750822D01*
X179802584Y-108650822D02*
X180488298Y-108650822D01*
X181216869Y-108479393D02*
X181174012Y-108522251D01*
X181174012Y-108522251D02*
X181045440Y-108565108D01*
X181045440Y-108565108D02*
X180959726Y-108565108D01*
X180959726Y-108565108D02*
X180831155Y-108522251D01*
X180831155Y-108522251D02*
X180745440Y-108436536D01*
X180745440Y-108436536D02*
X180702583Y-108350822D01*
X180702583Y-108350822D02*
X180659726Y-108179393D01*
X180659726Y-108179393D02*
X180659726Y-108050822D01*
X180659726Y-108050822D02*
X180702583Y-107879393D01*
X180702583Y-107879393D02*
X180745440Y-107793679D01*
X180745440Y-107793679D02*
X180831155Y-107707965D01*
X180831155Y-107707965D02*
X180959726Y-107665108D01*
X180959726Y-107665108D02*
X181045440Y-107665108D01*
X181045440Y-107665108D02*
X181174012Y-107707965D01*
X181174012Y-107707965D02*
X181216869Y-107750822D01*
X181474012Y-107665108D02*
X181988298Y-107665108D01*
X181731155Y-108565108D02*
X181731155Y-107665108D01*
X182802583Y-108565108D02*
X182502583Y-108136536D01*
X182288297Y-108565108D02*
X182288297Y-107665108D01*
X182288297Y-107665108D02*
X182631154Y-107665108D01*
X182631154Y-107665108D02*
X182716869Y-107707965D01*
X182716869Y-107707965D02*
X182759726Y-107750822D01*
X182759726Y-107750822D02*
X182802583Y-107836536D01*
X182802583Y-107836536D02*
X182802583Y-107965108D01*
X182802583Y-107965108D02*
X182759726Y-108050822D01*
X182759726Y-108050822D02*
X182716869Y-108093679D01*
X182716869Y-108093679D02*
X182631154Y-108136536D01*
X182631154Y-108136536D02*
X182288297Y-108136536D01*
X183616869Y-108565108D02*
X183188297Y-108565108D01*
X183188297Y-108565108D02*
X183188297Y-107665108D01*
X183874011Y-107750822D02*
X183916868Y-107707965D01*
X183916868Y-107707965D02*
X184002583Y-107665108D01*
X184002583Y-107665108D02*
X184216868Y-107665108D01*
X184216868Y-107665108D02*
X184302583Y-107707965D01*
X184302583Y-107707965D02*
X184345440Y-107750822D01*
X184345440Y-107750822D02*
X184388297Y-107836536D01*
X184388297Y-107836536D02*
X184388297Y-107922251D01*
X184388297Y-107922251D02*
X184345440Y-108050822D01*
X184345440Y-108050822D02*
X183831154Y-108565108D01*
X183831154Y-108565108D02*
X184388297Y-108565108D01*
X177488298Y-89952608D02*
X177488298Y-89052608D01*
X177488298Y-89052608D02*
X178002584Y-89952608D01*
X178002584Y-89952608D02*
X178002584Y-89052608D01*
X178302584Y-89052608D02*
X178816870Y-89052608D01*
X178559727Y-89952608D02*
X178559727Y-89052608D01*
X179631155Y-89866893D02*
X179588298Y-89909751D01*
X179588298Y-89909751D02*
X179459726Y-89952608D01*
X179459726Y-89952608D02*
X179374012Y-89952608D01*
X179374012Y-89952608D02*
X179245441Y-89909751D01*
X179245441Y-89909751D02*
X179159726Y-89824036D01*
X179159726Y-89824036D02*
X179116869Y-89738322D01*
X179116869Y-89738322D02*
X179074012Y-89566893D01*
X179074012Y-89566893D02*
X179074012Y-89438322D01*
X179074012Y-89438322D02*
X179116869Y-89266893D01*
X179116869Y-89266893D02*
X179159726Y-89181179D01*
X179159726Y-89181179D02*
X179245441Y-89095465D01*
X179245441Y-89095465D02*
X179374012Y-89052608D01*
X179374012Y-89052608D02*
X179459726Y-89052608D01*
X179459726Y-89052608D02*
X179588298Y-89095465D01*
X179588298Y-89095465D02*
X179631155Y-89138322D01*
X179802584Y-90038322D02*
X180488298Y-90038322D01*
X180702583Y-89952608D02*
X180702583Y-89052608D01*
X180702583Y-89052608D02*
X181045440Y-89052608D01*
X181045440Y-89052608D02*
X181131155Y-89095465D01*
X181131155Y-89095465D02*
X181174012Y-89138322D01*
X181174012Y-89138322D02*
X181216869Y-89224036D01*
X181216869Y-89224036D02*
X181216869Y-89352608D01*
X181216869Y-89352608D02*
X181174012Y-89438322D01*
X181174012Y-89438322D02*
X181131155Y-89481179D01*
X181131155Y-89481179D02*
X181045440Y-89524036D01*
X181045440Y-89524036D02*
X180702583Y-89524036D01*
X182116869Y-89952608D02*
X181816869Y-89524036D01*
X181602583Y-89952608D02*
X181602583Y-89052608D01*
X181602583Y-89052608D02*
X181945440Y-89052608D01*
X181945440Y-89052608D02*
X182031155Y-89095465D01*
X182031155Y-89095465D02*
X182074012Y-89138322D01*
X182074012Y-89138322D02*
X182116869Y-89224036D01*
X182116869Y-89224036D02*
X182116869Y-89352608D01*
X182116869Y-89352608D02*
X182074012Y-89438322D01*
X182074012Y-89438322D02*
X182031155Y-89481179D01*
X182031155Y-89481179D02*
X181945440Y-89524036D01*
X181945440Y-89524036D02*
X181602583Y-89524036D01*
X182674012Y-89052608D02*
X182845440Y-89052608D01*
X182845440Y-89052608D02*
X182931155Y-89095465D01*
X182931155Y-89095465D02*
X183016869Y-89181179D01*
X183016869Y-89181179D02*
X183059726Y-89352608D01*
X183059726Y-89352608D02*
X183059726Y-89652608D01*
X183059726Y-89652608D02*
X183016869Y-89824036D01*
X183016869Y-89824036D02*
X182931155Y-89909751D01*
X182931155Y-89909751D02*
X182845440Y-89952608D01*
X182845440Y-89952608D02*
X182674012Y-89952608D01*
X182674012Y-89952608D02*
X182588298Y-89909751D01*
X182588298Y-89909751D02*
X182502583Y-89824036D01*
X182502583Y-89824036D02*
X182459726Y-89652608D01*
X182459726Y-89652608D02*
X182459726Y-89352608D01*
X182459726Y-89352608D02*
X182502583Y-89181179D01*
X182502583Y-89181179D02*
X182588298Y-89095465D01*
X182588298Y-89095465D02*
X182674012Y-89052608D01*
X183745440Y-89481179D02*
X183874012Y-89524036D01*
X183874012Y-89524036D02*
X183916869Y-89566893D01*
X183916869Y-89566893D02*
X183959726Y-89652608D01*
X183959726Y-89652608D02*
X183959726Y-89781179D01*
X183959726Y-89781179D02*
X183916869Y-89866893D01*
X183916869Y-89866893D02*
X183874012Y-89909751D01*
X183874012Y-89909751D02*
X183788297Y-89952608D01*
X183788297Y-89952608D02*
X183445440Y-89952608D01*
X183445440Y-89952608D02*
X183445440Y-89052608D01*
X183445440Y-89052608D02*
X183745440Y-89052608D01*
X183745440Y-89052608D02*
X183831155Y-89095465D01*
X183831155Y-89095465D02*
X183874012Y-89138322D01*
X183874012Y-89138322D02*
X183916869Y-89224036D01*
X183916869Y-89224036D02*
X183916869Y-89309751D01*
X183916869Y-89309751D02*
X183874012Y-89395465D01*
X183874012Y-89395465D02*
X183831155Y-89438322D01*
X183831155Y-89438322D02*
X183745440Y-89481179D01*
X183745440Y-89481179D02*
X183445440Y-89481179D01*
X184345440Y-89481179D02*
X184645440Y-89481179D01*
X184774012Y-89952608D02*
X184345440Y-89952608D01*
X184345440Y-89952608D02*
X184345440Y-89052608D01*
X184345440Y-89052608D02*
X184774012Y-89052608D01*
X185116869Y-89138322D02*
X185159726Y-89095465D01*
X185159726Y-89095465D02*
X185245441Y-89052608D01*
X185245441Y-89052608D02*
X185459726Y-89052608D01*
X185459726Y-89052608D02*
X185545441Y-89095465D01*
X185545441Y-89095465D02*
X185588298Y-89138322D01*
X185588298Y-89138322D02*
X185631155Y-89224036D01*
X185631155Y-89224036D02*
X185631155Y-89309751D01*
X185631155Y-89309751D02*
X185588298Y-89438322D01*
X185588298Y-89438322D02*
X185074012Y-89952608D01*
X185074012Y-89952608D02*
X185631155Y-89952608D01*
D11*
X141272857Y-90045920D02*
X140701429Y-90045920D01*
X140987143Y-90045920D02*
X140987143Y-89045920D01*
X140987143Y-89045920D02*
X140891905Y-89188777D01*
X140891905Y-89188777D02*
X140796667Y-89284015D01*
X140796667Y-89284015D02*
X140701429Y-89331634D01*
X141701429Y-90045920D02*
X141701429Y-89045920D01*
X141701429Y-89045920D02*
X142034762Y-89760205D01*
X142034762Y-89760205D02*
X142368095Y-89045920D01*
X142368095Y-89045920D02*
X142368095Y-90045920D01*
X142796667Y-90045920D02*
X143034762Y-90045920D01*
X143034762Y-90045920D02*
X143034762Y-89855443D01*
X143034762Y-89855443D02*
X142939524Y-89807824D01*
X142939524Y-89807824D02*
X142844286Y-89712586D01*
X142844286Y-89712586D02*
X142796667Y-89569729D01*
X142796667Y-89569729D02*
X142796667Y-89331634D01*
X142796667Y-89331634D02*
X142844286Y-89188777D01*
X142844286Y-89188777D02*
X142939524Y-89093539D01*
X142939524Y-89093539D02*
X143082381Y-89045920D01*
X143082381Y-89045920D02*
X143272857Y-89045920D01*
X143272857Y-89045920D02*
X143415714Y-89093539D01*
X143415714Y-89093539D02*
X143510952Y-89188777D01*
X143510952Y-89188777D02*
X143558571Y-89331634D01*
X143558571Y-89331634D02*
X143558571Y-89569729D01*
X143558571Y-89569729D02*
X143510952Y-89712586D01*
X143510952Y-89712586D02*
X143415714Y-89807824D01*
X143415714Y-89807824D02*
X143320476Y-89855443D01*
X143320476Y-89855443D02*
X143320476Y-90045920D01*
X143320476Y-90045920D02*
X143558571Y-90045920D01*
D14*
X146094792Y-98566815D02*
X146137650Y-98523958D01*
X146137650Y-98523958D02*
X146180507Y-98566815D01*
X146180507Y-98566815D02*
X146137650Y-98609672D01*
X146137650Y-98609672D02*
X146094792Y-98566815D01*
X146094792Y-98566815D02*
X146180507Y-98566815D01*
X146180507Y-97666815D02*
X146180507Y-98181101D01*
X146180507Y-97923958D02*
X145280507Y-97923958D01*
X145280507Y-97923958D02*
X145409078Y-98009672D01*
X145409078Y-98009672D02*
X145494792Y-98095387D01*
X145494792Y-98095387D02*
X145537650Y-98181101D01*
X145580507Y-97281101D02*
X146480507Y-97281101D01*
X146051935Y-96852529D02*
X146137650Y-96809672D01*
X146137650Y-96809672D02*
X146180507Y-96723958D01*
X146051935Y-97281101D02*
X146137650Y-97238244D01*
X146137650Y-97238244D02*
X146180507Y-97152529D01*
X146180507Y-97152529D02*
X146180507Y-96981101D01*
X146180507Y-96981101D02*
X146137650Y-96895387D01*
X146137650Y-96895387D02*
X146051935Y-96852529D01*
X146051935Y-96852529D02*
X145580507Y-96852529D01*
X145709078Y-96038244D02*
X145709078Y-96338244D01*
X146180507Y-96338244D02*
X145280507Y-96338244D01*
X145280507Y-96338244D02*
X145280507Y-95909672D01*
X177488298Y-106027608D02*
X177488298Y-105127608D01*
X177488298Y-105127608D02*
X178002584Y-106027608D01*
X178002584Y-106027608D02*
X178002584Y-105127608D01*
X178302584Y-105127608D02*
X178816870Y-105127608D01*
X178559727Y-106027608D02*
X178559727Y-105127608D01*
X179631155Y-105941893D02*
X179588298Y-105984751D01*
X179588298Y-105984751D02*
X179459726Y-106027608D01*
X179459726Y-106027608D02*
X179374012Y-106027608D01*
X179374012Y-106027608D02*
X179245441Y-105984751D01*
X179245441Y-105984751D02*
X179159726Y-105899036D01*
X179159726Y-105899036D02*
X179116869Y-105813322D01*
X179116869Y-105813322D02*
X179074012Y-105641893D01*
X179074012Y-105641893D02*
X179074012Y-105513322D01*
X179074012Y-105513322D02*
X179116869Y-105341893D01*
X179116869Y-105341893D02*
X179159726Y-105256179D01*
X179159726Y-105256179D02*
X179245441Y-105170465D01*
X179245441Y-105170465D02*
X179374012Y-105127608D01*
X179374012Y-105127608D02*
X179459726Y-105127608D01*
X179459726Y-105127608D02*
X179588298Y-105170465D01*
X179588298Y-105170465D02*
X179631155Y-105213322D01*
X179802584Y-106113322D02*
X180488298Y-106113322D01*
X181216869Y-105941893D02*
X181174012Y-105984751D01*
X181174012Y-105984751D02*
X181045440Y-106027608D01*
X181045440Y-106027608D02*
X180959726Y-106027608D01*
X180959726Y-106027608D02*
X180831155Y-105984751D01*
X180831155Y-105984751D02*
X180745440Y-105899036D01*
X180745440Y-105899036D02*
X180702583Y-105813322D01*
X180702583Y-105813322D02*
X180659726Y-105641893D01*
X180659726Y-105641893D02*
X180659726Y-105513322D01*
X180659726Y-105513322D02*
X180702583Y-105341893D01*
X180702583Y-105341893D02*
X180745440Y-105256179D01*
X180745440Y-105256179D02*
X180831155Y-105170465D01*
X180831155Y-105170465D02*
X180959726Y-105127608D01*
X180959726Y-105127608D02*
X181045440Y-105127608D01*
X181045440Y-105127608D02*
X181174012Y-105170465D01*
X181174012Y-105170465D02*
X181216869Y-105213322D01*
X181474012Y-105127608D02*
X181988298Y-105127608D01*
X181731155Y-106027608D02*
X181731155Y-105127608D01*
X182802583Y-106027608D02*
X182502583Y-105599036D01*
X182288297Y-106027608D02*
X182288297Y-105127608D01*
X182288297Y-105127608D02*
X182631154Y-105127608D01*
X182631154Y-105127608D02*
X182716869Y-105170465D01*
X182716869Y-105170465D02*
X182759726Y-105213322D01*
X182759726Y-105213322D02*
X182802583Y-105299036D01*
X182802583Y-105299036D02*
X182802583Y-105427608D01*
X182802583Y-105427608D02*
X182759726Y-105513322D01*
X182759726Y-105513322D02*
X182716869Y-105556179D01*
X182716869Y-105556179D02*
X182631154Y-105599036D01*
X182631154Y-105599036D02*
X182288297Y-105599036D01*
X183616869Y-106027608D02*
X183188297Y-106027608D01*
X183188297Y-106027608D02*
X183188297Y-105127608D01*
X184388297Y-106027608D02*
X183874011Y-106027608D01*
X184131154Y-106027608D02*
X184131154Y-105127608D01*
X184131154Y-105127608D02*
X184045440Y-105256179D01*
X184045440Y-105256179D02*
X183959725Y-105341893D01*
X183959725Y-105341893D02*
X183874011Y-105384751D01*
D12*
X177503884Y-98403520D02*
X177503884Y-97403520D01*
X177503884Y-97403520D02*
X177741979Y-97403520D01*
X177741979Y-97403520D02*
X177884836Y-97451139D01*
X177884836Y-97451139D02*
X177980074Y-97546377D01*
X177980074Y-97546377D02*
X178027693Y-97641615D01*
X178027693Y-97641615D02*
X178075312Y-97832091D01*
X178075312Y-97832091D02*
X178075312Y-97974948D01*
X178075312Y-97974948D02*
X178027693Y-98165424D01*
X178027693Y-98165424D02*
X177980074Y-98260662D01*
X177980074Y-98260662D02*
X177884836Y-98355901D01*
X177884836Y-98355901D02*
X177741979Y-98403520D01*
X177741979Y-98403520D02*
X177503884Y-98403520D01*
X178503884Y-98403520D02*
X178503884Y-97403520D01*
X178980074Y-98403520D02*
X178980074Y-97403520D01*
X178980074Y-97403520D02*
X179551502Y-98403520D01*
X179551502Y-98403520D02*
X179551502Y-97403520D01*
X180551502Y-98403520D02*
X179980074Y-98403520D01*
X180265788Y-98403520D02*
X180265788Y-97403520D01*
X180265788Y-97403520D02*
X180170550Y-97546377D01*
X180170550Y-97546377D02*
X180075312Y-97641615D01*
X180075312Y-97641615D02*
X179980074Y-97689234D01*
D14*
X177488298Y-87415108D02*
X177488298Y-86515108D01*
X177488298Y-86515108D02*
X178002584Y-87415108D01*
X178002584Y-87415108D02*
X178002584Y-86515108D01*
X178302584Y-86515108D02*
X178816870Y-86515108D01*
X178559727Y-87415108D02*
X178559727Y-86515108D01*
X179631155Y-87329393D02*
X179588298Y-87372251D01*
X179588298Y-87372251D02*
X179459726Y-87415108D01*
X179459726Y-87415108D02*
X179374012Y-87415108D01*
X179374012Y-87415108D02*
X179245441Y-87372251D01*
X179245441Y-87372251D02*
X179159726Y-87286536D01*
X179159726Y-87286536D02*
X179116869Y-87200822D01*
X179116869Y-87200822D02*
X179074012Y-87029393D01*
X179074012Y-87029393D02*
X179074012Y-86900822D01*
X179074012Y-86900822D02*
X179116869Y-86729393D01*
X179116869Y-86729393D02*
X179159726Y-86643679D01*
X179159726Y-86643679D02*
X179245441Y-86557965D01*
X179245441Y-86557965D02*
X179374012Y-86515108D01*
X179374012Y-86515108D02*
X179459726Y-86515108D01*
X179459726Y-86515108D02*
X179588298Y-86557965D01*
X179588298Y-86557965D02*
X179631155Y-86600822D01*
X179802584Y-87500822D02*
X180488298Y-87500822D01*
X180702583Y-87415108D02*
X180702583Y-86515108D01*
X180702583Y-86515108D02*
X181045440Y-86515108D01*
X181045440Y-86515108D02*
X181131155Y-86557965D01*
X181131155Y-86557965D02*
X181174012Y-86600822D01*
X181174012Y-86600822D02*
X181216869Y-86686536D01*
X181216869Y-86686536D02*
X181216869Y-86815108D01*
X181216869Y-86815108D02*
X181174012Y-86900822D01*
X181174012Y-86900822D02*
X181131155Y-86943679D01*
X181131155Y-86943679D02*
X181045440Y-86986536D01*
X181045440Y-86986536D02*
X180702583Y-86986536D01*
X182116869Y-87415108D02*
X181816869Y-86986536D01*
X181602583Y-87415108D02*
X181602583Y-86515108D01*
X181602583Y-86515108D02*
X181945440Y-86515108D01*
X181945440Y-86515108D02*
X182031155Y-86557965D01*
X182031155Y-86557965D02*
X182074012Y-86600822D01*
X182074012Y-86600822D02*
X182116869Y-86686536D01*
X182116869Y-86686536D02*
X182116869Y-86815108D01*
X182116869Y-86815108D02*
X182074012Y-86900822D01*
X182074012Y-86900822D02*
X182031155Y-86943679D01*
X182031155Y-86943679D02*
X181945440Y-86986536D01*
X181945440Y-86986536D02*
X181602583Y-86986536D01*
X182674012Y-86515108D02*
X182845440Y-86515108D01*
X182845440Y-86515108D02*
X182931155Y-86557965D01*
X182931155Y-86557965D02*
X183016869Y-86643679D01*
X183016869Y-86643679D02*
X183059726Y-86815108D01*
X183059726Y-86815108D02*
X183059726Y-87115108D01*
X183059726Y-87115108D02*
X183016869Y-87286536D01*
X183016869Y-87286536D02*
X182931155Y-87372251D01*
X182931155Y-87372251D02*
X182845440Y-87415108D01*
X182845440Y-87415108D02*
X182674012Y-87415108D01*
X182674012Y-87415108D02*
X182588298Y-87372251D01*
X182588298Y-87372251D02*
X182502583Y-87286536D01*
X182502583Y-87286536D02*
X182459726Y-87115108D01*
X182459726Y-87115108D02*
X182459726Y-86815108D01*
X182459726Y-86815108D02*
X182502583Y-86643679D01*
X182502583Y-86643679D02*
X182588298Y-86557965D01*
X182588298Y-86557965D02*
X182674012Y-86515108D01*
X183745440Y-86943679D02*
X183874012Y-86986536D01*
X183874012Y-86986536D02*
X183916869Y-87029393D01*
X183916869Y-87029393D02*
X183959726Y-87115108D01*
X183959726Y-87115108D02*
X183959726Y-87243679D01*
X183959726Y-87243679D02*
X183916869Y-87329393D01*
X183916869Y-87329393D02*
X183874012Y-87372251D01*
X183874012Y-87372251D02*
X183788297Y-87415108D01*
X183788297Y-87415108D02*
X183445440Y-87415108D01*
X183445440Y-87415108D02*
X183445440Y-86515108D01*
X183445440Y-86515108D02*
X183745440Y-86515108D01*
X183745440Y-86515108D02*
X183831155Y-86557965D01*
X183831155Y-86557965D02*
X183874012Y-86600822D01*
X183874012Y-86600822D02*
X183916869Y-86686536D01*
X183916869Y-86686536D02*
X183916869Y-86772251D01*
X183916869Y-86772251D02*
X183874012Y-86857965D01*
X183874012Y-86857965D02*
X183831155Y-86900822D01*
X183831155Y-86900822D02*
X183745440Y-86943679D01*
X183745440Y-86943679D02*
X183445440Y-86943679D01*
X184345440Y-86943679D02*
X184645440Y-86943679D01*
X184774012Y-87415108D02*
X184345440Y-87415108D01*
X184345440Y-87415108D02*
X184345440Y-86515108D01*
X184345440Y-86515108D02*
X184774012Y-86515108D01*
X185631155Y-87415108D02*
X185116869Y-87415108D01*
X185374012Y-87415108D02*
X185374012Y-86515108D01*
X185374012Y-86515108D02*
X185288298Y-86643679D01*
X185288298Y-86643679D02*
X185202583Y-86729393D01*
X185202583Y-86729393D02*
X185116869Y-86772251D01*
D15*
X151716661Y-103818940D02*
X151349994Y-103295131D01*
X151088089Y-103818940D02*
X151088089Y-102718940D01*
X151088089Y-102718940D02*
X151507137Y-102718940D01*
X151507137Y-102718940D02*
X151611899Y-102771321D01*
X151611899Y-102771321D02*
X151664280Y-102823702D01*
X151664280Y-102823702D02*
X151716661Y-102928464D01*
X151716661Y-102928464D02*
X151716661Y-103085607D01*
X151716661Y-103085607D02*
X151664280Y-103190369D01*
X151664280Y-103190369D02*
X151611899Y-103242750D01*
X151611899Y-103242750D02*
X151507137Y-103295131D01*
X151507137Y-103295131D02*
X151088089Y-103295131D01*
X152188089Y-103242750D02*
X152554756Y-103242750D01*
X152711899Y-103818940D02*
X152188089Y-103818940D01*
X152188089Y-103818940D02*
X152188089Y-102718940D01*
X152188089Y-102718940D02*
X152711899Y-102718940D01*
X153183327Y-103818940D02*
X153183327Y-102718940D01*
X153183327Y-102718940D02*
X153602375Y-102718940D01*
X153602375Y-102718940D02*
X153707137Y-102771321D01*
X153707137Y-102771321D02*
X153759518Y-102823702D01*
X153759518Y-102823702D02*
X153811899Y-102928464D01*
X153811899Y-102928464D02*
X153811899Y-103085607D01*
X153811899Y-103085607D02*
X153759518Y-103190369D01*
X153759518Y-103190369D02*
X153707137Y-103242750D01*
X153707137Y-103242750D02*
X153602375Y-103295131D01*
X153602375Y-103295131D02*
X153183327Y-103295131D01*
X154492851Y-102718940D02*
X154702375Y-102718940D01*
X154702375Y-102718940D02*
X154807137Y-102771321D01*
X154807137Y-102771321D02*
X154911899Y-102876083D01*
X154911899Y-102876083D02*
X154964280Y-103085607D01*
X154964280Y-103085607D02*
X154964280Y-103452274D01*
X154964280Y-103452274D02*
X154911899Y-103661798D01*
X154911899Y-103661798D02*
X154807137Y-103766560D01*
X154807137Y-103766560D02*
X154702375Y-103818940D01*
X154702375Y-103818940D02*
X154492851Y-103818940D01*
X154492851Y-103818940D02*
X154388089Y-103766560D01*
X154388089Y-103766560D02*
X154283327Y-103661798D01*
X154283327Y-103661798D02*
X154230946Y-103452274D01*
X154230946Y-103452274D02*
X154230946Y-103085607D01*
X154230946Y-103085607D02*
X154283327Y-102876083D01*
X154283327Y-102876083D02*
X154388089Y-102771321D01*
X154388089Y-102771321D02*
X154492851Y-102718940D01*
X156273803Y-102718940D02*
X156273803Y-103609417D01*
X156273803Y-103609417D02*
X156326184Y-103714179D01*
X156326184Y-103714179D02*
X156378565Y-103766560D01*
X156378565Y-103766560D02*
X156483327Y-103818940D01*
X156483327Y-103818940D02*
X156692851Y-103818940D01*
X156692851Y-103818940D02*
X156797613Y-103766560D01*
X156797613Y-103766560D02*
X156849994Y-103714179D01*
X156849994Y-103714179D02*
X156902375Y-103609417D01*
X156902375Y-103609417D02*
X156902375Y-102718940D01*
X158054756Y-103818940D02*
X157688089Y-103295131D01*
X157426184Y-103818940D02*
X157426184Y-102718940D01*
X157426184Y-102718940D02*
X157845232Y-102718940D01*
X157845232Y-102718940D02*
X157949994Y-102771321D01*
X157949994Y-102771321D02*
X158002375Y-102823702D01*
X158002375Y-102823702D02*
X158054756Y-102928464D01*
X158054756Y-102928464D02*
X158054756Y-103085607D01*
X158054756Y-103085607D02*
X158002375Y-103190369D01*
X158002375Y-103190369D02*
X157949994Y-103242750D01*
X157949994Y-103242750D02*
X157845232Y-103295131D01*
X157845232Y-103295131D02*
X157426184Y-103295131D01*
X159049994Y-103818940D02*
X158526184Y-103818940D01*
X158526184Y-103818940D02*
X158526184Y-102718940D01*
D12*
X177503884Y-100941020D02*
X177503884Y-99941020D01*
X177503884Y-99941020D02*
X177741979Y-99941020D01*
X177741979Y-99941020D02*
X177884836Y-99988639D01*
X177884836Y-99988639D02*
X177980074Y-100083877D01*
X177980074Y-100083877D02*
X178027693Y-100179115D01*
X178027693Y-100179115D02*
X178075312Y-100369591D01*
X178075312Y-100369591D02*
X178075312Y-100512448D01*
X178075312Y-100512448D02*
X178027693Y-100702924D01*
X178027693Y-100702924D02*
X177980074Y-100798162D01*
X177980074Y-100798162D02*
X177884836Y-100893401D01*
X177884836Y-100893401D02*
X177741979Y-100941020D01*
X177741979Y-100941020D02*
X177503884Y-100941020D01*
X178503884Y-100941020D02*
X178503884Y-99941020D01*
X178980074Y-100941020D02*
X178980074Y-99941020D01*
X178980074Y-99941020D02*
X179551502Y-100941020D01*
X179551502Y-100941020D02*
X179551502Y-99941020D01*
X179980074Y-100036258D02*
X180027693Y-99988639D01*
X180027693Y-99988639D02*
X180122931Y-99941020D01*
X180122931Y-99941020D02*
X180361026Y-99941020D01*
X180361026Y-99941020D02*
X180456264Y-99988639D01*
X180456264Y-99988639D02*
X180503883Y-100036258D01*
X180503883Y-100036258D02*
X180551502Y-100131496D01*
X180551502Y-100131496D02*
X180551502Y-100226734D01*
X180551502Y-100226734D02*
X180503883Y-100369591D01*
X180503883Y-100369591D02*
X179932455Y-100941020D01*
X179932455Y-100941020D02*
X180551502Y-100941020D01*
D11*
X167304819Y-88676339D02*
X167304819Y-89247767D01*
X167304819Y-88962053D02*
X166304819Y-88962053D01*
X166304819Y-88962053D02*
X166447676Y-89057291D01*
X166447676Y-89057291D02*
X166542914Y-89152529D01*
X166542914Y-89152529D02*
X166590533Y-89247767D01*
X166638152Y-88247767D02*
X167304819Y-88247767D01*
X166733390Y-88247767D02*
X166685771Y-88200148D01*
X166685771Y-88200148D02*
X166638152Y-88104910D01*
X166638152Y-88104910D02*
X166638152Y-87962053D01*
X166638152Y-87962053D02*
X166685771Y-87866815D01*
X166685771Y-87866815D02*
X166781009Y-87819196D01*
X166781009Y-87819196D02*
X167304819Y-87819196D01*
X166781009Y-87009672D02*
X166781009Y-87343005D01*
X167304819Y-87343005D02*
X166304819Y-87343005D01*
X166304819Y-87343005D02*
X166304819Y-86866815D01*
X142124819Y-100758243D02*
X142124819Y-101329671D01*
X142124819Y-101043957D02*
X141124819Y-101043957D01*
X141124819Y-101043957D02*
X141267676Y-101139195D01*
X141267676Y-101139195D02*
X141362914Y-101234433D01*
X141362914Y-101234433D02*
X141410533Y-101329671D01*
X142124819Y-100329671D02*
X141124819Y-100329671D01*
X141124819Y-100329671D02*
X141839104Y-99996338D01*
X141839104Y-99996338D02*
X141124819Y-99663005D01*
X141124819Y-99663005D02*
X142124819Y-99663005D01*
X142124819Y-99234433D02*
X142124819Y-98996338D01*
X142124819Y-98996338D02*
X141934342Y-98996338D01*
X141934342Y-98996338D02*
X141886723Y-99091576D01*
X141886723Y-99091576D02*
X141791485Y-99186814D01*
X141791485Y-99186814D02*
X141648628Y-99234433D01*
X141648628Y-99234433D02*
X141410533Y-99234433D01*
X141410533Y-99234433D02*
X141267676Y-99186814D01*
X141267676Y-99186814D02*
X141172438Y-99091576D01*
X141172438Y-99091576D02*
X141124819Y-98948719D01*
X141124819Y-98948719D02*
X141124819Y-98758243D01*
X141124819Y-98758243D02*
X141172438Y-98615386D01*
X141172438Y-98615386D02*
X141267676Y-98520148D01*
X141267676Y-98520148D02*
X141410533Y-98472529D01*
X141410533Y-98472529D02*
X141648628Y-98472529D01*
X141648628Y-98472529D02*
X141791485Y-98520148D01*
X141791485Y-98520148D02*
X141886723Y-98615386D01*
X141886723Y-98615386D02*
X141934342Y-98710624D01*
X141934342Y-98710624D02*
X142124819Y-98710624D01*
X142124819Y-98710624D02*
X142124819Y-98472529D01*
X173286666Y-110475920D02*
X173286666Y-111190205D01*
X173286666Y-111190205D02*
X173239047Y-111333062D01*
X173239047Y-111333062D02*
X173143809Y-111428301D01*
X173143809Y-111428301D02*
X173000952Y-111475920D01*
X173000952Y-111475920D02*
X172905714Y-111475920D01*
X173715238Y-110571158D02*
X173762857Y-110523539D01*
X173762857Y-110523539D02*
X173858095Y-110475920D01*
X173858095Y-110475920D02*
X174096190Y-110475920D01*
X174096190Y-110475920D02*
X174191428Y-110523539D01*
X174191428Y-110523539D02*
X174239047Y-110571158D01*
X174239047Y-110571158D02*
X174286666Y-110666396D01*
X174286666Y-110666396D02*
X174286666Y-110761634D01*
X174286666Y-110761634D02*
X174239047Y-110904491D01*
X174239047Y-110904491D02*
X173667619Y-111475920D01*
X173667619Y-111475920D02*
X174286666Y-111475920D01*
X145653333Y-93020681D02*
X145605714Y-93068301D01*
X145605714Y-93068301D02*
X145462857Y-93115920D01*
X145462857Y-93115920D02*
X145367619Y-93115920D01*
X145367619Y-93115920D02*
X145224762Y-93068301D01*
X145224762Y-93068301D02*
X145129524Y-92973062D01*
X145129524Y-92973062D02*
X145081905Y-92877824D01*
X145081905Y-92877824D02*
X145034286Y-92687348D01*
X145034286Y-92687348D02*
X145034286Y-92544491D01*
X145034286Y-92544491D02*
X145081905Y-92354015D01*
X145081905Y-92354015D02*
X145129524Y-92258777D01*
X145129524Y-92258777D02*
X145224762Y-92163539D01*
X145224762Y-92163539D02*
X145367619Y-92115920D01*
X145367619Y-92115920D02*
X145462857Y-92115920D01*
X145462857Y-92115920D02*
X145605714Y-92163539D01*
X145605714Y-92163539D02*
X145653333Y-92211158D01*
X146605714Y-93115920D02*
X146034286Y-93115920D01*
X146320000Y-93115920D02*
X146320000Y-92115920D01*
X146320000Y-92115920D02*
X146224762Y-92258777D01*
X146224762Y-92258777D02*
X146129524Y-92354015D01*
X146129524Y-92354015D02*
X146034286Y-92401634D01*
X149543333Y-93020681D02*
X149495714Y-93068301D01*
X149495714Y-93068301D02*
X149352857Y-93115920D01*
X149352857Y-93115920D02*
X149257619Y-93115920D01*
X149257619Y-93115920D02*
X149114762Y-93068301D01*
X149114762Y-93068301D02*
X149019524Y-92973062D01*
X149019524Y-92973062D02*
X148971905Y-92877824D01*
X148971905Y-92877824D02*
X148924286Y-92687348D01*
X148924286Y-92687348D02*
X148924286Y-92544491D01*
X148924286Y-92544491D02*
X148971905Y-92354015D01*
X148971905Y-92354015D02*
X149019524Y-92258777D01*
X149019524Y-92258777D02*
X149114762Y-92163539D01*
X149114762Y-92163539D02*
X149257619Y-92115920D01*
X149257619Y-92115920D02*
X149352857Y-92115920D01*
X149352857Y-92115920D02*
X149495714Y-92163539D01*
X149495714Y-92163539D02*
X149543333Y-92211158D01*
X149924286Y-92211158D02*
X149971905Y-92163539D01*
X149971905Y-92163539D02*
X150067143Y-92115920D01*
X150067143Y-92115920D02*
X150305238Y-92115920D01*
X150305238Y-92115920D02*
X150400476Y-92163539D01*
X150400476Y-92163539D02*
X150448095Y-92211158D01*
X150448095Y-92211158D02*
X150495714Y-92306396D01*
X150495714Y-92306396D02*
X150495714Y-92401634D01*
X150495714Y-92401634D02*
X150448095Y-92544491D01*
X150448095Y-92544491D02*
X149876667Y-93115920D01*
X149876667Y-93115920D02*
X150495714Y-93115920D01*
X164018095Y-93270920D02*
X164018095Y-94080443D01*
X164018095Y-94080443D02*
X164065714Y-94175681D01*
X164065714Y-94175681D02*
X164113333Y-94223301D01*
X164113333Y-94223301D02*
X164208571Y-94270920D01*
X164208571Y-94270920D02*
X164399047Y-94270920D01*
X164399047Y-94270920D02*
X164494285Y-94223301D01*
X164494285Y-94223301D02*
X164541904Y-94175681D01*
X164541904Y-94175681D02*
X164589523Y-94080443D01*
X164589523Y-94080443D02*
X164589523Y-93270920D01*
X165589523Y-94270920D02*
X165018095Y-94270920D01*
X165303809Y-94270920D02*
X165303809Y-93270920D01*
X165303809Y-93270920D02*
X165208571Y-93413777D01*
X165208571Y-93413777D02*
X165113333Y-93509015D01*
X165113333Y-93509015D02*
X165018095Y-93556634D01*
X136637261Y-96501158D02*
X136542023Y-96453539D01*
X136542023Y-96453539D02*
X136446785Y-96358301D01*
X136446785Y-96358301D02*
X136303928Y-96215443D01*
X136303928Y-96215443D02*
X136208690Y-96167824D01*
X136208690Y-96167824D02*
X136113452Y-96167824D01*
X136161071Y-96405920D02*
X136065833Y-96358301D01*
X136065833Y-96358301D02*
X135970595Y-96263062D01*
X135970595Y-96263062D02*
X135922976Y-96072586D01*
X135922976Y-96072586D02*
X135922976Y-95739253D01*
X135922976Y-95739253D02*
X135970595Y-95548777D01*
X135970595Y-95548777D02*
X136065833Y-95453539D01*
X136065833Y-95453539D02*
X136161071Y-95405920D01*
X136161071Y-95405920D02*
X136351547Y-95405920D01*
X136351547Y-95405920D02*
X136446785Y-95453539D01*
X136446785Y-95453539D02*
X136542023Y-95548777D01*
X136542023Y-95548777D02*
X136589642Y-95739253D01*
X136589642Y-95739253D02*
X136589642Y-96072586D01*
X136589642Y-96072586D02*
X136542023Y-96263062D01*
X136542023Y-96263062D02*
X136446785Y-96358301D01*
X136446785Y-96358301D02*
X136351547Y-96405920D01*
X136351547Y-96405920D02*
X136161071Y-96405920D01*
X137542023Y-96405920D02*
X136970595Y-96405920D01*
X137256309Y-96405920D02*
X137256309Y-95405920D01*
X137256309Y-95405920D02*
X137161071Y-95548777D01*
X137161071Y-95548777D02*
X137065833Y-95644015D01*
X137065833Y-95644015D02*
X136970595Y-95691634D01*
X165339819Y-110096195D02*
X164339819Y-110096195D01*
X164339819Y-110096195D02*
X164339819Y-109858100D01*
X164339819Y-109858100D02*
X164387438Y-109715243D01*
X164387438Y-109715243D02*
X164482676Y-109620005D01*
X164482676Y-109620005D02*
X164577914Y-109572386D01*
X164577914Y-109572386D02*
X164768390Y-109524767D01*
X164768390Y-109524767D02*
X164911247Y-109524767D01*
X164911247Y-109524767D02*
X165101723Y-109572386D01*
X165101723Y-109572386D02*
X165196961Y-109620005D01*
X165196961Y-109620005D02*
X165292200Y-109715243D01*
X165292200Y-109715243D02*
X165339819Y-109858100D01*
X165339819Y-109858100D02*
X165339819Y-110096195D01*
X164339819Y-109191433D02*
X164339819Y-108572386D01*
X164339819Y-108572386D02*
X164720771Y-108905719D01*
X164720771Y-108905719D02*
X164720771Y-108762862D01*
X164720771Y-108762862D02*
X164768390Y-108667624D01*
X164768390Y-108667624D02*
X164816009Y-108620005D01*
X164816009Y-108620005D02*
X164911247Y-108572386D01*
X164911247Y-108572386D02*
X165149342Y-108572386D01*
X165149342Y-108572386D02*
X165244580Y-108620005D01*
X165244580Y-108620005D02*
X165292200Y-108667624D01*
X165292200Y-108667624D02*
X165339819Y-108762862D01*
X165339819Y-108762862D02*
X165339819Y-109048576D01*
X165339819Y-109048576D02*
X165292200Y-109143814D01*
X165292200Y-109143814D02*
X165244580Y-109191433D01*
X154603333Y-87635920D02*
X154270000Y-87159729D01*
X154031905Y-87635920D02*
X154031905Y-86635920D01*
X154031905Y-86635920D02*
X154412857Y-86635920D01*
X154412857Y-86635920D02*
X154508095Y-86683539D01*
X154508095Y-86683539D02*
X154555714Y-86731158D01*
X154555714Y-86731158D02*
X154603333Y-86826396D01*
X154603333Y-86826396D02*
X154603333Y-86969253D01*
X154603333Y-86969253D02*
X154555714Y-87064491D01*
X154555714Y-87064491D02*
X154508095Y-87112110D01*
X154508095Y-87112110D02*
X154412857Y-87159729D01*
X154412857Y-87159729D02*
X154031905Y-87159729D01*
X154984286Y-86731158D02*
X155031905Y-86683539D01*
X155031905Y-86683539D02*
X155127143Y-86635920D01*
X155127143Y-86635920D02*
X155365238Y-86635920D01*
X155365238Y-86635920D02*
X155460476Y-86683539D01*
X155460476Y-86683539D02*
X155508095Y-86731158D01*
X155508095Y-86731158D02*
X155555714Y-86826396D01*
X155555714Y-86826396D02*
X155555714Y-86921634D01*
X155555714Y-86921634D02*
X155508095Y-87064491D01*
X155508095Y-87064491D02*
X154936667Y-87635920D01*
X154936667Y-87635920D02*
X155555714Y-87635920D01*
X129486666Y-92595920D02*
X129486666Y-93310205D01*
X129486666Y-93310205D02*
X129439047Y-93453062D01*
X129439047Y-93453062D02*
X129343809Y-93548301D01*
X129343809Y-93548301D02*
X129200952Y-93595920D01*
X129200952Y-93595920D02*
X129105714Y-93595920D01*
X130486666Y-93595920D02*
X129915238Y-93595920D01*
X130200952Y-93595920D02*
X130200952Y-92595920D01*
X130200952Y-92595920D02*
X130105714Y-92738777D01*
X130105714Y-92738777D02*
X130010476Y-92834015D01*
X130010476Y-92834015D02*
X129915238Y-92881634D01*
X131086666Y-103675920D02*
X131086666Y-104390205D01*
X131086666Y-104390205D02*
X131039047Y-104533062D01*
X131039047Y-104533062D02*
X130943809Y-104628301D01*
X130943809Y-104628301D02*
X130800952Y-104675920D01*
X130800952Y-104675920D02*
X130705714Y-104675920D01*
X131562857Y-104675920D02*
X131562857Y-103675920D01*
X131562857Y-103675920D02*
X131943809Y-103675920D01*
X131943809Y-103675920D02*
X132039047Y-103723539D01*
X132039047Y-103723539D02*
X132086666Y-103771158D01*
X132086666Y-103771158D02*
X132134285Y-103866396D01*
X132134285Y-103866396D02*
X132134285Y-104009253D01*
X132134285Y-104009253D02*
X132086666Y-104104491D01*
X132086666Y-104104491D02*
X132039047Y-104152110D01*
X132039047Y-104152110D02*
X131943809Y-104199729D01*
X131943809Y-104199729D02*
X131562857Y-104199729D01*
X133086666Y-104675920D02*
X132515238Y-104675920D01*
X132800952Y-104675920D02*
X132800952Y-103675920D01*
X132800952Y-103675920D02*
X132705714Y-103818777D01*
X132705714Y-103818777D02*
X132610476Y-103914015D01*
X132610476Y-103914015D02*
X132515238Y-103961634D01*
X165334819Y-104762945D02*
X164334819Y-104762945D01*
X164334819Y-104762945D02*
X164334819Y-104524850D01*
X164334819Y-104524850D02*
X164382438Y-104381993D01*
X164382438Y-104381993D02*
X164477676Y-104286755D01*
X164477676Y-104286755D02*
X164572914Y-104239136D01*
X164572914Y-104239136D02*
X164763390Y-104191517D01*
X164763390Y-104191517D02*
X164906247Y-104191517D01*
X164906247Y-104191517D02*
X165096723Y-104239136D01*
X165096723Y-104239136D02*
X165191961Y-104286755D01*
X165191961Y-104286755D02*
X165287200Y-104381993D01*
X165287200Y-104381993D02*
X165334819Y-104524850D01*
X165334819Y-104524850D02*
X165334819Y-104762945D01*
X165334819Y-103239136D02*
X165334819Y-103810564D01*
X165334819Y-103524850D02*
X164334819Y-103524850D01*
X164334819Y-103524850D02*
X164477676Y-103620088D01*
X164477676Y-103620088D02*
X164572914Y-103715326D01*
X164572914Y-103715326D02*
X164620533Y-103810564D01*
X166703333Y-84250681D02*
X166655714Y-84298301D01*
X166655714Y-84298301D02*
X166512857Y-84345920D01*
X166512857Y-84345920D02*
X166417619Y-84345920D01*
X166417619Y-84345920D02*
X166274762Y-84298301D01*
X166274762Y-84298301D02*
X166179524Y-84203062D01*
X166179524Y-84203062D02*
X166131905Y-84107824D01*
X166131905Y-84107824D02*
X166084286Y-83917348D01*
X166084286Y-83917348D02*
X166084286Y-83774491D01*
X166084286Y-83774491D02*
X166131905Y-83584015D01*
X166131905Y-83584015D02*
X166179524Y-83488777D01*
X166179524Y-83488777D02*
X166274762Y-83393539D01*
X166274762Y-83393539D02*
X166417619Y-83345920D01*
X166417619Y-83345920D02*
X166512857Y-83345920D01*
X166512857Y-83345920D02*
X166655714Y-83393539D01*
X166655714Y-83393539D02*
X166703333Y-83441158D01*
X167036667Y-83345920D02*
X167655714Y-83345920D01*
X167655714Y-83345920D02*
X167322381Y-83726872D01*
X167322381Y-83726872D02*
X167465238Y-83726872D01*
X167465238Y-83726872D02*
X167560476Y-83774491D01*
X167560476Y-83774491D02*
X167608095Y-83822110D01*
X167608095Y-83822110D02*
X167655714Y-83917348D01*
X167655714Y-83917348D02*
X167655714Y-84155443D01*
X167655714Y-84155443D02*
X167608095Y-84250681D01*
X167608095Y-84250681D02*
X167560476Y-84298301D01*
X167560476Y-84298301D02*
X167465238Y-84345920D01*
X167465238Y-84345920D02*
X167179524Y-84345920D01*
X167179524Y-84345920D02*
X167084286Y-84298301D01*
X167084286Y-84298301D02*
X167036667Y-84250681D01*
X141613333Y-93165920D02*
X141280000Y-92689729D01*
X141041905Y-93165920D02*
X141041905Y-92165920D01*
X141041905Y-92165920D02*
X141422857Y-92165920D01*
X141422857Y-92165920D02*
X141518095Y-92213539D01*
X141518095Y-92213539D02*
X141565714Y-92261158D01*
X141565714Y-92261158D02*
X141613333Y-92356396D01*
X141613333Y-92356396D02*
X141613333Y-92499253D01*
X141613333Y-92499253D02*
X141565714Y-92594491D01*
X141565714Y-92594491D02*
X141518095Y-92642110D01*
X141518095Y-92642110D02*
X141422857Y-92689729D01*
X141422857Y-92689729D02*
X141041905Y-92689729D01*
X142565714Y-93165920D02*
X141994286Y-93165920D01*
X142280000Y-93165920D02*
X142280000Y-92165920D01*
X142280000Y-92165920D02*
X142184762Y-92308777D01*
X142184762Y-92308777D02*
X142089524Y-92404015D01*
X142089524Y-92404015D02*
X141994286Y-92451634D01*
X173066666Y-83605920D02*
X173066666Y-84320205D01*
X173066666Y-84320205D02*
X173019047Y-84463062D01*
X173019047Y-84463062D02*
X172923809Y-84558301D01*
X172923809Y-84558301D02*
X172780952Y-84605920D01*
X172780952Y-84605920D02*
X172685714Y-84605920D01*
X173447619Y-83605920D02*
X174066666Y-83605920D01*
X174066666Y-83605920D02*
X173733333Y-83986872D01*
X173733333Y-83986872D02*
X173876190Y-83986872D01*
X173876190Y-83986872D02*
X173971428Y-84034491D01*
X173971428Y-84034491D02*
X174019047Y-84082110D01*
X174019047Y-84082110D02*
X174066666Y-84177348D01*
X174066666Y-84177348D02*
X174066666Y-84415443D01*
X174066666Y-84415443D02*
X174019047Y-84510681D01*
X174019047Y-84510681D02*
X173971428Y-84558301D01*
X173971428Y-84558301D02*
X173876190Y-84605920D01*
X173876190Y-84605920D02*
X173590476Y-84605920D01*
X173590476Y-84605920D02*
X173495238Y-84558301D01*
X173495238Y-84558301D02*
X173447619Y-84510681D01*
X152938095Y-92973301D02*
X153080952Y-93020920D01*
X153080952Y-93020920D02*
X153319047Y-93020920D01*
X153319047Y-93020920D02*
X153414285Y-92973301D01*
X153414285Y-92973301D02*
X153461904Y-92925681D01*
X153461904Y-92925681D02*
X153509523Y-92830443D01*
X153509523Y-92830443D02*
X153509523Y-92735205D01*
X153509523Y-92735205D02*
X153461904Y-92639967D01*
X153461904Y-92639967D02*
X153414285Y-92592348D01*
X153414285Y-92592348D02*
X153319047Y-92544729D01*
X153319047Y-92544729D02*
X153128571Y-92497110D01*
X153128571Y-92497110D02*
X153033333Y-92449491D01*
X153033333Y-92449491D02*
X152985714Y-92401872D01*
X152985714Y-92401872D02*
X152938095Y-92306634D01*
X152938095Y-92306634D02*
X152938095Y-92211396D01*
X152938095Y-92211396D02*
X152985714Y-92116158D01*
X152985714Y-92116158D02*
X153033333Y-92068539D01*
X153033333Y-92068539D02*
X153128571Y-92020920D01*
X153128571Y-92020920D02*
X153366666Y-92020920D01*
X153366666Y-92020920D02*
X153509523Y-92068539D01*
X154461904Y-93020920D02*
X153890476Y-93020920D01*
X154176190Y-93020920D02*
X154176190Y-92020920D01*
X154176190Y-92020920D02*
X154080952Y-92163777D01*
X154080952Y-92163777D02*
X153985714Y-92259015D01*
X153985714Y-92259015D02*
X153890476Y-92306634D01*
X171885655Y-92845920D02*
X171885655Y-91845920D01*
X171885655Y-91845920D02*
X172123750Y-91845920D01*
X172123750Y-91845920D02*
X172266607Y-91893539D01*
X172266607Y-91893539D02*
X172361845Y-91988777D01*
X172361845Y-91988777D02*
X172409464Y-92084015D01*
X172409464Y-92084015D02*
X172457083Y-92274491D01*
X172457083Y-92274491D02*
X172457083Y-92417348D01*
X172457083Y-92417348D02*
X172409464Y-92607824D01*
X172409464Y-92607824D02*
X172361845Y-92703062D01*
X172361845Y-92703062D02*
X172266607Y-92798301D01*
X172266607Y-92798301D02*
X172123750Y-92845920D01*
X172123750Y-92845920D02*
X171885655Y-92845920D01*
X172838036Y-91941158D02*
X172885655Y-91893539D01*
X172885655Y-91893539D02*
X172980893Y-91845920D01*
X172980893Y-91845920D02*
X173218988Y-91845920D01*
X173218988Y-91845920D02*
X173314226Y-91893539D01*
X173314226Y-91893539D02*
X173361845Y-91941158D01*
X173361845Y-91941158D02*
X173409464Y-92036396D01*
X173409464Y-92036396D02*
X173409464Y-92131634D01*
X173409464Y-92131634D02*
X173361845Y-92274491D01*
X173361845Y-92274491D02*
X172790417Y-92845920D01*
X172790417Y-92845920D02*
X173409464Y-92845920D01*
X141963333Y-87705920D02*
X141630000Y-87229729D01*
X141391905Y-87705920D02*
X141391905Y-86705920D01*
X141391905Y-86705920D02*
X141772857Y-86705920D01*
X141772857Y-86705920D02*
X141868095Y-86753539D01*
X141868095Y-86753539D02*
X141915714Y-86801158D01*
X141915714Y-86801158D02*
X141963333Y-86896396D01*
X141963333Y-86896396D02*
X141963333Y-87039253D01*
X141963333Y-87039253D02*
X141915714Y-87134491D01*
X141915714Y-87134491D02*
X141868095Y-87182110D01*
X141868095Y-87182110D02*
X141772857Y-87229729D01*
X141772857Y-87229729D02*
X141391905Y-87229729D01*
X142296667Y-86705920D02*
X142915714Y-86705920D01*
X142915714Y-86705920D02*
X142582381Y-87086872D01*
X142582381Y-87086872D02*
X142725238Y-87086872D01*
X142725238Y-87086872D02*
X142820476Y-87134491D01*
X142820476Y-87134491D02*
X142868095Y-87182110D01*
X142868095Y-87182110D02*
X142915714Y-87277348D01*
X142915714Y-87277348D02*
X142915714Y-87515443D01*
X142915714Y-87515443D02*
X142868095Y-87610681D01*
X142868095Y-87610681D02*
X142820476Y-87658301D01*
X142820476Y-87658301D02*
X142725238Y-87705920D01*
X142725238Y-87705920D02*
X142439524Y-87705920D01*
X142439524Y-87705920D02*
X142344286Y-87658301D01*
X142344286Y-87658301D02*
X142296667Y-87610681D01*
D16*
%TO.C,J2*%
X170247500Y-96291101D02*
X176687500Y-96291101D01*
X170247500Y-109691101D02*
X170247500Y-96291101D01*
X170247500Y-109691101D02*
X176687500Y-109691101D01*
X170767500Y-109691101D02*
X170767500Y-96291101D01*
X176067500Y-109691101D02*
X176067500Y-96291101D01*
X176687500Y-107771101D02*
X176687500Y-96291101D01*
X176687500Y-109691101D02*
X176687500Y-108371101D01*
X177297500Y-108511101D02*
X176687500Y-108071101D01*
X177297500Y-107631101D01*
X177297500Y-108511101D01*
G36*
X177297500Y-108511101D02*
G01*
X176687500Y-108071101D01*
X177297500Y-107631101D01*
X177297500Y-108511101D01*
G37*
%TO.C,C1*%
X144700000Y-95011101D02*
X144700000Y-99551101D01*
X144715000Y-95011101D02*
X144700000Y-95011101D01*
X144715000Y-99551101D02*
X144700000Y-99551101D01*
X146840000Y-95011101D02*
X146825000Y-95011101D01*
X146840000Y-95011101D02*
X146840000Y-99551101D01*
X146840000Y-99551101D02*
X146825000Y-99551101D01*
%TO.C,C2*%
X148720000Y-95111101D02*
X148720000Y-99651101D01*
X148735000Y-95111101D02*
X148720000Y-95111101D01*
X148735000Y-99651101D02*
X148720000Y-99651101D01*
X150860000Y-95111101D02*
X150845000Y-95111101D01*
X150860000Y-95111101D02*
X150860000Y-99651101D01*
X150860000Y-99651101D02*
X150845000Y-99651101D01*
%TO.C,U1*%
X162130000Y-94816101D02*
X162130000Y-100016101D01*
X162130000Y-100016101D02*
X167430000Y-100016101D01*
X163780000Y-94816101D02*
X162130000Y-94816101D01*
X167430000Y-94816101D02*
X165780000Y-94816101D01*
X167430000Y-100016101D02*
X167430000Y-94816101D01*
X165780000Y-94816101D02*
G75*
G02*
X163780000Y-94816101I-1000000J0D01*
G01*
%TO.C,Q1*%
X136732500Y-97071101D02*
X135932500Y-97071101D01*
X136732500Y-97071101D02*
X137532500Y-97071101D01*
X136732500Y-100191101D02*
X135932500Y-100191101D01*
X136732500Y-100191101D02*
X137532500Y-100191101D01*
X138272500Y-100471101D02*
X137792500Y-100471101D01*
X138032500Y-100141101D01*
X138272500Y-100471101D01*
G36*
X138272500Y-100471101D02*
G01*
X137792500Y-100471101D01*
X138032500Y-100141101D01*
X138272500Y-100471101D01*
G37*
%TO.C,D3*%
X165790000Y-111441101D02*
X165790000Y-107581101D01*
X165790000Y-111441101D02*
X167790000Y-111441101D01*
D12*
X166390000Y-108981101D02*
X167190000Y-108981101D01*
X166790000Y-108981101D02*
X166790000Y-108481101D01*
X166790000Y-109581101D02*
X166240000Y-109581101D01*
X166790000Y-109581101D02*
X166390000Y-108981101D01*
X166790000Y-109581101D02*
X167340000Y-109581101D01*
X166790000Y-109981101D02*
X166790000Y-109581101D01*
X167190000Y-108981101D02*
X166790000Y-109581101D01*
D16*
X167790000Y-111441101D02*
X167790000Y-107581101D01*
%TO.C,R2*%
X150730000Y-89551101D02*
X151500000Y-89551101D01*
X151500000Y-88181101D02*
X151500000Y-90921101D01*
X151500000Y-90921101D02*
X158040000Y-90921101D01*
X158040000Y-88181101D02*
X151500000Y-88181101D01*
X158040000Y-90921101D02*
X158040000Y-88181101D01*
X158810000Y-89551101D02*
X158040000Y-89551101D01*
%TO.C,J1*%
X126610000Y-94441101D02*
X126610000Y-95031101D01*
X126610000Y-97091101D02*
X126610000Y-97571101D01*
X126610000Y-99631101D02*
X126610000Y-100221101D01*
X127230000Y-94441101D02*
X127230000Y-95031101D01*
X127230000Y-97091101D02*
X127230000Y-97571101D01*
X127230000Y-99631101D02*
X127230000Y-100221101D01*
X132530000Y-94441101D02*
X132530000Y-100221101D01*
X133050000Y-94441101D02*
X126610000Y-94441101D01*
X133050000Y-94441101D02*
X133050000Y-100221101D01*
X133050000Y-100221101D02*
X126610000Y-100221101D01*
X126610000Y-96061101D02*
X126000000Y-96501101D01*
X126000000Y-95621101D01*
X126610000Y-96061101D01*
G36*
X126610000Y-96061101D02*
G01*
X126000000Y-96501101D01*
X126000000Y-95621101D01*
X126610000Y-96061101D01*
G37*
D11*
%TO.C,JP1*%
X129620000Y-101841101D02*
X130120000Y-101341101D01*
X129620000Y-102641101D02*
X129620000Y-101841101D01*
X130120000Y-101341101D02*
X133720000Y-101341101D01*
X130120000Y-103141101D02*
X129620000Y-102641101D01*
X133720000Y-101341101D02*
X134220000Y-101841101D01*
X133720000Y-103141101D02*
X130120000Y-103141101D01*
X134220000Y-101841101D02*
X134220000Y-102641101D01*
X134220000Y-102641101D02*
X133720000Y-103141101D01*
D16*
%TO.C,D1*%
X165790000Y-106104851D02*
X165790000Y-102244851D01*
X165790000Y-106104851D02*
X167790000Y-106104851D01*
D12*
X166390000Y-103644851D02*
X167190000Y-103644851D01*
X166790000Y-103644851D02*
X166790000Y-103144851D01*
X166790000Y-104244851D02*
X166240000Y-104244851D01*
X166790000Y-104244851D02*
X166390000Y-103644851D01*
X166790000Y-104244851D02*
X167340000Y-104244851D01*
X166790000Y-104644851D02*
X166790000Y-104244851D01*
X167190000Y-103644851D02*
X166790000Y-104244851D01*
D16*
X167790000Y-106104851D02*
X167790000Y-102244851D01*
%TO.C,C3*%
X165770000Y-85951101D02*
X165785000Y-85951101D01*
X165770000Y-90491101D02*
X165770000Y-85951101D01*
X165770000Y-90491101D02*
X165785000Y-90491101D01*
X167895000Y-85951101D02*
X167910000Y-85951101D01*
X167895000Y-90491101D02*
X167910000Y-90491101D01*
X167910000Y-90491101D02*
X167910000Y-85951101D01*
%TO.C,R1*%
X140300000Y-96631101D02*
X140300000Y-103171101D01*
X140300000Y-103171101D02*
X143040000Y-103171101D01*
X141670000Y-95861101D02*
X141670000Y-96631101D01*
X141670000Y-103941101D02*
X141670000Y-103171101D01*
X143040000Y-96631101D02*
X140300000Y-96631101D01*
X143040000Y-103171101D02*
X143040000Y-96631101D01*
%TO.C,J3*%
X170247500Y-85291101D02*
X176687500Y-85291101D01*
X170247500Y-91071101D02*
X170247500Y-85291101D01*
X170247500Y-91071101D02*
X176687500Y-91071101D01*
X170767500Y-91071101D02*
X170767500Y-85291101D01*
X176067500Y-85881101D02*
X176067500Y-85291101D01*
X176067500Y-88421101D02*
X176067500Y-87941101D01*
X176067500Y-91071101D02*
X176067500Y-90481101D01*
X176687500Y-85881101D02*
X176687500Y-85291101D01*
X176687500Y-88421101D02*
X176687500Y-87941101D01*
X176687500Y-91071101D02*
X176687500Y-90481101D01*
X177297500Y-89891101D02*
X176687500Y-89451101D01*
X177297500Y-89011101D01*
X177297500Y-89891101D01*
G36*
X177297500Y-89891101D02*
G01*
X176687500Y-89451101D01*
X177297500Y-89011101D01*
X177297500Y-89891101D01*
G37*
%TO.C,S1*%
X152370000Y-93566101D02*
X153700000Y-93566101D01*
X152370000Y-94896101D02*
X152370000Y-93566101D01*
X152370000Y-96166101D02*
X152370000Y-101306101D01*
X152370000Y-96166101D02*
X155030000Y-96166101D01*
X152370000Y-101306101D02*
X155030000Y-101306101D01*
X155030000Y-96166101D02*
X155030000Y-101306101D01*
D17*
%TO.C,G\u002A\u002A\u002A*%
G36*
X149349359Y-111590251D02*
G01*
X149349359Y-111950322D01*
X149169324Y-111950322D01*
X148989289Y-111950322D01*
X148989289Y-111590251D01*
X148989289Y-111230180D01*
X149169324Y-111230180D01*
X149349359Y-111230180D01*
X149349359Y-111590251D01*
G37*
G36*
X150444575Y-109587357D02*
G01*
X150444575Y-109774894D01*
X150264540Y-109774894D01*
X150084504Y-109774894D01*
X150084504Y-109587357D01*
X150084504Y-109399820D01*
X150264540Y-109399820D01*
X150444575Y-109399820D01*
X150444575Y-109587357D01*
G37*
G36*
X150804646Y-105581568D02*
G01*
X150804646Y-106129176D01*
X150257038Y-106129176D01*
X149709430Y-106129176D01*
X149709430Y-105581568D01*
X149709430Y-105033960D01*
X150257038Y-105033960D01*
X150804646Y-105033960D01*
X150804646Y-105581568D01*
G37*
G36*
X150804646Y-115048432D02*
G01*
X150804646Y-115596039D01*
X150257038Y-115596039D01*
X149709430Y-115596039D01*
X149709430Y-115048432D01*
X149709430Y-114500824D01*
X150257038Y-114500824D01*
X150804646Y-114500824D01*
X150804646Y-115048432D01*
G37*
G36*
X151539791Y-108859713D02*
G01*
X151539791Y-109039749D01*
X150812147Y-109039749D01*
X150084504Y-109039749D01*
X150084504Y-108859713D01*
X150084504Y-108679678D01*
X150812147Y-108679678D01*
X151539791Y-108679678D01*
X151539791Y-108859713D01*
G37*
G36*
X151539791Y-111042643D02*
G01*
X151539791Y-111230180D01*
X151352254Y-111230180D01*
X151164717Y-111230180D01*
X151164717Y-111042643D01*
X151164717Y-110855106D01*
X151352254Y-110855106D01*
X151539791Y-110855106D01*
X151539791Y-111042643D01*
G37*
G36*
X153355148Y-105589070D02*
G01*
X153355148Y-105769105D01*
X153175112Y-105769105D01*
X152995077Y-105769105D01*
X152995077Y-105589070D01*
X152995077Y-105409034D01*
X153175112Y-105409034D01*
X153355148Y-105409034D01*
X153355148Y-105589070D01*
G37*
G36*
X155170505Y-108859713D02*
G01*
X155170505Y-109039749D01*
X154990470Y-109039749D01*
X154810434Y-109039749D01*
X154810434Y-108859713D01*
X154810434Y-108679678D01*
X154990470Y-108679678D01*
X155170505Y-108679678D01*
X155170505Y-108859713D01*
G37*
G36*
X155905650Y-106676784D02*
G01*
X155905650Y-106864321D01*
X155718113Y-106864321D01*
X155530576Y-106864321D01*
X155530576Y-106676784D01*
X155530576Y-106489247D01*
X155718113Y-106489247D01*
X155905650Y-106489247D01*
X155905650Y-106676784D01*
G37*
G36*
X155905650Y-113225573D02*
G01*
X155905650Y-113405608D01*
X155718113Y-113405608D01*
X155530576Y-113405608D01*
X155530576Y-113225573D01*
X155530576Y-113045537D01*
X155718113Y-113045537D01*
X155905650Y-113045537D01*
X155905650Y-113225573D01*
G37*
G36*
X156985863Y-113953216D02*
G01*
X156985863Y-114140753D01*
X156805827Y-114140753D01*
X156625792Y-114140753D01*
X156625792Y-113953216D01*
X156625792Y-113765679D01*
X156805827Y-113765679D01*
X156985863Y-113765679D01*
X156985863Y-113953216D01*
G37*
G36*
X157721007Y-111042643D02*
G01*
X157721007Y-111230180D01*
X157540972Y-111230180D01*
X157360936Y-111230180D01*
X157360936Y-111042643D01*
X157360936Y-110855106D01*
X157540972Y-110855106D01*
X157721007Y-110855106D01*
X157721007Y-111042643D01*
G37*
G36*
X158081078Y-106496748D02*
G01*
X158081078Y-107224391D01*
X157901043Y-107224391D01*
X157721007Y-107224391D01*
X157721007Y-106496748D01*
X157721007Y-105769105D01*
X157901043Y-105769105D01*
X158081078Y-105769105D01*
X158081078Y-106496748D01*
G37*
G36*
X158081078Y-108679678D02*
G01*
X158081078Y-109039749D01*
X157901043Y-109039749D01*
X157721007Y-109039749D01*
X157721007Y-108679678D01*
X157721007Y-108319607D01*
X157901043Y-108319607D01*
X158081078Y-108319607D01*
X158081078Y-108679678D01*
G37*
G36*
X158441149Y-112130357D02*
G01*
X158441149Y-112310393D01*
X158261114Y-112310393D01*
X158081078Y-112310393D01*
X158081078Y-112130357D01*
X158081078Y-111950322D01*
X158261114Y-111950322D01*
X158441149Y-111950322D01*
X158441149Y-112130357D01*
G37*
G36*
X158441149Y-116136146D02*
G01*
X158441149Y-116316181D01*
X158261114Y-116316181D01*
X158081078Y-116316181D01*
X158081078Y-116136146D01*
X158081078Y-115956110D01*
X158261114Y-115956110D01*
X158441149Y-115956110D01*
X158441149Y-116136146D01*
G37*
G36*
X158816223Y-113953216D02*
G01*
X158816223Y-114140753D01*
X158628686Y-114140753D01*
X158441149Y-114140753D01*
X158441149Y-113953216D01*
X158441149Y-113765679D01*
X158628686Y-113765679D01*
X158816223Y-113765679D01*
X158816223Y-113953216D01*
G37*
G36*
X160271509Y-105581568D02*
G01*
X160271509Y-106129176D01*
X159723902Y-106129176D01*
X159176294Y-106129176D01*
X159176294Y-105581568D01*
X159176294Y-105033960D01*
X159723902Y-105033960D01*
X160271509Y-105033960D01*
X160271509Y-105581568D01*
G37*
G36*
X160991651Y-115776075D02*
G01*
X160991651Y-115956110D01*
X160811616Y-115956110D01*
X160631580Y-115956110D01*
X160631580Y-115776075D01*
X160631580Y-115596039D01*
X160811616Y-115596039D01*
X160991651Y-115596039D01*
X160991651Y-115776075D01*
G37*
G36*
X159896436Y-115956110D02*
G01*
X159896436Y-116316181D01*
X159536365Y-116316181D01*
X159176294Y-116316181D01*
X159176294Y-116136146D01*
X159176294Y-115956110D01*
X159356329Y-115956110D01*
X159536365Y-115956110D01*
X159536365Y-115776075D01*
X159536365Y-115596039D01*
X159716400Y-115596039D01*
X159896436Y-115596039D01*
X159896436Y-115956110D01*
G37*
G36*
X160991651Y-110495035D02*
G01*
X160991651Y-110855106D01*
X160811616Y-110855106D01*
X160631580Y-110855106D01*
X160631580Y-110675071D01*
X160631580Y-110495035D01*
X160451545Y-110495035D01*
X160271509Y-110495035D01*
X160271509Y-110315000D01*
X160271509Y-110134964D01*
X160631580Y-110134964D01*
X160991651Y-110134964D01*
X160991651Y-110495035D01*
G37*
G36*
X152620003Y-110315000D02*
G01*
X152620003Y-110495035D01*
X152439968Y-110495035D01*
X152259932Y-110495035D01*
X152259932Y-110675071D01*
X152259932Y-110855106D01*
X152079897Y-110855106D01*
X151899861Y-110855106D01*
X151899861Y-110675071D01*
X151899861Y-110495035D01*
X152079897Y-110495035D01*
X152259932Y-110495035D01*
X152259932Y-110315000D01*
X152259932Y-110134964D01*
X152439968Y-110134964D01*
X152620003Y-110134964D01*
X152620003Y-110315000D01*
G37*
G36*
X153355148Y-109947427D02*
G01*
X153355148Y-110495035D01*
X153175112Y-110495035D01*
X152995077Y-110495035D01*
X152995077Y-110315000D01*
X152995077Y-110134964D01*
X152807540Y-110134964D01*
X152620003Y-110134964D01*
X152620003Y-109954929D01*
X152620003Y-109774894D01*
X152807540Y-109774894D01*
X152995077Y-109774894D01*
X152995077Y-109587357D01*
X152995077Y-109399820D01*
X153175112Y-109399820D01*
X153355148Y-109399820D01*
X153355148Y-109947427D01*
G37*
G36*
X154810434Y-112130357D02*
G01*
X154810434Y-112310393D01*
X154630399Y-112310393D01*
X154450364Y-112310393D01*
X154450364Y-112497930D01*
X154450364Y-112685466D01*
X154262827Y-112685466D01*
X154075290Y-112685466D01*
X154075290Y-112497930D01*
X154075290Y-112310393D01*
X154262827Y-112310393D01*
X154450364Y-112310393D01*
X154450364Y-112130357D01*
X154450364Y-111950322D01*
X154630399Y-111950322D01*
X154810434Y-111950322D01*
X154810434Y-112130357D01*
G37*
G36*
X151539791Y-105589070D02*
G01*
X151539791Y-106864321D01*
X150264540Y-106864321D01*
X148989289Y-106864321D01*
X148989289Y-106489247D01*
X149349359Y-106489247D01*
X150257038Y-106489247D01*
X151164717Y-106489247D01*
X151164717Y-105581568D01*
X151164717Y-104673889D01*
X150257038Y-104673889D01*
X149349359Y-104673889D01*
X149349359Y-105581568D01*
X149349359Y-106489247D01*
X148989289Y-106489247D01*
X148989289Y-105589070D01*
X148989289Y-105581568D01*
X148989289Y-104313819D01*
X150264540Y-104313819D01*
X151539791Y-104313819D01*
X151539791Y-105589070D01*
G37*
G36*
X151539791Y-115040930D02*
G01*
X151539791Y-116316181D01*
X150264540Y-116316181D01*
X148989289Y-116316181D01*
X148989289Y-115956110D01*
X149349359Y-115956110D01*
X150257038Y-115956110D01*
X151164717Y-115956110D01*
X151164717Y-115048432D01*
X151164717Y-114140753D01*
X150257038Y-114140753D01*
X149349359Y-114140753D01*
X149349359Y-115048432D01*
X149349359Y-115956110D01*
X148989289Y-115956110D01*
X148989289Y-115048432D01*
X148989289Y-115040930D01*
X148989289Y-113765679D01*
X150264540Y-113765679D01*
X151539791Y-113765679D01*
X151539791Y-115040930D01*
G37*
G36*
X160991651Y-105589070D02*
G01*
X160991651Y-106864321D01*
X159716400Y-106864321D01*
X158441149Y-106864321D01*
X158441149Y-106489247D01*
X158816223Y-106489247D01*
X159723902Y-106489247D01*
X160631580Y-106489247D01*
X160631580Y-105581568D01*
X160631580Y-104673889D01*
X159723902Y-104673889D01*
X158816223Y-104673889D01*
X158816223Y-105581568D01*
X158816223Y-106489247D01*
X158441149Y-106489247D01*
X158441149Y-105589070D01*
X158441149Y-105581568D01*
X158441149Y-104313819D01*
X159716400Y-104313819D01*
X160991651Y-104313819D01*
X160991651Y-105589070D01*
G37*
G36*
X154810434Y-111222679D02*
G01*
X154810434Y-111590251D01*
X154630399Y-111590251D01*
X154450364Y-111590251D01*
X154450364Y-111770286D01*
X154450364Y-111950322D01*
X154082791Y-111950322D01*
X153715219Y-111950322D01*
X153715219Y-111590251D01*
X153715219Y-111230180D01*
X153895254Y-111230180D01*
X154075290Y-111230180D01*
X154075290Y-111410215D01*
X154075290Y-111590251D01*
X154262827Y-111590251D01*
X154450364Y-111590251D01*
X154450364Y-111222679D01*
X154450364Y-110855106D01*
X154630399Y-110855106D01*
X154810434Y-110855106D01*
X154810434Y-111222679D01*
G37*
G36*
X155170505Y-104493854D02*
G01*
X155170505Y-104673889D01*
X155350541Y-104673889D01*
X155530576Y-104673889D01*
X155530576Y-104493854D01*
X155530576Y-104313819D01*
X155718113Y-104313819D01*
X155905650Y-104313819D01*
X155905650Y-104493854D01*
X155905650Y-104673889D01*
X156085685Y-104673889D01*
X156265721Y-104673889D01*
X156265721Y-104853925D01*
X156265721Y-105033960D01*
X155718113Y-105033960D01*
X155170505Y-105033960D01*
X155170505Y-104853925D01*
X155170505Y-104673889D01*
X154990470Y-104673889D01*
X154810434Y-104673889D01*
X154810434Y-104493854D01*
X154810434Y-104313819D01*
X154990470Y-104313819D01*
X155170505Y-104313819D01*
X155170505Y-104493854D01*
G37*
G36*
X155170505Y-107036855D02*
G01*
X155170505Y-107584462D01*
X155350541Y-107584462D01*
X155530576Y-107584462D01*
X155530576Y-107764498D01*
X155530576Y-107944533D01*
X154990470Y-107944533D01*
X154450364Y-107944533D01*
X154450364Y-107764498D01*
X154450364Y-107584462D01*
X154262827Y-107584462D01*
X154075290Y-107584462D01*
X154075290Y-107404427D01*
X154075290Y-107224391D01*
X154262827Y-107224391D01*
X154450364Y-107224391D01*
X154450364Y-107404427D01*
X154450364Y-107584462D01*
X154630399Y-107584462D01*
X154810434Y-107584462D01*
X154810434Y-107036855D01*
X154810434Y-106489247D01*
X154990470Y-106489247D01*
X155170505Y-106489247D01*
X155170505Y-107036855D01*
G37*
G36*
X154810434Y-105401533D02*
G01*
X154810434Y-105769105D01*
X155170505Y-105769105D01*
X155530576Y-105769105D01*
X155530576Y-105589070D01*
X155530576Y-105409034D01*
X155718113Y-105409034D01*
X155905650Y-105409034D01*
X155905650Y-105589070D01*
X155905650Y-105769105D01*
X155718113Y-105769105D01*
X155530576Y-105769105D01*
X155530576Y-105949140D01*
X155530576Y-106129176D01*
X155170505Y-106129176D01*
X154810434Y-106129176D01*
X154810434Y-105949140D01*
X154810434Y-105769105D01*
X154630399Y-105769105D01*
X154450364Y-105769105D01*
X154450364Y-105589070D01*
X154450364Y-105409034D01*
X154262827Y-105409034D01*
X154075290Y-105409034D01*
X154075290Y-105221497D01*
X154075290Y-105033960D01*
X154442862Y-105033960D01*
X154810434Y-105033960D01*
X154810434Y-105401533D01*
G37*
G36*
X153355148Y-104493854D02*
G01*
X153355148Y-104673889D01*
X153535183Y-104673889D01*
X153715219Y-104673889D01*
X153715219Y-104493854D01*
X153715219Y-104313819D01*
X153895254Y-104313819D01*
X154075290Y-104313819D01*
X154075290Y-104673889D01*
X154075290Y-105033960D01*
X153715219Y-105033960D01*
X153355148Y-105033960D01*
X153355148Y-104853925D01*
X153355148Y-104673889D01*
X152987576Y-104673889D01*
X152620003Y-104673889D01*
X152620003Y-105581568D01*
X152620003Y-106489247D01*
X152439968Y-106489247D01*
X152259932Y-106489247D01*
X152259932Y-106676784D01*
X152259932Y-106864321D01*
X152079897Y-106864321D01*
X151899861Y-106864321D01*
X151899861Y-105949140D01*
X151899861Y-105033960D01*
X152079897Y-105033960D01*
X152259932Y-105033960D01*
X152259932Y-104853925D01*
X152259932Y-104673889D01*
X152079897Y-104673889D01*
X151899861Y-104673889D01*
X151899861Y-104493854D01*
X151899861Y-104313819D01*
X152627505Y-104313819D01*
X153355148Y-104313819D01*
X153355148Y-104493854D01*
G37*
G36*
X158816223Y-111042643D02*
G01*
X158816223Y-111230180D01*
X158628686Y-111230180D01*
X158441149Y-111230180D01*
X158441149Y-111410215D01*
X158441149Y-111590251D01*
X158808721Y-111590251D01*
X159176294Y-111590251D01*
X159176294Y-111222679D01*
X159176294Y-110855106D01*
X159356329Y-110855106D01*
X159536365Y-110855106D01*
X159536365Y-111042643D01*
X159536365Y-111230180D01*
X159716400Y-111230180D01*
X159896436Y-111230180D01*
X159896436Y-111590251D01*
X159896436Y-111950322D01*
X159716400Y-111950322D01*
X159536365Y-111950322D01*
X159536365Y-111770286D01*
X159536365Y-111590251D01*
X159356329Y-111590251D01*
X159176294Y-111590251D01*
X159176294Y-111950322D01*
X159176294Y-112310393D01*
X158996258Y-112310393D01*
X158816223Y-112310393D01*
X158816223Y-112130357D01*
X158816223Y-111950322D01*
X158628686Y-111950322D01*
X158441149Y-111950322D01*
X158441149Y-111770286D01*
X158441149Y-111590251D01*
X158261114Y-111590251D01*
X158081078Y-111590251D01*
X158081078Y-111222679D01*
X158081078Y-110855106D01*
X158448651Y-110855106D01*
X158816223Y-110855106D01*
X158816223Y-111042643D01*
G37*
G36*
X153715219Y-105949140D02*
G01*
X153715219Y-106129176D01*
X153895254Y-106129176D01*
X154075290Y-106129176D01*
X154075290Y-105949140D01*
X154075290Y-105769105D01*
X154262827Y-105769105D01*
X154450364Y-105769105D01*
X154450364Y-105949140D01*
X154450364Y-106129176D01*
X154262827Y-106129176D01*
X154075290Y-106129176D01*
X154075290Y-106309211D01*
X154075290Y-106489247D01*
X154262827Y-106489247D01*
X154450364Y-106489247D01*
X154450364Y-106309211D01*
X154450364Y-106129176D01*
X154630399Y-106129176D01*
X154810434Y-106129176D01*
X154810434Y-106309211D01*
X154810434Y-106489247D01*
X154630399Y-106489247D01*
X154450364Y-106489247D01*
X154450364Y-106676784D01*
X154450364Y-106864321D01*
X154262827Y-106864321D01*
X154075290Y-106864321D01*
X154075290Y-106676784D01*
X154075290Y-106489247D01*
X153895254Y-106489247D01*
X153715219Y-106489247D01*
X153715219Y-106856819D01*
X153715219Y-107224391D01*
X153535183Y-107224391D01*
X153355148Y-107224391D01*
X153355148Y-106856819D01*
X153355148Y-106489247D01*
X153535183Y-106489247D01*
X153715219Y-106489247D01*
X153715219Y-106309211D01*
X153715219Y-106129176D01*
X153535183Y-106129176D01*
X153355148Y-106129176D01*
X153355148Y-105949140D01*
X153355148Y-105769105D01*
X153535183Y-105769105D01*
X153715219Y-105769105D01*
X153715219Y-105949140D01*
G37*
G36*
X154075290Y-108132070D02*
G01*
X154075290Y-108319607D01*
X154442862Y-108319607D01*
X154810434Y-108319607D01*
X154810434Y-108499642D01*
X154810434Y-108679678D01*
X154630399Y-108679678D01*
X154450364Y-108679678D01*
X154450364Y-109039749D01*
X154450364Y-109399820D01*
X154262827Y-109399820D01*
X154075290Y-109399820D01*
X154075290Y-109947427D01*
X154075290Y-110495035D01*
X154262827Y-110495035D01*
X154450364Y-110495035D01*
X154450364Y-110315000D01*
X154450364Y-110134964D01*
X154630399Y-110134964D01*
X154810434Y-110134964D01*
X154810434Y-110315000D01*
X154810434Y-110495035D01*
X154630399Y-110495035D01*
X154450364Y-110495035D01*
X154450364Y-110675071D01*
X154450364Y-110855106D01*
X154082791Y-110855106D01*
X153715219Y-110855106D01*
X153715219Y-111042643D01*
X153715219Y-111230180D01*
X153535183Y-111230180D01*
X153355148Y-111230180D01*
X153355148Y-111042643D01*
X153355148Y-110855106D01*
X153535183Y-110855106D01*
X153715219Y-110855106D01*
X153715219Y-109947427D01*
X153715219Y-109039749D01*
X153895254Y-109039749D01*
X154075290Y-109039749D01*
X154075290Y-108859713D01*
X154075290Y-108679678D01*
X153895254Y-108679678D01*
X153715219Y-108679678D01*
X153715219Y-108859713D01*
X153715219Y-109039749D01*
X153535183Y-109039749D01*
X153355148Y-109039749D01*
X153355148Y-108859713D01*
X153355148Y-108679678D01*
X152987576Y-108679678D01*
X152620003Y-108679678D01*
X152620003Y-108499642D01*
X152620003Y-108319607D01*
X153167611Y-108319607D01*
X153715219Y-108319607D01*
X153715219Y-108132070D01*
X153715219Y-107944533D01*
X153895254Y-107944533D01*
X154075290Y-107944533D01*
X154075290Y-108132070D01*
G37*
G36*
X151899861Y-111950322D02*
G01*
X151899861Y-112310393D01*
X151719826Y-112310393D01*
X151539791Y-112310393D01*
X151539791Y-112497930D01*
X151539791Y-112685466D01*
X151352254Y-112685466D01*
X151164717Y-112685466D01*
X151164717Y-112497930D01*
X151164717Y-112310393D01*
X151352254Y-112310393D01*
X151539791Y-112310393D01*
X151539791Y-112130357D01*
X151539791Y-111950322D01*
X151172218Y-111950322D01*
X150804646Y-111950322D01*
X150804646Y-112497930D01*
X150804646Y-113045537D01*
X150624610Y-113045537D01*
X150444575Y-113045537D01*
X150444575Y-113225573D01*
X150444575Y-113405608D01*
X150264540Y-113405608D01*
X150084504Y-113405608D01*
X150084504Y-113225573D01*
X150084504Y-113045537D01*
X150264540Y-113045537D01*
X150444575Y-113045537D01*
X150444575Y-112865502D01*
X150444575Y-112685466D01*
X150264540Y-112685466D01*
X150084504Y-112685466D01*
X150084504Y-112497930D01*
X150084504Y-112310393D01*
X149896967Y-112310393D01*
X149709430Y-112310393D01*
X149709430Y-112497930D01*
X149709430Y-112685466D01*
X149529395Y-112685466D01*
X149349359Y-112685466D01*
X149349359Y-112865502D01*
X149349359Y-113045537D01*
X149169324Y-113045537D01*
X148989289Y-113045537D01*
X148989289Y-112865502D01*
X148989289Y-112685466D01*
X149169324Y-112685466D01*
X149349359Y-112685466D01*
X149349359Y-112497930D01*
X149349359Y-112310393D01*
X149529395Y-112310393D01*
X149709430Y-112310393D01*
X149709430Y-112130357D01*
X149709430Y-111950322D01*
X149896967Y-111950322D01*
X150084504Y-111950322D01*
X150084504Y-112130357D01*
X150084504Y-112310393D01*
X150264540Y-112310393D01*
X150444575Y-112310393D01*
X150444575Y-112130357D01*
X150444575Y-111950322D01*
X150624610Y-111950322D01*
X150804646Y-111950322D01*
X150804646Y-111770286D01*
X150804646Y-111590251D01*
X151352254Y-111590251D01*
X151899861Y-111590251D01*
X151899861Y-111950322D01*
G37*
G36*
X152995077Y-106856819D02*
G01*
X152995077Y-107224391D01*
X153175112Y-107224391D01*
X153355148Y-107224391D01*
X153355148Y-107584462D01*
X153355148Y-107944533D01*
X153175112Y-107944533D01*
X152995077Y-107944533D01*
X152995077Y-107764498D01*
X152995077Y-107584462D01*
X152627505Y-107584462D01*
X152259932Y-107584462D01*
X152259932Y-107764498D01*
X152259932Y-107944533D01*
X152439968Y-107944533D01*
X152620003Y-107944533D01*
X152620003Y-108132070D01*
X152620003Y-108319607D01*
X152259932Y-108319607D01*
X151899861Y-108319607D01*
X151899861Y-108499642D01*
X151899861Y-108679678D01*
X151719826Y-108679678D01*
X151539791Y-108679678D01*
X151539791Y-108499642D01*
X151539791Y-108319607D01*
X151172218Y-108319607D01*
X150804646Y-108319607D01*
X150804646Y-107952035D01*
X150804646Y-107944533D01*
X151164717Y-107944533D01*
X151352254Y-107944533D01*
X151539791Y-107944533D01*
X151539791Y-107764498D01*
X151539791Y-107584462D01*
X151352254Y-107584462D01*
X151164717Y-107584462D01*
X151164717Y-107764498D01*
X151164717Y-107944533D01*
X150804646Y-107944533D01*
X150804646Y-107764498D01*
X150804646Y-107584462D01*
X150444575Y-107584462D01*
X150084504Y-107584462D01*
X150084504Y-107764498D01*
X150084504Y-107944533D01*
X150264540Y-107944533D01*
X150444575Y-107944533D01*
X150444575Y-108132070D01*
X150444575Y-108319607D01*
X150077003Y-108319607D01*
X149709430Y-108319607D01*
X149709430Y-108679678D01*
X149709430Y-109039749D01*
X149896967Y-109039749D01*
X150084504Y-109039749D01*
X150084504Y-109219784D01*
X150084504Y-109399820D01*
X149896967Y-109399820D01*
X149709430Y-109399820D01*
X149709430Y-109767392D01*
X149709430Y-110134964D01*
X150077003Y-110134964D01*
X150444575Y-110134964D01*
X150444575Y-109954929D01*
X150444575Y-109774894D01*
X150624610Y-109774894D01*
X150804646Y-109774894D01*
X150804646Y-109587357D01*
X150804646Y-109399820D01*
X151172218Y-109399820D01*
X151539791Y-109399820D01*
X151539791Y-109587357D01*
X151539791Y-109774894D01*
X151352254Y-109774894D01*
X151164717Y-109774894D01*
X151164717Y-109954929D01*
X151164717Y-110134964D01*
X151352254Y-110134964D01*
X151539791Y-110134964D01*
X151539791Y-109954929D01*
X151539791Y-109774894D01*
X151719826Y-109774894D01*
X151899861Y-109774894D01*
X151899861Y-109227286D01*
X151899861Y-108679678D01*
X152079897Y-108679678D01*
X152259932Y-108679678D01*
X152259932Y-109407321D01*
X152259932Y-110134964D01*
X151899861Y-110134964D01*
X151539791Y-110134964D01*
X151539791Y-110315000D01*
X151539791Y-110495035D01*
X151172218Y-110495035D01*
X150804646Y-110495035D01*
X150804646Y-110315000D01*
X150804646Y-110134964D01*
X150624610Y-110134964D01*
X150444575Y-110134964D01*
X150444575Y-110315000D01*
X150444575Y-110495035D01*
X150264540Y-110495035D01*
X150084504Y-110495035D01*
X150084504Y-110862608D01*
X150084504Y-111230180D01*
X150264540Y-111230180D01*
X150444575Y-111230180D01*
X150444575Y-111042643D01*
X150444575Y-110855106D01*
X150624610Y-110855106D01*
X150804646Y-110855106D01*
X150804646Y-111042643D01*
X150804646Y-111230180D01*
X150624610Y-111230180D01*
X150444575Y-111230180D01*
X150444575Y-111410215D01*
X150444575Y-111590251D01*
X150264540Y-111590251D01*
X150084504Y-111590251D01*
X150084504Y-111410215D01*
X150084504Y-111230180D01*
X149896967Y-111230180D01*
X149709430Y-111230180D01*
X149709430Y-111042643D01*
X149709430Y-110855106D01*
X149349359Y-110855106D01*
X148989289Y-110855106D01*
X148989289Y-110495035D01*
X148989289Y-110134964D01*
X149169324Y-110134964D01*
X149349359Y-110134964D01*
X149349359Y-109954929D01*
X149349359Y-109774894D01*
X149169324Y-109774894D01*
X148989289Y-109774894D01*
X148989289Y-109227286D01*
X148989289Y-108679678D01*
X149169324Y-108679678D01*
X149349359Y-108679678D01*
X149349359Y-108312106D01*
X149349359Y-107944533D01*
X149169324Y-107944533D01*
X148989289Y-107944533D01*
X148989289Y-107764498D01*
X148989289Y-107584462D01*
X149169324Y-107584462D01*
X149349359Y-107584462D01*
X149349359Y-107764498D01*
X149349359Y-107944533D01*
X149529395Y-107944533D01*
X149709430Y-107944533D01*
X149709430Y-107584462D01*
X149709430Y-107224391D01*
X150804646Y-107224391D01*
X151899861Y-107224391D01*
X151899861Y-107404427D01*
X151899861Y-107584462D01*
X152079897Y-107584462D01*
X152259932Y-107584462D01*
X152259932Y-107404427D01*
X152259932Y-107224391D01*
X152439968Y-107224391D01*
X152620003Y-107224391D01*
X152620003Y-106856819D01*
X152620003Y-106489247D01*
X152807540Y-106489247D01*
X152995077Y-106489247D01*
X152995077Y-106856819D01*
G37*
G36*
X158081078Y-104493854D02*
G01*
X158081078Y-104673889D01*
X157533470Y-104673889D01*
X156985863Y-104673889D01*
X156985863Y-104853925D01*
X156985863Y-105033960D01*
X157533470Y-105033960D01*
X158081078Y-105033960D01*
X158081078Y-105221497D01*
X158081078Y-105409034D01*
X157721007Y-105409034D01*
X157360936Y-105409034D01*
X157360936Y-106496748D01*
X157360936Y-107584462D01*
X157721007Y-107584462D01*
X158081078Y-107584462D01*
X158081078Y-107404427D01*
X158081078Y-107224391D01*
X158261114Y-107224391D01*
X158441149Y-107224391D01*
X158441149Y-107404427D01*
X158441149Y-107584462D01*
X158628686Y-107584462D01*
X158816223Y-107584462D01*
X158816223Y-107404427D01*
X158816223Y-107224391D01*
X159543866Y-107224391D01*
X160271509Y-107224391D01*
X160271509Y-107404427D01*
X160271509Y-107584462D01*
X160083972Y-107584462D01*
X159896436Y-107584462D01*
X159896436Y-108312106D01*
X159896436Y-109039749D01*
X160083972Y-109039749D01*
X160271509Y-109039749D01*
X160271509Y-108492141D01*
X160271509Y-107944533D01*
X160451545Y-107944533D01*
X160631580Y-107944533D01*
X160631580Y-107584462D01*
X160631580Y-107224391D01*
X160811616Y-107224391D01*
X160991651Y-107224391D01*
X160991651Y-107952035D01*
X160991651Y-108679678D01*
X160811616Y-108679678D01*
X160631580Y-108679678D01*
X160631580Y-108859713D01*
X160631580Y-109039749D01*
X160451545Y-109039749D01*
X160271509Y-109039749D01*
X160271509Y-109219784D01*
X160271509Y-109399820D01*
X160451545Y-109399820D01*
X160631580Y-109399820D01*
X160631580Y-109219784D01*
X160631580Y-109039749D01*
X160811616Y-109039749D01*
X160991651Y-109039749D01*
X160991651Y-109219784D01*
X160991651Y-109399820D01*
X160811616Y-109399820D01*
X160631580Y-109399820D01*
X160631580Y-109587357D01*
X160631580Y-109774894D01*
X160264008Y-109774894D01*
X159896436Y-109774894D01*
X159896436Y-110134964D01*
X159896436Y-110495035D01*
X159716400Y-110495035D01*
X159536365Y-110495035D01*
X159536365Y-110315000D01*
X159536365Y-110134964D01*
X159356329Y-110134964D01*
X159176294Y-110134964D01*
X159176294Y-109954929D01*
X159176294Y-109774894D01*
X159356329Y-109774894D01*
X159536365Y-109774894D01*
X159536365Y-109587357D01*
X159536365Y-109399820D01*
X159356329Y-109399820D01*
X159176294Y-109399820D01*
X159176294Y-108859713D01*
X159176294Y-108319607D01*
X158808721Y-108319607D01*
X158441149Y-108319607D01*
X158441149Y-107952035D01*
X158441149Y-107944533D01*
X158816223Y-107944533D01*
X159176294Y-107944533D01*
X159536365Y-107944533D01*
X159536365Y-107764498D01*
X159536365Y-107584462D01*
X159176294Y-107584462D01*
X158816223Y-107584462D01*
X158816223Y-107764498D01*
X158816223Y-107944533D01*
X158441149Y-107944533D01*
X158441149Y-107764498D01*
X158441149Y-107584462D01*
X158261114Y-107584462D01*
X158081078Y-107584462D01*
X158081078Y-107764498D01*
X158081078Y-107944533D01*
X157533470Y-107944533D01*
X156985863Y-107944533D01*
X156985863Y-108132070D01*
X156985863Y-108319607D01*
X157173400Y-108319607D01*
X157360936Y-108319607D01*
X157360936Y-108679678D01*
X157360936Y-109039749D01*
X157173400Y-109039749D01*
X156985863Y-109039749D01*
X156985863Y-108859713D01*
X156985863Y-108679678D01*
X156805827Y-108679678D01*
X156625792Y-108679678D01*
X156625792Y-108859713D01*
X156625792Y-109039749D01*
X156445756Y-109039749D01*
X156265721Y-109039749D01*
X156265721Y-109407321D01*
X156265721Y-109774894D01*
X156625792Y-109774894D01*
X156985863Y-109774894D01*
X156985863Y-109587357D01*
X156985863Y-109399820D01*
X157173400Y-109399820D01*
X157360936Y-109399820D01*
X157360936Y-109587357D01*
X157360936Y-109774894D01*
X157540972Y-109774894D01*
X157721007Y-109774894D01*
X157721007Y-109587357D01*
X157721007Y-109399820D01*
X157901043Y-109399820D01*
X158081078Y-109399820D01*
X158081078Y-109219784D01*
X158081078Y-109039749D01*
X158448651Y-109039749D01*
X158816223Y-109039749D01*
X158816223Y-109219784D01*
X158816223Y-109399820D01*
X158448651Y-109399820D01*
X158081078Y-109399820D01*
X158081078Y-109587357D01*
X158081078Y-109774894D01*
X158448651Y-109774894D01*
X158816223Y-109774894D01*
X158816223Y-109954929D01*
X158816223Y-110134964D01*
X158628686Y-110134964D01*
X158441149Y-110134964D01*
X158441149Y-110315000D01*
X158441149Y-110495035D01*
X158261114Y-110495035D01*
X158081078Y-110495035D01*
X158081078Y-110675071D01*
X158081078Y-110855106D01*
X157901043Y-110855106D01*
X157721007Y-110855106D01*
X157721007Y-110495035D01*
X157721007Y-110134964D01*
X157540972Y-110134964D01*
X157360936Y-110134964D01*
X157360936Y-110315000D01*
X157360936Y-110495035D01*
X157173400Y-110495035D01*
X156985863Y-110495035D01*
X156985863Y-110315000D01*
X156985863Y-110134964D01*
X156805827Y-110134964D01*
X156625792Y-110134964D01*
X156625792Y-110315000D01*
X156625792Y-110495035D01*
X156445756Y-110495035D01*
X156265721Y-110495035D01*
X156265721Y-110134964D01*
X156265721Y-109774894D01*
X156085685Y-109774894D01*
X155905650Y-109774894D01*
X155905650Y-110134964D01*
X155905650Y-110495035D01*
X156085685Y-110495035D01*
X156265721Y-110495035D01*
X156265721Y-110862608D01*
X156265721Y-111230180D01*
X156445756Y-111230180D01*
X156625792Y-111230180D01*
X156625792Y-111042643D01*
X156625792Y-110855106D01*
X156805827Y-110855106D01*
X156985863Y-110855106D01*
X156985863Y-111222679D01*
X156985863Y-111590251D01*
X157173400Y-111590251D01*
X157360936Y-111590251D01*
X157360936Y-111770286D01*
X157360936Y-111950322D01*
X157173400Y-111950322D01*
X156985863Y-111950322D01*
X156985863Y-112497930D01*
X156985863Y-113045537D01*
X157173400Y-113045537D01*
X157360936Y-113045537D01*
X157360936Y-112497930D01*
X157360936Y-111950322D01*
X157540972Y-111950322D01*
X157721007Y-111950322D01*
X157721007Y-112130357D01*
X157721007Y-112310393D01*
X157901043Y-112310393D01*
X158081078Y-112310393D01*
X158081078Y-112497930D01*
X158081078Y-112685466D01*
X157901043Y-112685466D01*
X157721007Y-112685466D01*
X157721007Y-112865502D01*
X157721007Y-113045537D01*
X157901043Y-113045537D01*
X158081078Y-113045537D01*
X159176294Y-113045537D01*
X159356329Y-113045537D01*
X159536365Y-113045537D01*
X159536365Y-112865502D01*
X159536365Y-112685466D01*
X159356329Y-112685466D01*
X159176294Y-112685466D01*
X159176294Y-112865502D01*
X159176294Y-113045537D01*
X158081078Y-113045537D01*
X158081078Y-112865502D01*
X158081078Y-112685466D01*
X158628686Y-112685466D01*
X159176294Y-112685466D01*
X159176294Y-112497930D01*
X159176294Y-112310393D01*
X159356329Y-112310393D01*
X159536365Y-112310393D01*
X159536365Y-112497930D01*
X159536365Y-112685466D01*
X159716400Y-112685466D01*
X159896436Y-112685466D01*
X159896436Y-112497930D01*
X159896436Y-112310393D01*
X160083972Y-112310393D01*
X160271509Y-112310393D01*
X160271509Y-111770286D01*
X160271509Y-111230180D01*
X160451545Y-111230180D01*
X160631580Y-111230180D01*
X160631580Y-111770286D01*
X160631580Y-112310393D01*
X160811616Y-112310393D01*
X160991651Y-112310393D01*
X160991651Y-113038036D01*
X160991651Y-113765679D01*
X160811616Y-113765679D01*
X160631580Y-113765679D01*
X160631580Y-113953216D01*
X160631580Y-114140753D01*
X160451545Y-114140753D01*
X160271509Y-114140753D01*
X160271509Y-114320788D01*
X160271509Y-114500824D01*
X160083972Y-114500824D01*
X159896436Y-114500824D01*
X159896436Y-114133251D01*
X159896436Y-113765679D01*
X160264008Y-113765679D01*
X160631580Y-113765679D01*
X160631580Y-113405608D01*
X160631580Y-113045537D01*
X160451545Y-113045537D01*
X160271509Y-113045537D01*
X160271509Y-112865502D01*
X160271509Y-112685466D01*
X160083972Y-112685466D01*
X159896436Y-112685466D01*
X159896436Y-113225573D01*
X159896436Y-113765679D01*
X159716400Y-113765679D01*
X159536365Y-113765679D01*
X159536365Y-114133251D01*
X159536365Y-114500824D01*
X159716400Y-114500824D01*
X159896436Y-114500824D01*
X159896436Y-114680859D01*
X159896436Y-114860895D01*
X160083972Y-114860895D01*
X160271509Y-114860895D01*
X160271509Y-114680859D01*
X160271509Y-114500824D01*
X160451545Y-114500824D01*
X160631580Y-114500824D01*
X160631580Y-114320788D01*
X160631580Y-114140753D01*
X160811616Y-114140753D01*
X160991651Y-114140753D01*
X160991651Y-114320788D01*
X160991651Y-114500824D01*
X160811616Y-114500824D01*
X160631580Y-114500824D01*
X160631580Y-115048432D01*
X160631580Y-115596039D01*
X160451545Y-115596039D01*
X160271509Y-115596039D01*
X160271509Y-115408502D01*
X160271509Y-115220966D01*
X160083972Y-115220966D01*
X159896436Y-115220966D01*
X159896436Y-115040930D01*
X159896436Y-114860895D01*
X159716400Y-114860895D01*
X159536365Y-114860895D01*
X159536365Y-115040930D01*
X159536365Y-115220966D01*
X159356329Y-115220966D01*
X159176294Y-115220966D01*
X159176294Y-115408502D01*
X159176294Y-115596039D01*
X158628686Y-115596039D01*
X158081078Y-115596039D01*
X158081078Y-115776075D01*
X158081078Y-115956110D01*
X157901043Y-115956110D01*
X157721007Y-115956110D01*
X157721007Y-115776075D01*
X157721007Y-115596039D01*
X157901043Y-115596039D01*
X158081078Y-115596039D01*
X158081078Y-115408502D01*
X158081078Y-115220966D01*
X158448651Y-115220966D01*
X158816223Y-115220966D01*
X158816223Y-115040930D01*
X158816223Y-114860895D01*
X158268615Y-114860895D01*
X157721007Y-114860895D01*
X157721007Y-115228467D01*
X157721007Y-115596039D01*
X157540972Y-115596039D01*
X157360936Y-115596039D01*
X157360936Y-115776075D01*
X157360936Y-115956110D01*
X157173400Y-115956110D01*
X156985863Y-115956110D01*
X156985863Y-116136146D01*
X156985863Y-116316181D01*
X156445756Y-116316181D01*
X155905650Y-116316181D01*
X155905650Y-116136146D01*
X155905650Y-115956110D01*
X155718113Y-115956110D01*
X155530576Y-115956110D01*
X155530576Y-116136146D01*
X155530576Y-116316181D01*
X155170505Y-116316181D01*
X154810434Y-116316181D01*
X154810434Y-116136146D01*
X154810434Y-115956110D01*
X154990470Y-115956110D01*
X155170505Y-115956110D01*
X155170505Y-115408502D01*
X155170505Y-115220966D01*
X155530576Y-115220966D01*
X155718113Y-115220966D01*
X155905650Y-115220966D01*
X155905650Y-115040930D01*
X155905650Y-114860895D01*
X155718113Y-114860895D01*
X155530576Y-114860895D01*
X155530576Y-115040930D01*
X155530576Y-115220966D01*
X155170505Y-115220966D01*
X155170505Y-115040930D01*
X155170505Y-114860895D01*
X155350541Y-114860895D01*
X155530576Y-114860895D01*
X155530576Y-114680859D01*
X155530576Y-114500824D01*
X155350541Y-114500824D01*
X155170505Y-114500824D01*
X155170505Y-114680859D01*
X155170505Y-114860895D01*
X154990470Y-114860895D01*
X154810434Y-114860895D01*
X154810434Y-115228467D01*
X154810434Y-115596039D01*
X154630399Y-115596039D01*
X154450364Y-115596039D01*
X154450364Y-115776075D01*
X154450364Y-115956110D01*
X154262827Y-115956110D01*
X154075290Y-115956110D01*
X154075290Y-116136146D01*
X154075290Y-116316181D01*
X153895254Y-116316181D01*
X153715219Y-116316181D01*
X153715219Y-116136146D01*
X153715219Y-115956110D01*
X153535183Y-115956110D01*
X153355148Y-115956110D01*
X153355148Y-116136146D01*
X153355148Y-116316181D01*
X153175112Y-116316181D01*
X152995077Y-116316181D01*
X152995077Y-116136146D01*
X152995077Y-115956110D01*
X152807540Y-115956110D01*
X152620003Y-115956110D01*
X152620003Y-116136146D01*
X152620003Y-116316181D01*
X152439968Y-116316181D01*
X152259932Y-116316181D01*
X152259932Y-116136146D01*
X152259932Y-115956110D01*
X152439968Y-115956110D01*
X152620003Y-115956110D01*
X152620003Y-115776075D01*
X152620003Y-115596039D01*
X152259932Y-115596039D01*
X151899861Y-115596039D01*
X151899861Y-115408502D01*
X153355148Y-115408502D01*
X153355148Y-115596039D01*
X153535183Y-115596039D01*
X153715219Y-115596039D01*
X153715219Y-115408502D01*
X153715219Y-115220966D01*
X153895254Y-115220966D01*
X154075290Y-115220966D01*
X154075290Y-114860895D01*
X154075290Y-114680859D01*
X154075290Y-114500824D01*
X153895254Y-114500824D01*
X153715219Y-114500824D01*
X153715219Y-114860895D01*
X153715219Y-115220966D01*
X153535183Y-115220966D01*
X153355148Y-115220966D01*
X153355148Y-115408502D01*
X151899861Y-115408502D01*
X151899861Y-115220966D01*
X152620003Y-115220966D01*
X152807540Y-115220966D01*
X152995077Y-115220966D01*
X152995077Y-115040930D01*
X152995077Y-114860895D01*
X152807540Y-114860895D01*
X152620003Y-114860895D01*
X152620003Y-115040930D01*
X152620003Y-115220966D01*
X151899861Y-115220966D01*
X151899861Y-115040930D01*
X151899861Y-114680859D01*
X152259932Y-114680859D01*
X152259932Y-114860895D01*
X152439968Y-114860895D01*
X152620003Y-114860895D01*
X152620003Y-114680859D01*
X152620003Y-114500824D01*
X152987576Y-114500824D01*
X153355148Y-114500824D01*
X153355148Y-114320788D01*
X154450364Y-114320788D01*
X154450364Y-114500824D01*
X154630399Y-114500824D01*
X154810434Y-114500824D01*
X154810434Y-114320788D01*
X154810434Y-114140753D01*
X154990470Y-114140753D01*
X155170505Y-114140753D01*
X155170505Y-113953216D01*
X155170505Y-113765679D01*
X155350541Y-113765679D01*
X155530576Y-113765679D01*
X155530576Y-113953216D01*
X155530576Y-114140753D01*
X156078184Y-114140753D01*
X156625792Y-114140753D01*
X156625792Y-114500824D01*
X156625792Y-114860895D01*
X156805827Y-114860895D01*
X156985863Y-114860895D01*
X156985863Y-115040930D01*
X156985863Y-115220966D01*
X156625792Y-115220966D01*
X156265721Y-115220966D01*
X156265721Y-115408502D01*
X156265721Y-115596039D01*
X156445756Y-115596039D01*
X156625792Y-115596039D01*
X156625792Y-115776075D01*
X156625792Y-115956110D01*
X156805827Y-115956110D01*
X156985863Y-115956110D01*
X156985863Y-115588538D01*
X156985863Y-115228467D01*
X156985863Y-115220966D01*
X157173400Y-115220966D01*
X157360936Y-115220966D01*
X157360936Y-114500824D01*
X158081078Y-114500824D01*
X158628686Y-114500824D01*
X159176294Y-114500824D01*
X159176294Y-113953216D01*
X159176294Y-113405608D01*
X158628686Y-113405608D01*
X158081078Y-113405608D01*
X158081078Y-113953216D01*
X158081078Y-114500824D01*
X157360936Y-114500824D01*
X157360936Y-114493322D01*
X157360936Y-113953216D01*
X157360936Y-113765679D01*
X157173400Y-113765679D01*
X156985863Y-113765679D01*
X156985863Y-113585644D01*
X156985863Y-113405608D01*
X156805827Y-113405608D01*
X156625792Y-113405608D01*
X156625792Y-113585644D01*
X156625792Y-113765679D01*
X156445756Y-113765679D01*
X156265721Y-113765679D01*
X156265721Y-113405608D01*
X156265721Y-113045537D01*
X156445756Y-113045537D01*
X156625792Y-113045537D01*
X156625792Y-112865502D01*
X156625792Y-112685466D01*
X156078184Y-112685466D01*
X155530576Y-112685466D01*
X155530576Y-112865502D01*
X155530576Y-113045537D01*
X155350541Y-113045537D01*
X155170505Y-113045537D01*
X155170505Y-113405608D01*
X155170505Y-113765679D01*
X154990470Y-113765679D01*
X154810434Y-113765679D01*
X154810434Y-113953216D01*
X154810434Y-114140753D01*
X154630399Y-114140753D01*
X154450364Y-114140753D01*
X154450364Y-114320788D01*
X153355148Y-114320788D01*
X153355148Y-114140753D01*
X153535183Y-114140753D01*
X153715219Y-114140753D01*
X153715219Y-113953216D01*
X153715219Y-113765679D01*
X153355148Y-113765679D01*
X152995077Y-113765679D01*
X152995077Y-113953216D01*
X152995077Y-114140753D01*
X152807540Y-114140753D01*
X152620003Y-114140753D01*
X152620003Y-114320788D01*
X152620003Y-114500824D01*
X152439968Y-114500824D01*
X152259932Y-114500824D01*
X152259932Y-114680859D01*
X151899861Y-114680859D01*
X151899861Y-114500824D01*
X151899861Y-113765679D01*
X152259932Y-113765679D01*
X152620003Y-113765679D01*
X152620003Y-113405608D01*
X152620003Y-113045537D01*
X152259932Y-113045537D01*
X151899861Y-113045537D01*
X151899861Y-113225573D01*
X151899861Y-113405608D01*
X151532289Y-113405608D01*
X151164717Y-113405608D01*
X151164717Y-113225573D01*
X151164717Y-113045537D01*
X151532289Y-113045537D01*
X151899861Y-113045537D01*
X151899861Y-112865502D01*
X151899861Y-112685466D01*
X152259932Y-112685466D01*
X152620003Y-112685466D01*
X152620003Y-112497930D01*
X152620003Y-112310393D01*
X152439968Y-112310393D01*
X152259932Y-112310393D01*
X152259932Y-111582749D01*
X152259932Y-110855106D01*
X152627505Y-110855106D01*
X152995077Y-110855106D01*
X152995077Y-111042643D01*
X152995077Y-111230180D01*
X152807540Y-111230180D01*
X152620003Y-111230180D01*
X152620003Y-111590251D01*
X152620003Y-111950322D01*
X152807540Y-111950322D01*
X152995077Y-111950322D01*
X152995077Y-111770286D01*
X152995077Y-111590251D01*
X153175112Y-111590251D01*
X153355148Y-111590251D01*
X153355148Y-111950322D01*
X153355148Y-112310393D01*
X153175112Y-112310393D01*
X152995077Y-112310393D01*
X152995077Y-112497930D01*
X152995077Y-112685466D01*
X152807540Y-112685466D01*
X152620003Y-112685466D01*
X152620003Y-112865502D01*
X152620003Y-113045537D01*
X152987576Y-113045537D01*
X153355148Y-113045537D01*
X153355148Y-112677965D01*
X153355148Y-112310393D01*
X153535183Y-112310393D01*
X153715219Y-112310393D01*
X153715219Y-112497930D01*
X153715219Y-112685466D01*
X153895254Y-112685466D01*
X154075290Y-112685466D01*
X154075290Y-112865502D01*
X154075290Y-113045537D01*
X153895254Y-113045537D01*
X153715219Y-113045537D01*
X153715219Y-113225573D01*
X153715219Y-113405608D01*
X154262827Y-113405608D01*
X154810434Y-113405608D01*
X154810434Y-112858000D01*
X154810434Y-112685466D01*
X155170505Y-112685466D01*
X155350541Y-112685466D01*
X155530576Y-112685466D01*
X155530576Y-112497930D01*
X155530576Y-112310393D01*
X156265721Y-112310393D01*
X156445756Y-112310393D01*
X156625792Y-112310393D01*
X156625792Y-111950322D01*
X156625792Y-111590251D01*
X156445756Y-111590251D01*
X156265721Y-111590251D01*
X156265721Y-111950322D01*
X156265721Y-112310393D01*
X155530576Y-112310393D01*
X155350541Y-112310393D01*
X155170505Y-112310393D01*
X155170505Y-112497930D01*
X155170505Y-112685466D01*
X154810434Y-112685466D01*
X154810434Y-112497930D01*
X154810434Y-112310393D01*
X154990470Y-112310393D01*
X155170505Y-112310393D01*
X155170505Y-112130357D01*
X155170505Y-111950322D01*
X154990470Y-111950322D01*
X154810434Y-111950322D01*
X154810434Y-111770286D01*
X154810434Y-111590251D01*
X155358042Y-111590251D01*
X155905650Y-111590251D01*
X155905650Y-111222679D01*
X155905650Y-110855106D01*
X155718113Y-110855106D01*
X155530576Y-110855106D01*
X155530576Y-111042643D01*
X155530576Y-111230180D01*
X155350541Y-111230180D01*
X155170505Y-111230180D01*
X155170505Y-111042643D01*
X155170505Y-110855106D01*
X154990470Y-110855106D01*
X154810434Y-110855106D01*
X154810434Y-110675071D01*
X154810434Y-110495035D01*
X154990470Y-110495035D01*
X155170505Y-110495035D01*
X155170505Y-110315000D01*
X155170505Y-110134964D01*
X155350541Y-110134964D01*
X155530576Y-110134964D01*
X155530576Y-109954929D01*
X155530576Y-109774894D01*
X155170505Y-109774894D01*
X154810434Y-109774894D01*
X154810434Y-109587357D01*
X154810434Y-109399820D01*
X154990470Y-109399820D01*
X155170505Y-109399820D01*
X155170505Y-109219784D01*
X155170505Y-109039749D01*
X155350541Y-109039749D01*
X155530576Y-109039749D01*
X155530576Y-108679678D01*
X155530576Y-108319607D01*
X155718113Y-108319607D01*
X155905650Y-108319607D01*
X155905650Y-108679678D01*
X155905650Y-109039749D01*
X156085685Y-109039749D01*
X156265721Y-109039749D01*
X156265721Y-108679678D01*
X156265721Y-108319607D01*
X156445756Y-108319607D01*
X156625792Y-108319607D01*
X156625792Y-107952035D01*
X156625792Y-107584462D01*
X156445756Y-107584462D01*
X156265721Y-107584462D01*
X156265721Y-107952035D01*
X156265721Y-108319607D01*
X156085685Y-108319607D01*
X155905650Y-108319607D01*
X155905650Y-107771999D01*
X155905650Y-107224391D01*
X156085685Y-107224391D01*
X156265721Y-107224391D01*
X156265721Y-106864321D01*
X156625792Y-106864321D01*
X156805827Y-106864321D01*
X156985863Y-106864321D01*
X156985863Y-106496748D01*
X156985863Y-106129176D01*
X156805827Y-106129176D01*
X156625792Y-106129176D01*
X156625792Y-106496748D01*
X156625792Y-106864321D01*
X156265721Y-106864321D01*
X156265721Y-106856819D01*
X156265721Y-106496748D01*
X156265721Y-106489247D01*
X156085685Y-106489247D01*
X155905650Y-106489247D01*
X155905650Y-106129176D01*
X155905650Y-105769105D01*
X156085685Y-105769105D01*
X156265721Y-105769105D01*
X156265721Y-105949140D01*
X156265721Y-106129176D01*
X156445756Y-106129176D01*
X156625792Y-106129176D01*
X156625792Y-105949140D01*
X156625792Y-105769105D01*
X156805827Y-105769105D01*
X156985863Y-105769105D01*
X156985863Y-105589070D01*
X156985863Y-105409034D01*
X156805827Y-105409034D01*
X156625792Y-105409034D01*
X156625792Y-104861426D01*
X156625792Y-104313819D01*
X157353435Y-104313819D01*
X158081078Y-104313819D01*
X158081078Y-104493854D01*
G37*
D12*
%TO.C,D2*%
X172227500Y-93841101D02*
X172827500Y-94241101D01*
X172227500Y-94241101D02*
X171727500Y-94241101D01*
X172227500Y-94641101D02*
X172227500Y-93841101D01*
X172827500Y-94241101D02*
X172227500Y-94641101D01*
X172827500Y-94241101D02*
X172827500Y-93691101D01*
X172827500Y-94241101D02*
X172827500Y-94791101D01*
X173227500Y-94241101D02*
X172827500Y-94241101D01*
D16*
X174687500Y-93241101D02*
X170827500Y-93241101D01*
X174687500Y-95241101D02*
X170827500Y-95241101D01*
X174687500Y-95241101D02*
X174687500Y-93241101D01*
%TO.C,R3*%
X138090000Y-89551101D02*
X138860000Y-89551101D01*
X138860000Y-88181101D02*
X138860000Y-90921101D01*
X138860000Y-90921101D02*
X145400000Y-90921101D01*
X145400000Y-88181101D02*
X138860000Y-88181101D01*
X145400000Y-90921101D02*
X145400000Y-88181101D01*
X146170000Y-89551101D02*
X145400000Y-89551101D01*
%TD*%
M02*
