%TF.GenerationSoftware,KiCad,Pcbnew,9.0.1+1*%
%TF.CreationDate,2025-12-31T20:00:15+00:00*%
%TF.ProjectId,WALKIN_PIR_IF,57414c4b-494e-45f5-9049-525f49462e6b,A*%
%TF.SameCoordinates,Original*%
%TF.FileFunction,Copper,L2,Bot*%
%TF.FilePolarity,Positive*%
%FSLAX46Y46*%
G04 Gerber Fmt 4.6, Leading zero omitted, Abs format (unit mm)*
G04 Created by KiCad (PCBNEW 9.0.1+1) date 2025-12-31 20:00:15*
%MOMM*%
%LPD*%
G01*
G04 APERTURE LIST*
G04 Aperture macros list*
%AMRoundRect*
0 Rectangle with rounded corners*
0 $1 Rounding radius*
0 $2 $3 $4 $5 $6 $7 $8 $9 X,Y pos of 4 corners*
0 Add a 4 corners polygon primitive as box body*
4,1,4,$2,$3,$4,$5,$6,$7,$8,$9,$2,$3,0*
0 Add four circle primitives for the rounded corners*
1,1,$1+$1,$2,$3*
1,1,$1+$1,$4,$5*
1,1,$1+$1,$6,$7*
1,1,$1+$1,$8,$9*
0 Add four rect primitives between the rounded corners*
20,1,$1+$1,$2,$3,$4,$5,0*
20,1,$1+$1,$4,$5,$6,$7,0*
20,1,$1+$1,$6,$7,$8,$9,0*
20,1,$1+$1,$8,$9,$2,$3,0*%
G04 Aperture macros list end*
%TA.AperFunction,ComponentPad*%
%ADD10RoundRect,0.249999X0.850001X-0.850001X0.850001X0.850001X-0.850001X0.850001X-0.850001X-0.850001X0*%
%TD*%
%TA.AperFunction,ComponentPad*%
%ADD11C,2.200000*%
%TD*%
%TA.AperFunction,ComponentPad*%
%ADD12C,1.600000*%
%TD*%
%TA.AperFunction,ComponentPad*%
%ADD13RoundRect,0.250000X-0.550000X-0.550000X0.550000X-0.550000X0.550000X0.550000X-0.550000X0.550000X0*%
%TD*%
%TA.AperFunction,ComponentPad*%
%ADD14O,1.600000X1.600000*%
%TD*%
%TA.AperFunction,ComponentPad*%
%ADD15RoundRect,0.249999X-0.850001X0.850001X-0.850001X-0.850001X0.850001X-0.850001X0.850001X0.850001X0*%
%TD*%
%TA.AperFunction,ComponentPad*%
%ADD16C,1.400000*%
%TD*%
%TA.AperFunction,ComponentPad*%
%ADD17R,1.700000X1.700000*%
%TD*%
%TA.AperFunction,ComponentPad*%
%ADD18O,1.700000X1.700000*%
%TD*%
%TA.AperFunction,ViaPad*%
%ADD19C,0.600000*%
%TD*%
G04 APERTURE END LIST*
D10*
%TO.P,J2,1,Pin_1*%
%TO.N,/NTC2*%
X173467500Y-108071101D03*
D11*
%TO.P,J2,2,Pin_2*%
%TO.N,/NTC1*%
X173467500Y-105531101D03*
%TO.P,J2,3,Pin_3*%
%TO.N,/COM*%
X173467500Y-102991101D03*
%TO.P,J2,4,Pin_4*%
%TO.N,/DIN2*%
X173467500Y-100451101D03*
%TO.P,J2,5,Pin_5*%
%TO.N,/DIN1*%
X173467500Y-97911101D03*
%TD*%
D12*
%TO.P,C1,1*%
%TO.N,VDD*%
X145770000Y-94781101D03*
%TO.P,C1,2*%
%TO.N,GND*%
X145770000Y-99781101D03*
%TD*%
%TO.P,C2,1*%
%TO.N,VDD*%
X149790000Y-94881101D03*
%TO.P,C2,2*%
%TO.N,GND*%
X149790000Y-99881101D03*
%TD*%
D13*
%TO.P,U1,1*%
%TO.N,/PIR_SIG*%
X160970000Y-96146101D03*
D12*
%TO.P,U1,2*%
%TO.N,GND*%
X160970000Y-98686101D03*
%TO.P,U1,3*%
%TO.N,/COM*%
X168590000Y-98686101D03*
%TO.P,U1,4*%
%TO.N,/DIN1*%
X168590000Y-96146101D03*
%TD*%
%TO.P,R2,1*%
%TO.N,Net-(S1-VOUT)*%
X149690000Y-89551101D03*
D14*
%TO.P,R2,2*%
%TO.N,/PIR_SIG*%
X159850000Y-89551101D03*
%TD*%
D15*
%TO.P,J1,1,VBAT+*%
%TO.N,GND*%
X129830000Y-96061101D03*
D11*
%TO.P,J1,2,VBAT-*%
%TO.N,/VBAT*%
X129830000Y-98601101D03*
%TD*%
D16*
%TO.P,JP1,1,A*%
%TO.N,/VBAT*%
X130650000Y-102241101D03*
%TO.P,JP1,2,B*%
%TO.N,Net-(JP1-B)*%
X133190000Y-102241101D03*
%TD*%
D12*
%TO.P,C3,1*%
%TO.N,/NTC1*%
X166840000Y-90721101D03*
%TO.P,C3,2*%
%TO.N,/NTC2*%
X166840000Y-85721101D03*
%TD*%
%TO.P,R1,1*%
%TO.N,VDD*%
X141670000Y-94821101D03*
D14*
%TO.P,R1,2*%
%TO.N,GND*%
X141670000Y-104981101D03*
%TD*%
D10*
%TO.P,J3,1,VBAT-*%
%TO.N,/NTC1*%
X173467500Y-89451101D03*
D11*
%TO.P,J3,2,VBAT+*%
%TO.N,/NTC2*%
X173467500Y-86911101D03*
%TD*%
D17*
%TO.P,S1,1,VCC*%
%TO.N,VDD*%
X153700000Y-94896101D03*
D18*
%TO.P,S1,2,VOUT*%
%TO.N,Net-(S1-VOUT)*%
X153700000Y-97436101D03*
%TO.P,S1,3,GND*%
%TO.N,GND*%
X153700000Y-99976101D03*
%TD*%
D12*
%TO.P,R3,1*%
%TO.N,Net-(S1-VOUT)*%
X147210000Y-89551101D03*
D14*
%TO.P,R3,2*%
%TO.N,GND*%
X137050000Y-89551101D03*
%TD*%
D19*
%TO.N,GND*%
X136890000Y-102731101D03*
%TO.N,/COM*%
X168830000Y-104371101D03*
X175660000Y-95091101D03*
%TD*%
%TA.AperFunction,Conductor*%
%TO.N,/COM*%
G36*
X174875677Y-92460786D02*
G01*
X174896319Y-92477420D01*
X176313681Y-93894782D01*
X176347166Y-93956105D01*
X176350000Y-93982463D01*
X176350000Y-103139739D01*
X176330315Y-103206778D01*
X176313681Y-103227420D01*
X175136319Y-104404782D01*
X175074996Y-104438267D01*
X175048638Y-104441101D01*
X174692311Y-104441101D01*
X174625272Y-104421416D01*
X174604630Y-104404782D01*
X174510154Y-104310306D01*
X174510149Y-104310302D01*
X174306346Y-104162231D01*
X174280479Y-104149051D01*
X174249094Y-104126248D01*
X173637734Y-103514888D01*
X173679792Y-103503619D01*
X173805208Y-103431211D01*
X173907610Y-103328809D01*
X173980018Y-103203393D01*
X173991287Y-103161335D01*
X174761750Y-103931799D01*
X174761750Y-103931798D01*
X174835942Y-103829682D01*
X174835946Y-103829676D01*
X174950280Y-103605285D01*
X175028102Y-103365770D01*
X175067500Y-103117029D01*
X175067500Y-102865172D01*
X175028102Y-102616431D01*
X174950280Y-102376916D01*
X174835942Y-102152517D01*
X174761750Y-102050402D01*
X174761750Y-102050401D01*
X173991287Y-102820865D01*
X173980018Y-102778809D01*
X173907610Y-102653393D01*
X173805208Y-102550991D01*
X173679792Y-102478583D01*
X173637732Y-102467313D01*
X174249094Y-101855952D01*
X174280475Y-101833152D01*
X174306345Y-101819971D01*
X174510156Y-101671894D01*
X174688293Y-101493757D01*
X174836370Y-101289946D01*
X174950741Y-101065480D01*
X175028590Y-100825886D01*
X175068000Y-100577063D01*
X175068000Y-100325139D01*
X175028590Y-100076316D01*
X174950741Y-99836722D01*
X174950739Y-99836719D01*
X174950739Y-99836717D01*
X174909247Y-99755285D01*
X174836370Y-99612256D01*
X174690892Y-99412022D01*
X174688298Y-99408451D01*
X174688294Y-99408446D01*
X174548630Y-99268782D01*
X174515145Y-99207459D01*
X174520129Y-99137767D01*
X174548630Y-99093420D01*
X174602396Y-99039654D01*
X174688293Y-98953757D01*
X174836370Y-98749946D01*
X174950741Y-98525480D01*
X175028590Y-98285886D01*
X175068000Y-98037063D01*
X175068000Y-97785139D01*
X175028590Y-97536316D01*
X174950741Y-97296722D01*
X174950739Y-97296719D01*
X174950739Y-97296717D01*
X174909247Y-97215285D01*
X174836370Y-97072256D01*
X174779020Y-96993320D01*
X174688298Y-96868451D01*
X174688294Y-96868446D01*
X174510154Y-96690306D01*
X174510149Y-96690302D01*
X174306348Y-96542233D01*
X174306347Y-96542232D01*
X174306345Y-96542231D01*
X174236247Y-96506514D01*
X174081883Y-96427861D01*
X173842285Y-96350011D01*
X173593462Y-96310601D01*
X173341538Y-96310601D01*
X173217126Y-96330306D01*
X173092714Y-96350011D01*
X172853116Y-96427861D01*
X172628651Y-96542233D01*
X172424850Y-96690302D01*
X172424845Y-96690306D01*
X172246705Y-96868446D01*
X172246701Y-96868451D01*
X172098632Y-97072252D01*
X171984260Y-97296717D01*
X171906410Y-97536315D01*
X171867000Y-97785139D01*
X171867000Y-98037062D01*
X171906410Y-98285886D01*
X171984260Y-98525484D01*
X172039267Y-98633440D01*
X172092931Y-98738762D01*
X172098632Y-98749949D01*
X172246701Y-98953750D01*
X172246705Y-98953755D01*
X172386370Y-99093420D01*
X172419855Y-99154743D01*
X172414871Y-99224435D01*
X172386370Y-99268782D01*
X172246705Y-99408446D01*
X172246701Y-99408451D01*
X172098632Y-99612252D01*
X171984260Y-99836717D01*
X171906410Y-100076315D01*
X171867000Y-100325139D01*
X171867000Y-100577062D01*
X171906410Y-100825886D01*
X171984260Y-101065484D01*
X172098632Y-101289949D01*
X172246701Y-101493750D01*
X172246705Y-101493755D01*
X172424845Y-101671895D01*
X172424850Y-101671899D01*
X172628653Y-101819970D01*
X172654518Y-101833149D01*
X172685905Y-101855953D01*
X173297265Y-102467313D01*
X173255208Y-102478583D01*
X173129792Y-102550991D01*
X173027390Y-102653393D01*
X172954982Y-102778809D01*
X172943712Y-102820866D01*
X172173248Y-102050401D01*
X172173247Y-102050402D01*
X172099059Y-102152514D01*
X171984719Y-102376916D01*
X171906897Y-102616431D01*
X171867500Y-102865172D01*
X171867500Y-103117029D01*
X171906897Y-103365770D01*
X171984719Y-103605285D01*
X172099057Y-103829684D01*
X172173248Y-103931798D01*
X172173248Y-103931799D01*
X172943712Y-103161335D01*
X172954982Y-103203393D01*
X173027390Y-103328809D01*
X173129792Y-103431211D01*
X173255208Y-103503619D01*
X173297265Y-103514888D01*
X172685904Y-104126248D01*
X172654523Y-104149049D01*
X172628652Y-104162232D01*
X172424850Y-104310302D01*
X172424845Y-104310306D01*
X172330370Y-104404782D01*
X172269047Y-104438267D01*
X172242689Y-104441101D01*
X169819999Y-104441101D01*
X168010000Y-106251100D01*
X168010000Y-106297101D01*
X167990315Y-106364140D01*
X167937511Y-106409895D01*
X167886000Y-106421101D01*
X166064000Y-106421101D01*
X165996961Y-106401416D01*
X165951206Y-106348612D01*
X165940000Y-106297101D01*
X165940000Y-96043749D01*
X167289500Y-96043749D01*
X167289500Y-96248452D01*
X167321522Y-96450635D01*
X167384781Y-96645324D01*
X167477715Y-96827714D01*
X167598028Y-96993314D01*
X167742786Y-97138072D01*
X167908385Y-97258385D01*
X167908387Y-97258386D01*
X167908390Y-97258388D01*
X167983615Y-97296717D01*
X168001630Y-97305896D01*
X168052426Y-97353871D01*
X168069221Y-97421692D01*
X168046684Y-97487826D01*
X168001630Y-97526866D01*
X167908644Y-97574244D01*
X167864077Y-97606624D01*
X167864077Y-97606625D01*
X168543554Y-98286101D01*
X168537339Y-98286101D01*
X168435606Y-98313360D01*
X168344394Y-98366021D01*
X168269920Y-98440495D01*
X168217259Y-98531707D01*
X168190000Y-98633440D01*
X168190000Y-98639654D01*
X167510524Y-97960178D01*
X167510523Y-97960178D01*
X167478143Y-98004745D01*
X167385244Y-98187069D01*
X167322009Y-98381683D01*
X167290000Y-98583783D01*
X167290000Y-98788418D01*
X167322009Y-98990518D01*
X167385244Y-99185132D01*
X167478141Y-99367451D01*
X167478147Y-99367460D01*
X167510523Y-99412022D01*
X167510524Y-99412023D01*
X168190000Y-98732547D01*
X168190000Y-98738762D01*
X168217259Y-98840495D01*
X168269920Y-98931707D01*
X168344394Y-99006181D01*
X168435606Y-99058842D01*
X168537339Y-99086101D01*
X168543553Y-99086101D01*
X167864076Y-99765575D01*
X167908650Y-99797960D01*
X168090968Y-99890856D01*
X168285582Y-99954091D01*
X168487683Y-99986101D01*
X168692317Y-99986101D01*
X168894417Y-99954091D01*
X169089031Y-99890856D01*
X169271349Y-99797960D01*
X169315921Y-99765575D01*
X168636447Y-99086101D01*
X168642661Y-99086101D01*
X168744394Y-99058842D01*
X168835606Y-99006181D01*
X168910080Y-98931707D01*
X168962741Y-98840495D01*
X168990000Y-98738762D01*
X168990000Y-98732549D01*
X169669474Y-99412023D01*
X169669474Y-99412022D01*
X169701859Y-99367450D01*
X169794755Y-99185132D01*
X169857990Y-98990518D01*
X169890000Y-98788418D01*
X169890000Y-98583783D01*
X169857990Y-98381683D01*
X169794755Y-98187069D01*
X169701859Y-98004751D01*
X169669474Y-97960178D01*
X169669474Y-97960177D01*
X168990000Y-98639652D01*
X168990000Y-98633440D01*
X168962741Y-98531707D01*
X168910080Y-98440495D01*
X168835606Y-98366021D01*
X168744394Y-98313360D01*
X168642661Y-98286101D01*
X168636446Y-98286101D01*
X169229962Y-97692586D01*
X169315922Y-97606625D01*
X169315921Y-97606624D01*
X169271359Y-97574248D01*
X169271350Y-97574242D01*
X169178369Y-97526866D01*
X169127573Y-97478891D01*
X169110778Y-97411070D01*
X169133315Y-97344936D01*
X169178370Y-97305896D01*
X169196385Y-97296717D01*
X169271610Y-97258388D01*
X169321144Y-97222399D01*
X169437213Y-97138072D01*
X169437215Y-97138069D01*
X169437219Y-97138067D01*
X169581966Y-96993320D01*
X169581968Y-96993316D01*
X169581971Y-96993314D01*
X169634732Y-96920691D01*
X169702287Y-96827711D01*
X169795220Y-96645320D01*
X169858477Y-96450635D01*
X169890500Y-96248453D01*
X169890500Y-96043749D01*
X169858477Y-95841567D01*
X169795220Y-95646882D01*
X169795218Y-95646879D01*
X169795218Y-95646877D01*
X169761503Y-95580708D01*
X169702287Y-95464491D01*
X169694556Y-95453850D01*
X169581971Y-95298887D01*
X169437213Y-95154129D01*
X169271613Y-95033816D01*
X169271612Y-95033815D01*
X169271610Y-95033814D01*
X169214653Y-95004792D01*
X169089223Y-94940882D01*
X168894534Y-94877623D01*
X168719995Y-94849979D01*
X168692352Y-94845601D01*
X168487648Y-94845601D01*
X168463329Y-94849452D01*
X168285465Y-94877623D01*
X168090776Y-94940882D01*
X167908386Y-95033816D01*
X167742786Y-95154129D01*
X167598028Y-95298887D01*
X167477715Y-95464487D01*
X167384781Y-95646877D01*
X167321522Y-95841566D01*
X167289500Y-96043749D01*
X165940000Y-96043749D01*
X165940000Y-95402463D01*
X165959685Y-95335424D01*
X165976319Y-95314782D01*
X168813681Y-92477420D01*
X168875004Y-92443935D01*
X168901362Y-92441101D01*
X174808638Y-92441101D01*
X174875677Y-92460786D01*
G37*
%TD.AperFunction*%
%TD*%
%TA.AperFunction,Conductor*%
%TO.N,GND*%
G36*
X161833039Y-77941286D02*
G01*
X161878794Y-77994090D01*
X161890000Y-78045601D01*
X161890000Y-94756356D01*
X161870315Y-94823395D01*
X161817511Y-94869150D01*
X161748353Y-94879094D01*
X161726998Y-94874062D01*
X161672797Y-94856102D01*
X161672795Y-94856101D01*
X161570010Y-94845601D01*
X160369998Y-94845601D01*
X160369981Y-94845602D01*
X160267203Y-94856101D01*
X160267200Y-94856102D01*
X160100668Y-94911286D01*
X160100663Y-94911288D01*
X159951342Y-95003390D01*
X159827289Y-95127443D01*
X159735187Y-95276764D01*
X159735185Y-95276769D01*
X159710355Y-95351703D01*
X159680001Y-95443304D01*
X159680001Y-95443305D01*
X159680000Y-95443305D01*
X159669500Y-95546084D01*
X159669500Y-96746102D01*
X159669501Y-96746119D01*
X159680000Y-96848897D01*
X159680001Y-96848900D01*
X159735185Y-97015432D01*
X159735187Y-97015437D01*
X159765016Y-97063797D01*
X159827288Y-97164757D01*
X159951344Y-97288813D01*
X160100666Y-97380915D01*
X160183152Y-97408248D01*
X160240597Y-97448021D01*
X160267420Y-97512537D01*
X160255105Y-97581313D01*
X160245143Y-97593076D01*
X160244077Y-97606625D01*
X160923553Y-98286101D01*
X160917339Y-98286101D01*
X160815606Y-98313360D01*
X160724394Y-98366021D01*
X160649920Y-98440495D01*
X160597259Y-98531707D01*
X160570000Y-98633440D01*
X160570000Y-98639654D01*
X159890524Y-97960178D01*
X159890523Y-97960178D01*
X159858143Y-98004745D01*
X159765244Y-98187069D01*
X159702009Y-98381683D01*
X159670000Y-98583783D01*
X159670000Y-98788418D01*
X159702009Y-98990518D01*
X159765244Y-99185132D01*
X159858141Y-99367451D01*
X159858147Y-99367460D01*
X159890523Y-99412022D01*
X159890524Y-99412023D01*
X160570000Y-98732547D01*
X160570000Y-98738762D01*
X160597259Y-98840495D01*
X160649920Y-98931707D01*
X160724394Y-99006181D01*
X160815606Y-99058842D01*
X160917339Y-99086101D01*
X160923552Y-99086101D01*
X160244076Y-99765575D01*
X160288650Y-99797960D01*
X160470968Y-99890856D01*
X160665582Y-99954091D01*
X160867683Y-99986101D01*
X161072317Y-99986101D01*
X161274417Y-99954091D01*
X161469031Y-99890856D01*
X161651350Y-99797960D01*
X161693113Y-99767617D01*
X161758919Y-99744136D01*
X161826973Y-99759961D01*
X161875669Y-99810066D01*
X161890000Y-99867934D01*
X161890000Y-116796601D01*
X161870315Y-116863640D01*
X161817511Y-116909395D01*
X161766000Y-116920601D01*
X130797364Y-116920601D01*
X130730325Y-116900916D01*
X130684570Y-116848112D01*
X130674626Y-116778954D01*
X130695788Y-116725479D01*
X130725194Y-116683483D01*
X130949460Y-116295044D01*
X131139018Y-115888537D01*
X131292424Y-115467055D01*
X131408513Y-115033807D01*
X131486399Y-114592090D01*
X131525492Y-114145266D01*
X131525492Y-113696734D01*
X131486399Y-113249910D01*
X131408513Y-112808193D01*
X131292424Y-112374945D01*
X131270258Y-112314045D01*
X131139020Y-111953467D01*
X131139016Y-111953457D01*
X130949464Y-111546965D01*
X130949456Y-111546949D01*
X130935373Y-111522557D01*
X130725194Y-111158517D01*
X130467928Y-110791101D01*
X130467927Y-110791099D01*
X130299493Y-110590368D01*
X130179617Y-110447506D01*
X129862458Y-110130347D01*
X129767216Y-110050429D01*
X129518864Y-109842036D01*
X129151464Y-109584782D01*
X129151447Y-109584770D01*
X128988837Y-109490887D01*
X128763014Y-109360507D01*
X128762998Y-109360499D01*
X128356506Y-109170947D01*
X128356496Y-109170943D01*
X127935015Y-109017538D01*
X127501772Y-108901451D01*
X127501761Y-108901449D01*
X127060059Y-108823565D01*
X126613231Y-108784472D01*
X126613230Y-108784472D01*
X126164698Y-108784472D01*
X126164697Y-108784472D01*
X125717869Y-108823565D01*
X125717867Y-108823565D01*
X125276166Y-108901449D01*
X125276155Y-108901451D01*
X124842912Y-109017538D01*
X124421431Y-109170943D01*
X124421421Y-109170947D01*
X124014929Y-109360499D01*
X124014913Y-109360507D01*
X123626489Y-109584765D01*
X123626464Y-109584781D01*
X123615490Y-109592465D01*
X123549283Y-109614790D01*
X123481516Y-109597776D01*
X123433706Y-109546826D01*
X123420371Y-109490887D01*
X123420371Y-104731101D01*
X140393391Y-104731101D01*
X141354314Y-104731101D01*
X141349920Y-104735495D01*
X141297259Y-104826707D01*
X141270000Y-104928440D01*
X141270000Y-105033762D01*
X141297259Y-105135495D01*
X141349920Y-105226707D01*
X141354314Y-105231101D01*
X140393391Y-105231101D01*
X140402009Y-105285514D01*
X140465244Y-105480130D01*
X140558140Y-105662450D01*
X140678417Y-105827995D01*
X140678417Y-105827996D01*
X140823104Y-105972683D01*
X140988650Y-106092960D01*
X141170968Y-106185855D01*
X141365578Y-106249089D01*
X141420000Y-106257708D01*
X141420000Y-105296787D01*
X141424394Y-105301181D01*
X141515606Y-105353842D01*
X141617339Y-105381101D01*
X141722661Y-105381101D01*
X141824394Y-105353842D01*
X141915606Y-105301181D01*
X141920000Y-105296787D01*
X141920000Y-106257707D01*
X141974421Y-106249089D01*
X142169031Y-106185855D01*
X142351349Y-106092960D01*
X142516894Y-105972683D01*
X142516895Y-105972683D01*
X142661582Y-105827996D01*
X142661582Y-105827995D01*
X142781859Y-105662450D01*
X142874755Y-105480130D01*
X142937990Y-105285514D01*
X142946609Y-105231101D01*
X141985686Y-105231101D01*
X141990080Y-105226707D01*
X142042741Y-105135495D01*
X142070000Y-105033762D01*
X142070000Y-104928440D01*
X142042741Y-104826707D01*
X141990080Y-104735495D01*
X141985686Y-104731101D01*
X142946609Y-104731101D01*
X142937990Y-104676687D01*
X142874755Y-104482071D01*
X142781859Y-104299751D01*
X142661582Y-104134206D01*
X142661582Y-104134205D01*
X142516895Y-103989518D01*
X142351349Y-103869241D01*
X142169029Y-103776345D01*
X141974413Y-103713110D01*
X141920000Y-103704491D01*
X141920000Y-104665415D01*
X141915606Y-104661021D01*
X141824394Y-104608360D01*
X141722661Y-104581101D01*
X141617339Y-104581101D01*
X141515606Y-104608360D01*
X141424394Y-104661021D01*
X141420000Y-104665415D01*
X141420000Y-103704491D01*
X141365586Y-103713110D01*
X141170970Y-103776345D01*
X140988650Y-103869241D01*
X140823105Y-103989518D01*
X140823104Y-103989518D01*
X140678417Y-104134205D01*
X140678417Y-104134206D01*
X140558140Y-104299751D01*
X140465244Y-104482071D01*
X140402009Y-104676687D01*
X140393391Y-104731101D01*
X123420371Y-104731101D01*
X123420371Y-102146614D01*
X129449500Y-102146614D01*
X129449500Y-102335587D01*
X129479059Y-102522219D01*
X129537454Y-102701937D01*
X129623240Y-102870300D01*
X129734310Y-103023174D01*
X129867927Y-103156791D01*
X130020801Y-103267861D01*
X130100347Y-103308391D01*
X130189163Y-103353646D01*
X130189165Y-103353646D01*
X130189168Y-103353648D01*
X130285497Y-103384947D01*
X130368881Y-103412041D01*
X130555514Y-103441601D01*
X130555519Y-103441601D01*
X130744486Y-103441601D01*
X130931118Y-103412041D01*
X131110832Y-103353648D01*
X131279199Y-103267861D01*
X131432073Y-103156791D01*
X131565690Y-103023174D01*
X131676760Y-102870300D01*
X131762547Y-102701933D01*
X131802069Y-102580296D01*
X131841507Y-102522622D01*
X131905866Y-102495424D01*
X131974712Y-102507339D01*
X132026188Y-102554583D01*
X132037931Y-102580297D01*
X132077454Y-102701937D01*
X132163240Y-102870300D01*
X132274310Y-103023174D01*
X132407927Y-103156791D01*
X132560801Y-103267861D01*
X132640347Y-103308391D01*
X132729163Y-103353646D01*
X132729165Y-103353646D01*
X132729168Y-103353648D01*
X132825497Y-103384947D01*
X132908881Y-103412041D01*
X133095514Y-103441601D01*
X133095519Y-103441601D01*
X133284486Y-103441601D01*
X133471118Y-103412041D01*
X133650832Y-103353648D01*
X133819199Y-103267861D01*
X133972073Y-103156791D01*
X134105690Y-103023174D01*
X134216760Y-102870300D01*
X134302547Y-102701933D01*
X134360940Y-102522219D01*
X134365184Y-102495424D01*
X134390500Y-102335587D01*
X134390500Y-102146614D01*
X134360940Y-101959982D01*
X134302545Y-101780264D01*
X134216759Y-101611901D01*
X134105690Y-101459028D01*
X133972073Y-101325411D01*
X133819199Y-101214341D01*
X133753962Y-101181101D01*
X133650836Y-101128555D01*
X133471118Y-101070160D01*
X133284486Y-101040601D01*
X133284481Y-101040601D01*
X133095519Y-101040601D01*
X133095514Y-101040601D01*
X132908881Y-101070160D01*
X132729163Y-101128555D01*
X132560800Y-101214341D01*
X132473579Y-101277711D01*
X132407927Y-101325411D01*
X132407925Y-101325413D01*
X132407924Y-101325413D01*
X132274312Y-101459025D01*
X132274312Y-101459026D01*
X132274310Y-101459028D01*
X132226610Y-101524680D01*
X132163240Y-101611901D01*
X132077454Y-101780264D01*
X132037931Y-101901904D01*
X131998493Y-101959579D01*
X131934134Y-101986777D01*
X131865288Y-101974862D01*
X131813812Y-101927617D01*
X131802069Y-101901904D01*
X131762545Y-101780264D01*
X131676759Y-101611901D01*
X131565690Y-101459028D01*
X131432073Y-101325411D01*
X131279199Y-101214341D01*
X131213962Y-101181101D01*
X131110836Y-101128555D01*
X130931118Y-101070160D01*
X130744486Y-101040601D01*
X130744481Y-101040601D01*
X130555519Y-101040601D01*
X130555514Y-101040601D01*
X130368881Y-101070160D01*
X130189163Y-101128555D01*
X130020800Y-101214341D01*
X129933579Y-101277711D01*
X129867927Y-101325411D01*
X129867925Y-101325413D01*
X129867924Y-101325413D01*
X129734312Y-101459025D01*
X129734312Y-101459026D01*
X129734310Y-101459028D01*
X129686610Y-101524680D01*
X129623240Y-101611901D01*
X129537454Y-101780264D01*
X129479059Y-101959982D01*
X129449500Y-102146614D01*
X123420371Y-102146614D01*
X123420371Y-95982254D01*
X126489500Y-95982254D01*
X126489500Y-96139947D01*
X126520261Y-96294590D01*
X126520264Y-96294602D01*
X126580602Y-96440273D01*
X126580609Y-96440286D01*
X126668210Y-96571389D01*
X126668213Y-96571393D01*
X126779707Y-96682887D01*
X126779711Y-96682890D01*
X126910814Y-96770491D01*
X126910827Y-96770498D01*
X127056498Y-96830836D01*
X127056503Y-96830838D01*
X127211153Y-96861600D01*
X127211156Y-96861601D01*
X127211158Y-96861601D01*
X127368844Y-96861601D01*
X127368845Y-96861600D01*
X127523497Y-96830838D01*
X127669179Y-96770495D01*
X127800289Y-96682890D01*
X127911789Y-96571390D01*
X127958681Y-96501211D01*
X128002779Y-96435215D01*
X128005214Y-96436842D01*
X128045130Y-96395849D01*
X128113199Y-96380090D01*
X128178983Y-96403634D01*
X128221595Y-96459005D01*
X128230000Y-96503881D01*
X128230000Y-96961072D01*
X128230001Y-96961088D01*
X128240494Y-97063797D01*
X128240494Y-97063799D01*
X128295640Y-97230220D01*
X128295645Y-97230231D01*
X128387680Y-97379441D01*
X128387683Y-97379445D01*
X128516425Y-97508187D01*
X128549910Y-97569510D01*
X128544926Y-97639202D01*
X128529063Y-97668752D01*
X128461130Y-97762255D01*
X128461129Y-97762257D01*
X128346760Y-97986717D01*
X128268910Y-98226312D01*
X128263642Y-98259573D01*
X128233711Y-98322707D01*
X128174398Y-98359637D01*
X128104536Y-98358637D01*
X128046304Y-98320026D01*
X128026610Y-98287628D01*
X127999394Y-98221922D01*
X127999390Y-98221915D01*
X127911789Y-98090812D01*
X127911786Y-98090808D01*
X127800292Y-97979314D01*
X127800288Y-97979311D01*
X127669185Y-97891710D01*
X127669172Y-97891703D01*
X127523501Y-97831365D01*
X127523489Y-97831362D01*
X127368845Y-97800601D01*
X127368842Y-97800601D01*
X127211158Y-97800601D01*
X127211155Y-97800601D01*
X127056510Y-97831362D01*
X127056498Y-97831365D01*
X126910827Y-97891703D01*
X126910814Y-97891710D01*
X126779711Y-97979311D01*
X126779707Y-97979314D01*
X126668213Y-98090808D01*
X126668210Y-98090812D01*
X126580609Y-98221915D01*
X126580602Y-98221928D01*
X126520264Y-98367599D01*
X126520261Y-98367611D01*
X126489500Y-98522254D01*
X126489500Y-98679947D01*
X126520261Y-98834590D01*
X126520264Y-98834602D01*
X126580602Y-98980273D01*
X126580609Y-98980286D01*
X126668210Y-99111389D01*
X126668213Y-99111393D01*
X126779707Y-99222887D01*
X126779711Y-99222890D01*
X126910814Y-99310491D01*
X126910827Y-99310498D01*
X127056498Y-99370836D01*
X127056503Y-99370838D01*
X127211153Y-99401600D01*
X127211156Y-99401601D01*
X127211158Y-99401601D01*
X127368844Y-99401601D01*
X127368845Y-99401600D01*
X127523497Y-99370838D01*
X127669179Y-99310495D01*
X127800289Y-99222890D01*
X127911789Y-99111390D01*
X127999394Y-98980280D01*
X128026609Y-98914576D01*
X128070447Y-98860174D01*
X128136741Y-98838108D01*
X128204440Y-98855386D01*
X128252052Y-98906522D01*
X128263642Y-98942629D01*
X128268910Y-98975888D01*
X128346760Y-99215484D01*
X128395173Y-99310498D01*
X128454812Y-99427547D01*
X128461132Y-99439949D01*
X128609201Y-99643750D01*
X128609205Y-99643755D01*
X128787345Y-99821895D01*
X128787350Y-99821899D01*
X128882262Y-99890856D01*
X128991155Y-99969971D01*
X129102506Y-100026707D01*
X129215616Y-100084340D01*
X129215618Y-100084340D01*
X129215621Y-100084342D01*
X129455215Y-100162191D01*
X129704038Y-100201601D01*
X129704039Y-100201601D01*
X129955961Y-100201601D01*
X129955962Y-100201601D01*
X130204785Y-100162191D01*
X130444379Y-100084342D01*
X130668845Y-99969971D01*
X130872656Y-99821894D01*
X131015767Y-99678783D01*
X144470000Y-99678783D01*
X144470000Y-99883418D01*
X144502009Y-100085518D01*
X144565244Y-100280132D01*
X144658141Y-100462451D01*
X144658147Y-100462460D01*
X144690523Y-100507022D01*
X144690524Y-100507023D01*
X145370000Y-99827547D01*
X145370000Y-99833762D01*
X145397259Y-99935495D01*
X145449920Y-100026707D01*
X145524394Y-100101181D01*
X145615606Y-100153842D01*
X145717339Y-100181101D01*
X145723553Y-100181101D01*
X145044076Y-100860575D01*
X145088650Y-100892960D01*
X145270968Y-100985856D01*
X145465582Y-101049091D01*
X145667683Y-101081101D01*
X145872317Y-101081101D01*
X146074417Y-101049091D01*
X146269031Y-100985856D01*
X146451349Y-100892960D01*
X146495921Y-100860575D01*
X146495922Y-100860575D01*
X145816447Y-100181101D01*
X145822661Y-100181101D01*
X145924394Y-100153842D01*
X146015606Y-100101181D01*
X146090080Y-100026707D01*
X146142741Y-99935495D01*
X146170000Y-99833762D01*
X146170000Y-99827549D01*
X146849474Y-100507023D01*
X146849474Y-100507022D01*
X146881859Y-100462450D01*
X146974755Y-100280132D01*
X147037990Y-100085518D01*
X147070000Y-99883418D01*
X147070000Y-99778783D01*
X148490000Y-99778783D01*
X148490000Y-99983418D01*
X148522009Y-100185518D01*
X148585244Y-100380132D01*
X148678141Y-100562451D01*
X148678147Y-100562460D01*
X148710523Y-100607022D01*
X148710524Y-100607023D01*
X149390000Y-99927547D01*
X149390000Y-99933762D01*
X149417259Y-100035495D01*
X149469920Y-100126707D01*
X149544394Y-100201181D01*
X149635606Y-100253842D01*
X149737339Y-100281101D01*
X149743553Y-100281101D01*
X149064076Y-100960575D01*
X149108650Y-100992960D01*
X149290968Y-101085856D01*
X149485582Y-101149091D01*
X149687683Y-101181101D01*
X149892317Y-101181101D01*
X150094417Y-101149091D01*
X150289031Y-101085856D01*
X150471349Y-100992960D01*
X150515921Y-100960575D01*
X149836447Y-100281101D01*
X149842661Y-100281101D01*
X149944394Y-100253842D01*
X150035606Y-100201181D01*
X150110080Y-100126707D01*
X150162741Y-100035495D01*
X150190000Y-99933762D01*
X150190000Y-99927549D01*
X150869474Y-100607023D01*
X150869474Y-100607022D01*
X150901859Y-100562450D01*
X150994755Y-100380132D01*
X151057990Y-100185518D01*
X151060505Y-100169640D01*
X151060505Y-100169639D01*
X151090000Y-99983418D01*
X151090000Y-99778783D01*
X151057990Y-99576683D01*
X150994755Y-99382069D01*
X150901859Y-99199751D01*
X150869474Y-99155178D01*
X150869474Y-99155177D01*
X150190000Y-99834652D01*
X150190000Y-99828440D01*
X150162741Y-99726707D01*
X150110080Y-99635495D01*
X150035606Y-99561021D01*
X149944394Y-99508360D01*
X149842661Y-99481101D01*
X149836446Y-99481101D01*
X150515922Y-98801625D01*
X150515921Y-98801624D01*
X150471359Y-98769248D01*
X150471350Y-98769242D01*
X150289031Y-98676345D01*
X150094417Y-98613110D01*
X149892317Y-98581101D01*
X149687683Y-98581101D01*
X149485582Y-98613110D01*
X149290968Y-98676345D01*
X149108644Y-98769244D01*
X149064077Y-98801624D01*
X149064077Y-98801625D01*
X149743554Y-99481101D01*
X149737339Y-99481101D01*
X149635606Y-99508360D01*
X149544394Y-99561021D01*
X149469920Y-99635495D01*
X149417259Y-99726707D01*
X149390000Y-99828440D01*
X149390000Y-99834654D01*
X148710524Y-99155178D01*
X148710523Y-99155178D01*
X148678143Y-99199745D01*
X148585244Y-99382069D01*
X148522009Y-99576683D01*
X148490000Y-99778783D01*
X147070000Y-99778783D01*
X147070000Y-99678783D01*
X147037990Y-99476683D01*
X146974755Y-99282069D01*
X146881859Y-99099751D01*
X146849474Y-99055178D01*
X146849474Y-99055177D01*
X146170000Y-99734652D01*
X146170000Y-99728440D01*
X146142741Y-99626707D01*
X146090080Y-99535495D01*
X146015606Y-99461021D01*
X145924394Y-99408360D01*
X145822661Y-99381101D01*
X145816446Y-99381101D01*
X146436345Y-98761203D01*
X146495922Y-98701625D01*
X146495921Y-98701624D01*
X146451359Y-98669248D01*
X146451350Y-98669242D01*
X146269031Y-98576345D01*
X146074417Y-98513110D01*
X145872317Y-98481101D01*
X145667683Y-98481101D01*
X145465582Y-98513110D01*
X145270968Y-98576345D01*
X145088644Y-98669244D01*
X145044077Y-98701624D01*
X145044077Y-98701625D01*
X145723554Y-99381101D01*
X145717339Y-99381101D01*
X145615606Y-99408360D01*
X145524394Y-99461021D01*
X145449920Y-99535495D01*
X145397259Y-99626707D01*
X145370000Y-99728440D01*
X145370000Y-99734654D01*
X144690524Y-99055178D01*
X144690523Y-99055178D01*
X144658143Y-99099745D01*
X144565244Y-99282069D01*
X144502009Y-99476683D01*
X144470000Y-99678783D01*
X131015767Y-99678783D01*
X131050793Y-99643757D01*
X131198870Y-99439946D01*
X131313241Y-99215480D01*
X131391090Y-98975886D01*
X131430500Y-98727063D01*
X131430500Y-98475139D01*
X131391090Y-98226316D01*
X131313241Y-97986722D01*
X131313239Y-97986719D01*
X131313239Y-97986717D01*
X131264826Y-97891703D01*
X131198870Y-97762256D01*
X131191233Y-97751745D01*
X131130937Y-97668753D01*
X131107457Y-97602947D01*
X131123283Y-97534893D01*
X131143574Y-97508186D01*
X131272320Y-97379440D01*
X131364354Y-97230231D01*
X131364359Y-97230220D01*
X131419505Y-97063798D01*
X131429999Y-96961087D01*
X131430000Y-96961074D01*
X131430000Y-96311101D01*
X130320748Y-96311101D01*
X130342518Y-96273393D01*
X130380000Y-96133510D01*
X130380000Y-95988692D01*
X130342518Y-95848809D01*
X130320748Y-95811101D01*
X131429999Y-95811101D01*
X131429999Y-95161129D01*
X131429998Y-95161114D01*
X131419505Y-95058404D01*
X131419505Y-95058402D01*
X131364359Y-94891981D01*
X131364354Y-94891970D01*
X131294658Y-94778976D01*
X131294657Y-94778975D01*
X131272317Y-94742757D01*
X131248309Y-94718749D01*
X140369500Y-94718749D01*
X140369500Y-94923452D01*
X140401522Y-95125635D01*
X140464781Y-95320324D01*
X140525411Y-95439314D01*
X140537333Y-95462714D01*
X140557715Y-95502714D01*
X140678028Y-95668314D01*
X140822786Y-95813072D01*
X140905371Y-95873072D01*
X140988390Y-95933388D01*
X141084295Y-95982254D01*
X141170776Y-96026319D01*
X141170778Y-96026319D01*
X141170781Y-96026321D01*
X141217239Y-96041416D01*
X141365465Y-96089578D01*
X141454280Y-96103645D01*
X141567648Y-96121601D01*
X141567649Y-96121601D01*
X141772351Y-96121601D01*
X141772352Y-96121601D01*
X141974534Y-96089578D01*
X142169219Y-96026321D01*
X142351610Y-95933388D01*
X142497201Y-95827611D01*
X142517213Y-95813072D01*
X142517215Y-95813069D01*
X142517219Y-95813067D01*
X142661966Y-95668320D01*
X142661968Y-95668316D01*
X142661971Y-95668314D01*
X142714732Y-95595691D01*
X142782287Y-95502711D01*
X142875220Y-95320320D01*
X142938477Y-95125635D01*
X142970500Y-94923453D01*
X142970500Y-94718749D01*
X142964164Y-94678749D01*
X144469500Y-94678749D01*
X144469500Y-94883452D01*
X144501522Y-95085635D01*
X144564781Y-95280324D01*
X144657715Y-95462714D01*
X144778028Y-95628314D01*
X144922786Y-95773072D01*
X145033604Y-95853584D01*
X145088390Y-95893388D01*
X145204607Y-95952604D01*
X145270776Y-95986319D01*
X145270778Y-95986319D01*
X145270781Y-95986321D01*
X145375137Y-96020228D01*
X145465465Y-96049578D01*
X145538218Y-96061101D01*
X145667648Y-96081601D01*
X145667649Y-96081601D01*
X145872351Y-96081601D01*
X145872352Y-96081601D01*
X146074534Y-96049578D01*
X146269219Y-95986321D01*
X146451610Y-95893388D01*
X146544590Y-95825833D01*
X146617213Y-95773072D01*
X146617215Y-95773069D01*
X146617219Y-95773067D01*
X146761966Y-95628320D01*
X146761968Y-95628316D01*
X146761971Y-95628314D01*
X146853223Y-95502714D01*
X146882287Y-95462711D01*
X146975220Y-95280320D01*
X147038477Y-95085635D01*
X147070500Y-94883453D01*
X147070500Y-94778749D01*
X148489500Y-94778749D01*
X148489500Y-94983452D01*
X148521522Y-95185635D01*
X148584781Y-95380324D01*
X148626760Y-95462711D01*
X148671650Y-95550812D01*
X148677715Y-95562714D01*
X148798028Y-95728314D01*
X148942786Y-95873072D01*
X149093065Y-95982254D01*
X149108390Y-95993388D01*
X149173021Y-96026319D01*
X149290776Y-96086319D01*
X149290778Y-96086319D01*
X149290781Y-96086321D01*
X149395137Y-96120228D01*
X149485465Y-96149578D01*
X149586557Y-96165589D01*
X149687648Y-96181601D01*
X149687649Y-96181601D01*
X149892351Y-96181601D01*
X149892352Y-96181601D01*
X150094534Y-96149578D01*
X150289219Y-96086321D01*
X150471610Y-95993388D01*
X150564590Y-95925833D01*
X150637213Y-95873072D01*
X150637215Y-95873069D01*
X150637219Y-95873067D01*
X150781966Y-95728320D01*
X150781968Y-95728316D01*
X150781971Y-95728314D01*
X150834732Y-95655691D01*
X150902287Y-95562711D01*
X150995220Y-95380320D01*
X151058477Y-95185635D01*
X151090500Y-94983453D01*
X151090500Y-94778749D01*
X151058477Y-94576567D01*
X151038981Y-94516566D01*
X151025985Y-94476566D01*
X150995220Y-94381882D01*
X150995218Y-94381879D01*
X150995218Y-94381877D01*
X150902287Y-94199491D01*
X150806603Y-94067792D01*
X150806602Y-94067789D01*
X150781971Y-94033888D01*
X150781967Y-94033883D01*
X150746320Y-93998236D01*
X152349500Y-93998236D01*
X152349500Y-95793971D01*
X152349501Y-95793977D01*
X152355908Y-95853584D01*
X152406202Y-95988429D01*
X152406206Y-95988436D01*
X152492452Y-96103645D01*
X152492455Y-96103648D01*
X152607664Y-96189894D01*
X152607671Y-96189898D01*
X152739082Y-96238911D01*
X152795016Y-96280782D01*
X152819433Y-96346246D01*
X152804582Y-96414519D01*
X152783431Y-96442774D01*
X152669889Y-96556316D01*
X152544951Y-96728280D01*
X152448444Y-96917686D01*
X152382753Y-97119861D01*
X152355994Y-97288811D01*
X152349500Y-97329814D01*
X152349500Y-97542388D01*
X152382754Y-97752344D01*
X152408429Y-97831364D01*
X152448444Y-97954515D01*
X152544951Y-98143921D01*
X152669890Y-98315887D01*
X152820213Y-98466210D01*
X152992179Y-98591149D01*
X152992181Y-98591150D01*
X152992184Y-98591152D01*
X153001493Y-98595895D01*
X153052290Y-98643867D01*
X153069087Y-98711688D01*
X153046552Y-98777823D01*
X153001502Y-98816863D01*
X152992443Y-98821479D01*
X152820540Y-98946373D01*
X152820535Y-98946377D01*
X152670276Y-99096636D01*
X152670272Y-99096641D01*
X152545379Y-99268543D01*
X152448904Y-99457883D01*
X152383242Y-99659971D01*
X152383242Y-99659974D01*
X152372769Y-99726101D01*
X153266988Y-99726101D01*
X153234075Y-99783108D01*
X153200000Y-99910275D01*
X153200000Y-100041927D01*
X153234075Y-100169094D01*
X153266988Y-100226101D01*
X152372769Y-100226101D01*
X152383242Y-100292227D01*
X152383242Y-100292230D01*
X152448904Y-100494318D01*
X152545379Y-100683658D01*
X152670272Y-100855560D01*
X152670276Y-100855565D01*
X152820535Y-101005824D01*
X152820540Y-101005828D01*
X152992442Y-101130721D01*
X153181782Y-101227196D01*
X153383871Y-101292858D01*
X153450000Y-101303332D01*
X153450000Y-100409113D01*
X153507007Y-100442026D01*
X153634174Y-100476101D01*
X153765826Y-100476101D01*
X153892993Y-100442026D01*
X153950000Y-100409113D01*
X153950000Y-101303331D01*
X154016126Y-101292858D01*
X154016129Y-101292858D01*
X154218217Y-101227196D01*
X154407557Y-101130721D01*
X154579459Y-101005828D01*
X154579464Y-101005824D01*
X154729723Y-100855565D01*
X154729727Y-100855560D01*
X154854620Y-100683658D01*
X154951095Y-100494318D01*
X155016757Y-100292230D01*
X155016757Y-100292227D01*
X155027231Y-100226101D01*
X154133012Y-100226101D01*
X154165925Y-100169094D01*
X154200000Y-100041927D01*
X154200000Y-99910275D01*
X154165925Y-99783108D01*
X154133012Y-99726101D01*
X155027231Y-99726101D01*
X155016757Y-99659974D01*
X155016757Y-99659971D01*
X154951095Y-99457883D01*
X154854620Y-99268543D01*
X154729727Y-99096641D01*
X154729723Y-99096636D01*
X154579464Y-98946377D01*
X154579459Y-98946373D01*
X154407555Y-98821478D01*
X154398500Y-98816864D01*
X154347706Y-98768889D01*
X154330912Y-98701067D01*
X154353451Y-98634933D01*
X154383355Y-98605031D01*
X154390599Y-98599924D01*
X154407816Y-98591152D01*
X154579792Y-98466205D01*
X154730104Y-98315893D01*
X154730106Y-98315889D01*
X154730109Y-98315887D01*
X154855048Y-98143921D01*
X154855047Y-98143921D01*
X154855051Y-98143917D01*
X154951557Y-97954513D01*
X155017246Y-97752344D01*
X155050500Y-97542388D01*
X155050500Y-97329814D01*
X155017246Y-97119858D01*
X154951557Y-96917689D01*
X154855051Y-96728285D01*
X154855049Y-96728282D01*
X154855048Y-96728280D01*
X154730109Y-96556314D01*
X154616569Y-96442774D01*
X154583084Y-96381451D01*
X154588068Y-96311759D01*
X154629940Y-96255826D01*
X154660915Y-96238911D01*
X154792331Y-96189897D01*
X154907546Y-96103647D01*
X154993796Y-95988432D01*
X155044091Y-95853584D01*
X155050500Y-95793974D01*
X155050499Y-93998229D01*
X155044091Y-93938618D01*
X155042326Y-93933887D01*
X154993797Y-93803772D01*
X154993793Y-93803765D01*
X154907547Y-93688556D01*
X154907544Y-93688553D01*
X154792335Y-93602307D01*
X154792328Y-93602303D01*
X154657482Y-93552009D01*
X154657483Y-93552009D01*
X154597883Y-93545602D01*
X154597881Y-93545601D01*
X154597873Y-93545601D01*
X154597864Y-93545601D01*
X152802129Y-93545601D01*
X152802123Y-93545602D01*
X152742516Y-93552009D01*
X152607671Y-93602303D01*
X152607664Y-93602307D01*
X152492455Y-93688553D01*
X152492452Y-93688556D01*
X152406206Y-93803765D01*
X152406202Y-93803772D01*
X152355908Y-93938618D01*
X152352117Y-93973887D01*
X152349501Y-93998224D01*
X152349500Y-93998236D01*
X150746320Y-93998236D01*
X150637213Y-93889129D01*
X150471613Y-93768816D01*
X150471612Y-93768815D01*
X150471610Y-93768814D01*
X150414653Y-93739792D01*
X150289223Y-93675882D01*
X150094534Y-93612623D01*
X149919995Y-93584979D01*
X149892352Y-93580601D01*
X149687648Y-93580601D01*
X149663329Y-93584452D01*
X149485465Y-93612623D01*
X149290776Y-93675882D01*
X149108386Y-93768816D01*
X148942786Y-93889129D01*
X148798028Y-94033887D01*
X148677715Y-94199487D01*
X148584781Y-94381877D01*
X148521522Y-94576566D01*
X148489500Y-94778749D01*
X147070500Y-94778749D01*
X147070500Y-94678749D01*
X147046424Y-94526741D01*
X147038477Y-94476566D01*
X146975218Y-94281877D01*
X146941503Y-94215708D01*
X146882287Y-94099491D01*
X146859257Y-94067792D01*
X146761971Y-93933887D01*
X146617213Y-93789129D01*
X146451613Y-93668816D01*
X146451612Y-93668815D01*
X146451610Y-93668814D01*
X146394653Y-93639792D01*
X146269223Y-93575882D01*
X146074534Y-93512623D01*
X145899995Y-93484979D01*
X145872352Y-93480601D01*
X145667648Y-93480601D01*
X145643329Y-93484452D01*
X145465465Y-93512623D01*
X145270776Y-93575882D01*
X145088386Y-93668816D01*
X144922786Y-93789129D01*
X144778028Y-93933887D01*
X144657715Y-94099487D01*
X144564781Y-94281877D01*
X144501522Y-94476566D01*
X144469500Y-94678749D01*
X142964164Y-94678749D01*
X142940089Y-94526746D01*
X142938477Y-94516566D01*
X142894715Y-94381882D01*
X142875220Y-94321882D01*
X142875218Y-94321879D01*
X142875218Y-94321877D01*
X142841503Y-94255708D01*
X142782287Y-94139491D01*
X142753223Y-94099487D01*
X142661971Y-93973887D01*
X142517213Y-93829129D01*
X142351613Y-93708816D01*
X142351612Y-93708815D01*
X142351610Y-93708814D01*
X142294653Y-93679792D01*
X142169223Y-93615882D01*
X141974534Y-93552623D01*
X141799995Y-93524979D01*
X141772352Y-93520601D01*
X141567648Y-93520601D01*
X141543329Y-93524452D01*
X141365465Y-93552623D01*
X141170776Y-93615882D01*
X140988386Y-93708816D01*
X140822786Y-93829129D01*
X140678028Y-93973887D01*
X140557715Y-94139487D01*
X140464781Y-94321877D01*
X140401522Y-94516566D01*
X140369500Y-94718749D01*
X131248309Y-94718749D01*
X131148344Y-94618784D01*
X131148340Y-94618781D01*
X130999130Y-94526746D01*
X130999119Y-94526741D01*
X130832697Y-94471595D01*
X130729986Y-94461101D01*
X130080000Y-94461101D01*
X130080000Y-95570353D01*
X130042292Y-95548583D01*
X129902409Y-95511101D01*
X129757591Y-95511101D01*
X129617708Y-95548583D01*
X129580000Y-95570353D01*
X129580000Y-94461101D01*
X128930028Y-94461101D01*
X128930012Y-94461102D01*
X128827303Y-94471595D01*
X128827301Y-94471595D01*
X128660880Y-94526741D01*
X128660869Y-94526746D01*
X128511659Y-94618781D01*
X128511655Y-94618784D01*
X128387683Y-94742756D01*
X128387680Y-94742760D01*
X128295645Y-94891970D01*
X128295640Y-94891981D01*
X128240494Y-95058403D01*
X128230000Y-95161114D01*
X128230000Y-95618319D01*
X128210315Y-95685358D01*
X128157511Y-95731113D01*
X128088353Y-95741057D01*
X128024797Y-95712032D01*
X128004105Y-95686100D01*
X128002779Y-95686987D01*
X127911789Y-95550812D01*
X127911786Y-95550808D01*
X127800292Y-95439314D01*
X127800288Y-95439311D01*
X127669185Y-95351710D01*
X127669172Y-95351703D01*
X127523501Y-95291365D01*
X127523489Y-95291362D01*
X127368845Y-95260601D01*
X127368842Y-95260601D01*
X127211158Y-95260601D01*
X127211155Y-95260601D01*
X127056510Y-95291362D01*
X127056498Y-95291365D01*
X126910827Y-95351703D01*
X126910814Y-95351710D01*
X126779711Y-95439311D01*
X126779707Y-95439314D01*
X126668213Y-95550808D01*
X126668210Y-95550812D01*
X126580609Y-95681915D01*
X126580602Y-95681928D01*
X126520264Y-95827599D01*
X126520261Y-95827611D01*
X126489500Y-95982254D01*
X123420371Y-95982254D01*
X123420371Y-89301101D01*
X135773391Y-89301101D01*
X136734314Y-89301101D01*
X136729920Y-89305495D01*
X136677259Y-89396707D01*
X136650000Y-89498440D01*
X136650000Y-89603762D01*
X136677259Y-89705495D01*
X136729920Y-89796707D01*
X136734314Y-89801101D01*
X135773391Y-89801101D01*
X135782009Y-89855514D01*
X135845244Y-90050130D01*
X135938140Y-90232450D01*
X136058417Y-90397995D01*
X136058417Y-90397996D01*
X136203104Y-90542683D01*
X136368650Y-90662960D01*
X136550968Y-90755855D01*
X136745578Y-90819089D01*
X136800000Y-90827708D01*
X136800000Y-89866787D01*
X136804394Y-89871181D01*
X136895606Y-89923842D01*
X136997339Y-89951101D01*
X137102661Y-89951101D01*
X137204394Y-89923842D01*
X137295606Y-89871181D01*
X137300000Y-89866787D01*
X137300000Y-90827707D01*
X137354421Y-90819089D01*
X137549031Y-90755855D01*
X137731349Y-90662960D01*
X137896894Y-90542683D01*
X137896895Y-90542683D01*
X138041582Y-90397996D01*
X138041582Y-90397995D01*
X138161859Y-90232450D01*
X138254755Y-90050130D01*
X138317990Y-89855514D01*
X138326609Y-89801101D01*
X137365686Y-89801101D01*
X137370080Y-89796707D01*
X137422741Y-89705495D01*
X137450000Y-89603762D01*
X137450000Y-89498440D01*
X137436685Y-89448749D01*
X145909500Y-89448749D01*
X145909500Y-89653452D01*
X145941522Y-89855635D01*
X146004781Y-90050324D01*
X146097715Y-90232714D01*
X146218028Y-90398314D01*
X146362786Y-90543072D01*
X146517749Y-90655657D01*
X146528390Y-90663388D01*
X146644607Y-90722604D01*
X146710776Y-90756319D01*
X146710778Y-90756319D01*
X146710781Y-90756321D01*
X146815137Y-90790228D01*
X146905465Y-90819578D01*
X147006557Y-90835589D01*
X147107648Y-90851601D01*
X147107649Y-90851601D01*
X147312351Y-90851601D01*
X147312352Y-90851601D01*
X147514534Y-90819578D01*
X147709219Y-90756321D01*
X147891610Y-90663388D01*
X147984590Y-90595833D01*
X148057213Y-90543072D01*
X148057215Y-90543069D01*
X148057219Y-90543067D01*
X148201966Y-90398320D01*
X148201968Y-90398316D01*
X148201971Y-90398314D01*
X148254732Y-90325691D01*
X148322287Y-90232711D01*
X148339515Y-90198898D01*
X148387490Y-90148103D01*
X148455311Y-90131308D01*
X148521446Y-90153845D01*
X148560485Y-90198899D01*
X148577715Y-90232714D01*
X148698028Y-90398314D01*
X148842786Y-90543072D01*
X148997749Y-90655657D01*
X149008390Y-90663388D01*
X149124607Y-90722604D01*
X149190776Y-90756319D01*
X149190778Y-90756319D01*
X149190781Y-90756321D01*
X149295137Y-90790228D01*
X149385465Y-90819578D01*
X149486557Y-90835589D01*
X149587648Y-90851601D01*
X149587649Y-90851601D01*
X149792351Y-90851601D01*
X149792352Y-90851601D01*
X149994534Y-90819578D01*
X150189219Y-90756321D01*
X150371610Y-90663388D01*
X150464590Y-90595833D01*
X150537213Y-90543072D01*
X150537215Y-90543069D01*
X150537219Y-90543067D01*
X150681966Y-90398320D01*
X150681968Y-90398316D01*
X150681971Y-90398314D01*
X150734732Y-90325691D01*
X150802287Y-90232711D01*
X150895220Y-90050320D01*
X150958477Y-89855635D01*
X150990500Y-89653453D01*
X150990500Y-89448749D01*
X158549500Y-89448749D01*
X158549500Y-89653452D01*
X158581522Y-89855635D01*
X158644781Y-90050324D01*
X158737715Y-90232714D01*
X158858028Y-90398314D01*
X159002786Y-90543072D01*
X159157749Y-90655657D01*
X159168390Y-90663388D01*
X159284607Y-90722604D01*
X159350776Y-90756319D01*
X159350778Y-90756319D01*
X159350781Y-90756321D01*
X159455137Y-90790228D01*
X159545465Y-90819578D01*
X159646557Y-90835589D01*
X159747648Y-90851601D01*
X159747649Y-90851601D01*
X159952351Y-90851601D01*
X159952352Y-90851601D01*
X160154534Y-90819578D01*
X160349219Y-90756321D01*
X160531610Y-90663388D01*
X160624590Y-90595833D01*
X160697213Y-90543072D01*
X160697215Y-90543069D01*
X160697219Y-90543067D01*
X160841966Y-90398320D01*
X160841968Y-90398316D01*
X160841971Y-90398314D01*
X160894732Y-90325691D01*
X160962287Y-90232711D01*
X161055220Y-90050320D01*
X161118477Y-89855635D01*
X161150500Y-89653453D01*
X161150500Y-89448749D01*
X161142257Y-89396707D01*
X161118477Y-89246566D01*
X161055218Y-89051877D01*
X161002470Y-88948355D01*
X160962287Y-88869491D01*
X160954556Y-88858850D01*
X160841971Y-88703887D01*
X160697213Y-88559129D01*
X160531613Y-88438816D01*
X160531612Y-88438815D01*
X160531610Y-88438814D01*
X160474653Y-88409792D01*
X160349223Y-88345882D01*
X160154534Y-88282623D01*
X159979995Y-88254979D01*
X159952352Y-88250601D01*
X159747648Y-88250601D01*
X159723329Y-88254452D01*
X159545465Y-88282623D01*
X159350776Y-88345882D01*
X159168386Y-88438816D01*
X159002786Y-88559129D01*
X158858028Y-88703887D01*
X158737715Y-88869487D01*
X158644781Y-89051877D01*
X158581522Y-89246566D01*
X158549500Y-89448749D01*
X150990500Y-89448749D01*
X150982257Y-89396707D01*
X150958477Y-89246566D01*
X150895218Y-89051877D01*
X150842470Y-88948355D01*
X150802287Y-88869491D01*
X150794556Y-88858850D01*
X150681971Y-88703887D01*
X150537213Y-88559129D01*
X150371613Y-88438816D01*
X150371612Y-88438815D01*
X150371610Y-88438814D01*
X150314653Y-88409792D01*
X150189223Y-88345882D01*
X149994534Y-88282623D01*
X149819995Y-88254979D01*
X149792352Y-88250601D01*
X149587648Y-88250601D01*
X149563329Y-88254452D01*
X149385465Y-88282623D01*
X149190776Y-88345882D01*
X149008386Y-88438816D01*
X148842786Y-88559129D01*
X148698028Y-88703887D01*
X148577713Y-88869489D01*
X148560484Y-88903303D01*
X148512509Y-88954099D01*
X148444688Y-88970893D01*
X148378553Y-88948355D01*
X148339516Y-88903303D01*
X148322286Y-88869489D01*
X148201971Y-88703887D01*
X148057213Y-88559129D01*
X147891613Y-88438816D01*
X147891612Y-88438815D01*
X147891610Y-88438814D01*
X147834653Y-88409792D01*
X147709223Y-88345882D01*
X147514534Y-88282623D01*
X147339995Y-88254979D01*
X147312352Y-88250601D01*
X147107648Y-88250601D01*
X147083329Y-88254452D01*
X146905465Y-88282623D01*
X146710776Y-88345882D01*
X146528386Y-88438816D01*
X146362786Y-88559129D01*
X146218028Y-88703887D01*
X146097715Y-88869487D01*
X146004781Y-89051877D01*
X145941522Y-89246566D01*
X145909500Y-89448749D01*
X137436685Y-89448749D01*
X137422741Y-89396707D01*
X137370080Y-89305495D01*
X137365686Y-89301101D01*
X138326609Y-89301101D01*
X138317990Y-89246687D01*
X138254755Y-89052071D01*
X138161859Y-88869751D01*
X138041582Y-88704206D01*
X138041582Y-88704205D01*
X137896895Y-88559518D01*
X137731349Y-88439241D01*
X137549029Y-88346345D01*
X137354413Y-88283110D01*
X137300000Y-88274491D01*
X137300000Y-89235415D01*
X137295606Y-89231021D01*
X137204394Y-89178360D01*
X137102661Y-89151101D01*
X136997339Y-89151101D01*
X136895606Y-89178360D01*
X136804394Y-89231021D01*
X136800000Y-89235415D01*
X136800000Y-88274491D01*
X136745586Y-88283110D01*
X136550970Y-88346345D01*
X136368650Y-88439241D01*
X136203105Y-88559518D01*
X136203104Y-88559518D01*
X136058417Y-88704205D01*
X136058417Y-88704206D01*
X135938140Y-88869751D01*
X135845244Y-89052071D01*
X135782009Y-89246687D01*
X135773391Y-89301101D01*
X123420371Y-89301101D01*
X123420371Y-85263178D01*
X123440056Y-85196139D01*
X123492860Y-85150384D01*
X123562018Y-85140440D01*
X123615492Y-85161602D01*
X123658013Y-85191375D01*
X124046452Y-85415641D01*
X124046461Y-85415645D01*
X124452953Y-85605197D01*
X124452963Y-85605201D01*
X124874444Y-85758606D01*
X125003153Y-85793093D01*
X125307689Y-85874694D01*
X125749406Y-85952580D01*
X126196228Y-85991672D01*
X126196229Y-85991673D01*
X126196230Y-85991673D01*
X126644763Y-85991673D01*
X126644763Y-85991672D01*
X127091586Y-85952580D01*
X127533303Y-85874694D01*
X127966551Y-85758605D01*
X128388033Y-85605199D01*
X128388038Y-85605197D01*
X128523535Y-85542013D01*
X128794540Y-85415641D01*
X129182979Y-85191375D01*
X129550395Y-84934109D01*
X129893990Y-84645798D01*
X130211149Y-84328639D01*
X130499460Y-83985044D01*
X130756726Y-83617628D01*
X130980992Y-83229189D01*
X131170550Y-82822682D01*
X131199126Y-82744171D01*
X131323957Y-82401196D01*
X131348907Y-82308082D01*
X131440045Y-81967952D01*
X131517931Y-81526235D01*
X131557024Y-81079411D01*
X131557024Y-80630879D01*
X131517931Y-80184055D01*
X131440045Y-79742338D01*
X131323956Y-79309090D01*
X131273004Y-79169099D01*
X131170552Y-78887612D01*
X131170548Y-78887602D01*
X130980996Y-78481110D01*
X130980988Y-78481094D01*
X130765351Y-78107601D01*
X130748878Y-78039701D01*
X130771730Y-77973674D01*
X130826652Y-77930483D01*
X130872738Y-77921601D01*
X161766000Y-77921601D01*
X161833039Y-77941286D01*
G37*
%TD.AperFunction*%
%TD*%
M02*
