%TF.GenerationSoftware,KiCad,Pcbnew,9.0.1+1*%
%TF.CreationDate,2025-12-31T05:22:49+00:00*%
%TF.ProjectId,WALKIN_PIR_IF,57414c4b-494e-45f5-9049-525f49462e6b,A*%
%TF.SameCoordinates,Original*%
%TF.FileFunction,Other,User*%
%FSLAX46Y46*%
G04 Gerber Fmt 4.6, Leading zero omitted, Abs format (unit mm)*
G04 Created by KiCad (PCBNEW 9.0.1+1) date 2025-12-31 05:22:49*
%MOMM*%
%LPD*%
G01*
G04 APERTURE LIST*
%ADD10C,0.050000*%
G04 APERTURE END LIST*
D10*
%TO.C,J2*%
X169867500Y-95911101D02*
X169867500Y-110071101D01*
X169867500Y-110071101D02*
X177067500Y-110071101D01*
X177067500Y-95911101D02*
X169867500Y-95911101D01*
X177067500Y-110071101D02*
X177067500Y-95911101D01*
%TO.C,C1*%
X144570000Y-93731101D02*
X144570000Y-100831101D01*
X144570000Y-100831101D02*
X146970000Y-100831101D01*
X146970000Y-93731101D02*
X144570000Y-93731101D01*
X146970000Y-100831101D02*
X146970000Y-93731101D01*
%TO.C,C2*%
X148590000Y-93831101D02*
X148590000Y-100931101D01*
X148590000Y-100931101D02*
X150990000Y-100931101D01*
X150990000Y-93831101D02*
X148590000Y-93831101D01*
X150990000Y-100931101D02*
X150990000Y-93831101D01*
%TO.C,U1*%
X159910000Y-94626101D02*
X169640000Y-94626101D01*
X169640000Y-100216101D01*
X159910000Y-100216101D01*
X159910000Y-94626101D01*
%TO.C,Q1*%
X134682500Y-96931101D02*
X134682500Y-100331101D01*
X134682500Y-100331101D02*
X138782500Y-100331101D01*
X138782500Y-96931101D02*
X134682500Y-96931101D01*
X138782500Y-100331101D02*
X138782500Y-96931101D01*
%TO.C,D3*%
X165640000Y-107031101D02*
X167940000Y-107031101D01*
X165640000Y-111431101D02*
X165640000Y-107031101D01*
X165640000Y-111431101D02*
X167940000Y-111431101D01*
X167940000Y-107031101D02*
X167940000Y-111431101D01*
%TO.C,R2*%
X148640000Y-88051101D02*
X148640000Y-91051101D01*
X148640000Y-91051101D02*
X160900000Y-91051101D01*
X160900000Y-88051101D02*
X148640000Y-88051101D01*
X160900000Y-91051101D02*
X160900000Y-88051101D01*
%TO.C,J1*%
X126230000Y-94061101D02*
X126230000Y-100601101D01*
X126230000Y-100601101D02*
X133430000Y-100601101D01*
X133430000Y-94061101D02*
X126230000Y-94061101D01*
X133430000Y-100601101D02*
X133430000Y-94061101D01*
%TO.C,JP1*%
X129350000Y-101741101D02*
X129350000Y-102741101D01*
X129350000Y-102741101D02*
X130000000Y-103391101D01*
X130000000Y-101091101D02*
X129350000Y-101741101D01*
X130000000Y-103391101D02*
X133800000Y-103391101D01*
X133800000Y-101091101D02*
X130000000Y-101091101D01*
X133800000Y-103391101D02*
X134450000Y-102741101D01*
X134450000Y-101741101D02*
X133800000Y-101091101D01*
X134450000Y-102741101D02*
X134450000Y-101741101D01*
%TO.C,D1*%
X165640000Y-101694851D02*
X167940000Y-101694851D01*
X165640000Y-106094851D02*
X165640000Y-101694851D01*
X165640000Y-106094851D02*
X167940000Y-106094851D01*
X167940000Y-101694851D02*
X167940000Y-106094851D01*
%TO.C,C3*%
X165640000Y-84671101D02*
X165640000Y-91771101D01*
X165640000Y-91771101D02*
X168040000Y-91771101D01*
X168040000Y-84671101D02*
X165640000Y-84671101D01*
X168040000Y-91771101D02*
X168040000Y-84671101D01*
%TO.C,H1*%
X186975535Y-113885568D02*
G75*
G02*
X180075535Y-113885568I-3450000J0D01*
G01*
X180075535Y-113885568D02*
G75*
G02*
X186975535Y-113885568I3450000J0D01*
G01*
%TO.C,H3*%
X186975535Y-80956635D02*
G75*
G02*
X180075535Y-80956635I-3450000J0D01*
G01*
X180075535Y-80956635D02*
G75*
G02*
X186975535Y-80956635I3450000J0D01*
G01*
%TO.C,R1*%
X140170000Y-93771101D02*
X140170000Y-106031101D01*
X140170000Y-106031101D02*
X143170000Y-106031101D01*
X143170000Y-93771101D02*
X140170000Y-93771101D01*
X143170000Y-106031101D02*
X143170000Y-93771101D01*
%TO.C,J3*%
X169867500Y-84911101D02*
X169867500Y-91451101D01*
X169867500Y-91451101D02*
X177067500Y-91451101D01*
X177067500Y-84911101D02*
X169867500Y-84911101D01*
X177067500Y-91451101D02*
X177067500Y-84911101D01*
%TO.C,H4*%
X129905534Y-80956635D02*
G75*
G02*
X123005534Y-80956635I-3450000J0D01*
G01*
X123005534Y-80956635D02*
G75*
G02*
X129905534Y-80956635I3450000J0D01*
G01*
%TO.C,H2*%
X129905534Y-113885568D02*
G75*
G02*
X123005534Y-113885568I-3450000J0D01*
G01*
X123005534Y-113885568D02*
G75*
G02*
X129905534Y-113885568I3450000J0D01*
G01*
%TO.C,S1*%
X151900000Y-93096101D02*
X151900000Y-101746101D01*
X151900000Y-101746101D02*
X155500000Y-101746101D01*
X155500000Y-93096101D02*
X151900000Y-93096101D01*
X155500000Y-101746101D02*
X155500000Y-93096101D01*
%TO.C,D2*%
X170277500Y-93091101D02*
X174677500Y-93091101D01*
X170277500Y-95391101D02*
X170277500Y-93091101D01*
X174677500Y-95391101D02*
X170277500Y-95391101D01*
X174677500Y-95391101D02*
X174677500Y-93091101D01*
%TO.C,R3*%
X136000000Y-88051101D02*
X136000000Y-91051101D01*
X136000000Y-91051101D02*
X148260000Y-91051101D01*
X148260000Y-88051101D02*
X136000000Y-88051101D01*
X148260000Y-91051101D02*
X148260000Y-88051101D01*
%TD*%
M02*
